<?xml version="1.0" standalone="no"?>
<svg xmlns="http://www.w3.org/2000/svg" viewBox="-6.37 -6.37 12.74 12.74" color="#212121" width="75" height="75"><g transform="matrix(1 0 0 -1 0 0)">
		<g xmlns="http://www.w3.org/2000/svg" id="Circle_8_">
			<path class="primary" fill="currentColor" d="M-0.001-6.245c-3.443,0-6.244,2.802-6.244,6.246c0,3.443,2.801,6.244,6.244,6.244    c3.444,0,6.246-2.801,6.246-6.244C6.245-3.443,3.443-6.245-0.001-6.245z"/>
			<path class="secondary" d="M-0.001,6.12c3.381,0,6.121-2.74,6.121-6.119c0-3.381-2.74-6.121-6.121-6.121    c-3.379,0-6.119,2.74-6.119,6.121C-6.12,3.38-3.38,6.12-0.001,6.12 M-0.001,6.37c-3.512,0-6.369-2.857-6.369-6.369    c0-3.513,2.857-6.371,6.369-6.371c3.513,0,6.371,2.858,6.371,6.371C6.37,3.513,3.512,6.37-0.001,6.37L-0.001,6.37z" fill="#FFFFFF"/>
		</g>
		<path xmlns="http://www.w3.org/2000/svg" class="secondary" d="M-0.001-5.619v0.26h1.764v0.688c0,0-0.774,0.324-1.42,0.285c0.173,0.78,0.414,3.535,0.394,4.429   c0,0,4.391-0.076,5.079,0.118c0.013,0.325,0,0.688,0,0.688S3.895,1.082,2.062,1.155C2.086,1.287,2.1,1.446,2.1,1.616   c0,0.459-0.102,0.832-0.228,0.832S1.644,2.075,1.644,1.616c0-0.165,0.014-0.318,0.036-0.447C1.355,1.178,1.036,1.181,0.736,1.175   c-0.052,0.74,0.329,4.443-0.822,4.443c-1.152,0-0.801-4.43-0.801-4.43S-1.269,1.18-1.818,1.167   c0.023,0.129,0.036,0.283,0.036,0.449c0,0.459-0.102,0.832-0.228,0.832c-0.125,0-0.227-0.373-0.227-0.832   c0-0.17,0.014-0.329,0.037-0.461c-1.354-0.04-3.316-0.12-3.625-0.253c0.013-0.481,0-0.859,0-0.859h4.988   c0,0-0.039-3.081,0.415-4.415C-1.251-4.45-1.875-4.685-1.927-4.749c0.013-0.182,0-0.61,0-0.61h1.715v-0.26   C-0.212-5.619-0.001-5.619-0.001-5.619z" fill="#FFFFFF"/>
	</g></svg>