<?xml version="1.0" standalone="no"?>
<svg xmlns="http://www.w3.org/2000/svg" viewBox="-6.37 -6.37 12.74 12.74" color="#212121" width="75" height="75"><g transform="matrix(1 0 0 -1 0 0)">
		<g xmlns="http://www.w3.org/2000/svg">
			<circle class="primary" fill="currentColor" cx="0" cy="0" r="6.245"/>
			<path class="secondary" d="M0,6.12c3.38,0,6.12-2.74,6.12-6.12S3.38-6.12,0-6.12S-6.12-3.38-6.12,0S-3.38,6.12,0,6.12 M0,6.37    c-3.513,0-6.37-2.857-6.37-6.37S-3.513-6.37,0-6.37S6.37-3.513,6.37,0S3.513,6.37,0,6.37L0,6.37z" fill="#FFFFFF"/>
		</g>
		<path xmlns="http://www.w3.org/2000/svg" id="AV-8B_Harrier_2_1_" class="secondary" d="M3.698-0.896L3.443-0.684v0.11h0.012L3.443-0.289c0,0.001,0,0.003,0,0.005   c0,0.082-0.116,0.147-0.144,0.147c-0.027,0-0.143-0.066-0.143-0.147c0-0.002,0-0.003,0-0.005l0.021-0.285h-0.02v-0.038L2.869-0.265   V0h0.008L2.788,0.122c0,0.001,0.001-0.017,0.001-0.015c0,0.082-0.022,0.137-0.05,0.137c-0.028,0-0.05-0.071-0.05-0.152   c0-0.002,0,0.034,0,0.032L2.6,0H2.582v-0.192l-0.707,0.55c0.003,0.07,0.032,0.131,0.032,0.18c0,0.364-0.09,0.659-0.218,0.659   c-0.109,0-0.194-0.219-0.218-0.513l-0.438,0.32c0,1.596-0.241,1.995-0.241,1.995c-0.18,0.18-0.506,0.114-0.506,0.114v1.729   c0,0.52-0.175,0.81-0.275,0.918l-0.035,0.058L-0.028,5.76c-0.1-0.108-0.261-0.397-0.261-0.918V3.113c0,0-0.334,0.066-0.515-0.114   c0,0-0.229-0.399-0.229-1.995l-0.45-0.319c-0.023,0.293-0.12,0.513-0.229,0.513c-0.127,0-0.233-0.295-0.233-0.659   c0-0.049-0.064-0.11-0.061-0.179l-0.867-0.581V0h0.219l-0.089,0.122c0,0.002,0-0.017,0-0.015c0,0.082-0.037,0.138-0.065,0.138   c-0.027,0-0.065-0.076-0.065-0.157c0-0.002,0-0.003,0-0.005L-2.932,0h0.059v-0.294l-0.574-0.347v0.067h0.215l-0.215,0.285   c0,0.001,0,0.003,0,0.005c0,0.082,0,0.147,0,0.147s0-0.066,0-0.147c0-0.002,0-0.003,0-0.005L-3.51-0.574h0.063v-0.139l-0.24-0.184   c0,0-0.165-0.241-0.089-0.792l1.431,0.253h0.104c-0.005-0.287-0.008-0.212-0.008-0.295c0-0.312,0.04-0.597,0.09-0.597   s0.09,0.3,0.09,0.613c0,0.083-0.002-0.008-0.008,0.279h0.212l-0.083-0.287h0.231c0.002,0,0.01-0.047,0.021-0.047   c0.01,0,0.018,0.047,0.021,0.047h0.231l-0.082,0.287h0.967c0,0,0.083-1.488,0.215-2.305l-1.381-1.126v-0.342l1.723,0.247v-0.627   v-0.228v0.228v0.627l1.723-0.247v0.342L0.334-3.741c0.133,0.817,0.209,2.305,0.209,2.305h0.99L1.451-1.723h0.231   c0.002,0,0.01-0.047,0.02-0.047s0.019,0.047,0.021,0.047h0.231L1.873-1.436h0.228C2.095-1.723,2.092-1.647,2.092-1.731   c0-0.312,0.041-0.597,0.09-0.597c0.05,0,0.09,0.3,0.09,0.613c0,0.083-0.003-0.008-0.008,0.279H2.33l1.444-0.253   C3.85-1.137,3.698-0.896,3.698-0.896z" fill="#FFFFFF"/>
	</g></svg>