<?xml version="1.0" standalone="no"?>
<svg xmlns="http://www.w3.org/2000/svg" viewBox="-6.37 -6.37 12.74 12.74" color="#212121" width="75" height="75"><g transform="matrix(1 0 0 -1 0 0)">
		<g xmlns="http://www.w3.org/2000/svg">
			<circle class="primary" fill="currentColor" cx="0" cy="0" r="6.245"/>
			<path class="secondary" d="M0,6.12c3.38,0,6.12-2.74,6.12-6.12S3.38-6.12,0-6.12S-6.12-3.38-6.12,0S-3.38,6.12,0,6.12 M0,6.37    c-3.513,0-6.37-2.857-6.37-6.37S-3.513-6.37,0-6.37S6.37-3.513,6.37,0S3.513,6.37,0,6.37L0,6.37z" fill="#FFFFFF"/>
		</g>
		<path xmlns="http://www.w3.org/2000/svg" id="B-I_Lancer_1_" class="secondary" d="M5.254-0.703L1.268,0.478c0,0-0.97,1.577-0.97,4.168l0.159-0.085l0.028,0.085L0.277,4.951   c0,0-0.05,0.945-0.264,1.158l-0.01,0.057v0.032L0,6.182l-0.003,0.016V6.166l-0.011-0.057c-0.213-0.213-0.264-1.158-0.264-1.158   l-0.207-0.304l0.028-0.085l0.159,0.085c0-2.592-0.97-4.168-0.97-4.168l-3.987-1.181c0,0-0.173-0.065-0.162-0.271l0.054-0.368   l3.651,0.292l0.39,0.466c0,0-0.173-0.834-0.108-1.495c0,0,0.054-0.53,0.119-0.65h0.239c0,0,0.064,0.152,0.075,0.271l0.074-0.271   h0.276c0,0,0.044,0.22,0.049,0.318c0,0,0.183-0.467,0.187-1.215l-1.287-1.174c0,0-0.11-0.175-0.11-0.37V-5.38l1.618,0.585   c0,0-0.001-0.358,0.189-0.634v-0.008C-0.002-5.436,0-5.434,0-5.433c0-0.001,0.002-0.003,0.002-0.004v0.008   c0.19,0.276,0.189,0.634,0.189,0.634L1.809-5.38v0.211c0,0.195-0.11,0.37-0.11,0.37L0.411-3.625C0.416-2.877,0.599-2.41,0.599-2.41   c0.004-0.098,0.049-0.318,0.049-0.318h0.276l0.073,0.271c0.011-0.119,0.076-0.271,0.076-0.271h0.239   c0.065,0.12,0.119,0.65,0.119,0.65c0.065,0.661-0.108,1.495-0.108,1.495l0.39-0.466l3.651-0.292l0.054,0.368   C5.427-0.768,5.254-0.703,5.254-0.703z" fill="#FFFFFF"/>
	</g></svg>