<?xml version="1.0" standalone="no"?>
<svg xmlns="http://www.w3.org/2000/svg" viewBox="-6.37 -6.37 12.74 12.74" color="#212121" width="75" height="75"><g transform="matrix(1 0 0 -1 0 0)">
		<g xmlns="http://www.w3.org/2000/svg">
			<circle class="primary" fill="currentColor" cx="0" cy="0" r="6.245"/>
			<path class="secondary" d="M0,6.12c3.38,0,6.12-2.74,6.12-6.12S3.38-6.12,0-6.12S-6.12-3.38-6.12,0S-3.38,6.12,0,6.12 M0,6.37    c-3.513,0-6.37-2.857-6.37-6.37S-3.513-6.37,0-6.37S6.37-3.513,6.37,0S3.513,6.37,0,6.37L0,6.37z" fill="#FFFFFF"/>
		</g>
		<path xmlns="http://www.w3.org/2000/svg" class="secondary" d="M5.64-1.696c0,0.075-0.048,0.152-0.146,0.247C5.428-1.385,4.554-0.6,3.553,0.298   c0.002,0.003,0.003,0.005,0.003,0.005C3.572,0.356,3.593,0.47,3.593,0.68s-0.018,0.3-0.042,0.378   C3.528,1.13,3.488,1.122,3.488,1.122H3.18c0,0-0.039,0.008-0.063-0.063c-0.023-0.065-0.041-0.153-0.043-0.33   c-0.324,0.29-0.65,0.582-0.955,0.855c0.015,0.062,0.03,0.17,0.03,0.345c0,0.211-0.019,0.301-0.043,0.379   C2.083,2.38,2.042,2.371,2.042,2.371H1.734c0,0-0.038,0.008-0.063-0.062C1.65,2.249,1.633,2.171,1.629,2.023   c-0.532,0.478-0.95,0.851-1.102,0.988C0.516,3.183,0.491,3.29,0.454,3.385c0,0.635,0,1.094,0,1.175   c0,0.289-0.145,1.106-0.454,1.106c-0.31,0-0.454-0.818-0.454-1.106c0-0.081,0-0.54,0-1.175C-0.492,3.29-0.517,3.183-0.527,3.011   c-0.15-0.135-0.56-0.502-1.083-0.971c-0.006,0.135-0.021,0.205-0.041,0.269C-1.674,2.38-1.715,2.371-1.715,2.371h-0.308   c0,0-0.038,0.008-0.062-0.062C-2.11,2.237-2.13,2.14-2.13,1.929c0-0.162,0.014-0.266,0.027-0.33   c-0.306-0.274-0.632-0.566-0.956-0.857C-3.062,0.909-3.08,0.988-3.102,1.059s-0.063,0.063-0.063,0.063h-0.308   c0,0-0.038,0.008-0.062-0.063C-3.561,0.988-3.58,0.891-3.58,0.68c0-0.204,0.021-0.317,0.037-0.372   c-1.006-0.902-1.886-1.693-1.952-1.757c-0.098-0.095-0.146-0.172-0.146-0.247c0,0,0-0.245,0-0.338c0-0.063,0.034-0.035,0.034-0.035   l1.688,1.023c0.008-0.074,0.023-0.18,0.042-0.18c0.021,0,0.033,0.15,0.038,0.229l0.723,0.439c0.008-0.074,0.023-0.188,0.042-0.188   c0.022,0,0.034,0.161,0.038,0.237l0.369,0.224c0.008-0.074,0.023-0.182,0.042-0.182c0.021,0,0.033,0.152,0.037,0.23l0.443,0.269   c0.008-0.073,0.023-0.197,0.043-0.197c0.021,0,0.033,0.148,0.038,0.227l0.392,0.124c0.008-0.073,0.023-0.202,0.043-0.203   c0.021,0,0.034,0.149,0.038,0.228l0.528,0.167l-0.044-0.014C-1.1,0.294-1.084,0.15-1.063,0.15c0.022,0,0.034,0.166,0.039,0.24   l0.491,0.155V0.036c0-0.272,0.035-0.432,0.078-0.583v0.761V0.212c0-0.86,0-1.581,0-1.841c0-0.255,0.023-0.534,0.062-0.826   l-1.809-1.641v-0.56l0.205,0.127v-0.269h0.015v0.278l0.878,0.546v-0.26h0.015v0.269l0.639,0.398v-0.271h0.016v0.28l0.205,0.128   c0.053-0.265,0.12-0.516,0.188-0.724h0.014c0.012-0.176,0.022-0.254,0.022-0.254h0.007c0,0,0.01,0.078,0.022,0.254H0.04   C0.109-3.945,0.176-3.695,0.228-3.43l0.205-0.128v-0.28h0.015v0.271l0.64-0.399v-0.268h0.014v0.26L1.98-4.519v-0.278h0.015v0.269   L2.2-4.655l0.001,0.56L0.393-2.454C0.43-2.162,0.454-1.883,0.454-1.628c0,0.26,0,0.98,0,1.841v0.002v-0.761   c0.043,0.151,0.079,0.31,0.079,0.583v0.506l0.492-0.155c0.004-0.074,0.016-0.24,0.038-0.24c0.021,0,0.037,0.144,0.045,0.214   L1.591,0.21c0.004-0.078,0.016-0.228,0.037-0.228s0.037,0.129,0.044,0.203l0.457-0.144l-0.065,0.02   c0.005-0.078,0.017-0.227,0.038-0.227c0.02,0,0.035,0.124,0.043,0.197l0.443-0.269c0.004-0.078,0.016-0.23,0.037-0.23   c0.019,0,0.034,0.108,0.042,0.182l0.369-0.223C3.04-0.585,3.052-0.746,3.074-0.746c0.018,0,0.034,0.114,0.042,0.188l0.723-0.439   c0.005-0.079,0.017-0.229,0.038-0.229c0.019,0,0.033,0.106,0.042,0.18l1.688-1.023c0,0,0.034-0.028,0.034,0.035   C5.641-1.94,5.64-1.696,5.64-1.696z" fill="#FFFFFF"/>
	</g></svg>