<?xml version="1.0" standalone="no"?>
<svg xmlns="http://www.w3.org/2000/svg" viewBox="-6.37 -6.37 12.74 12.74" color="#212121" width="75" height="75"><g transform="matrix(1 0 0 -1 0 0)">
		<g xmlns="http://www.w3.org/2000/svg">
			<circle class="primary" fill="currentColor" cx="0" cy="0" r="6.245"/>
			<path class="secondary" d="M0,6.12c3.38,0,6.12-2.74,6.12-6.12S3.38-6.12,0-6.12S-6.12-3.38-6.12,0S-3.38,6.12,0,6.12 M0,6.37    c-3.513,0-6.37-2.857-6.37-6.37S-3.513-6.37,0-6.37S6.37-3.513,6.37,0S3.513,6.37,0,6.37L0,6.37z" fill="#FFFFFF"/>
		</g>
		<path xmlns="http://www.w3.org/2000/svg" id="Boeing_E-4_1_" class="secondary" d="M-1.614-5.809v0.002l1.515,0.517c0.024-0.182,0.039-0.308,0.042-0.322   c0.005-0.031,0.02-0.061,0.041-0.071C-0.011-5.748-0.005-5.794,0-5.814c0.006,0.02,0.011,0.067,0.017,0.131   c0.021,0.011,0.036,0.041,0.042,0.071C0.061-5.598,0.076-5.472,0.1-5.29l1.515-0.517v-0.002c0,0,0,0.001,0,0.002l0.029-0.01   C1.638-5.515,1.556-5.378,1.491-5.31C1.427-5.242,0.279-4.356,0.258-4.341l0.003,0.017c0,0,0,0,0,0.001   C0.379-3.777,0.51-2.595,0.51-1.919v1.38l0.045,0.234l0.575-0.07l0.082-0.031c0.001-0.1,0.018-0.257,0.033-0.259   C1.26-0.667,1.276-0.53,1.279-0.432l0.492-0.187C1.775-0.725,1.79-0.874,1.803-0.875c0.014,0,0.03,0.131,0.033,0.23l0.502-0.191   C2.341-0.935,2.354-1.079,2.37-1.08C2.384-1.081,2.397-0.955,2.4-0.86l0.503-0.191c0.001-0.097,0.013-0.233,0.029-0.235   c0.016,0,0.028,0.123,0.029,0.212L3.11-1.129l0.128-0.055c0-0.096,0.01-0.216,0.026-0.216C3.28-1.403,3.286-1.303,3.286-1.207   l0.007-0.002v-0.002l0.302-0.141l1.324-0.624l0.007-0.016L4.97-2.004c0,0,0.006,0.185-0.005,0.21   C4.938-1.729,4.87-1.607,4.84-1.566c-0.028,0.04-0.03,0.103-0.071,0.167L4.767-1.394c0-0.001-0.001-0.001-0.001-0.002   c-0.011,0.018-0.025,0.034-0.043,0.05C4.689-1.315,4.066-0.857,3.31-0.302l0.091-0.066c0.012,0.048,0.012,0.1,0.019,0.193   c0.013,0.15,0.013,0.484-0.009,0.649C3.407,0.498,3.396,0.523,3.37,0.525c-0.027,0.003-0.243,0-0.268-0.005   C3.078,0.515,3.068,0.509,3.063,0.487C3.035,0.33,3.043-0.03,3.061-0.118c-0.574,0.42-1.194,0.875-1.678,1.232L1.349,1.141   l0.187-0.137l0.017-0.013c0,0,0,0,0,0.001l0.122-0.089c0.012,0.048,0.012,0.1,0.02,0.193c0.012,0.15,0.012,0.543-0.01,0.708   C1.682,1.827,1.67,1.852,1.644,1.854c-0.027,0.002-0.243,0-0.268-0.006C1.352,1.843,1.342,1.837,1.337,1.814   C1.336,1.807,1.335,1.798,1.334,1.789c-0.001,0-0.001,0-0.001,0h0.001c-0.023-0.168-0.01-0.516,0.001-0.638L0.661,1.684   C0.548,1.827,0.515,1.963,0.51,1.987v2.004c0,0.766-0.309,1.553-0.441,1.769C0.055,5.783,0.031,5.818,0,5.818   c-0.03,0-0.054-0.035-0.068-0.058c-0.133-0.216-0.441-1.003-0.441-1.769V1.987c-0.005-0.024-0.04-0.161-0.151-0.303l-0.674-0.532   c0.011,0.122,0.025,0.469,0.001,0.638h0.001c-0.001,0-0.001,0-0.001,0c-0.001,0.009-0.002,0.018-0.004,0.025   c-0.004,0.023-0.015,0.029-0.039,0.034s-0.24,0.008-0.267,0.005c-0.026-0.003-0.038-0.028-0.041-0.051   c-0.021-0.165-0.021-0.557-0.01-0.708c0.007-0.094,0.007-0.146,0.02-0.193l0.123,0.089c0-0.001,0-0.001,0-0.001l0.017,0.013   l0.187,0.137l-0.035-0.027C-1.866,0.756-2.486,0.301-3.06-0.119C-3.043-0.03-3.034,0.33-3.062,0.487   c-0.005,0.022-0.015,0.028-0.039,0.034c-0.024,0.005-0.24,0.008-0.267,0.005c-0.027-0.002-0.038-0.027-0.042-0.05   c-0.022-0.166-0.022-0.5-0.009-0.65C-3.412-0.268-3.413-0.319-3.4-0.368L-3.308-0.3c-0.757-0.556-1.381-1.015-1.414-1.045   c-0.019-0.016-0.032-0.033-0.043-0.05c0,0,0,0.001-0.001,0.002l-0.002-0.006c-0.041-0.063-0.043-0.127-0.071-0.167   c-0.03-0.041-0.098-0.162-0.125-0.228c-0.011-0.025-0.005-0.21-0.005-0.21l0.044,0.013l0.007,0.016l1.323,0.624l0.303,0.142v0.001   l0.006,0.002c0-0.097,0.007-0.196,0.023-0.194c0.016,0,0.026,0.121,0.025,0.216l0.128,0.055l0.149,0.056   c0-0.09,0.014-0.212,0.029-0.212c0.016,0.001,0.028,0.137,0.029,0.234l0.502,0.191c0.002-0.095,0.016-0.221,0.031-0.22   c0.015,0,0.028,0.146,0.031,0.244l0.502,0.191c0.004-0.099,0.019-0.23,0.033-0.23c0.014,0,0.028,0.15,0.032,0.255l0.492,0.187   c0.005-0.097,0.02-0.234,0.035-0.233s0.032,0.159,0.033,0.259l0.082,0.031l0.576,0.07l0.045-0.233v-1.38   c0-0.676,0.131-1.858,0.249-2.404l0,0l0.003-0.018C-0.278-4.356-1.426-5.242-1.49-5.31c-0.065-0.068-0.147-0.205-0.153-0.508   l0.029,0.011C-1.614-5.808-1.614-5.809-1.614-5.809z" fill="#FFFFFF"/>
	</g></svg>