<?xml version="1.0" standalone="no"?>
<svg xmlns="http://www.w3.org/2000/svg" viewBox="-6.37 -6.37 12.74 12.74" color="#212121" width="75" height="75"><g transform="matrix(1 0 0 -1 0 0)">
		<g xmlns="http://www.w3.org/2000/svg">
			<circle class="primary" fill="currentColor" cx="0" cy="0" r="6.245"/>
			<path class="secondary" d="M0,6.12c3.38,0,6.12-2.74,6.12-6.12S3.38-6.12,0-6.12S-6.12-3.38-6.12,0S-3.38,6.12,0,6.12 M0,6.37    c-3.513,0-6.37-2.857-6.37-6.37S-3.513-6.37,0-6.37S6.37-3.513,6.37,0S3.513,6.37,0,6.37L0,6.37z" fill="#FFFFFF"/>
		</g>
		<path xmlns="http://www.w3.org/2000/svg" class="secondary" d="M5.496-2.017c-0.021,0-0.039,0.441-0.051,0.447C5.433-1.565,3.446-0.676,3.446-0.676S3.429-0.792,3.425-0.818   c-0.002-0.025-0.053-0.027-0.071-0.01c-0.018,0.018-0.05,0.193-0.05,0.193L2.71-0.34c0,0,0-0.163,0-0.184   c0-0.02-0.092-0.03-0.097,0C2.609-0.493,2.583-0.3,2.583-0.3L1.609,0.026c0,0,0.018-0.199,0-0.219   c-0.018-0.021-0.053-0.007-0.071,0c-0.017,0.007,0,0.208,0,0.208L1.112,0.112c0,0,0.008-0.125,0-0.152   c-0.008-0.028-0.122-0.038-0.122,0s0,0.208,0,0.208L0.584,0.259c0,0,0-2.373-0.005-2.561c-0.005-0.189-0.19-0.872-0.188-0.91   c0.004-0.038,1.64-1.12,1.665-1.163c0.026-0.042,0.01-0.388-0.015-0.406C2.015-4.799,0.116-4.363,0.113-4.385   C0.11-4.408,0.062-4.868,0.006-4.868C0.004-4.868,0.002-4.855,0-4.832c-0.002-0.024-0.004-0.037-0.006-0.037   c-0.056,0-0.104,0.46-0.106,0.483C-0.115-4.364-2.015-4.801-2.04-4.783c-0.025,0.018-0.041,0.364-0.015,0.406   c0.025,0.043,1.661,1.126,1.664,1.165C-0.39-3.173-0.575-2.49-0.58-2.301C-0.585-2.113-0.585,0.26-0.585,0.26L-0.99,0.167   c0,0,0-0.17,0-0.208s-0.114-0.028-0.122,0s0,0.152,0,0.152l-0.426-0.096c0,0,0.018-0.201,0-0.208s-0.053-0.021-0.071,0   c-0.018,0.02,0,0.219,0,0.219l-0.975-0.325c0,0-0.026-0.193-0.03-0.224c-0.005-0.03-0.096-0.02-0.096,0c0,0.021,0,0.184,0,0.184   l-0.594-0.295c0,0-0.033-0.175-0.05-0.193c-0.018-0.018-0.068-0.016-0.071,0.01c-0.002,0.026-0.021,0.143-0.021,0.143   S-5.433-1.565-5.445-1.57c-0.012-0.006-0.031-0.447-0.051-0.447s-0.015,0.996,0,1.047c0.016,0.051,1.467,1.004,1.482,1.057   c0.015,0.054,0.061,0.285,0.061,0.285s-0.104-0.016-0.111,0c-0.008,0.016,0,0.28,0,0.305c0,0.025,0.045,0.124,0.071,0.132   c0.025,0.007,0.378,0.01,0.386-0.011c0.008-0.021,0.082-0.427,0.082-0.427S-2.356,1.2-2.35,1.225c0.005,0.025,0,0.295,0,0.295   s-0.073,0-0.091,0c-0.018,0,0,0.315,0,0.346c0,0.03,0.025,0.068,0.071,0.091s0.416,0.016,0.447-0.02c0.03-0.036,0-0.417,0-0.417   s1.313,0.833,1.349,0.894c0.036,0.062,0.04,1.22,0.061,1.86C-0.499,4.738-0.151,5.445,0,5.445s0.499-0.708,0.514-1.172   c0.021-0.64,0.025-1.798,0.061-1.86C0.61,2.353,1.924,1.52,1.924,1.52s-0.03,0.381,0,0.417c0.031,0.035,0.401,0.043,0.447,0.02   c0.046-0.022,0.071-0.061,0.071-0.091c0-0.031,0.018-0.346,0-0.346s-0.091,0-0.091,0s-0.005-0.27,0-0.295   C2.355,1.2,3.527,0.371,3.527,0.371s0.074,0.406,0.082,0.427c0.007,0.021,0.36,0.018,0.386,0.011C4.02,0.8,4.065,0.701,4.065,0.676   s0.008-0.29,0-0.305c-0.007-0.016-0.112,0-0.112,0S3.999,0.14,4.014,0.086C4.03,0.034,5.48-0.919,5.496-0.97   C5.511-1.021,5.516-2.017,5.496-2.017z" fill="#FFFFFF"/>
	</g></svg>