<?xml version="1.0" standalone="no"?>
<svg xmlns="http://www.w3.org/2000/svg" viewBox="-6.37 -6.37 12.74 12.74" color="#212121" width="75" height="75"><g transform="matrix(1 0 0 -1 0 0)">
		<g xmlns="http://www.w3.org/2000/svg">
			<circle class="primary" fill="currentColor" cx="0" cy="0" r="6.245"/>
			<path class="secondary" d="M0,6.12c3.38,0,6.12-2.74,6.12-6.12S3.38-6.12,0-6.12S-6.12-3.38-6.12,0S-3.38,6.12,0,6.12 M0,6.37    c-3.513,0-6.37-2.857-6.37-6.37S-3.513-6.37,0-6.37S6.37-3.513,6.37,0S3.513,6.37,0,6.37L0,6.37z" fill="#FFFFFF"/>
		</g>
		<path xmlns="http://www.w3.org/2000/svg" id="Boeing_RC-135_1_" class="secondary" d="M5.482-2.434c-0.04-0.026-4.798,2.235-4.904,2.24C0.473-0.19,0.366-0.31,0.362-0.429   C0.358-0.547,0.243-3.87,0.248-3.944C0.252-4.02,1.719-4.993,1.763-5.099s0.062-0.587,0.04-0.613   C1.785-5.733,0.531-5.38,0.088-5.253c-0.001,0-0.004,0.001-0.006,0.001L0.065-5.209c0,0-0.024-0.007-0.066-0.02   C-0.042-5.217-0.065-5.21-0.065-5.21l-0.016-0.042c-0.002,0-0.005,0-0.007-0.001c-0.444-0.126-1.697-0.479-1.714-0.458   c-0.022,0.026-0.005,0.507,0.039,0.612s1.512,1.079,1.516,1.155c0.004,0.074-0.11,3.397-0.114,3.516   c-0.004,0.119-0.11,0.238-0.216,0.233C-0.683-0.199-5.442-2.46-5.481-2.433c-0.04,0.026-0.093,0.607-0.058,0.683   c0.035,0.075,0.066,0.089,0.066,0.089v0.745h0.035v-0.671c0,0,1.313,0.943,1.339,1.005c0.027,0.062,0,0.832,0,0.832h-0.039   c0,0,0,0.424,0,0.485c0,0.062,0.414,0.07,0.418,0s0-0.489,0-0.489h-0.044v-0.621l1.344,1.018v0.855h-0.053c0,0,0,0.427,0,0.516   c0,0.088,0.419,0.08,0.441,0c0.022-0.079,0-0.516,0-0.516h-0.066V0.854c0,0,1.789,1.278,1.776,1.305   C-0.335,2.186-0.529,2.37-0.564,2.485c-0.035,0.114,0,1.065,0,1.189c0,0.123,0.181,0.288,0.198,0.316   c0.018,0.028,0.018,1.887,0.365,1.931c0.003,0,0.005,0,0.008-0.002l0,0c0.341-0.063,0.341-1.9,0.359-1.929   c0.018-0.028,0.199-0.194,0.199-0.317s0.035-1.075,0-1.189C0.53,2.37,0.336,2.185,0.322,2.159C0.309,2.133,2.098,0.854,2.098,0.854   v0.644H2.032c0,0-0.022,0.438,0,0.516c0.021,0.08,0.44,0.088,0.44,0s0-0.516,0-0.516H2.42V0.643l1.344-1.018v0.621H3.72   c0,0-0.004,0.419,0,0.489c0.004,0.069,0.419,0.062,0.419,0s0-0.485,0-0.485h-0.04c0,0-0.026-0.771,0-0.832   c0.027-0.062,1.34-1.005,1.34-1.005v0.67h0.035v-0.744c0,0,0.031-0.014,0.066-0.089S5.522-2.407,5.482-2.434z" fill="#FFFFFF"/>
	</g></svg>