<?xml version="1.0" standalone="no"?>
<svg xmlns="http://www.w3.org/2000/svg" viewBox="-6.37 -6.37 12.741 12.739" color="#212121" width="75" height="75"><g transform="matrix(1 0 0 -1 0 0)">
		<g xmlns="http://www.w3.org/2000/svg">
			<path class="primary" fill="currentColor" d="M-0.002-6.245c-3.405,0-6.206,2.77-6.243,6.176C-6.283,3.374-3.513,6.207-0.07,6.245h0.001    c3.475,0,6.275-2.77,6.313-6.175c0.038-3.443-2.732-6.276-6.175-6.314L-0.002-6.245z"/>
			<path class="secondary" d="M0,6.12C3.35,6.12,6.083,3.424,6.12,0.068c0.038-3.38-2.672-6.15-6.052-6.188c-0.023,0-0.047,0-0.07,0    c-3.348,0-6.081,2.695-6.117,6.052C-6.157,3.311-3.447,6.08-0.067,6.12C-0.045,6.12-0.022,6.12,0,6.12 M0.001,6.37L0.001,6.37    h-0.072C-3.583,6.33-6.409,3.441-6.37-0.07C-6.332-3.544-3.475-6.37-0.003-6.37H0.07C1.772-6.351,3.364-5.67,4.554-4.455    C5.744-3.237,6.389-1.63,6.37,0.071C6.331,3.545,3.474,6.37,0.001,6.37L0.001,6.37z" fill="#FFFFFF"/>
		</g>
		<path xmlns="http://www.w3.org/2000/svg" id="C-12_Huron_1_" class="secondary" d="M0.734-0.384H2.12l3.688,0.599c0.066,0.842-0.215,0.871-0.215,0.871L2.542,1.169   l-0.553,0.28H1.938v1.042c0,0.053-0.014,0.102-0.039,0.145C1.936,2.65,1.96,2.673,1.96,2.698c0,0.042-0.064,0.076-0.144,0.076l0,0   C1.804,2.898,1.789,3.009,1.771,3.099l0.732,0.033L1.76,3.158c-0.032,0.145-0.071,0.23-0.114,0.23c-0.041,0-0.08-0.084-0.112-0.227   L0.793,3.145l0.729-0.042C1.505,3.01,1.49,2.898,1.478,2.77C1.464,2.773,1.45,2.775,1.437,2.775c-0.08,0-0.144-0.034-0.144-0.076   c0-0.033,0.041-0.062,0.096-0.072c-0.021-0.04-0.033-0.086-0.033-0.135V1.451H1.315L0.61,1.597C0.5,2.944,0.266,3.875-0.005,3.875   S-0.509,2.946-0.62,1.599l-0.687-0.194l-0.051,0.004V2.53c0,0.038-0.008,0.074-0.021,0.106C-1.34,2.65-1.316,2.673-1.316,2.698   c0,0.042-0.064,0.076-0.143,0.076c-0.006,0-0.011-0.001-0.017-0.001C-1.487,2.905-1.502,3.022-1.52,3.119l0.716,0.031l-0.728,0.026   c-0.033,0.156-0.073,0.249-0.117,0.249c-0.043,0-0.083-0.091-0.116-0.245l-0.75-0.017l0.738-0.042   C-1.794,3.023-1.809,2.905-1.82,2.773c-0.007,0-0.013,0.001-0.02,0.001c-0.079,0-0.144-0.034-0.144-0.076   c0-0.026,0.026-0.05,0.065-0.063c-0.013-0.033-0.02-0.069-0.02-0.106V1.457L-1.98,1.46l-0.571-0.197l-3.051-0.121   c0,0-0.215,0.075-0.215-0.861l3.725-0.674h1.329l0.132-0.264c0.006-0.838,0.051-1.609,0.122-2.238l-1.742-0.362   c0,0-0.188-0.449,0.062-0.811l1.672-0.225l0.219,0.228c0.071-0.24,0.151-0.391,0.235-0.43l0.058-0.435l0.06,0.454   c0.07,0.055,0.137,0.19,0.198,0.39l0.198-0.208l1.672,0.225c0.25,0.362,0.062,0.811,0.062,0.811L0.471-2.901   c0.072,0.634,0.118,1.413,0.123,2.26L0.734-0.384z" fill="#FFFFFF"/>
	</g></svg>