<?xml version="1.0" standalone="no"?>
<svg xmlns="http://www.w3.org/2000/svg" viewBox="-6.37 -6.37 12.74 12.74" color="#212121" width="75" height="75"><g transform="matrix(1 0 0 -1 0 0)">
		<g xmlns="http://www.w3.org/2000/svg" id="Circle_5_">
			<path class="primary" fill="currentColor" d="M-0.001-6.245c-3.443,0-6.244,2.802-6.244,6.246c0,3.443,2.801,6.244,6.244,6.244    c3.444,0,6.246-2.801,6.246-6.244C6.245-3.443,3.443-6.245-0.001-6.245z"/>
			<path class="secondary" d="M-0.001,6.12c3.381,0,6.121-2.74,6.121-6.119c0-3.381-2.74-6.121-6.121-6.121    c-3.379,0-6.119,2.74-6.119,6.121C-6.12,3.38-3.38,6.12-0.001,6.12 M-0.001,6.37c-3.512,0-6.369-2.857-6.369-6.369    c0-3.513,2.857-6.371,6.369-6.371c3.513,0,6.371,2.858,6.371,6.371C6.37,3.513,3.512,6.37-0.001,6.37L-0.001,6.37z" fill="#FFFFFF"/>
		</g>
		<path xmlns="http://www.w3.org/2000/svg" class="secondary" d="M0.218-4.087l1.802,0.26v0.428c0,0-1.1,0.352-1.527,0.443C0.584-2.421,0.615-1.185,0.584-0.36   c0.195-0.018,0.633-0.02,1.17-0.002c0.034-0.205,0.094-0.342,0.164-0.342S2.05-0.563,2.083-0.35   C3.374-0.294,5.031-0.136,5.41,0.175c0.015,0.473,0,0.703,0,0.703L2.781,0.935c0.001,0.033,0.002,0.068,0.002,0.102   c0,0.393-0.086,0.711-0.191,0.711S2.401,1.43,2.401,1.037c0-0.031,0.001-0.062,0.002-0.094L2.101,0.95   C2.079,1.249,2.005,1.468,1.918,1.468c-0.087,0-0.16-0.215-0.183-0.51L1.461,0.964c0.001,0.023,0.001,0.049,0.001,0.072   c0,0.393-0.086,0.711-0.191,0.711S1.08,1.429,1.08,1.036c0-0.021,0-0.043,0.001-0.064L0.554,0.983c0,0,0.161,3.529-0.561,3.529   S-0.79,2.051-0.79,0.983C-0.884,0.981-1.035,0.976-1.226,0.97c0,0.023,0,0.045,0,0.066c0,0.393-0.085,0.711-0.19,0.711   c-0.105,0-0.191-0.318-0.191-0.711c0-0.025,0.001-0.053,0.002-0.08c-0.087-0.004-0.177-0.006-0.271-0.01   c-0.025,0.283-0.097,0.488-0.182,0.488c-0.086,0-0.159-0.213-0.183-0.502C-2.34,0.928-2.44,0.924-2.542,0.92   c0.002,0.037,0.003,0.076,0.003,0.115c0,0.393-0.085,0.711-0.19,0.711S-2.92,1.428-2.92,1.035c0-0.045,0.001-0.09,0.003-0.131   c-1.226-0.051-2.5-0.105-2.5-0.105V-0.01c0,0,1.799-0.197,3.206-0.32c0.032-0.223,0.096-0.375,0.168-0.375   c0.07,0,0.131,0.139,0.165,0.348c0.519-0.041,0.95-0.068,1.165-0.064c0.015-1.008,0.045-2.551,0.045-2.551   s-1.527-0.352-1.573-0.412c0-0.184,0-0.412,0-0.412s1.634-0.307,1.848-0.307c0.138-0.41,0.138-0.41,0.138-0.41h0.248L0.218-4.087z" fill="#FFFFFF"/>
	</g></svg>