<?xml version="1.0" standalone="no"?>
<svg xmlns="http://www.w3.org/2000/svg" viewBox="-6.37 -6.37 12.74 12.74" color="#212121" width="75" height="75"><g transform="matrix(1 0 0 -1 0 0)">
		<g xmlns="http://www.w3.org/2000/svg">
			<circle class="primary" fill="currentColor" cx="0" cy="0" r="6.245"/>
			<path class="secondary" d="M0,6.12c3.38,0,6.12-2.74,6.12-6.12S3.38-6.12,0-6.12S-6.12-3.38-6.12,0S-3.38,6.12,0,6.12 M0,6.37    c-3.513,0-6.37-2.857-6.37-6.37S-3.513-6.37,0-6.37S6.37-3.513,6.37,0S3.513,6.37,0,6.37L0,6.37z" fill="#FFFFFF"/>
		</g>
		<path xmlns="http://www.w3.org/2000/svg" id="C-130J_Super_Hercules_1_" class="secondary" d="M-5.817,0.451c0,0.387,0.159,0.345,0.159,0.345l1.919,0.036l0.07,0.729   c0,0,0,0.002,0.001,0.007H-4.07v0.044h0.412C-3.643,1.674-3.61,1.767-3.56,1.757c0.048-0.008,0.081-0.087,0.101-0.144h0.452V1.568   l-0.439,0.001c0.003-0.011,0.004-0.018,0.004-0.018L-3.36,0.84l0.554,0.011l0.074,0.411h0.096l0.071-0.407l0.428,0.008l0.005,0.697   c0,0,0,0.002,0.001,0.007h-0.376v0.044h0.387c0.015,0.061,0.048,0.153,0.099,0.144c0.047-0.008,0.08-0.087,0.1-0.144l0.479-0.001   V1.566h-0.467c0.003-0.01,0.004-0.017,0.004-0.017l0.078-0.681L-0.76,0.89l0.01,0.392l0.114,0.16c0,0,0.006,1.071,0.047,1.375   c0.042,0.304,0.315,0.689,0.315,0.689s0.062,0.546,0.263,0.531c0.005,0,0.01-0.005,0.014-0.016C0.008,4.03,0.012,4.035,0.017,4.035   C0.218,4.05,0.28,3.504,0.28,3.504s0.272-0.387,0.313-0.69s0.045-1.375,0.045-1.375l0.113-0.16l0.01-0.391l1.067-0.022l0.08,0.681   c0,0,0.001,0.006,0.004,0.017H1.445v0.044h0.479c0.02,0.057,0.053,0.135,0.1,0.144c0.052,0.009,0.083-0.083,0.099-0.145H2.51V1.562   H2.134c0.001-0.004,0.001-0.007,0.001-0.007l0.004-0.697l0.427-0.009l0.072,0.406h0.096l0.073-0.412L3.36,0.832l0.084,0.711   c0,0,0.001,0.007,0.004,0.018h-0.44l0.001,0.044l0.453-0.001c0.019,0.058,0.052,0.136,0.1,0.145   C3.613,1.758,3.645,1.666,3.66,1.604h0.414L4.072,1.56H3.67c0-0.005,0.001-0.007,0.001-0.007l0.068-0.729l1.919-0.04   c0,0,0.159,0.042,0.159-0.345c0-0.386-0.088-0.433-0.088-0.433S3.821-0.271,2.786-0.409L2.7-0.907H2.666l-0.089,0.47   C2.36-0.464,2.207-0.482,2.154-0.485C1.877-0.495,0.8-0.448,0.785-0.484S0.636-0.762,0.64-0.834c0.006-0.071,0.025-1.539,0-1.606   C0.613-2.507,0.58-2.486,0.546-2.512c-0.033-0.026,0.02-0.247,0.02-0.247S2.294-3.083,2.338-3.09   c0.044-0.008,0.046-0.392-0.001-0.433C2.291-3.564,0.359-3.779,0.359-3.779S0.112-4.041,0.01-4.036   c-0.005,0-0.023,0.002-0.028,0.001c-0.103-0.004-0.35,0.258-0.35,0.258s-1.931,0.218-1.978,0.26   c-0.046,0.041-0.043,0.424,0.001,0.432c0.043,0.008,1.771,0.328,1.771,0.328s0.054,0.222,0.021,0.248   c-0.033,0.026-0.063,0.033-0.092,0.072c-0.029,0.04-0.004,1.535,0.001,1.607s-0.129,0.314-0.144,0.351   c-0.016,0.036-1.092-0.009-1.37,0.001c-0.051,0.001-0.204,0.02-0.421,0.048l-0.09-0.47h-0.035l-0.084,0.498   C-3.823-0.263-5.73,0.019-5.73,0.019S-5.818,0.065-5.817,0.451z" fill="#FFFFFF"/>
	</g></svg>