<?xml version="1.0" standalone="no"?>
<svg xmlns="http://www.w3.org/2000/svg" viewBox="-6.37 -6.37 12.74 12.74" color="#212121" width="75" height="75"><g transform="matrix(1 0 0 -1 0 0)">
		<g xmlns="http://www.w3.org/2000/svg">
			<circle class="primary" fill="currentColor" cx="0" cy="0" r="6.245"/>
			<path class="secondary" d="M0,6.12c3.38,0,6.12-2.74,6.12-6.12S3.38-6.12,0-6.12S-6.12-3.38-6.12,0S-3.38,6.12,0,6.12 M0,6.37    c-3.513,0-6.37-2.857-6.37-6.37S-3.513-6.37,0-6.37S6.37-3.513,6.37,0S3.513,6.37,0,6.37L0,6.37z" fill="#FFFFFF"/>
		</g>
		<g xmlns="http://www.w3.org/2000/svg" id="C-130_Spartan_1_">
			<g>
				<path class="secondary" d="M0.017,3.885c0.003,0.001,0.007,0.002,0.01,0.003C0.024,3.89,0.02,3.89,0.016,3.892L0.017,3.885z" fill="#FFFFFF"/>
				<path class="secondary" d="M1.694-0.478l0.43,0.079c0.027-0.27,0.06-0.461,0.095-0.461c0.037,0,0.071,0.221,0.099,0.504l3.371,0.462     c0.319,0.555-0.056,0.85-0.056,0.85H3.201C3.213,1.195,3.22,1.283,3.22,1.369c0,0.114-0.011,0.303-0.03,0.303h0.406     c0.02,0,0.035-0.019,0.035,0s-0.016,0-0.035,0H3.171c-0.03,0.239-0.073,0.16-0.119,0.16c-0.047,0-0.089,0.079-0.119-0.16H2.421     c-0.02,0-0.035,0.019-0.035,0s0.016,0,0.035,0h0.494c-0.02,0-0.03-0.189-0.03-0.303c0-0.086,0.006-0.174,0.018-0.413H2.386     C2.381,1.194,2.309,1.6,2.219,1.6c-0.089,0-0.162-0.406-0.166-0.645H1.666c0.011,0.239,0.018,0.327,0.018,0.413     c0,0.114-0.012,0.303-0.03,0.303h0.45c0.019,0,0.034-0.019,0.034,0s-0.016,0-0.034,0h-0.47c-0.03,0.239-0.072,0.16-0.118,0.16     c-0.047,0-0.089,0.079-0.119-0.16H0.928c-0.019,0-0.034,0.019-0.034,0s0.016,0,0.034,0h0.45c-0.019,0-0.029-0.189-0.029-0.303     c0-0.086,0.006-0.174,0.018-0.413H0.956c0,0,0-0.009,0,0c0,0.295-0.238,0.534-0.238,0.534l0,0v0.865c0,0.039,0,0.076,0,0.112     v0.48c0,0-0.158,0.641-0.479,1.077c0,0.003-0.007,0.007-0.007,0.011c0,0.084-0.073,0.152-0.157,0.152     c-0.083,0-0.113-0.066-0.115-0.149c-0.33-0.434-0.437-1.092-0.437-1.092V2.388h-0.076c-0.002,0,0.076-0.015,0.076-0.034V1.489     c-0.239,0-0.239-0.239-0.239-0.534c0-0.009,0,0,0,0h-0.522C-1.227,1.194-1.22,1.282-1.22,1.368c0,0.114-0.012,0.303-0.03,0.303     h0.509c0.02,0,0.035-0.019,0.035,0s-0.016,0-0.035,0h-0.526c-0.03,0.239-0.073,0.16-0.119,0.16c-0.047,0-0.089,0.079-0.119-0.16     h-0.409c-0.02,0-0.035,0.019-0.035,0s0.016,0,0.035,0h0.391c-0.019,0-0.03-0.189-0.03-0.303c0-0.086,0.007-0.174,0.019-0.413     h-0.452C-1.994,1.194-2.066,1.6-2.156,1.6c-0.089,0-0.161-0.406-0.166-0.645h-0.411c0.011,0.239,0.018,0.327,0.018,0.413     c0,0.114-0.011,0.303-0.03,0.303h0.45c0.02,0,0.035-0.019,0.035,0s-0.016,0-0.035,0h-0.468c-0.03,0.239-0.072,0.16-0.119,0.16     s-0.089,0.079-0.119-0.16h-0.468c-0.02,0-0.035,0.019-0.035,0s0.016,0,0.035,0h0.45c-0.02,0-0.03-0.189-0.03-0.303     c0-0.086,0.007-0.174,0.019-0.413h-2.657c-0.291-0.478,0-0.819,0-0.819l3.434-0.463c0.027-0.292,0.062-0.519,0.099-0.519     s0.07,0.186,0.098,0.465l0.547-0.097h1.034v-2.259l-1.671-0.444v-0.472l2.071-0.359C-0.05-4.092,0.026-4.187,0.1-4.187     S0.266-4.09,0.289-4.01L2.39-3.653v0.472L0.717-2.74v2.263L1.694-0.478L1.694-0.478z M0.017,3.885L0.016,3.892     C0.02,3.89,0.024,3.89,0.027,3.888C0.024,3.887,0.02,3.886,0.017,3.885z" fill="#FFFFFF"/>
			</g>
		</g>
	</g></svg>