<?xml version="1.0" standalone="no"?>
<svg xmlns="http://www.w3.org/2000/svg" viewBox="-6.37 -6.37 12.74 12.74" color="#212121" width="75" height="75"><g transform="matrix(1 0 0 -1 0 0)">
		<g xmlns="http://www.w3.org/2000/svg">
			<circle class="primary" fill="currentColor" cx="0" cy="0" r="6.245"/>
			<path class="secondary" d="M0,6.12c3.38,0,6.12-2.74,6.12-6.12S3.38-6.12,0-6.12S-6.12-3.38-6.12,0S-3.38,6.12,0,6.12 M0,6.37    c-3.513,0-6.37-2.857-6.37-6.37S-3.513-6.37,0-6.37S6.37-3.513,6.37,0S3.513,6.37,0,6.37L0,6.37z" fill="#FFFFFF"/>
		</g>
		<path xmlns="http://www.w3.org/2000/svg" id="C-17_Globmaster_3_3_" class="secondary" d="M2.701,2.026C2.718,2.024,2.733,2.022,2.75,2.02   c0.16-0.162,0.106-0.652,0.104-0.971c0.315-0.175,0.629-0.35,0.944-0.524c0.56-0.293,1.12-0.585,1.679-0.879   c0.111-0.081,0.099-0.721-0.014-0.779c-0.072-0.036-0.189,0.04-0.257,0.064C4.975-0.997,4.744-0.924,4.512-0.85   C3.779-0.616,3.046-0.383,2.313-0.148C2.158-0.125,2.002-0.102,1.847-0.077C1.636-0.035,0.894,0.151,0.731,0.036   C0.532-0.105,0.536-0.48,0.537-0.837c0-0.639,0.068-1.351-0.035-1.927c-0.06-0.392-0.12-0.784-0.18-1.176   C0.296-4.047,0.201-4.28,0.238-4.372C0.61-4.589,0.983-4.807,1.355-5.023c0.124-0.075,0.351-0.144,0.431-0.263   C1.857-5.394,1.795-5.562,1.792-5.69c-0.002,0-0.004,0-0.007,0c-0.257,0.047-0.514,0.095-0.77,0.142   c-0.277,0.062-0.559,0.14-0.874,0.142c0.001-0.128-0.034-0.218-0.069-0.305C0.027-5.713-0.014-5.71-0.04-5.697   c-0.029,0.085-0.059,0.172-0.062,0.29C-0.688-5.436-1.18-5.659-1.739-5.704c-0.001,0.108-0.054,0.26-0.007,0.368   c0.055,0.126,0.282,0.198,0.396,0.27c0.388,0.238,0.777,0.478,1.166,0.716c-0.087,0.249-0.114,0.527-0.173,0.808   c-0.147,0.688-0.181,1.426-0.181,2.281c0,0.452,0.062,1.167-0.229,1.305c-0.148,0.069-0.818-0.085-1.006-0.128   c-0.182-0.03-0.365-0.061-0.548-0.092c-0.674-0.226-1.347-0.45-2.02-0.674c-0.282-0.093-0.564-0.185-0.846-0.276   c-0.082-0.029-0.24-0.118-0.292-0.035C-5.521-1.11-5.592-0.569-5.528-0.468c0.077,0.124,0.605,0.339,0.764,0.433   c0.635,0.352,1.272,0.704,1.908,1.056c0,0.286,0,0.572,0,0.857c0.028,0.07,0.093,0.072,0.139,0.121   c0.027,0.028,0.028,0.078,0.056,0.106c0.053-0.002,0.055-0.014,0.084-0.036c0.019-0.094,0.115-0.104,0.152-0.178   c0.004-0.204,0.009-0.41,0.014-0.615c0.194,0.11,0.388,0.222,0.582,0.332c0.003,0.281,0.005,0.563,0.007,0.844   c0.03,0.062,0.096,0.067,0.139,0.113c0.027,0.028,0.028,0.078,0.056,0.106c0.014-0.003,0.028-0.006,0.042-0.007   c0.043-0.025,0.023-0.071,0.056-0.1c0.056-0.05,0.125-0.057,0.145-0.142c0.002-0.192,0.005-0.383,0.007-0.574   c0.231,0.11,0.699,0.325,0.839,0.518C-0.54,2.964-0.542,3.56-0.545,4.158c0,0.448-0.015,0.911,0.097,1.233   c0.056,0.161,0.242,0.585,0.458,0.524c0.175-0.049,0.28-0.269,0.347-0.432C0.542,5.031,0.501,4.26,0.501,3.621   c0.003-0.203,0.005-0.406,0.007-0.609c0-0.215,0-0.431,0-0.645C0.555,2.26,1.229,1.912,1.376,1.864c0,0.2,0,0.401,0,0.603   c0.028,0.067,0.088,0.068,0.139,0.112C1.539,2.601,1.547,2.662,1.57,2.686c0.048-0.001,0.05-0.01,0.076-0.027   c0.03-0.104,0.142-0.114,0.167-0.213c0.002-0.275,0.005-0.55,0.007-0.823C2.017,1.517,2.213,1.41,2.41,1.304   c0,0.199,0,0.397,0,0.596c0.018,0.06,0.134,0.147,0.18,0.226c0.021,0.002,0.042,0.005,0.062,0.008   C2.683,2.108,2.699,2.081,2.701,2.026z" fill="#FFFFFF"/>
	</g></svg>