<?xml version="1.0" standalone="no"?>
<svg xmlns="http://www.w3.org/2000/svg" viewBox="-6.37 -6.37 12.74 12.74" color="#212121" width="75" height="75"><g transform="matrix(1 0 0 -1 0 0)">
		<g xmlns="http://www.w3.org/2000/svg">
			<circle class="primary" fill="currentColor" cx="0" cy="0" r="6.245"/>
			<path class="secondary" d="M0,6.12c3.38,0,6.12-2.74,6.12-6.12S3.38-6.12,0-6.12S-6.12-3.38-6.12,0S-3.38,6.12,0,6.12 M0,6.37    c-3.513,0-6.37-2.857-6.37-6.37S-3.513-6.37,0-6.37S6.37-3.513,6.37,0S3.513,6.37,0,6.37L0,6.37z" fill="#FFFFFF"/>
		</g>
		<path xmlns="http://www.w3.org/2000/svg" id="C-2_Greyhound_1_" class="secondary" d="M-5.726,0.375C-5.645,0.572-1.803,1.14-1.803,1.14s0.037,0.403,0.093,0.739   c-0.287-0.005-0.546,0.005-0.557,0.037C-2.291,1.986-2.042,2-1.687,2.004c0.036,0.182,0.078,0.32,0.123,0.321   c0.045,0,0.099-0.137,0.15-0.319c0.279,0.001,0.477-0.002,0.477-0.055c0-0.025-0.201-0.048-0.446-0.061   c0.085-0.337,0.156-0.747,0.156-0.747l0.574,0.135c0,0-0.125,2.667,0.546,2.972c0.024,0.011,0.048,0.019,0.075,0.023   c0,0,0.001,0.001,0.003,0.001l0.003-0.001C0,4.271,0.025,4.263,0.049,4.252c0.675-0.295,0.586-2.964,0.586-2.964L1.211,1.16   c0,0,0.065,0.409,0.146,0.746c-0.267,0.01-0.496,0.03-0.496,0.057c0,0.055,0.221,0.06,0.526,0.062   c0.049,0.182,0.1,0.32,0.145,0.321c0.044,0,0.089-0.138,0.127-0.32c0.329,0,0.554-0.013,0.533-0.08   c-0.01-0.031-0.241-0.045-0.508-0.045c0.061-0.334,0.103-0.737,0.103-0.737s3.85-0.517,3.933-0.713   c0.083-0.197,0.168-0.559,0.004-0.658c-0.164-0.1-5.109-0.412-5.109-0.412s0.06-2.331-0.044-2.562   C0.539-3.186,0.529-3.192,0.55-3.2c0.008-0.003,0.015,0.004,0.021,0.019c0.17,0.022,0.956-0.011,1.164-0.175   C1.982-3.552,1.937-4.111,1.806-4.21c-0.131-0.1-1.775-0.012-1.775-0.012S0.03-4.21,0.027-4.187   C0.025-4.21,0.024-4.223,0.024-4.223s-1.643-0.109-1.775-0.011S-1.936-3.578-1.69-3.379c0.206,0.167,0.99,0.21,1.161,0.19   c0.006-0.015,0.013-0.021,0.021-0.018c0.021,0.008,0.011,0.015-0.021,0.018c-0.107,0.23-0.078,2.562-0.078,2.562   s-4.95,0.247-5.115,0.344S-5.807,0.177-5.726,0.375z" fill="#FFFFFF"/>
	</g></svg>