<?xml version="1.0" standalone="no"?>
<svg xmlns="http://www.w3.org/2000/svg" viewBox="-6.37 -6.37 12.74 12.74" color="#212121" width="75" height="75"><g transform="matrix(1 0 0 -1 0 0)">
		<g xmlns="http://www.w3.org/2000/svg">
			<path class="primary" fill="currentColor" d="M0.001-6.245c-3.444,0-6.246,2.802-6.246,6.245s2.802,6.245,6.246,6.245c3.443,0,6.244-2.802,6.244-6.245    S3.444-6.245,0.001-6.245z"/>
			<path class="secondary" d="M0.001,6.12C3.38,6.12,6.12,3.38,6.12,0S3.38-6.12,0.001-6.12C-3.38-6.12-6.12-3.38-6.12,0    S-3.38,6.12,0.001,6.12 M0.001,6.37C-3.512,6.37-6.37,3.513-6.37,0s2.858-6.37,6.371-6.37C3.513-6.37,6.37-3.513,6.37,0    S3.513,6.37,0.001,6.37L0.001,6.37z" fill="#FFFFFF"/>
		</g>
		<path xmlns="http://www.w3.org/2000/svg" id="C-23_Sherpa_1_" class="secondary" d="M5.658-0.234c-0.16-0.106-4.491-0.12-4.491-0.12S1.181-0.633,1.088-0.62   c-0.094,0.013-0.12,0.266-0.12,0.266l-0.346-0.04l0.013-3.375c0,0,0.737,0.036,0.798,0.066c0.106,0.04,0.093-0.757,0-0.811   c-0.09-0.051-1.333-0.004-1.429,0c-0.005,0-0.007,0-0.007,0c-0.096-0.004-1.34-0.051-1.429,0c-0.093,0.053-0.106,0.851,0,0.811   c0.061-0.03,0.798-0.066,0.798-0.066l0.013,3.375l-0.346,0.04c0,0-0.026-0.252-0.119-0.266c-0.094-0.013-0.08,0.266-0.08,0.266   s-4.332,0.013-4.491,0.12c-0.159,0.106-0.262,0.797,0,0.864c0.262,0.066,3.84,0,3.84,0l0.027,0.531c0,0-0.08-0.04-0.094,0.013   c-0.013,0.054,0.116,0.117,0.116,0.117s0.094,0.412,0.177,0.415c0.06,0.002,0.17-0.412,0.17-0.412s0.162-0.125,0.122-0.16   c-0.04-0.033-0.093,0.014-0.093,0.014l0.006-0.488l0.18,0.013c0,0-0.011,0.172,0.149,0.176c0.133,0.003,0.144-0.113,0.144-0.113   h0.305c0,0,0.04,2.206,0.146,2.671c0.105,0.461,0.212,1.132,0.459,1.129h0.007c0.247,0.003,0.354-0.668,0.459-1.129   c0.106-0.465,0.146-2.671,0.146-2.671h0.305c0,0,0.01,0.117,0.144,0.113c0.16-0.004,0.149-0.176,0.149-0.176L1.386,0.66   l0.007,0.488c0,0-0.053-0.047-0.093-0.014c-0.04,0.034,0.122,0.16,0.122,0.16s0.11,0.414,0.17,0.412   c0.083-0.003,0.176-0.415,0.176-0.415s0.13-0.063,0.116-0.117C1.871,1.122,1.791,1.161,1.791,1.161L1.818,0.63   c0,0,3.578,0.066,3.84,0C5.92,0.563,5.817-0.127,5.658-0.234z" fill="#FFFFFF"/>
	</g></svg>