<?xml version="1.0" standalone="no"?>
<svg xmlns="http://www.w3.org/2000/svg" viewBox="-6.37 -6.37 12.74 12.74" color="#212121" width="75" height="75"><g transform="matrix(1 0 0 -1 0 0)">
		<g xmlns="http://www.w3.org/2000/svg">
			<circle class="primary" fill="currentColor" cx="0" cy="0" r="6.245"/>
			<path class="secondary" d="M0,6.12c3.38,0,6.12-2.74,6.12-6.12S3.38-6.12,0-6.12S-6.12-3.38-6.12,0S-3.38,6.12,0,6.12 M0,6.37    c-3.513,0-6.37-2.857-6.37-6.37S-3.513-6.37,0-6.37S6.37-3.513,6.37,0S3.513,6.37,0,6.37L0,6.37z" fill="#FFFFFF"/>
		</g>
		<path xmlns="http://www.w3.org/2000/svg" id="C-26_Metroliner_1_" class="secondary" d="M5.71,0.354c-0.177-0.089-5.196-0.376-5.182-0.58c0.02-0.248-0.102-3.339-0.098-3.572   c0.001-0.15,1.162-1.198,1.162-1.198s0.028-0.342,0-0.462C1.565-5.573,0.254-5.052,0.087-4.986   C0.075-4.981,0.069-4.978,0.069-4.978s0.046-0.717,0-0.771C0.059-5.761,0.05-5.77,0.042-5.775c-0.001,0-0.001-0.001-0.001-0.001   C0.024-5.777,0.013-5.78,0.001-5.78h-0.004C-0.014-5.779-0.026-5.777-0.04-5.776h-0.001C-0.05-5.77-0.059-5.761-0.069-5.75   c-0.046,0.055,0,0.771,0,0.771s-0.006-0.003-0.017-0.008C-0.249-5.05-1.565-5.574-1.592-5.459c-0.027,0.12,0,0.462,0,0.462   s1.16,1.048,1.163,1.198c0.003,0.233-0.119,3.324-0.1,3.572c0.015,0.204-5.004,0.491-5.182,0.58c-0.091,0.046-0.186,0.384,0,0.544   c0.187,0.16,3.915,0.315,3.915,0.315s0.037,1.464,0.272,1.476c0.237,0.014,0.203-1.327,0.298-1.408   c0.097-0.08,0.733-0.049,0.733-0.049S-0.628,4-0.541,4.63c0.086,0.63,0.301,1.15,0.508,1.15c0.221,0,0.486-0.52,0.574-1.15   C0.628,4,0.492,1.232,0.492,1.232s0.636-0.031,0.733,0.049c0.097,0.081,0.062,1.422,0.298,1.408   C1.76,2.678,1.796,1.214,1.796,1.214S5.524,1.058,5.71,0.898C5.898,0.738,5.801,0.4,5.71,0.354z" fill="#FFFFFF"/>
	</g></svg>