<?xml version="1.0" standalone="no"?>
<svg xmlns="http://www.w3.org/2000/svg" viewBox="-6.37 -6.37 12.74 12.74" color="#212121" width="75" height="75"><g transform="matrix(1 0 0 -1 0 0)">
		<g xmlns="http://www.w3.org/2000/svg">
			<circle class="primary" fill="currentColor" cx="0" cy="0" r="6.245"/>
			<path class="secondary" d="M0,6.12c3.38,0,6.12-2.74,6.12-6.12S3.38-6.12,0-6.12S-6.12-3.38-6.12,0S-3.38,6.12,0,6.12 M0,6.37    c-3.513,0-6.37-2.857-6.37-6.37S-3.513-6.37,0-6.37S6.37-3.513,6.37,0S3.513,6.37,0,6.37L0,6.37z" fill="#FFFFFF"/>
		</g>
		<path xmlns="http://www.w3.org/2000/svg" id="C-27J_Spartan_1_" class="secondary" d="M5.738,0.944c-0.06-0.101-3.571-0.979-3.571-0.979L1.031-0.2   c0,0,0.116-0.992,0.108-1.317C1.132-1.842,0.69-3.505,0.703-3.594s1.641-0.33,1.749-0.38c0.108-0.052,0.15-0.399,0.081-0.459   c-0.07-0.061-2.01-0.233-2.01-0.233S0.172-5.277,0.031-5.22C0.027-5.218,0.023-5.21,0.018-5.195   C-0.146-5.109-0.414-4.66-0.414-4.66s-1.942,0.137-2.013,0.197c-0.071,0.059-0.035,0.407,0.071,0.459   C-2.249-3.95-0.625-3.68-0.614-3.591S-1.062-1.907-1.09-1.523c-0.027,0.384,0.085,1.32,0.085,1.32L-2.144-0.06   c0,0-3.526,0.814-3.588,0.914C-5.793,0.954-5.9,1.395-5.71,1.502S-2.248,1.46-2.248,1.46S-2.25,2.184-2.251,2.345   c0,0.054,0.012,0.13,0.033,0.208c0.002,0.007,0.004,0.014,0.006,0.021l-0.612,0.02l0.001,0.03l0.62-0.021   c0.041,0.135,0.105,0.26,0.167,0.268c0.087,0.01,0.142-0.101,0.19-0.28l0.597-0.02l-0.001-0.03l-0.588,0.02   c0.007-0.029,0.015-0.06,0.022-0.092c0.055-0.249,0.057-1.061,0.183-1.101c0.122-0.041,0.826-0.07,0.805,0.054   c-0.038,0.217-0.062,3.125,0.756,3.17c0.003,0,0.007,0,0.01,0c0.006,0,0.012,0,0.017,0C0.767,4.544,0.86,1.639,0.826,1.421   C0.807,1.296,1.511,1.34,1.632,1.382c0.125,0.042,0.112,0.855,0.163,1.104c0.007,0.032,0.013,0.063,0.02,0.092l-0.587-0.03   l-0.002,0.03L1.822,2.61C1.867,2.789,1.92,2.901,2.007,2.892c0.062-0.006,0.128-0.13,0.172-0.264L2.798,2.66l0.001-0.03   l-0.61-0.031c0.001-0.007,0.004-0.013,0.005-0.02C2.216,2.5,2.23,2.425,2.231,2.371c0.002-0.162,0.013-0.885,0.013-0.885   s3.27,0.208,3.461,0.105C5.897,1.488,5.798,1.044,5.738,0.944z" fill="#FFFFFF"/>
	</g></svg>