<?xml version="1.0" standalone="no"?>
<svg xmlns="http://www.w3.org/2000/svg" viewBox="-6.37 -6.37 12.74 12.74" color="#212121" width="75" height="75"><g transform="matrix(1 0 0 -1 0 0)">
		<g xmlns="http://www.w3.org/2000/svg">
			<path class="primary" fill="currentColor" d="M0.001-6.245c-3.444,0-6.246,2.802-6.246,6.245s2.802,6.245,6.246,6.245c3.443,0,6.244-2.802,6.244-6.245    S3.444-6.245,0.001-6.245z"/>
			<path class="secondary" d="M0.001,6.12C3.38,6.12,6.12,3.38,6.12,0S3.38-6.12,0.001-6.12C-3.38-6.12-6.12-3.38-6.12,0    S-3.38,6.12,0.001,6.12 M0.001,6.37C-3.512,6.37-6.37,3.513-6.37,0s2.858-6.37,6.371-6.37C3.513-6.37,6.37-3.513,6.37,0    S3.513,6.37,0.001,6.37L0.001,6.37z" fill="#FFFFFF"/>
		</g>
		<path xmlns="http://www.w3.org/2000/svg" class="secondary" d="M5.783-0.272c0.058-0.1,0.044-0.681-0.024-0.72C5.69-1.031,1.734-0.208,1.734-0.208S1.59-0.614,1.469-0.639   S1.357-0.145,1.357-0.145L0.519-0.053c0,0-0.167-1.574-0.09-1.67C0.507-1.82,1.889-2.317,1.967-2.42   c0.079-0.103,0.062-0.201,0.019-0.223C1.941-2.667,0.299-2.141,0.299-2.141S0.051-2.808-0.047-2.839   C-0.051-2.84-0.056-2.831-0.062-2.811C-0.069-2.833-0.075-2.845-0.08-2.843c-0.096,0.038-0.308,0.716-0.308,0.716   s-1.667-0.439-1.71-0.413c-0.043,0.025-0.053,0.123,0.03,0.222c0.084,0.099,1.49,0.522,1.572,0.614c0.083,0.093,0,1.673,0,1.673   l-0.843-0.047c0,0-0.017-0.518-0.138-0.487c-0.12,0.03-0.242,0.444-0.242,0.444S-5.713-0.734-5.78-0.692   c-0.065,0.043-0.049,0.624,0.014,0.72c0.062,0.097,4.045,0.67,4.045,0.67s0.033,0.213,0.095,0.378l-0.222-0.045l-0.009,0.042   l0.248,0.05c0.032,0.075,0.072,0.131,0.117,0.139c0.051,0.01,0.09-0.032,0.118-0.092l0.242,0.049l0.009-0.042L-1.357,1.13   c0.044-0.117,0.062-0.267,0.062-0.267l0.831,0.146c0,0,0.016,1.245,0.343,1.686c0.062,0.083,0.135,0.138,0.221,0.15   c0.072-0.021,0.133-0.072,0.184-0.146C0.593,2.25,0.543,0.987,0.543,0.987l0.823-0.189c0,0,0.023,0.149,0.074,0.264L1.21,1.121   l0.012,0.041L1.46,1.1c0.031,0.059,0.072,0.098,0.12,0.086c0.045-0.01,0.081-0.069,0.109-0.146l0.245-0.063l-0.01-0.041   L1.706,0.993C1.758,0.825,1.778,0.61,1.778,0.61S5.727-0.173,5.783-0.272z" fill="#FFFFFF"/>
	</g></svg>