<?xml version="1.0" standalone="no"?>
<svg xmlns="http://www.w3.org/2000/svg" viewBox="-6.37 -6.37 12.74 12.74" color="#212121" width="75" height="75"><g transform="matrix(1 0 0 -1 0 0)">
		<g xmlns="http://www.w3.org/2000/svg">
			<circle class="primary" fill="currentColor" cx="0" cy="0" r="6.245"/>
			<path class="secondary" d="M0,6.12c3.38,0,6.12-2.74,6.12-6.12S3.38-6.12,0-6.12S-6.12-3.38-6.12,0S-3.38,6.12,0,6.12 M0,6.37    c-3.513,0-6.37-2.857-6.37-6.37S-3.513-6.37,0-6.37S6.37-3.513,6.37,0S3.513,6.37,0,6.37L0,6.37z" fill="#FFFFFF"/>
		</g>
		<path xmlns="http://www.w3.org/2000/svg" id="C-40_Clipper_1_" class="secondary" d="M5.329-2.788C5.305-2.823,3.182-1.521,3.182-1.521S3.147-1.591,3.05-1.547   C2.953-1.503,2.728-1.402,2.728-1.402s-0.08-0.255-0.13-0.264c-0.05-0.008-0.06,0.357-0.06,0.357l-0.704,0.36   c0,0-0.075-0.219-0.115-0.206C1.681-1.142,1.655-0.86,1.655-0.86L1.502-0.771l0.015,0.058L1.126-0.547c0,0-0.073-0.24-0.13-0.238   C0.938-0.783,0.965-0.579,0.965-0.579S0.674-0.434,0.638-0.495c-0.037-0.06,0.007-0.537-0.087-0.872   C0.458-1.702,0.364-2.148,0.383-2.295s1.902-1.738,1.902-1.738s0.017-0.192-0.02-0.201C2.228-4.242,0.076-3.05,0.076-3.05   S0.064-3.134-0.073-3.137C-0.15-3.135-0.158-3.055-0.158-3.055S-2.36-4.102-2.396-4.093c-0.037,0.009-0.011,0.201-0.011,0.201   s1.953,1.504,1.979,1.651c0.026,0.146-0.049,0.596-0.126,0.935C-0.631-0.968-0.566-0.494-0.6-0.431   C-0.635-0.369-0.932-0.5-0.932-0.5s0.018-0.205-0.04-0.205c-0.058,0-0.12,0.244-0.12,0.244L-1.49-0.609l0.013-0.059L-1.633-0.75   c0,0-0.039-0.281-0.079-0.292c-0.04-0.01-0.105,0.212-0.105,0.212l-0.719-0.328c0,0-0.026-0.365-0.077-0.355   c-0.049,0.011-0.118,0.27-0.118,0.27S-2.96-1.335-3.06-1.374c-0.099-0.04-0.13,0.033-0.13,0.033S-5.37-2.545-5.391-2.51   c-0.022,0.036,0.045,0.277,0.167,0.472C-5.104-1.844-1.518,0.6-1.518,0.6s-0.021,0.192-0.021,0.519c0,0.321,0.157,0.398,0.34,0.457   C-0.816,1.699-0.77,1.211-0.735,1.22C-0.7,1.228-0.525,1.357-0.49,1.513c0.018,0.08-0.129,0.872-0.051,1.734   c0.077,0.835,0.475,1.751,0.695,1.763c0.22,0.011,0.556-1.123,0.589-1.828C0.783,2.317,0.6,1.533,0.614,1.453   C0.642,1.295,0.811,1.16,0.845,1.148c0.035-0.01,0.103,0.475,0.48,0.335c0.18-0.067,0.333-0.151,0.318-0.473   C1.63,0.686,1.571,0.69,1.6,0.494C1.636,0.254,5.072-2.11,5.184-2.31C5.295-2.509,5.353-2.754,5.329-2.788z" fill="#FFFFFF"/>
	</g></svg>