<?xml version="1.0" standalone="no"?>
<svg xmlns="http://www.w3.org/2000/svg" viewBox="-6.37 -6.37 12.74 12.74" color="#212121" width="75" height="75"><g transform="matrix(1 0 0 -1 0 0)">
		<g xmlns="http://www.w3.org/2000/svg">
			<circle class="primary" fill="currentColor" cx="0" cy="0" r="6.245"/>
			<path class="secondary" d="M0,6.12c3.38,0,6.12-2.74,6.12-6.12S3.38-6.12,0-6.12S-6.12-3.38-6.12,0S-3.38,6.12,0,6.12 M0,6.37    c-3.513,0-6.37-2.857-6.37-6.37S-3.513-6.37,0-6.37S6.37-3.513,6.37,0S3.513,6.37,0,6.37L0,6.37z" fill="#FFFFFF"/>
		</g>
		<path xmlns="http://www.w3.org/2000/svg" id="C-5_galaxy_1_" class="secondary" d="M4.851-0.224L3.08,0.751c0.067,0.164,0.046,0.422,0.046,0.422   c0.113,0,0.098,0.206,0.098,0.206c0.021,0.313-0.092,0.365-0.092,0.365H2.797C2.664,1.569,2.7,1.363,2.7,1.363   C2.69,1.219,2.798,1.162,2.798,1.162c-0.031-0.17,0-0.278,0-0.278H2.796L1.998,1.317c0.067,0.165,0.046,0.421,0.046,0.421   c0.113,0,0.098,0.206,0.098,0.206C2.163,2.258,2.05,2.31,2.05,2.31H1.715C1.582,2.134,1.618,1.929,1.618,1.929   c-0.01-0.144,0.098-0.201,0.098-0.201c-0.031-0.169,0-0.278,0-0.278L0.573,2.099v2.484c0,0.386-0.154,0.726-0.154,0.726   c-0.102,0.32-0.341,0.489-0.367,0.507v0.002L0.05,5.816L0.049,5.817V5.815C0.021,5.798-0.22,5.632-0.326,5.313   c0,0-0.16-0.337-0.166-0.722l-0.037-2.484L-1.68,1.476c0,0,0.032,0.107,0.004,0.278c0,0,0.108,0.055,0.1,0.199   c0,0,0.039,0.206-0.092,0.382L-2.001,2.34c0,0-0.114-0.05-0.098-0.364c0,0-0.018-0.206,0.095-0.207c0,0-0.025-0.257,0.04-0.422   l-0.803-0.42h-0.002c0,0,0.032,0.107,0.004,0.278c0,0,0.108,0.055,0.101,0.199c0,0,0.039,0.205-0.092,0.382L-3.091,1.79   c0,0-0.114-0.05-0.098-0.364c0,0-0.018-0.206,0.094-0.207c0,0-0.024-0.257,0.041-0.422l-1.785-0.948c0,0-0.389-0.382-0.385-0.779   c0,0-0.002-0.134,0.241-0.055l3.079,0.875l0.532,0.116L-0.805,0.1c0,0,0.077-0.006,0.118-0.042c0,0-0.009-0.597,0.171-0.98   c0,0-0.099-1.793,0.182-3.65l-1.38-0.823c0,0-0.075-0.179-0.045-0.251c0,0,0.004-0.077,0.143-0.054l1.419,0.293l0.164-0.409   l0.166,0.407l1.415-0.314c0.137-0.027,0.141,0.05,0.141,0.05C1.72-5.602,1.648-5.421,1.648-5.421L0.28-4.578   c0.309,1.852,0.236,3.647,0.236,3.647C0.702-0.55,0.702,0.046,0.702,0.046C0.743,0.083,0.82,0.087,0.82,0.087l0.566-0.103   l0.53-0.124l3.065-0.92c0.242-0.082,0.242,0.052,0.242,0.052C5.234-0.612,4.851-0.224,4.851-0.224z" fill="#FFFFFF"/>
	</g></svg>