<?xml version="1.0" standalone="no"?>
<svg xmlns="http://www.w3.org/2000/svg" viewBox="-6.37 -6.37 12.74 12.74" color="#212121" width="75" height="75"><g transform="matrix(1 0 0 -1 0 0)">
		<g xmlns="http://www.w3.org/2000/svg">
			<path class="primary" fill="currentColor" d="M0.001-6.245c-3.444,0-6.246,2.802-6.246,6.245s2.802,6.245,6.246,6.245c3.443,0,6.244-2.802,6.244-6.245    S3.444-6.245,0.001-6.245z"/>
			<path class="secondary" d="M0.001,6.12C3.38,6.12,6.12,3.38,6.12,0S3.38-6.12,0.001-6.12C-3.38-6.12-6.12-3.38-6.12,0    S-3.38,6.12,0.001,6.12 M0.001,6.37C-3.512,6.37-6.37,3.513-6.37,0s2.858-6.37,6.371-6.37C3.513-6.37,6.37-3.513,6.37,0    S3.513,6.37,0.001,6.37L0.001,6.37z" fill="#FFFFFF"/>
		</g>
		<path xmlns="http://www.w3.org/2000/svg" id="C-9_Skytrain_2_1_" class="secondary" d="M-0.043-5.238C-0.033-5.406-0.02-5.571,0-5.71c0.02,0.14,0.033,0.305,0.043,0.473   c0,0,1.221-0.435,1.269-0.444c0.048-0.01,0.056-0.01,0.056,0.043c0.001,0.052,0,0.236,0,0.317S1.336-5.236,1.307-5.198   C1.282-5.166,0.323-4.312,0.109-4.12c0.073,0.323,0.136,0.611,0.188,0.873l0.275,0.229c0.002-0.013,0.003-0.026,0.004-0.038   C0.585-3.09,0.608-3.098,0.68-3.099C0.758-3.102,0.771-3.09,0.781-3.071c0.017,0.046,0.032,0.099,0.045,0.157   c-0.003-0.02-0.007-0.038-0.01-0.05c0.08,0.055,0.075,0.139,0.043,0.214C0.86-2.735,0.863-2.722,0.865-2.707l0,0l0,0   c0.043,0.308,0.05,0.67,0.043,0.879C0.906-1.777,0.9-1.751,0.885-1.745C0.869-1.738,0.816-1.737,0.764-1.737   S0.659-1.738,0.645-1.745C0.628-1.751,0.601-1.857,0.597-1.907C0.595-1.926,0.593-1.951,0.59-1.98L0.483-2.056   c0.013,0.152,0.019,0.301,0.019,0.45c0,0,0,0.506,0,1.217c0,0.002,0,0.005,0,0.008l0.832-0.135L1.318-0.515   c0-0.08,0.047-0.053,0.047-0.007l0.187-0.03l0.022-0.006v0.002l0.063-0.011L1.95-0.698c0,0,0.002-0.036,0.021-0.042   c0.021-0.006,0.037,0.017,0.037,0.017L3.122-1.19c0,0-0.003-0.03,0.024-0.041C3.166-1.237,3.17-1.21,3.17-1.21l0.744-0.313   c0,0,0-0.025,0.021-0.034C3.957-1.566,3.969-1.54,3.969-1.54l0.112-0.038c0,0,0.002-0.025,0.021-0.031   C4.12-1.614,4.133-1.595,4.133-1.595l0.086-0.029C4.209-1.386,4.145-1.13,4.123-1.063C4.108-1.016,4.092-0.99,4.062-0.962l0,0l0,0   C4.049-0.95,4.034-0.938,4.015-0.924L1.804,0.557L0.502,1.594c0,1.135,0,2.199,0,2.47c0,0.798-0.21,1.42-0.38,1.768   C0.093,5.891,0.046,5.924,0,5.924s-0.093-0.033-0.122-0.092c-0.17-0.349-0.379-0.97-0.379-1.768c0-0.271,0-1.335,0-2.47   l-1.302-1.037l-2.212-1.481C-4.033-0.938-4.049-0.95-4.062-0.962l0,0l0,0c-0.029-0.027-0.046-0.054-0.062-0.101   C-4.145-1.13-4.208-1.385-4.219-1.624l0.086,0.029c0,0,0.013-0.019,0.032-0.013c0.018,0.006,0.02,0.031,0.02,0.031l0.112,0.038   c0,0,0.012-0.026,0.033-0.017c0.021,0.009,0.021,0.034,0.021,0.034l0.744,0.313c0,0,0.006-0.027,0.024-0.021   c0.028,0.01,0.026,0.04,0.026,0.04l1.112,0.468c0,0,0.017-0.023,0.037-0.017s0.021,0.042,0.021,0.042l0.312,0.131l0.065,0.011   v-0.002l0.023,0.006l0.185,0.03c0.001-0.046,0.047-0.073,0.047,0.007l-0.016-0.001l0.833,0.135c0-0.003,0-0.005,0-0.008   c0-0.711,0-1.217,0-1.217c0-0.149,0.006-0.298,0.018-0.45L-0.59-1.98c-0.003,0.029-0.005,0.054-0.007,0.073   c-0.004,0.049-0.031,0.155-0.048,0.162C-0.66-1.738-0.711-1.737-0.764-1.737s-0.105-0.001-0.12-0.008   C-0.9-1.751-0.906-1.777-0.908-1.828c-0.006-0.209,0-0.571,0.044-0.879h-0.001l0,0C-0.862-2.722-0.86-2.735-0.858-2.75   C-0.89-2.825-0.895-2.909-0.816-2.964c-0.003,0.013-0.007,0.031-0.011,0.05c0.013-0.058,0.029-0.111,0.046-0.157   c0.01-0.019,0.023-0.031,0.102-0.028c0.071,0.001,0.096,0.009,0.103,0.042c0.001,0.012,0.003,0.025,0.005,0.038l0.274-0.229   c0.054-0.261,0.115-0.549,0.188-0.873C-0.324-4.313-1.281-5.166-1.306-5.2c-0.028-0.038-0.061-0.042-0.061-0.124   c0-0.08,0-0.265,0-0.316c0-0.053,0.008-0.053,0.056-0.043C-1.264-5.673-0.043-5.238-0.043-5.238z M0.786-0.429   c0-0.08,0.047-0.054,0.047-0.006L0.786-0.429z M-0.833-0.435c0-0.047,0.047-0.074,0.047,0.006L-0.833-0.435z" fill="#FFFFFF"/>
	</g></svg>