<?xml version="1.0" standalone="no"?>
<svg xmlns="http://www.w3.org/2000/svg" viewBox="-6.37 -6.37 12.74 12.74" color="#212121" width="75" height="75"><g transform="matrix(1 0 0 -1 0 0)">
		<g xmlns="http://www.w3.org/2000/svg">
			<circle class="primary" fill="currentColor" cx="0" cy="0" r="6.245"/>
			<path class="secondary" d="M0,6.12c3.38,0,6.12-2.74,6.12-6.12S3.38-6.12,0-6.12S-6.12-3.38-6.12,0S-3.38,6.12,0,6.12 M0,6.37    c-3.513,0-6.37-2.857-6.37-6.37S-3.513-6.37,0-6.37S6.37-3.513,6.37,0S3.513,6.37,0,6.37L0,6.37z" fill="#FFFFFF"/>
		</g>
		<path xmlns="http://www.w3.org/2000/svg" id="Cessna_UC-35_1_" class="secondary" d="M1.239-1.949c0,0,0.055-0.634-0.093-0.638C1.092-2.589,1.061-2.399,1.061-2.399   L0.822-2.421c0,0,0.016-0.146-0.021-0.166c-0.036-0.02-0.135,0-0.135,0s0.026-0.264,0-0.301C0.642-2.925,0.355-2.979,0.355-2.979   s-0.061-0.435-0.04-0.54c0.02-0.104,1.996-0.386,2.051-0.507C2.42-4.148,2.38-4.414,2.356-4.493   C2.331-4.572,0.181-4.772,0.181-4.772L0.11-4.642c0,0-0.059-0.842-0.102-0.812C0.006-5.452,0.004-5.429,0.001-5.386   c-0.004-0.043-0.006-0.066-0.008-0.068c-0.043-0.03-0.101,0.812-0.101,0.812l-0.072-0.13c0,0-2.15,0.2-2.175,0.279   c-0.024,0.079-0.064,0.345-0.011,0.467c0.055,0.121,2.032,0.402,2.051,0.507c0.02,0.105-0.041,0.54-0.041,0.54   s-0.285,0.055-0.311,0.092s0,0.301,0,0.301s-0.099-0.02-0.135,0C-0.837-2.566-0.823-2.42-0.823-2.42L-1.06-2.399   c0,0-0.031-0.189-0.086-0.188c-0.147,0.004-0.093,0.638-0.093,0.638s0.004,0.784-0.08,0.812c-0.085,0.029-4.415,0.714-4.466,0.746   c-0.051,0.033-0.051,0.64,0.052,0.736s3.899,0.265,4.051,0.3C-1.529,0.68-0.597,1.022-0.604,1.08   c-0.007,0.059,0.02,3.198,0.021,3.273c0.001,0.076,0.231,1.131,0.586,1.101c0.001,0,0.001,0,0.001,0   c0.352,0.019,0.58-1.025,0.581-1.101c0-0.075,0.026-3.215,0.021-3.273c-0.007-0.058,0.926-0.4,1.077-0.435s3.948-0.205,4.051-0.3   c0.102-0.097,0.102-0.703,0.052-0.736C5.734-0.423,1.404-1.107,1.319-1.137C1.236-1.165,1.239-1.949,1.239-1.949z" fill="#FFFFFF"/>
	</g></svg>