<?xml version="1.0" standalone="no"?>
<svg xmlns="http://www.w3.org/2000/svg" viewBox="-6.37 -6.37 12.74 12.74" color="#212121" width="75" height="75"><g transform="matrix(1 0 0 -1 0 0)">
		<g xmlns="http://www.w3.org/2000/svg">
			<circle class="primary" fill="currentColor" cx="0" cy="0" r="6.245"/>
			<path class="secondary" d="M0,6.12c3.38,0,6.12-2.74,6.12-6.12S3.38-6.12,0-6.12S-6.12-3.38-6.12,0S-3.38,6.12,0,6.12 M0,6.37    c-3.513,0-6.37-2.857-6.37-6.37S-3.513-6.37,0-6.37S6.37-3.513,6.37,0S3.513,6.37,0,6.37L0,6.37z" fill="#FFFFFF"/>
		</g>
		<path xmlns="http://www.w3.org/2000/svg" id="CT-39_Sabreliner_1_" class="secondary" d="M5.493-1.186L0.845,1.916c0,2.098-0.359,3.798-0.801,3.798s-0.801-1.7-0.801-3.798   l-4.785-2.998c0,0-0.219-0.426,0.026-0.956l4.228,1.048c-0.043-0.208-0.07-0.479-0.07-0.777c0-0.348,0.036-0.661,0.094-0.878   c-0.006-0.021-0.01-0.042-0.01-0.065v-0.155c0-0.114,0.093-0.207,0.207-0.207S-0.86-2.98-0.86-2.865v0.155   c0,0.023-0.004,0.045-0.01,0.065c0.058,0.217,0.094,0.53,0.094,0.878c0,0.349-0.037,0.663-0.095,0.88l0.15,0.038   c0-0.828,0.077-1.79,0.188-2.611L-2.18-4.674c0,0-0.207-0.297-0.013-0.504L-0.28-4.84c0.084-0.317,0.171-0.509,0.25-0.509   c0.081,0,0.176,0.202,0.271,0.535l1.903-0.415C2.234-4.777,2.08-4.687,2.08-4.687L0.51-3.519c0.131,0.834,0.226,1.822,0.226,2.67   l0.149-0.042C0.828-1.108,0.792-1.42,0.792-1.767c0-0.348,0.036-0.661,0.094-0.878c-0.006-0.02-0.01-0.042-0.01-0.065v-0.155   c0-0.114,0.093-0.207,0.207-0.207S1.29-2.98,1.29-2.865v0.155c0,0.023-0.004,0.045-0.011,0.065c0.059,0.217,0.094,0.53,0.094,0.878   c0,0.288-0.024,0.551-0.066,0.757l4.172-1.17C5.815-1.392,5.493-1.186,5.493-1.186z" fill="#FFFFFF"/>
	</g></svg>