<?xml version="1.0" standalone="no"?>
<svg xmlns="http://www.w3.org/2000/svg" viewBox="-6.37 -6.37 12.74 12.74" color="#212121" width="75" height="75"><g transform="matrix(1 0 0 -1 0 0)">
		<g xmlns="http://www.w3.org/2000/svg">
			<path class="primary" fill="currentColor" d="M0.001-6.245c-3.444,0-6.246,2.802-6.246,6.245s2.802,6.245,6.246,6.245c3.443,0,6.244-2.802,6.244-6.245    S3.444-6.245,0.001-6.245z"/>
			<path class="secondary" d="M0.001,6.12C3.38,6.12,6.12,3.38,6.12,0S3.38-6.12,0.001-6.12C-3.38-6.12-6.12-3.38-6.12,0    S-3.38,6.12,0.001,6.12 M0.001,6.37C-3.512,6.37-6.37,3.513-6.37,0s2.858-6.37,6.371-6.37C3.513-6.37,6.37-3.513,6.37,0    S3.513,6.37,0.001,6.37L0.001,6.37z" fill="#FFFFFF"/>
		</g>
		<path xmlns="http://www.w3.org/2000/svg" id="CV-22_Osprey_1_" class="secondary" d="M5.817,1.141V0.929L3.453,0.575L3.241,0.402l0.063-0.096L2.349-1.785l-0.18,0.106   l0.689,1.815L1.075-0.065C1.288-0.5,0.598-1.944,0.598-1.944L0.544-3.261h0.521c0,0,0,0.148,0.084,0.17   c0.085,0.022-0.02-1.189-0.02-1.189H0.014c0,0-0.005,0.113-0.014,0.313c-0.01-0.2-0.015-0.313-0.015-0.313h-1.114   c0,0-0.106,1.21-0.021,1.189c0.085-0.021,0.085-0.17,0.085-0.17h0.521l-0.054,1.316c0,0-0.69,1.444-0.478,1.879l-1.783,0.202   l0.689-1.815l-0.18-0.106l-0.956,2.091l0.063,0.096l-0.212,0.173l-2.364,0.354v0.212l2.336-0.255c0,0-0.054,0.268,0.093,0.353   c0.145,0.085,0.431,0.03,0.431,0.03l1.232,1.571l0.239-0.156L-2.506,1.24l1.571-0.184l0.325,0.41V2.57c0,0,0.212,0.994,0.595,1.076   c0.005,0.001,0.01,0.001,0.014-0.001c0.005,0.002,0.01,0.002,0.015,0.001C0.396,3.564,0.609,2.57,0.609,2.57V1.467l0.325-0.411   L2.505,1.24L1.486,2.684l0.24,0.156l1.232-1.571c0,0,0.287,0.055,0.432-0.03c0.146-0.085,0.092-0.353,0.092-0.353L5.817,1.141z" fill="#FFFFFF"/>
	</g></svg>