<?xml version="1.0" standalone="no"?>
<svg xmlns="http://www.w3.org/2000/svg" viewBox="-6.37 -6.37 12.74 12.74" color="#212121" width="75" height="75"><g transform="matrix(1 0 0 -1 0 0)">
		<g xmlns="http://www.w3.org/2000/svg" id="Circle_2_">
			<path class="primary" fill="currentColor" d="M-0.001-6.245c-3.443,0-6.244,2.802-6.244,6.246c0,3.443,2.801,6.244,6.244,6.244    c3.444,0,6.246-2.801,6.246-6.244C6.245-3.443,3.444-6.245-0.001-6.245z"/>
			<path class="secondary" d="M-0.001,6.12c3.381,0,6.121-2.74,6.121-6.119c0-3.381-2.74-6.121-6.121-6.121    c-3.379,0-6.119,2.74-6.119,6.121C-6.12,3.38-3.38,6.12-0.001,6.12 M-0.001,6.37c-3.512,0-6.369-2.857-6.369-6.369    c0-3.513,2.857-6.371,6.369-6.371c3.513,0,6.371,2.858,6.371,6.371C6.37,3.513,3.512,6.37-0.001,6.37L-0.001,6.37z" fill="#FFFFFF"/>
		</g>
		<path xmlns="http://www.w3.org/2000/svg" class="secondary" d="M-0.138-5.275c0,0,1.157,0,1.468,0c0.309,0,0.835,0,0.835,0.121c0.028,0.46-0.323,0.823-0.323,0.823   s-1.065-0.015-1.725,0c0.404,0.971,0.458,4.18,0.458,4.18h5.149v0.525c0,0-0.382,0.883-1.218,0.991   c-0.462,0.06-1.658,0.117-2.635,0.156c0.012,0.083,0.016,0.173,0.016,0.268c0,0.403-0.095,0.729-0.209,0.729   c-0.116,0-0.209-0.326-0.209-0.729c0-0.089,0.005-0.175,0.012-0.252C0.883,1.56,0.44,1.573,0.44,1.573s0.202,3.706-0.473,3.706   c0,0-0.623,0.311-0.713-3.647c-0.203-0.012-0.532-0.01-0.927-0.013c0.004,0.054,0.006,0.111,0.006,0.17   c0,0.403-0.094,0.729-0.208,0.729c-0.117,0-0.21-0.326-0.21-0.729c0-0.061,0.002-0.12,0.006-0.177   c-1.398-0.027-3.289-0.17-3.642-1.034c-0.011-0.431,0-0.729,0-0.729h5c0,0,0.055-3.444,0.337-4.142c-0.756-0.039-1.758,0-1.758,0   s-0.609-0.85-0.191-0.982C-1.874-5.297-0.138-5.275-0.138-5.275z" fill="#FFFFFF"/>
	</g></svg>