<?xml version="1.0" standalone="no"?>
<svg xmlns="http://www.w3.org/2000/svg" viewBox="-6.37 -6.37 12.74 12.74" color="#212121" width="75" height="75"><g transform="matrix(1 0 0 -1 0 0)">
		<g xmlns="http://www.w3.org/2000/svg">
			<circle class="primary" fill="currentColor" cx="0" cy="0" r="6.245"/>
			<path class="secondary" d="M0,6.12c3.38,0,6.12-2.74,6.12-6.12S3.38-6.12,0-6.12S-6.12-3.38-6.12,0S-3.38,6.12,0,6.12 M0,6.37    c-3.513,0-6.37-2.857-6.37-6.37S-3.513-6.37,0-6.37S6.37-3.513,6.37,0S3.513,6.37,0,6.37L0,6.37z" fill="#FFFFFF"/>
		</g>
		<path xmlns="http://www.w3.org/2000/svg" id="E-2_Hawkeye_1_" class="secondary" d="M5.668,0.228L1.847,0.816C1.841,1.144,1.81,1.297,1.81,1.297   c0,0.272-0.099,0.311-0.099,0.311c0,0.244-0.099,0.464-0.099,0.464l-0.004-0.02l-0.004,0.02c0,0-0.099-0.22-0.099-0.464   c0,0-0.099-0.038-0.099-0.311c0,0-0.027-0.131-0.035-0.407L0.488,1.025l-0.02,2.316c0,0-0.011,1.038-0.433,1.038   S-0.478,3.33-0.478,3.33V1.038l-0.854-0.13C-1.34,1.187-1.367,1.319-1.367,1.319c0,0.273-0.099,0.312-0.099,0.312   c0,0.243-0.099,0.464-0.099,0.464l-0.004-0.021l-0.004,0.021c0,0-0.098-0.221-0.098-0.464c0,0-0.099-0.038-0.099-0.312   c0,0-0.032-0.154-0.037-0.482l-3.871-0.586c0,0-0.314-0.382,0-0.696l3.732-0.321C-1.948-0.803-1.95-0.841-1.95-0.878   c0-0.948,0.673-1.739,1.567-1.921l0.109-0.588c0,0-1.356-0.033-1.584-0.103c-0.228-0.068-0.217-0.889-0.217-0.889h4.14   c0,0.672-0.216,0.855-0.216,0.855L0.297-3.398L0.402-2.8c0.896,0.181,1.572,0.972,1.572,1.922c0,0.037-0.002,0.074-0.004,0.111   l3.767,0.288C5.953,0.114,5.668,0.228,5.668,0.228z" fill="#FFFFFF"/>
	</g></svg>