<?xml version="1.0" standalone="no"?>
<svg xmlns="http://www.w3.org/2000/svg" viewBox="-6.37 -6.37 12.74 12.74" color="#212121" width="75" height="75"><g transform="matrix(1 0 0 -1 0 0)">
		<g xmlns="http://www.w3.org/2000/svg">
			<circle class="primary" fill="currentColor" cx="0" cy="0" r="6.245"/>
			<path class="secondary" d="M0,6.12c3.38,0,6.12-2.74,6.12-6.12S3.38-6.12,0-6.12S-6.12-3.38-6.12,0S-3.38,6.12,0,6.12 M0,6.37    c-3.513,0-6.37-2.857-6.37-6.37S-3.513-6.37,0-6.37S6.37-3.513,6.37,0S3.513,6.37,0,6.37L0,6.37z" fill="#FFFFFF"/>
		</g>
		<path xmlns="http://www.w3.org/2000/svg" id="E-3_Sentry_1_" class="secondary" d="M5.062-1.685C5.035-1.62,4.967-1.499,4.936-1.457c-0.029,0.04-0.032,0.104-0.074,0.166   L4.86-1.285c0,0,0,0,0-0.001c-0.012,0.018-0.026,0.034-0.044,0.05c-0.034,0.03-0.669,0.488-1.441,1.044l0.094-0.066   C3.48-0.21,3.48-0.159,3.487-0.065C3.5,0.085,3.5,0.419,3.478,0.583C3.475,0.607,3.463,0.632,3.435,0.635   c-0.026,0.003-0.247,0-0.271-0.006C3.138,0.623,3.128,0.618,3.123,0.595C3.094,0.439,3.103,0.079,3.121-0.01   c-0.585,0.421-1.218,0.875-1.71,1.232L1.375,1.25l0.19-0.137l0.017-0.014c0,0,0,0.001,0,0.002l0.125-0.089   C1.72,1.06,1.72,1.111,1.728,1.204C1.74,1.355,1.74,1.747,1.719,1.913c-0.004,0.023-0.016,0.048-0.044,0.05   c-0.027,0.003-0.247,0-0.272-0.005C1.378,1.952,1.368,1.946,1.364,1.923C1.362,1.915,1.361,1.907,1.359,1.898   c-0.023-0.169-0.01-0.516,0.002-0.637L0.674,1.793C0.559,1.935,0.525,2.072,0.521,2.096V4.1c0,0.766-0.315,1.554-0.451,1.769   C0.056,5.892,0.031,5.927,0,5.927s-0.055-0.035-0.068-0.058C-0.206,5.653-0.521,4.865-0.521,4.1V2.095   c-0.005-0.024-0.04-0.161-0.153-0.302l-0.688-0.532C-1.35,1.382-1.337,1.729-1.36,1.898c-0.001,0.009-0.002,0.017-0.004,0.025   c-0.004,0.023-0.014,0.028-0.039,0.035c-0.025,0.005-0.245,0.008-0.271,0.005c-0.028-0.002-0.04-0.028-0.043-0.051   C-1.74,1.748-1.74,1.355-1.728,1.204c0.006-0.093,0.006-0.145,0.019-0.192l0.125,0.089c0-0.001,0-0.002,0-0.002l0.018,0.014   l0.19,0.137L-1.41,1.223C-1.904,0.866-2.536,0.411-3.122-0.01c0.018,0.089,0.028,0.449-0.002,0.605   c-0.004,0.022-0.015,0.028-0.04,0.034c-0.024,0.006-0.245,0.009-0.272,0.006c-0.028-0.003-0.039-0.028-0.042-0.051   C-3.5,0.419-3.5,0.085-3.488-0.065c0.009-0.094,0.007-0.146,0.021-0.193l0.093,0.067c-0.771-0.556-1.408-1.014-1.441-1.045   c-0.02-0.015-0.033-0.032-0.045-0.049c0,0,0,0.001-0.001,0.001L-4.863-1.29c-0.04-0.063-0.043-0.127-0.072-0.167   c-0.032-0.042-0.1-0.163-0.128-0.228c-0.011-0.025-0.005-0.21-0.005-0.21l0.045,0.013l0.008,0.016l1.35,0.624L-3.357-1.1v0.001   l0.007,0.003c0-0.097,0.008-0.196,0.023-0.195c0.016,0,0.026,0.121,0.026,0.217l0.131,0.055l0.152,0.056   c0-0.089,0.014-0.212,0.029-0.211c0.016,0,0.029,0.138,0.03,0.233l0.513,0.192c0.002-0.096,0.016-0.221,0.031-0.22   c0.015,0,0.03,0.145,0.031,0.244l0.513,0.191c0.004-0.1,0.02-0.231,0.034-0.23c0.013,0,0.028,0.15,0.032,0.255l0.502,0.188   C-1.3-0.42-1.284-0.556-1.269-0.555s0.031,0.159,0.033,0.259l0.083,0.032l0.082,0.009c-0.143-0.208-0.227-0.46-0.227-0.732   c0-0.535,0.326-0.996,0.789-1.194c0.033-0.678,0.144-1.576,0.244-2.031l0,0l0.003-0.018C-0.284-4.248-1.455-5.133-1.52-5.201   c-0.066-0.068-0.15-0.205-0.157-0.508l0.03,0.011l1.544,0.517c0.025-0.181,0.041-0.308,0.043-0.322   c0.004-0.03,0.019-0.06,0.042-0.071c0.005-0.064,0.011-0.11,0.016-0.131c0.006,0.021,0.013,0.067,0.018,0.131   c0.023,0.011,0.037,0.04,0.044,0.071c0.002,0.015,0.017,0.141,0.042,0.322l1.544-0.517l0.031-0.01   C1.669-5.405,1.586-5.269,1.52-5.201C1.455-5.133,0.283-4.248,0.263-4.232l0.003,0.018l0,0c0.1,0.455,0.21,1.354,0.244,2.032   c0.463,0.198,0.788,0.658,0.788,1.193c0,0.271-0.084,0.524-0.227,0.732l0.082-0.009l0.083-0.032c0.002-0.1,0.019-0.257,0.034-0.259   C1.285-0.558,1.3-0.422,1.304-0.323L1.805-0.51c0.004-0.106,0.02-0.255,0.033-0.255c0.014-0.001,0.03,0.131,0.034,0.23l0.512-0.192   C2.387-0.826,2.4-0.971,2.416-0.971C2.43-0.972,2.444-0.847,2.447-0.75L2.96-0.942c0-0.097,0.013-0.233,0.029-0.234   s0.03,0.122,0.03,0.212L3.171-1.02l0.131-0.055c-0.001-0.096,0.01-0.217,0.026-0.217c0.016-0.001,0.023,0.099,0.023,0.195   L3.357-1.1v-0.001l0.309-0.142l1.351-0.623l0.006-0.016l0.044-0.012C5.068-1.895,5.074-1.71,5.062-1.685z" fill="#FFFFFF"/>
	</g></svg>