<?xml version="1.0" standalone="no"?>
<svg xmlns="http://www.w3.org/2000/svg" viewBox="-6.37 -6.37 12.74 12.74" color="#212121" width="75" height="75"><g transform="matrix(1 0 0 -1 0 0)">
		<g xmlns="http://www.w3.org/2000/svg">
			<circle class="primary" fill="currentColor" cx="0" cy="0" r="6.245"/>
			<path class="secondary" d="M0,6.12c3.38,0,6.12-2.74,6.12-6.12S3.38-6.12,0-6.12S-6.12-3.38-6.12,0S-3.38,6.12,0,6.12 M0,6.37    c-3.513,0-6.37-2.857-6.37-6.37S-3.513-6.37,0-6.37S6.37-3.513,6.37,0S3.513,6.37,0,6.37L0,6.37z" fill="#FFFFFF"/>
		</g>
		<path xmlns="http://www.w3.org/2000/svg" id="E-6_Mercury_1_" class="secondary" d="M4.305-3.681c-0.042-0.181-0.163-0.562-0.22-0.541C4.028-4.203,4.049-3.676,4.049-3.676   S1.13,0.344,0.677,0.071C0.593,0.02,0.609-1.2,0.551-1.769c0,0-0.237-1.333-0.23-1.418c0.008-0.085,0.931-1.534,0.932-1.582   c0.001-0.046,0.019-0.504-0.009-0.509C1.217-5.283,0.163-4.103,0.163-4.103L0.085-4.319c0,0,0.049-0.09,0.033-0.128   C0.101-4.486,0.021-4.479,0.021-4.479s0,0.003,0,0.009c-0.025-0.001-0.064,0.004-0.076,0.028c-0.019,0.038,0.025,0.13,0.025,0.13   L-0.117-4.1c0,0-0.991-1.224-1.021-1.223c-0.028,0.004-0.033,0.462-0.034,0.508C-1.173-4.768-0.323-3.276-0.32-3.191   c0.002,0.083-0.3,1.405-0.3,1.405c-0.087,0.565-0.132,1.783-0.219,1.83c-0.464,0.252-3.182-3.897-3.182-3.897   S-3.974-4.379-4.03-4.4s-0.195,0.353-0.246,0.531c-0.051,0.178-0.016,0.713,0.031,0.741C-4.199-3.099-4.1-3.397-4.1-3.397   l1.116,1.94c0,0-0.455,0.408-0.45,0.792c0.002,0.176,0.032,0.146,0.223,0.259c0.107,0.062,0.233,0.104,0.32,0.078   c0.045-0.013,0.105-0.419,0.117-0.546C-2.763-1.001-2.778-1.13-2.778-1.13l0.835,1.282c0,0-0.625,0.748-0.433,0.95   c0.077,0.082,0.155,0.102,0.304,0.174c0.094,0.046,0.19,0.036,0.251,0C-1.76,1.24-1.758,0.989-1.763,0.892   C-1.77,0.78-1.815,0.656-1.815,0.656s0.042-0.316,0.083-0.327c0.041-0.013,0.98,1.674,1.067,1.823s0.106,2.593,0.106,2.593   S-0.5,5.468-0.308,5.741C-0.284,5.774-0.259,5.8-0.232,5.818c0.037-0.017,0.07-0.048,0.101-0.089   c0.202-0.27,0.294-0.977,0.294-0.977s0.141-2.44,0.236-2.586C0.494,2.021,1.516,0.38,1.556,0.395   c0.041,0.014,0.067,0.332,0.067,0.332s-0.052,0.12-0.064,0.231c-0.01,0.098-0.02,0.348,0.039,0.388   c0.059,0.039,0.155,0.053,0.251,0.011C2,1.293,2.079,1.276,2.161,1.198c0.201-0.193-0.385-0.97-0.385-0.97l0.897-1.242   c0,0-0.022,0.129-0.016,0.256c0.005,0.128,0.045,0.536,0.09,0.551c0.085,0.03,0.212-0.006,0.324-0.063   c0.195-0.103,0.224-0.072,0.235-0.248C3.33-0.902,2.896-1.33,2.896-1.33l1.21-1.887c0,0,0.084,0.303,0.132,0.276   C4.285-2.966,4.347-3.5,4.305-3.681z" fill="#FFFFFF"/>
	</g></svg>