<?xml version="1.0" standalone="no"?>
<svg xmlns="http://www.w3.org/2000/svg" viewBox="-6.37 -6.37 12.74 12.74" color="#212121" width="75" height="75"><g transform="matrix(1 0 0 -1 0 0)">
		<g xmlns="http://www.w3.org/2000/svg">
			<circle class="primary" fill="currentColor" cx="0" cy="0" r="6.245"/>
			<path class="secondary" d="M0,6.12c3.38,0,6.12-2.74,6.12-6.12S3.38-6.12,0-6.12S-6.12-3.38-6.12,0S-3.38,6.12,0,6.12 M0,6.37    c-3.513,0-6.37-2.857-6.37-6.37S-3.513-6.37,0-6.37S6.37-3.513,6.37,0S3.513,6.37,0,6.37L0,6.37z" fill="#FFFFFF"/>
		</g>
		<path xmlns="http://www.w3.org/2000/svg" id="E-8_Joint_Stars_1_" class="secondary" d="M5.247-1.576c-0.06,0.127-1.194,1.055-1.194,1.055s0.182,1.086,0.061,1.157   c-0.121,0.071-0.393,0.106-0.45-0.051C3.608,0.427,3.631-0.151,3.631-0.151L2.256,0.903c0,0,0.182,1.071,0.061,1.18   C2.263,2.131,2.083,2.152,1.983,2.146C1.844,2.139,1.836,1.253,1.814,1.261C1.791,1.269,0.506,2.178,0.488,2.273   C0.469,2.367,0.637,5.789,0.003,5.816v0.001c-0.001,0-0.001,0-0.002,0S0,5.817,0,5.817c-0.001,0-0.001-0.001-0.002-0.001   c-0.633-0.027-0.465-3.45-0.484-3.543c-0.019-0.095-1.303-1.004-1.326-1.012s-0.03,0.877-0.17,0.885   c-0.1,0.005-0.279-0.015-0.333-0.063c-0.122-0.109,0.061-1.18,0.061-1.18l-1.375-1.055c0,0,0.022,0.579-0.034,0.736   c-0.056,0.158-0.329,0.122-0.449,0.051c-0.121-0.071,0.061-1.157,0.061-1.157S-5.184-1.45-5.244-1.577   C-5.332-1.762-5.372-2.212-5.2-2.198c0.15,0.012,1.525,0.864,2.72,1.369c1.003,0.426,1.952,0.467,1.98,0.274   c0.04-0.282,0.043-2.752,0.043-2.902c0-0.148-1.3-0.952-1.375-1.117S-1.855-5.022-1.847-5.14c0.007-0.119,1.405,0.398,1.571,0.415   C-0.11-4.71-0.209-5.833-0.004-5.817c0.002,0,0.003,0.003,0.004,0.004c0.001-0.001,0.002-0.004,0.004-0.004   C0.209-5.833,0.11-4.71,0.276-4.726C0.442-4.742,1.84-5.259,1.848-5.141S1.909-4.74,1.833-4.575   c-0.076,0.166-1.375,0.97-1.375,1.118c0,0.149,0.003,2.62,0.043,2.902C0.528-0.362,1.477-0.403,2.48-0.829   c1.195-0.506,2.57-1.357,2.722-1.368C5.375-2.211,5.335-1.761,5.247-1.576z" fill="#FFFFFF"/>
	</g></svg>