<?xml version="1.0" standalone="no"?>
<svg xmlns="http://www.w3.org/2000/svg" viewBox="-6.37 -6.37 12.74 12.74" color="#212121" width="75" height="75"><g transform="matrix(1 0 0 -1 0 0)">
		<g xmlns="http://www.w3.org/2000/svg">
			<circle class="primary" fill="currentColor" cx="0" cy="0" r="6.245"/>
			<path class="secondary" d="M0,6.12c3.38,0,6.12-2.74,6.12-6.12S3.38-6.12,0-6.12S-6.12-3.38-6.12,0S-3.38,6.12,0,6.12 M0,6.37    c-3.513,0-6.37-2.857-6.37-6.37S-3.513-6.37,0-6.37S6.37-3.513,6.37,0S3.513,6.37,0,6.37L0,6.37z" fill="#FFFFFF"/>
		</g>
		<path xmlns="http://www.w3.org/2000/svg" id="EA-18G_Growler_1_" class="secondary" d="M4.359-2.199c0-0.045-0.128-0.107-0.128-0.107S4.25-2.407,4.228-2.495   C4.206-2.585,4.1-2.659,4.1-2.659s-0.098-0.027-0.119,0c-0.023,0.025,0,0.142,0,0.142L0.884-2.659c0,0,0.261-0.761,0.279-0.818   c0.018-0.058,0-0.15,0-0.15S2.175-4.646,2.22-4.752c0.044-0.105,0.049-0.601,0-0.668C2.171-5.485,1.985-5.601,1.91-5.601   S0.565-4.823,0.565-4.823s-0.062-0.154-0.11-0.189c-0.049-0.036-0.272-0.043-0.336,0C0.055-4.97,0.022-4.861,0.022-4.813   c0,0.049,0,0.311,0,0.311L0-4.498l-0.021-0.005c0,0,0-0.262,0-0.311c0-0.048-0.034-0.156-0.098-0.198   c-0.063-0.043-0.288-0.036-0.335,0c-0.049,0.035-0.111,0.189-0.111,0.189S-1.834-5.601-1.91-5.601c-0.075,0-0.261,0.115-0.31,0.181   c-0.048,0.067-0.044,0.563,0,0.668c0.044,0.106,1.057,1.124,1.057,1.124s-0.017,0.093,0,0.15C-1.145-3.42-0.884-2.66-0.884-2.66   l-3.095,0.142c0,0,0.022-0.116,0-0.142c-0.022-0.027-0.119,0-0.119,0s-0.106,0.074-0.128,0.164   C-4.25-2.407-4.231-2.307-4.231-2.307S-4.359-2.245-4.359-2.2c0,0.044,0.11,0.123,0.11,0.123l0.014,0.831   c0,0-0.128,0.085-0.124,0.138C-4.355-1.054-4.231-1.01-4.231-1.01v0.287c0,0,0.035,0.199,0.23,0.199c0.031,0,0-0.465,0-0.465   s0.137-0.049,0.128-0.133C-3.881-1.204-3.94-1.245-3.94-1.245l1.08,0.61c0,0,0,0.903,0.123,0.903c0.125,0,0.103-0.93,0.103-0.93   l0.261,0.111c0,0,0.033,0.679,0.089,1.012h-0.067v0.062h0.08c0.017,0.074,0.034,0.122,0.053,0.12   c0.021-0.002,0.041-0.049,0.059-0.12h0.105V0.462h-0.091c0.059-0.286,0.1-0.812,0.1-0.812l0.275,0.141c0,0-0.018,0.887,0,1   c0.017,0.114,0.127,0.606,0.256,0.606c0.115-0.01,0.25-0.485,0.248-0.611c-0.003-0.126,0-0.716,0-0.716l0.105,0.044   c0,0,0.019,0.47,0.044,0.628s0.226,0.975,0.319,1.251c0.091,0.277,0.41,0.977,0.454,1.062c0.045,0.084,0.058,1.424,0.058,1.649   c0,0.208,0.121,0.994,0.265,1.102C-0.015,5.812-0.008,5.815,0,5.817c0.008-0.003,0.015-0.006,0.023-0.012   c0.144-0.107,0.264-0.894,0.264-1.102c0-0.226,0.012-1.565,0.058-1.649C0.389,2.97,0.707,2.27,0.8,1.992   c0.092-0.276,0.293-1.093,0.318-1.251s0.044-0.628,0.044-0.628l0.106-0.044c0,0,0.002,0.59,0,0.716   C1.267,0.911,1.401,1.387,1.516,1.396c0.128,0,0.239-0.492,0.257-0.606c0.018-0.113,0-1,0-1l0.274-0.141c0,0,0.041,0.526,0.1,0.812   H2.056v0.062h0.105c0.018,0.071,0.037,0.118,0.059,0.12c0.019,0.002,0.037-0.046,0.053-0.12h0.08V0.462H2.285   C2.342,0.129,2.374-0.55,2.374-0.55l0.262-0.111c0,0-0.022,0.93,0.102,0.93s0.124-0.903,0.124-0.903l1.079-0.61   c0,0-0.058,0.041-0.066,0.124c-0.01,0.083,0.126,0.132,0.126,0.132s-0.03,0.465,0,0.465c0.196,0,0.23-0.199,0.23-0.199V-1.01   c0,0,0.125-0.044,0.128-0.098C4.364-1.16,4.236-1.245,4.236-1.245L4.25-2.076C4.25-2.076,4.359-2.155,4.359-2.199z" fill="#FFFFFF"/>
	</g></svg>