<?xml version="1.0" standalone="no"?>
<svg xmlns="http://www.w3.org/2000/svg" viewBox="-6.37 -6.37 12.74 12.74" color="#212121" width="75" height="75"><g transform="matrix(1 0 0 -1 0 0)">
		<g xmlns="http://www.w3.org/2000/svg">
			<circle class="primary" fill="currentColor" cx="0" cy="0" r="6.245"/>
			<path class="secondary" d="M0,6.12c3.38,0,6.12-2.74,6.12-6.12S3.38-6.12,0-6.12S-6.12-3.38-6.12,0S-3.38,6.12,0,6.12 M0,6.37    c-3.513,0-6.37-2.857-6.37-6.37S-3.513-6.37,0-6.37S6.37-3.513,6.37,0S3.513,6.37,0,6.37L0,6.37z" fill="#FFFFFF"/>
		</g>
		<path xmlns="http://www.w3.org/2000/svg" id="EA-6B_Prowler_1_" class="secondary" d="M5.721-1.129c0,0.89-0.505,1.141-0.505,1.141L2.491,1.558c0,0.004,0,0.009,0,0.014   c0,0.244-0.027,0.442-0.06,0.442c-0.031,0-0.056-0.169-0.059-0.389L1.784,1.959c-0.001,0.238-0.027,0.43-0.06,0.43   c-0.029,0-0.053-0.156-0.059-0.362L1.467,2.14L0.769,3.294L0.721,4.038c0,0,0.012,0.313-0.229,0.313c0,0,0.042,0.931-0.492,1.465   v0.001c0,0,0,0,0-0.001c0,0.001,0,0.001,0,0.001V5.816c-0.535-0.534-0.492-1.465-0.492-1.465c-0.24,0-0.229-0.313-0.229-0.313   l-0.048-0.744L-1.466,2.14l-0.262-0.148c-0.003,0.224-0.028,0.397-0.06,0.397c-0.033,0-0.06-0.199-0.06-0.444   c0-0.008,0-0.014,0-0.021L-2.435,1.59c-0.001,0.236-0.028,0.424-0.06,0.424c-0.033,0-0.06-0.198-0.06-0.442   c0-0.018,0-0.033,0-0.049l-2.662-1.511c0,0-0.505-0.251-0.505-1.141c0,0-0.028-0.169,0.407-0.073l4.329,0.938V-0.48h0.084v-0.168   h0.36c0,0-0.18-1.117,0.18-2.849l-1.767-1.311L-2.151-5.36l1.923,0.421v-0.817c0,0,0.06-0.06,0.228-0.061l0,0l0,0l0,0l0,0   c0.167,0.001,0.228,0.061,0.228,0.061v0.817L2.151-5.36L2.127-4.808L0.36-3.497c0.36,1.731,0.18,2.849,0.18,2.849H0.9v0.168h0.084   v0.217l4.329-0.938C5.749-1.298,5.721-1.129,5.721-1.129z" fill="#FFFFFF"/>
	</g></svg>