<?xml version="1.0" standalone="no"?>
<svg xmlns="http://www.w3.org/2000/svg" viewBox="-6.37 -6.37 12.74 12.74" color="#212121" width="75" height="75"><g transform="matrix(1 0 0 -1 0 0)">
		<g xmlns="http://www.w3.org/2000/svg">
			<circle class="primary" fill="currentColor" cx="0" cy="0" r="6.245"/>
			<path class="secondary" d="M0,6.12c3.38,0,6.12-2.74,6.12-6.12S3.38-6.12,0-6.12S-6.12-3.38-6.12,0S-3.38,6.12,0,6.12 M0,6.37    c-3.513,0-6.37-2.857-6.37-6.37S-3.513-6.37,0-6.37S6.37-3.513,6.37,0S3.513,6.37,0,6.37L0,6.37z" fill="#FFFFFF"/>
		</g>
		<path xmlns="http://www.w3.org/2000/svg" id="EC-130J_Commando_Solo_1_" class="secondary" d="M5.727,0.863L4.653,0.889c0,0.005,0,0.01,0,0.015   c0,0.165-0.081,0.299-0.18,0.299c-0.1,0-0.181-0.134-0.181-0.299c0-0.002,0-0.003,0-0.006l-0.24,0.006   c-0.004,0.173-0.01,0.284-0.017,0.284s-0.014-0.11-0.018-0.284L3.769,0.911C3.763,1.204,3.731,1.459,3.684,1.622L4.117,1.67   L3.655,1.705C3.628,1.77,3.598,1.808,3.565,1.808c-0.034,0-0.065-0.04-0.093-0.108C3.313,1.688,3.069,1.67,3.048,1.67l0.4-0.04   C3.4,1.471,3.367,1.215,3.361,0.921L2.22,0.947C2.214,1.221,2.185,1.46,2.143,1.621l0.395,0.043L2.12,1.695   C2.089,1.78,2.054,1.831,2.016,1.831c-0.038,0-0.073-0.051-0.104-0.137c-0.157-0.012-0.423-0.03-0.445-0.03L1.89,1.623   C1.848,1.464,1.819,1.228,1.813,0.957L0.786,0.982c0,0.412-0.225,0.507-0.225,0.507l0.003,1.379H0.562   c0,0.359-0.242,0.73-0.3,0.813C0.223,3.937,0.118,4.118-0.004,4.118c-0.115,0-0.214-0.159-0.258-0.388   c-0.002-0.009-0.003-0.018-0.005-0.026c0-0.002,0-0.003,0-0.005H-0.27c-0.236-0.317-0.312-0.831-0.312-0.831l0.021-1.379   c0,0-0.225-0.095-0.225-0.507l-0.824-0.02C-1.618,1.21-1.645,1.429-1.683,1.579l0.394,0.043l-0.417,0.032   c-0.031,0.092-0.067,0.145-0.106,0.145s-0.076-0.054-0.107-0.146c-0.157-0.011-0.417-0.03-0.439-0.03l0.418-0.041   C-1.98,1.43-2.007,1.207-2.014,0.953l-1.119-0.026C-3.139,1.215-3.171,1.469-3.218,1.63l0.419,0.046L-3.246,1.71   c-0.028,0.067-0.059,0.105-0.092,0.105c-0.034,0-0.065-0.04-0.093-0.109c-0.158-0.012-0.416-0.03-0.438-0.03l0.413-0.04   c-0.048-0.163-0.081-0.423-0.086-0.72l-0.431-0.01c-0.004,0.162-0.01,0.265-0.017,0.265s-0.013-0.103-0.018-0.266l-0.121-0.003   c-0.009,0.15-0.086,0.269-0.18,0.269c-0.096,0-0.173-0.123-0.18-0.277l-1.238-0.03c0,0-0.212-0.177,0.012-0.801l1.284-0.182   c0.02-0.282,0.067-0.479,0.123-0.479c0.052,0,0.098,0.182,0.119,0.445l0.182-0.025c0.004-0.163,0.011-0.266,0.018-0.266   s0.013,0.101,0.017,0.261l1.771-0.25h1.368l0.212-0.283v-1.649l0.106-0.166v-0.13l-1.816-0.365v-0.401l1.875-0.295h0.095   l0.282-0.235C-0.065-4.053-0.03-4.118,0.01-4.118c0.044,0,0.081,0.075,0.093,0.18l0.258,0.215h0.095l1.875,0.295v0.401L0.515-2.662   v0.13l0.106,0.166v1.649l0.212,0.283h1.368l1.816,0.257c0.004-0.154,0.01-0.25,0.017-0.25s0.013,0.098,0.017,0.254L4.354-0.13   c0.021-0.26,0.067-0.437,0.119-0.437c0.054,0,0.101,0.192,0.122,0.47l1.12,0.159C5.939,0.687,5.727,0.863,5.727,0.863z" fill="#FFFFFF"/>
	</g></svg>