<?xml version="1.0" standalone="no"?>
<svg xmlns="http://www.w3.org/2000/svg" viewBox="-6.37 -6.37 12.74 12.74" color="#212121" width="75" height="75"><g transform="matrix(1 0 0 -1 0 0)">
		<g xmlns="http://www.w3.org/2000/svg">
			<circle class="primary" fill="currentColor" cx="0" cy="0" r="6.245"/>
			<path class="secondary" d="M0,6.12c3.38,0,6.12-2.74,6.12-6.12S3.38-6.12,0-6.12S-6.12-3.38-6.12,0S-3.38,6.12,0,6.12 M0,6.37    c-3.513,0-6.37-2.857-6.37-6.37S-3.513-6.37,0-6.37S6.37-3.513,6.37,0S3.513,6.37,0,6.37L0,6.37z" fill="#FFFFFF"/>
		</g>
		<path xmlns="http://www.w3.org/2000/svg" id="EP-3_Aries_2_1_" class="secondary" d="M5.399,0.872c-0.214-0.023-2.04-0.229-2.04-0.229S3.345,0.5,3.229,0.485   C3.115,0.471,3.101,0.599,3.101,0.599L1.822,0.341c0,0-0.061-0.199-0.144-0.21C1.595,0.12,1.576,0.255,1.576,0.255L0.788,0.131   c0,0-0.263-0.108-0.244-0.235c0.018-0.127-0.015-3.29-0.13-3.376s1.824-0.604,1.824-0.604S2.354-4.4,2.252-4.486   c-0.1-0.087-2.013-0.128-2.025-0.215C0.219-4.759,0.146-5.816,0-5.816c-0.146-0.002-0.22,1.057-0.229,1.115   c-0.013,0.087-1.925,0.128-2.025,0.215c-0.1,0.086,0.015,0.402,0.015,0.402S-0.3-3.566-0.415-3.48s-0.145,3.247-0.13,3.376   c0.015,0.129-0.244,0.235-0.244,0.235l-0.789,0.124c0,0-0.019-0.135-0.102-0.124c-0.083,0.011-0.144,0.21-0.144,0.21l-1.279,0.258   c0,0-0.014-0.128-0.129-0.113C-3.346,0.5-3.36,0.643-3.36,0.643S-5.186,0.849-5.4,0.872c-0.214,0.024-0.273,0.92,0,0.892   c0.331,0.043,1.939,0.114,1.939,0.114s0.043,1.106,0.216,1.092c0.172-0.014,0.288-1.006,0.288-1.006h1.091c0,0,0,1.121,0.187,1.121   S-1.42,1.964-1.42,1.964h0.804c0,0,0,2.271,0,2.529c0,0.259,0.144,1.25,0.546,1.321c0.025,0.005,0.114,0.005,0.139,0   c0.402-0.071,0.546-1.062,0.546-1.321s0-2.529,0-2.529H1.42c0,0,0.072,1.121,0.259,1.121s0.187-1.121,0.187-1.121h1.091   c0,0,0.115,0.992,0.288,1.006C3.417,2.984,3.46,1.878,3.46,1.878s1.609-0.071,1.939-0.114C5.672,1.792,5.614,0.896,5.399,0.872z" fill="#FFFFFF"/>
	</g></svg>