<?xml version="1.0" standalone="no"?>
<svg xmlns="http://www.w3.org/2000/svg" viewBox="-6.37 -6.37 12.74 12.74" color="#212121" width="75" height="75"><g transform="matrix(1 0 0 -1 0 0)">
		<g xmlns="http://www.w3.org/2000/svg">
			<circle class="primary" fill="currentColor" cx="0" cy="0" r="6.245"/>
			<path class="secondary" d="M0,6.12c3.38,0,6.12-2.74,6.12-6.12S3.38-6.12,0-6.12S-6.12-3.38-6.12,0S-3.38,6.12,0,6.12 M0,6.37    c-3.513,0-6.37-2.857-6.37-6.37S-3.513-6.37,0-6.37S6.37-3.513,6.37,0S3.513,6.37,0,6.37L0,6.37z" fill="#FFFFFF"/>
		</g>
		<g xmlns="http://www.w3.org/2000/svg" id="F-15E_Strike_Eagle_1_">
			<g>
				<path class="secondary" d="M0.003-4.467c-0.009,0-0.018,0-0.026,0C-0.009-4.512,0-4.561,0-4.613c0,0.016,0.002,0.029,0.003,0.044     C0.003-4.535,0.003-4.501,0.003-4.467z" fill="#FFFFFF"/>
				<path class="secondary" d="M3.809-2.337C3.77-2.154,3.352-1.825,3.218-1.68C2.696-1.148,2.174-0.57,1.651-0.039     c0.01,0.113,0.051,0.544-0.028,0.544c-0.011,0-0.022,0-0.034,0C1.538,0.192,1.554,0.192,1.556-0.121c-0.001,0-0.003,0-0.005,0     C1.416,0.192,1.281,0.216,1.146,0.35c0,0.322,0.032,0.708-0.023,1.005C1.101,1.47,1.079,1.602,1.056,1.718     C1.031,1.796,1.005,1.885,0.979,1.965C0.948,2.15,0.987,2.638,0.875,2.715C0.825,2.748,0.53,2.746,0.446,2.749     c-0.002,0.944-0.05,1.829-0.242,2.59c-0.04,0.177-0.08,0.354-0.12,0.53c-0.015,0.06-0.033,0.18-0.124,0.129     c-0.062-0.033-0.057-0.142-0.077-0.217C-0.153,5.614-0.192,5.447-0.23,5.28c-0.181-0.744-0.24-1.617-0.233-2.529     C-0.592,2.745-0.775,2.75-0.887,2.719c-0.126-0.179-0.06-0.487-0.105-0.751C-1.019,1.813-1.085,1.656-1.12,1.485     c-0.065-0.319-0.042-0.704-0.039-1.062c-0.136-0.134-0.273-0.271-0.41-0.405c0.002,0.137,0.024,0.328-0.047,0.396     c-0.006-0.003-0.013-0.004-0.02-0.005C-1.717,0.371-1.67,0.032-1.668-0.088C-2.19-0.62-2.712-1.152-3.235-1.685     C-3.391-1.87-3.661-2.048-3.788-2.249c-0.034-0.055-0.034-0.2-0.009-0.269c0.069-0.192,0.209-0.354,0.314-0.519     c0.043-0.07,0.086-0.142,0.128-0.211C-3.169-3.2-2.983-3.15-2.797-3.102c0.19,0.054,0.381,0.107,0.572,0.16     c0.36,0.005,0.721,0.011,1.081,0.015C-1.147-3.148-1.076-3.368-1.079-3.59c-0.083-0.096-0.173-0.192-0.173-0.289     c0,0.067,0,0.136,0,0.202C-1.565-3.79-1.53-3.904-1.631-4.017C-1.805-4.21-2.015-4.406-2.188-4.601     c-0.07-0.084-0.188-0.15-0.233-0.258C-2.503-5.052-2.312-5.287-2.24-5.424c0.03-0.058,0.052-0.158,0.11-0.188     c0.063-0.045,0.266,0.038,0.314,0.056c0.291,0.104,0.563,0.209,0.876,0.312c0-0.054,0-0.199,0-0.199s-0.011,0-0.01,0     c0.093,0.312,0.186,0.531,0.279,0.789c0.01-0.216,0.155-0.378,0.334-0.378C-0.15-5.032,0-4.861,0-4.637     c0,0.052-0.009,0.132-0.023,0.132c0.009,0,0.023,0,0.023,0s0-0.03,0-0.064c0-0.015-0.001-0.028-0.001-0.044     c0-0.225,0.151-0.408,0.336-0.408c0.174,0,0.317,0.161,0.334,0.367c0.089-0.247,0.27-0.494,0.27-0.741c0-0.004,0-0.007,0-0.01     c0,0.053,0.002,0.107,0.003,0.161c0.24-0.085,0.479-0.169,0.719-0.253c0.14-0.053,0.261-0.128,0.453-0.124     C2.203-5.54,2.235-5.41,2.299-5.305c0.044,0.079,0.088,0.157,0.133,0.236c0.016,0.037,0.023,0.116,0.009,0.165     c-0.048,0.171-0.211,0.276-0.314,0.4C1.883-4.228,1.639-3.951,1.394-3.676C1.393-3.742,1.391-3.811,1.39-3.878     C1.305-3.781,1.221-3.685,1.137-3.589C1.136-3.367,1.134-3.146,1.132-2.926C1.493-2.93,1.853-2.936,2.213-2.94     c0.375-0.102,0.749-0.205,1.124-0.307c0.127,0.2,0.254,0.4,0.381,0.603C3.762-2.578,3.835-2.461,3.809-2.337z" fill="#FFFFFF"/>
			</g>
		</g>
	</g></svg>