<?xml version="1.0" standalone="no"?>
<svg xmlns="http://www.w3.org/2000/svg" viewBox="-6.37 -6.37 12.74 12.74" color="#212121" width="75" height="75"><g transform="matrix(1 0 0 -1 0 0)">
		<g xmlns="http://www.w3.org/2000/svg">
			<circle class="primary" fill="currentColor" cx="0" cy="0" r="6.245"/>
			<path class="secondary" d="M0,6.12c3.38,0,6.12-2.74,6.12-6.12S3.38-6.12,0-6.12S-6.12-3.38-6.12,0S-3.38,6.12,0,6.12 M0,6.37    c-3.513,0-6.37-2.857-6.37-6.37S-3.513-6.37,0-6.37S6.37-3.513,6.37,0S3.513,6.37,0,6.37L0,6.37z" fill="#FFFFFF"/>
		</g>
		<path xmlns="http://www.w3.org/2000/svg" id="F-15_eagle_3_" class="secondary" d="M0.423,2.773c0.083-0.002,0.378,0.002,0.429-0.032c0.112-0.077,0.073-0.56,0.104-0.745   c0.026-0.08,0.051-0.16,0.077-0.239c0.022-0.115,0.045-0.229,0.066-0.345c0.056-0.297,0.024-0.647,0.024-0.97   c0.134-0.134,0.27-0.267,0.404-0.4c0.002,0,0.003,0,0.005,0C1.53,0.171,1.514,0.352,1.565,0.433c0.011,0,0.022,0,0.033,0   c0.08-0.04,0.039-0.384,0.029-0.497C2.15-0.595,2.672-1.125,3.194-1.656c0.134-0.145,0.551-0.475,0.59-0.657   c0.027-0.124-0.047-0.241-0.09-0.308C3.567-2.823,3.44-3.023,3.313-3.225c-0.375,0.103-0.75,0.206-1.125,0.309   c-0.36,0.004-0.721,0.009-1.081,0.014C1.11-3.123,1.112-3.344,1.113-3.565c0.084-0.096,0.168-0.192,0.252-0.289   C1.366-3.787,1.368-3.719,1.37-3.652C1.615-3.928,1.859-4.204,2.104-4.48c0.102-0.125,0.266-0.23,0.314-0.4   c0.014-0.049,0.006-0.127-0.01-0.166C2.364-5.124,2.319-5.202,2.275-5.28C2.211-5.386,2.178-5.517,2.089-5.598   C1.898-5.602,1.776-5.526,1.637-5.474c-0.24,0.085-0.48,0.169-0.719,0.254C0.917-5.274,0.915-5.328,0.913-5.381   c0,0.002,0,0.006,0,0.009C0.81-5.087,0.707-4.802,0.604-4.517c-0.002,0-0.003,0-0.005,0C0.597-4.53,0.595-4.544,0.594-4.558   c-0.205,0-0.41,0-0.615,0c0,0.038,0,0.076,0,0.114c-0.012,0-0.022,0-0.033,0C-0.056-4.481-0.057-4.52-0.059-4.558   c-0.2,0.001-0.4,0.003-0.6,0.004C-0.66-4.542-0.662-4.529-0.664-4.517c0-0.003,0-0.006,0-0.009   C-0.767-4.811-0.87-5.097-0.973-5.381c-0.002,0-0.003,0-0.005,0c0,0.054,0,0.107,0,0.161c-0.291-0.104-0.58-0.209-0.871-0.313   c-0.048-0.017-0.246-0.101-0.31-0.056C-2.217-5.559-2.243-5.457-2.273-5.4c-0.072,0.136-0.273,0.372-0.19,0.565   c0.045,0.106,0.145,0.173,0.214,0.258c0.173,0.194,0.346,0.389,0.519,0.584c0.102,0.113,0.203,0.227,0.304,0.34   c0-0.067,0-0.135,0-0.202c0.083,0.097,0.165,0.193,0.248,0.289c0.003,0.221,0.006,0.442,0.009,0.663   c-0.36-0.004-0.72-0.009-1.08-0.014c-0.19-0.053-0.381-0.106-0.572-0.16c-0.186-0.049-0.372-0.098-0.557-0.147   c-0.042,0.07-0.085,0.141-0.128,0.211C-3.612-2.847-3.75-2.686-3.82-2.493c-0.025,0.067-0.025,0.212,0.009,0.267   c0.126,0.201,0.396,0.379,0.552,0.565c0.522,0.532,1.044,1.064,1.567,1.596c-0.002,0.12-0.049,0.458,0.033,0.497   c0.006,0.002,0.013,0.003,0.02,0.004c0.071-0.068,0.049-0.26,0.047-0.395c0.137,0.135,0.273,0.27,0.41,0.404   c-0.004,0.358-0.027,0.743,0.038,1.062C-1.11,1.68-1.043,1.835-1.016,1.992c0.045,0.262-0.021,0.57,0.105,0.75   c0.112,0.032,0.295,0.026,0.424,0.032c-0.006,0.913,0.052,1.786,0.233,2.53c0.038,0.167,0.076,0.334,0.115,0.502   c0.019,0.073,0.015,0.183,0.076,0.216c0.091,0.05,0.109-0.07,0.124-0.129C0.1,5.716,0.14,5.54,0.18,5.364   C0.373,4.602,0.421,3.718,0.423,2.773z" fill="#FFFFFF"/>
	</g></svg>