<?xml version="1.0" standalone="no"?>
<svg xmlns="http://www.w3.org/2000/svg" viewBox="-6.37 -6.37 12.74 12.74" color="#212121" width="75" height="75"><g transform="matrix(1 0 0 -1 0 0)">
		<g xmlns="http://www.w3.org/2000/svg">
			<circle class="primary" fill="currentColor" cx="0" cy="0" r="6.245"/>
			<path class="secondary" d="M0,6.12c3.38,0,6.12-2.74,6.12-6.12S3.38-6.12,0-6.12S-6.12-3.38-6.12,0S-3.38,6.12,0,6.12 M0,6.37    c-3.513,0-6.37-2.857-6.37-6.37S-3.513-6.37,0-6.37S6.37-3.513,6.37,0S3.513,6.37,0,6.37L0,6.37z" fill="#FFFFFF"/>
		</g>
		<path xmlns="http://www.w3.org/2000/svg" id="F-16_Fighting_Falcon_1_" class="secondary" d="M3.482-2.629c0,0.438,0,0.884,0,1.175c0,0,0.093,0,0.125,0   c0.002,0,0.005,0.077,0.007,0.082C3.637-1.246,3.533-1.163,3.51-1.078C3.508-0.999,3.505-0.946,3.503-0.866   C3.5-0.859,3.499-0.873,3.496-0.873c-0.038,0-0.075,0-0.112,0c-0.002,0-0.005-0.114-0.007-0.193C3.341-1.155,3.2-1.193,3.2-1.325   C3.22-1.327,3.191-1.307,3.191-1.31c0-0.049,0-0.098,0-0.147c0-0.028,0.014-0.043-0.013-0.077C3.177-1.651,3.21-1.768,3.208-1.885   C2.897-1.626,2.604-1.366,2.294-1.106C2.241-1.062,2.287-0.952,2.226-0.911C2.193-0.93,2.186-0.949,2.174-0.987   C1.91-0.766,1.648-0.545,1.384-0.322C1.35-0.242,1.389-0.228,1.343-0.173C1.307-0.192,1.29-0.291,1.282-0.291   c-0.002,0-0.005,0-0.007,0c-0.072,0-0.145,0.15-0.217,0.209c-0.056,0.12-0.043,0.313-0.084,0.431   c-0.192,0.543-0.356,1.18-0.407,1.878C0.545,2.236,0.524,2.251,0.504,2.26C0.487,2.999,0.428,3.808,0.237,4.413   C0.193,4.554,0.095,4.646,0.055,4.765C0.048,5.127,0.041,5.527,0.034,5.817c-0.025,0-0.051,0-0.077,0   c-0.007-0.29-0.014-0.689-0.021-1.052c-0.023-0.034-0.047-0.052-0.07-0.087c-0.042-0.11-0.084-0.211-0.126-0.321   c-0.167-0.555-0.247-1.423-0.252-2.104c-0.017-0.007-0.033-0.013-0.049-0.02C-0.623,2.17-0.642,1.646-0.667,1.52   C-0.711,1.3-0.755,1.081-0.8,0.861c-0.065-0.18-0.13-0.359-0.196-0.539C-1.078,0.06-1.021-0.086-1.263-0.202   c-0.005-0.005-0.009-0.01-0.014-0.015c-0.017,0.033-0.031,0.052-0.056,0.076C-1.34-0.142-1.347-0.145-1.354-0.146   c-0.02-0.039-0.001-0.119-0.028-0.169C-1.639-0.527-1.896-0.74-2.153-0.952c-0.009-0.01-0.019-0.02-0.028-0.028   c-0.013,0.042-0.028,0.063-0.063,0.084C-2.301-0.947-2.257-1-2.293-1.079c-0.311-0.26-0.622-0.52-0.932-0.777   c-0.009-0.01-0.019-0.02-0.028-0.028c-0.005,0.119,0.059,0.238,0.054,0.357c-0.016,0.034-0.009,0.049-0.009,0.056   c0,0.055,0,0.018,0,0.018s-0.094,0-0.074,0c-0.002,0.29,0.074,0.338-0.217,0.432c0,0.076,0,0.149,0,0.149s0.103,0,0.098,0   c-0.02,0-0.063,0.061-0.091,0.048c-0.006-0.003-0.013,0.014-0.02,0.012C-3.514-0.898-3.517-1.043-3.52-1.13   c-0.032-0.095-0.1-0.034-0.098-0.324c0.032,0,0.119,0,0.119,0c0-0.291,0-0.732,0-1.167c0-0.032,0-0.065,0-0.099   c0-0.102,0-0.205,0-0.308c0-0.003,0-0.005,0.291-0.008c0,0.068,0,0.136,0,0.204c0.873,0.003,1.602,0.005,2.42,0.007   c0.002-0.35-0.045-0.701-0.043-1.052C-1.218-4.218-1.462-4.56-2.044-4.9c0-0.139,0-0.337,0-0.337c0.582,0,1.164,0,1.455,0v0.084   l0.291-0.101v-0.564h0.291l0,0l0,0l0,0h0.291v0.564l0.291,0.101v-0.084c0.291,0,0.911,0,1.395,0c0.002,0,0.004,0.23,0.007,0.365   c-0.39,0.344-0.78,0.666-1.17,1.01c0.002,0.353-0.032,0.695-0.03,1.047c0.818-0.002,1.544-0.014,2.417-0.017   c0-0.068,0-0.078,0-0.078c0.291,0,0.291,0,0.291,0s0,0.085,0,0.189C3.482-2.689,3.482-2.658,3.482-2.629z" fill="#FFFFFF"/>
	</g></svg>