<?xml version="1.0" standalone="no"?>
<svg xmlns="http://www.w3.org/2000/svg" viewBox="-6.37 -6.37 12.74 12.74" color="#212121" width="75" height="75"><g transform="matrix(1 0 0 -1 0 0)">
		<g xmlns="http://www.w3.org/2000/svg">
			<circle class="primary" fill="currentColor" cx="0" cy="0" r="6.245"/>
			<path class="secondary" d="M0,6.12c3.38,0,6.12-2.74,6.12-6.12S3.38-6.12,0-6.12S-6.12-3.38-6.12,0S-3.38,6.12,0,6.12 M0,6.37    c-3.513,0-6.37-2.857-6.37-6.37S-3.513-6.37,0-6.37S6.37-3.513,6.37,0S3.513,6.37,0,6.37L0,6.37z" fill="#FFFFFF"/>
		</g>
		<path xmlns="http://www.w3.org/2000/svg" id="F-22_Raptor_1_" class="secondary" d="M1.322,0.691L1.184,2.372L0.523,2.95C0.523,5.207,0,5.951,0,5.951   S-0.523,5.207-0.523,2.95l-0.661-0.578l-0.138-1.681l-2.864-2.588v-0.661l0.578-0.496l1.79-0.523V-3.77l-0.881-0.84v-0.757   l0.977-0.317l1.019,0.937l0.027,0.619L-0.4-4.375l0.275,0.261l0.028-0.62L0-4.872l0.096,0.138l0.028,0.62l0.275-0.261l0.276,0.247   l0.027-0.619l1.019-0.937l0.977,0.317v0.757L1.817-3.771v0.193l1.79,0.523l0.578,0.496v0.661L1.322,0.691z" fill="#FFFFFF"/>
	</g></svg>