<?xml version="1.0" standalone="no"?>
<svg xmlns="http://www.w3.org/2000/svg" viewBox="-6.37 -6.37 12.74 12.74" color="#212121" width="75" height="75"><g transform="matrix(1 0 0 -1 0 0)">
		<g xmlns="http://www.w3.org/2000/svg">
			<circle class="primary" fill="currentColor" cx="0" cy="0" r="6.245"/>
			<path class="secondary" d="M0,6.12c3.38,0,6.12-2.74,6.12-6.12S3.38-6.12,0-6.12S-6.12-3.38-6.12,0S-3.38,6.12,0,6.12 M0,6.37    c-3.513,0-6.37-2.857-6.37-6.37S-3.513-6.37,0-6.37S6.37-3.513,6.37,0S3.513,6.37,0,6.37L0,6.37z" fill="#FFFFFF"/>
		</g>
		<path xmlns="http://www.w3.org/2000/svg" id="F-35_Lighting_2_1_" class="secondary" d="M-1.321,0.636L-1.584,0.1L-4.07-1.456v-1.203l2.688-0.656l-0.242-0.476l-1.102-0.748   v-0.676l1.97-0.506l0.223,1.657l0.111-0.04l0.121-0.424l0.076-0.016l0.005,0.035l0.045-0.051l0.051,0.066l0.05-0.057l0.051,0.041   h0.071l0.035-0.046L0.128-4.5l0.061-0.056L0.25-4.482v-0.05l0.07,0.01l0.132,0.419l0.101,0.02L0.78-5.7l1.975,0.47v0.698   L1.66-3.791L1.407-3.306L4.07-2.664v1.183L1.62,0.11L1.346,0.65c0,0-0.015,1.471-0.111,1.94L1.129,2.822L0.8,2.51L0.624,2.919   c0,0-0.215,2.686-0.609,2.996c0,0-0.458-0.46-0.589-2.996L-0.756,2.5l-0.343,0.327l-0.116-0.252   C-1.215,2.575-1.316,1.575-1.321,0.636z" fill="#FFFFFF"/>
	</g></svg>