<?xml version="1.0" standalone="no"?>
<svg xmlns="http://www.w3.org/2000/svg" viewBox="-6.37 -6.37 12.74 12.74" color="#212121" width="75" height="75"><g transform="matrix(1 0 0 -1 0 0)">
		<g xmlns="http://www.w3.org/2000/svg">
			<circle class="primary" fill="currentColor" cx="0" cy="0" r="6.245"/>
			<path class="secondary" d="M0,6.12c3.38,0,6.12-2.74,6.12-6.12S3.38-6.12,0-6.12S-6.12-3.38-6.12,0S-3.38,6.12,0,6.12 M0,6.37    c-3.513,0-6.37-2.857-6.37-6.37S-3.513-6.37,0-6.37S6.37-3.513,6.37,0S3.513,6.37,0,6.37L0,6.37z" fill="#FFFFFF"/>
		</g>
		<path xmlns="http://www.w3.org/2000/svg" id="F-5F_N_Tiger2_1_" class="secondary" d="M3.473-2.2v1.604h0.079L3.436-0.365L3.434-0.383   C3.418-0.215,3.397-0.115,3.375-0.115c-0.019,0-0.036-0.072-0.051-0.196c-0.006,0.012-0.011,0.02-0.016,0.02   c-0.04,0-0.073-0.356-0.073-0.797c0-0.176,0.006-0.338,0.015-0.47L2.692-1.231v0.94c0,0.026-0.022,0.048-0.049,0.048   S2.594-0.264,2.594-0.291v-0.883L2.009-0.832v0.296c0,0.023-0.019,0.043-0.042,0.043c-0.024,0-0.043-0.02-0.043-0.043v-0.245   L1.216-0.366L1.079,0.399L0.825,0.882L0.821,1.089L0.474,1.375L0.427,1.276c-0.083,4.097-0.482,4.54-0.482,4.54l0.002,0.002   c0,0-0.391-0.451-0.391-4.549l-0.049,0.098l-0.342-0.293V0.866l-0.243-0.487L-1.2-0.39l-0.724-0.443v0.297   c0,0.023-0.02,0.043-0.043,0.043S-2.01-0.513-2.01-0.536v-0.349l-0.585-0.359v0.953c0,0.026-0.021,0.048-0.049,0.048   c-0.027,0-0.049-0.021-0.049-0.048v-1.014L-3.25-1.646v-0.14L-3.258-1.66c0.014,0.144,0.022,0.348,0.022,0.571   c0,0.44-0.032,0.797-0.073,0.797c-0.005,0-0.011-0.008-0.016-0.021C-3.34-0.189-3.357-0.117-3.377-0.117   c-0.021,0-0.042-0.1-0.058-0.268l-0.003,0.018l-0.115-0.231h0.079V-2.2L-3.59-2.304v-0.312h0.372v0.296l2.528-0.266   c0,0,0-0.671,0.098-1.243l-1.171-0.72v-0.415l1.281-0.134l0.109-0.72h0.384l0.024,0.055l0.05-0.001L0.11-5.819L0.496-5.81   l0.096,0.722l1.277,0.16L1.861-4.514L0.676-3.818c0.086,0.575,0.072,1.246,0.072,1.246l2.471,0.31l-0.003-0.03v-0.323h0.373v0.312   L3.473-2.2z" fill="#FFFFFF"/>
	</g></svg>