<?xml version="1.0" standalone="no"?>
<svg xmlns="http://www.w3.org/2000/svg" viewBox="-6.37 -6.37 12.74 12.74" color="#212121" width="75" height="75"><g transform="matrix(1 0 0 -1 0 0)">
		<g xmlns="http://www.w3.org/2000/svg" id="Circle_12_">
			<path class="primary" fill="currentColor" d="M-0.001-6.245c-3.443,0-6.244,2.802-6.244,6.246c0,3.443,2.801,6.244,6.244,6.244    c3.444,0,6.246-2.801,6.246-6.244C6.245-3.443,3.443-6.245-0.001-6.245z"/>
			<path class="secondary" d="M-0.001,6.12c3.381,0,6.121-2.74,6.121-6.119c0-3.381-2.74-6.121-6.121-6.121    c-3.379,0-6.119,2.74-6.119,6.121C-6.12,3.38-3.38,6.12-0.001,6.12 M-0.001,6.37c-3.512,0-6.369-2.857-6.369-6.369    c0-3.513,2.857-6.371,6.369-6.371c3.513,0,6.371,2.858,6.371,6.371C6.37,3.513,3.512,6.37-0.001,6.37L-0.001,6.37z" fill="#FFFFFF"/>
		</g>
		<path xmlns="http://www.w3.org/2000/svg" class="secondary" d="M-0.045-5.398h0.17v0.654h0.312L1.4-5.334v0.674L0.472-3.352v0.884h2.067v0.393L1.88-1.037l0.038,0.028v0.976   H1.734v-0.775L1.43-0.326l0,0v0.849H1.25v-0.567L0.407,1.281c0,0,0.182,3.034-0.346,3.055V4.86v0.538h-0.066V4.869   C-0.07,4.85-0.171,4.747-0.248,4.337C-0.51,4.311-0.504,3.604-0.51,1.216c-0.127-0.214-0.435-0.72-0.772-1.273v0.58h-0.222v-0.944   C-1.57-0.53-1.636-0.638-1.701-0.744v0.711h-0.195v-1.032c-0.358-0.586-0.642-1.049-0.642-1.049v-0.438h2.133v-0.799L-1.21-4.535   v-0.863l0.955,0.687h0.21C-0.045-4.711-0.045-5.398-0.045-5.398z" fill="#FFFFFF"/>
	</g></svg>