<?xml version="1.0" standalone="no"?>
<svg xmlns="http://www.w3.org/2000/svg" viewBox="-6.37 -6.37 12.74 12.74" color="#212121" width="75" height="75"><g transform="matrix(1 0 0 -1 0 0)">
		<g xmlns="http://www.w3.org/2000/svg">
			<circle class="primary" fill="currentColor" cx="0" cy="0" r="6.245"/>
			<path class="secondary" d="M0,6.12c3.38,0,6.12-2.74,6.12-6.12S3.38-6.12,0-6.12S-6.12-3.38-6.12,0S-3.38,6.12,0,6.12 M0,6.37    c-3.513,0-6.37-2.857-6.37-6.37S-3.513-6.37,0-6.37S6.37-3.513,6.37,0S3.513,6.37,0,6.37L0,6.37z" fill="#FFFFFF"/>
		</g>
		<path xmlns="http://www.w3.org/2000/svg" id="F_A-18_Hornet_3_" class="secondary" d="M0.31,4c0.029,0,0.059,0,0.088,0c0-0.004,0-0.006,0-0.009c-0.029,0-0.059,0-0.088,0   C0.309,3.944,0.309,3.89,0.318,3.848c0.012-0.054-0.003-0.111,0.008-0.16c-0.002-0.036-0.003-0.073-0.004-0.11   c0.003-0.01,0.02-0.02,0.025-0.028c0.021-0.03,0.039-0.064,0.058-0.094c0.057-0.093,0.085-0.204,0.114-0.32   c0.014-0.058,0.004-0.114,0.017-0.169c0.053-0.219,0.052-0.461,0.104-0.68C0.646,2.229,0.653,2.17,0.66,2.111   c0.05-0.192,0.102-0.364,0.151-0.554c0.015-0.122,0.03-0.245,0.046-0.368C0.86,1.143,0.862,1.097,0.865,1.051   C0.884,0.969,0.872,0.87,0.891,0.789c0-0.021,0-0.042,0-0.062c0.016-0.07,0-0.158,0.017-0.23c0-0.033,0-0.068,0-0.102   c0.007-0.146,0.015-0.29,0.021-0.435c0.462-0.193,0.925-0.387,1.387-0.58C2.315-0.592,2.315-0.545,2.328-0.527   C2.367-0.56,2.426-0.573,2.471-0.6c0.102-0.061,0.214-0.105,0.317-0.168c0.118-0.07,0.249-0.129,0.368-0.2   c0.031-0.02,0.064-0.026,0.096-0.045C3.381-1.09,3.521-1.166,3.658-1.231c0,0.021,0,0.044,0,0.066c0.021,0,0.044,0,0.066,0   C3.722-1.022,3.723-0.861,3.759-0.748c0.012,0.04,0.015,0.085,0.054,0.099c0.016,0.012,0.033,0.004,0.05-0.004   c0,0.079,0,0.158,0,0.237c0.022,0.014,0.025,0.03,0.062,0.032C3.93-0.387,3.937-0.39,3.942-0.392   c0.021-0.037,0.025-0.079,0.037-0.131c0-0.031,0-0.063,0-0.095C3.982-0.627,3.996-0.639,4-0.646   C4.032-0.699,4.047-0.769,4.112-0.79c0-0.001,0-0.003,0-0.004c-0.006,0-0.011,0-0.017,0C4.079-0.781,4.046-0.78,4.018-0.781   C4.017-1.18,4.021-1.589,4.021-1.98c0.025-0.008,0.122-0.072,0.125-0.099c0.008-0.013,0.005-0.135,0.005-0.172   c0-0.021,0-0.041,0-0.062C4.152-2.315,4.165-2.317,4.168-2.32C4.183-2.342,4.18-2.378,4.18-2.415   C4.135-2.438,3.972-2.423,3.904-2.423c0.001-0.026,0.003-0.053,0.004-0.078c-0.003,0-0.006,0-0.008,0   c-0.012-0.008-0.033-0.003-0.046,0c-0.02,0.026-0.033,0.041-0.033,0.09C3.812-2.41,3.804-2.409,3.796-2.407c0-0.01,0-0.021,0-0.032   C3.73-2.438,3.654-2.447,3.596-2.46C3.567-2.462,3.539-2.463,3.511-2.465c-0.063-0.014-0.139-0.015-0.2-0.027   C3.278-2.495,3.246-2.498,3.215-2.501C3.118-2.523,3.006-2.524,2.909-2.546C2.847-2.554,2.784-2.56,2.722-2.566   C2.484-2.62,2.219-2.615,1.981-2.669c-0.062-0.008-0.125-0.014-0.188-0.02c-0.188-0.043-0.397-0.04-0.585-0.082   C1.124-2.79,1.034-2.778,0.958-2.804C0.97-2.861,1.003-2.917,1.024-2.968c0.049-0.117,0.085-0.231,0.134-0.348   C1.183-3.374,1.219-3.44,1.237-3.5c0.006-0.168,0.012-0.336,0.017-0.504c0.033-0.022,0.053-0.056,0.08-0.082   c0.055-0.056,0.115-0.106,0.162-0.168C1.527-4.282,1.559-4.311,1.589-4.34c0.079-0.103,0.188-0.18,0.268-0.283   c0.023-0.021,0.047-0.044,0.07-0.065C1.963-4.724,2-4.763,2.031-4.803C2.062-4.831,2.094-4.86,2.124-4.89   c0.015-0.03,0.03-0.062,0.045-0.093c0.027-0.065,0.042-0.143,0.06-0.214C2.237-5.234,2.228-5.295,2.22-5.323   c-0.028-0.114-0.045-0.24-0.129-0.299C1.968-5.708,1.755-5.593,1.66-5.553c-0.249,0.106-0.495,0.212-0.749,0.32   c-0.071,0.03-0.146,0.058-0.222,0.09C0.654-5.128,0.616-5.104,0.577-5.095c0-0.002,0-0.004,0-0.007   C0.546-5.148,0.551-5.264,0.519-5.306C0.497-5.319,0.436-5.311,0.405-5.311c-0.096,0-0.191,0-0.287,0c0,0.003,0,0.006,0,0.009   C0.094-5.269,0.1-5.213,0.088-5.167C0.061-5.056,0.05-4.917,0.046-4.79c-0.009,0-0.02,0-0.028,0c0-0.132,0-0.263,0-0.394   c0.005-0.014,0.02-0.023,0.024-0.042c-0.023,0-0.048,0-0.071,0c0,0.004,0,0.006,0,0.009c0.023,0.024,0.017,0.08,0.017,0.127   c0,0.102,0,0.202,0,0.304c-0.007,0-0.014,0-0.021,0c0-0.003,0-0.006,0-0.009c0.015-0.022,0.002-0.123,0-0.151   c-0.01-0.131-0.061-0.243-0.08-0.359C-0.175-5.307-0.27-5.302-0.33-5.314c-0.061-0.013-0.137,0.007-0.191-0.005   c0,0.003,0,0.006,0,0.009c-0.021,0.031-0.03,0.117-0.043,0.155c-0.007,0.022-0.002,0.051-0.021,0.061   c-0.034-0.028-0.094-0.037-0.138-0.057c-0.112-0.047-0.229-0.089-0.343-0.14C-1.254-5.37-1.442-5.453-1.634-5.536   c-0.093-0.039-0.181-0.09-0.289-0.114c-0.191-0.045-0.246,0.137-0.284,0.249C-2.259-5.245-2.205-5.06-2.152-4.942   c0.044,0.099,0.147,0.149,0.209,0.229c0.104,0.136,0.251,0.237,0.355,0.373c0.026,0.034,0.064,0.059,0.092,0.095   c0.017,0.015,0.033,0.029,0.05,0.044c0.044,0.042,0.089,0.088,0.126,0.136c0.022,0.021,0.044,0.041,0.066,0.062   c0,0.04,0,0.079,0,0.118C-1.241-3.864-1.25-3.809-1.25-3.779c0.003,0.055,0.006,0.109,0.009,0.164c0,0.036,0,0.071,0,0.106   c0.018,0.054,0.05,0.112,0.071,0.163c0.05,0.121,0.086,0.238,0.138,0.357c0.025,0.058,0.059,0.12,0.075,0.185c0,0-0.002,0-0.004,0   c0,0,0,0.002,0,0.003c-0.08,0-0.202,0.021-0.275,0.038c-0.031,0.002-0.062,0.006-0.093,0.008C-1.427-2.732-1.54-2.732-1.638-2.71   c-0.063,0.007-0.126,0.015-0.188,0.021C-2.014-2.646-2.224-2.65-2.411-2.607C-2.474-2.601-2.537-2.594-2.6-2.587   c-0.146,0.033-0.313,0.032-0.46,0.065c-0.032,0.003-0.064,0.006-0.096,0.009c-0.087,0.02-0.188,0.021-0.276,0.04   c-0.04,0.003-0.08,0.006-0.121,0.008C-3.626-2.448-3.715-2.44-3.795-2.439c0,0.011,0,0.022,0,0.032c-0.003,0-0.006,0-0.008,0   C-3.809-2.41-3.811-2.41-3.82-2.411c0.001-0.03-0.007-0.047-0.013-0.069c-0.01-0.008-0.02-0.016-0.029-0.024   c-0.018,0-0.033,0.002-0.046,0.004c0,0.016,0,0.032,0,0.05c0.005,0.006,0.005,0.017,0.005,0.028c-0.09,0-0.179,0-0.268,0   C-4.183-2.401-4.181-2.36-4.18-2.328c0.033,0.03,0.03,0.216,0.033,0.267c0.013,0.007,0.123,0.077,0.125,0.082   c0,0.04,0,0.082,0,0.122C-4.01-1.839-4.017-1.795-4.017-1.77c0,0.069,0,0.14,0,0.209c0,0.261,0,0.521,0,0.781   c-0.032,0-0.078-0.018-0.096-0.008c0.003,0,0.006,0,0.009,0c0.01,0.015,0.035,0.019,0.045,0.033   c0.018,0.021,0.022,0.05,0.037,0.074c0.013,0.018,0.035,0.043,0.042,0.064c0,0.018,0,0.036,0,0.054   c0.015,0.061,0.003,0.149,0.059,0.168c0.006,0.004,0.015,0.004,0.025,0.004c0.009-0.008,0.029-0.015,0.033-0.024   c0-0.079,0-0.158,0-0.237c0.002,0,0.003,0,0.004,0c0.018,0.016,0.034,0.009,0.056,0.004c0.078-0.121,0.077-0.318,0.078-0.516   c0.023,0,0.046,0,0.067,0c0-0.022,0-0.045,0-0.066c0.001,0,0.003,0,0.004,0c0.037,0.032,0.091,0.044,0.134,0.07   c0.103,0.061,0.215,0.105,0.318,0.167c0.118,0.071,0.249,0.13,0.368,0.201c0.031,0.019,0.064,0.026,0.096,0.045   c0.132,0.078,0.273,0.155,0.413,0.221c0.001-0.023,0.001-0.076,0.014-0.093c0.027,0.022,0.072,0.028,0.108,0.044   C-2.13-0.543-2.055-0.513-1.977-0.48c0.228,0.097,0.462,0.198,0.689,0.294c0.086,0.038,0.172,0.071,0.255,0.107   c0.017,0.007,0.099,0.031,0.104,0.041c0.002,0.036,0.003,0.073,0.005,0.109c0,0.04,0,0.1,0.008,0.136c0,0.036,0,0.071,0,0.107   C-0.9,0.377-0.909,0.464-0.902,0.53c0,0.029,0,0.06,0,0.09C-0.89,0.675-0.903,0.742-0.89,0.8c0.015,0.173,0.03,0.344,0.046,0.517   c0.014,0.097,0.027,0.194,0.041,0.291c0.047,0.167,0.098,0.327,0.143,0.504c0.007,0.058,0.014,0.117,0.02,0.175   c0.054,0.219,0.052,0.461,0.104,0.68c0.009,0.072,0.018,0.145,0.025,0.218c0.026,0.094,0.057,0.192,0.104,0.271   c0.019,0.029,0.038,0.063,0.059,0.094c0.006,0.009,0.021,0.019,0.025,0.028c-0.001,0.037-0.003,0.074-0.004,0.11   c0.01,0.049-0.004,0.106,0.008,0.16c0.011,0.048,0.008,0.105,0.008,0.16c-0.026,0-0.053,0-0.078,0c0,0.003,0,0.005,0,0.008   c0.027,0,0.055,0,0.083,0c-0.001,0.075-0.003,0.161,0.013,0.229c0.006,0.025-0.001,0.062,0.004,0.082   C-0.276,4.38-0.291,4.438-0.28,4.486c0,0.027,0,0.056,0,0.082c0.017,0.073,0.001,0.165,0.018,0.238   c0,0.061,0.002,0.124,0.003,0.184c-0.007,0.031-0.022,0.086-0.013,0.127c0.006,0.025,0.012,0.049,0.018,0.074   c0.005,0.015,0.023,0.028,0.028,0.04c0,0.017,0,0.033,0,0.05C-0.212,5.34-0.218,5.412-0.204,5.47c0.01,0.047,0,0.089,0.012,0.132   c0.027,0.093,0.061,0.183,0.097,0.266c0.029,0.066,0.023,0.112,0.125,0.11c0-0.001,0-0.003,0-0.004   c0.045-0.017,0.049-0.065,0.067-0.106c0.036-0.083,0.069-0.173,0.096-0.266C0.207,5.55,0.197,5.498,0.209,5.445   C0.222,5.392,0.222,5.323,0.234,5.27C0.235,5.247,0.237,5.223,0.238,5.2C0.24,5.194,0.253,5.185,0.255,5.179   c0.014-0.025,0.022-0.057,0.029-0.086c0.023-0.091-0.044-0.166-0.02-0.271C0.279,4.548,0.294,4.273,0.31,4z" fill="#FFFFFF"/>
	</g></svg>