<?xml version="1.0" standalone="no"?>
<svg xmlns="http://www.w3.org/2000/svg" viewBox="-6.37 -6.37 12.74 12.74" color="#212121" width="75" height="75"><g transform="matrix(1 0 0 -1 0 0)">
		<g xmlns="http://www.w3.org/2000/svg">
			<circle class="primary" fill="currentColor" cx="0" cy="0" r="6.245"/>
			<path class="secondary" d="M0,6.12c3.38,0,6.12-2.74,6.12-6.12S3.38-6.12,0-6.12S-6.12-3.38-6.12,0S-3.38,6.12,0,6.12 M0,6.37    c-3.513,0-6.37-2.857-6.37-6.37S-3.513-6.37,0-6.37S6.37-3.513,6.37,0S3.513,6.37,0,6.37L0,6.37z" fill="#FFFFFF"/>
		</g>
		<path xmlns="http://www.w3.org/2000/svg" id="F_A-18E_F_Super_Hornet_1_" class="secondary" d="M3.772-3.928c-0.124-0.1-1.417,0.149-1.417,0.149l0.323-0.298   c0,0-0.087-0.367-0.173-0.447c-0.087-0.081-0.436,0.08-0.523,0s0.622-0.665,0.622-0.821c0-0.155-0.25-0.418-0.373-0.372   C2.107-5.673,0.458-4.959,0.458-5.071c0-0.111,0-0.746,0-0.746h-0.917c0,0,0,0.635,0,0.746c0,0.112-1.648-0.602-1.772-0.646   C-2.354-5.763-2.604-5.5-2.604-5.345s0.709,0.74,0.622,0.821c-0.087,0.08-0.436-0.081-0.522,0c-0.087,0.08-0.174,0.447-0.174,0.447   l0.323,0.298c0,0-1.293-0.249-1.417-0.149c-0.125,0.101-0.342,0.461-0.324,0.666c0.019,0.206,2.948,2.836,3.035,3.688   c0.082,0.799,0.686,4.684,1.008,5.317C-0.035,5.78-0.017,5.806,0,5.818C0.017,5.806,0.035,5.78,0.054,5.743   C0.375,5.109,0.98,1.225,1.061,0.426c0.087-0.852,3.017-3.481,3.035-3.688C4.116-3.467,3.897-3.827,3.772-3.928z" fill="#FFFFFF"/>
	</g></svg>