<?xml version="1.0" standalone="no"?>
<svg xmlns="http://www.w3.org/2000/svg" viewBox="-6.37 -6.37 12.74 12.74" color="#212121" width="75" height="75"><g transform="matrix(1 0 0 -1 0 0)">
		<g xmlns="http://www.w3.org/2000/svg" id="Circle_7_">
			<path class="primary" fill="currentColor" d="M-0.001-6.245c-3.443,0-6.244,2.802-6.244,6.246c0,3.443,2.801,6.244,6.244,6.244    c3.444,0,6.246-2.801,6.246-6.244C6.245-3.443,3.443-6.245-0.001-6.245z"/>
			<path class="secondary" d="M-0.001,6.12c3.381,0,6.121-2.74,6.121-6.119c0-3.381-2.74-6.121-6.121-6.121    c-3.379,0-6.119,2.74-6.119,6.121C-6.12,3.38-3.38,6.12-0.001,6.12 M-0.001,6.37c-3.512,0-6.369-2.857-6.369-6.369    c0-3.513,2.857-6.371,6.369-6.371c3.513,0,6.371,2.858,6.371,6.371C6.37,3.513,3.512,6.37-0.001,6.37L-0.001,6.37z" fill="#FFFFFF"/>
		</g>
		<path xmlns="http://www.w3.org/2000/svg" class="secondary" d="M0.652,1.554c0,0,0.246,3.844-0.653,3.844C-0.9,5.397-0.8,1.554-0.8,1.554L-5.254-1.35v-0.855l3.816,1.307   c0,0-0.116-1.395,0.494-1.48c-0.03-0.422,0-0.35,0-0.35l0.42-0.004l0.139-0.49L-2.207-4.54l0.015-0.74l2.031,0.84v-0.957h0.218   v0.957l2.075-0.84v0.783l-1.785,1.32v0.406h0.625v0.449c0,0,0.493-0.391,0.435,1.293c0.828-0.203,3.847-1.162,3.847-1.162v0.74   L0.652,1.554z" fill="#FFFFFF"/>
	</g></svg>