<?xml version="1.0" standalone="no"?>
<svg xmlns="http://www.w3.org/2000/svg" viewBox="-6.37 -6.37 12.74 12.74" color="#212121" width="75" height="75"><g transform="matrix(1 0 0 -1 0 0)">
		<g xmlns="http://www.w3.org/2000/svg" id="Circle_1_">
			<path class="primary" fill="currentColor" d="M-0.001-6.245c-3.443,0-6.244,2.802-6.244,6.246c0,3.443,2.801,6.244,6.244,6.244    c3.444,0,6.246-2.801,6.246-6.244C6.245-3.443,3.444-6.245-0.001-6.245z"/>
			<path class="secondary" d="M-0.001,6.12c3.381,0,6.121-2.74,6.121-6.119c0-3.381-2.74-6.121-6.121-6.121    c-3.379,0-6.119,2.74-6.119,6.121C-6.12,3.38-3.38,6.12-0.001,6.12 M-0.001,6.37c-3.512,0-6.369-2.857-6.369-6.369    c0-3.513,2.857-6.371,6.369-6.371c3.513,0,6.371,2.858,6.371,6.371C6.37,3.513,3.512,6.37-0.001,6.37L-0.001,6.37z" fill="#FFFFFF"/>
		</g>
		<path xmlns="http://www.w3.org/2000/svg" class="secondary" d="M0.671,0.956c0,0,0.261,4.512-0.702,4.512s-0.77-4.512-0.77-4.512l-1.358-0.89l-3.057-1.649v-0.663L-1.9-1.324   l1.148,0.032v-0.274h-0.55c0,0-0.065-1.487,0.193-1.698c0.34-0.097,0.405,0,0.405,0l0.129-0.113l0.032-0.242l-1.714-1.148v-0.7   l1.859,0.798c0,0,0.019-0.324,0.365-0.324s0.33,0.275,0.33,0.275l1.859-0.749v0.7L0.51-3.539c0,0,0.227,0.178,0.227,0.242   c0,0.064,0.598-0.566,0.484,1.697c-0.21-0.016-0.502,0-0.502,0v0.356l1.327-0.032l3.17-1.048V-1.6L1.949,0.066L0.671,0.956z" fill="#FFFFFF"/>
	</g></svg>