<?xml version="1.0" standalone="no"?>
<svg xmlns="http://www.w3.org/2000/svg" viewBox="-6.37 -6.37 12.74 12.74" color="#212121" width="75" height="75"><g transform="matrix(1 0 0 -1 0 0)">
		<g xmlns="http://www.w3.org/2000/svg" id="Circle_4_">
			<path class="primary" fill="currentColor" d="M-0.001-6.245c-3.443,0-6.244,2.802-6.244,6.246c0,3.443,2.801,6.244,6.244,6.244    c3.444,0,6.246-2.801,6.246-6.244C6.245-3.443,3.444-6.245-0.001-6.245z"/>
			<path class="secondary" d="M-0.001,6.12c3.381,0,6.121-2.74,6.121-6.119c0-3.381-2.74-6.121-6.121-6.121    c-3.379,0-6.119,2.74-6.119,6.121C-6.12,3.38-3.38,6.12-0.001,6.12 M-0.001,6.37c-3.512,0-6.369-2.857-6.369-6.369    c0-3.513,2.857-6.371,6.369-6.371c3.513,0,6.371,2.858,6.371,6.371C6.37,3.513,3.512,6.37-0.001,6.37L-0.001,6.37z" fill="#FFFFFF"/>
		</g>
		<path xmlns="http://www.w3.org/2000/svg" class="secondary" d="M-0.12-5.942h0.221v1.25h0.293l0.98-0.768v-0.188h0.195v1.522H1.374v-0.108L0.541-3.151v1.077h2.546v0.588   l-1.26,1.907c0.001,0.025,0.002,0.05,0.002,0.077c0,0.227-0.05,0.409-0.11,0.409c-0.039,0-0.072-0.074-0.092-0.185L0.516,2.406   c0,0,0.049,3.501-0.269,3.501s-0.783,0.636-0.832-3.501c-0.266-0.408-0.64-0.983-1.018-1.567C-1.62,0.881-1.641,0.907-1.664,0.907   c-0.053,0-0.097-0.143-0.108-0.33C-2.447-0.47-3.086-1.462-3.086-1.462v-0.751h2.525v-0.889l-0.832-1.271v0.248h-0.196v-1.522   h0.196v0.257l0.955,0.722h0.318C-0.12-4.668-0.12-5.942-0.12-5.942z" fill="#FFFFFF"/>
	</g></svg>