<?xml version="1.0" standalone="no"?>
<svg xmlns="http://www.w3.org/2000/svg" viewBox="-6.37 -6.37 12.74 12.74" color="#212121" width="75" height="75"><g transform="matrix(1 0 0 -1 0 0)">
		<g xmlns="http://www.w3.org/2000/svg" id="Circle_10_">
			<path class="primary" fill="currentColor" d="M-0.001-6.245c-3.443,0-6.244,2.802-6.244,6.246c0,3.443,2.801,6.244,6.244,6.244    c3.444,0,6.246-2.801,6.246-6.244C6.245-3.443,3.443-6.245-0.001-6.245z"/>
			<path class="secondary" d="M-0.001,6.12c3.381,0,6.121-2.74,6.121-6.119c0-3.381-2.74-6.121-6.121-6.121    c-3.379,0-6.119,2.74-6.119,6.121C-6.12,3.38-3.38,6.12-0.001,6.12 M-0.001,6.37c-3.512,0-6.369-2.857-6.369-6.369    c0-3.513,2.857-6.371,6.369-6.371c3.513,0,6.371,2.858,6.371,6.371C6.37,3.513,3.512,6.37-0.001,6.37L-0.001,6.37z" fill="#FFFFFF"/>
		</g>
		<path xmlns="http://www.w3.org/2000/svg" class="secondary" d="M0.399-3.858h1.936v0.511L0.613-2.751c0,0,0.189,2.318,0.158,2.588c0.945-0.011,4.536,0.406,4.536,0.406v0.911   L2,1.331c0.012,0.091,0.02,0.191,0.02,0.296c0,0.417-0.111,0.754-0.248,0.754S1.525,2.044,1.525,1.627   c0-0.097,0.006-0.188,0.017-0.271L0.669,1.402c0,0,0.258,2.892-0.692,2.892c-0.951,0-0.737-2.892-0.737-2.892L-1.567,1.36   C-1.556,1.442-1.55,1.533-1.55,1.627c0,0.417-0.111,0.754-0.248,0.754s-0.248-0.337-0.248-0.754c0-0.104,0.006-0.201,0.019-0.291   l-3.28-0.17V0.22c0,0,3.354-0.359,4.491-0.394c0-1.159,0.146-2.611,0.146-2.611l-1.688-0.562v-0.511h1.826   c0,0,0.087-0.435,0.509-0.435S0.399-3.858,0.399-3.858z" fill="#FFFFFF"/>
	</g></svg>