<?xml version="1.0" standalone="no"?>
<svg xmlns="http://www.w3.org/2000/svg" viewBox="-6.37 -6.37 12.74 12.74" color="#212121" width="75" height="75"><g transform="matrix(1 0 0 -1 0 0)">
		<g xmlns="http://www.w3.org/2000/svg">
			<path class="primary" fill="currentColor" d="M0.001-6.245c-3.444,0-6.246,2.802-6.246,6.245s2.802,6.245,6.246,6.245c3.443,0,6.244-2.802,6.244-6.245    S3.444-6.245,0.001-6.245z"/>
			<path class="secondary" d="M0.001,6.12C3.38,6.12,6.12,3.38,6.12,0S3.38-6.12,0.001-6.12C-3.38-6.12-6.12-3.38-6.12,0    S-3.38,6.12,0.001,6.12 M0.001,6.37C-3.512,6.37-6.37,3.513-6.37,0s2.858-6.37,6.371-6.37C3.513-6.37,6.37-3.513,6.37,0    S3.513,6.37,0.001,6.37L0.001,6.37z" fill="#FFFFFF"/>
		</g>
		<path xmlns="http://www.w3.org/2000/svg" id="Gulfstream_C-20_1_" class="secondary" d="M0.315-3.983l0.218,1.199c0.139,0.022,0.21,0.322,0.21,0.322l0.416-0.003   c0.263,1.129,0.107,1.961,0.107,1.961L5-1.41c0.005,0.67-0.178,0.902-0.178,0.902L0.593,2.11L0.61,4.419   C0.615,5.065,0.045,5.97,0.045,5.97H0.043C0.038,5.975,0.032,5.978,0.026,5.978c-0.009,0-0.015-0.006-0.02-0.013   c-0.044-0.071-0.573-0.922-0.573-1.541V2.115l-4.249-2.586c0,0-0.185-0.231-0.185-0.901l3.74,0.877c0,0-0.161-0.831,0.093-1.962   h0.416c0,0,0.069-0.3,0.207-0.324l0.208-1.201l-1.361-0.97c0,0-0.186-0.208-0.186-0.692l1.755,0.464l0.125-0.158h0.011L0.12-5.173   l1.73-0.484c0.003,0.485-0.18,0.694-0.18,0.694L0.315-3.983z" fill="#FFFFFF"/>
	</g></svg>