<?xml version="1.0" standalone="no"?>
<svg xmlns="http://www.w3.org/2000/svg" viewBox="-6.37 -6.37 12.74 12.74" color="#212121" width="75" height="75"><g transform="matrix(1 0 0 -1 0 0)">
		<g xmlns="http://www.w3.org/2000/svg">
			<path class="primary" fill="currentColor" d="M0.001-6.245c-3.444,0-6.246,2.802-6.246,6.245s2.802,6.245,6.246,6.245c3.443,0,6.244-2.802,6.244-6.245    S3.444-6.245,0.001-6.245z"/>
			<path class="secondary" d="M0.001,6.12C3.38,6.12,6.12,3.38,6.12,0S3.38-6.12,0.001-6.12C-3.38-6.12-6.12-3.38-6.12,0    S-3.38,6.12,0.001,6.12 M0.001,6.37C-3.512,6.37-6.37,3.513-6.37,0s2.858-6.37,6.371-6.37C3.513-6.37,6.37-3.513,6.37,0    S3.513,6.37,0.001,6.37L0.001,6.37z" fill="#FFFFFF"/>
		</g>
		<path xmlns="http://www.w3.org/2000/svg" id="Gulfstream_C-37_1_" class="secondary" d="M1.969-4.933l0.112-0.664L0.329-5.161L0.25-5.277L0.235-5.299   c-0.115-0.005-0.18-0.014-0.18-0.014L0.021-5.27L-0.06-5.166L-1.782-5.71l0.071,0.669l1.388,0.953c0,0-0.415,1.991-0.556,2.107   c-0.14,0.117-0.394,0.025-0.409,0.128c-0.011,0.076-0.245,1.668-0.245,1.668L-5.147-1.07l0.096,0.904l4.186,2.28   c0,0,0.15,3.809,0.608,3.812c0.016,0,0.07-0.006,0.085-0.005c0.457,0.026,0.847-3.765,0.847-3.765l4.323-2.012l0.151-0.896   L1.485-0.098c0,0-0.135-1.603-0.14-1.68C1.337-1.882,1.077-1.807,0.944-1.932C0.812-2.057,0.524-4.07,0.524-4.07L1.969-4.933z" fill="#FFFFFF"/>
	</g></svg>