<?xml version="1.0" standalone="no"?>
<svg xmlns="http://www.w3.org/2000/svg" viewBox="-6.37 -6.37 12.74 12.74" color="#212121" width="75" height="75"><g transform="matrix(1 0 0 -1 0 0)">
		<g xmlns="http://www.w3.org/2000/svg">
			<circle class="primary" fill="currentColor" cx="0" cy="0" r="6.245"/>
			<path class="secondary" d="M0,6.12c3.38,0,6.12-2.74,6.12-6.12S3.38-6.12,0-6.12S-6.12-3.38-6.12,0S-3.38,6.12,0,6.12 M0,6.37    c-3.513,0-6.37-2.857-6.37-6.37S-3.513-6.37,0-6.37S6.37-3.513,6.37,0S3.513,6.37,0,6.37L0,6.37z" fill="#FFFFFF"/>
		</g>
		<path xmlns="http://www.w3.org/2000/svg" id="HC-144_Ocean_Sentry_1_" class="secondary" d="M4.961-0.122C4.926-0.238,3.293-0.207,3.24-0.204   C3.187-0.201,3.146-0.263,3.146-0.263L1.004-0.122c0,0-0.418-0.116-0.398-0.878c0.021-0.762-0.105-2.75,0.082-3.02   c0.188-0.27,0.946-0.433,0.995-0.491C1.731-4.57,1.812-5.167,1.812-5.32c0-0.151-1.334-0.069-1.334-0.069s-0.117-0.156-0.27-0.287   C0.144-5.732,0.044-5.817,0-5.817c-0.045-0.001-0.144,0.085-0.208,0.141c-0.153,0.132-0.27,0.288-0.27,0.288   S-1.812-5.47-1.812-5.319c0,0.152,0.081,0.75,0.129,0.809c0.049,0.059,0.808,0.222,0.995,0.491C-0.502-3.75-0.628-1.762-0.607-1   c0.02,0.762-0.398,0.878-0.398,0.878l-2.142-0.141c0,0-0.041,0.062-0.093,0.059c-0.053-0.003-1.686-0.034-1.721,0.082   C-4.997-0.005-4.86,0.227-4.786,0.369c0.074,0.145,2.388,0.798,2.494,0.902c0.105,0.105,0.061,1.122,0.22,1.206h-0.431V2.5h0.458   c0.042,0.031,0.093,0.046,0.146,0h0.415V2.478h-0.391c0.021-0.025,0.048-0.056,0.062-0.105c0.099-0.337,0.094-0.854,0.094-0.854   h0.503c0,0,0.199,0.574,0.175,0.749C-1.064,2.443-0.863,4.089-0.808,4.58C-0.767,4.947-0.234,5.894,0,5.812   c0.234,0.08,0.766-0.865,0.807-1.234c0.055-0.49,0.256-2.137,0.233-2.312C1.016,2.092,1.215,1.518,1.215,1.518h0.503   c0,0-0.005,0.518,0.094,0.854c0.014,0.05,0.042,0.08,0.063,0.105H1.484V2.5h0.415c0.053,0.046,0.104,0.031,0.146,0h0.458V2.478   H2.072c0.159-0.084,0.115-1.101,0.22-1.206C2.397,1.168,4.711,0.514,4.785,0.37C4.859,0.227,4.996-0.005,4.961-0.122z" fill="#FFFFFF"/>
	</g></svg>