<?xml version="1.0" standalone="no"?>
<svg xmlns="http://www.w3.org/2000/svg" viewBox="-6.37 -6.37 12.74 12.74" color="#212121" width="75" height="75"><g transform="matrix(1 0 0 -1 0 0)">
		<g xmlns="http://www.w3.org/2000/svg">
			<circle class="primary" fill="currentColor" cx="0" cy="0" r="6.245"/>
			<path class="secondary" d="M0,6.12c3.38,0,6.12-2.74,6.12-6.12S3.38-6.12,0-6.12S-6.12-3.38-6.12,0S-3.38,6.12,0,6.12 M0,6.37    c-3.513,0-6.37-2.857-6.37-6.37S-3.513-6.37,0-6.37S6.37-3.513,6.37,0S3.513,6.37,0,6.37L0,6.37z" fill="#FFFFFF"/>
		</g>
		<g xmlns="http://www.w3.org/2000/svg" id="HC-130_Hercules_1_">
			<g>
				<polygon class="secondary" points="0.017,3.885 0.027,3.889 0.016,3.892    " fill="#FFFFFF"/>
				<path class="secondary" d="M1.693-0.478l0.43,0.079C2.151-0.669,2.184-0.86,2.219-0.86c0.037,0,0.071,0.221,0.099,0.504l3.371,0.462     c0.319,0.555-0.055,0.85-0.055,0.85H3.201C3.212,1.194,3.219,1.282,3.219,1.37c0,0.113-0.011,0.302-0.03,0.302h0.406     c0.019,0,0.035-0.019,0.035,0c0,0.02-0.016,0-0.035,0H3.171c-0.03,0.239-0.073,0.16-0.119,0.16c-0.047,0-0.089,0.079-0.119-0.16     H2.421c-0.019,0-0.035,0.02-0.035,0c0-0.019,0.016,0,0.035,0h0.494c-0.019,0-0.03-0.188-0.03-0.302     c0-0.088,0.006-0.176,0.018-0.414H2.386C2.381,1.193,2.309,1.601,2.219,1.601c-0.089,0-0.162-0.407-0.167-0.646H1.665     c0.011,0.238,0.018,0.326,0.018,0.414c0,0.113-0.011,0.302-0.03,0.302h0.45c0.019,0,0.035-0.019,0.035,0c0,0.02-0.016,0-0.035,0     H1.634c-0.03,0.239-0.072,0.16-0.119,0.16c-0.047,0-0.089,0.079-0.119-0.16H0.929c-0.02,0-0.035,0.02-0.035,0     c0-0.019,0.015,0,0.035,0h0.45c-0.019,0-0.03-0.188-0.03-0.302c0-0.088,0.006-0.176,0.018-0.414H0.955c0,0,0-0.01,0-0.001     c0,0.296-0.238,0.535-0.238,0.535l0,0v0.865c0,0.038,0,0.076,0,0.112v0.479c0,0-0.158,0.641-0.478,1.076     c0,0.004-0.007,0.008-0.007,0.011c0,0.085-0.073,0.153-0.157,0.153c-0.083,0-0.113-0.066-0.115-0.149     c-0.33-0.435-0.437-1.093-0.437-1.093V2.388h-0.077c-0.002,0,0.077-0.015,0.077-0.033V1.489c-0.239,0-0.239-0.239-0.239-0.535     c0-0.009,0,0.001,0,0.001h-0.523C-1.227,1.193-1.22,1.281-1.22,1.369c0,0.113-0.011,0.302-0.03,0.302h0.509     c0.019,0,0.035-0.019,0.035,0c0,0.02-0.016,0-0.035,0h-0.527c-0.03,0.239-0.073,0.16-0.119,0.16c-0.047,0-0.089,0.079-0.119-0.16     h-0.409c-0.02,0-0.035,0.02-0.035,0c0-0.019,0.016,0,0.035,0h0.391c-0.019,0-0.03-0.188-0.03-0.302     c0-0.088,0.007-0.176,0.019-0.414h-0.452c-0.005,0.238-0.077,0.646-0.167,0.646c-0.089,0-0.162-0.407-0.167-0.646h-0.411     c0.011,0.238,0.018,0.326,0.018,0.414c0,0.113-0.011,0.302-0.03,0.302h0.45c0.02,0,0.035-0.019,0.035,0c0,0.02-0.016,0-0.035,0     h-0.468c-0.03,0.239-0.072,0.16-0.119,0.16c-0.046,0-0.088,0.079-0.119-0.16h-0.468c-0.02,0-0.035,0.02-0.035,0     c0-0.019,0.016,0,0.035,0h0.45c-0.019,0-0.03-0.188-0.03-0.302c0-0.088,0.007-0.176,0.019-0.414h-2.657     c-0.291-0.478,0-0.819,0-0.819l3.433-0.463c0.027-0.292,0.062-0.519,0.099-0.519s0.07,0.187,0.097,0.465l0.547-0.097h1.035     v-2.259l-1.671-0.444v-0.472l2.072-0.359c0.025-0.08,0.101-0.175,0.175-0.175S0.267-4.09,0.29-4.009l2.101,0.356v0.472     L0.717-2.739v2.262L1.693-0.478L1.693-0.478z M0.017,3.885v0.007c0.003-0.001,0.006-0.003,0.01-0.003     C0.023,3.887,0.02,3.887,0.017,3.885z" fill="#FFFFFF"/>
			</g>
		</g>
	</g></svg>