<?xml version="1.0" standalone="no"?>
<svg xmlns="http://www.w3.org/2000/svg" viewBox="-6.37 -6.37 12.74 12.74" color="#212121" width="75" height="75"><g transform="matrix(1 0 0 -1 0 0)">
		<g xmlns="http://www.w3.org/2000/svg">
			<circle class="primary" fill="currentColor" cx="0" cy="0" r="6.245"/>
			<path class="secondary" d="M0,6.12c3.38,0,6.12-2.74,6.12-6.12S3.38-6.12,0-6.12S-6.12-3.38-6.12,0S-3.38,6.12,0,6.12 M0,6.37    c-3.513,0-6.37-2.857-6.37-6.37S-3.513-6.37,0-6.37S6.37-3.513,6.37,0S3.513,6.37,0,6.37L0,6.37z" fill="#FFFFFF"/>
		</g>
		<path xmlns="http://www.w3.org/2000/svg" class="secondary" d="M5.359-2.275c-0.125-0.023-3.766,1.285-3.88,1.24C1.366-1.081,1.315-2.056,1.315-2.056S1.194-2.527,1.081-2.55   c-0.114-0.022-0.25,0.274-0.25,0.274S0.816-2.607,0.717-2.664c-0.06-0.033-0.365,0-0.365,0l-0.09-0.409H0.103v-0.136   c0,0,2.014-1.434,2.06-1.491c0.045-0.057,0.125-0.637,0-0.728C2.037-5.519,0.103-4.45,0.103-4.45v-0.352L0-5.336v-0.001   c0-0.02,0-0.03,0-0.03l-0.102,0.535v0.352c0,0-1.935-1.069-2.06-0.978s-0.045,0.671,0,0.727c0.045,0.059,2.06,1.491,2.06,1.491   v0.136h-0.159l-0.091,0.41c0,0-0.306-0.033-0.364,0C-0.815-2.637-0.83-2.305-0.83-2.305s-0.136-0.296-0.25-0.273   c-0.113,0.022-0.233,0.492-0.233,0.492S-1.364-1.11-1.478-1.065s-3.755-1.264-3.88-1.24c-0.125,0.021-0.016,0.852,0,0.978   c0.015,0.126,4.756,3.141,4.756,3.141s-0.103,2.23,0,2.845c0.101,0.609,0.37,1.105,0.519,1.158v0.001   c0.001,0,0.002,0.001,0.004,0.001s0.002-0.001,0.004-0.001c0.151-0.052,0.578-0.52,0.679-1.129c0.103-0.613,0-2.846,0-2.846   s4.742-3.014,4.756-3.14C5.375-1.425,5.485-2.253,5.359-2.275z" fill="#FFFFFF"/>
	</g></svg>