<?xml version="1.0" standalone="no"?>
<svg xmlns="http://www.w3.org/2000/svg" viewBox="-8.578 -8.578 17.157 17.156" color="#212121" width="75" height="75"><g transform="matrix(1 0 0 -1 0 0)">
		<g xmlns="http://www.w3.org/2000/svg">
			<g>
				<path fill="currentColor" class="primary" d="M8.453,0.001c0-4.669-3.785-8.454-8.454-8.454c-4.67,0-8.453,3.785-8.453,8.454 c0,4.667,3.783,8.452,8.453,8.452C4.668,8.453,8.453,4.667,8.453,0.001z"/>
				<path class="secondary" d="M0-8.578C-4.73-8.578-8.578-4.73-8.578,0C-8.578,4.73-4.73,8.578,0,8.578C4.73,8.578,8.578,4.73,8.578,0 C8.578-4.73,4.73-8.578,0-8.578z M0,8.328c-4.592,0-8.328-3.736-8.328-8.328c0-4.592,3.736-8.329,8.328-8.329 S8.328-4.592,8.328,0C8.328,4.592,4.592,8.328,0,8.328z" fill="#FFFFFF"/>
			</g>
		</g>
		<path xmlns="http://www.w3.org/2000/svg" class="secondary" d="M6.906-0.452L3.123,1.625v1.173H3.066v0.099H2.675V2.793H2.624V1.875L1.978,2.233v0.702H1.926v0.118h-0.4 V2.947H1.47L1.462,2.48L0.628,2.947c0,0,0.017,1.093,0.017,2.052c0,0.959-0.533,1.819-0.646,1.819 c-0.113,0-0.643-0.859-0.643-1.819c0-0.959,0.017-2.052,0.017-2.052L-1.462,2.48L-1.47,2.947h-0.056v0.106h-0.4V2.935h-0.052V2.233 l-0.645-0.358v0.919h-0.052v0.104h-0.391V2.798h-0.057V1.625l-3.783-2.077c0,0-0.042-0.066-0.042-0.137c0-0.071,0-0.801,0-0.801 s0.028,0,0.193,0.052C-6.59-1.286-3.18-0.19-3.18-0.19l2.286,0.233c0,0,0.058-0.893,0.125-1.218C-0.703-1.5-0.686-1.65-0.686-1.65 s0-1.802,0.309-2.669c0,0-2.002-1.268-2.002-1.451c0-0.184,0-0.442,0-0.442s2.169,0.692,2.219,0.692c0.05,0,0.064,0,0.064,0 s0.062-0.495,0.095-0.495c0.033,0,0.098,0.495,0.098,0.495s0.014,0,0.064,0c0.05,0,2.219-0.692,2.219-0.692s0,0.259,0,0.442 c0,0.183-2.002,1.451-2.002,1.451C0.686-3.452,0.686-1.65,0.686-1.65S0.703-1.5,0.77-1.174c0.067,0.325,0.125,1.218,0.125,1.218 L3.18-0.19c0,0,3.41-1.096,3.575-1.148C6.92-1.39,6.948-1.39,6.948-1.39s0,0.73,0,0.801C6.948-0.518,6.906-0.452,6.906-0.452z" fill="#FFFFFF"/>
	</g></svg>