<?xml version="1.0" standalone="no"?>
<svg xmlns="http://www.w3.org/2000/svg" viewBox="-6.37 -6.37 12.74 12.74" color="#212121" width="75" height="75"><g transform="matrix(1 0 0 -1 0 0)">
		<g xmlns="http://www.w3.org/2000/svg">
			<circle class="primary" fill="currentColor" cx="0" cy="0" r="6.245"/>
			<path class="secondary" d="M0,6.12c3.38,0,6.12-2.74,6.12-6.12S3.38-6.12,0-6.12S-6.12-3.38-6.12,0S-3.38,6.12,0,6.12 M0,6.37    c-3.513,0-6.37-2.858-6.37-6.37S-3.513-6.37,0-6.37S6.37-3.513,6.37,0S3.513,6.37,0,6.37L0,6.37z" fill="#FFFFFF"/>
		</g>
		<g xmlns="http://www.w3.org/2000/svg" id="Jetliner_3_">
			<g>
				<path class="secondary" d="M5.776-0.929l-0.35,0.055L4.364-1.032l0.709,1.418l-0.462,0.1l-0.65-0.498     C3.259-0.549,3.313-0.737,2.552-0.556L1.618-0.333l0.209,0.129l0.258-0.083L1.948-0.16L2.22,0.007L2.192,0.1l0.039-0.021     l0.04,0.024L2.236,0.137l-0.188,0.11l-0.368-0.15L1.64,0.106l0.349,0.16l0.21-0.042L2.38,0.305l0.969,0.526l0.365,0.698     L3.562,1.565L2.939,0.905L1.264,0.409L0.818,0.275L0.024,0.041v0.001c0,0-4.307,0.95-4.318,0.952     C-4.81,1.066-5.081,1.019-5.521,0.778c-0.146-0.038-0.24-0.101-0.257-0.166V0.566c0.028-0.135,0.333-0.28,0.831-0.399     c0.162-0.04,0.326-0.07,0.479-0.093l2.359-0.526l0.312-0.157l-0.188,0.017l-0.002-0.003C-2.015-0.59-2.063-0.683-2.093-0.806     C-2.12-0.921-2.122-1.021-2.099-1.04c0.117-0.134,0.488-0.148,0.643-0.162l0.533-0.045c0-0.002,0-0.002,0-0.002     c0.035-0.008,0.082,0.072,0.106,0.178c0.025,0.105,0.021,0.199-0.011,0.207l0.003,0.033c0.179-0.059,0.38-0.116,0.595-0.167     c0.413-0.099,0.787-0.16,1.048-0.172c0.017,0,0.033-0.001,0.05-0.001l0.396-0.091l0.681-0.155c1.022-0.09,1.879-0.13,2.893-0.004     L4.851-1.36L4.604-1.225L5.776-0.929z" fill="#FFFFFF"/>
			</g>
		</g>
	</g></svg>