<?xml version="1.0" standalone="no"?>
<svg xmlns="http://www.w3.org/2000/svg" viewBox="-6.37 -6.37 12.74 12.74" color="#212121" width="75" height="75"><g transform="matrix(1 0 0 -1 0 0)">
		<g xmlns="http://www.w3.org/2000/svg">
			<circle class="primary" fill="currentColor" cx="0" cy="0" r="6.245"/>
			<path class="secondary" d="M0,6.12c3.38,0,6.12-2.74,6.12-6.12S3.38-6.12,0-6.12S-6.12-3.38-6.12,0S-3.38,6.12,0,6.12 M0,6.37    c-3.513,0-6.37-2.857-6.37-6.37S-3.513-6.37,0-6.37S6.37-3.513,6.37,0S3.513,6.37,0,6.37L0,6.37z" fill="#FFFFFF"/>
		</g>
		<path xmlns="http://www.w3.org/2000/svg" id="KC-10_Extender_1_" class="secondary" d="M4.961-2.683C4.918-2.77,2.13-1.447,1.839-1.406c-0.291,0.04-1.17,0.234-1.251,0.173   s-0.011-1.296-0.037-1.45c-0.025-0.153-0.186-0.763-0.149-0.88C0.439-3.68,2.118-4.765,2.187-4.876   c0.068-0.11,0.056-0.57-0.013-0.606C2.106-5.52,0.278-4.987,0.278-4.987s0.005-0.126-0.024-0.171   C0.246-5.169,0.136-5.173,0.136-5.173S0.099-5.511,0.089-5.532c-0.001-0.006-0.008-0.01-0.016-0.012   c-0.01-0.172-0.016-0.268-0.016-0.268S0.022-5.819,0-5.818c-0.022-0.001-0.056,0.007-0.056,0.007s-0.006,0.096-0.016,0.268   C-0.08-5.542-0.086-5.538-0.088-5.532c-0.009,0.021-0.047,0.359-0.047,0.359s-0.11,0.004-0.118,0.015   c-0.029,0.045-0.025,0.171-0.025,0.171S-2.105-5.52-2.173-5.482c-0.068,0.036-0.081,0.496-0.012,0.606   c0.068,0.111,1.747,1.196,1.784,1.313c0.037,0.117-0.123,0.727-0.149,0.88C-0.576-2.53-0.507-1.295-0.587-1.234   c-0.081,0.062-0.96-0.133-1.252-0.173c-0.29-0.041-3.079-1.363-3.122-1.276c-0.043,0.087-0.056,0.626,0,0.743   c0.056,0.118,3.036,2.113,3.073,2.205c0.037,0.094-0.065,0.213-0.099,0.261c-0.035,0.048-0.155,0.817,0,0.93   c0.155,0.111,0.446,0.067,0.52,0c0.075-0.069,0-0.93,0-0.93s0.676,0.39,0.818,0.595C-0.507,1.325-0.81,5.78-0.018,5.817   c0.006,0,0.012,0,0.018-0.002c0.006,0.002,0.012,0.002,0.018,0.002C0.811,5.78,0.508,1.325,0.65,1.121   c0.142-0.205,0.817-0.595,0.817-0.595s-0.074,0.86,0,0.93c0.074,0.067,0.365,0.111,0.521,0c0.155-0.112,0.018-0.871,0-0.93   C1.97,0.467,1.852,0.359,1.889,0.266c0.037-0.092,3.017-2.087,3.072-2.205C5.017-2.057,5.005-2.596,4.961-2.683z" fill="#FFFFFF"/>
	</g></svg>