<?xml version="1.0" standalone="no"?>
<svg xmlns="http://www.w3.org/2000/svg" viewBox="-6.37 -6.37 12.74 12.74" color="#212121" width="75" height="75"><g transform="matrix(1 0 0 -1 0 0)">
		<g xmlns="http://www.w3.org/2000/svg">
			<circle class="primary" fill="currentColor" cx="0" cy="0" r="6.245"/>
			<path class="secondary" d="M0,6.12c3.38,0,6.12-2.74,6.12-6.12S3.38-6.12,0-6.12S-6.12-3.38-6.12,0S-3.38,6.12,0,6.12 M0,6.37    c-3.513,0-6.37-2.857-6.37-6.37S-3.513-6.37,0-6.37S6.37-3.513,6.37,0S3.513,6.37,0,6.37L0,6.37z" fill="#FFFFFF"/>
		</g>
		<path xmlns="http://www.w3.org/2000/svg" id="KC-135_Stratotanker_1_" class="secondary" d="M4.851-0.224L3.08,0.75c0.066,0.165,0.047,0.422,0.047,0.422   c0.112,0,0.098,0.207,0.098,0.207c0.021,0.312-0.093,0.364-0.093,0.364H2.797c-0.134-0.175-0.098-0.38-0.098-0.38   c-0.01-0.145,0.098-0.201,0.098-0.201c-0.031-0.17,0-0.277,0-0.277H2.796L1.998,1.317c0.067,0.164,0.047,0.421,0.047,0.421   c0.112,0,0.098,0.206,0.098,0.206C2.163,2.258,2.05,2.31,2.05,2.31H1.716C1.581,2.134,1.617,1.93,1.617,1.93   c-0.01-0.145,0.099-0.202,0.099-0.202c-0.031-0.169,0-0.277,0-0.277L0.573,2.098v2.485c0,0.386-0.154,0.725-0.154,0.725   c-0.102,0.32-0.341,0.49-0.368,0.508v0.002c0,0,0-0.001-0.001-0.001H0.049V5.815C0.021,5.798-0.22,5.632-0.326,5.313   c0,0-0.16-0.337-0.166-0.722l-0.036-2.485l-1.152-0.63c0,0,0.032,0.108,0.004,0.277c0,0,0.108,0.056,0.102,0.2   c0,0,0.038,0.204-0.093,0.382L-2.001,2.34c0,0-0.114-0.05-0.099-0.364c0,0-0.019-0.205,0.095-0.207c0,0-0.024-0.257,0.04-0.423   l-0.804-0.42H-2.77c0,0,0.032,0.107,0.004,0.277c0,0,0.108,0.056,0.101,0.2c0,0,0.039,0.204-0.093,0.382l-0.334,0.004   c0,0-0.114-0.049-0.098-0.362c0,0-0.019-0.206,0.095-0.208c0,0-0.024-0.257,0.04-0.423l-1.784-0.947c0,0-0.39-0.383-0.385-0.779   c0,0-0.002-0.134,0.241-0.055l3.079,0.874l0.531,0.117L-0.806,0.1c0,0,0.077-0.006,0.118-0.043c0,0-0.009-0.597,0.171-0.98   c0,0-0.1-1.794,0.182-3.649l-1.38-0.823c0,0-0.075-0.18-0.045-0.251c0,0,0.003-0.078,0.143-0.054l1.419,0.293l0.163-0.409   L0.131-5.41l1.414-0.315C1.685-5.75,1.69-5.673,1.69-5.673C1.721-5.601,1.649-5.42,1.649-5.42L0.28-4.578   c0.309,1.852,0.237,3.647,0.237,3.647c0.185,0.38,0.185,0.977,0.185,0.977C0.743,0.082,0.82,0.088,0.82,0.088l0.566-0.104   l0.528-0.123L4.981-1.06c0.242-0.082,0.242,0.051,0.242,0.051C5.233-0.612,4.851-0.224,4.851-0.224z" fill="#FFFFFF"/>
	</g></svg>