<?xml version="1.0" standalone="no"?>
<svg xmlns="http://www.w3.org/2000/svg" viewBox="-6.37 -6.37 12.74 12.74" color="#212121" width="75" height="75"><g transform="matrix(1 0 0 -1 0 0)">
		<g xmlns="http://www.w3.org/2000/svg">
			<circle class="primary" fill="currentColor" cx="0" cy="0" r="6.245"/>
			<path class="secondary" d="M0,6.12c3.38,0,6.12-2.74,6.12-6.12S3.38-6.12,0-6.12S-6.12-3.38-6.12,0S-3.38,6.12,0,6.12 M0,6.37    c-3.513,0-6.37-2.857-6.37-6.37S-3.513-6.37,0-6.37S6.37-3.513,6.37,0S3.513,6.37,0,6.37L0,6.37z" fill="#FFFFFF"/>
		</g>
		<path xmlns="http://www.w3.org/2000/svg" id="KC-130_1_" class="secondary" d="M2.052-0.528L0.635-0.51L0.522-3.24c0,0,1.752-0.498,1.815-0.609   c0.064-0.11-0.015-0.618-0.112-0.627C2.13-4.486,0.108-4.68,0.108-4.68s0-0.313-0.096-0.344C0.011-5.037,0.006-5.045,0.004-5.045   c-0.111,0-0.111,0.346-0.111,0.346s-2.021,0.194-2.117,0.204c-0.098,0.009-0.177,0.517-0.112,0.627   c0.063,0.111,1.815,0.609,1.815,0.609l-0.112,2.73L-2.05-0.547c0,0,0.04-0.479-0.048-0.479c-0.089,0-0.127,0.516-0.127,0.516   s-3.44,0.573-3.488,0.649C-5.76,0.217-5.864,0.791-5.792,0.875c0.072,0.082,2.723,0.258,2.723,0.258s0.008,0.458,0.068,0.747   h-0.522v0.019h0.527c0.028,0.122,0.065,0.209,0.117,0.213c0.054,0.003,0.096-0.087,0.127-0.213h0.424V1.88h-0.419   c0.07-0.288,0.091-0.747,0.091-0.747h0.271c0,0,0.081,0.499,0.192,0.499c0.111,0,0.144-0.499,0.144-0.499h0.43   c0,0,0.033,0.498,0.106,0.777h-0.505v0.01h0.507c0.028,0.101,0.061,0.17,0.099,0.173c0.04,0.003,0.071-0.068,0.1-0.173h0.545V1.91   h-0.542c0.071-0.279,0.104-0.777,0.104-0.777s0.446-0.083,0.51,0C-0.634,1.216-0.554,1.548-0.57,1.76   c-0.015,0.213-0.046,0.969,0,1.625c0.048,0.632,0.36,1.6,0.555,1.641c0.004,0.013,0.008,0.019,0.013,0.02   c0.191,0.028,0.525-0.987,0.574-1.643c0.046-0.654,0.015-1.411,0-1.623C0.555,1.567,0.635,1.234,0.697,1.15   c0.064-0.082,0.51,0,0.51,0S1.24,1.648,1.312,1.928H0.77V1.94h0.545c0.027,0.104,0.061,0.174,0.1,0.172   C1.453,2.11,1.486,2.04,1.514,1.94H2.02V1.928H1.516C1.588,1.648,1.622,1.15,1.622,1.15h0.43c0,0,0.032,0.499,0.143,0.499   S2.386,1.15,2.386,1.15h0.271c0,0,0.022,0.459,0.092,0.748H2.33v0.019h0.423C2.784,2.043,2.827,2.132,2.88,2.129   c0.051-0.002,0.089-0.09,0.117-0.212h0.527V1.898H3.001C3.062,1.609,3.07,1.15,3.07,1.15s2.651-0.175,2.724-0.257   c0.071-0.083-0.032-0.658-0.08-0.735S2.226-0.491,2.226-0.491S2.187-1.008,2.1-1.008C2.012-1.008,2.052-0.528,2.052-0.528z" fill="#FFFFFF"/>
	</g></svg>