<?xml version="1.0" standalone="no"?>
<svg xmlns="http://www.w3.org/2000/svg" viewBox="-6.37 -6.37 12.74 12.74" color="#212121" width="75" height="75"><g transform="matrix(1 0 0 -1 0 0)">
		<g xmlns="http://www.w3.org/2000/svg" id="Circle_3_">
			<path class="primary" fill="currentColor" d="M-0.001-6.245c-3.443,0-6.244,2.802-6.244,6.246c0,3.443,2.801,6.244,6.244,6.244    c3.444,0,6.246-2.801,6.246-6.244C6.245-3.443,3.444-6.245-0.001-6.245z"/>
			<path class="secondary" d="M-0.001,6.12c3.381,0,6.121-2.74,6.121-6.119c0-3.381-2.74-6.121-6.121-6.121    c-3.379,0-6.119,2.74-6.119,6.121C-6.12,3.38-3.38,6.12-0.001,6.12 M-0.001,6.37c-3.512,0-6.369-2.857-6.369-6.369    c0-3.513,2.857-6.371,6.369-6.371c3.513,0,6.371,2.858,6.371,6.371C6.37,3.513,3.512,6.37-0.001,6.37L-0.001,6.37z" fill="#FFFFFF"/>
		</g>
		<path xmlns="http://www.w3.org/2000/svg" class="secondary" d="M-0.064-5.517v0.222h0.361l1.552,0.23v0.693L0.436-3.854l0.184,1.94l3.152,0.735   c0.03-0.192,0.068-0.31,0.11-0.31c0.092,0,0.167,0.555,0.167,1.238c0,0.684-0.075,1.238-0.167,1.238   c-0.077,0-0.143-0.396-0.161-0.931L3.143,0.123V1.1H3.031V0.136l-2.56,0.29L0.436,0.573c0,0,0.11,4.944-0.463,4.944   c-0.572,0-0.638-4.344-0.638-4.99c0-0.056-0.046-0.065-0.046-0.065l-2.468-0.248V1.1H-3.29V0.203l-0.684-0.055L-4.047-1.22   l3.326-0.629L-0.637-3.9L-1.94-4.353v-0.712l1.747-0.23h0.019v-0.222H-0.064z" fill="#FFFFFF"/>
	</g></svg>