<?xml version="1.0" standalone="no"?>
<svg xmlns="http://www.w3.org/2000/svg" viewBox="-6.37 -6.37 12.74 12.74" color="#212121" width="75" height="75"><g transform="matrix(1 0 0 -1 0 0)">
		<g xmlns="http://www.w3.org/2000/svg">
			<path class="primary" fill="currentColor" d="M0.001-6.245c-3.444,0-6.246,2.802-6.246,6.245s2.802,6.245,6.246,6.245c3.443,0,6.244-2.802,6.244-6.245    S3.444-6.245,0.001-6.245z"/>
			<path class="secondary" d="M0.001,6.12C3.38,6.12,6.12,3.38,6.12,0S3.38-6.12,0.001-6.12C-3.38-6.12-6.12-3.38-6.12,0    S-3.38,6.12,0.001,6.12 M0.001,6.37C-3.512,6.37-6.37,3.513-6.37,0s2.858-6.37,6.371-6.37C3.513-6.37,6.37-3.513,6.37,0    S3.513,6.37,0.001,6.37L0.001,6.37z" fill="#FFFFFF"/>
		</g>
		<path xmlns="http://www.w3.org/2000/svg" class="secondary" d="M-0.589,2.991c0,0-0.053,0.83,0.045,0.979c0.036,0.004,0.083,0,0.083,0s0.095,0.658,0.415,1.023   c0.005,0.076,0,0.138,0,0.138H0.08V5.026c0,0,0.332-0.393,0.448-1.027c0.061,0,0.061,0,0.061,0s0.116-0.438,0.033-1.006h0.152   c0,0-0.092-0.457,0.265-0.573c0.357-0.115,3.108-0.438,3.108-0.438v0.846h0.067V1.981c0,0,1.218-0.117,1.334-0.24   C5.664,1.617,6.095,0.986,4.91,0.554l-4.12-1.01c0,0-0.307-0.266-0.34-0.473L0.186-3.092c0,0,1.575-0.813,1.625-0.845   C1.861-3.97,2.159-4.75,0.286-4.7C0.087-4.519-0.013-4.269-0.013-4.269l-0.033-0.862h-0.122L-0.195-4.26   c0,0-0.124-0.368-0.219-0.464c-0.094-0.094-1.849,0.035-1.721,0.73L-0.34-3.07l-0.188,2.116c0,0-0.039,0.343-0.464,0.519   L-5.103,0.72c0,0-1.248,0.588-0.199,1.205C-4.373,2.103-1.08,2.413-1.08,2.413s0.354,0.054,0.332,0.551   C-0.56,2.931-0.589,2.991-0.589,2.991z" fill="#FFFFFF"/>
	</g></svg>