<?xml version="1.0" standalone="no"?>
<svg xmlns="http://www.w3.org/2000/svg" viewBox="-6.37 -6.37 12.74 12.74" color="#212121" width="75" height="75"><g transform="matrix(1 0 0 -1 0 0)">
		<g xmlns="http://www.w3.org/2000/svg">
			<path class="primary" fill="currentColor" d="M-0.001-6.245c-3.443,0-6.244,2.801-6.244,6.244c0,3.444,2.801,6.246,6.244,6.246    c3.444,0,6.246-2.802,6.246-6.246C6.245-3.444,3.443-6.245-0.001-6.245z"/>
			<path class="secondary" d="M-0.001,6.12c3.381,0,6.121-2.74,6.121-6.121c0-3.379-2.74-6.119-6.121-6.119    c-3.379,0-6.119,2.74-6.119,6.119C-6.12,3.38-3.38,6.12-0.001,6.12 M-0.001,6.37c-3.512,0-6.369-2.858-6.369-6.371    c0-3.512,2.857-6.369,6.369-6.369c3.513,0,6.371,2.857,6.371,6.369C6.37,3.512,3.512,6.37-0.001,6.37L-0.001,6.37z" fill="#FFFFFF"/>
		</g>
		<g xmlns="http://www.w3.org/2000/svg">
			<g>
				<path class="secondary" d="M-0.388,4.327c0,0,0.089,0.447,0.339,0.555c0.271-0.143,0.363-0.555,0.363-0.555l0.244-0.084     c0,0,0.184-0.271,0.173-1.506c0,0,0.622-0.201,1.406-0.232L5.438,2.22c0,0,0.051-0.104,0-0.246     C5.462,1.796,5.52,1.771,5.52,1.628c0,0-0.062-0.51-0.255-0.633C5.072,0.874,0.956,0.06,0.956,0.06S0.507-0.155,0.558-0.491     L0.324-3.048l1.824-0.459c0,0,0.285-0.25,0.041-0.656c-0.53-0.211-1.875-0.465-1.875-0.465L0.192-4.271L0.1-4.882l-0.153,0.641     l-0.102-0.387L-2.03-4.271c0,0-0.214,0.266,0,0.682c0.509,0.164,1.864,0.561,1.864,0.561L-0.492-0.51c0,0,0.02,0.428-0.652,0.611     L-5.29,0.843c0,0-0.492,0.918-0.041,1.264c0,0,4.269,0.336,4.543,0.602c0,0,0,1.293,0.143,1.535     C-0.511,4.276-0.388,4.327-0.388,4.327z" fill="#FFFFFF"/>
			</g>
			<g>
				<rect x="3.867" y="2.353" class="secondary" width="0.046" height="0.734" fill="#FFFFFF"/>
			</g>
			<g>
				<polygon class="secondary" points="-1.854,-3.553 -1.891,-3.526 -0.391,-1.415 -0.354,-1.442    " fill="#FFFFFF"/>
			</g>
			<g>
				<polygon class="secondary" points="1.94,-3.45 0.44,-1.338 0.477,-1.311 1.977,-3.422    " fill="#FFFFFF"/>
			</g>
		</g>
	</g></svg>