<?xml version="1.0" standalone="no"?>
<svg xmlns="http://www.w3.org/2000/svg" viewBox="-6.37 -6.37 12.74 12.74" color="#212121" width="75" height="75"><g transform="matrix(1 0 0 -1 0 0)">
		<g xmlns="http://www.w3.org/2000/svg">
			<path class="primary" fill="currentColor" d="M-0.001-6.245c-3.443,0-6.244,2.802-6.244,6.245s2.801,6.245,6.244,6.245c3.444,0,6.246-2.802,6.246-6.245    S3.443-6.245-0.001-6.245z"/>
			<path class="secondary" d="M-0.001,6.12C3.38,6.12,6.12,3.38,6.12,0S3.38-6.12-0.001-6.12C-3.38-6.12-6.12-3.38-6.12,0    S-3.38,6.12-0.001,6.12 M-0.001,6.37C-3.513,6.37-6.37,3.513-6.37,0s2.857-6.37,6.369-6.37C3.512-6.37,6.37-3.513,6.37,0    S3.512,6.37-0.001,6.37L-0.001,6.37z" fill="#FFFFFF"/>
		</g>
		<g xmlns="http://www.w3.org/2000/svg">
			<path class="secondary" d="M-0.262,4.241V4.52l0.267,0.321L0.28,4.494V4.241h0.259l0.203-0.42V2.718c0,0,0.555-0.183,1.629-0.323    l2.565-0.223c0,0,0.705-0.113,0.49-0.784c0,0-0.14-0.33-0.812-0.524c0,0-2.652-0.624-4.15-1.194l-0.2-2.436l1.587-0.841    c0,0,0.165-0.573-0.644-0.716c-0.81-0.141-0.95-0.086-0.95-0.086L0.084-3.993l-0.086-0.849l-0.11,0.833l-0.094-0.408    c0,0-1.139-0.134-1.643,0.471v0.269l1.587,0.88c0,0-0.094,2.043-0.22,2.42c-0.126,0.376-4.298,1.06-4.824,1.664    C-5.457,1.413-5.708,1.924-4.93,2.129c0,0,3.638,0.329,4.196,0.589v1.076l0.228,0.455L-0.262,4.241z" fill="#FFFFFF"/>
		</g>
	</g></svg>