<?xml version="1.0" standalone="no"?>
<svg xmlns="http://www.w3.org/2000/svg" viewBox="-6.371 -6.37 12.741 12.74" color="#212121" width="75" height="75"><g transform="matrix(1 0 0 -1 0 0)">
		<g xmlns="http://www.w3.org/2000/svg">
			<path class="primary" fill="currentColor" d="M-0.002-6.246c-3.443,0-6.244,2.801-6.244,6.245s2.801,6.246,6.244,6.246c3.444,0,6.247-2.802,6.247-6.246    C6.244-3.444,3.442-6.246-0.002-6.246z"/>
			<path class="secondary" d="M-0.002,6.12c3.381,0,6.122-2.74,6.122-6.121c0-3.379-2.741-6.119-6.122-6.119    c-3.379,0-6.119,2.74-6.119,6.119C-6.121,3.38-3.381,6.12-0.002,6.12 M-0.002,6.37c-3.512,0-6.369-2.858-6.369-6.371    c0-3.512,2.857-6.369,6.369-6.369c3.513,0,6.372,2.857,6.372,6.369C6.37,3.512,3.511,6.37-0.002,6.37L-0.002,6.37z" fill="#FFFFFF"/>
		</g>
		<g xmlns="http://www.w3.org/2000/svg">
			<path class="secondary" d="M-0.422,5.808h0.804c0,0,0.435-0.847,0.304-3.062c1.76-1.369,4.235-3.365,4.235-3.365s0.521-0.565,0-1.781    c-0.651,0.435-4.19,2.605-4.19,2.605s0.086-1.607-0.327-3.93l1.324-1.174c0,0,0.239-0.151-0.043-0.781l-1.52,0.934    c0,0,0,0.152-0.065,0.239C0.034-4.42,0.034-5.201,0.034-5.201l-0.108,0.674c0,0-0.087-0.066-0.065-0.262    c-0.24-0.254-1.499-1.02-1.499-1.02s-0.259,0.542,0,0.802l1.26,1.261c0,0-0.521,3.604-0.414,3.93    C-1.204-0.164-4.2-1.923-4.961-2.488c0,0-0.433,1.065,0,1.759c0.695,0.544,4.169,3.496,4.169,3.496S-0.792,4.743-0.422,5.808z" fill="#FFFFFF"/>
			<g>
				<rect x="3.59" y="0.428" class="secondary" width="0.053" height="1.08" fill="#FFFFFF"/>
			</g>
		</g>
	</g></svg>