<?xml version="1.0" standalone="no"?>
<svg xmlns="http://www.w3.org/2000/svg" viewBox="-6.37 -6.37 12.74 12.74" color="#212121" width="75" height="75"><g transform="matrix(1 0 0 -1 0 0)">
		<g xmlns="http://www.w3.org/2000/svg">
			<path class="primary" fill="currentColor" d="M-0.001-6.245c-3.443,0-6.244,2.801-6.244,6.244c0,3.444,2.801,6.246,6.244,6.246    c3.444,0,6.246-2.802,6.246-6.246C6.245-3.444,3.443-6.245-0.001-6.245z"/>
			<path class="secondary" d="M-0.001,6.12c3.381,0,6.121-2.74,6.121-6.121c0-3.379-2.74-6.119-6.121-6.119    c-3.379,0-6.119,2.74-6.119,6.119C-6.12,3.38-3.38,6.12-0.001,6.12 M-0.001,6.37c-3.512,0-6.369-2.858-6.369-6.371    c0-3.512,2.857-6.369,6.369-6.369c3.513,0,6.371,2.857,6.371,6.369C6.37,3.512,3.512,6.37-0.001,6.37L-0.001,6.37z" fill="#FFFFFF"/>
		</g>
		<g xmlns="http://www.w3.org/2000/svg">
			<g>
				<g>
					<g>
						<path class="secondary" d="M-1.721,4.019c0.22,0.06,0.44,0.055,0.66,0.04l0.66-0.04V4.008l-0.66-0.04       c-0.22-0.015-0.44-0.02-0.66,0.04V4.019z" fill="#FFFFFF"/>
					</g>
				</g>
				<g>
					<g>
						<path class="secondary" d="M0.199,4.002l0.37,0.021c0.123-0.005,0.247,0.058,0.37-0.021v-0.01C0.816,3.913,0.693,3.976,0.57,3.971       L0.2,3.992L0.199,4.002L0.199,4.002z" fill="#FFFFFF"/>
					</g>
				</g>
				<g>
					<g>
						<path class="secondary" d="M-0.36,3.939v0.128l0.302,0.374h0.077l0.295-0.367V3.939h0.199c0,0,0.161-0.128,0.231-0.328V2.348       c0,0,0.045-0.096,1.129-0.281c0,0,3.202-0.381,3.395-0.366c0,0,0.314-0.032,0.333-0.251c0.02-0.218,0.083-0.918-0.244-1.052       l-4.18-0.74c0,0-0.606,0.001-0.692-0.655L0.253-3.549c0,0,1.751-0.51,1.944-0.549c0.081-0.068,0.115-0.684-0.116-0.664       L0.263-5.107L0.089-4.751L0.022-5.33l-0.154,0.579l-0.097-0.3l-1.886,0.327c0,0-0.25-0.019-0.125,0.646       C-2.249-4.062-2.153-4.025-1.999-3.98c0.523,0.15,1.713,0.402,1.713,0.402l-0.231,2.58c0,0,0.067,0.587-0.827,0.702       l-4.033,0.702c0,0-0.325,0.156-0.221,1.188c0,0-0.078,0.16,3.82,0.479c0,0,0.827,0.163,1.059,0.289       c-0.002,0.336-0.029,0.557-0.019,1.23l0.173,0.348h0.205V3.939z" fill="#FFFFFF"/>
					</g>
				</g>
				<g>
					<g>
						<rect x="-4.049" y="1.862" class="secondary" width="0.038" height="0.745" fill="#FFFFFF"/>
					</g>
				</g>
				<g>
					<g>
						<rect x="3.997" y="1.82" class="secondary" width="0.038" height="0.787" fill="#FFFFFF"/>
					</g>
				</g>
			</g>
			<g>
				<polygon class="secondary" points="-2.022,-4.009 -2.053,-3.986 -0.491,-1.895 -0.46,-1.918    " fill="#FFFFFF"/>
			</g>
			<g>
				<polygon class="secondary" points="2.024,-4.068 0.352,-1.791 0.383,-1.767 2.055,-4.044    " fill="#FFFFFF"/>
			</g>
		</g>
	</g></svg>