<?xml version="1.0" standalone="no"?>
<svg xmlns="http://www.w3.org/2000/svg" viewBox="-6.37 -6.37 12.74 12.74" color="#212121" width="75" height="75"><g transform="matrix(1 0 0 -1 0 0)">
		<g xmlns="http://www.w3.org/2000/svg">
			<circle class="primary" fill="currentColor" cx="0" cy="0" r="6.245"/>
			<path class="secondary" d="M0,6.12c3.38,0,6.12-2.74,6.12-6.12S3.38-6.12,0-6.12S-6.12-3.38-6.12,0S-3.38,6.12,0,6.12 M0,6.37    c-3.513,0-6.37-2.857-6.37-6.37S-3.513-6.37,0-6.37S6.37-3.513,6.37,0S3.513,6.37,0,6.37L0,6.37z" fill="#FFFFFF"/>
		</g>
		<path xmlns="http://www.w3.org/2000/svg" class="secondary" d="M4.666-1.872c0,0-0.548,0.006-0.617,0.015c-0.037,0.004,0.02,0.833-0.041,0.885c-0.061,0.052-2.796,0-2.796,0   s-0.127-1.234-0.15-1.275c-0.021-0.041-0.209-0.019-0.248,0c-0.038,0.02-0.033,0.149-0.033,0.149s-0.254,0.047-0.298,0   C0.44-2.145,0.286-3.774,0.308-3.859C0.33-3.944,1.901-4.78,1.981-4.843c0.08-0.064,0.113-0.621,0.058-0.662   C1.984-5.547,0.308-5.062,0.211-5.084C0.115-5.105,0.082-5.42,0.004-5.439C0.003-5.439,0.001-5.437,0-5.431   C-0.001-5.437-0.003-5.44-0.004-5.439C-0.081-5.42-0.114-5.105-0.21-5.084c-0.097,0.022-1.772-0.463-1.828-0.421   C-2.094-5.464-2.061-4.907-1.98-4.843C-1.9-4.78-0.329-3.944-0.307-3.859s-0.132,1.714-0.176,1.761s-0.297,0-0.297,0   s0.005-0.13-0.033-0.149c-0.039-0.019-0.226-0.041-0.249,0c-0.022,0.042-0.149,1.274-0.149,1.274s-2.735,0.052-2.796,0   c-0.06-0.052-0.003-0.881-0.041-0.885c-0.069-0.008-0.617-0.015-0.617-0.015s-0.02,0.064,0.014,0.179   c0.033,0.116,0.341,0.401,0.38,0.447C-4.233-1.2-4.547,2.14-4.155,2.129c0.391-0.011,0.297-1.571,0.297-1.571   s3.204,0.733,3.192,0.811c-0.012,0.077,0,2.029,0,2.448s0.475,1.963,0.663,2.001c0.001,0,0.002,0,0.004-0.001   c0.001,0.001,0.002,0.001,0.003,0.001C0.192,5.78,0.667,4.236,0.667,3.817s0.012-2.372,0-2.448   C0.655,1.291,3.858,0.558,3.858,0.558s-0.094,1.56,0.297,1.571C4.548,2.14,4.234-1.2,4.272-1.246   c0.039-0.046,0.347-0.331,0.38-0.447C4.686-1.808,4.666-1.872,4.666-1.872z" fill="#FFFFFF"/>
	</g></svg>