<?xml version="1.0" standalone="no"?>
<svg xmlns="http://www.w3.org/2000/svg" viewBox="-6.37 -6.37 12.74 12.74" color="#212121" width="75" height="75"><g transform="matrix(1 0 0 -1 0 0)">
		<g xmlns="http://www.w3.org/2000/svg">
			<path class="primary" fill="currentColor" d="M-0.001-6.245c-3.443,0-6.244,2.801-6.244,6.244c0,3.444,2.801,6.246,6.244,6.246    c3.444,0,6.246-2.802,6.246-6.246C6.245-3.444,3.443-6.245-0.001-6.245z"/>
			<path class="secondary" d="M-0.001,6.12c3.381,0,6.121-2.74,6.121-6.121c0-3.379-2.74-6.119-6.121-6.119    c-3.379,0-6.119,2.74-6.119,6.119C-6.12,3.38-3.38,6.12-0.001,6.12 M-0.001,6.37c-3.512,0-6.369-2.858-6.369-6.371    c0-3.512,2.857-6.369,6.369-6.369c3.513,0,6.371,2.857,6.371,6.369C6.37,3.512,3.512,6.37-0.001,6.37L-0.001,6.37z" fill="#FFFFFF"/>
		</g>
		<path xmlns="http://www.w3.org/2000/svg" class="secondary" d="M-2.033-4.794L-2.033-4.794c0.039-0.056,0.1-0.083,0.157-0.11C-1.708-4.989-1.53-5.041-1.35-5.087   c0.229-0.06,0.461-0.089,0.7-0.085c0.078,0.002,0.159-0.002,0.237,0c0.067,0.002,0.09,0.017,0.108,0.08   c0.021,0.07,0.038,0.145,0.062,0.234c0.013-0.037,0.024-0.056,0.027-0.077c0.021-0.116,0.037-0.233,0.056-0.348   c0.015-0.096,0.029-0.188,0.042-0.282c0.007-0.036,0.007-0.072,0.009-0.108c0-0.023,0.009-0.045,0.034-0.04   c0.012,0.002,0.028,0.023,0.029,0.036c0.019,0.25,0.086,0.492,0.122,0.738C0.081-4.918,0.093-4.895,0.1-4.874   c0.006,0,0.011,0,0.015,0c0.006-0.019,0.01-0.038,0.015-0.055c0.01-0.053,0.018-0.108,0.031-0.159   c0.006-0.021,0.022-0.04,0.034-0.06h0.001C0.207-5.177,0.233-5.18,0.258-5.18c0.49-0.038,0.967,0.02,1.424,0.206   c0.069,0.027,0.133,0.068,0.196,0.106c0.017,0.011,0.036,0.013,0.05,0.027l0.046,0.032C2.02-4.771,2.02-4.729,2.037-4.69   c0.09,0.188-0.064,0.382-0.201,0.397L1.8-4.272C1.788-4.256,1.753-4.238,1.73-4.226C1.443-4.077,1.155-3.929,0.867-3.78   c-0.153,0.079-0.305,0.161-0.46,0.235C0.328-3.506,0.302-3.451,0.313-3.368c0.019,0.125,0.034,0.25,0.052,0.376   C0.388-2.816,0.411-2.64,0.432-2.467c0.02,0.16,0.033,0.316,0.052,0.474c0.005,0.034,0.017,0.065,0.034,0.096   c0.04,0.063,0.084,0.123,0.127,0.185c0.011,0.017,0.04,0.068,0.03,0.051l0.11,0.127L0.84-1.496   c0.032,0.031,0.064,0.059,0.096,0.089l0,0c0.002,0,0.006-0.002,0.007,0c0.137,0.1,0.301,0.116,0.461,0.145   C1.787-1.197,2.168-1.131,2.55-1.068c0.232,0.041,0.464,0.081,0.7,0.123C3.261-0.966,3.271-0.987,3.306-0.98   C3.425-0.955,3.547-0.938,3.67-0.915c0.008,0.042,0.043,0.051,0.079,0.058c0.257,0.042,0.514,0.087,0.77,0.131   c0.215,0.039,0.429,0.072,0.643,0.119c0.081,0.017,0.16,0.054,0.241,0.085c0.016,0.007,0.028,0.019,0.043,0.03l0.047,0.019   c0.099,0.056,0.188,0.125,0.266,0.21c0.075,0.085,0.127,0.181,0.146,0.295c0.022,0.117-0.006,0.221-0.081,0.311   C5.761,0.418,5.68,0.473,5.591,0.516C5.445,0.588,5.289,0.63,5.13,0.655C4.851,0.704,4.572,0.751,4.292,0.8   c-0.273,0.044-0.55,0.089-0.823,0.136C3.249,0.972,3.03,1.01,2.811,1.046C2.565,1.088,2.318,1.129,2.073,1.169   C1.829,1.211,1.586,1.252,1.342,1.292C1.13,1.328,0.918,1.364,0.705,1.4c-0.013,0.002-0.026,0-0.043,0.002   C0.651,1.428,0.642,1.453,0.631,1.48C0.653,1.487,0.672,1.491,0.697,1.5C0.69,1.638,0.648,1.77,0.604,1.901   C0.635,1.907,0.66,1.912,0.686,1.916C0.693,2.141,0.649,2.359,0.64,2.582C0.62,2.589,0.604,2.591,0.589,2.598   C0.526,2.723,0.513,2.86,0.483,2.994C0.471,3.058,0.444,3.121,0.457,3.188c0.001,0.01-0.002,0.025-0.009,0.031   C0.411,3.26,0.408,3.311,0.394,3.357C0.331,3.55,0.229,3.724,0.114,3.892c-0.01,0.013-0.02,0.023-0.03,0.036   C0.053,3.955,0.022,3.959-0.007,3.932C-0.024,3.913-0.036,3.89-0.05,3.87l-0.13-0.197C-0.188,3.664-0.2,3.654-0.205,3.644   C-0.254,3.537-0.3,3.432-0.346,3.327c-0.015-0.032-0.03-0.06-0.044-0.091C-0.395,3.228-0.4,3.215-0.4,3.204   c0.002-0.114-0.044-0.221-0.062-0.331c-0.013-0.087-0.034-0.174-0.053-0.266C-0.539,2.605-0.562,2.604-0.597,2.6   C-0.62,2.381-0.66,2.16-0.659,1.933c0.025-0.006,0.049-0.011,0.08-0.017C-0.623,1.784-0.672,1.657-0.681,1.52   c0.021-0.009,0.04-0.016,0.062-0.025c-0.009-0.023-0.019-0.049-0.026-0.07c-1.201-0.175-2.395-0.347-3.6-0.522   C-4.246,0.93-4.25,0.95-4.25,0.972c0,0.074,0.002,0.146,0.004,0.219c0,0.025-0.008,0.046-0.046,0.031   c-0.001-0.104-0.003-0.21-0.003-0.324C-4.373,0.887-4.446,0.876-4.52,0.863c-0.251-0.036-0.503-0.072-0.753-0.114   c-0.142-0.025-0.271-0.087-0.396-0.157L-5.68,0.577C-5.7,0.562-5.718,0.551-5.736,0.534c-0.025-0.023-0.042-0.044-0.066-0.08   c-0.028-0.041-0.05-0.038-0.06-0.075c-0.005-0.012-0.035-0.055-0.036-0.065c-0.007-0.042-0.014-0.085-0.011-0.125   c0.009-0.1,0.051-0.187,0.11-0.268c0.013-0.017,0.02-0.038,0.028-0.06l0.146-0.129c0.04-0.049,0.092-0.081,0.152-0.098   c0.066-0.058,0.149-0.09,0.232-0.11c0.129-0.036,0.26-0.06,0.392-0.087c0.378-0.074,0.756-0.148,1.133-0.223   c0.407-0.081,0.813-0.162,1.222-0.24c0.42-0.083,0.84-0.166,1.259-0.25c0.056-0.011,0.106-0.041,0.158-0.06   c0.018-0.009,0.032-0.015,0.049-0.021l0.053-0.042C-0.903-1.473-0.83-1.545-0.759-1.62C-0.7-1.703-0.642-1.786-0.584-1.869   l0.047-0.06c0.014-0.163,0.026-0.328,0.043-0.494c0.017-0.185,0.036-0.369,0.056-0.554c0.015-0.136,0.034-0.27,0.048-0.405   c0.006-0.047,0-0.096-0.049-0.125l0,0l-0.085-0.032c-0.484-0.235-0.97-0.474-1.453-0.711C-2-4.26-2.02-4.274-2.041-4.289l0,0   c-0.14-0.062-0.194-0.268-0.101-0.38" fill="#FFFFFF"/>
	</g></svg>