<?xml version="1.0" standalone="no"?>
<svg xmlns="http://www.w3.org/2000/svg" viewBox="-6.37 -6.37 12.74 12.74" color="#212121" width="75" height="75"><g transform="matrix(1 0 0 -1 0 0)">
		<g xmlns="http://www.w3.org/2000/svg">
			<path class="primary" fill="currentColor" d="M-0.001-6.245c-3.443,0-6.244,2.801-6.244,6.244c0,3.444,2.801,6.246,6.244,6.246    c3.444,0,6.246-2.802,6.246-6.246C6.245-3.444,3.444-6.245-0.001-6.245z"/>
			<path class="secondary" d="M-0.001,6.12c3.381,0,6.121-2.74,6.121-6.121c0-3.379-2.74-6.119-6.121-6.119    c-3.379,0-6.119,2.74-6.119,6.119C-6.12,3.38-3.38,6.12-0.001,6.12 M-0.001,6.37c-3.512,0-6.369-2.858-6.369-6.371    c0-3.512,2.857-6.369,6.369-6.369c3.513,0,6.371,2.857,6.371,6.369C6.37,3.512,3.512,6.37-0.001,6.37L-0.001,6.37z" fill="#FFFFFF"/>
		</g>
		<g xmlns="http://www.w3.org/2000/svg">
			<g>
				<path class="secondary" d="M0.413,5.306h-0.879c0,0-0.294-0.668-0.294-3.059c-0.032-0.23-0.667-0.211-0.895-0.229l-3.97-0.309     c0,0-0.326,0.113-0.18-0.799c0.109-0.496,0.212-0.439,0.212-0.439l4.604-1.023c0,0,0.278,0,0.26-0.424     C-0.81-1.529-0.37-4.165-0.37-4.165l-1.604-0.943c0,0-0.381-0.293,0.156-0.504C-1.2-5.954-0.304-5.841-0.304-5.841     s0.129-0.016,0.211,0.326c0.094,0.391,0.049-0.57,0.049-0.57H0.07v0.57c0,0-0.015,0.117,0.008,0.096     c0.093-0.094,0.044-0.451,0.27-0.437c0.146,0.008,1.563,0,1.726,0.504c0.211,0.178-0.967,0.701-1.726,1.188     c0,0,0.374,1.676,0.374,3.336c0.146,0.357,0.342,0.311,0.391,0.311l4.492,0.99c0,0,0.472,0.797,0.081,1.238     C4.938,1.774,1.487,2.036,1.487,2.036S0.754,2.003,0.754,2.28C0.754,2.28,0.705,5.095,0.413,5.306z" fill="#FFFFFF"/>
			</g>
			<g>
				<rect x="0.34" y="5.306" class="secondary" width="0.049" height="0.521" fill="#FFFFFF"/>
			</g>
			<g>
				<rect x="-0.409" y="5.306" class="secondary" width="0.049" height="0.521" fill="#FFFFFF"/>
			</g>
			<g>
				<rect x="-4.973" y="1.744" class="secondary" width="0.049" height="0.924" fill="#FFFFFF"/>
			</g>
			<g>
				<rect x="-0.025" y="5.306" class="secondary" width="0.049" height="0.781" fill="#FFFFFF"/>
			</g>
			<g>
				<rect x="-0.066" y="5.306" class="secondary" width="0.13" height="0.391" fill="#FFFFFF"/>
			</g>
		</g>
	</g></svg>