<?xml version="1.0" standalone="no"?>
<svg xmlns="http://www.w3.org/2000/svg" viewBox="-6.37 -6.37 12.74 12.74" color="#212121" width="75" height="75"><g transform="matrix(1 0 0 -1 0 0)">
		<g xmlns="http://www.w3.org/2000/svg">
			<path class="primary" fill="currentColor" d="M-0.001-6.245c-3.443,0-6.244,2.801-6.244,6.244c0,3.444,2.801,6.246,6.244,6.246    c3.444,0,6.246-2.802,6.246-6.246C6.245-3.444,3.443-6.245-0.001-6.245z"/>
			<path class="secondary" d="M-0.001,6.12c3.381,0,6.121-2.74,6.121-6.121c0-3.379-2.74-6.119-6.121-6.119    c-3.379,0-6.119,2.74-6.119,6.119C-6.12,3.38-3.38,6.12-0.001,6.12 M-0.001,6.37c-3.512,0-6.369-2.858-6.369-6.371    c0-3.512,2.857-6.369,6.369-6.369c3.513,0,6.371,2.857,6.371,6.369C6.37,3.512,3.512,6.37-0.001,6.37L-0.001,6.37z" fill="#FFFFFF"/>
		</g>
		<path xmlns="http://www.w3.org/2000/svg" class="secondary" d="M0.177-4.984h0.305l0.911-0.581h0.19v0.983H1.519v-0.213L0.611-3.592v0.883l2.218,0.023v0.575L2.1-1.059   l0.008,0.975H1.973L1.926-0.822L1.612-0.305V0.48H1.467v-0.486l-0.861,1.4L0.563,4.432L0.303,4.69L0.28,5.856H0.222V5.008   L0.104,5.302c0,0-0.164-0.329-0.224-0.636c-0.147-0.174-0.058-0.071-0.259-0.234l-0.049-2.993l-0.964-1.447V0.58h-0.16v-0.895   l-0.347-0.472v0.778h-0.164v-0.989L-2.83-2.105v-0.554h2.345v-0.912l-0.999-1.245l0.003,0.211H-1.54v-0.99h0.128l1.007,0.62h0.289   v-0.879h0.292L0.177-4.984L0.177-4.984z" fill="#FFFFFF"/>
	</g></svg>