<?xml version="1.0" standalone="no"?>
<svg xmlns="http://www.w3.org/2000/svg" viewBox="-6.37 -6.37 12.74 12.74" color="#212121" width="75" height="75"><g transform="matrix(1 0 0 -1 0 0)">
		<g xmlns="http://www.w3.org/2000/svg">
			<path class="primary" fill="currentColor" d="M-0.001-6.245c-3.443,0-6.244,2.801-6.244,6.244c0,3.444,2.801,6.246,6.244,6.246    c3.444,0,6.246-2.802,6.246-6.246C6.245-3.444,3.443-6.245-0.001-6.245z"/>
			<path class="secondary" d="M-0.001,6.12c3.381,0,6.121-2.74,6.121-6.121c0-3.379-2.74-6.119-6.121-6.119    c-3.379,0-6.119,2.74-6.119,6.119C-6.12,3.38-3.38,6.12-0.001,6.12 M-0.001,6.37c-3.512,0-6.369-2.858-6.369-6.371    c0-3.512,2.857-6.369,6.369-6.369c3.513,0,6.371,2.857,6.371,6.369C6.37,3.512,3.512,6.37-0.001,6.37L-0.001,6.37z" fill="#FFFFFF"/>
		</g>
		<g xmlns="http://www.w3.org/2000/svg">
			<g>
				<path class="secondary" d="M0.469,5.609h-0.9c0,0-0.182-0.322-0.2-0.913C-0.65,4.104-0.669,3.782-0.669,3.782l-1.964-2.056     l-2.171-2.045c0,0-0.171-0.572,0-1.228c0,0,0.218-0.548,0.599-0.394c0.391,0.275,2.896,2.455,2.896,2.455l0.524,0.012L-0.7,0.408     c0,0,0.107-2.967,0.238-3.504c0.167-0.227,0.247-0.298,0.247-0.298l-1.439-1.645c0,0-0.119-0.453,0.072-0.572     c0.44,0.274,1.489,0.918,1.489,0.918s0.036-0.667,0.06-0.835c0.024-0.166,0.107,0.823,0.107,0.823L1.588-5.61     c0,0,0.179,0.202,0,0.632C1.254-4.668,0.134-3.38,0.134-3.38l0.334,0.345c0,0,0.322,3.027,0.238,3.505     c0.061,0.027,0.095,0.035,0.095,0.035h0.561L4.21-1.951c0,0,0.989-0.25,0.561,1.609L2.685,1.637L0.73,3.734     C0.73,3.734,0.731,5.222,0.469,5.609z" fill="#FFFFFF"/>
			</g>
			<g>
				<rect x="4.626" y="-0.228" class="secondary" width="0.048" height="1.281" fill="#FFFFFF"/>
			</g>
			<g>
				<rect x="-4.637" y="-0.228" class="secondary" width="0.048" height="1.281" fill="#FFFFFF"/>
			</g>
		</g>
	</g></svg>