<?xml version="1.0" standalone="no"?>
<svg xmlns="http://www.w3.org/2000/svg" viewBox="-6.37 -6.37 12.74 12.74" color="#212121" width="75" height="75"><g transform="matrix(1 0 0 -1 0 0)">
		<g xmlns="http://www.w3.org/2000/svg">
			<path class="primary" fill="currentColor" d="M-0.001-6.245c-3.443,0-6.244,2.801-6.244,6.244c0,3.444,2.801,6.246,6.244,6.246    c3.444,0,6.246-2.802,6.246-6.246C6.245-3.444,3.443-6.245-0.001-6.245z"/>
			<path class="secondary" d="M-0.001,6.12c3.381,0,6.121-2.74,6.121-6.121c0-3.379-2.74-6.119-6.121-6.119    c-3.379,0-6.119,2.74-6.119,6.119C-6.12,3.38-3.38,6.12-0.001,6.12 M-0.001,6.37c-3.512,0-6.369-2.858-6.369-6.371    c0-3.512,2.857-6.369,6.369-6.369c3.513,0,6.371,2.857,6.371,6.369C6.37,3.512,3.512,6.37-0.001,6.37L-0.001,6.37z" fill="#FFFFFF"/>
		</g>
		<path xmlns="http://www.w3.org/2000/svg" class="secondary" d="M-0.072-4.688c0,0.027-0.195,0.463-0.195,0.463s-0.167,0.214-0.444-0.064L-1.86-5.318c0,0-0.046,1.064,0,1.172   c0.046,0.107,0.046-0.134,0.055-0.18c0.01-0.047,1.271,1.762,1.271,1.762l-0.019,1.75l-0.046,0.205l-1.232-1.066   c0,0,0.131-0.215,0.224-0.77l-0.321,0.006l-0.025,0.071h-0.119l-0.099-0.088h-0.241c0,0-0.021,0.145,0.012,0.233l-1.113-0.995   l-0.094-0.01c0,0-0.129,0.519,0.016,0.993l1.354,1.993c0,0-0.02,1.017,0.144,1.701c0.155,0.36,0.234,0.095,0.254,0.033   c0,0,0.121-0.331,0.135-0.911l1.101,1.613l0.014,0.654h0.071l0.014-0.484c0,0,0.071,1.325,0.263,1.815c0.164-0.005,0.281,0,0.281,0   v1.534H0.1V4.181h0.296c0,0,0.177-0.321,0.236-1.835c0.033-0.067,0.025,0.525,0.025,0.525h0.046V2.195L1.85,0.454   c0,0,0.049,0.865,0.147,1.013c0.099,0.148,0.128,0.227,0.206-0.05C2.283,1.143,2.4,0.474,2.321-0.304l1.29-2.006   c0,0,0.118-0.541,0-0.974L3.535-3.291L2.417-2.214l0.04-0.28H2.215L2.167-2.411L1.971-2.405L1.917-2.498H1.664   c0,0,0.029,0.453,0.186,0.764l-1.153,1.11L0.604-0.75L0.566-2.545l1.199-1.85c0,0,0.038,0.467,0.091,0.105   c0,0,0.033-0.545,0.001-1.062c-0.63,0.558-1.232,1.128-1.232,1.128s-0.303,0.197-0.42-0.1C0.087-4.618,0.1-4.676,0.1-4.676   l-0.071-1.01C0.028-5.686-0.074-5.979-0.072-4.688z" fill="#FFFFFF"/>
	</g></svg>