<?xml version="1.0" standalone="no"?>
<svg xmlns="http://www.w3.org/2000/svg" viewBox="-6.37 -6.37 12.74 12.74" color="#212121" width="75" height="75"><g transform="matrix(1 0 0 -1 0 0)">
		<g xmlns="http://www.w3.org/2000/svg">
			<path class="primary" fill="currentColor" d="M-0.001-6.245c-3.443,0-6.244,2.802-6.244,6.245s2.801,6.245,6.244,6.245c3.444,0,6.246-2.802,6.246-6.245     S3.443-6.245-0.001-6.245z"/>
			<path class="st1" d="M-0.001,6.12C3.38,6.12,6.12,3.38,6.12,0S3.38-6.12-0.001-6.12C-3.38-6.12-6.12-3.38-6.12,0     S-3.38,6.12-0.001,6.12 M-0.001,6.37C-3.513,6.37-6.37,3.513-6.37,0s2.857-6.37,6.369-6.37C3.512-6.37,6.37-3.513,6.37,0     S3.512,6.37-0.001,6.37L-0.001,6.37z"/>
		</g>
		<path xmlns="http://www.w3.org/2000/svg" class="secondary" d="M3.499,0.163C2.308-0.073,1.085-0.29,1.085-0.29S0.556-0.681,0.521-0.959    C0.485-1.237,0.312-2.562,0.312-2.562S1.978-3.565,1.978-3.84c0-0.684-1.725-0.609-1.813-0.506    C0.11-4.282,0.085-4.198,0.073-4.118c0.002,0.139,0.002,0.249,0.002,0.249s-0.02-0.119-0.002-0.249    C0.069-4.355,0.052-4.676,0.001-4.672c-0.002,0-0.006,0.007-0.006,0.022c-0.051,0.011-0.066,0.324-0.07,0.555    c0.018,0.129-0.002,0.247-0.002,0.247s0-0.108,0.002-0.247c-0.01-0.08-0.037-0.165-0.09-0.228c-0.09-0.105-1.813-0.18-1.813,0.504    c0,0.275,1.662,1.278,1.662,1.278s-0.172,1.326-0.207,1.604c-0.035,0.278-0.564,0.669-0.564,0.669S-2.31-0.051-3.501,0.186    c-1.115,0.221-2.258,0.311-2.205,1.106c0.17,0.423,1.377,0.5,2.555,0.646c1.225,0.151,2.42,0.363,2.42,0.363    s0.086,1.179,0.09,1.233c0.004,0.053,0.133,0.133,0.133,0.133s0.314,0.998,0.494,1.003l0,0c0.002,0,0.002,0,0.004,0    c0.178-0.005,0.516-1.024,0.516-1.024S0.636,3.565,0.64,3.514c0.004-0.056,0.09-1.234,0.09-1.234s1.195-0.211,2.42-0.363    C4.327,1.77,5.534,1.692,5.706,1.27C5.757,0.475,4.616,0.385,3.499,0.163z" fill="#FFFFFF"/>
	</g></svg>