<?xml version="1.0" standalone="no"?>
<svg xmlns="http://www.w3.org/2000/svg" viewBox="-6.37 -6.37 12.74 12.74" color="#212121" width="75" height="75"><g transform="matrix(1 0 0 -1 0 0)">
		<g xmlns="http://www.w3.org/2000/svg">
			<circle class="primary" fill="currentColor" cx="0" cy="0" r="6.245"/>
			<path class="secondary" d="M0,6.12c3.38,0,6.12-2.74,6.12-6.12S3.38-6.12,0-6.12S-6.12-3.38-6.12,0S-3.38,6.12,0,6.12 M0,6.37    c-3.513,0-6.37-2.857-6.37-6.37S-3.513-6.37,0-6.37S6.37-3.513,6.37,0S3.513,6.37,0,6.37L0,6.37z" fill="#FFFFFF"/>
		</g>
		<path xmlns="http://www.w3.org/2000/svg" id="Mikoyan_Mig-29_1_" class="secondary" d="M3.741-1.947L1.125,0.268c0,0.767-0.75,3.016-0.75,3.016L0.254,4.22   c0,0.692-0.175,1.177-0.235,1.324L-0.002,6.01l-0.021-0.466c-0.06-0.147-0.234-0.632-0.234-1.324l-0.121-0.936   c0,0-0.75-2.249-0.75-3.016l-2.615-2.214c0,0-0.193-0.244-0.105-1.045l2.685,0.436L-1.285-3.27l-1.29-1.569   c0,0-0.116-0.226,0.023-0.557l1.227,0.61v0.313l0.33,0.173v-0.029h0.662l0,0h0.332v0.331h-0.07h0.07l0,0l0,0l0,0l0,0v-0.331H0.33   l0,0h0.662V-4.3l0.331-0.175v-0.313l1.227-0.61c0.14,0.331,0.056,0.557,0.056,0.557L1.299-3.272l-0.13,0.715L3.85-2.992   C3.937-2.191,3.741-1.947,3.741-1.947z" fill="#FFFFFF"/>
	</g></svg>