<?xml version="1.0" standalone="no"?>
<svg xmlns="http://www.w3.org/2000/svg" viewBox="-6.37 -6.37 12.74 12.74" color="#212121" width="75" height="75"><g transform="matrix(1 0 0 -1 0 0)">
		<g xmlns="http://www.w3.org/2000/svg">
			<path class="primary" fill="currentColor" d="M-0.001-6.245c-3.443,0-6.244,2.801-6.244,6.244c0,3.444,2.801,6.246,6.244,6.246    c3.444,0,6.246-2.802,6.246-6.246C6.245-3.444,3.444-6.245-0.001-6.245z"/>
			<path class="secondary" d="M-0.001,6.12c3.381,0,6.121-2.74,6.121-6.121c0-3.379-2.74-6.119-6.121-6.119    c-3.379,0-6.119,2.74-6.119,6.119C-6.12,3.38-3.38,6.12-0.001,6.12 M-0.001,6.37c-3.512,0-6.369-2.858-6.369-6.371    c0-3.512,2.857-6.369,6.369-6.369c3.513,0,6.371,2.857,6.371,6.369C6.37,3.512,3.512,6.37-0.001,6.37L-0.001,6.37z" fill="#FFFFFF"/>
		</g>
		<g xmlns="http://www.w3.org/2000/svg">
			<g>
				<path class="secondary" d="M0.302,4.614h1.296V4.498l-1.247-0.04l0.265-0.382L0.62,3.498h0.062V3.346h-0.07V3.287h0.062V3.138H0.615     l-0.004-0.05h0.062l-0.004-0.2H0.611V2.816H0.67V2.613H0.619V2.562h0.055V2.356H0.615V2.293h0.059V2.148H0.607v-0.16l0.528-0.161     l4.466-0.442c0,0,0.518-0.148,0.254-0.793C5.696,0.254,5.578,0.201,5.578,0.201L4.062-0.062L4.038-0.189L3.452-0.352L3.396-0.225     L1.176-0.57L0.613-1.259c0,0-0.046-2.128-0.195-2.506C1.131-4.029,2.062-4.42,2.062-4.42s0.16-0.252-0.058-0.438     C1.695-5.014,1.358-5.086,1.358-5.086h-2.619l-0.518,0.113c0,0-0.586,0.139-0.241,0.588c0.552,0.172,1.574,0.598,1.574,0.598     s-0.172,1.413-0.138,2.505c-0.184,0.23-0.632,0.701-0.632,0.701l-2.149,0.345l-0.15-0.08l-0.494,0.08v0.15l-1.587,0.32     c0,0-0.412,0.289-0.322,0.898c0.07,0.264,0.322,0.287,0.322,0.287l4.369,0.379l0.629,0.229v0.125h-0.113v0.139h0.117v0.067     h-0.117v0.194h0.126v0.07h-0.13v0.196h0.132v0.069h-0.132v0.197h0.128v0.062h-0.134V3.28h0.138v0.07h-0.131v0.132h0.12V4.11     l0.252,0.31l-1.276,0.068l-0.011,0.126h1.355c0,0,0.143,0.312,0.273,0.473C0.17,4.93,0.302,4.614,0.302,4.614z" fill="#FFFFFF"/>
			</g>
			<g>
				<rect x="-4.525" y="1.517" class="secondary" width="0.092" height="0.57" fill="#FFFFFF"/>
			</g>
			<g>
				<rect x="4.432" y="1.517" class="secondary" width="0.092" height="0.57" fill="#FFFFFF"/>
			</g>
		</g>
	</g></svg>