<?xml version="1.0" standalone="no"?>
<svg xmlns="http://www.w3.org/2000/svg" viewBox="-6.37 -6.37 12.74 12.74" color="#212121" width="75" height="75"><g transform="matrix(1 0 0 -1 0 0)">
		<g xmlns="http://www.w3.org/2000/svg">
			<circle class="primary" fill="currentColor" cx="0" cy="0" r="6.245"/>
			<path class="secondary" d="M0,6.12c3.38,0,6.12-2.74,6.12-6.12S3.38-6.12,0-6.12S-6.12-3.38-6.12,0S-3.38,6.12,0,6.12 M0,6.37    c-3.513,0-6.37-2.857-6.37-6.37S-3.513-6.37,0-6.37S6.37-3.513,6.37,0S3.513,6.37,0,6.37L0,6.37z" fill="#FFFFFF"/>
		</g>
		<path xmlns="http://www.w3.org/2000/svg" id="MV-22_Osprey_1_" class="secondary" d="M5.791,1.278L3.582,1.107c0,0.006,0.001,0.012,0.001,0.019   c0,0.198-0.16,0.357-0.358,0.357c-0.109,0-0.208-0.048-0.273-0.126L1.676,2.981L1.454,2.812l1.044-1.444L0.891,1.184   c0,0-0.09,0.227-0.312,0.448v1.096c0,0-0.047,0.78-0.579,1.07l0,0l0,0l0,0l0,0c-0.532-0.29-0.58-1.07-0.58-1.07V1.632   C-0.801,1.41-0.891,1.184-0.891,1.184l-1.607,0.185l1.044,1.444l-0.222,0.169l-1.276-1.624c-0.065,0.078-0.163,0.126-0.273,0.126   c-0.197,0-0.358-0.159-0.358-0.357c0-0.007,0.001-0.013,0.001-0.019l-2.209,0.171l-0.025-0.231l2.382-0.301   C-3.409,0.53-3.21,0.572-3.21,0.572c-0.131-0.047-0.073-0.189-0.073-0.189l0.965-2.05l0.216,0.116l-0.759,1.803l1.786-0.206   c0,0-0.095-1.044,0.521-1.882v-1.059h0.079v-0.158h-0.537c0,0-0.011,0.11-0.127,0.142c0,0-0.073-0.047-0.079-0.142   c0,0-0.01-0.754,0.074-1.028c0,0,0.079-0.105,0.105,0.043h0.563l0.095-0.127h0.343h0.073h0.343l0.095,0.127h0.564   c0.026-0.148,0.104-0.043,0.104-0.043c0.085,0.274,0.074,1.028,0.074,1.028C1.212-2.958,1.138-2.911,1.138-2.911   C1.021-2.942,1.012-3.053,1.012-3.053H0.474v0.158h0.079v1.059C1.17-0.998,1.074,0.046,1.074,0.046l1.787,0.206L2.103-1.551   l0.216-0.116l0.965,2.05c0,0,0.058,0.143-0.074,0.189c0,0,0.2-0.042,0.227,0.174l2.382,0.301L5.791,1.278z" fill="#FFFFFF"/>
	</g></svg>