<?xml version="1.0" standalone="no"?>
<svg xmlns="http://www.w3.org/2000/svg" viewBox="-6.37 -6.37 12.74 12.74" color="#212121" width="75" height="75"><g transform="matrix(1 0 0 -1 0 0)">
		<g xmlns="http://www.w3.org/2000/svg">
			<circle class="primary" fill="currentColor" cx="0" cy="0" r="6.245"/>
			<path class="secondary" d="M0,6.12c3.38,0,6.12-2.74,6.12-6.12S3.38-6.12,0-6.12S-6.12-3.38-6.12,0S-3.38,6.12,0,6.12 M0,6.37    c-3.513,0-6.37-2.857-6.37-6.37S-3.513-6.37,0-6.37S6.37-3.513,6.37,0S3.513,6.37,0,6.37L0,6.37z" fill="#FFFFFF"/>
		</g>
		<path xmlns="http://www.w3.org/2000/svg" class="secondary" d="M5.535-2.062C5.459-2.098,0.809,0.196,0.66,0.193C0.511,0.19,0.454,0.039,0.454-0.029   C0.453-0.097,0.47-2.616,0.448-2.795C0.427-2.974,0.332-3.451,0.351-3.506c0.028-0.082,1.366-1.073,1.453-1.153   c0.087-0.082,0.081-0.645,0.057-0.656C1.836-5.33,0.077-4.744,0.063-4.779s0-0.288,0-0.288h0.233v-0.157H0.063v-0.097h-0.127v0.097   h-0.232v0.157h0.232c0,0,0.014,0.253,0,0.288C-0.077-4.744-1.837-5.33-1.861-5.315c-0.024,0.012-0.03,0.574,0.057,0.656   c0.086,0.08,1.425,1.071,1.453,1.153c0.019,0.055-0.077,0.532-0.098,0.711C-0.47-2.616-0.454-0.097-0.454-0.029   s-0.057,0.22-0.206,0.223s-4.8-2.291-4.875-2.255C-5.612-2.027-5.652-1.46-5.584-1.368c0.067,0.091,1.513,1.171,1.535,1.21   c0.022,0.037,0,0.086,0,0.086s-0.089-0.008-0.097,0c-0.009,0.008-0.001,0.121-0.001,0.121s-0.049-0.008-0.059-0.002   c-0.009,0.007,0,0.163,0,0.163h-0.048c0,0-0.014,0.623,0,0.672c0.013,0.049,0.521,0.062,0.542,0c0.021-0.063,0-0.791,0-0.791   s1.269,0.913,1.274,0.943c0.005,0.029,0,0.076,0,0.076s-0.057-0.009-0.07,0c-0.014,0.008-0.003,0.121-0.003,0.121   S-2.588,1.212-2.6,1.223s0,0.146,0,0.146s-0.037-0.009-0.043,0c-0.007,0.011-0.025,0.674,0,0.728   c0.024,0.055,0.482,0.043,0.542,0.021c0.059-0.02,0.065-0.749,0.065-0.749S-0.508,2.4-0.476,2.52   c0.032,0.119,0.013,1.966,0.014,2.093c0,0.127,0.255,1.008,0.409,1.1c0,0,0.001,0.001,0.001,0h0.001   c0.154-0.09,0.511-0.973,0.512-1.1c0-0.127-0.019-1.974,0.014-2.093c0.032-0.119,1.562-1.15,1.562-1.15s0.005,0.729,0.066,0.749   C2.162,2.14,2.62,2.151,2.645,2.097c0.024-0.054,0.006-0.717,0-0.728c-0.007-0.009-0.044,0-0.044,0s0.013-0.135,0-0.146   c-0.012-0.01-0.089,0.008-0.089,0.008S2.523,1.118,2.509,1.11c-0.014-0.009-0.071,0-0.071,0s-0.005-0.047,0-0.076   c0.006-0.03,1.274-0.943,1.274-0.943s-0.022,0.728,0,0.791c0.021,0.062,0.529,0.049,0.542,0s0-0.672,0-0.672H4.207   c0,0,0.01-0.156,0-0.163c-0.01-0.006-0.059,0.002-0.059,0.002s0.008-0.113-0.001-0.121c-0.008-0.008-0.097,0-0.097,0   s-0.021-0.049,0-0.086c0.022-0.039,1.467-1.119,1.535-1.21C5.652-1.46,5.611-2.027,5.535-2.062z" fill="#FFFFFF"/>
	</g></svg>