<?xml version="1.0" standalone="no"?>
<svg xmlns="http://www.w3.org/2000/svg" viewBox="-6.37 -6.37 12.74 12.74" color="#212121" width="75" height="75"><g transform="matrix(1 0 0 -1 0 0)">
		<g xmlns="http://www.w3.org/2000/svg">
			<circle class="primary" fill="currentColor" cx="0" cy="0" r="6.245"/>
			<path class="secondary" d="M0,6.12c3.38,0,6.12-2.74,6.12-6.12S3.38-6.12,0-6.12S-6.12-3.38-6.12,0S-3.38,6.12,0,6.12 M0,6.37    c-3.513,0-6.37-2.857-6.37-6.37S-3.513-6.37,0-6.37S6.37-3.513,6.37,0S3.513,6.37,0,6.37L0,6.37z" fill="#FFFFFF"/>
		</g>
		<path xmlns="http://www.w3.org/2000/svg" id="Pilatus_U-28_1_" class="secondary" d="M5.578,0.907c0.004,0.085,0,0.155-0.001,0.185c-0.003,0.1-0.017,0.319-0.11,0.332   L0.59,1.79C0.571,2.771,0.467,3.8,0.366,4.158C0.322,4.316,0.335,4.31,0.249,4.31c-0.027,0-0.007,0.003-0.007,0.01l0,0H0.196   C0.191,4.324,0.165,4.353,0.165,4.363c0,0.081-0.04,0.269-0.064,0.269h0.581H0.77H0.067C0.039,4.632,0.01,4.74-0.01,4.74   c-0.021,0-0.05-0.108-0.078-0.108h-0.594h-0.087h0.647c-0.023,0-0.041-0.188-0.041-0.269c0-0.011-0.003-0.028-0.009-0.033V4.325   V4.321C-0.18,4.314-0.196,4.31-0.225,4.31c-0.085,0-0.116,0.007-0.161-0.151C-0.486,3.801-0.59,2.77-0.609,1.79l-4.875-0.366   C-5.576,1.411-5.587,1.193-5.59,1.092C-5.591,1.06-5.603,0.978-5.597,0.881l-0.221-0.303V0.26l0.248,0.154   c0.001-0.005-0.042-0.01-0.042-0.01l0.036-0.005V0.395l1.455-0.071v0.001l3.165-0.169l0.321,0.051   c0.005-0.241,0.048-0.664,0.102-1.154l0.004-0.032h0.002c0.085-0.773,0.208-1.705,0.294-2.36l-1.98-0.291l0.001-0.067l0.003-0.566   l2.067-0.136l0.105-0.058C-0.028-4.552-0.02-4.646-0.01-4.74C0-4.646,0.01-4.552,0.017-4.459l0.106,0.058l2.066,0.136l0.003,0.566   l0.001,0.067l-1.98,0.291c0.143,1.082,0.383,2.85,0.395,3.476l0.338,0.021L4.12,0.324V0.323l1.455,0.071v0.005l0.019,0.005   c0,0-0.015,0.009-0.014,0.022L5.817,0.26v0.318L5.578,0.907z" fill="#FFFFFF"/>
	</g></svg>