<?xml version="1.0" standalone="no"?>
<svg xmlns="http://www.w3.org/2000/svg" viewBox="-6.37 -6.37 12.74 12.74" color="#212121" width="75" height="75"><g transform="matrix(1 0 0 -1 0 0)">
		<g xmlns="http://www.w3.org/2000/svg">
			<path class="primary" fill="currentColor" d="M0.001-6.245c-3.444,0-6.246,2.802-6.246,6.245s2.802,6.245,6.246,6.245c3.443,0,6.244-2.802,6.244-6.245    S3.444-6.245,0.001-6.245z"/>
			<path class="secondary" d="M0.001,6.12C3.38,6.12,6.12,3.38,6.12,0S3.38-6.12,0.001-6.12C-3.38-6.12-6.12-3.38-6.12,0    S-3.38,6.12,0.001,6.12 M0.001,6.37C-3.512,6.37-6.37,3.513-6.37,0s2.858-6.37,6.371-6.37C3.513-6.37,6.37-3.513,6.37,0    S3.513,6.37,0.001,6.37L0.001,6.37z" fill="#FFFFFF"/>
		</g>
		<path xmlns="http://www.w3.org/2000/svg" id="RC-12_Huron_1_" class="secondary" d="M5.817,1.268c0.002-0.512-0.822-0.523-1.715-0.583c-0.766-0.052-1.59-0.181-1.887-0.224   c-0.643-0.091-1.598,0.099-1.65,0C0.513,0.363,0.29-2.984,0.29-2.984s1.52-0.943,1.598-1.048c0.078-0.104,0.039-0.753,0-0.825   C1.849-4.93,0.106-4.163,0.106-4.163S0.134-4.619,0.021-4.69v-0.001c-0.006-0.003-0.014-0.006-0.02-0.007   C-0.007-4.697-0.015-4.694-0.02-4.691c0,0,0.002,0.001,0,0.001c-0.113,0.071-0.084,0.527-0.084,0.527S-1.849-4.93-1.888-4.857   c-0.039,0.072-0.078,0.721,0,0.825C-1.81-3.928-0.29-2.984-0.29-2.984s-0.221,3.348-0.275,3.445c-0.051,0.099-1.008-0.091-1.648,0   C-2.51,0.504-3.334,0.633-4.1,0.685c-0.893,0.06-1.717,0.071-1.717,0.583c0,0.557,0.9,0.413,1.762,0.433   c0.73,0.015,1.33,0.025,1.434,0.07C-2.517,1.817-2.136,2.06-2.136,2.06s0.045,1.408,0.092,1.605   c0.012,0.051,0.023,0.103,0.041,0.15h-0.729v0.059h0.75c0.043,0.106,0.104,0.186,0.199,0.19c0.094,0.004,0.172-0.083,0.223-0.19   h0.721V3.815h-0.697c0.018-0.049,0.029-0.099,0.035-0.145c0.02-0.17,0.1-1.611,0.1-1.611s0.844,0.013,0.844,0.072   c0,0.056,0.172,2.473,0.518,2.712v0.001c0.014,0.009,0.027,0.016,0.041,0.017c0.013-0.001,0.024-0.007,0.04-0.016c0,0,0,0,0-0.001   c0.344-0.239,0.516-2.656,0.516-2.712c0-0.06,0.846-0.072,0.846-0.072s0.078,1.441,0.098,1.611C1.508,3.717,1.52,3.767,1.537,3.816   H0.839v0.059h0.723c0.051,0.107,0.129,0.194,0.221,0.19c0.095-0.005,0.155-0.085,0.2-0.191h0.75V3.815H2.005   c0.016-0.048,0.027-0.1,0.041-0.15C2.091,3.468,2.138,2.06,2.138,2.06s0.379-0.242,0.484-0.289C2.726,1.726,3.325,1.715,4.058,1.7   C4.919,1.681,5.817,1.824,5.817,1.268z" fill="#FFFFFF"/>
	</g></svg>