<?xml version="1.0" standalone="no"?>
<svg xmlns="http://www.w3.org/2000/svg" viewBox="-6.37 -6.37 12.74 12.74" color="#212121" width="75" height="75"><g transform="matrix(1 0 0 -1 0 0)">
		<g xmlns="http://www.w3.org/2000/svg">
			<path class="primary" fill="currentColor" d="M-0.001-6.245c-3.443,0-6.244,2.802-6.244,6.245s2.801,6.245,6.244,6.245c3.444,0,6.246-2.802,6.246-6.245    S3.443-6.245-0.001-6.245z"/>
			<path class="secondary" d="M-0.001,6.12C3.38,6.12,6.12,3.38,6.12,0S3.38-6.12-0.001-6.12C-3.38-6.12-6.12-3.38-6.12,0    S-3.38,6.12-0.001,6.12 M-0.001,6.37C-3.513,6.37-6.37,3.513-6.37,0s2.857-6.37,6.369-6.37C3.512-6.37,6.37-3.513,6.37,0    S3.512,6.37-0.001,6.37L-0.001,6.37z" fill="#FFFFFF"/>
		</g>
		<path xmlns="http://www.w3.org/2000/svg" id="Sukhoi_SU-47_Berkut_1_" class="secondary" d="M3.676-0.6l-2.41-0.88L0.868-0.647v0.203l0.65,0.207L1.64,0.111L0.856,1.027   c-0.048,0.495-0.47,1.327-0.47,1.327S0.362,4.728,0.044,4.932L0,5.887l-0.038-0.952c-0.324-0.173-0.336-2.581-0.336-2.581   s-0.494-0.627-0.494-1.29l-0.796-0.94l0.146-0.349l0.638-0.219v-0.203l-0.373-0.82l-2.434,0.855c0,0-0.447,0.085,0-0.94   l2.361-1.771l-0.421-1.809l0.107-0.362l0.676-0.083L-0.976-5.06c0,0,0.205-1.084,0.3,0.35l0.085-0.482h0.457l0.098,0.52h0.084   l0.036-0.52h0.495L0.663-4.71v-0.832c0,0,0.06-0.265,0.145-0.336C0.893-5.952,0.94-5.566,0.94-5.566l0.676,0.061l0.157,0.35   L1.29-3.312l2.386,1.759C4.146-0.455,3.676-0.6,3.676-0.6z" fill="#FFFFFF"/>
	</g></svg>