<?xml version="1.0" standalone="no"?>
<svg xmlns="http://www.w3.org/2000/svg" viewBox="-6.37 -6.37 12.74 12.74" color="#212121" width="75" height="75"><g transform="matrix(1 0 0 -1 0 0)">
		<g xmlns="http://www.w3.org/2000/svg">
			<circle class="primary" fill="currentColor" cx="0" cy="0" r="6.245"/>
			<path class="secondary" d="M0,6.12c3.38,0,6.12-2.74,6.12-6.12S3.38-6.12,0-6.12S-6.12-3.38-6.12,0S-3.38,6.12,0,6.12 M0,6.37    c-3.513,0-6.37-2.857-6.37-6.37S-3.513-6.37,0-6.37S6.37-3.513,6.37,0S3.513,6.37,0,6.37L0,6.37z" fill="#FFFFFF"/>
		</g>
		<path xmlns="http://www.w3.org/2000/svg" id="SukhoI_Su-27_3_" class="secondary" d="M0.742-4.66c-0.123,0-0.17,0-0.461,0c0,0,0-0.137,0-0.133   c0,0.029,0.034,0.073,0.023,0.111c-0.018,0.067-0.01,0.147-0.028,0.215c-0.01,0.038,0.007,0.115-0.023,0.134   c-0.01-0.094-0.048-0.194-0.076-0.279C0.153-4.686,0.155-4.753,0.133-4.828C0.084-5,0.065-5.189,0.064-5.416   c0-0.136,0.021-0.395-0.098-0.402C-0.052-5.79-0.075-5.762-0.086-5.725C-0.1-5.677-0.047-5.611-0.048-5.556   c-0.003,0.072,0.037,0.163,0.037,0.245c0,0.065,0,0.132,0,0.198c0,0.187-0.125,0.388-0.183,0.565   c-0.021,0.063-0.048,0.175-0.085,0.221c-0.01-0.101-0.055-0.214-0.081-0.309c-0.014-0.05-0.012-0.051-0.04-0.09   C-0.42-4.74-0.479-4.66-0.51-4.66c-0.087,0-0.174,0-0.262,0c0.001,0-0.014,0.194-0.035,0.289c-0.008,0.037,0.009,0.068-0.017,0.086   c-0.011-0.041-0.044-0.09-0.064-0.123C-0.942-4.494-0.993-4.59-1.046-4.673c-0.022-0.036-0.037-0.114-0.087-0.121   c-0.049-0.029-0.205-0.027-0.274-0.043c-0.192-0.045-0.406-0.068-0.605-0.094c-0.062,0.108-0.139,0.209-0.209,0.314   C-2.25-4.575-2.303-4.529-2.314-4.473c0.049,0.032,0.093,0.093,0.128,0.14c0.047,0.062,0.12,0.115,0.169,0.181   C-1.972-4.093-1.9-4.05-1.854-3.99c0.123,0.164,0.289,0.291,0.413,0.454c0.027,0.025,0.055,0.05,0.082,0.075   c0.05,0.067,0.085,0.12,0.135,0.187c0.025,0.023,0.048,0.047,0.048,0.07c0,0.099,0,0.198,0,0.297c0,0.028,0.034,0.18,0.033,0.227   c-0.069-0.003-0.125-0.038-0.185-0.058c-0.136-0.046-0.268-0.078-0.4-0.123c-0.376-0.125-0.75-0.207-1.125-0.332   c-0.151-0.05-0.29-0.088-0.446-0.14c-0.07-0.023-0.207-0.059-0.207-0.07c0,0.004,0,0.008,0,0.012c0,0.047,0,0.269,0,0.361   c0,0.231,0,0.461,0,0.692c0,0.129-0.029,0.289-0.003,0.39c0.01,0.006,0.003,0.008,0.003,0.012c0-0.001,0-0.104,0-0.104   s-0.015,0-0.012,0c0.045,0,0.029-0.291,0.029-0.291c0.002,0,0.003,0,0.006,0c0.019,0,0.049,0.026,0.075,0.046   c0.058,0.043,0.104,0.092,0.163,0.137c0.039,0.028,0.067,0.071,0.105,0.1c0.134,0.102,0.244,0.228,0.378,0.33   c0.067,0.051,0.119,0.128,0.186,0.18c0.238,0.179,0.426,0.419,0.664,0.599C-1.895-0.919-1.877-0.9-1.86-0.881   c0.033,0.031,0.068,0.06,0.104,0.087c0.023,0.025,0.047,0.05,0.07,0.075C-1.594-0.65-1.521-0.561-1.43-0.492   c0.025,0.027,0.051,0.055,0.076,0.081c0.143,0.109,0.28,0.248,0.378,0.402C-0.782,0.298-0.689,0.68-0.58,1.073   c0.021,0.121,0.042,0.241,0.064,0.361c0.022,0.101-0.061,0.223-0.039,0.32c0.022,0.104-0.039,0.213-0.039,0.309   c0,0.025,0,0.05,0,0.076c0,0.092,0.126,0.205,0.146,0.297c0.026,0.121,0.146,0.266,0.146,0.384c0,0.026,0,0.051,0,0.076   c0,0.12-0.046,0.263-0.019,0.384c0.001,0.05-0.024,0.101-0.022,0.151c0.033,0.148-0.005,0.323,0.027,0.471   c0.002,0.089-0.002,0.179-0.001,0.268c0.037,0.168,0.012,0.373,0.049,0.536C-0.24,4.828-0.25,4.941-0.217,5.055   c0.021,0.075,0.084,0.157,0.114,0.227c0.011,0.023,0.092,0.05,0.092,0.07c0,0.018,0,0.035,0,0.052c0,0.046-0.019,0.099-0.005,0.14   c0.02,0.061,0,0.153,0.018,0.209C0.01,5.782-0.032,5.803-0.01,5.817c-0.001-0.058-0.001-0.084-0.001-0.128c0-0.025,0-0.051,0-0.076   c0-0.055,0.049-0.114,0.065-0.169c0.004-0.031,0.014-0.062,0.018-0.093C0.079,5.33,0.107,5.308,0.115,5.287   C0.133,5.235,0.152,5.183,0.17,5.131C0.221,4.972,0.219,4.79,0.257,4.619c0.014-0.06,0.006-0.125,0.018-0.181   c0.011-0.225-0.012-0.45-0.001-0.675C0.307,3.619,0.28,3.447,0.28,3.304c0-0.026,0-0.051,0-0.076c0-0.12,0-0.265,0-0.384   c0-0.025,0-0.05,0-0.076c0-0.093,0-0.209,0-0.303c0-0.025,0-0.05,0-0.076c0.291-0.093,0-0.209,0.291-0.303c0-0.025,0-0.05,0-0.075   c0-0.097-0.062-0.212-0.04-0.314c0.017-0.078-0.033-0.181-0.015-0.262c0.023-0.128,0.03-0.256,0.054-0.384   c0.111-0.396,0.204-0.773,0.399-1.083c0.082-0.129,0.196-0.247,0.316-0.337c0.027-0.028,0.05-0.055,0.075-0.082   c0.062-0.047,0.111-0.104,0.174-0.151C1.59-0.644,1.629-0.711,1.685-0.754c0.269-0.203,0.48-0.477,0.75-0.681   c0.07-0.053,0.123-0.134,0.192-0.187c0.201-0.152,0.363-0.349,0.564-0.5C3.267-2.18,3.339-2.256,3.417-2.314   C3.438-2.33,3.484-2.352,3.484-2.366c0,0.124,0,0.249,0,0.373c0,0.011-0.01,0.026-0.005,0.041C3.49-1.945,3.484-1.94,3.484-1.935   c0-0.001,0-0.004,0-0.006c0-0.059,0-0.264,0-0.373c0-0.213,0-0.427,0-0.64c0-0.152,0.033-0.324,0.005-0.442   C3.484-3.398,3.526-3.4,3.521-3.402C2.716-3.159,2.028-2.917,1.154-2.674c0-0.046,0-0.093,0-0.14c0-0.022-0.029-0.083-0.029-0.116   c0.002-0.091-0.013-0.182-0.011-0.273c0.397-0.425,0.787-0.85,1.184-1.274C2.24-4.599,2.135-4.707,2.061-4.816   C2.037-4.853,2.013-4.927,1.96-4.933c-0.05,0.03-0.168,0.019-0.233,0.035C1.64-4.877,1.544-4.879,1.452-4.857   C1.337-4.83,1.202-4.809,1.079-4.799c-0.01,0.041-0.043,0.072-0.064,0.104C0.967-4.616,0.93-4.562,0.881-4.485   c-0.028,0.043-0.07,0.116-0.088,0.116c-0.002,0-0.003,0-0.005,0c-0.015,0-0.004-0.074-0.023-0.16C0.75-4.597,0.743-4.66,0.742-4.66   z" fill="#FFFFFF"/>
	</g></svg>