<?xml version="1.0" standalone="no"?>
<svg xmlns="http://www.w3.org/2000/svg" viewBox="-6.37 -6.37 12.74 12.74" color="#212121" width="75" height="75"><g transform="matrix(1 0 0 -1 0 0)">
		<g xmlns="http://www.w3.org/2000/svg">
			<path class="primary" fill="currentColor" d="M-0.001-6.245c-3.443,0-6.244,2.802-6.244,6.245s2.801,6.245,6.244,6.245c3.444,0,6.246-2.802,6.246-6.245    S3.443-6.245-0.001-6.245z"/>
			<path class="secondary" d="M-0.001,6.12C3.38,6.12,6.12,3.38,6.12,0S3.38-6.12-0.001-6.12C-3.38-6.12-6.12-3.38-6.12,0    S-3.38,6.12-0.001,6.12 M-0.001,6.37C-3.513,6.37-6.37,3.513-6.37,0s2.857-6.37,6.369-6.37C3.512-6.37,6.37-3.513,6.37,0    S3.512,6.37-0.001,6.37L-0.001,6.37z" fill="#FFFFFF"/>
		</g>
		<g xmlns="http://www.w3.org/2000/svg" id="BL_TI_Jayhawk_2_">
			<path class="secondary" d="M4.938,0.135C4.743,0.339,0.685,1.84,0.661,2.122C0.636,2.405,0.632,3.058,0.632,3.486    s-0.273,1.91-0.273,1.91S0.356,5.462,0.394,5.534c0.035,0.072-0.123,0.073-0.123,0.073S0.099,5.972,0,5.943    c-0.098,0.029-0.271-0.336-0.271-0.336s-0.158-0.001-0.121-0.073c0.035-0.072,0.033-0.138,0.033-0.138s-0.272-1.481-0.272-1.91    s-0.006-1.081-0.028-1.364C-0.685,1.84-4.743,0.339-4.938,0.135C-5.134-0.07-5.222-0.543-5.153-0.566    c0.053-0.02,2.697,0.529,3.895,0.745C-1.286,0.03-1.351-0.356-1.323-0.694C-1.289-1.123-1.128-1.6-1.128-1.6    s0.033-0.064,0.166-0.069c0.131-0.005,0.194,0.117,0.194,0.117s0.243-0.429,0.292-0.486c0.05-0.06,0.147,0,0.147,0    s0.043-0.922,0.077-1.015c0.033-0.093,0.088-0.088,0.088-0.088l0.115-0.627l-0.006-0.254c0,0-1.682-0.907-1.812-1.039    c-0.129-0.131-0.051-0.5-0.051-0.5l1.891,0.475l0.023-0.254L0-5.368l0.003,0.026v0.002l0.023,0.254l1.891-0.475    c0,0,0.077,0.369-0.052,0.5c-0.131,0.132-1.811,1.04-1.811,1.04L0.048-3.768l0.116,0.627c0,0,0.054-0.005,0.087,0.088    C0.284-2.96,0.329-2.038,0.329-2.038s0.097-0.06,0.146,0C0.524-1.98,0.768-1.552,0.768-1.552s0.063-0.122,0.194-0.117    C1.095-1.664,1.128-1.6,1.128-1.6s0.16,0.477,0.195,0.905C1.35-0.356,1.285,0.03,1.258,0.179c1.197-0.216,3.841-0.765,3.895-0.745    C5.221-0.543,5.133-0.07,4.938,0.135z M-0.699-0.012l-0.144,0.26C-0.747,0.262-0.69,0.267-0.68,0.262    c0.097-0.054,0.078-0.191,0.088-0.273C-0.583-0.095-0.699-0.012-0.699-0.012z M0.7-0.012c0,0-0.117-0.083-0.108,0    c0.01,0.082-0.009,0.22,0.088,0.273c0.011,0.005,0.067,0,0.163-0.014L0.7-0.012z" fill="#FFFFFF"/>
		</g>
	</g></svg>