<?xml version="1.0" standalone="no"?>
<svg xmlns="http://www.w3.org/2000/svg" viewBox="-6.37 -6.37 12.74 12.74" color="#212121" width="75" height="75"><g transform="matrix(1 0 0 -1 0 0)">
		<g xmlns="http://www.w3.org/2000/svg">
			<circle class="primary" fill="currentColor" cx="0" cy="0" r="6.245"/>
			<path class="secondary" d="M0,6.12c3.38,0,6.12-2.74,6.12-6.12S3.38-6.12,0-6.12S-6.12-3.38-6.12,0S-3.38,6.12,0,6.12 M0,6.37    c-3.513,0-6.37-2.857-6.37-6.37S-3.513-6.37,0-6.37S6.37-3.513,6.37,0S3.513,6.37,0,6.37L0,6.37z" fill="#FFFFFF"/>
		</g>
		<path xmlns="http://www.w3.org/2000/svg" id="T6_Texan_2_1_" class="secondary" d="M0.465-1.844C0.402-2.416,0.244-3.238,0.249-3.33c0.013-0.238,0.266-0.945,0.297-0.994   c0.03-0.051,1.073-0.182,1.332-0.301c0.155-0.031,0.19-0.84,0.02-0.861c-0.171-0.023-1.64-0.203-1.88-0.18   c-0.006,0-0.012,0.008-0.017,0.021c-0.006-0.014-0.012-0.021-0.018-0.021c-0.24-0.023-1.71,0.156-1.88,0.18   c-0.171,0.021-0.136,0.83,0.02,0.861c0.259,0.119,1.302,0.25,1.332,0.301c0.031,0.049,0.283,0.756,0.297,0.994   c0.005,0.092-0.153,0.914-0.217,1.486c-0.098,0.893-0.116,1.643-0.116,1.643s-0.76,0-0.963,0c-0.204,0-4.173,0.445-4.221,0.525   c-0.05,0.082-0.087,1.063,0,1.275C-5.679,1.812-0.647,1.912-0.556,2c0.093,0.086-0.008,2.256-0.008,2.256s-0.175,0.131-0.186,0.23   c-0.018,0.195,0.198,0.287,0.198,0.287s0.184,0.07,0.217,0.082c0.032,0.012,0.08,0.273,0.08,0.273l-1.063,0.033l0.006,0.074   l1.063,0.076c0,0,0.148,0.332,0.243,0.355l0,0c0.002,0,0.004,0,0.006,0c0.001,0,0.002,0,0.005,0l0,0   c0.093-0.023,0.243-0.355,0.243-0.355L1.31,5.235l0.006-0.074l-1.06-0.032c0,0,0.047-0.262,0.079-0.273   c0.033-0.012,0.217-0.082,0.217-0.082S0.768,4.682,0.75,4.486c-0.011-0.1-0.186-0.23-0.186-0.23S0.464,2.086,0.557,2   C0.648,1.912,5.68,1.812,5.766,1.6c0.088-0.213,0.05-1.193,0-1.275C5.718,0.245,1.749-0.2,1.545-0.2c-0.203,0-0.963,0-0.963,0   S0.563-0.951,0.465-1.844z" fill="#FFFFFF"/>
	</g></svg>