<?xml version="1.0" standalone="no"?>
<svg xmlns="http://www.w3.org/2000/svg" viewBox="-6.37 -6.37 12.74 12.74" color="#212121" width="75" height="75"><g transform="matrix(1 0 0 -1 0 0)">
		<g xmlns="http://www.w3.org/2000/svg">
			<path class="primary" fill="currentColor" d="M0.001-6.245c-3.444,0-6.246,2.802-6.246,6.245s2.802,6.245,6.246,6.245c3.443,0,6.244-2.802,6.244-6.245    S3.444-6.245,0.001-6.245z"/>
			<path class="secondary" d="M0.001,6.12C3.38,6.12,6.12,3.38,6.12,0S3.38-6.12,0.001-6.12C-3.38-6.12-6.12-3.38-6.12,0    S-3.38,6.12,0.001,6.12 M0.001,6.37C-3.512,6.37-6.37,3.513-6.37,0s2.858-6.37,6.371-6.37C3.513-6.37,6.37-3.513,6.37,0    S3.513,6.37,0.001,6.37L0.001,6.37z" fill="#FFFFFF"/>
		</g>
		<path xmlns="http://www.w3.org/2000/svg" id="U-2_Dragon_Lady_1_" class="secondary" d="M5.786-0.19L2.035,0.431c0.002,0.046,0.002,0.094,0.002,0.143   c0,0.378-0.048,0.684-0.107,0.684S1.823,0.952,1.823,0.574c0-0.037,0.001-0.073,0.002-0.107L0.481,0.674   c0.097,0.809-0.033,1.13-0.033,1.13H0.31c0,0.712-0.162,1.731-0.299,1.731s-0.298-1.02-0.298-1.731h-0.144c0,0-0.151-0.508,0-1.139   l-1.373-0.216C-1.803,0.487-1.803,0.53-1.803,0.57c0,0.377-0.048,0.685-0.106,0.685c-0.06,0-0.107-0.305-0.107-0.683   c0-0.053,0.001-0.102,0.002-0.15L-5.793-0.19c0,0-0.076-0.324,0.041-0.408l2.246-0.14c0.01-0.104,0.027-0.173,0.049-0.173   c0.02,0,0.037,0.066,0.047,0.166l3.056-0.189c0,0,0.076-1.253,0.126-1.514l-1.127-0.327c0,0-0.05-0.143,0.009-0.328l1.221-0.177   C-0.114-3.35-0.1-3.394-0.083-3.394c0.01,0,0.02,0.008,0.028,0.039l0.037-0.181h0.06L0.07-3.358C0.079-3.389,0.088-3.4,0.099-3.4   c0.017,0,0.031,0.049,0.042,0.121l1.236,0.166c0,0,0.043,0.152,0,0.337L0.264-2.439c0,0,0.092,0.924,0.088,1.513l3.072,0.184   C3.434-0.844,3.451-0.91,3.471-0.91c0.021,0,0.039,0.069,0.049,0.174l2.267,0.135C5.786-0.603,5.858-0.385,5.786-0.19z" fill="#FFFFFF"/>
	</g></svg>