<?xml version="1.0" standalone="no"?>
<svg xmlns="http://www.w3.org/2000/svg" viewBox="-6.37 -6.37 12.74 12.74" color="#212121" width="75" height="75"><g transform="matrix(1 0 0 -1 0 0)">
		<g xmlns="http://www.w3.org/2000/svg">
			<path class="primary" fill="currentColor" d="M0.001-6.245c-3.444,0-6.246,2.802-6.246,6.245s2.802,6.245,6.246,6.245c3.443,0,6.244-2.802,6.244-6.245    S3.444-6.245,0.001-6.245z"/>
			<path class="secondary" d="M0.001,6.12C3.38,6.12,6.12,3.38,6.12,0S3.38-6.12,0.001-6.12C-3.38-6.12-6.12-3.38-6.12,0    S-3.38,6.12,0.001,6.12 M0.001,6.37C-3.512,6.37-6.37,3.513-6.37,0s2.858-6.37,6.371-6.37C3.513-6.37,6.37-3.513,6.37,0    S3.513,6.37,0.001,6.37L0.001,6.37z" fill="#FFFFFF"/>
		</g>
		<path xmlns="http://www.w3.org/2000/svg" id="WC-135_Constant_Phoenix_1_" class="secondary" d="M-5.533-1.854c0.1,0.191,1.017,0.542,1.017,0.542s-0.657,0.536-0.665,0.674   c-0.007,0.137,0.146,0.229,0.337,0.252c0.191,0.022,0.505-0.489,0.551-0.559c0.045-0.068,0.029-0.244,0.029-0.244l1.154,0.581   c0,0-0.664,0.795-0.68,0.963c-0.016,0.169,0.213,0.359,0.475,0.206c0.26-0.153,0.527-0.626,0.534-0.756   c0.008-0.128-0.044-0.283-0.047-0.291C-2.801-0.475-0.98,0.188-0.927,0.31c0.046,0.107,0.117,2.823,0.703,3.447l0,0   c0.066,0.07,0.139,0.114,0.218,0.124C0.081,3.874,0.159,3.828,0.23,3.752c0.583-0.629,0.653-3.335,0.7-3.442   c0.054-0.121,1.868-0.784,1.897-0.795C2.825-0.478,2.772-0.322,2.781-0.194c0.007,0.13,0.274,0.603,0.533,0.756   c0.262,0.153,0.49-0.037,0.476-0.206C3.774,0.188,3.11-0.607,3.11-0.607l1.153-0.581c0,0-0.015,0.176,0.03,0.244   c0.045,0.069,0.359,0.581,0.551,0.559C5.035-0.407,5.188-0.5,5.18-0.637C5.174-0.775,4.516-1.312,4.516-1.312   s0.917-0.351,1.018-0.542C5.632-2.045,5.272-2.07,5.157-2.037c-0.114,0.033-4.188,1.56-4.363,1.269   C0.616-1.059,0.19-2.26,0.228-2.267c0.035-0.006,1.116-0.244,1.116-0.244S1.321-2.634,1.236-2.625C1.162-2.618,0.224-2.53,0-2.509   C-0.224-2.53-1.162-2.618-1.237-2.625c-0.084-0.009-0.106,0.114-0.106,0.114s1.08,0.238,1.115,0.244   c0.036,0.007-0.39,1.208-0.565,1.498c-0.175,0.291-4.25-1.235-4.365-1.269C-5.273-2.07-5.632-2.045-5.533-1.854z" fill="#FFFFFF"/>
	</g></svg>