<?xml version="1.0" standalone="no"?>
<svg xmlns="http://www.w3.org/2000/svg" viewBox="-6.37 -6.37 12.74 12.74" color="#212121" width="75" height="75"><g transform="matrix(1 0 0 -1 0 0)">
		<g xmlns="http://www.w3.org/2000/svg">
			<path class="primary" fill="currentColor" d="M0.001-6.245c-3.444,0-6.246,2.802-6.246,6.245s2.802,6.245,6.246,6.245c3.443,0,6.244-2.802,6.244-6.245    S3.444-6.245,0.001-6.245z"/>
			<path class="secondary" d="M0.001,6.12C3.38,6.12,6.12,3.38,6.12,0S3.38-6.12,0.001-6.12C-3.38-6.12-6.12-3.38-6.12,0    S-3.38,6.12,0.001,6.12 M0.001,6.37C-3.512,6.37-6.37,3.513-6.37,0s2.858-6.37,6.371-6.37C3.513-6.37,6.37-3.513,6.37,0    S3.513,6.37,0.001,6.37L0.001,6.37z" fill="#FFFFFF"/>
		</g>
		<path xmlns="http://www.w3.org/2000/svg" id="WC-I35_Hercules_1_" class="secondary" d="M5.812,0.378C5.787,0,5.687-0.024,5.687-0.024L4.466-0.15c0,0-0.051-0.529-0.15-0.529   c-0.102,0-0.127,0.441-0.127,0.441L2.791-0.377c0,0,0.013-0.517-0.088-0.517S2.54-0.377,2.54-0.377S1.003-0.465,0.802-0.553   C0.601-0.642,0.575-0.755,0.575-0.755S0.701-2.416,0.601-2.48C0.5-2.543,0.538-2.744,0.538-2.744s1.724-0.239,1.8-0.34   c0.075-0.101,0.113-0.303,0-0.415c-0.113-0.114-1.844-0.21-1.989-0.315c-0.112-0.081-0.268-0.193-0.333-0.24   C0.009-4.06,0.004-4.063-0.001-4.067c-0.004,0.003-0.01,0.008-0.017,0.013l0,0c-0.066,0.047-0.222,0.159-0.333,0.24   C-0.496-3.709-2.227-3.613-2.34-3.499c-0.113,0.112-0.076,0.314,0,0.415c0.076,0.101,1.801,0.34,1.801,0.34   s0.037,0.201-0.063,0.264c-0.101,0.064,0.025,1.726,0.025,1.726s-0.025,0.113-0.227,0.202c-0.201,0.088-1.737,0.176-1.737,0.176   s-0.063-0.517-0.164-0.517s-0.088,0.517-0.088,0.517L-4.19-0.238c0,0-0.025-0.441-0.126-0.441c-0.102,0-0.15,0.529-0.15,0.529   l-1.222,0.126c0,0-0.101,0.024-0.126,0.402C-5.84,0.756-5.727,0.807-5.727,0.807h1.221c0,0,0.025,0.378,0.177,0.378   S-4.14,0.869-4.14,0.869h0.604c0,0-0.007,0.5,0.047,0.73h-0.534v0.025h0.541c0.016,0.054,0.034,0.088,0.061,0.088   c0.024,0,0.048-0.034,0.07-0.088h0.461V1.6h-0.452c0.082-0.23,0.135-0.73,0.135-0.73h0.353c0,0,0.037,0.428,0.15,0.428   S-2.603,0.87-2.603,0.87h0.579c0,0,0.044,0.492,0.126,0.73h-0.449v0.025h0.458c0.023,0.062,0.05,0.101,0.08,0.101   c0.029,0,0.054-0.038,0.073-0.101h0.522V1.6h-0.515c0.067-0.238,0.082-0.73,0.082-0.73h0.869c0,0,0,0.139,0,0.416   s0.176,0.138,0.176,0.138s0,0.92,0,1.386c0,0.465,0.328,0.768,0.328,0.768s0.044,0.433,0.248,0.486   c0.008,0.002,0.017,0.004,0.025,0.004c0.009,0,0.018-0.002,0.026-0.004C0.228,4.01,0.272,3.578,0.272,3.578S0.6,3.275,0.6,2.81   c0-0.466,0-1.386,0-1.386s0.177,0.14,0.177-0.138c0-0.277,0-0.416,0-0.416h0.868c0,0,0.016,0.53,0.09,0.756h-0.47V1.65h0.479   c0.018,0.046,0.039,0.075,0.064,0.075s0.049-0.029,0.07-0.075h0.519V1.625H1.889c0.088-0.226,0.135-0.756,0.135-0.756h0.579   c0,0-0.013,0.428,0.101,0.428c0.113,0,0.15-0.428,0.15-0.428h0.353c0,0,0.052,0.483,0.13,0.718H2.908v0.025h0.438   c0.022,0.062,0.048,0.101,0.075,0.101s0.048-0.039,0.063-0.101h0.557V1.587H3.49c0.051-0.234,0.044-0.718,0.044-0.718h0.604   c0,0,0.037,0.315,0.188,0.315s0.177-0.378,0.177-0.378h1.221C5.725,0.807,5.839,0.756,5.812,0.378z" fill="#FFFFFF"/>
	</g></svg>