<?xml version="1.0" standalone="no"?>
<svg xmlns="http://www.w3.org/2000/svg" viewBox="-8.846 -8.846 17.693 17.693" color="#212121" width="75" height="75"><g transform="matrix(1 0 0 -1 0 0)">
    <g xmlns="http://www.w3.org/2000/svg">
      <circle fill="currentColor" class="primary" cx="0" cy="0" r="8.846"/>
      <path class="secondary" d="M0-8.971c-4.946,0-8.971,4.024-8.971,8.971S-4.946,8.971,0,8.971c4.947,0,8.971-4.024,8.971-8.971 S4.947-8.971,0-8.971z M0,8.721c-4.809,0-8.721-3.912-8.721-8.721S-4.809-8.721,0-8.721c4.809,0,8.721,3.912,8.721,8.721 S4.809,8.721,0,8.721z" fill="#FFFFFF"/>
    </g>
    <path xmlns="http://www.w3.org/2000/svg" class="secondary" d="M-5.806,3.056h3.056c0.169,0,0.306-0.137,0.306-0.306V1.834h0.611v1.528c0,0.169,0.137,0.306,0.306,0.306 h0.306v0.917c0,0.169,0.137,0.306,0.306,0.306h1.834c0.169,0,0.306-0.137,0.306-0.306V3.667h0.306c0.169,0,0.306-0.137,0.306-0.306 V1.834h0.611v0.916c0,0.169,0.137,0.306,0.306,0.306h3.056c0.169,0,0.306-0.137,0.306-0.306V0.306C6.112,0.137,5.975,0,5.806,0 H2.751C2.582,0,2.445,0.137,2.445,0.306v0.917H1.834v-1.528c0-0.169-0.137-0.306-0.306-0.306H1.222V-2.7 c0.19-0.083,0.37-0.186,0.538-0.304c0.512-0.361,0.908-0.876,1.121-1.478c0.056-0.159-0.027-0.333-0.186-0.389 C2.662-4.884,2.627-4.889,2.594-4.889L-2.594-4.89c-0.169,0-0.306,0.137-0.306,0.306c0,0.043,0.009,0.084,0.025,0.121 C-2.66-3.87-2.268-3.362-1.761-3.004L-1.74-2.99C-1.578-2.877-1.405-2.78-1.222-2.7v2.089h-0.306c-0.169,0-0.306,0.137-0.306,0.306 v1.528h-0.611V0.306C-2.445,0.137-2.582,0-2.751,0h-3.056c-0.169,0-0.306,0.137-0.306,0.306V2.75 C-6.112,2.919-5.975,3.056-5.806,3.056L-5.806,3.056z M0.836-3.202C0.822-3.198,0.808-3.193,0.795-3.187 C0.546-3.102,0.279-3.056,0-3.056c-0.278,0-0.545-0.046-0.794-0.131c-0.014-0.006-0.028-0.011-0.043-0.015 C-1.035-3.274-1.221-3.37-1.391-3.488l-0.02-0.015c-0.288-0.204-0.531-0.469-0.708-0.776h4.237C1.941-3.972,1.699-3.707,1.41-3.502 C1.235-3.378,1.042-3.276,0.836-3.202L0.836-3.202z M0.611-2.506v1.895h-1.222v-1.895C-0.413-2.466-0.209-2.445,0-2.445 S0.414-2.466,0.611-2.506L0.611-2.506z M-0.611,3.667h1.222v0.611h-1.222V3.667L-0.611,3.667z M0.933,3.056l-0.016,0l-0.016,0 h-1.818h-0.306V1.528V0h2.139h0.306v1.528v1.528H0.933L0.933,3.056z M5.501,2.444H3.056V0.611h2.445V2.444L5.501,2.444z M-3.056,2.445h-2.445V0.612h2.445V2.445L-3.056,2.445z" fill="#FFFFFF"/>
  </g></svg>