<?xml version="1.0" standalone="no"?>
<svg xmlns="http://www.w3.org/2000/svg" viewBox="-8.846 -8.846 17.693 17.693" color="#212121" width="75" height="75"><g transform="matrix(1 0 0 -1 0 0)">
    <g xmlns="http://www.w3.org/2000/svg">
      <circle fill="currentColor" class="primary" cx="0" cy="0" r="8.846"/>
      <path class="secondary" d="M0-8.971c-4.946,0-8.971,4.024-8.971,8.971S-4.946,8.971,0,8.971c4.947,0,8.971-4.024,8.971-8.971 S4.947-8.971,0-8.971z M0,8.721c-4.809,0-8.721-3.912-8.721-8.721S-4.809-8.721,0-8.721c4.809,0,8.721,3.912,8.721,8.721 S4.809,8.721,0,8.721z" fill="#FFFFFF"/>
    </g>
    <path xmlns="http://www.w3.org/2000/svg" class="secondary" d="M0.857-4.061L0-3.204C-0.11-3.094-0.11-2.914,0-2.804l0.601,0.601L0.201-1.802l-0.809-0.809 c-0.108-0.108-0.25-0.162-0.392-0.162c-0.132,0-0.264,0.047-0.37,0.142l-0.023,0.02l-0.409,0.409l-0.409-0.409 c0.237-0.277,0.426-0.584,0.567-0.907c0.182-0.417,0.283-0.864,0.303-1.316l0-0.008c0.004-0.087-0.018-0.169-0.062-0.239 c-0.043-0.07-0.108-0.127-0.187-0.162C-1.663-5.277-1.743-5.286-1.82-5.275l-0.015,0.002c-0.082,0.016-0.158,0.055-0.219,0.115 l-3.103,3.103c-0.061,0.061-0.1,0.137-0.115,0.219c-0.015,0.082-0.006,0.167,0.028,0.246c0.035,0.079,0.092,0.144,0.162,0.187 c0.07,0.044,0.153,0.065,0.238,0.062c0.455-0.019,0.905-0.121,1.325-0.304c0.324-0.141,0.63-0.33,0.907-0.567l0.409,0.409 l-0.409,0.409C-2.72-1.284-2.774-1.143-2.774-1.001c0,0.142,0.054,0.284,0.162,0.392L-1.802,0.2l-0.401,0.401L-2.804,0 c-0.111-0.111-0.29-0.111-0.401,0L-4.2,0.994l-0.007,0.006l-0.006,0.007l-0.995,0.995c-0.111,0.111-0.111,0.29,0,0.401l1.602,1.602 c0.111,0.111,0.29,0.111,0.401,0l0.996-0.996l0.005-0.005l0.005-0.005l0.996-0.996c0.111-0.111,0.111-0.29,0-0.401l-0.6-0.6 l0.401-0.401L-0.2,1.802l-0.009,0.009c-0.218,0.219-0.327,0.506-0.327,0.792c0,0.279,0.104,0.558,0.31,0.774l1.828,1.83 c0.111,0.111,0.29,0.111,0.401,0l0.185-0.185c0.68-0.65,1.352-1.333,2.022-2.013c0.291-0.295,0.585-0.594,0.997-1.006 c0.111-0.111,0.111-0.29,0-0.401L3.395-0.21C3.177-0.428,2.89-0.537,2.603-0.537c-0.287,0-0.574,0.109-0.792,0.327L1.802-0.201 L0.601-1.402l0.401-0.401l0.601,0.601c0.111,0.111,0.29,0.111,0.401,0l0,0l1.023-1.024L3.032-2.23l0.005-0.005l0.969-0.969 c0.111-0.111,0.111-0.29,0-0.401L2.404-5.207c-0.111-0.111-0.29-0.111-0.401,0L1.201-4.405L0.857-4.061z M1.826-1.821L0.625-3.023 l1.578-1.583l1.201,1.201L2.831-2.831L1.826-1.821z M-4.625,2.264L-3.004,0.6l0.596,0.596l0.005,0.005l0.005,0.005l0.595,0.595 l-1.621,1.663 M-1.947-4.463c-0.042,0.246-0.114,0.488-0.214,0.719c-0.149,0.341-0.363,0.66-0.643,0.94s-0.6,0.494-0.94,0.643 c-0.231,0.101-0.472,0.172-0.719,0.214L-1.947-4.463L-1.947-4.463z" fill="#FFFFFF"/>
  </g></svg>