<?xml version="1.0" standalone="no"?>
<svg xmlns="http://www.w3.org/2000/svg" viewBox="-8.846 -8.846 17.693 17.693" color="#212121" width="75" height="75"><g transform="matrix(1 0 0 -1 0 0)">
    <g xmlns="http://www.w3.org/2000/svg">
      <circle fill="currentColor" class="primary" cx="0" cy="0" r="8.846"/>
      <path class="secondary" d="M0-8.971c-4.946,0-8.971,4.024-8.971,8.971S-4.946,8.971,0,8.971c4.947,0,8.971-4.024,8.971-8.971 S4.947-8.971,0-8.971z M0,8.721c-4.809,0-8.721-3.912-8.721-8.721S-4.809-8.721,0-8.721c4.809,0,8.721,3.912,8.721,8.721 S4.809,8.721,0,8.721z" fill="#FFFFFF"/>
    </g>
    <path xmlns="http://www.w3.org/2000/svg" fill-rule="evenodd" clip-rule="evenodd" class="secondary" d="M5.23-2.297l1.034-0.621L6.176-3.252L5.94-3.36L4.826-2.668 l0.065,0.271L5.23-2.297L5.23-2.297z M5.815-1.384L3.463,0.033l3.754,1.302v0.432l-3.67,1.908l-3.714-0.894L0.279,1.95L-2.243,3.47 l-1.582-0.18l-0.349-1.556l-3.043-0.596V0.584l3.561-3.195l6.02,2.038l0.765-0.491L2.2-1.158L1.476-1.936l2.701-1.74l0.602,0.201 L4.015-3.001l0.282,1.168l1.031,0.306L5.717-1.76L5.815-1.384L5.815-1.384z M1.38,1.287l3.646,1.056l0.688-0.374l-3.58-1.136 L1.38,1.287L1.38,1.287z M-2.942,1.95l-0.013,0.711L-2.057,2.1L-2.942,1.95L-2.942,1.95z M0.847,0.424l-4.633-1.471l-0.689,0.639 l4.566,1.322L0.847,0.424z" fill="#FFFFFF"/>
  </g></svg>