<?xml version="1.0" standalone="no"?>
<svg xmlns="http://www.w3.org/2000/svg" viewBox="-6.37 -6.37 12.74 12.74" color="#212121" width="75" height="75"><g transform="matrix(1 0 0 -1 0 0)">
    <g xmlns="http://www.w3.org/2000/svg">
      <path class="primary" fill="currentColor" d="M0-6.245c-3.444,0-6.245,2.802-6.245,6.246c0,3.443,2.802,6.244,6.245,6.244s6.245-2.801,6.245-6.244    C6.245-3.443,3.444-6.245,0-6.245z"/>
      <path class="secondary" d="M0,6.12c3.38,0,6.12-2.74,6.12-6.119C6.12-3.38,3.38-6.12,0-6.12s-6.12,2.74-6.12,6.121    C-6.12,3.38-3.38,6.12,0,6.12 M0,6.37c-3.513,0-6.37-2.857-6.37-6.369C-6.37-3.512-3.513-6.37,0-6.37s6.37,2.858,6.37,6.371    C6.37,3.513,3.513,6.37,0,6.37L0,6.37z" fill="#FFFFFF"/>
    </g>
    <g xmlns="http://www.w3.org/2000/svg" id="Electronice_Warfare_1_">
      <path class="secondary" d="M3.276-2.973L3.028-3.22c0.036-0.39-0.029-0.664-0.193-0.785c-0.393-0.287-1.5,0.248-2.747,1.542    C0.344-2.228,0.595-1.974,0.845-1.7l0.322-0.282l0.102,0.767C1.495-0.943,1.707-0.671,1.9-0.399    c0.386-0.633,0.677-1.229,0.876-1.799l0.1,0.016L3.001-1.52c-0.215,0.495-0.49,1.016-0.817,1.537    c0.298,0.458,0.544,0.906,0.721,1.327C3.317,2.323,3.322,3.03,2.919,3.388c-0.16,0.142-0.37,0.213-0.624,0.213    c-0.121,0-0.25-0.017-0.387-0.049l0.273,2.031L1.097,3.234C0.783,3.071,0.451,2.861,0.11,2.605    c-0.946,0.913-1.862,1.466-2.517,1.466c-0.21,0-0.393-0.055-0.54-0.164c-0.45-0.326-0.512-1.055-0.181-2.101    c0.166-0.53,0.426-1.106,0.755-1.698C-2.669-0.28-2.933-0.671-3.156-1.05l0.095-0.616l0.077-0.012    c0.227,0.436,0.519,0.896,0.86,1.355c0.064-0.104,0.133-0.207,0.2-0.313l-0.473-3.008c-0.235-0.092-0.446-0.139-0.626-0.139    c-0.141,0-0.248,0.032-0.321,0.097c-0.187,0.166-0.188,0.563-0.024,1.1l-0.108,0.111l-0.393-0.199    C-4.023-3.3-3.948-3.76-3.648-4.026c0.16-0.142,0.371-0.213,0.626-0.213l0,0c0.165,0,0.348,0.031,0.544,0.091l-0.153-0.978    l0.528,1.118c0.558,0.243,1.2,0.673,1.853,1.238C0.8-3.864,1.842-4.537,2.566-4.537c0.209,0,0.391,0.053,0.539,0.163    C3.429-4.14,3.549-3.694,3.47-3.073L3.276-2.973z M1.388-0.325l0.081,0.598c0.057-0.084,0.113-0.167,0.168-0.251    C1.558-0.095,1.475-0.208,1.388-0.325z M2.294,3.145c0.138,0,0.247-0.034,0.321-0.098c0.232-0.208,0.184-0.778-0.131-1.525    c-0.146-0.344-0.341-0.71-0.575-1.084c-0.1,0.146-0.202,0.295-0.309,0.44c-0.013,0.02-0.03,0.038-0.042,0.057l0.286,2.127    C2.006,3.113,2.16,3.145,2.294,3.145z M0.763,2.511l-0.18-0.393c-0.052,0.055-0.1,0.109-0.15,0.163    C0.544,2.363,0.655,2.438,0.763,2.511z M0.376,1.67L0.084,1.036l-0.591,0.453C-0.313,1.67-0.12,1.841,0.071,1.997    C0.173,1.893,0.272,1.784,0.376,1.67z M-2.693,1.942C-2.946,2.749-2.94,3.346-2.677,3.541c0.07,0.05,0.158,0.074,0.271,0.074    c0.467,0,1.258-0.443,2.153-1.295c-0.206-0.168-0.413-0.354-0.62-0.549l-0.598,0.461l-0.202-1.28    C-1.693,0.93-1.711,0.911-1.73,0.89c-0.114-0.13-0.227-0.264-0.337-0.395C-2.337,1.002-2.552,1.492-2.693,1.942z M-1.825,0.066    c0.006,0.005,0.01,0.012,0.016,0.018l-0.006-0.033C-1.818,0.057-1.822,0.062-1.825,0.066z M-1.785-3.337l0.713,1.51    C-0.903-2.04-0.731-2.243-0.56-2.435C-0.984-2.805-1.401-3.109-1.785-3.337z M-0.22-2.129c-0.211,0.232-0.422,0.487-0.635,0.762    l0.387,0.817l0.97-0.849C0.265-1.659,0.021-1.903-0.22-2.129z" fill="#FFFFFF"/>
      <polygon class="secondary" points="-3.483,-2.359 -2.997,-2.847 -3.104,-2.166 -2.488,-1.856 -3.169,-1.745 -3.274,-1.064     -3.589,-1.678 -4.268,-1.569 -3.782,-2.058 -4.097,-2.669   " fill="#FFFFFF"/>
      <polygon class="secondary" points="4.061,-2.042 3.383,-2.161 3.06,-1.553 2.963,-2.235 2.286,-2.354 2.904,-2.656 2.807,-3.337     3.285,-2.842 3.901,-3.146 3.581,-2.538   " fill="#FFFFFF"/>
    </g>
  </g></svg>