<?xml version="1.0" standalone="no"?>
<svg xmlns="http://www.w3.org/2000/svg" viewBox="-6.37 -6.372 12.74 12.743" color="#212121" width="75" height="75"><g transform="matrix(1 0 0 -1 0 0)">
		<g xmlns="http://www.w3.org/2000/svg">
			<path class="primary" fill="currentColor" d="M0-6.25c-3.443,0-6.245,2.801-6.245,6.244c0,3.446,2.801,6.248,6.245,6.248S6.245,3.44,6.245-0.003    C6.245-3.449,3.443-6.25,0-6.25z"/>
			<path class="secondary" d="M0,6.122c3.38,0,6.12-2.74,6.12-6.12v-0.003c0-3.38-2.74-6.12-6.12-6.12s-6.12,2.74-6.12,6.12v0.003    C-6.12,3.377-3.38,6.122,0,6.122 M0,6.372c-3.512,0-6.37-2.857-6.37-6.37c0-3.515,2.857-6.373,6.37-6.373s6.37,2.857,6.37,6.37    S3.512,6.372,0,6.372L0,6.372z" fill="#FFFFFF"/>
		</g>
		<path xmlns="http://www.w3.org/2000/svg" id="Microwave_Dish_2_" class="secondary" d="M2.189,1.917C1.966,1.507,1.588,1.202,1.14,1.071C0.965,1.007,0.781,0.975,0.595,0.975   C0.186,0.98-0.209,1.128-0.521,1.393l1.14,1.335L0.402,2.913L-0.727,1.59c-0.181,0.198-0.321,0.429-0.414,0.681   c-0.271,0.694-0.115,1.482,0.4,2.021c0.057,0.027,0.115,0.051,0.174,0.072l-0.025,0.073l0.023,0.023l-0.1-0.048l-0.082-0.026   l-0.035-0.028c-1.05-0.5-1.495-1.757-0.995-2.806c0.228-0.479,0.628-0.853,1.121-1.05l0.001-1.33h-1.679v-3.641h3.64v3.641h-1.566   l-0.001,1.211c0.13-0.025,0.262-0.039,0.394-0.041c0.247,0,0.491,0.043,0.723,0.128C1.54,0.662,2.077,1.203,2.263,1.894l0.075,0.37   L2.189,1.917z" fill="#FFFFFF"/>
	</g></svg>