<?xml version="1.0" standalone="no"?>
<svg xmlns="http://www.w3.org/2000/svg" viewBox="-8.846 -8.846 17.693 17.693" color="#212121" width="75" height="75"><g transform="matrix(1 0 0 -1 0 0)">
    <g xmlns="http://www.w3.org/2000/svg">
      <circle fill="currentColor" class="primary" cx="0" cy="0" r="8.846"/>
      <path class="secondary" d="M0-8.971c-4.946,0-8.971,4.024-8.971,8.971S-4.946,8.971,0,8.971c4.947,0,8.971-4.024,8.971-8.971 S4.947-8.971,0-8.971z M0,8.721c-4.809,0-8.721-3.912-8.721-8.721S-4.809-8.721,0-8.721c4.809,0,8.721,3.912,8.721,8.721 S4.809,8.721,0,8.721z" fill="#FFFFFF"/>
    </g>
    <path xmlns="http://www.w3.org/2000/svg" class="secondary" d="M6.219-0.956c-1.632,0.88-3.262,1.764-4.891,2.647C1.245,1.736,1.171,1.796,1.144,1.815 c0.223,0.077,0.478,0.1,0.633,0.236c0.209,0.184,0.334,0.46,0.508,0.687c0.161,0.21,0.125,0.395-0.049,0.561 C1.922,3.598,1.626,3.925,1.274,4.173c-0.605,0.425-1.235,0.821-1.881,1.18c-0.208,0.116-0.537,0.172-0.747,0.091 c-0.365-0.141-0.687-1.03-0.6-1.422C-2.747,4.376-3.539,4.728-4.33,5.085C-5.09,5.428-5.089,5.43-5.674,4.829 c-0.274-0.282-0.269-0.33,0.084-0.517c0.674-0.358,1.351-0.71,2.026-1.065c0.253-0.133,0.508-0.264,0.755-0.408 c0.046-0.027-0.043-0.233-0.107-0.231c-0.058,0.001-0.117,0.046-0.172,0.077c-0.899,0.498-1.803,0.988-2.693,1.501 c-0.259,0.149-0.44,0.143-0.629-0.093C-6.535,3.935-6.693,3.805-6.833,3.66c-0.278-0.287-0.269-0.342,0.079-0.568 c0.906-0.59,1.813-1.179,2.716-1.773c0.121-0.08,0.284-0.137,0.165-0.365c-0.261-0.501-0.188-0.78,0.309-1.187 c-0.184,0.044-0.303,0.078-0.423,0.1c-0.175,0.032-0.354,0.087-0.528,0.077C-5.039-0.086-5.241-0.496-4.945-0.92 c0.114-0.163,0.265-0.302,0.407-0.444c0.19-0.19,0.461-0.402,0.669-0.6C-3.9-2.003-3.96-2.076-3.997-2.092 c-0.227-0.099-0.404-0.261-0.301-0.512c0.054-0.133,0.31-0.271,0.446-0.276C-3.598-2.888-3.518-2.67-3.51-2.433 c0.006,0.182,0.063,0.204,0.063,0.204C-3.289-2.314-3.094-2.444-2.926-2.5c0.298-0.098,0.603-0.181,0.912-0.23 c0.091-0.015,0.359,0.03,0.403,0.116C-1.49-2.375-1.442-2.157-1.67-1.885c-0.077,0.091-0.242,0.379-0.306,0.481 c0.367-0.041,0.704-0.134,0.966,0.199C0.545-2.393,2.086-3.57,3.628-4.745c0.43-0.328,0.86-0.655,1.297-0.973 c0.126-0.092,0.3-0.204,0.376,0.05C5.487-5.05,5.656-4.427,5.833-3.806C5.892-3.6,5.811-3.465,5.638-3.353 C4.231-2.445,2.824-1.535,1.422-0.619C0.99-0.337,0.574-0.032,0.15,0.262l0.002-0.002c-0.036,0.015-0.036,0.102,0,0.131L0.15,0.39 c0.043,0.227,0.159,0.098,0.246,0.044c0.838-0.517,1.675-1.037,2.511-1.557c0.945-0.588,1.89-1.175,2.833-1.766 c0.232-0.145,0.361-0.11,0.43,0.17C6.262-2.35,6.378-1.986,6.488-1.622C6.621-1.181,6.612-1.168,6.219-0.956z M-3.78-1.724 c0,0-1.223,0.949-1.002,1.291c0.179,0.278,1.462-0.241,1.462-0.241L-3.78-1.724z M-2.064-2.528c-0.375,0.125-1.318,0.57-1.318,0.57 l0.42,0.949c0,0,0.779-0.696,1.056-0.993C-1.771-2.149-1.88-2.589-2.064-2.528z" fill="#FFFFFF"/>
  </g></svg>