<?xml version="1.0" standalone="no"?>
<svg xmlns="http://www.w3.org/2000/svg" viewBox="-8.971 -8.971 17.943 17.943" color="#212121" width="75" height="75"><g transform="matrix(1 0 0 -1 0 0)">
		<g xmlns="http://www.w3.org/2000/svg">
			<g>
				<g>
					<circle fill="currentColor" class="primary" cx="0" cy="0" r="8.742"/>
					<path class="secondary" d="M0-8.867c-4.889,0-8.866,3.978-8.866,8.867S-4.889,8.867,0,8.867c4.89,0,8.867-3.978,8.867-8.867      S4.889-8.867,0-8.867z M0,8.617c-4.751,0-8.616-3.866-8.616-8.617S-4.751-8.617,0-8.617c4.752,0,8.617,3.865,8.617,8.617      S4.751,8.617,0,8.617z" fill="#FFFFFF"/>
				</g>
				<g>
					<path class="secondary" d="M5.04,2.088c-0.273,0.66-0.678,1.265-1.184,1.769C3.352,4.362,2.748,4.767,2.088,5.04      C1.428,5.314,0.714,5.454,0,5.454C-0.713,5.454-1.428,5.314-2.088,5.04c-0.66-0.273-1.264-0.679-1.768-1.184      c-0.505-0.504-0.91-1.109-1.184-1.769C-5.314,1.429-5.455,0.713-5.454,0C-5.455-0.714-5.314-1.428-5.04-2.088      c0.274-0.66,0.679-1.264,1.184-1.768c0.504-0.505,1.109-0.91,1.768-1.184C-1.428-5.314-0.713-5.455,0-5.454      c0.713-0.001,1.428,0.14,2.088,0.414c0.659,0.273,1.264,0.678,1.768,1.184c0.505,0.504,0.91,1.109,1.184,1.768      C5.314-1.428,5.455-0.714,5.454,0C5.455,0.713,5.314,1.429,5.04,2.088z M4.813-1.993c-0.26-0.63-0.648-1.207-1.13-1.689      c-0.482-0.483-1.06-0.87-1.69-1.131C1.364-5.075,0.682-5.209,0-5.208c-0.682-0.001-1.364,0.133-1.994,0.395      c-0.63,0.261-1.207,0.648-1.689,1.131c-0.483,0.482-0.87,1.059-1.131,1.689C-5.075-1.363-5.209-0.682-5.208,0      c-0.001,0.682,0.133,1.364,0.395,1.994c0.261,0.63,0.648,1.207,1.131,1.69c0.482,0.482,1.059,0.869,1.689,1.13      C-1.364,5.075-0.682,5.209,0,5.209c0.682,0,1.364-0.134,1.993-0.396c0.63-0.261,1.207-0.648,1.69-1.13      c0.482-0.482,0.87-1.06,1.13-1.69C5.075,1.364,5.209,0.682,5.208,0C5.209-0.682,5.075-1.363,4.813-1.993z" fill="#FFFFFF"/>
					<path class="secondary" d="M4.426,1.833c-0.24,0.579-0.596,1.111-1.039,1.554C2.944,3.831,2.413,4.186,1.834,4.426      C1.254,4.667,0.627,4.79,0,4.789C-0.627,4.79-1.254,4.667-1.833,4.426c-0.579-0.24-1.11-0.596-1.553-1.039      c-0.444-0.443-0.799-0.974-1.04-1.554C-4.667,1.254-4.79,0.627-4.789,0C-4.79-0.627-4.667-1.254-4.426-1.833      c0.241-0.579,0.596-1.11,1.04-1.553c0.443-0.444,0.973-0.799,1.553-1.039C-1.254-4.666-0.627-4.79,0-4.789      C0.627-4.79,1.254-4.666,1.834-4.426c0.579,0.24,1.11,0.596,1.553,1.039c0.444,0.443,0.799,0.973,1.039,1.553      C4.667-1.254,4.79-0.627,4.789,0C4.79,0.627,4.667,1.254,4.426,1.833z M4.152-1.72C3.928-2.263,3.594-2.761,3.178-3.177      C2.761-3.594,2.263-3.927,1.72-4.152C1.177-4.378,0.588-4.494,0-4.493c-0.589-0.001-1.177,0.115-1.72,0.341      c-0.544,0.225-1.042,0.559-1.457,0.976c-0.417,0.415-0.75,0.913-0.976,1.457C-4.378-1.176-4.494-0.588-4.493,0      c-0.001,0.589,0.115,1.177,0.341,1.72c0.225,0.544,0.559,1.042,0.976,1.458c0.415,0.416,0.913,0.75,1.457,0.975      C-1.177,4.378-0.588,4.494,0,4.494c0.588,0,1.177-0.116,1.72-0.341c0.544-0.225,1.042-0.559,1.458-0.975      c0.416-0.416,0.75-0.914,0.975-1.458C4.378,1.177,4.494,0.588,4.493,0C4.494-0.588,4.378-1.176,4.152-1.72z" fill="#FFFFFF"/>
					<path class="secondary" d="M2.979,1.234c-0.161,0.39-0.401,0.747-0.699,1.046C1.981,2.578,1.624,2.817,1.234,2.979      C0.844,3.141,0.422,3.223,0,3.223c-0.422,0-0.844-0.082-1.234-0.244c-0.39-0.162-0.747-0.401-1.045-0.699      c-0.299-0.298-0.538-0.656-0.7-1.046C-3.141,0.844-3.223,0.422-3.223,0c0-0.422,0.082-0.844,0.244-1.234      c0.162-0.39,0.401-0.747,0.7-1.045c0.298-0.299,0.655-0.538,1.045-0.699C-0.844-3.14-0.422-3.223,0-3.223      c0.422,0,0.844,0.083,1.234,0.245c0.39,0.162,0.747,0.401,1.045,0.699c0.299,0.298,0.538,0.655,0.699,1.045      C3.141-0.844,3.223-0.422,3.223,0C3.223,0.422,3.141,0.844,2.979,1.234z M2.751-1.14C2.603-1.5,2.381-1.83,2.105-2.105      C1.83-2.381,1.5-2.602,1.14-2.751C0.78-2.901,0.39-2.978,0-2.977c-0.39,0-0.78,0.076-1.14,0.226      c-0.36,0.149-0.69,0.37-0.965,0.646C-2.381-1.83-2.602-1.5-2.751-1.14C-2.901-0.779-2.978-0.39-2.977,0      c0,0.39,0.076,0.78,0.226,1.14c0.149,0.36,0.37,0.69,0.646,0.966C-1.83,2.381-1.5,2.602-1.14,2.751      C-0.78,2.901-0.39,2.978,0,2.978c0.39,0,0.78-0.077,1.14-0.226c0.36-0.149,0.69-0.37,0.966-0.646      C2.381,1.83,2.603,1.5,2.751,1.14C2.901,0.78,2.978,0.39,2.977,0C2.978-0.39,2.901-0.779,2.751-1.14z" fill="#FFFFFF"/>
					<path class="secondary" d="M2.977,0c0.002-0.586-0.175-1.169-0.501-1.654C2.151-2.141,1.68-2.529,1.14-2.751      C0.818-2.885,0.472-2.96,0.123-2.973v1.384c0.357,0.028,0.702,0.186,0.955,0.44c0.283,0.281,0.448,0.678,0.446,1.077      c0.002,0.4-0.163,0.797-0.446,1.078C0.797,1.289,0.4,1.454,0,1.452c-0.319,0.002-0.637-0.106-0.896-0.293L-1.88,2.307      c0.073,0.06,0.148,0.117,0.227,0.169C-1.168,2.803-0.586,2.979,0,2.977l0,0c0.064-0.001,0.068,0.245,0,0.246l0,0      C-0.632,3.224-1.265,3.034-1.791,2.68C-1.878,2.623-1.96,2.558-2.04,2.493l-0.655,0.762c0.036,0.067,0.057,0.143,0.056,0.22      c0.001,0.12-0.05,0.24-0.136,0.325C-2.859,3.885-2.98,3.935-3.1,3.934c-0.12,0.001-0.241-0.049-0.325-0.135      c-0.086-0.085-0.136-0.205-0.136-0.326c0-0.073,0.019-0.148,0.054-0.214c-0.086-0.092-0.168-0.186-0.246-0.285l0.192-0.152      c0.07,0.089,0.145,0.175,0.222,0.257C-3.267,3.037-3.184,3.012-3.1,3.013c0.082-0.001,0.163,0.022,0.234,0.064l0.642-0.748      c-0.322-0.309-0.583-0.683-0.753-1.095c-0.244-0.586-0.307-1.242-0.184-1.863c0.122-0.622,0.434-1.203,0.883-1.651      c0.447-0.449,1.028-0.761,1.651-0.883c0.167-0.033,0.336-0.052,0.506-0.058v-0.878C-0.199-4.119-0.27-4.159-0.326-4.216      c-0.08-0.08-0.129-0.191-0.133-0.304C-0.55-4.511-0.638-4.5-0.727-4.485l-0.039-0.243c0.122-0.02,0.245-0.034,0.368-0.044      c0.02-0.034,0.044-0.067,0.072-0.095C-0.241-4.953-0.12-5.003,0-5.002c0.12-0.001,0.241,0.049,0.326,0.135      c0.085,0.085,0.136,0.205,0.135,0.326c0.001,0.12-0.05,0.24-0.135,0.325C0.27-4.159,0.199-4.119,0.123-4.098v0.879      c0.38,0.015,0.759,0.094,1.111,0.24C1.82-2.737,2.329-2.317,2.68-1.791C3.034-1.265,3.224-0.633,3.223,0H2.977z M-0.122-0.117      v-1.226c-0.292,0.028-0.573,0.159-0.781,0.368c-0.238,0.237-0.376,0.568-0.374,0.903c-0.002,0.327,0.129,0.649,0.357,0.884      L-0.122-0.117z M-0.581-2.921c-0.574,0.113-1.112,0.401-1.524,0.815c-0.415,0.413-0.703,0.95-0.815,1.524      C-3.035-0.008-2.976,0.6-2.751,1.14c0.156,0.377,0.393,0.72,0.687,1.003L-1.082,1c-0.28-0.28-0.443-0.674-0.441-1.072      C-1.526-0.471-1.36-0.868-1.077-1.149c0.252-0.254,0.598-0.412,0.955-0.44v-1.385C-0.276-2.968-0.43-2.95-0.581-2.921z" fill="#FFFFFF"/>
				</g>
			</g>
		</g>
	</g></svg>