<?xml version="1.0" standalone="no"?>
<svg xmlns="http://www.w3.org/2000/svg" viewBox="-6.37 -6.372 12.74 12.743" color="#212121" width="75" height="75"><g transform="matrix(1 0 0 -1 0 0)">
		<g xmlns="http://www.w3.org/2000/svg">
			<path class="primary" fill="currentColor" d="M0-6.25c-3.443,0-6.245,2.801-6.245,6.244c0,3.446,2.801,6.248,6.245,6.248S6.245,3.44,6.245-0.003    C6.245-3.449,3.443-6.25,0-6.25z"/>
			<path class="secondary" d="M0,6.122c3.38,0,6.12-2.74,6.12-6.12v-0.003c0-3.38-2.74-6.12-6.12-6.12l0,0c-3.38,0-6.12,2.74-6.12,6.12    v0.003C-6.12,3.377-3.38,6.122,0,6.122L0,6.122 M0,6.372c-3.512,0-6.37-2.857-6.37-6.37c0-3.515,2.857-6.373,6.37-6.373    c3.512,0,6.37,2.857,6.37,6.37S3.512,6.372,0,6.372L0,6.372z" fill="#FFFFFF"/>
		</g>
		<g xmlns="http://www.w3.org/2000/svg" id="Radar_Facility_2_">
			<circle class="secondary" cx="2.703" cy="1.817" r="0.572" fill="#FFFFFF"/>
			<path class="secondary" d="M0.945-4.411l-1.058,6.003l0.662,0.02h0.013C0.544,0.185,1.63-1.014,3.052-1.137    c0.039,0,0.085,0.001,0.137,0.003L3.26-1.142l0.005,0.026C1.641-0.196,1.071,1.866,1.992,3.49c0.305,0.537,0.751,0.981,1.29,1.282    L3.277,4.797L3.172,4.785c-0.04,0.005-0.08,0.007-0.12,0.006C1.614,4.668,0.52,3.446,0.556,2.003l-0.728,0.019l-0.145,0.85    l-0.002,0.011l-1.33,0.02h-0.012l-0.036-7.296H-3.44v-0.412h6.88v0.412L0.945-4.411z" fill="#FFFFFF"/>
		</g>
	</g></svg>