<?xml version="1.0" standalone="no"?>
<svg xmlns="http://www.w3.org/2000/svg" viewBox="-6.37 -6.372 12.74 12.743" color="#212121" width="75" height="75"><g transform="matrix(1 0 0 -1 0 0)">
		<g xmlns="http://www.w3.org/2000/svg">
			<path class="primary" fill="currentColor" d="M0-6.25c-3.443,0-6.245,2.801-6.245,6.244c0,3.446,2.801,6.248,6.245,6.248S6.245,3.44,6.245-0.003    C6.245-3.449,3.443-6.25,0-6.25z"/>
			<path class="secondary" d="M0,6.122c3.38,0,6.12-2.74,6.12-6.12v-0.003c0-3.38-2.74-6.12-6.12-6.12s-6.12,2.74-6.12,6.12v0.003    C-6.12,3.377-3.38,6.122,0,6.122 M0,6.372c-3.512,0-6.37-2.857-6.37-6.37c0-3.515,2.857-6.373,6.37-6.373s6.37,2.857,6.37,6.37    S3.512,6.372,0,6.372L0,6.372z" fill="#FFFFFF"/>
		</g>
		<path xmlns="http://www.w3.org/2000/svg" id="Relay_Station_2_" class="secondary" d="M1.825-3.54L0.973,1.292l0.535,0.016H1.52c-0.015-1.147,0.858-2.111,2-2.21   c0.042,0,0.079,0.001,0.111,0.003l0.057-0.007l0.003,0.015C3.27-0.746,2.919-0.447,2.707-0.054c-0.264,0.467-0.4,0.996-0.394,1.532   C2.227,2.484,2.785,3.435,3.705,3.851L3.702,3.866l-0.085-0.01C3.589,3.857,3.556,3.859,3.52,3.859   C2.364,3.76,1.486,2.778,1.516,1.619l-0.59,0.014L0.809,2.32L0.808,2.326l-0.59,0.028h-0.479l-0.541-0.051h-0.006L-0.925,1.61   l-0.589-0.013c0.028,1.159-0.851,2.14-2.006,2.239c-0.031,0-0.063-0.001-0.093-0.003L-3.7,3.843l-0.003-0.016   c0.92-0.415,1.478-1.366,1.392-2.372c0.005-0.536-0.13-1.064-0.394-1.531C-2.918-0.468-3.27-0.767-3.692-0.913l0.004-0.016   l0.056,0.006c0.032-0.002,0.071-0.003,0.11-0.003c1.143,0.099,2.017,1.064,2.001,2.211l0.547-0.015l-0.851-4.833l-1.997,0.015   H-3.83v-0.326h7.66v0.347L1.825-3.54z" fill="#FFFFFF"/>
	</g></svg>