<?xml version="1.0" standalone="no"?>
<svg xmlns="http://www.w3.org/2000/svg" viewBox="-8.846 -8.846 17.693 17.693" color="#212121" width="75" height="75"><g transform="matrix(1 0 0 -1 0 0)">
    <g xmlns="http://www.w3.org/2000/svg">
      <circle fill="currentColor" class="primary" cx="0" cy="0" r="8.846"/>
      <path class="secondary" d="M0-8.971c-4.946,0-8.971,4.024-8.971,8.971S-4.946,8.971,0,8.971c4.947,0,8.971-4.024,8.971-8.971 S4.947-8.971,0-8.971z M0,8.721c-4.809,0-8.721-3.912-8.721-8.721S-4.809-8.721,0-8.721c4.809,0,8.721,3.912,8.721,8.721 S4.809,8.721,0,8.721z" fill="#FFFFFF"/>
    </g>
    <path xmlns="http://www.w3.org/2000/svg" id="_x34__2_" class="secondary" d="M3.815-3.069c0.348,0.22,0.58,0.609,0.58,1.05c0,0.367-0.158,0.707-0.434,0.943 c0.625,1.19,0.661,2.588,0.608,3.428C4.479,3.779,4.042,5.224,3.553,5.714C3.131,6.136,2.346,6.137,1.342,5.717 c-0.92-0.385-1.964-1.093-2.951-2c-0.475,0.388-0.964,0.771-1.338,1.024c0.009,0.045,0.014,0.092,0.014,0.14 c0,0.401-0.326,0.727-0.727,0.727s-0.727-0.326-0.727-0.727c0-0.401,0.326-0.727,0.727-0.727c0.048,0,0.094,0.005,0.14,0.014 c0.254-0.374,0.637-0.864,1.025-1.339c-0.911-0.991-1.622-2.041-2.005-2.963c-0.415-0.997-0.412-1.778,0.009-2.198 c0.49-0.49,1.935-0.926,3.362-1.016c0.161-0.01,0.343-0.017,0.541-0.017c0.796,0,1.84,0.112,2.773,0.568 c0.102-0.126,0.226-0.231,0.366-0.308L1.866-5.533C1.852-5.585,1.862-5.64,1.894-5.682C1.927-5.725,1.977-5.75,2.03-5.75h2.336 c0.054,0,0.104,0.025,0.136,0.068c0.032,0.043,0.042,0.098,0.027,0.15L3.815-3.069z M-2.229-1.179 c-0.839-0.466-1.294-0.476-1.44-0.33c-0.34,0.34,0.331,1.822,1.87,3.505c0.378-0.444,0.671-0.773,0.714-0.816 C-1,1.094-0.884,1.053-0.757,1.053c0.202,0,0.435,0.103,0.628,0.297c0.14,0.14,0.239,0.309,0.279,0.474 c0.046,0.192,0.006,0.368-0.109,0.483C-0.002,2.35-0.331,2.643-0.775,3.021c0.773,0.707,1.556,1.28,2.218,1.623 c0.633,0.328,1.114,0.42,1.286,0.247C2.876,4.745,2.866,4.29,2.4,3.451C1.96,2.658,1.235,1.739,0.359,0.863 C-0.517-0.013-1.436-0.738-2.229-1.179z" fill="#FFFFFF"/>
  </g></svg>