<?xml version="1.0" standalone="no"?>
<svg xmlns="http://www.w3.org/2000/svg" viewBox="-6.37 -6.372 12.74 12.743" color="#212121" width="75" height="75"><g transform="matrix(1 0 0 -1 0 0)">
		<g xmlns="http://www.w3.org/2000/svg">
			<path class="primary" fill="currentColor" d="M0-6.25c-3.443,0-6.245,2.801-6.245,6.244c0,3.446,2.801,6.248,6.245,6.248S6.245,3.44,6.245-0.003    C6.245-3.449,3.443-6.25,0-6.25z"/>
			<path class="secondary" d="M0,6.122c3.38,0,6.12-2.74,6.12-6.12v-0.003c0-3.38-2.74-6.12-6.12-6.12l0,0c-3.38,0-6.12,2.74-6.12,6.12    v0.003C-6.12,3.377-3.38,6.122,0,6.122L0,6.122 M0,6.372c-3.512,0-6.37-2.857-6.37-6.37c0-3.515,2.857-6.373,6.37-6.373    c3.512,0,6.37,2.857,6.37,6.37S3.512,6.372,0,6.372L0,6.372z" fill="#FFFFFF"/>
		</g>
		<polygon xmlns="http://www.w3.org/2000/svg" points="-0.351,1.035 -0.627,-1.043 -0.579,-1.043 0.627,-0.24  "/>
		<path xmlns="http://www.w3.org/2000/svg" d="M0.5-0.177c-0.352,0.161-0.688,0.358-1,0.588l0.639-0.83L0.5-0.177z"/>
		<polygon xmlns="http://www.w3.org/2000/svg" points="-0.494,-0.222 0.494,-0.222 0.159,0.212  "/>
		<polygon xmlns="http://www.w3.org/2000/svg" points="1.113,0.551 -1.113,0.551 0,-0.561  "/>
		<polygon xmlns="http://www.w3.org/2000/svg" points="-1.011,0.197 -0.479,-0.494 1.011,-0.494 -0.58,0.484  "/>
		<polygon xmlns="http://www.w3.org/2000/svg" points="0.558,-1.12 0.558,1.111 -0.558,-0.003  "/>
		<path xmlns="http://www.w3.org/2000/svg" id="Satellite_Dish_2_" class="secondary" d="M2.139-2.557C2.68-2.56,3.219-2.501,3.746-2.381L3.942-2.33L1.751-0.14V2.1L2.05,2.4   l0.002-0.001l0.833,0.834L2.884,3.234L3.05,3.4L2.886,3.563L2.72,3.397L2.551,3.565L1.718,2.731l0.168-0.168l-0.3-0.298H-0.65   l-2.357,2.355l-0.053-0.19c-0.436-1.836-0.019-3.77,1.134-5.264l-0.311-2.268h-1.174v-0.905h5.909v0.905H1.946L0.858-2.43   C1.28-2.514,1.709-2.556,2.139-2.557L2.139-2.557z M1.354,2.032L0.467,1.145l-0.886,0.886L1.354,2.032L1.354,2.032z M-0.311-2.065   l-0.288-0.193l-0.509,0.662C-0.859-1.779-0.592-1.936-0.311-2.065z M-1.904-3.102l0.22,1.656l0.78-1.015l-0.961-0.641H-1.904z    M-1.198-3.102l0.52,0.347l0.267-0.347C-0.411-3.102-1.198-3.102-1.198-3.102z M1.239-3.102H0.051l-0.423,0.55l0.343,0.229   L1.239-3.102z M1.519,0.092L0.63,0.982L1.519,1.87V0.092z" fill="#FFFFFF"/>
	</g></svg>