<?xml version="1.0" standalone="no"?>
<svg xmlns="http://www.w3.org/2000/svg" viewBox="-8.846 -8.846 17.693 17.693" color="#212121" width="75" height="75"><g transform="matrix(1 0 0 -1 0 0)">
    <g xmlns="http://www.w3.org/2000/svg">
      <circle fill="currentColor" class="primary" cx="0" cy="0" r="8.846"/>
      <path class="secondary" d="M0-8.971c-4.946,0-8.971,4.024-8.971,8.971S-4.946,8.971,0,8.971c4.947,0,8.971-4.024,8.971-8.971 S4.947-8.971,0-8.971z M0,8.721c-4.809,0-8.721-3.912-8.721-8.721S-4.809-8.721,0-8.721c4.809,0,8.721,3.912,8.721,8.721 S4.809,8.721,0,8.721z" fill="#FFFFFF"/>
    </g>
    <g xmlns="http://www.w3.org/2000/svg">
      <path class="secondary" d="M1.494-0.359c0.286,0.286,0.286,0.754,0,1.04L-2.08,4.254c-0.286,0.286-0.754,0.286-1.039,0l-1.169-1.169 c-0.286-0.286-0.286-0.754,0-1.04l3.573-3.573c0.286-0.286,0.754-0.286,1.04,0L1.494-0.359z" fill="#FFFFFF"/>
      <path class="secondary" d="M2.07,6.844c0.107,0.107,0.283,0.107,0.39,0L4.084,5.22c0.107-0.107,0.107-0.283,0-0.39L1.08,1.826 c-0.107-0.107-0.283-0.107-0.39,0L-0.934,3.45c-0.107,0.107-0.107,0.283,0,0.39L2.07,6.844z" fill="#FFFFFF"/>
      <path class="secondary" d="M-3.875,0.899c0.107,0.107,0.283,0.107,0.39,0l1.624-1.624c0.107-0.107,0.107-0.283,0-0.39l-3.004-3.004 c-0.107-0.107-0.283-0.107-0.39,0l-1.624,1.624c-0.107,0.107-0.107,0.283,0,0.39L-3.875,0.899z" fill="#FFFFFF"/>
      <path class="secondary" d="M1.1-1.134C0.044-2.19-0.555-3.529-0.697-4.907l5.57,5.57C3.495,0.52,2.156-0.079,1.1-1.134z" fill="#FFFFFF"/>
      <polygon class="secondary" points="3.42,-3.455 1.59,-1.863 1.828,-1.625 3.42,-3.455 " fill="#FFFFFF"/>
      <path class="secondary" d="M3.745-3.779c-0.116-0.116-0.305-0.116-0.421,0c-0.116,0.116-0.116,0.305,0,0.421 c0.116,0.116,0.305,0.116,0.421,0C3.861-3.474,3.861-3.663,3.745-3.779z" fill="#FFFFFF"/>
      <g>
        <g>
          <path class="secondary" d="M4.777-4.81C4.288-5.289,3.65-5.525,3.015-5.519L3.011-5.945c0.745-0.007,1.492,0.269,2.065,0.831 c0.572,0.562,0.863,1.304,0.87,2.049L5.519-3.061C5.513-3.697,5.265-4.33,4.777-4.81z" fill="#FFFFFF"/>
          <path class="secondary" d="M5.253-3.059L4.828-3.055C4.823-3.513,4.644-3.97,4.292-4.316C3.94-4.662,3.48-4.832,3.021-4.827 L3.017-5.253C3.585-5.258,4.154-5.048,4.59-4.62C5.027-4.192,5.248-3.626,5.253-3.059z" fill="#FFFFFF"/>
        </g>
      </g>
    </g>
  </g></svg>