<?xml version="1.0" standalone="no"?>
<svg xmlns="http://www.w3.org/2000/svg" viewBox="-9.022 -9.022 18.044 18.044" color="#212121" width="75" height="75"><g transform="matrix(1 0 0 -1 0 0)">
		<g xmlns="http://www.w3.org/2000/svg">
			<g>
				<g>
					<circle fill="currentColor" class="primary" cx="0" cy="0" r="8.742"/>
					<path class="secondary" d="M0-8.867c-4.889,0-8.866,3.978-8.866,8.867S-4.889,8.867,0,8.867c4.89,0,8.867-3.978,8.867-8.867      S4.889-8.867,0-8.867z M0,8.617c-4.751,0-8.616-3.866-8.616-8.617S-4.751-8.617,0-8.617c4.752,0,8.617,3.865,8.617,8.617      S4.751,8.617,0,8.617z" fill="#FFFFFF"/>
				</g>
				<g>
					<path class="secondary" d="M1.733-4.864C1.638-4.768,1.511-4.706,1.379-4.686v1.013h0.174h2.504v3.487h0.921L3.789,0.831v1.105      H2.762V1.71L1.286,2.974l-3.692-3.161h0.921v-3.487h2.678v-1.013c-0.133-0.02-0.26-0.082-0.355-0.178      C0.743-4.958,0.681-5.085,0.661-5.218h-2.925v-0.185h2.925c0.02-0.133,0.082-0.259,0.177-0.354      C0.955-5.875,1.12-5.944,1.286-5.943c0.166-0.001,0.33,0.068,0.447,0.185C1.828-5.663,1.89-5.536,1.911-5.404h2.923v0.185H1.911      C1.89-5.085,1.828-4.958,1.733-4.864z M1.602-5.627C1.519-5.71,1.403-5.758,1.286-5.758c-0.117,0-0.233,0.048-0.316,0.132      C0.886-5.544,0.839-5.428,0.839-5.311C0.839-5.193,0.886-5.078,0.97-4.995c0.083,0.083,0.198,0.131,0.315,0.131      c0.118,0,0.233-0.047,0.316-0.131c0.083-0.083,0.131-0.199,0.131-0.317C1.733-5.428,1.685-5.544,1.602-5.627z" fill="#FFFFFF"/>
					<path class="secondary" d="M-3.724,4.507c0.85,0.859,2.047,1.354,3.254,1.35v0.486c-0.665,0-1.333-0.131-1.948-0.384      c-0.615-0.257-1.18-0.635-1.65-1.107c-0.471-0.471-0.849-1.035-1.104-1.65C-5.429,2.587-5.56,1.922-5.56,1.254h0.487      C-5.078,2.462-4.582,3.659-3.724,4.507z" fill="#FFFFFF"/>
					<path class="secondary" d="M-0.47,5.109c-1.01,0.005-2.013-0.413-2.724-1.13c-0.718-0.711-1.136-1.716-1.13-2.725h0.487      c-0.005,0.884,0.358,1.758,0.985,2.381c0.622,0.629,1.497,0.99,2.381,0.987V5.109z" fill="#FFFFFF"/>
					<path class="secondary" d="M-1.951,2.734c0.387,0.39,0.931,0.616,1.48,0.615v0.487C-1.146,3.839-1.82,3.56-2.295,3.08      c-0.48-0.477-0.759-1.151-0.756-1.827h0.487C-2.567,1.803-2.341,2.347-1.951,2.734z" fill="#FFFFFF"/>
				</g>
			</g>
		</g>
	</g></svg>