<?xml version="1.0" standalone="no"?>
<svg xmlns="http://www.w3.org/2000/svg" viewBox="-8.64 -8.64 17.28 17.28" color="#212121" width="75" height="75"><g transform="matrix(1 0 0 -1 0 0)">
			<circle xmlns="http://www.w3.org/2000/svg" fill="currentColor" cx="0" cy="0" r="8.64"/>
			<path xmlns="http://www.w3.org/2000/svg" fill="#FFFFFF" d="M4.55,2.73H0.68L2.2,4.56c0.02-0.01,0.05-0.01,0.07-0.01c0.25,0,0.46,0.2,0.46,0.45s-0.2,0.46-0.45,0.46   c-0.25,0-0.46-0.2-0.46-0.45v0c0-0.05,0.01-0.11,0.03-0.15L0.08,2.73h-0.17l-1.77,2.12C-1.83,4.9-1.82,4.95-1.82,5   c0,0.25-0.2,0.45-0.46,0.45S-2.73,5.25-2.73,5c0-0.25,0.2-0.45,0.46-0.45c0.02,0,0.05,0.01,0.07,0.01l1.53-1.83h-3.87   c-0.5,0-0.91-0.41-0.91-0.91v0v-6.37c0-0.5,0.41-0.91,0.91-0.91h0h9.1c0.5,0,0.91,0.41,0.91,0.91v0v6.37   C5.46,2.32,5.05,2.73,4.55,2.73L4.55,2.73z M2.73-3.64c0-0.5-0.41-0.91-0.91-0.91h0h-5.46c-0.5,0-0.91,0.41-0.91,0.91v4.55   c0,0.5,0.41,0.91,0.91,0.91h0h5.46c0.5,0,0.91-0.41,0.91-0.91v0V-3.64z M4.07,0.43c-0.36,0-0.65,0.29-0.65,0.65   c0,0.36,0.29,0.65,0.65,0.65c0.36,0,0.65-0.29,0.65-0.65c0,0,0,0,0,0C4.72,0.72,4.43,0.43,4.07,0.43L4.07,0.43z"/>
		</g></svg>