<?xml version="1.0" standalone="no"?>
<svg xmlns="http://www.w3.org/2000/svg" viewBox="-8.64 -8.64 17.28 17.28" color="#212121" width="75" height="75"><g transform="matrix(1 0 0 -1 0 0)">
			<circle xmlns="http://www.w3.org/2000/svg" fill="currentColor" cx="0" cy="0" r="8.64"/>
			<path xmlns="http://www.w3.org/2000/svg" fill="#FFFFFF" d="M1.03,3.62c0,0.57-0.46,1.02-1.02,1.02s-1.02-0.46-1.02-1.02c0-0.57,0.46-1.02,1.02-1.02   C0.57,2.59,1.02,3.05,1.03,3.62z M-0.58,3.62c0,0.32,0.26,0.58,0.58,0.58c0.32,0,0.58-0.26,0.58-0.58C0.58,3.3,0.32,3.04,0,3.04h0   C-0.32,3.04-0.57,3.3-0.58,3.62z"/>
			<path xmlns="http://www.w3.org/2000/svg" fill="#FFFFFF" d="M0.49,1.7h-1l-1.32-8.98h3.67L0.49,1.7z M1.41-6.55L0.64-5.79l-0.2,0.2l-0.1,0.1l0.1,0.1l0.2,0.2l0.52,0.52   L1.41-6.55z M-0.24-0.1h0.68L0.23-0.31L0.16-0.37l-0.17-0.17l0,0l-0.17,0.16l-0.06,0.06L-0.46-0.1L-0.24-0.1z M-0.47,0.11h-0.02   l0.02,0.02l0.23,0.23l0.06,0.06l0.17,0.17v0l0.17-0.17l0.07-0.07l0.21-0.21l0.03-0.03L-0.47,0.11L-0.47,0.11z M-0.01-0.95   L-0.01-0.95l0.17-0.17l0.07-0.07L0.44-1.4l0.2-0.2l0.01-0.01h-1.33l0.02,0.02l0.19,0.19l0.23,0.23l0.06,0.07L-0.01-0.95z    M-0.47-1.82h1.08L0.44-1.99L0.23-2.2L0.16-2.27l-0.17-0.17l-0.01-0.01l-0.16,0.16l-0.06,0.06l-0.23,0.23l-0.17,0.17L-0.47-1.82z    M-0.17-3.18l0.16,0.16l0.01-0.01l0.17-0.17l0.07-0.07l0.21-0.22l0.2-0.2l0.29-0.29h-1.88l0.3,0.3l0.19,0.19l0.23,0.23L-0.17-3.18z    M-0.65-4.16h1.61L0.64-4.47l-0.2-0.2L0.23-4.89L0.16-4.95l-0.17-0.17l-0.01-0.01l-0.16,0.16l-0.06,0.06l-0.23,0.23l-0.19,0.19   l-0.33,0.33L-0.65-4.16z M1.01-3.47L0.64-3.1l-0.2,0.2L0.27-2.73l0.17,0.17l0.2,0.2l0.2,0.2L1.01-3.47z M0.64-0.58l0.09-0.71   L0.64-1.2L0.44-1L0.23-0.78L0.19-0.75l0.04,0.03L0.44-0.5l0.17,0.17L0.64-0.58z M0.44,0.99l0.08-0.65L0.44,0.42L0.23,0.63L0.16,0.7   L0.14,0.73l0.03,0.03l0.07,0.06l0.21,0.21L0.44,0.99z M-0.38,1.54h0.75L0.4,1.29L0.23,1.11L0.16,1.04l-0.17-0.17l0,0l-0.17,0.17   L-0.24,1.1l-0.17,0.17L-0.38,1.54z M-0.47,0.83l0.03,0.2l0.2-0.21l0.06-0.06l0.03-0.03L-0.17,0.7l-0.06-0.06l-0.23-0.23l-0.06-0.06   L-0.47,0.83z M-0.65-0.65l0.04,0.31l0.15-0.15l0.23-0.23l0.03-0.03l-0.03-0.03L-0.47-1l-0.19-0.19l-0.08-0.08L-0.65-0.65z    M-0.85-2.18l0.2-0.2l0.19-0.19l0.17-0.17L-0.47-2.9l-0.19-0.19l-0.36-0.36L-0.85-2.18z M-1.17-4.69l0.52-0.52l0.19-0.19l0.09-0.09   l-0.09-0.09l-0.19-0.19l-0.75-0.75L-1.17-4.69z M0.64-7.17h-1.98l0.68,0.68l0.19,0.19l0.23,0.23l0.06,0.06l0.16,0.16l0.01-0.01   l0.17-0.17l0.07-0.07l0.21-0.21l0.2-0.2l0.67-0.67H0.64z"/>
			<path xmlns="http://www.w3.org/2000/svg" fill="#FFFFFF" d="M0,7.37c-2.08,0-3.76-1.68-3.76-3.76c0-1.17,0.54-2.27,1.47-2.98c0.06-0.05,0.13-0.07,0.21-0.07   c0.19,0,0.34,0.15,0.34,0.34c0,0.11-0.05,0.21-0.13,0.27c-1.35,1.04-1.6,2.97-0.56,4.31s2.97,1.6,4.31,0.56s1.6-2.97,0.56-4.31   c-0.16-0.21-0.35-0.4-0.56-0.56C1.73,1.06,1.7,0.85,1.81,0.7c0.11-0.15,0.33-0.18,0.48-0.06l0,0C3.94,1.9,4.25,4.26,2.98,5.91   C2.27,6.83,1.17,7.37,0,7.37z"/>
			<path xmlns="http://www.w3.org/2000/svg" fill="#FFFFFF" d="M0,5.92c-1.27,0-2.31-1.03-2.31-2.3c0-0.72,0.33-1.39,0.9-1.83c0.11-0.09,0.27-0.07,0.36,0.05   c0.09,0.11,0.07,0.27-0.05,0.36l0,0c-0.79,0.6-0.93,1.73-0.33,2.52S0.31,5.64,1.1,5.04c0.79-0.6,0.93-1.73,0.33-2.52   C1.33,2.4,1.22,2.29,1.1,2.19C0.98,2.11,0.96,1.95,1.05,1.83c0.05-0.06,0.12-0.1,0.2-0.1c0.06,0,0.11,0.02,0.16,0.05   c1.01,0.78,1.2,2.23,0.42,3.23C1.39,5.59,0.72,5.92,0,5.92L0,5.92z"/>
		</g></svg>