<?xml version="1.0" standalone="no"?>
<svg xmlns="http://www.w3.org/2000/svg" viewBox="-6.37 -6.372 12.74 12.743" color="#212121" width="75" height="75"><g transform="matrix(1 0 0 -1 0 0)">
		<g xmlns="http://www.w3.org/2000/svg">
			<path class="primary" fill="currentColor" d="M0-6.25c-3.443,0-6.245,2.801-6.245,6.244c0,3.446,2.801,6.248,6.245,6.248S6.245,3.44,6.245-0.003    C6.245-3.449,3.443-6.25,0-6.25z"/>
			<path class="secondary" d="M0,6.122c3.38,0,6.12-2.74,6.12-6.12v-0.003c0-3.38-2.74-6.12-6.12-6.12s-6.12,2.74-6.12,6.12v0.003    C-6.12,3.377-3.38,6.122,0,6.122 M0,6.372c-3.512,0-6.37-2.857-6.37-6.37c0-3.515,2.857-6.373,6.37-6.373s6.37,2.857,6.37,6.37    S3.512,6.372,0,6.372L0,6.372z" fill="#FFFFFF"/>
		</g>
		<g xmlns="http://www.w3.org/2000/svg" id="Transmitter_2_">
			<path class="secondary" d="M0.239,0.97h-0.585l-0.772-5.252h2.145L0.239,0.97z M0.777-3.857L0.331-3.41L0.213-3.292L0.156-3.235    l0.057,0.057L0.331-3.06l0.305,0.306L0.777-3.857z M-0.184-0.081h0.397L0.087-0.205L0.049-0.243l-0.098-0.099l-0.002-0.001    l-0.097,0.096l-0.036,0.036l-0.131,0.13H-0.184z M-0.319,0.039H-0.33l0.011,0.011l0.135,0.135l0.036,0.036l0.098,0.098    l0.001-0.001l0.098-0.097l0.039-0.039l0.126-0.126l0.017-0.017H-0.319z M-0.051-0.58l0.002-0.001L0.049-0.68l0.039-0.039    l0.125-0.125l0.118-0.117L0.338-0.97h-0.779l0.011,0.012l0.11,0.111l0.135,0.134l0.036,0.038L-0.051-0.58z M-0.319-1.089h0.631    L0.213-1.187L0.087-1.312l-0.039-0.04L-0.05-1.449l-0.004-0.004l-0.095,0.094l-0.036,0.037L-0.32-1.188L-0.418-1.09L-0.319-1.089z     M-0.148-1.884l0.095,0.095l0.004-0.004L0.049-1.89l0.039-0.04l0.126-0.126l0.118-0.117L0.499-2.34h-1.102l0.174,0.174l0.11,0.11    l0.135,0.137L-0.148-1.884z M-0.43-2.459h0.94l-0.179-0.18L0.213-2.757L0.087-2.882L0.049-2.921l-0.098-0.1l-0.006-0.003    l-0.093,0.093l-0.036,0.036L-0.319-2.76l-0.11,0.11l-0.19,0.19L-0.43-2.459z M0.547-2.052L0.331-1.836L0.213-1.72L0.115-1.621    l0.098,0.098l0.118,0.118l0.118,0.117L0.547-2.052z M0.331-0.364l0.053-0.414L0.331-0.726L0.213-0.608L0.087-0.482L0.066-0.461    l0.021,0.02l0.126,0.126l0.099,0.099L0.331-0.364z M0.213,0.554l0.049-0.38L0.213,0.222L0.087,0.347l-0.038,0.04L0.033,0.403    l0.016,0.016l0.039,0.039L0.21,0.58L0.213,0.554z M-0.266,0.875h0.439l0.019-0.147L0.087,0.624l-0.039-0.04L-0.05,0.485l0,0    l-0.098,0.098l-0.036,0.036l-0.101,0.102L-0.266,0.875z M-0.319,0.459l0.015,0.115l0.121-0.121l0.036-0.036l0.015-0.015    l-0.015-0.015l-0.036-0.036l-0.135-0.135L-0.353,0.18L-0.319,0.459z M-0.43-0.406l0.023,0.182l0.087-0.087l0.135-0.134L-0.17-0.46    l-0.015-0.015L-0.32-0.609L-0.43-0.72l-0.047-0.047L-0.43-0.406z M-0.544-1.298l0.114-0.114l0.11-0.11l0.099-0.098L-0.32-1.719    l-0.11-0.11l-0.209-0.209L-0.544-1.298z M-0.731-2.768l0.302-0.3l0.11-0.112l0.055-0.054l-0.055-0.054l-0.11-0.11l-0.439-0.44    L-0.731-2.768z M0.331-4.22h-1.16l0.4,0.4l0.11,0.11l0.135,0.135l0.036,0.036l0.093,0.094l0.006-0.006l0.098-0.097l0.039-0.04    l0.126-0.126l0.118-0.117l0.39-0.39L0.331-4.22z" fill="#FFFFFF"/>
			<path class="secondary" d="M0.554,2.09c0,0.331-0.269,0.599-0.6,0.599s-0.599-0.269-0.599-0.6S-0.376,1.49-0.046,1.49    C0.286,1.491,0.554,1.759,0.554,2.09z M-0.383,2.09c0,0.186,0.151,0.337,0.337,0.337s0.337-0.151,0.337-0.336    S0.14,1.753-0.046,1.753l0,0C-0.232,1.753-0.382,1.904-0.383,2.09L-0.383,2.09z" fill="#FFFFFF"/>
			<path class="secondary" d="M-0.045,4.293c-1.214,0-2.198-0.984-2.199-2.198c0-0.683,0.317-1.327,0.858-1.743    c0.089-0.066,0.214-0.048,0.28,0.041c0.064,0.087,0.049,0.208-0.036,0.276c-0.787,0.606-0.934,1.735-0.329,2.522    c0.606,0.787,1.735,0.934,2.522,0.329C1.838,2.909,1.986,1.78,1.38,0.993C1.285,0.87,1.174,0.759,1.051,0.664    C0.962,0.598,0.944,0.473,1.01,0.384c0.066-0.088,0.191-0.107,0.28-0.041c0.002,0.002,0.003,0.003,0.005,0.004    c0.962,0.741,1.142,2.121,0.401,3.084C1.28,3.971,0.637,4.293-0.045,4.293L-0.045,4.293z" fill="#FFFFFF"/>
			<path class="secondary" d="M-0.045,3.439c-0.745,0-1.349-0.604-1.349-1.349c0-0.419,0.195-0.814,0.527-1.07    c0.066-0.049,0.16-0.036,0.21,0.031c0.047,0.065,0.035,0.156-0.028,0.207C-1.144,1.611-1.23,2.27-0.877,2.729    s1.012,0.546,1.471,0.192S1.14,1.91,0.786,1.45C0.73,1.378,0.666,1.313,0.594,1.258c-0.065-0.051-0.077-0.145-0.027-0.21    C0.595,1.011,0.639,0.989,0.685,0.99c0.033,0,0.065,0.011,0.092,0.031c0.591,0.454,0.701,1.301,0.247,1.892    C0.769,3.244,0.374,3.439-0.045,3.439L-0.045,3.439z" fill="#FFFFFF"/>
		</g>
	</g></svg>