<?xml version="1.0" standalone="no"?>
<svg xmlns="http://www.w3.org/2000/svg" viewBox="-8.867 -8.867 17.734 17.734" color="#212121" width="75" height="75"><g transform="matrix(1 0 0 -1 0 0)">
		<g xmlns="http://www.w3.org/2000/svg">
			<g>
				<g>
					<circle fill="currentColor" class="primary" cx="0" cy="0" r="8.742"/>
					<path class="secondary" d="M0-8.867c-4.889,0-8.866,3.978-8.866,8.867S-4.889,8.867,0,8.867c4.89,0,8.867-3.978,8.867-8.867      S4.889-8.867,0-8.867z M0,8.617c-4.751,0-8.616-3.866-8.616-8.617S-4.751-8.617,0-8.617c4.752,0,8.617,3.865,8.617,8.617      S4.751,8.617,0,8.617z" fill="#FFFFFF"/>
				</g>
				<g>
					<path class="secondary" d="M-0.722,4.706c0.24-0.24,0.376-0.573,0.376-0.91s-0.136-0.674-0.376-0.91l-0.174,0.17      c0.198,0.194,0.31,0.465,0.306,0.74c0.004,0.271-0.108,0.542-0.306,0.736L-0.722,4.706z" fill="#FFFFFF"/>
					<path class="secondary" d="M-4.437,5.415c-0.43-0.423-0.674-1.019-0.674-1.619c0-0.604,0.244-1.201,0.674-1.623l-0.174-0.171      c-0.232,0.233-0.422,0.515-0.55,0.821c-0.128,0.306-0.194,0.639-0.19,0.972c-0.004,0.329,0.062,0.662,0.19,0.968      c0.128,0.31,0.318,0.589,0.55,0.825L-4.437,5.415z" fill="#FFFFFF"/>
					<path class="secondary" d="M-3.724,2.886c-0.24,0.236-0.38,0.573-0.38,0.91s0.139,0.67,0.38,0.91l0.17-0.174      C-3.747,4.338-3.86,4.067-3.86,3.796c0-0.275,0.112-0.546,0.306-0.74L-3.724,2.886z" fill="#FFFFFF"/>
					<path class="secondary" d="M0.288,3.796c0-0.503-0.205-1.003-0.562-1.359l-0.174,0.174c0.314,0.306,0.492,0.744,0.492,1.185      c0,0.438-0.178,0.876-0.492,1.185l0.174,0.17C0.083,4.799,0.288,4.3,0.288,3.796z" fill="#FFFFFF"/>
					<path class="secondary" d="M-0.01,2.173c0.426,0.422,0.674,1.019,0.67,1.623c0.004,0.601-0.244,1.197-0.67,1.619l0.17,0.174      c0.232-0.236,0.422-0.515,0.55-0.825c0.128-0.306,0.194-0.639,0.194-0.968c0-0.333-0.066-0.666-0.194-0.972      c-0.128-0.306-0.318-0.589-0.55-0.821L-0.01,2.173z" fill="#FFFFFF"/>
					<path class="secondary" d="M-2.748,3.796c0-0.139,0.058-0.271,0.155-0.372c0.097-0.097,0.232-0.151,0.368-0.151      c0.136,0,0.271,0.054,0.368,0.151c0.097,0.101,0.155,0.233,0.155,0.372c0,0.136-0.058,0.271-0.155,0.368      S-2.09,4.319-2.225,4.315c-0.136,0.004-0.271-0.054-0.368-0.151S-2.748,3.932-2.748,3.796z M-1.905-2.844      c0,0.246-0.099,0.484-0.272,0.657c-0.173,0.172-0.411,0.272-0.657,0.272c-0.246,0-0.484-0.1-0.657-0.272      C-3.663-2.36-3.762-2.599-3.762-2.844c0-0.239,0.099-0.485,0.272-0.65c0.172-0.179,0.411-0.279,0.657-0.271      c0.246-0.007,0.484,0.093,0.657,0.271C-2.004-3.329-1.905-3.083-1.905-2.844z M-1.683,4.334c0.139-0.14,0.225-0.341,0.221-0.539      c0.004-0.201-0.081-0.403-0.221-0.542c-0.112-0.112-0.263-0.186-0.422-0.213v-3.134h0.283h1.824h1.824H2.74h0.457      c0.159,0,0.318-0.016,0.472-0.042c0.628-0.116,1.209-0.457,1.615-0.949C5.696-1.569,5.924-2.204,5.92-2.843      c0.004-0.635-0.225-1.271-0.635-1.759C4.878-5.089,4.297-5.434,3.67-5.547C3.515-5.574,3.356-5.589,3.197-5.589H2.74H1.826      H0.002h-1.824h-0.914h-0.457c-0.159,0-0.318,0.016-0.476,0.042c-0.624,0.112-1.205,0.457-1.611,0.945      C-5.692-4.114-5.92-3.478-5.92-2.843c0,0.639,0.228,1.274,0.639,1.759c0.407,0.492,0.988,0.833,1.615,0.949      c0.155,0.027,0.314,0.042,0.473,0.042h0.457h0.391v3.134c-0.159,0.027-0.306,0.101-0.418,0.213      c-0.143,0.139-0.228,0.341-0.225,0.542c-0.004,0.198,0.081,0.399,0.225,0.539c0.139,0.143,0.337,0.225,0.538,0.225      C-2.024,4.559-1.826,4.478-1.683,4.334z M-0.447-2.719v-0.244h3.707v0.244H-0.447z" fill="#FFFFFF"/>
					<path class="secondary" d="M-4.174,2.436c-0.36,0.356-0.566,0.856-0.562,1.359C-4.739,4.3-4.534,4.799-4.174,5.151l0.17-0.17      c-0.314-0.31-0.492-0.748-0.492-1.185c0-0.441,0.178-0.879,0.492-1.185L-4.174,2.436z" fill="#FFFFFF"/>
					<path class="secondary" d="M-3.302-3.303c-0.119,0.119-0.187,0.289-0.187,0.46c0,0.179,0.068,0.349,0.187,0.468      c0.128,0.12,0.298,0.187,0.468,0.187c0.17,0,0.341-0.067,0.469-0.187c0.119-0.119,0.187-0.289,0.187-0.468      c0-0.17-0.068-0.341-0.187-0.46c-0.128-0.119-0.298-0.196-0.469-0.196C-3.004-3.499-3.174-3.421-3.302-3.303z" fill="#FFFFFF"/>
				</g>
			</g>
		</g>
	</g></svg>