<?xml version="1.0" standalone="no"?>
<svg xmlns="http://www.w3.org/2000/svg" viewBox="-6.37 -6.37 12.74 12.74" color="#212121" width="75" height="75"><g transform="matrix(1 0 0 -1 0 0)">
		<g xmlns="http://www.w3.org/2000/svg">
			<circle class="primary" fill="currentColor" cx="0" cy="0" r="6.245"/>
			<path class="secondary" d="M0,6.12c3.38,0,6.12-2.74,6.12-6.12S3.38-6.12,0-6.12S-6.12-3.38-6.12,0S-3.38,6.12,0,6.12 M0,6.37    c-3.513,0-6.37-2.857-6.37-6.37S-3.513-6.37,0-6.37S6.37-3.513,6.37,0S3.513,6.37,0,6.37L0,6.37z" fill="#FFFFFF"/>
		</g>
		<path xmlns="http://www.w3.org/2000/svg" id="Contractor_3_" class="secondary" d="M-0.413,0.684c0.004-0.001,0.02-0.017,0.024-0.021C-0.394,0.618-0.41,0.602-0.42,0.57   c-0.012-0.034-0.006-0.067-0.02-0.095c-0.011-0.019-0.034-0.021-0.04-0.049c-0.016-0.063-0.039-0.134-0.04-0.2   c-0.002-0.02,0.007-0.037,0.003-0.058c-0.005-0.025-0.031-0.049-0.039-0.072C-0.574,0.055-0.572,0.019-0.58-0.033   C-0.59-0.074-0.636-0.157-0.644-0.21c-0.014-0.072,0.042-0.104,0.036-0.157C-0.612-0.392-0.64-0.43-0.646-0.456   C-0.658-0.5-0.653-0.533-0.661-0.585C-0.67-0.624-0.695-0.673-0.706-0.714c-0.028-0.113-0.013-0.249-0.04-0.366   c-0.018-0.068-0.045-0.147-0.061-0.217c-0.027-0.111-0.034-0.219-0.057-0.33C-0.887-1.74-0.928-1.87-0.944-1.989   c-0.014-0.103-0.033-0.216-0.02-0.326c0.003-0.027,0.018-0.065,0.009-0.097c-0.003-0.003-0.002-0.015,0-0.011   C-0.957-2.43-0.96-2.448-0.96-2.448c0.007-0.044,0.011-0.113,0-0.162c-0.016-0.063-0.187-0.064-0.21-0.225   c-0.009-0.07-0.005-0.129-0.011-0.2c-0.015-0.146-0.046-0.304-0.032-0.476c0.005-0.066,0.029-0.146,0.02-0.213   c-0.004-0.033-0.033-0.071-0.045-0.102C-1.272-3.914-1.3-3.995-1.33-4.086c-0.017-0.048-0.058-0.11-0.061-0.166   C-1.395-4.3-1.358-4.327-1.35-4.36c0.007-0.036-0.018-0.149-0.029-0.177c-0.03-0.072-0.143-0.109-0.188-0.177   C-1.59-4.746-1.564-4.812-1.584-4.852C-1.594-4.87-1.627-4.881-1.64-4.899C-1.655-4.924-1.646-4.945-1.655-4.98l-0.026-0.019   c0,0-0.033,0.015-0.023-0.006c0.01-0.02-0.006-0.026-0.006-0.026l-0.025-0.012l-0.064-0.058c0,0,0-0.022-0.015-0.026   C-1.83-5.131-1.895-5.159-1.902-5.166c0.021,0.015-0.016-0.028-0.012-0.016c-0.012-0.03-0.018-0.04-0.031-0.04   c-0.015,0-0.088-0.029-0.088-0.029l-0.045-0.015c-0.115-0.037-0.311-0.098-0.363-0.19c-0.012-0.021-0.012-0.05-0.023-0.071   c-0.042-0.075-0.039-0.099,0.036-0.142c0.188-0.105,0.582-0.084,0.792-0.008c0.043,0.016,0.07,0.045,0.105,0.065   c0.06,0.033,0.145,0.062,0.224,0.072c0.053,0.007,0.076,0.005,0.094-0.032c0.107,0,0.371,0.017,0.41,0.077   c0.01,0.017,0.066,0.221,0.064,0.241c-0.005,0.035-0.026,0.065-0.02,0.116c0.002,0.025,0.015,0.05,0.02,0.073   c0.005,0.037-0.007,0.08,0.004,0.111c0.007,0.024,0.029,0.04,0.039,0.058c0.023,0.033,0.072,0.177,0.082,0.218   c0.021,0.092,0.003,0.223,0.035,0.31c0.037,0.097,0.104,0.192,0.121,0.306c0.019,0.128,0.053,0.247,0.073,0.366   c0.015,0.084,0.013,0.15,0.028,0.229c0.003,0.021,0.023,0.041,0.027,0.06c0.005,0.032-0.008,0.058-0.004,0.085   c0.002,0.024,0.021,0.044,0.027,0.064c0.008,0.025,0.001,0.046,0.01,0.073c0.003,0.016,0.023,0.033,0.027,0.052   c0.005,0.039-0.019,0.062-0.008,0.101c0.006,0.027,0.042,0.054,0.048,0.081c0.009,0.036-0.009,0.079,0,0.116   c0.001,0.006,0.019,0.019,0.02,0.024C-0.2-2.789-0.207-2.77-0.198-2.745c0.007,0.027,0.038,0.05,0.048,0.08   c0.019,0.074,0.014,0.15,0.031,0.221c0.021,0.079,0.062,0.163,0.089,0.241C0-2.108,0.013-2.013,0.046-1.921   C0.059-1.887,0.083-1.86,0.098-1.832c0.051,0.086,0.073,0.183,0.125,0.266C0.234-1.548,0.256-1.53,0.267-1.51   c0,0,0.046,0.08,0.079,0.13c0.035,0.051,0.063,0.101,0.072,0.123c0.012,0.021,0.024,0.07,0.03,0.059   C0.455-1.211,0.486-1.253,0.49-1.265C0.52-1.342,0.484-1.432,0.496-1.53c0.009-0.05,0.013-0.115,0.021-0.178   C0.529-1.8,0.553-1.901,0.574-1.984c0.008-0.032,0.002-0.062,0.008-0.094C0.59-2.126,0.609-2.187,0.618-2.23   c0.011-0.058,0.006-0.104,0.016-0.157C0.646-2.446,0.69-2.521,0.682-2.582C0.672-2.656,0.601-2.726,0.578-2.79   C0.564-2.829,0.567-2.915,0.569-2.956c0.007-0.108,0.065-0.178,0.086-0.27c0.008-0.045-0.007-0.099-0.01-0.137   c-0.009-0.124-0.009-0.229-0.02-0.355C0.624-3.728,0.612-3.78,0.622-3.785C0.621-3.786,0.618-3.8,0.618-3.797   c0-0.019,0.001-0.138-0.005-0.14C0.605-3.942,0.618-3.942,0.618-3.942c0-0.085,0.022-0.164,0.008-0.253   c-0.025-0.151-0.142-0.251-0.161-0.41C0.457-4.675,0.486-4.71,0.48-4.787C0.475-4.865,0.436-4.935,0.43-5.014   C0.422-5.077,0.463-5.049,0.474-5.077C0.5-5.151,0.438-5.231,0.43-5.278c-0.012-0.046,0-0.087-0.01-0.128   c-0.01-0.05-0.052-0.106-0.059-0.146C0.343-5.631,0.338-5.693,0.323-5.777c-0.004-0.035-0.022-0.065-0.011-0.11   C0.358-6.07,0.8-6.009,0.943-5.954c0.158,0.062,0.071,0.391,0.109,0.563C1.055-5.385,1.08-5.33,1.08-5.33   C1.074-5.328,1.035-5.229,1.041-5.205C1.044-5.188,1.1-5.116,1.113-5.101c0.024,0.027,0.04,0.062,0.064,0.093   c0.032,0.04,0.076,0.064,0.105,0.112c0,0,0,0.012,0,0.013c0-0.002,0.011,0.003,0,0.003C1.286-4.84,1.29-4.819,1.299-4.783   c0.021,0.119,0.05,0.262,0.063,0.375c0.006,0.055,0.002,0.097,0.013,0.149C1.39-4.181,1.421-4.086,1.432-4.007   c0.012,0.096,0.012,0.17,0.027,0.258C1.46-3.741,1.465-3.717,1.471-3.712c0,0-0.008,0.021-0.008,0.027   c0.004,0.091,0.036,0.206,0.045,0.29C1.516-3.315,1.52-3.224,1.531-3.15C1.539-3.103,1.52-3.076,1.523-3.04   c0.016,0.138-0.012,0.299,0,0.458C1.531-2.487,1.539-2.348,1.527-2.25c-0.011,0.099-0.075,0.201-0.06,0.325   C1.479-1.83,1.487-1.713,1.496-1.61C1.501-1.541,1.489-1.471,1.5-1.406C1.517-1.29,1.559-1.175,1.568-1.043   C1.573-0.978,1.577-0.9,1.572-0.83C1.57-0.809,1.561-0.765,1.568-0.736s0.054,0.059,0.068,0.088c0.039,0.08,0.013,0.124,0.02,0.208   c0.004,0.06,0.02,0.133,0.012,0.201C1.66-0.171,1.649-0.095,1.645-0.021C1.638,0.048,1.65,0.095,1.64,0.161   C1.634,0.209,1.606,0.259,1.596,0.306c-0.015,0.059-0.005,0.103-0.021,0.16c-0.007,0.03-0.038,0.076-0.031,0.113   c0.004,0.028,0.075,0.089,0.093,0.117C1.653,0.724,1.66,0.755,1.682,0.78c0.017,0.023,0.055,0.03,0.07,0.057   c0.018,0.028,0,0.075-0.007,0.104c0.067,0.063,0.128,0.134,0.172,0.222c0.122,0.243,0.204,0.53,0.267,0.828   c0.055,0.263,0.13,0.546,0.105,0.87C2.276,3.01,2.225,3.15,2.184,3.268C2.16,3.333,2.139,3.405,2.099,3.457   c-0.013,0.017-0.05,0.028-0.069,0.04C1.913,3.579,1.781,3.645,1.648,3.711C1.621,3.724,1.504,3.79,1.492,3.812   c-0.035,0.057-0.053,0.222-0.1,0.255c-0.017,0.02-0.067,0.011-0.11,0.01c-0.044-0.002-0.061,0.001-0.073,0   C1.196,4.075,1.21,4.132,1.21,4.132l0.013,0.134L1.24,4.358c0,0,0.015,0.067,0.017,0.085c0.001,0.02-0.008,0.023,0.006,0.031   c0.016,0.009,0.044,0.038,0.044,0.038c0.047,0.041,0.099,0.119,0.121,0.182c0.019,0.048,0.021,0.111,0.009,0.169   C1.432,4.882,1.404,4.89,1.411,4.919c0,0.003,0.014,0.008,0.016,0.011C1.45,4.988,1.484,4.997,1.52,5.038   c0.024,0.029,0.014,0.031,0.06,0.017c0,0.014,0.007,0.043,0.005,0.049C1.58,5.119,1.552,5.126,1.544,5.14   C1.531,5.16,1.512,5.207,1.508,5.229C1.494,5.295,1.511,5.37,1.503,5.434C1.483,5.609,1.4,5.752,1.286,5.835   C1.252,5.861,1.214,5.874,1.178,5.9C1.12,5.938,1.026,6.018,0.933,6.009C0.912,6.008,0.888,5.99,0.872,5.984   C0.824,5.97,0.783,5.97,0.742,5.952C0.727,5.945,0.713,5.927,0.699,5.92C0.67,5.907,0.645,5.906,0.618,5.892   C0.4,5.782,0.351,5.63,0.275,5.376C0.254,5.305,0.191,5.248,0.191,5.164c0,0,0.007-0.022,0.067-0.033   c0.061-0.01,0.044,0.015,0.051-0.032C0.319,5.053,0.32,5.051,0.32,5.027s0-0.053,0-0.053s-0.05,0.008-0.05-0.03   c0,0-0.021-0.111,0.004-0.183c0-0.005,0.006-0.072,0.016-0.094c0.011-0.021,0.015-0.044,0.021-0.052s0.02-0.041,0.028-0.046   c0.007-0.006,0.022-0.015,0.022-0.015s0.008-0.147,0.02-0.179c0,0,0.025-0.091,0.038-0.118c0.005-0.009,0.006-0.015,0.006-0.015   L0.434,4.16L0.45,4.023l0.004-0.048L0.395,3.91c0,0-0.056-0.06-0.059-0.069c-0.004-0.01-0.035-0.049-0.035-0.049   C0.272,3.761,0.24,3.699,0.204,3.678C0.182,3.667,0.154,3.67,0.127,3.661C0.002,3.628-0.14,3.607-0.224,3.53   c-0.058-0.057-0.094-0.127-0.129-0.206C-0.363,3.3-0.391,3.272-0.4,3.247c-0.044-0.096-0.084-0.201-0.117-0.306   C-0.56,2.804-0.583,2.665-0.642,2.547C-0.695,2.44-0.764,2.351-0.827,2.254C-0.855,2.21-0.904,2.192-0.92,2.132   c-0.007-0.022,0.003-0.068-0.015-0.08c-0.012-0.006-0.1-0.032-0.114-0.029c-0.02,0.007-0.23,0.242-0.258,0.274   C-1.433,2.446-1.586,2.576-1.721,2.72c-0.197,0.208-0.391,0.426-0.596,0.628C-2.335,3.366-2.354,3.36-2.381,3.371   C-2.422,3.392-2.512,3.516-2.55,3.554c-0.105,0.101-0.217,0.199-0.307,0.314C-2.875,3.862-2.883,3.853-2.892,3.85   c-0.025-0.007-0.044,0.014-0.061,0.009c0,0-0.012-0.011-0.013-0.013c-0.023-0.023-0.1-0.117-0.128-0.125   c-0.048-0.009-0.095,0.022-0.153,0.017C-3.33,3.732-3.532,3.66-3.545,3.598c-0.004-0.021,0.004-0.043,0.009-0.056   C-3.521,3.5-3.49,3.479-3.468,3.448c0.062-0.083,0.128-0.163,0.187-0.249c0.107-0.161,0.215-0.321,0.32-0.487   c0,0,0.161-0.242,0.17-0.246c0.008-0.003,0.024-0.021,0.024-0.044c0-0.021-0.003-0.038,0.007-0.079   c0.007-0.044-0.005-0.044,0.013-0.062c0.019-0.018,0.022-0.018,0.021-0.029c-0.002-0.013,0.002-0.027,0.019-0.063   c0.015-0.035,0.04-0.035,0.037-0.046S-2.684,2.094-2.675,2.08c0.009-0.014,0.02-0.025,0.044-0.05   c0.025-0.024,0.017-0.009,0.006-0.022c0,0-0.035-0.036,0.007-0.066s0.083-0.052,0.099-0.055c0.016-0.002,0.048-0.002,0.064-0.006   c0.016-0.003,0.041-0.008,0.06-0.016l0.017-0.006c0,0,0.358-0.618,0.416-0.696c0.056-0.079,0.164-0.252,0.164-0.252   s0.135-0.222,0.183-0.307C-1.565,0.52-1.539,0.422-1.5,0.38c0.037-0.04,0.062-0.021,0.118-0.021c0.059,0,0.21,0.018,0.316,0.048   s0.189,0.094,0.268,0.123c0.079,0.026,0.107,0.057,0.154,0.066c0.049,0.012,0.092,0.05,0.124,0.051   C-0.488,0.651-0.413,0.684-0.413,0.684z" fill="#FFFFFF"/>
	</g></svg>