<?xml version="1.0" standalone="no"?>
<svg xmlns="http://www.w3.org/2000/svg" viewBox="-8.64 -8.64 17.28 17.28" color="#212121" width="75" height="75"><g transform="matrix(1 0 0 -1 0 0)">
			<circle xmlns="http://www.w3.org/2000/svg" fill="currentColor" cx="0" cy="0" r="8.64"/>
			<g xmlns="http://www.w3.org/2000/svg">
				<path fill="#FFFFFF" d="M-2.76,0.19l1.46-0.69l0.22-0.51c0.7-0.21,1.44-0.21,2.13,0L1.29-0.5l1.46,0.69    C2.59,0.7,2.73,1.26,3.1,1.64c0.41,0.7,0.61,1.51,0.57,2.32c0,0.03,0,0.06,0,0.08c0,1.62-1.64,2.94-3.67,2.94    s-3.67-1.32-3.67-2.94l0-0.04l0,0c-0.05-0.83,0.15-1.65,0.57-2.36C-2.73,1.26-2.6,0.7-2.76,0.19z M0.73,1.93L0.73,1.93l0,0.34    l0,0.03l0,0.03v0l0,0C0.78,2.81,1.2,3.15,1.68,3.1c0.4-0.04,0.72-0.36,0.76-0.76l0,0l0-0.05l0-0.05V1.97l0-0.04    C2.39,1.46,1.97,1.11,1.5,1.16C1.1,1.2,0.78,1.51,0.73,1.91l0,0V1.93z M-0.04,1.15c0.33-0.51,0.38-1.33,0.17-1.28    c-0.21,0.05-0.17,0.49-0.17,0.49s-0.34-0.45-0.35-0.33C-0.3,0.42-0.19,0.79-0.04,1.15L-0.04,1.15z M-2.38,1.93L-2.38,1.93l0,0.34    l0,0.03l0,0.03v0c0.05,0.47,0.47,0.81,0.94,0.76c0.4-0.04,0.72-0.36,0.76-0.75l0,0c0-0.03,0-0.06,0-0.09V1.97    c0-0.01,0-0.03,0-0.04c-0.05-0.47-0.47-0.82-0.94-0.77c-0.4,0.04-0.72,0.35-0.77,0.76V1.93z"/>
				<path fill="#FFFFFF" d="M3.98-5.14c0.06-0.4-0.21-0.76-0.6-0.81C3.4-6.03,3.42-6.1,3.42-6.18c0-0.15-0.05-0.31-0.14-0.43    C3.05-6.93,2.61-7,2.27-6.77c-0.32,0.23-0.4,0.69-0.15,1.01L0.03-4.62l-2.08-1.22c0.14-0.21,0.17-0.47,0.08-0.7    c-0.15-0.37-0.58-0.53-0.95-0.38C-3.29-6.77-3.46-6.35-3.3-5.98C-3.38-5.96-3.46-5.93-3.53-5.9c-0.14,0.09-0.24,0.21-0.31,0.38    C-3.96-5.16-3.78-4.74-3.4-4.61c0.37,0.14,0.78-0.06,0.92-0.43l1.57,0.92l-1.83,0.99c-0.09-0.24-0.35-0.41-0.64-0.41    c-0.35,0-0.66,0.26-0.7,0.61c-0.06,0.38,0.21,0.75,0.6,0.81C-3.5-2.04-3.52-1.96-3.52-1.89c0,0.15,0.05,0.31,0.14,0.43    c0.23,0.32,0.67,0.4,1.01,0.17c0.32-0.24,0.4-0.69,0.15-1.01l-0.03-0.05l2.26-1.24l2.28,1.34c-0.15,0.2-0.2,0.47-0.09,0.72    c0.15,0.37,0.57,0.55,0.95,0.4C3.51-1.27,3.68-1.7,3.53-2.07C3.6-2.08,3.68-2.12,3.74-2.15c0.14-0.09,0.23-0.2,0.29-0.34    c0.15-0.37-0.02-0.79-0.38-0.95C3.28-3.58,2.87-3.41,2.7-3.06L0.94-4.09l1.67-0.9C2.7-4.71,2.98-4.53,3.28-4.53    C3.63-4.53,3.94-4.79,3.98-5.14z"/>
			</g>
		</g></svg>