<?xml version="1.0" standalone="no"?>
<svg xmlns="http://www.w3.org/2000/svg" viewBox="-6.37 -6.37 12.74 12.74" color="#212121" width="75" height="75"><g transform="matrix(1 0 0 -1 0 0)">
    <g xmlns="http://www.w3.org/2000/svg">
      <circle class="primary" fill="currentColor" cx="0" cy="0" r="6.245"/>
      <path class="secondary" d="M0,6.12c3.38,0,6.12-2.74,6.12-6.12S3.38-6.12,0-6.12S-6.12-3.38-6.12,0S-3.38,6.12,0,6.12 M0,6.37    c-3.513,0-6.37-2.857-6.37-6.37S-3.513-6.37,0-6.37S6.37-3.513,6.37,0S3.513,6.37,0,6.37L0,6.37z" fill="#FFFFFF"/>
    </g>
    <polygon xmlns="http://www.w3.org/2000/svg" class="secondary" points="0.904,2.719 1.575,3.392 1.575,2.322 3.553,4.457 2.446,1.414 4.857,1.414 2.88,0.625 4.422,-0.722    2.484,-0.405 5.029,-3.726 1.773,-1.907 1.656,-3.133 0.904,-2.063 -0.559,-4.159 -0.559,-1.786 -4.59,-2.737 -1.27,-0.325    -2.852,-0.284 -1.666,0.454 -5.028,2.283 -0.916,1.374 -1.943,2.402 -0.678,2.322 -1.744,5.438  " fill="#FFFFFF"/>
  </g></svg>