<?xml version="1.0" standalone="no"?>
<svg xmlns="http://www.w3.org/2000/svg" viewBox="-6.37 -6.37 12.74 12.74" color="#212121" width="75" height="75"><g transform="matrix(1 0 0 -1 0 0)">
		<g xmlns="http://www.w3.org/2000/svg">
			<circle class="primary" fill="currentColor" cx="0" cy="0" r="6.245"/>
			<path class="secondary" d="M0,6.12c3.38,0,6.12-2.74,6.12-6.12S3.38-6.12,0-6.12S-6.12-3.38-6.12,0S-3.38,6.12,0,6.12 M0,6.37    c-3.513,0-6.37-2.857-6.37-6.37S-3.513-6.37,0-6.37S6.37-3.513,6.37,0S3.513,6.37,0,6.37L0,6.37z" fill="#FFFFFF"/>
		</g>
		<path xmlns="http://www.w3.org/2000/svg" id="family_1_" class="secondary" d="M-2.085-4.68c-0.08-0.011-0.217,0-0.271,0.018c-0.055,0.019-0.1,0.227-0.1,0.299   c-0.1-0.062-0.191-0.053-0.273-0.053c-0.08,0-0.184,0.007-0.217,0.063c-0.031,0.056-0.072,0.081-0.135,0.126   C-3.145-4.181-3.208-4.2-3.227-4.155c-0.018,0.046,0,0.073,0.027,0.118s0.072,0.145,0.072,0.245s0.027,0.472,0.047,0.617   c-0.346-0.009-0.455,0-0.572,0c-0.119,0-0.154,0.017-0.236,0.017s-0.1,0.056-0.082,0.174c0.02,0.117,0.01,0.779,0.064,0.889   c-0.065,0.308-0.147,0.4-0.147,0.445c-0.125,0.019-0.107,0.244-0.08,0.336c0.025,0.09,0.062,0.218,0.062,0.218   c-0.055,0.009-0.082,0.073-0.062,0.163c0.018,0.091,0.053,0.209,0.053,0.29c0,0.082-0.008,0.3-0.045,0.499   C-4.161,0.055-4.153,0.346-4.144,0.5c0.01,0.154,0.035,0.554,0.045,0.708c0.01,0.153,0.021,0.263,0.027,0.294   c-0.07,0.066-0.143,0.177-0.135,0.255c0.008,0.077,0.039,0.23,0.104,0.287C-4.038,2.1-4.003,2.1-3.972,2.128   c0.029,0.028,0.102,0.075,0.131,0.044c0.029-0.03,0.07-0.062,0.09-0.075c0.049,0.045,0.115,0.124,0.146,0.171   c-0.045,0.069-0.072,0.107-0.072,0.15c0,0.044,0.029,0.18,0.068,0.229c0.037,0.049,0.104,0.139,0.117,0.185   c0.016,0.047,0.004,0.227,0.021,0.296c0.018,0.07,0.082,0.188,0.121,0.233C-3.312,3.407-3.206,3.47-3.144,3.49   c0.062,0.021,0.156,0.026,0.209,0.021C-2.886,3.506-2.72,3.479-2.69,3.452c0.027-0.028,0.15-0.193,0.17-0.236   c0.018-0.044,0.045-0.062,0.047-0.077c0.016,0.115,0.004,0.218,0.057,0.274c0.055,0.057,0.191,0.145,0.262,0.185   C-2.086,3.64-1.793,3.709-1.73,3.735C-1.671,3.76-1.649,3.86-1.649,3.892s-0.02,0.033-0.047,0.064   c-0.029,0.03-0.088,0.12-0.107,0.144c-0.021,0.023-0.062,0.062-0.074,0.103c-0.014,0.042-0.031,0.104-0.029,0.152   c0.002,0.049-0.006,0.187,0.02,0.27C-1.86,4.706-1.728,4.81-1.677,4.86c0.053,0.051,0.193,0.085,0.234,0.082   c0.041-0.003,0.209-0.017,0.266-0.054C-1.12,4.852-0.948,4.71-0.929,4.674C-0.907,4.64-0.884,4.526-0.884,4.48   s0.01-0.099,0.016-0.131c0.004-0.034,0.008-0.102,0.004-0.124C-0.866,4.202-0.891,4.112-0.901,4.08   c-0.01-0.03-0.051-0.158-0.047-0.197c0.002-0.038,0.02-0.077,0.078-0.105C-0.815,3.75-0.546,3.657-0.495,3.65   c0.049-0.008,0.109-0.062,0.143-0.096c0.033-0.033,0.078-0.092,0.096-0.118s0.035-0.033,0.061-0.033   c0.027,0,0.086-0.008,0.111-0.014c0.006,0.055,0,0.09,0,0.104c-0.039,0.024-0.049,0.038-0.074,0.038S-0.22,3.52-0.246,3.536   c-0.025,0.016-0.068,0.027-0.088,0.056C-0.353,3.622-0.372,3.75-0.356,3.83c0.014,0.08,0.074,0.262,0.125,0.378   c0.053,0.116,0.178,0.265,0.236,0.306C0.063,4.555,0.19,4.588,0.298,4.558c0.109-0.031,0.277-0.119,0.293-0.15   c0.016-0.03,0.152-0.336,0.162-0.402C0.763,3.938,0.8,3.822,0.769,3.773c-0.031-0.05-0.057-0.151-0.064-0.211   C0.697,3.502,0.689,3.436,0.66,3.423C0.628,3.41,0.542,3.393,0.522,3.385C0.524,3.336,0.54,3.297,0.591,3.29   c0.053-0.008,0.104-0.052,0.15-0.091C0.788,3.161,0.856,3.11,0.876,3.066c0.057,0.09,0.148,0.175,0.207,0.202   c0.059,0.028,0.121,0.055,0.166,0.099C1.296,3.41,1.497,3.542,1.534,3.593c0.039,0.052,0.117,0.099,0.129,0.134   C1.677,3.763,1.667,3.92,1.667,3.95c-0.045,0.086-0.08,0.193-0.104,0.225c-0.023,0.03-0.06,0.105-0.07,0.156   c-0.01,0.051-0.014,0.095-0.014,0.151s0.006,0.149,0.027,0.217c0.02,0.066,0.072,0.151,0.117,0.2   C1.67,4.948,1.824,5.035,1.898,5.05C1.974,5.066,2.14,5.102,2.242,5.045c0.1-0.057,0.209-0.193,0.213-0.239   c0.002-0.047,0.018-0.26,0.018-0.319s0.02-0.17-0.006-0.224C2.442,4.21,2.409,4.092,2.39,4.046C2.368,4,2.354,3.796,2.382,3.789   c0.025-0.008,0.117-0.052,0.195-0.087c0.076-0.037,0.238-0.086,0.25-0.099C2.892,3.75,2.966,3.816,3.022,3.868   C3.075,3.92,3.22,3.981,3.278,3.977c0.059-0.006,0.184-0.034,0.25-0.083c0.068-0.048,0.141-0.167,0.16-0.23   c0.021-0.065,0.09-0.288,0.094-0.36C3.784,3.23,3.808,3.066,3.851,3.01C3.896,2.953,3.945,2.9,3.945,2.864   c0-0.037-0.039-0.113-0.068-0.142C3.849,2.693,3.759,2.606,3.735,2.588C3.712,2.569,3.706,2.455,3.71,2.431   c0.064-0.09,0.205-0.32,0.223-0.361c0.02-0.042,0.021-0.132,0.021-0.171c0-0.038,0.006-0.243,0.006-0.277   c0-0.032,0.018-0.391,0.018-0.432S3.964,0.442,3.964,0.38S3.95-0.307,3.95-0.399c0-0.093-0.018-0.254-0.018-0.285   c0-0.03,0.047-0.2,0.07-0.254C4.026-0.993,4.034-1.094,4.019-1.17C4.003-1.247,3.964-1.324,3.896-1.348   c-0.07-0.023-0.102-0.069-0.162-0.078C3.726-1.563,3.735-1.872,3.729-1.969C3.722-2.063,3.718-2.153,3.71-2.266   C3.7-2.377,3.729-2.488,3.716-2.539C3.702-2.59,3.679-2.604,3.573-2.658C3.558-2.832,3.54-3.214,3.54-3.268   c0-0.055,0.086-0.186,0.123-0.239C3.702-3.561,3.847-3.672,3.956-3.73c0.109-0.059,0.199-0.045,0.232-0.14   c0.037-0.095,0.021-0.2-0.07-0.208c-0.092-0.007-0.262,0-0.365,0.057c-0.102,0.058-0.217,0.11-0.305,0.129   C3.36-3.875,3.185-3.826,3.167-3.765c-0.016,0.062-0.02,0.357-0.012,0.451C3.101-3.445,3.04-3.604,3.017-3.686   c-0.023-0.08-0.109-0.455-0.07-0.516c0.039-0.062,0.129-0.203,0.225-0.266C3.265-4.53,3.394-4.553,3.446-4.607   C3.501-4.665,3.532-4.734,3.493-4.78C3.454-4.825,3.397-4.848,3.286-4.812C3.175-4.773,3.095-4.688,2.985-4.653   C2.876-4.618,2.737-4.609,2.669-4.587c-0.07,0.023-0.166,0-0.146,0.132c0.021,0.132,0.059,0.266,0.104,0.371   C2.507-4.239,2.44-4.291,2.38-4.334C2.317-4.377,2.261-4.379,2.261-4.379S2.233-4.421,2.269-4.523   c0.037-0.101,0.072-0.219,0.117-0.284c0.043-0.065,0.16-0.212,0.074-0.25C2.376-5.096,2.214-5.072,2.11-5.041   c-0.105,0.03-0.211,0.133-0.223,0.25c-0.014,0.119,0,0.232,0.02,0.303c0.021,0.07,0.014,0.094,0.029,0.179   c-0.039,0.082-0.111,0.11-0.07,0.151c0.039,0.042,0.053,0.086,0.09,0.115C1.962-3.849,1.981-3.63,2.005-3.522   c-0.277,0.108-0.361,0.13-0.424,0.215c-0.06,0.085-0.217,0.162-0.217,0.232c0,0.069,0.023,0.172,0.078,0.303   s0.102,0.269,0.104,0.345C1.548-2.353,1.503-1.648,1.534-1.44C1.403-1.154,1.304-0.947,1.28-0.885   c-0.037-0.2-0.047-0.594-0.047-0.688C1.102-1.626,0.84-1.693,0.794-1.734c0-0.2,0.004-0.352-0.018-0.484   c-0.02-0.133-0.104-0.547-0.098-0.649C0.685-2.97,0.61-3.353,0.64-3.414c0.031-0.062,0.162-0.209,0.225-0.255   C0.925-3.715,1.05-3.738,1.118-3.77c0.07-0.03,0.123-0.048,0.078-0.123C1.151-3.969,1.05-4.009,0.925-3.958   C0.802-3.908,0.7-3.824,0.63-3.824C0.563-3.823,0.458-3.789,0.394-3.775C0.331-3.762,0.31-3.724,0.31-3.63   c0,0.091-0.01,0.57-0.033,0.716C0.255-2.768,0.192-2.573,0.185-2.389C0.179-2.204,0.187-1.934,0.192-1.841   C0.054-1.856-0.11-1.922-0.171-1.901c-0.068-0.28-0.109-0.431-0.094-0.544c0.018-0.113,0.041-0.322-0.004-0.452   c-0.047-0.131-0.094-0.347-0.094-0.425c0-0.077,0.016-0.293,0.016-0.315c0.131-0.062,0.23-0.107,0.25-0.15s0.02-0.123-0.039-0.169   C-0.195-4.001-0.179-4-0.282-4.011c0.066-0.104,0.117-0.254,0.182-0.32c0.066-0.066,0.119-0.233,0.039-0.243   C-0.14-4.586-0.233-4.645-0.337-4.607c-0.104,0.036-0.242,0.034-0.26,0.165c-0.015,0.131-0.05,0.357-0.043,0.434   C-0.772-3.939-0.938-3.88-1.013-3.844C-1.087-3.809-1.233-3.8-1.257-3.762C-1.28-3.724-1.294-3.669-1.179-3.627   c0.053,0.201,0.092,0.567,0.076,0.652C-1.118-2.89-1.12-2.525-1.169-2.361C-1.218-2.196-1.218-1.694-1.181-1.61   C-1.38-1.633-1.542-1.672-1.604-1.672C-1.62-1.795-1.62-2.027-1.62-2.143c0-0.115-0.061-0.663-0.084-0.794s-0.031-0.234-0.02-0.297   C-1.712-3.296-1.669-3.5-1.656-3.566C-1.638-3.63-1.502-3.885-1.463-3.94c0.039-0.054,0.109-0.185,0.109-0.22   c0-0.034-0.025-0.076-0.109-0.085c-0.084-0.008-0.4-0.026-0.479,0.03c-0.076,0.06-0.187,0.206-0.215,0.247   c-0.027,0.043-0.07,0.059-0.07,0.059s0.07-0.166,0.104-0.212c0.035-0.046,0.156-0.209,0.205-0.285   c0.051-0.077,0.09-0.158,0.027-0.189C-1.95-4.626-2.003-4.669-2.085-4.68z M-2.853-3.692c0-0.084-0.004-0.143,0.041-0.188   c0.047-0.047,0.1-0.104,0.148-0.14c0.045-0.034,0.111-0.084,0.156-0.12c0.047-0.033,0.047-0.045,0.07-0.011   c-0.006,0.035-0.086,0.261-0.1,0.282c-0.01,0.019-0.119,0.235-0.25,0.447C-2.796-3.469-2.853-3.608-2.853-3.692z M-2.374-3.519   C-2.368-3.596-2.31-3.78-2.271-3.846c0.01,0.004,0.035,0.011,0.049,0.042c0.016,0.031,0.07,0.038,0.117,0.062   c0,0.022,0.053,0.127,0.064,0.154c0.012,0.027-0.025,0.104-0.02,0.177c0.008,0.073,0.012,0.186,0.012,0.247   c0,0.062-0.049,0.189-0.049,0.189l-0.297-0.093C-2.403-3.148-2.382-3.442-2.374-3.519z M-0.71-3.307   c-0.01,0.039-0.07,0.185-0.07,0.185s0.027-0.204,0.051-0.281c0.023-0.077,0.062-0.112,0.062-0.112   C-0.675-3.484-0.698-3.345-0.71-3.307z M2.688-3.445c0,0.046,0,0.216,0,0.216L2.61-3.214c0,0-0.006-0.02-0.031-0.104   c0.027-0.046,0.066-0.15,0.066-0.217c0-0.064,0.016-0.13,0.016-0.13C2.663-3.603,2.688-3.491,2.688-3.445z M3.786-1.174   c0.014,0.026,0.016,0.1,0.016,0.131c0,0.03-0.002,0.073-0.016,0.058c-0.01-0.016-0.045-0.076-0.068-0.111   C3.694-1.132,3.722-1.231,3.722-1.231C3.747-1.225,3.776-1.201,3.786-1.174z" fill="#FFFFFF"/>
	</g></svg>