<?xml version="1.0" standalone="no"?>
<svg xmlns="http://www.w3.org/2000/svg" viewBox="-6.37 -6.37 12.74 12.74" color="#212121" width="75" height="75"><g transform="matrix(1 0 0 -1 0 0)">
		<g xmlns="http://www.w3.org/2000/svg">
			<circle class="primary" fill="currentColor" cx="0" cy="0" r="6.245"/>
			<path class="secondary" d="M0,6.12c3.38,0,6.12-2.74,6.12-6.12S3.38-6.12,0-6.12S-6.12-3.38-6.12,0S-3.38,6.12,0,6.12 M0,6.37    c-3.513,0-6.37-2.857-6.37-6.37S-3.513-6.37,0-6.37S6.37-3.513,6.37,0S3.513,6.37,0,6.37L0,6.37z" fill="#FFFFFF"/>
		</g>
		<path xmlns="http://www.w3.org/2000/svg" id="HIjacker_3_" class="secondary" d="M1.299,3.942c0.012-0.084-0.009-0.188,0.07-0.237c0.073-0.045,0.149-0.117,0.194-0.19   C1.597,3.46,1.559,3.312,1.53,3.26C1.489,3.177,1.48,3.09,1.485,2.991c0.006-0.142,0.031-0.522-0.122-0.6   C1.256,2.337,1.113,2.345,0.995,2.35C0.849,2.355,0.743,2.358,0.61,2.297c0-0.273,0.12-0.584,0.19-0.848   c0.075-0.28,0.148-0.571,0.241-0.846c0.086-0.255,0.19-0.521,0.114-0.792C1.08-0.45,0.809-0.209,0.636-0.29   c0.006-0.082,0.028-0.178,0.055-0.256c0.025-0.077-0.006-0.196-0.001-0.28c0.014-0.219-0.007-0.442-0.003-0.662   C0.69-1.581,0.644-1.66,0.655-1.748c0.012-0.11,0.032-0.223,0.037-0.334c0.014-0.246,0.052-0.49,0.047-0.737   C0.73-3.275,0.845-3.692,0.997-4.118c0.08-0.22,0.131-0.451,0.195-0.671C1.203-4.825,1.2-4.998,1.241-5.012   c0.071-0.021,0.125-0.08,0.193-0.139C1.491-5.199,1.538-5.25,1.6-5.291c0.102-0.064,0.175-0.07,0.288-0.108   c0.13-0.044,0.318-0.058,0.361-0.215c0.03-0.108-0.14-0.091-0.22-0.094C1.863-5.714,1.685-5.709,1.52-5.684   c-0.157,0.025-0.317,0.08-0.472,0.122c-0.025,0.008-0.12,0.025-0.123-0.014C0.922-5.619,0.94-5.656,0.887-5.653   C0.759-5.649,0.622-5.655,0.496-5.627C0.38-5.601,0.501-5.17,0.505-5.074C0.439-5.059,0.38-5.093,0.328-5.127   C0.225-4.905,0.149-4.726,0.102-4.484C0.045-4.203-0.005-3.918-0.057-3.637c-0.096,0.512-0.169,1.035-0.286,1.543   c-0.03,0.13-0.056,0.262-0.088,0.392c-0.031,0.123-0.05,0.085-0.09-0.004c-0.105-0.23-0.155-0.472-0.248-0.706   C-0.847-2.605-0.896-2.83-0.942-3.033c-0.065-0.291-0.161-0.573-0.246-0.855c-0.067-0.223-0.184-0.438-0.207-0.667   c-0.014-0.136-0.022-0.27-0.021-0.405c0.001-0.08-0.055-0.305-0.002-0.366c0.056-0.062,0.094-0.122,0.166-0.164   c0.077-0.045,0.151-0.104,0.218-0.164c0.056-0.052,0.114-0.132,0.135-0.202c0.023-0.064-0.248-0.057-0.28-0.061   C-1.397-5.935-1.636-5.92-1.837-5.836C-1.943-5.79-1.971-5.756-2.089-5.77c-0.082-0.01-0.173,0.039-0.164,0.124   c0.013,0.11-0.009,0.212,0.02,0.323c0.01,0.039,0.056,0.173,0.017,0.203C-2.248-5.098-2.241-5.034-2.236-5   c0.014,0.128,0.021,0.252,0.029,0.381c0.022,0.423,0.052,0.849,0.101,1.27c0.022,0.194,0.058,0.391,0.104,0.582   c0.023,0.096,0.059,0.197,0.104,0.286c0.04,0.074,0.149,0.156,0.172,0.234c0.029,0.109,0.014,0.171,0.084,0.271   c0.038,0.057,0.005,0.141,0.01,0.211C-1.619-1.586-1.655-1.371-1.607-1.2C-1.59-1.142-1.52-1.066-1.556-1.002   c-0.042,0.076-0.017,0.079-0.005,0.159c0.01,0.062-0.023,0.12-0.007,0.187s0.017,0.109,0.024,0.172   C-1.62-0.449-1.591-0.387-1.597-0.303c-0.006,0.085,0.002,0.171-0.001,0.258c-0.005,0.124,0.012,0.26,0.021,0.386   c0.011,0.122,0.088,0.251,0.07,0.372c-0.024,0.194-0.051,0.433,0.006,0.624c0.059,0.195-0.077,0.484-0.115,0.683   c-0.039,0.219-0.115,0.436-0.175,0.65c-0.073,0.256-0.066,0.534-0.043,0.798c0.016,0.184,0.151,0.453,0.279,0.586   C-1.53,4.08-1.351,4.136-1.357,4.169C-1.366,4.223-1.305,4.302-1.28,4.357c0.013,0.025,0.013,0.062,0.04,0.078   c0.019,0.013,0.051-0.011,0.062-0.002c0.025,0.017,0.04,0.025,0.038,0.059c0.07,0.129-0.01,0.248-0.048,0.372   c-0.04,0.13,0.045,0.259,0.051,0.381c0.01,0.149-0.023,0.303,0.055,0.438c0.117,0.197,0.438,0.276,0.639,0.226   c0.13-0.033,0.253-0.079,0.364-0.168c0.094-0.073,0.164-0.172,0.196-0.298c0.02-0.075,0.038-0.241-0.034-0.314   C0.048,5.098,0.015,5.011-0.005,4.972c-0.005-0.031-0.005-0.065,0-0.097c-0.008-0.027-0.019-0.053-0.032-0.077   C-0.05,4.75-0.043,4.676-0.071,4.628c-0.026-0.042-0.05-0.033-0.067-0.083C-0.171,4.46-0.201,4.379-0.257,4.306   c-0.028-0.04-0.078-0.063-0.092-0.113c-0.017-0.062,0.008-0.1,0.008-0.163c0.04-0.019,0.112,0.036,0.148-0.016   c0.037-0.058,0.029-0.151,0.005-0.21C-0.235,3.69-0.042,3.668,0.03,3.594c0.047-0.046,0.169-0.282,0.232-0.302   c0.054-0.017,0.049,0.036,0.112-0.021c0.042-0.035,0.127-0.087,0.169-0.013c0.115,0.215,0.218,0.423,0.312,0.651   c0.038,0.09-0.092,0.163-0.149,0.214C0.631,4.19,0.59,4.295,0.507,4.346C0.489,4.357,0.403,4.3,0.423,4.363   C0.43,4.386,0.484,4.407,0.43,4.428C0.396,4.441,0.398,4.56,0.399,4.596C0.403,4.722,0.42,4.877,0.43,5.012   c0.002,0.04,0.032,0.156,0.002,0.186C0.397,5.232,0.526,5.276,0.575,5.225c0.029-0.031,0.027-0.104,0.039-0.146   c0.029-0.105,0.076-0.066,0.137-0.13C0.823,4.88,0.802,4.97,0.876,4.937c0.049-0.021,0.06-0.072,0.043-0.121   c0.051,0.022,0.112,0.01,0.128-0.048c0.091,0.082,0.1-0.046,0.149-0.076C1.24,4.664,1.273,4.698,1.309,4.634   c0.022-0.039,0.044-0.117,0.022-0.162C1.309,4.43,1.304,4.313,1.301,4.268C1.296,4.154,1.282,4.054,1.299,3.942 M0.617,4.864   c-0.005,0.195,0.206,0.024,0.155,0C0.77,4.861,0.737,4.914,0.709,4.913c-0.04-0.003-0.071-0.023-0.09-0.06L0.617,4.864    M0.778,4.843C0.78,4.831,0.789,4.705,0.753,4.709C0.7,4.715,0.776,4.853,0.778,4.843 M0.456,4.373   C0.443,4.323,0.417,4.348,0.456,4.373" fill="#FFFFFF"/>
	</g></svg>