<?xml version="1.0" standalone="no"?>
<svg xmlns="http://www.w3.org/2000/svg" viewBox="-6.37 -6.37 12.74 12.74" color="#212121" width="75" height="75"><g transform="matrix(1 0 0 -1 0 0)">
		<g xmlns="http://www.w3.org/2000/svg">
			<circle class="primary" fill="currentColor" cx="0" cy="0" r="6.245"/>
			<path class="secondary" d="M0,6.12c3.38,0,6.12-2.74,6.12-6.12S3.38-6.12,0-6.12S-6.12-3.38-6.12,0S-3.38,6.12,0,6.12 M0,6.37    c-3.513,0-6.37-2.857-6.37-6.37S-3.513-6.37,0-6.37S6.37-3.513,6.37,0S3.513,6.37,0,6.37L0,6.37z" fill="#FFFFFF"/>
		</g>
		<path xmlns="http://www.w3.org/2000/svg" id="Man_1_" class="secondary" d="M-1.131-2.975c0.04,0.158-0.083,0.505,0.012,0.6c0.093,0.093,0.105,0.388,0.105,0.518   c0,0.129-0.036,0.623-0.047,0.753c-0.014,0.128-0.095,0.741-0.117,0.976c-0.084,0.165-0.177,0.165-0.225,0.283   c-0.047,0.116-0.081,0.529-0.14,0.647c-0.059,0.117-0.071,0.635-0.048,0.776C-1.567,1.72-1.496,2.401-1.45,2.507   c0.048,0.106,0.13,0.684,0.178,0.836c0.046,0.153,0.117,0.495,0.223,0.495s0.436,0.07,0.541,0.082   c0.107,0.012,0.247,0.141,0.331,0.199c0,0.142,0,0.365,0,0.4s-0.07,0.199-0.07,0.294c0,0.095,0.046,0.33,0.094,0.425   c0.046,0.093,0.175,0.281,0.235,0.317C0.139,5.592,0.398,5.66,0.48,5.627c0.082-0.035,0.306-0.201,0.342-0.296   c0.036-0.093,0.07-0.281,0.024-0.389C0.798,4.838,0.786,4.554,0.74,4.496C0.692,4.438,0.67,4.284,0.67,4.19   c0-0.095-0.049-0.212,0.01-0.271c0.06-0.06,0.106-0.142,0.225-0.224c0.117-0.083,0.224-0.224,0.271-0.281   c0.046-0.06,0.141-0.296,0.153-0.391C1.34,2.93,1.377,2.67,1.398,2.505C1.423,2.343,1.469,2.096,1.493,1.99   c0.023-0.106,0.188-0.317,0.059-0.447C1.423,1.414,1.139,1.154,1.115,1.049C1.093,0.943,1.128,0.73,1.175,0.567   C1.221,0.402,1.246,0.096,1.246-0.08S1.104-0.47,1.104-0.587c0-0.119-0.093-0.565-0.105-0.684C0.986-1.388,0.904-1.6,0.904-1.788   S0.845-2.211,0.845-2.306C0.845-2.4,0.822-2.6,0.822-2.73c0-0.128-0.036-0.659-0.083-0.776C0.692-3.623,0.562-4.023,0.562-4.117   c0-0.095,0.07-0.317,0.07-0.389c0-0.07,0.037-0.164,0.083-0.283C0.763-4.906,0.88-5.001,0.891-5.095   c0.013-0.094,0-0.248-0.152-0.258c-0.152-0.012-0.352,0.07-0.447,0.189c-0.094,0.117-0.153,0.258-0.211,0.34   c-0.06,0.083-0.095,0.342-0.095,0.507c0,0.164,0.118,0.411,0.118,0.552c0,0.143,0.023,0.638,0.034,0.778   c0.013,0.141,0.023,0.623,0.023,0.74c0,0.117,0.06,0.625,0.06,0.765c0,0.142,0.023,0.52,0,0.612   C0.198-0.775,0.058-0.622,0.058-0.693c0-0.07-0.071-0.317-0.084-0.482c-0.011-0.165-0.082-0.53-0.082-0.729   c0-0.2-0.115-0.53-0.14-0.671c-0.024-0.141-0.106-0.518-0.106-0.671S-0.448-4-0.413-4.104C-0.379-4.21-0.32-4.563-0.366-4.646   C-0.413-4.729-0.564-4.93-0.649-5.011C-0.636-5.236-0.626-5.435-0.79-5.53c-0.165-0.095-0.307-0.165-0.412-0.036   c-0.105,0.131-0.152,0.213-0.07,0.354C-1.19-5.071-1.178-4.988-1.19-4.835c-0.012,0.152-0.047,0.142,0.013,0.317   c0.059,0.176,0.141,0.4,0.117,0.517c-0.024,0.118-0.014,0.495-0.014,0.578C-1.074-3.342-1.144-3.023-1.131-2.975z M-0.931,1.673   c0.104,0.164,0.06,0.259,0,0.435C-0.966,1.919-0.991,1.789-0.931,1.673z" fill="#FFFFFF"/>
	</g></svg>