<?xml version="1.0" standalone="no"?>
<svg xmlns="http://www.w3.org/2000/svg" viewBox="-6.37 -6.37 12.74 12.74" color="#212121" width="75" height="75"><g transform="matrix(1 0 0 -1 0 0)">
		<g xmlns="http://www.w3.org/2000/svg">
			<circle class="primary" fill="currentColor" cx="0" cy="0" r="6.245"/>
			<path class="secondary" d="M0,6.12c3.38,0,6.12-2.74,6.12-6.12S3.38-6.12,0-6.12S-6.12-3.38-6.12,0S-3.38,6.12,0,6.12 M0,6.37    c-3.513,0-6.37-2.858-6.37-6.37S-3.513-6.37,0-6.37S6.37-3.513,6.37,0S3.513,6.37,0,6.37L0,6.37z" fill="#FFFFFF"/>
		</g>
		<g xmlns="http://www.w3.org/2000/svg" id="Militant_1_">
			<path class="secondary" d="M1.8-0.021C1.787,0.011,1.711,0.114,1.646,0.224c-0.065,0.108-0.1,0.234-0.141,0.313    C1.464,0.613,1.422,0.744,1.381,0.81C1.342,0.877,1.293,0.984,1.128,1.039C0.961,1.094,0.891,1.11,0.824,1.134    c-0.066,0.022-0.088,0.044-0.1,0.054C0.708,1.199,0.646,1.223,0.638,1.241C0.629,1.26,0.572,1.248,0.572,1.248    s0.002,0.087,0.019,0.205C0.607,1.571,0.629,1.64,0.629,1.64s0.037-0.007,0.053,0.025c0.008,0.021,0.01,0.046,0.01,0.073    c0.002,0,0.002-0.001,0.002-0.001s0.071,0.398-0.081,0.526c0,0-0.022,0.006-0.059,0.016C0.479,2.364,0.362,2.445,0.251,2.422    C0.152,2.403,0.07,2.354,0.009,2.286c-0.025-0.007-0.053-0.013-0.077-0.022c0,0-0.093-0.18-0.081-0.305    c0.009-0.074,0.015-0.126,0.02-0.157C-0.124,1.776-0.12,1.75-0.121,1.725c-0.002-0.044,0.019-0.103,0.076-0.069    c0,0-0.002-0.047,0.011-0.104c0.013-0.056,0.027-0.096,0.027-0.164c0-0.066-0.009-0.106-0.014-0.115    c-0.003-0.009,0.016,0-0.053-0.037C-0.141,1.198-0.163,1.14-0.181,1.17c-0.017,0.029-0.032,0.037-0.054,0.029    c-0.02-0.009-0.024,0-0.043,0.01c-0.019,0.012-0.031-0.002-0.063,0.008c-0.001,0,0,0.002,0,0.002h0.001l0.002,0.009l0.002,0.005    l0.005,0.006v0.015l-0.005,0.018l-0.016,0.067l-0.09,0.44l-0.027,0.129l-0.008,0.038l-0.006,0.02l-0.019,0.026l-0.026,0.047    l-0.01,0.017l-0.004,0.011L-0.548,2.09L-0.55,2.133v0.032v0.027v0.002v0.002l0,0v0.002v0.001l0,0V2.2l0,0v0.002v0.001l0,0v0.001    l0,0l0,0v0.001v0.004v0.006v0.001l0.002,0.06l0.003,0.068l-0.001,0.011v0.014V2.37v0.006L-0.55,2.381l0.001,0.002H-0.55v0.002    l0.012,0.01l0.016,0.016l0.002-0.005L-0.518,2.4l0.002-0.007l0.005,0.006h0.002V2.4l0.002,0.002h0.002l0.001,0.002l0.003,0.001    l0.002,0.002h0.002l0.002,0.003l0.002,0.001l-0.002,0.005v0.001l-0.001,0.005h-0.002L-0.5,2.435l0.013,0.014l0.017,0.022    l0.002,0.001l0.016,0.021l0.007,0.02l0.001,0.013l-0.012,0.066l0.004,0.002v0.004l-0.025,0.136l-0.001,0.002l-0.006,0.001    L-0.498,2.81l0.002,0.004l0.001,0.007l-0.002,0.007L-0.499,2.83l-0.003,0.001l-0.011,0.061l0.004,0.003V2.9l-0.036,0.192    l-0.002,0.004l-0.004,0.002l-0.008,0.04l0.003,0.002l0.001,0.006l-0.003,0.01l-0.003,0.002l-0.002,0.001l-0.012,0.059l0.005,0.003    v0.005l-0.036,0.199L-0.607,3.43l-0.006,0.002L-0.62,3.467l0.002,0.003l0.001,0.006L-0.62,3.487l-0.004,0.002L-0.63,3.527    l0.003,0.004l0.001,0.004L-0.64,3.594h0.006l0.002-0.007l0.006-0.005l0.008-0.005l0.007-0.001l0,0h0.002l0.002-0.001v0.001h0.001    l0.001-0.003V3.57l0.002-0.007l0,0l0.001-0.002l0.001-0.003l0,0l0.002-0.014H-0.6l0.003-0.011h0.005l0.033,0.005v0.004    L-0.576,3.55h-0.002l-0.011-0.004l-0.008,0.028l0.01,0.003l0.005,0.004l0.008,0.007l0.004,0.008l0.001,0.006v0.012L-0.571,3.62    l-0.005,0.006l-0.006,0.006l-0.002,0.003l-0.005,0.002L-0.6,3.639h-0.005l-0.008-0.002l-0.04,0.155h0.004v0.002l0.001,0.002    l0.007,0.002L-0.639,3.8v0.001h0.002l0.004,0.003v0.003L-0.637,3.83v0.006l0.006,0.006v0.003l-0.002,0.006l-0.002,0.004    L-0.641,3.86l-0.006,0.002L-0.65,3.859l-0.006,0.004l-0.002,0.003l-0.004,0.01v0.006l-0.002,0.006l-0.003,0.006v0.002h-0.002    v0.001l-0.002,0.001L-0.673,3.9l-0.005,0.005L-0.68,3.906h-0.001h-0.003l-0.002,0.001l-0.002,0.001H-0.69l0,0h-0.006l-0.043-0.01    L-0.743,3.92l0.024,0.005l0.006,0.004l0.004,0.002l0.002,0.002l0,0l0.002,0.002l-0.004,0.018h0.004l0.007,0.004L-0.71,4.033    l-0.034,0.169l-0.029,0.124L-0.799,4.42l-0.002,0.005l-0.002,0.001l-0.005,0.027L-0.812,4.46l-0.002,0.003l-0.008,0.004    l-0.007,0.001L-0.84,4.466l-0.002,0.003l-0.002,0.01l-0.005,0.01l-0.006,0.039h-0.006L-0.887,4.68L-0.889,4.7h-0.006l-0.031,0.17    l-0.002,0.001l-0.018,0.011l-0.007,0.003l-0.02-0.007H-0.99l-0.009,0.001l-0.009,0.002l-0.01,0.005l-0.011,0.006L-1.039,4.9    l-0.006,0.014l-0.008,0.05l-0.002,0.003l-0.003,0.002L-1.063,4.97h-0.002l-0.056,0.289l0.004,0.003l0.002,0.002l-0.01,0.041    l0.01,0.004l0.002,0.002L-0.961,5.4v0.001h0.002V5.4h0.003h0.002l0.001,0.001h0.001l0.002,0.001h0.001l0.001,0.001h0.001    l0.002,0.002h0.001l0,0l0.002,0.001l0.005,0.002l0,0l0.001,0.001l0.007,0.003v0.002h0.001h0.001v0.001l0.001,0.001l0.001,0.001    l0,0h0.002v0.002l0,0l0.002,0.003l0.002,0.001l0.006,0.005v0.003l0,0l0.002,0.002l0.002,0.008l-0.001,0.01l0.002,0.004L-0.91,5.47    l-0.002,0.002l-0.012,0.007L-0.935,5.48l-0.014-0.003l-0.019-0.006l-0.168-0.03l0.008,0.038V5.49l-0.01,0.057L-1.14,5.55    l-0.008,0.009L-1.21,5.892l-0.004,0.003L-1.22,5.9l-0.005,0.002l-0.011,0.002H-1.24l-0.006,0.022l-0.001,0.002L-1.254,5.93    l-0.008,0.001l-0.021-0.003l-0.018-0.005L-1.31,5.92l-0.005-0.003V5.914l0.004-0.023l-0.006-0.002l-0.009-0.008L-1.33,5.876    l-0.003-0.004l0.003-0.01l0.018-0.104l-0.002-0.014l0.039-0.211L-1.277,5.53l-0.004-0.01l0.012-0.062l0.003-0.007l0.021-0.027    h0.003l0,0l0.004-0.008l0.004-0.037l-0.002,0.014l-0.011,0.013H-1.25h-0.007l-0.008-0.003l-0.002-0.001l-0.007-0.015l0.007-0.032    l0.002-0.001h0.006l0.011-0.061l-0.003-0.001L-1.27,5.29V5.285l0.01-0.047l0.001-0.006l0.017,0.004l0.006,0.002l0.055-0.296    l-0.004-0.001l-0.02-0.002l0.001-0.002l0.002-0.013l0.003-0.017l0.003-0.02l0.001-0.006l0.018,0.004l0.006,0.002l0.084-0.467    l-0.016-0.007L-1.109,4.41l0.008-0.041L-1.1,4.368l0.022-0.181l0.034-0.254l0.013-0.089v-0.04l-0.002-0.038l-0.005-0.037V3.717    l0.004-0.018V3.697l0.001-0.003l0.002-0.004V3.688l0.002-0.006l0.002-0.003l0.006-0.011l0.012-0.012l0.012-0.013l0.01-0.009    l0.002-0.002v0.001l0.036-0.207l-0.017,0.001l-0.142-0.012L-1.11,3.414h-0.003h-0.002h-0.004h-0.004h-0.002l-0.004-0.001h-0.002    l0,0h-0.002l0,0h-0.002h-0.002H-1.14l-0.002-0.001v0.001h-0.044l-0.116,0.003l-0.044-0.004H-1.35h-0.002h-0.002l-0.001-0.001    H-1.37l-0.116,0.024l-0.003,0.001h-0.002l0,0v0.001l-0.002-0.001v0.001h-0.003l0,0h-0.001l0,0h-0.001h-0.001v0.001h-0.002l0,0    h-0.002v0.001h-0.001h-0.002l0,0L-1.508,3.44V3.439V3.44H-1.51h-0.002l0,0l-0.074,0.021l-0.007,0.002l-0.002,0.001L-1.65,3.483    h-0.001L-1.654,3.49l-0.023,0.008h-0.008l-0.003-0.005l-0.006-0.015L-1.696,3.48l-0.003-0.002l-0.005-0.015l-0.014-0.038    l-0.005-0.013V3.411l0.002-0.001l-0.002-0.004l-0.008-0.02V3.385l-0.008-0.008l-0.014-0.02V3.354l-0.003-0.019l-0.001-0.018    l-0.007-0.018h-0.003l-0.007-0.015l-0.013-0.04L-1.794,3.23l0.003-0.001l-0.012-0.028L-1.8,3.196l0.001-0.005l0.001-0.004    l0.001-0.003l0.025-0.009h0.002v0.002l0.004,0.001l0.002,0.001l0,0h0.001l0.001,0.001l0.002,0.001l0.164-0.052l0.08-0.018    l0.098-0.02l0.076-0.008l0.068-0.006l0.028-0.001h0.016l0.024-0.001h0.067C-1.145,3.067-1.151,3.06-1.154,3.048    C-1.163,3.012-1.188,2.993-1.16,2.856c0.027-0.137,0.037-0.118,0.011-0.234c-0.008-0.03-0.021-0.071-0.036-0.12l-0.011-0.007    l-0.009-0.001l-0.004-0.002h-0.002h-0.004l-0.013,0.003l-0.015,0.006l-0.011-0.006l-0.012-0.011L-1.27,2.467V2.455l0.003-0.018    l0.024-0.044l0.012-0.024c-0.04-0.109-0.086-0.228-0.126-0.31C-1.432,1.9-1.464,1.908-1.484,1.721    c-0.021-0.188,0.051-0.246,0.029-0.339C-1.477,1.289-1.501,1.235-1.426,1.13c0.076-0.105,0.234-0.202,0.234-0.202    S-1.157,0.592-1,0.544c0.158-0.049,0.151-0.031,0.194-0.07c0.041-0.04,0.086-0.016,0.088-0.054c0.001-0.041,0.065-0.066,0.08-0.11    c0.015-0.043,0.045-0.131,0.045-0.198c0-0.066-0.012-0.33-0.041-0.491C-0.663-0.541-0.67-0.84-0.703-1.008    c-0.032-0.169-0.055-0.539-0.046-0.603c0.008-0.067-0.008-0.067,0.102-0.072c0,0-0.001-0.156-0.014-0.228    c-0.013-0.071-0.04-0.27-0.031-0.334c0.008-0.065-0.009-0.521-0.011-0.57c-0.002-0.05-0.014-0.194,0.004-0.323    c0.018-0.132,0.058-0.444,0.048-0.573C-0.66-3.84-0.691-4.089-0.725-4.215C-0.76-4.34-0.744-4.414-0.764-4.582    c-0.019-0.168-0.077-0.445-0.021-0.52C-0.73-5.176-0.74-5.211-0.744-5.239c-0.006-0.026-0.061-0.14-0.041-0.147    c0,0,0.017-0.034-0.026-0.077c-0.044-0.041-0.101-0.112-0.124-0.159s-0.036-0.059-0.036-0.12s-0.01-0.092,0.015-0.103    s0.236-0.069,0.361-0.013c0.127,0.057,0.116,0.179,0.167,0.197c0.05,0.019,0.237,0.124,0.237,0.163c0,0.037,0,0.043,0,0.043    S-0.144-5.45-0.14-5.402c0.004,0.049-0.046,0.112-0.011,0.154c0.035,0.04,0.097,0.151,0.104,0.287    c0.005,0.138,0.002,0.184,0.015,0.427C-0.021-4.289,0.008-4.111,0-3.975c-0.008,0.138,0.04,0.308,0.053,0.43    c0.013,0.121,0.058,0.257,0.08,0.338C0.154-3.124,0.182-3.054,0.19-2.992c0.007,0.061,0.027,0.057,0.007,0.095    C0.174-2.859,0.149-2.776,0.2-2.784C0.251-2.792,0.261-2.77,0.277-2.897c0.018-0.129,0.018-0.129,0.018-0.129    S0.316-3.18,0.373-3.264c0.056-0.084,0.086-0.205,0.143-0.377c0.053-0.174,0.053-0.174,0.053-0.174s0.045-0.191,0.057-0.309    c0.011-0.119,0.011-0.119,0.011-0.119s0.05-0.124,0.062-0.174c0.012-0.051,0.025-0.08-0.006-0.218    C0.66-4.77,0.602-4.866,0.589-5.016C0.576-5.165,0.547-5.244,0.574-5.33c0.027-0.087,0.072-0.174,0.142-0.177    C0.789-5.511,0.781-5.545,0.81-5.573C0.838-5.6,0.93-5.666,0.928-5.705C0.926-5.745,0.891-5.856,0.994-5.9    c0.104-0.045,0.277-0.03,0.348-0.02c0.071,0.011,0.071,0.07,0.071,0.136c0,0.063-0.002,0.136-0.062,0.208    C1.289-5.505,1.277-5.494,1.279-5.393c0.002,0.103-0.005,0.146-0.007,0.17c-0.002,0.022,0,0.015,0.04,0.126    s0.06,0.206,0.038,0.409c-0.023,0.205-0.067,0.467-0.083,0.66C1.253-3.837,1.201-3.38,1.219-3.167    c0.02,0.212-0.004,0.622-0.012,0.686c-0.008,0.066-0.008,0.173-0.01,0.265C1.195-2.124,1.183-1.979,1.183-1.979    S1.232-1.99,1.259-1.95c0.028,0.043,0.052,0.085,0.058,0.108c0.006,0.023,0.018,0.051,0.018,0.051s-0.009-0.08-0.018-0.131    C1.308-1.973,1.293-1.998,1.274-2.02c-0.02-0.023-0.012-0.06,0.009-0.066c0.019-0.005,0.019-0.005,0.019-0.005    s0.023,0.014,0.047,0.009c0.023-0.004,0.066,0.018,0.113,0.049c0,0,0.024-0.002,0.066,0.015c0.043,0.017,0.063,0.029,0.066,0.053    c0,0,0.039,0.01,0.047,0.034C1.65-1.909,1.68-1.836,1.683-1.811c0.002,0.025,0.012,0.062,0.012,0.082s-0.016,0.136-0.02,0.166    C1.67-1.53,1.652-1.438,1.66-1.412C1.67-1.388,1.679-1.371,1.677-1.33c-0.002,0.039,0,0.096,0.008,0.154    c0.008,0.061,0.073,0.423,0.032,0.619c-0.038,0.195-0.051,0.27-0.079,0.311C1.609-0.204,1.603-0.159,1.603-0.159    S1.812-0.052,1.8-0.021z M-0.846,1.351l0.003,0.003l0.009,0.015l0.001,0.004L-0.834,1.38l0.002,0.002l0.006,0.007l0.002-0.002    h0.013l0.002-0.001V1.377h-0.002l-0.002-0.002L-0.817,1.37l0,0V1.368h-0.001l0.003-0.009l0.004-0.004V1.354l0,0l0,0l0,0    l-0.004-0.008l-0.002-0.004l-0.001-0.004C-0.828,1.342-0.837,1.347-0.846,1.351z M-0.963,1.52c0.013,0.036,0.069,0.22,0.039,0.513    c-0.023,0.233-0.026,0.31-0.008,0.403l0.039,0.02l0.015,0.004l0.017,0.001l0.008-0.001l0.038-0.017L-0.8,2.438l0.012-0.002    l0.021,0.005l0.019-0.095L-0.752,2.33L-0.76,2.188l-0.012-0.124l-0.005-0.15L-0.78,1.859l-0.009-0.121l-0.016-0.199l-0.003-0.015    l-0.004-0.019l0.013-0.025V1.472L-0.803,1.47l-0.004-0.005l0.002-0.002l-0.002-0.002l-0.001-0.003l0.003-0.005l0.004-0.005h-0.002    V1.445l-0.005-0.002l-0.008,0.002h-0.011h-0.007L-0.84,1.443l-0.002-0.004l-0.003-0.005l-0.001-0.007v-0.01L-0.852,1.42    l-0.002-0.003h-0.002l-0.008-0.006l-0.011-0.015l-0.011-0.018L-0.891,1.37l-0.002-0.004V1.363    c-0.039,0.014-0.079,0.022-0.096,0.021C-0.988,1.384-0.976,1.48-0.963,1.52z" fill="#FFFFFF"/>
		</g>
	</g></svg>