<?xml version="1.0" standalone="no"?>
<svg xmlns="http://www.w3.org/2000/svg" viewBox="-6.37 -6.37 12.74 12.74" color="#212121" width="75" height="75"><g transform="matrix(1 0 0 -1 0 0)">
		<g xmlns="http://www.w3.org/2000/svg">
			<circle class="primary" fill="currentColor" cx="0" cy="0" r="6.245"/>
			<path class="secondary" d="M0,6.12c3.38,0,6.12-2.74,6.12-6.12S3.38-6.12,0-6.12S-6.12-3.38-6.12,0S-3.38,6.12,0,6.12 M0,6.37    c-3.513,0-6.37-2.857-6.37-6.37S-3.513-6.37,0-6.37S6.37-3.513,6.37,0S3.513,6.37,0,6.37L0,6.37z" fill="#FFFFFF"/>
		</g>
		<g xmlns="http://www.w3.org/2000/svg">
			<path class="secondary" d="M1.659-0.936c0.025,0.017,0.012,0.09,0.023,0.12C1.7-0.772,1.619-0.744,1.588-0.739    C1.54-0.809,1.521-1.026,1.659-0.936z" fill="#FFFFFF"/>
			<path class="secondary" d="M1.738-1.121c0,0.048,0.074,0.036,0.091,0.061c0.036,0.05,0.064,0.107,0.094,0.162    c0.021,0.04,0.066,0.101,0.069,0.146C1.998-0.648,1.925-0.59,2.053-0.558C2.017-0.314,2.046-0.093,2.035,0.15    C2.023,0.424,1.991,0.697,1.972,0.972C1.955,1.215,1.941,1.467,1.89,1.706C1.869,1.804,1.907,1.921,1.907,2.022    c0,0.152-0.018,0.307-0.036,0.457C1.853,2.614,1.816,2.74,1.78,2.871c-0.029,0.11-0.017,0.236-0.062,0.341    c-0.04,0.093-0.006,0.202-0.054,0.294C1.62,3.587,1.401,3.625,1.317,3.64c-0.18,0.032-0.479,0.007-0.583,0.187    C0.691,3.9,0.665,3.998,0.591,4.049C0.604,4.206,0.638,4.36,0.664,4.516C0.786,4.538,0.842,4.732,0.82,4.841    C0.808,4.903,0.783,4.884,0.786,4.958c0.002,0.056,0.006,0.111,0.012,0.167c0.008,0.061,0.007,0.117,0.007,0.177    c0.054,0.013,0.077,0.007,0.104,0.061C0.95,5.441,0.966,5.484,0.933,5.56C0.898,5.638,0.786,5.714,0.719,5.765    c-0.191,0.144-0.38,0.132-0.604,0.149c-0.126-0.038-0.261-0.099-0.359-0.19c-0.042-0.039-0.082-0.08-0.123-0.12    c-0.046-0.046-0.072-0.11-0.113-0.151c0.033-0.114,0.061-0.209,0.187-0.219C-0.307,5.2-0.327,5.128-0.314,5.092    C-0.3,5.047-0.303,5.004-0.29,4.954c0.014-0.059,0.011-0.027-0.009-0.073C-0.342,4.792-0.267,4.6-0.21,4.531    c0.079-0.094,0.069-0.207,0.068-0.337C-0.144,4.089-0.24,3.979-0.299,3.882c-0.067-0.11-0.259-0.111-0.374-0.131    C-0.827,3.726-1.07,3.732-1.202,3.643c-0.043-0.029-0.115-0.025-0.123-0.091c-0.012-0.088-0.016-0.16-0.041-0.247    c-0.017-0.057-0.001-0.122-0.031-0.174c-0.04-0.07-0.077-0.14-0.109-0.215C-1.576,2.75-1.6,2.668-1.536,2.487    c0.063-0.182,0.06-0.278,0.015-0.471c-0.041-0.178-0.066-0.37-0.094-0.55c-0.059-0.372-0.117-0.743-0.166-1.118    C-1.804,0.18-1.816,0.011-1.842-0.157c-0.009-0.059-0.011-0.118-0.02-0.178c-0.007-0.038-0.014-0.076-0.02-0.114    c-0.024-0.146-0.006-0.013,0.026-0.067c0.007-0.011-0.06-0.139-0.074-0.154c-0.089-0.099,0.116-0.169,0.128-0.257    c-0.105-0.002-0.241,0.033-0.242-0.107c-0.001-0.075-0.002-0.152-0.003-0.229C-2.05-1.539-2.052-1.815-2.054-2.092    c0-0.255-0.002-0.509,0.006-0.764c0.004-0.119,0.051-0.545,0.171-0.558c0.069-0.042,0.151,0.016,0.222-0.005    C-1.55-3.45-1.404-3.408-1.294-3.412c0.025-0.108,0.007-0.232,0.013-0.344c0.008-0.137,0.009-0.273,0.007-0.411    C-1.276-4.455-1.282-4.746-1.27-5.034c0.005-0.116,0.062-0.079,0.131-0.137c0.042-0.035,0.005-0.176,0.007-0.227    c0.004-0.078,0.057-0.094,0.085-0.146c0.046-0.093,0.032-0.179,0.134-0.245C-0.777-5.879-0.5-5.954-0.345-5.89    c0.2,0.085,0.052,0.365-0.022,0.479c-0.034,0.054-0.129,0.104-0.144,0.162c-0.012,0.046,0.026,0.107,0.026,0.155    C-0.484-5.042-0.49-4.99-0.496-4.938C-0.516-4.706-0.515-4.49-0.6-4.269c-0.034,0.09-0.108,0.135-0.1,0.238    c0.006,0.09,0.034,0.177,0.045,0.267c0.027,0.247,0.03,0.494,0.049,0.74c0.009,0.109,0.086,0.181,0.139,0.27    c0.063,0.113,0.099,0.235,0.127,0.362c0.064,0.29,0.141,0.571,0.248,0.85C-0.067-1.479,0.001-1.234,0.07-1.25    c0-0.106,0.053-0.183,0.067-0.283c0.016-0.104-0.013-0.214-0.008-0.32c0.005-0.14,0.019-0.282,0.035-0.423    c0.011-0.102,0.057-0.184,0.037-0.29c-0.023-0.12-0.025-0.237-0.019-0.359C0.199-3.197,0.183-3.467,0.21-3.739    c0.025-0.246,0.091-0.521,0.07-0.77c-0.015-0.172-0.051-0.35-0.038-0.512C0.25-5.115,0.188-5.346,0.293-5.373    C0.345-5.386,0.637-5.475,0.662-5.41C0.71-5.289,1.069-5.479,1.156-5.504C1.41-5.579,1.698-5.577,1.947-5.483    C2.038-5.45,1.949-5.411,1.935-5.355C1.913-5.274,1.792-5.258,1.726-5.234c-0.119,0.041-0.229,0.09-0.335,0.156    c-0.039,0.03-0.13,0.091-0.138,0.137C1.232-4.824,1.204-4.709,1.181-4.593c-0.057,0.257-0.086,0.536-0.16,0.788    C0.956-3.588,1.032-3.33,1.015-3.104c-0.02,0.27-0.018,0.547-0.024,0.817c-0.007,0.263,0.032,0.521,0.068,0.78    c0.017,0.121,0.03,0.243,0.046,0.364c0.007,0.053,0,0.115,0.015,0.164c0.01,0.036,0.072,0.028,0.098,0.043    c0.064,0.038,0.045,0.274,0.047,0.34c0.006,0.121,0.013,0.24,0.013,0.361c0.001,0.047-0.032,0.274,0.004,0.303    C1.287,0.107,1.323,0.064,1.3,0.129C1.256,0.252,1.266,0.405,1.261,0.534C1.257,0.626,1.252,0.717,1.255,0.808    c0.002,0.068-0.021,0.304,0.026,0.351C1.293,1.152,1.298,1.144,1.297,1.13c0.029-0.116,0.042-0.221,0.051-0.339    c0.01-0.134,0.057-0.263,0.057-0.397c0-0.124,0.026-0.232,0.052-0.352c0.029-0.13,0.006-0.271,0.021-0.405    C1.502-0.569,1.425-0.76,1.437-0.962c0.006-0.09-0.031-0.092,0.066-0.122C1.581-1.109,1.458-1.185,1.48-1.238    C1.573-1.204,1.647-1.136,1.738-1.121z M-1.067,0.454c-0.017-0.158-0.066-0.308-0.07-0.469C-1.143-0.188-1.186-0.357-1.19-0.53    c-0.003-0.09-0.04-0.33,0.069-0.355c0.051-0.011,0.003-0.138-0.003-0.179c-0.009-0.085-0.003-0.167,0.017-0.25    c0.041-0.171,0.008-0.283-0.017-0.454C-1.128-1.791-1.151-2.109-1.159-2.11c-0.004-0.001-0.009,0.215-0.01,0.222    C-1.19-1.65-1.175-1.452-1.293-1.239c-0.101,0.181-0.152,0.306-0.133,0.518c0.015,0.158,0.053,0.139,0.185,0.167    c0,0.151,0.016,0.302,0.033,0.451c0.033,0.288,0.027,0.599,0.12,0.875c0.005,0.009,0.009,0.018,0.015,0.027    C-1.063,0.805-1.063,0.486-1.067,0.454z" fill="#FFFFFF"/>
		</g>
	</g></svg>