<?xml version="1.0" standalone="no"?>
<svg xmlns="http://www.w3.org/2000/svg" viewBox="-6.37 -6.37 12.74 12.74" color="#212121" width="75" height="75"><g transform="matrix(1 0 0 -1 0 0)">
		<g xmlns="http://www.w3.org/2000/svg">
			<circle class="primary" fill="currentColor" cx="0" cy="0" r="6.245"/>
			<path class="secondary" d="M0,6.12c3.38,0,6.12-2.74,6.12-6.12S3.38-6.12,0-6.12S-6.12-3.38-6.12,0S-3.38,6.12,0,6.12 M0,6.37    c-3.513,0-6.37-2.857-6.37-6.37S-3.513-6.37,0-6.37S6.37-3.513,6.37,0S3.513,6.37,0,6.37L0,6.37z" fill="#FFFFFF"/>
		</g>
		<path xmlns="http://www.w3.org/2000/svg" id="Terrosist_1_" class="secondary" d="M-0.025-5.581C-0.129-5.609-0.297-5.612-0.41-5.602c-0.115,0.01-0.229,0.052-0.301,0.104   c-0.011,0.063,0,0.104,0,0.104s-0.168-0.02-0.262-0.02c-0.093,0-0.26,0-0.354,0.03c-0.092,0.031-0.216,0.094-0.31,0.188   c-0.096,0.094-0.104,0.14-0.12,0.202c-0.016,0.062-0.004,0.114,0.019,0.13c0.024,0.016,0.071,0.047,0.071,0.08   c0,0.036,0.055,0.153,0.108,0.177c0.056,0.023,0.152,0.034,0.201,0.015c0.045-0.019,0.119-0.026,0.186-0.026   c0.065,0,0.186,0.069,0.219,0.094c0.031,0.023,0.085,0.102,0.12,0.15c0.036,0.052,0.086,0.079,0.043,0.137   C-0.833-4.18-0.853-4.09-0.821-4.034C-0.79-3.979-0.641-3.89-0.594-3.87c0.007,0.081,0.011,0.141,0.011,0.166   c-0.085-0.014-0.322-0.045-0.402-0.045c-0.077,0-0.283-0.017-0.346-0.012C-1.395-3.758-1.53-3.754-1.6-3.723   c0.014,0.171,0.025,0.667,0.05,0.78c0.022,0.112,0.163,0.787,0.199,0.915c0.034,0.129,0.327,1.062,0.35,1.136   c0.024,0.073,0.095,0.53,0.117,0.604c0.024,0.074,0.348,1.209,0.363,1.275c0.016,0.065,0.27,0.905,0.276,0.959   C-0.314,2.033-0.7,2.387-0.764,2.437C-0.826,2.488-1.13,2.804-1.165,2.843c0.026,0.085,0.046,0.125,0.066,0.168   c-0.035,0.047-0.176,0.244-0.194,0.276c0.019,0.03,0.026,0.051,0.026,0.051s-0.109,0.054-0.168,0.078   C-1.492,3.44-1.55,3.464-1.586,3.471C-1.62,3.479-1.667,3.562-1.705,3.607c-0.04,0.048-0.105,0.108-0.13,0.156   c-0.024,0.047-0.06,0.206-0.062,0.241c-0.005,0.035,0.015,0.152,0.02,0.191C-1.921,4.228-1.972,4.281-1.99,4.302   c-0.02,0.02-0.031,0.094-0.027,0.148c-0.029,0.055-0.067,0.11-0.079,0.136C-2.109,4.613-2.155,4.707-2.19,4.785   c-0.132,0.079-0.55,0.301-0.55,0.301s-0.023,0.05-0.012,0.065C-2.74,5.167-2.7,5.183-2.7,5.183l0.008,0.036   c0,0,0.043-0.012,0.065-0.031c0.024-0.021,0.074-0.063,0.074-0.063l0.488-0.257l0.287-0.113l0.008,0.039l0.031-0.008l0.028-0.098   c0,0,0.055-0.038,0.05-0.062c-0.004-0.024-0.034-0.044-0.023-0.06c0.012-0.015,0.105-0.102,0.169-0.146   c0.097-0.024,0.218-0.036,0.225-0.061c0.009-0.022,0.04-0.045,0.04-0.045c0.026,0.011,0.055-0.052,0.078-0.075   c0.022-0.023,0.09-0.091,0.09-0.12c0-0.031,0.019-0.149,0.019-0.173c0.048-0.038,0.112-0.049,0.133-0.058   c0.021-0.007,0.105-0.078,0.156-0.109c0.052-0.03,0.448-0.328,0.476-0.355c0.07,0,0.191-0.055,0.215-0.082   c0.123,0.032,0.21,0.083,0.244,0.083c0.009,0.051,0.024,0.058,0,0.085C0.139,3.538,0.118,3.562,0.118,3.592   c0,0.031-0.007,0.063-0.031,0.09C0.064,3.709,0.061,3.7,0.024,3.729C-0.01,3.757-0.022,3.776-0.052,3.811   c-0.032,0.035-0.063,0.051-0.063,0.098c0,0.046,0.003,0.066,0.003,0.097C-0.15,4.057-0.166,4.079-0.166,4.122   s0.02,0.047-0.012,0.074c-0.031,0.028-0.09,0.074-0.09,0.101c0,0.028-0.012,0.114,0.02,0.142c0.031,0.026,0.074,0.089,0.093,0.109   c0.021,0.019-0.007,0.016,0.051,0.022c0.06,0.009,0.106,0.04,0.153,0.071c0.045,0.03,0.171,0.081,0.207,0.081   c0.035,0,0.132,0.005,0.179-0.004C0.481,4.71,0.579,4.66,0.618,4.628c0.04-0.031,0.134-0.148,0.156-0.206   C0.797,4.364,0.87,4.204,0.87,4.181s0.041-0.328,0.041-0.366c0-0.038,0.006-0.121,0.006-0.144c0.075,0.062,0.169,0.097,0.169,0.062   c0-0.036,0.026-0.103,0.039-0.118c0.012-0.016,0.18-0.133,0.221-0.18c0.045-0.047,0.083-0.147,0.103-0.202   c0.019-0.054,0.086-0.265,0.086-0.32c0-0.054,0.007-0.187,0-0.249c-0.007-0.063-0.036-0.14-0.048-0.172   c-0.011-0.03-0.008-0.12-0.008-0.155s-0.03-0.066-0.038-0.108c-0.008-0.044-0.05-0.083-0.036-0.13   c0.018-0.047,0.024-0.133,0.008-0.171c-0.015-0.04-0.139-0.204-0.151-0.216C1.249,1.701,1.249,1.619,1.24,1.596   C1.232,1.573,1.213,1.452,1.206,1.421C1.28,1.347,1.363,1.132,1.363,1.085c0-0.047-0.005-0.429-0.005-0.429S1.453,0.29,1.453,0.224   c0-0.067,0.022-0.562,0.003-0.683C1.436-0.58,1.41-0.985,1.401-1.04c0.055-0.147,0.09-0.262,0.145-0.309   C1.6-1.395,1.683-1.5,1.709-1.552c0.029-0.049,0.203-0.405,0.216-0.463C1.937-2.073,2.08-2.537,2.088-2.592   c0.007-0.055,0.168-0.671,0.18-0.741s0.054-0.566,0.054-0.566s0.027-0.178,0.027-0.202c0-0.022,0-0.073-0.038-0.101   c-0.039-0.027-0.228-0.02-0.328,0.004C1.881-4.175,1.779-4.14,1.779-4.14L1.764-4.059c0,0-0.086,0.024-0.144,0.024   c-0.059,0-0.285,0.007-0.347,0.031c-0.062,0.025-0.199,0.117-0.235,0.15c-0.034,0.031-0.05,0.05-0.058,0.069   C0.988-3.704,1.012-3.68,1.012-3.68l0.02,0.004c0,0,0.007,0.07,0.038,0.097c0.031,0.027,0.083,0.045,0.157,0.021   C1.299-3.582,1.346-3.59,1.382-3.59c0.035,0,0.066,0.027,0.085,0.036C1.379-3.422,1.237-3.146,1.254-3.04   C1.159-2.946,1.069-2.962,1.02-2.958C0.969-2.954,0.641-2.935,0.574-2.971C0.509-3.005,0.388-3.032,0.356-3.048   c-0.032-0.16-0.128-0.551-0.128-0.604c0-0.055,0.019-0.355,0.014-0.434c-0.003-0.078-0.031-0.416-0.045-0.46   C0.181-4.588,0.067-4.787,0.053-4.83C0.037-4.873,0.049-5.131,0.049-5.146c0-0.016,0.034-0.05,0.034-0.05l0.009-0.277   C0.092-5.474,0.049-5.56-0.025-5.581z" fill="#FFFFFF"/>
	</g></svg>