<?xml version="1.0" standalone="no"?>
<svg xmlns="http://www.w3.org/2000/svg" viewBox="-6.37 -6.37 12.74 12.74" color="#212121" width="75" height="75"><g transform="matrix(1 0 0 -1 0 0)">
		<g xmlns="http://www.w3.org/2000/svg">
			<circle class="primary" fill="currentColor" cx="0" cy="0" r="6.245"/>
			<path class="secondary" d="M0,6.12c3.38,0,6.12-2.74,6.12-6.12S3.38-6.12,0-6.12S-6.12-3.38-6.12,0S-3.38,6.12,0,6.12 M0,6.37    c-3.513,0-6.37-2.857-6.37-6.37S-3.513-6.37,0-6.37S6.37-3.513,6.37,0S3.513,6.37,0,6.37L0,6.37z" fill="#FFFFFF"/>
		</g>
		<path xmlns="http://www.w3.org/2000/svg" id="Woman_1_" class="secondary" d="M-1.068-2.582c-0.126,0.04-0.188,0.031-0.228,0.103c-0.039,0.07,0.008,0.133,0.008,0.273   c0,0.142,0.07,0.721,0.031,0.908C-1.296-1.109-1.304-1.03-1.304-0.921s-0.023,0.705-0.023,0.807s0.055,0.274,0.055,0.353   s0.031,0.635,0.031,0.714c0,0.078,0,0.32,0.007,0.454C-1.367,1.131-1.421,0.99-1.468,0.873c-0.048-0.117-0.095-0.242-0.125-0.345   c-0.031-0.101-0.063-0.18-0.071-0.258s0.008-0.219-0.023-0.297C-1.72-0.106-1.759-0.146-1.759-0.208s-0.046-0.141,0-0.172   c0.047-0.032,0.063-0.032,0.11-0.039c0.048-0.009,0.048-0.102,0.007-0.134c-0.038-0.031-0.038-0.1-0.085-0.079   c-0.046,0.024-0.149,0.017-0.117,0.009c0.031-0.009,0.071-0.04,0.071-0.04s0.014-0.102-0.032-0.069   c-0.048,0.031-0.149,0.069-0.181,0.156C-2.017-0.49-2.08-0.436-2.057-0.294c0.024,0.141,0.071,0.313,0.11,0.36   s0.055,0.212,0.062,0.289c0.009,0.08,0.08,0.502,0.095,0.605c0.018,0.102,0.055,0.306,0.07,0.399   c0.017,0.093,0.04,0.259,0.071,0.336c0.03,0.079,0.102,0.361,0.125,0.471C-1.5,2.276-1.452,2.503-1.452,2.62   c0,0.118,0.008,0.557,0.054,0.689c0.048,0.133,0.095,0.212,0.164,0.275C-1.163,3.646-1.03,3.749-0.92,3.779   c0.008,0.26,0.056,1.043,0.087,1.247c0.031,0.203,0.18,0.518,0.273,0.571c0.094,0.055,0.204,0.079,0.258,0.071   C-0.246,5.66-0.184,5.645-0.128,5.66c0.055,0.017,0.102,0.017,0.188-0.031C0.146,5.582,0.239,5.55,0.303,5.48   c0.063-0.071,0.133-0.22,0.133-0.298c0-0.079,0.048-0.235,0.048-0.337c0-0.103,0.031-0.392,0.037-0.47   c0.01-0.079,0.04-0.291,0.04-0.353c0-0.063,0.008-0.236,0.008-0.321c0.164-0.07,0.274-0.139,0.336-0.211   C0.969,3.419,1.062,3.35,1.07,3.248c0.007-0.103,0.087-0.4,0.087-0.487c0-0.086,0.016-0.321,0.016-0.406   c0-0.086,0.062-0.236,0.077-0.345C1.266,1.9,1.392,1.555,1.399,1.485c0.008-0.07,0.039-0.321,0.07-0.471   C1.501,0.865,1.556,0.528,1.563,0.45c0.008-0.079,0.063-0.267,0.078-0.345c0.016-0.078,0.04-0.171,0.119-0.243   c0.077-0.07,0.164-0.164,0.188-0.234c0.023-0.071,0.086-0.204,0.108-0.313c0.024-0.11-0.038-0.149-0.054-0.11   C1.987-0.757,1.948-0.701,1.932-0.64C1.9-0.732,1.9-0.796,1.861-0.835C1.821-0.873,1.72-0.921,1.744-0.827   C1.768-0.732,1.837-0.6,1.783-0.505C1.721-0.646,1.681-0.717,1.627-0.717c-0.056,0-0.118,0.016-0.087,0.125s0.056,0.212,0,0.313   C1.485-0.177,1.431-0.098,1.407,0.02C1.383,0.138,1.376,0.324,1.306,0.442c-0.071,0.117-0.204,0.47-0.244,0.58   c-0.037,0.108-0.18,0.485-0.187,0.61c-0.008,0.126-0.07,0.549-0.07,0.682S0.774,2.651,0.758,2.707   C0.741,2.761,0.725,2.746,0.701,2.659C0.679,2.574,0.64,2.37,0.624,2.276C0.607,2.182,0.561,1.962,0.553,1.853   s0.008-0.36,0.055-0.502C0.655,1.21,0.741,1.069,0.772,0.99C0.804,0.912,0.874,0.575,0.89,0.481S0.922,0.02,0.913-0.091   c-0.008-0.108-0.055-0.281-0.078-0.43c-0.022-0.15-0.117-0.737-0.117-0.854s0.016-0.337,0.016-0.454   c0-0.118,0.079-0.329,0.079-0.385S0.804-2.347,0.765-2.386c-0.04-0.04-0.063-0.063-0.148-0.086C0.53-2.496,0.53-2.511,0.459-2.526   c0-0.204-0.016-0.424-0.031-0.549c-0.016-0.126-0.062-0.33-0.095-0.432c-0.03-0.103-0.148-0.321-0.18-0.408   C0.122-4,0.043-4.22,0.043-4.329s0.024-0.188,0.024-0.243s0-0.117,0-0.179c0-0.063,0.015-0.315,0.031-0.4   c0.016-0.087,0.063-0.361-0.047-0.432c-0.109-0.07-0.188-0.086-0.282-0.086c-0.095,0-0.188,0.031-0.188,0.117   c0,0.087,0.063,0.299,0.087,0.385C-0.31-5.081-0.31-4.972-0.31-4.886c0,0.087-0.03,0.173,0.008,0.275   c0.04,0.102,0.079,0.227,0.079,0.321c0,0.093,0.008,0.374,0.008,0.556c0,0.18-0.023,0.297-0.023,0.454   c0,0.156,0.087,0.572,0.103,0.689C-0.332-2.566-0.348-2.582-0.45-2.582c0.031-0.22,0.047-0.345,0.031-0.446   C-0.435-3.13-0.442-3.342-0.442-3.405c0-0.062-0.008-0.172,0.048-0.211c0.055-0.039,0.101-0.117,0.101-0.196   c0-0.078-0.016-0.109-0.031-0.22C-0.34-4.141-0.31-4.251-0.31-4.313c0-0.063,0.016-0.156-0.008-0.219   C-0.34-4.595-0.355-4.745-0.403-4.791C-0.45-4.838-0.56-4.878-0.623-4.862c-0.062,0.016-0.125,0.04-0.155,0.157   C-0.81-4.588-0.842-4.377-0.794-4.26c0.046,0.119,0.125,0.228,0.125,0.323c0,0.093-0.031,0.352-0.087,0.462   C-0.81-3.365-0.928-3.201-0.96-3.107c-0.03,0.095-0.108,0.235-0.108,0.306S-1.068-2.707-1.068-2.582z" fill="#FFFFFF"/>
	</g></svg>