<?xml version="1.0" standalone="no"?>
<svg xmlns="http://www.w3.org/2000/svg" viewBox="-6.37 -6.37 12.74 12.74" color="#212121" width="75" height="75"><g transform="matrix(1 0 0 -1 0 0)">
    <g xmlns="http://www.w3.org/2000/svg" id="Circle_27_">
      <path class="primary" fill="currentColor" d="M-0.001-6.245c-3.443,0-6.244,2.802-6.244,6.246c0,3.443,2.801,6.244,6.244,6.244    c3.444,0,6.246-2.801,6.246-6.244C6.245-3.443,3.443-6.245-0.001-6.245z"/>
      <path class="secondary" d="M-0.001,6.12c3.381,0,6.121-2.74,6.121-6.119c0-3.381-2.74-6.121-6.121-6.121    c-3.379,0-6.119,2.74-6.119,6.121C-6.12,3.38-3.38,6.12-0.001,6.12 M-0.001,6.37c-3.512,0-6.369-2.857-6.369-6.369    c0-3.513,2.857-6.371,6.369-6.371c3.513,0,6.371,2.858,6.371,6.371C6.37,3.513,3.512,6.37-0.001,6.37L-0.001,6.37z" fill="#FFFFFF"/>
    </g>
    <path xmlns="http://www.w3.org/2000/svg" class="secondary" d="M1.268-3.003H0.982v3.061V0.13H0.794v-3.133h-1.682v3.061v0.011c0.236-0.007,0.405-0.011,0.474-0.011   c0-0.769,0-0.93,0-0.93h-0.225v-0.2h1.246v0.163H0.421v1.033c0,0,4.236,0.05,4.71,0.138c0.012,0.337,0,0.822,0,0.822L0.333,1.159   c0,0,0.147,2.429-0.325,2.429s-0.472-2.18-0.472-2.429c-0.835,0.037-4.672-0.087-4.672-0.087v-0.86c0,0,2.742-0.099,4.062-0.138   v-3.077h-0.249v-0.585h2.591V-3.003z" fill="#FFFFFF"/>
  </g></svg>