<?xml version="1.0" standalone="no"?>
<svg xmlns="http://www.w3.org/2000/svg" viewBox="-6.37 -6.37 12.74 12.74" color="#212121" width="75" height="75"><g transform="matrix(1 0 0 -1 0 0)">
    <g xmlns="http://www.w3.org/2000/svg">
      <path class="primary" fill="currentColor" d="M0-6.245c-3.444,0-6.245,2.802-6.245,6.246c0,3.443,2.802,6.244,6.245,6.244s6.245-2.801,6.245-6.244    C6.245-3.443,3.444-6.245,0-6.245z"/>
      <path class="secondary" d="M0,6.12c3.38,0,6.12-2.74,6.12-6.119C6.12-3.38,3.38-6.12,0-6.12s-6.12,2.74-6.12,6.121    C-6.12,3.38-3.38,6.12,0,6.12 M0,6.37c-3.513,0-6.37-2.857-6.37-6.369C-6.37-3.512-3.513-6.37,0-6.37s6.37,2.858,6.37,6.371    C6.37,3.513,3.513,6.37,0,6.37L0,6.37z" fill="#FFFFFF"/>
    </g>
    <g xmlns="http://www.w3.org/2000/svg">
      <path class="secondary" d="M-0.59,0.93l-5.13-3.008c0,0,0.189-0.283,0.606-0.392l5.927,2.914L3.16-0.325L1.69-2.833l0.862-0.351    l0.891,1.443l0.891-0.296l0.081,1.551l0.621-0.094c0,0,0.282-0.202,0.849-0.31c0,0-0.528,0.323-0.654,0.364l0.115,0.108    L5.23-0.123c0,0,0.615,0.378,0.654,0.715c0,0-0.647,0.013-0.998-0.58L4.658,0.188c0,0,0,0.094-0.135,0.135L3.861,0.579L3.2,0.782    L3.133,0.741L2.108,1.146l2.748,1.711c0,0-0.23,0.243-0.499,0.243L0.691,1.55L0.099,1.739l0.107,0.256L0.085,2.05l-0.311-0.202    l-0.661,0.188c0,0-0.58,0.297-0.877,0.512c-0.297,0.216-0.931,0.445-1.16,0.432c-0.229-0.014-0.661-0.027-1.024-0.526    c0,0-0.067-0.162-0.203-0.27c0,0,0.122-0.324,0.433-0.54c0.31-0.216,0.646-0.216,0.646-0.216s-0.202-0.378,0.229-0.432    c0,0,0.352,0.027,0.364,0.256c0,0,0.715,0.054,1.039-0.041L-0.59,0.93z" fill="#FFFFFF"/>
      <g>
        <polygon class="secondary" points="-3.834,2.313 -4.401,2.516 -4.388,2.555 -3.82,2.352    " fill="#FFFFFF"/>
      </g>
      <g>
        <polygon class="secondary" points="-0.208,-1.07 -0.325,-1.036 0.04,0.225 0.157,0.191    " fill="#FFFFFF"/>
      </g>
      <g>
        <polygon class="secondary" points="1.109,-0.311 0.758,0.418 0.868,0.47 1.219,-0.258    " fill="#FFFFFF"/>
      </g>
      <path class="secondary" d="M-0.155-1.161c0,0.093-0.075,0.169-0.17,0.169c-0.094,0-0.169-0.076-0.169-0.169    c0-0.093,0.075-0.169,0.169-0.169C-0.23-1.33-0.155-1.254-0.155-1.161z" fill="#FFFFFF"/>
      <circle class="secondary" cx="1.219" cy="-0.238" r="0.17" fill="#FFFFFF"/>
    </g>
  </g></svg>