<?xml version="1.0" standalone="no"?>
<svg xmlns="http://www.w3.org/2000/svg" viewBox="-6.37 -6.37 12.74 12.74" color="#212121" width="75" height="75"><g transform="matrix(1 0 0 -1 0 0)">
    <g xmlns="http://www.w3.org/2000/svg">
      <path class="primary" fill="currentColor" d="M0-6.245c-3.444,0-6.245,2.802-6.245,6.246c0,3.443,2.802,6.244,6.245,6.244s6.245-2.801,6.245-6.244    C6.245-3.443,3.444-6.245,0-6.245z"/>
      <path class="secondary" d="M0,6.12c3.38,0,6.12-2.74,6.12-6.119C6.12-3.38,3.38-6.12,0-6.12s-6.12,2.74-6.12,6.121    C-6.12,3.38-3.38,6.12,0,6.12 M0,6.37c-3.513,0-6.37-2.857-6.37-6.369C-6.37-3.512-3.513-6.37,0-6.37s6.37,2.858,6.37,6.371    C6.37,3.513,3.513,6.37,0,6.37L0,6.37z" fill="#FFFFFF"/>
    </g>
    <g xmlns="http://www.w3.org/2000/svg">
      <path class="secondary" d="M0.37-0.821v-2.066c0,0,1.463,0.258,1.492,0.124c0.027-0.133,0-0.829-0.043-0.873    c-0.043-0.045-0.717,0-0.717,0L1.023-3.547c0,0-0.596-0.054-0.709-0.089C0.216-3.667,0.166-4.09,0.026-4.254    c-0.019-0.022-0.04-0.04-0.062-0.051c-0.023,0.011-0.044,0.028-0.062,0.051C-0.237-4.09-0.288-3.667-0.385-3.636    c-0.113,0.036-0.71,0.089-0.71,0.089l-0.078-0.089c0,0-0.675-0.045-0.718,0c-0.042,0.044-0.07,0.74-0.042,0.873    c0.027,0.134,1.49-0.124,1.49-0.124v2.066l-5.354-0.479c0,0-0.185,0.534-0.157,0.605c0.029,0.072,3.594,0.64,3.594,0.64    s-0.12,0.704-0.085,0.855c0.035,0.151,0.143,0.017,0.143,0.017l0.1-0.846l0.439,0.062c0,0-0.092,0.66-0.057,0.801    c0.035,0.143,0.114,0.036,0.114,0.036l0.099-0.837l1.222,0.154c0,0-0.189,2.679-0.214,3.018C-0.621,3.545-0.524,5.1-0.069,4.993    C0.384,5.1,0.494,3.63,0.527,3.207c0.03-0.423-0.213-3.018-0.213-3.018l1.221-0.154l0.1,0.837c0,0,0.078,0.107,0.114-0.036    c0.034-0.142-0.058-0.801-0.058-0.801l0.44-0.062L2.23,0.818c0,0,0.106,0.134,0.143-0.017c0.035-0.152-0.086-0.855-0.086-0.855    S5.9-0.684,5.93-0.756c0.028-0.071-0.156-0.605-0.156-0.605L0.37-0.821z" fill="#FFFFFF"/>
    </g>
  </g></svg>