<?xml version="1.0" standalone="no"?>
<svg xmlns="http://www.w3.org/2000/svg" viewBox="-6.37 -6.37 12.74 12.74" color="#212121" width="75" height="75"><g transform="matrix(1 0 0 -1 0 0)">
    <g xmlns="http://www.w3.org/2000/svg">
      <path class="primary" fill="currentColor" d="M0-6.245c-3.444,0-6.245,2.802-6.245,6.246c0,3.443,2.802,6.244,6.245,6.244s6.245-2.801,6.245-6.244    C6.245-3.443,3.444-6.245,0-6.245z"/>
      <path class="secondary" d="M0,6.12c3.38,0,6.12-2.74,6.12-6.119C6.12-3.38,3.38-6.12,0-6.12s-6.12,2.74-6.12,6.121    C-6.12,3.38-3.38,6.12,0,6.12 M0,6.37c-3.513,0-6.37-2.857-6.37-6.369C-6.37-3.512-3.513-6.37,0-6.37s6.37,2.858,6.37,6.371    C6.37,3.513,3.513,6.37,0,6.37L0,6.37z" fill="#FFFFFF"/>
    </g>
    <g xmlns="http://www.w3.org/2000/svg">
      <path id="MQ-8_Fire_Scout_2_" class="secondary" d="M5.823,0.875v0.055l-3.5,0.051v0.055h-0.31V0.982L-2.32,0.993V0.938l4.334-0.022    V0.549L1.946,0.544V0.351c0,0-1.067-0.094-1.095-0.149c-0.027-0.055,0-0.996,0-0.996h-0.919c0,0-0.045,0.503-0.077,0.525    c-0.033,0.021-0.233,0.021-0.271-0.006c-0.038-0.027,0-0.525,0-0.525h-1.737l-0.005,0.166h-0.09v-0.172h-0.343v0.078h-0.154    v-0.078l-2.021,0.127l-0.486,1.577v0.343h-0.35V0.838h-0.209V0.5h0.276l0.288-1.096h-0.465v-0.166h0.42c0,0-0.333-0.94-0.298-0.99    c0.032-0.049,0.183-0.094,0.231-0.083c0.051,0.011,0.57,0.963,0.57,0.963s0.913-0.024,1.007-0.067    c0.095-0.042,0.73-0.327,0.73-0.327s-0.147-0.503-0.105-0.525c0.043-0.022,0.216-0.116,0.26-0.111    c0.045,0.006,0.154,0.426,0.233,0.493c0.077,0.066,2.645-0.88,2.683-0.946c0.04-0.066,0.005-0.542,0-0.598    c-0.005-0.055,0.394-0.039,0.417,0c0.027,0.039,0,0.21,0,0.21l0.161,0.159H0.89v-0.297h0.56l0.018,0.001v-0.715H1.454L0.713-3.417    l-0.038-0.11c0,0,0.648-0.164,0.739-0.177c0.093-0.014,2.215-0.022,2.314,0c0.099,0.022,0.437,0.288,0.437,0.288L4.11-3.378    L3.67-3.577L3.442-2.761l1.044,0.063c0,0-0.016-0.266,0.256-0.266c0.271,0,0.264,0.438,0.264,0.438s0.643,0.221,0.653,0.625    C5.67-1.497,3.629-0.96,3.568-0.883C3.508-0.806,3.297,0.429,3.258,0.478C3.219,0.527,2.395,0.411,2.395,0.411v0.133H2.323v0.349    L5.823,0.875z M3.221-2.774l0.225-0.811L1.72-3.593v0.728L3.221-2.774z" fill="#FFFFFF"/>
    </g>
  </g></svg>