<?xml version="1.0" standalone="no"?>
<svg xmlns="http://www.w3.org/2000/svg" viewBox="-6.37 -6.37 12.74 12.74" color="#212121" width="75" height="75"><g transform="matrix(1 0 0 -1 0 0)">
    <g xmlns="http://www.w3.org/2000/svg">
      <path class="primary" fill="currentColor" d="M0-6.245c-3.444,0-6.245,2.802-6.245,6.246c0,3.443,2.802,6.244,6.245,6.244s6.245-2.801,6.245-6.244    C6.245-3.443,3.444-6.245,0-6.245z"/>
      <path class="secondary" d="M0,6.12c3.38,0,6.12-2.74,6.12-6.119C6.12-3.38,3.38-6.12,0-6.12s-6.12,2.74-6.12,6.121    C-6.12,3.38-3.38,6.12,0,6.12 M0,6.37c-3.513,0-6.37-2.857-6.37-6.369C-6.37-3.512-3.513-6.37,0-6.37s6.37,2.858,6.37,6.371    C6.37,3.513,3.513,6.37,0,6.37L0,6.37z" fill="#FFFFFF"/>
    </g>
    <g xmlns="http://www.w3.org/2000/svg">
      <path id="MQ-9_Reaper_2_" class="secondary" d="M5.981,0.263L4.039,0.384c-0.002,0.195-0.037,0.35-0.08,0.35    c-0.043,0-0.077-0.151-0.08-0.343L3.806,0.394v0.287H3.72V0.397L3.646,0.4C3.642,0.588,3.607,0.733,3.566,0.733    c-0.041,0-0.075-0.143-0.08-0.326L2.697,0.441C2.695,0.64,2.66,0.797,2.616,0.797c-0.043,0-0.077-0.153-0.08-0.349L2.463,0.451    v0.294H2.378v-0.29L2.304,0.458c-0.003,0.19-0.038,0.339-0.08,0.339c-0.042,0-0.075-0.145-0.08-0.332L0.369,0.541v2.706l0,0    C0.363,3.528,0.152,3.796-0.005,3.796c-0.157,0-0.354-0.268-0.359-0.549l0,0V0.534L-2.132,0.46    c-0.004,0.189-0.038,0.337-0.08,0.337c-0.043,0-0.077-0.151-0.081-0.344l-0.073-0.004v0.296h-0.085V0.446l-0.073-0.003    c-0.002,0.197-0.037,0.354-0.08,0.354c-0.044,0-0.079-0.16-0.081-0.36l-0.789-0.033c-0.004,0.186-0.039,0.33-0.08,0.33    c-0.041,0-0.076-0.147-0.08-0.337l-0.073-0.003v0.287h-0.086V0.39l-0.073-0.003C-3.87,0.58-3.904,0.733-3.947,0.733    c-0.043,0-0.078-0.156-0.08-0.354l-1.955-0.202v-0.499l1.865-0.241v-0.275h0.088v-0.053h0.165v0.053h0.087v0.258l0.053-0.003    v-0.255h0.088v-0.053h0.165v0.053h0.087v0.237l0.61-0.031v-0.143h0.087v-0.052h0.165v0.052h0.087v0.125l0.054-0.002v-0.123h0.087    v-0.052h0.166v0.052h0.087v0.105l1.685-0.086v-1.076l-2.051-0.556v-0.42h2.051l0.147-0.454c-0.445-0.003-0.779-0.017-0.779-0.032    c0-0.017,0.344-0.03,0.798-0.032c0.021-0.27,0.101-0.471,0.193-0.471c0.094,0,0.172,0.2,0.193,0.471    c0.446,0.003,0.781,0.017,0.781,0.032c0,0.016-0.326,0.029-0.764,0.032l0.142,0.454h2.044v0.414L0.391-1.852v1.082l1.663,0.091    v-0.096h0.087v-0.052h0.166v0.052h0.087v0.114l0.054,0.003v-0.117h0.086v-0.052h0.166v0.052h0.088v0.136l0.609,0.034v-0.233h0.087    v-0.053h0.165v0.053h0.088v0.251l0.053,0.003v-0.254h0.088v-0.053h0.164v0.053h0.088v0.273l1.853,0.343V0.263z" fill="#FFFFFF"/>
    </g>
  </g></svg>