<?xml version="1.0" standalone="no"?>
<svg xmlns="http://www.w3.org/2000/svg" viewBox="-6.37 -6.37 12.74 12.74" color="#212121" width="75" height="75"><g transform="matrix(1 0 0 -1 0 0)">
    <g xmlns="http://www.w3.org/2000/svg">
      <path class="primary" fill="currentColor" d="M0-6.245c-3.444,0-6.245,2.802-6.245,6.246c0,3.443,2.802,6.244,6.245,6.244s6.245-2.801,6.245-6.244    C6.245-3.443,3.444-6.245,0-6.245z"/>
      <path class="secondary" d="M0,6.12c3.38,0,6.12-2.74,6.12-6.119C6.12-3.38,3.38-6.12,0-6.12s-6.12,2.74-6.12,6.121    C-6.12,3.38-3.38,6.12,0,6.12 M0,6.37c-3.513,0-6.37-2.857-6.37-6.369C-6.37-3.512-3.513-6.37,0-6.37s6.37,2.858,6.37,6.371    C6.37,3.513,3.513,6.37,0,6.37L0,6.37z" fill="#FFFFFF"/>
    </g>
    <g xmlns="http://www.w3.org/2000/svg">
      <path class="secondary" d="M0.34,2.023C0.324,2.027,0.308,2.028,0.29,2.025c0.009,0.003,0.019,0.006,0.028,0.008    C0.326,2.034,0.332,2.031,0.34,2.023z" fill="#FFFFFF"/>
      <path class="secondary" d="M0.29,2.025C0.264,2.016,0.239,2.002,0.216,1.983C0.221,1.992,0.225,1.998,0.228,2    C0.249,2.014,0.27,2.021,0.29,2.025z" fill="#FFFFFF"/>
      <path id="RQ-11_Raven_2_" class="secondary" d="M5.848-0.397c-0.114-0.069-3.77-0.216-3.77-0.216s-1.689,0.046-1.76,0    C0.25-0.657,0.205-0.737,0.177-0.814H0.72V-0.86H0.161c-0.024-0.08-0.03-0.145-0.03-0.145S0.094-3.891,0.103-3.959    C0.104-3.966,0.116-3.971,0.14-3.975c0.212-0.033,1.247,0.05,1.287,0.016C1.474-3.998,1.45-4.516,1.405-4.577    C1.363-4.631,0.352-4.816,0.082-4.838C0.07-4.839,0.061-4.84,0.052-4.84s-0.019,0-0.031,0.002l0,0    c-0.269,0.022-1.281,0.207-1.322,0.261C-1.347-4.516-1.37-3.998-1.325-3.959c0.041,0.034,1.044-0.045,1.277-0.017    c0.03,0.004,0.047,0.009,0.049,0.017c0.007,0.068-0.069,2.925-0.069,2.925S-0.085-0.952-0.109-0.86h-0.625v0.046h0.612    c-0.009,0.03-0.019,0.059-0.028,0.085c-0.021,0.058-0.044,0.104-0.065,0.116c-0.074,0.042-1.761,0-1.761,0    s-3.712,0.161-3.825,0.229C-5.917-0.315-6.043,0.632-5.917,0.77c0.126,0.137,3.245,0.331,3.965,0.343    c0.719,0.011,1.507-0.058,1.575,0c0.068,0.057,0,0.388,0,0.868c0,0.407,0.099,0.814,0.275,0.956    c0.023,0.019,0.048,0.033,0.073,0.042l0,0c0.018,0.002,0.034,0.002,0.05-0.002c0.204-0.048,0.356-0.576,0.356-0.984    c0-0.48-0.087-0.833-0.018-0.89c0.068-0.057,0.976,0.022,1.695,0.011c0.719-0.012,3.718-0.164,3.844-0.301    C6.025,0.675,5.962-0.329,5.848-0.397z" fill="#FFFFFF"/>
    </g>
  </g></svg>