<?xml version="1.0" standalone="no"?>
<svg xmlns="http://www.w3.org/2000/svg" viewBox="-6.37 -6.37 12.74 12.74" color="#212121" width="75" height="75"><g transform="matrix(1 0 0 -1 0 0)">
    <g xmlns="http://www.w3.org/2000/svg">
      <path class="primary" fill="currentColor" d="M0-6.245c-3.444,0-6.245,2.802-6.245,6.246c0,3.443,2.802,6.244,6.245,6.244s6.245-2.801,6.245-6.244    C6.245-3.443,3.444-6.245,0-6.245z"/>
      <path class="secondary" d="M0,6.12c3.38,0,6.12-2.74,6.12-6.119C6.12-3.38,3.38-6.12,0-6.12s-6.12,2.74-6.12,6.121    C-6.12,3.38-3.38,6.12,0,6.12 M0,6.37c-3.513,0-6.37-2.857-6.37-6.369C-6.37-3.512-3.513-6.37,0-6.37s6.37,2.858,6.37,6.371    C6.37,3.513,3.513,6.37,0,6.37L0,6.37z" fill="#FFFFFF"/>
    </g>
    <path xmlns="http://www.w3.org/2000/svg" id="RQ-170_Sentinel_2_" class="secondary" d="M5.856-0.961C5.826-1.017,5.24-1.208,5.24-1.208S1.992,0.036,1.907,0.014   C1.809,0.038,0.328-0.394,0.328-0.394S0.117-0.56,0.001-0.535C-0.116-0.56-0.326-0.394-0.326-0.394s-1.48,0.432-1.579,0.407   c-0.086,0.022-3.333-1.222-3.333-1.222S-5.808-1.07-5.854-0.961c-0.048,0.109,0.185,0.514,0.21,0.568   c0.014,0.03,1.795,1.164,3.35,2.166c1.089,0.701,2.059,1.351,2.272,1.441c0.01,0.004,0.017,0.007,0.023,0.009   C0.008,3.22,0.016,3.217,0.024,3.213c0.214-0.09,1.184-0.74,2.271-1.441C3.851,0.77,5.634-0.364,5.646-0.394   C5.672-0.447,5.888-0.906,5.856-0.961z" fill="#FFFFFF"/>
  </g></svg>