<?xml version="1.0" standalone="no"?>
<svg xmlns="http://www.w3.org/2000/svg" viewBox="-6.37 -6.37 12.74 12.74" color="#212121" width="75" height="75"><g transform="matrix(1 0 0 -1 0 0)">
    <g xmlns="http://www.w3.org/2000/svg">
      <path class="primary" fill="currentColor" d="M0-6.245c-3.444,0-6.245,2.802-6.245,6.246c0,3.443,2.802,6.244,6.245,6.244s6.245-2.801,6.245-6.244    C6.245-3.443,3.444-6.245,0-6.245z"/>
      <path class="secondary" d="M0,6.12c3.38,0,6.12-2.74,6.12-6.119C6.12-3.38,3.38-6.12,0-6.12s-6.12,2.74-6.12,6.121    C-6.12,3.38-3.38,6.12,0,6.12 M0,6.37c-3.513,0-6.37-2.857-6.37-6.369C-6.37-3.512-3.513-6.37,0-6.37s6.37,2.858,6.37,6.371    C6.37,3.513,3.513,6.37,0,6.37L0,6.37z" fill="#FFFFFF"/>
    </g>
    <g xmlns="http://www.w3.org/2000/svg">
      <path id="RG-4_Global_Hawk_2_" class="secondary" d="M5.923-0.605C5.901-0.628,1.066-0.443,1.004-0.527    C0.942-0.61,0.89-0.711,0.85-0.738c-0.04-0.026-0.354,0.023-0.432,0c-0.076-0.023-0.07-1.524-0.032-1.547    c0.036-0.021,0.968,0.129,1.017,0.099c0.048-0.029,0.032-0.287,0-0.331C1.368-2.56,0.479-2.91,0.375-2.98    c-0.06-0.038-0.265-0.033-0.36-0.027C-0.077-3.013-0.293-3.02-0.354-2.98C-0.456-2.91-1.348-2.56-1.38-2.517    c-0.034,0.046-0.048,0.302,0,0.333c0.048,0.029,0.979-0.122,1.018-0.101c0.035,0.023,0.043,1.526-0.035,1.547    c-0.075,0.023-0.389-0.024-0.432,0C-0.868-0.711-0.921-0.61-0.981-0.527C-1.043-0.441-5.9-0.626-5.923-0.605    c-0.021,0.023-0.021,0.344,0.055,0.388c0.078,0.044,5.486,0.633,5.515,0.673c0.03,0.04,0.042,2.077,0.112,2.343    c0.038,0.148,0.146,0.319,0.243,0.329C0.004,3.129,0.008,3.129,0.01,3.129c0.004,0,0.005,0,0.009-0.002    c0.098-0.009,0.206-0.181,0.245-0.331c0.07-0.264,0.081-2.301,0.111-2.341c0.028-0.04,5.414-0.629,5.492-0.673    C5.945-0.263,5.945-0.582,5.923-0.605z" fill="#FFFFFF"/>
    </g>
  </g></svg>