<?xml version="1.0" standalone="no"?>
<svg xmlns="http://www.w3.org/2000/svg" viewBox="-6.37 -6.37 12.74 12.74" color="#212121" width="75" height="75"><g transform="matrix(1 0 0 -1 0 0)">
    <g xmlns="http://www.w3.org/2000/svg">
      <path class="primary" fill="currentColor" d="M0-6.245c-3.444,0-6.245,2.802-6.245,6.246c0,3.443,2.802,6.244,6.245,6.244s6.245-2.801,6.245-6.244    C6.245-3.443,3.444-6.245,0-6.245z"/>
      <path class="secondary" d="M0,6.12c3.38,0,6.12-2.74,6.12-6.119C6.12-3.38,3.38-6.12,0-6.12s-6.12,2.74-6.12,6.121    C-6.12,3.38-3.38,6.12,0,6.12 M0,6.37c-3.513,0-6.37-2.857-6.37-6.369C-6.37-3.512-3.513-6.37,0-6.37s6.37,2.858,6.37,6.371    C6.37,3.513,3.513,6.37,0,6.37L0,6.37z" fill="#FFFFFF"/>
    </g>
    <g xmlns="http://www.w3.org/2000/svg">
      <path id="RQ-5_Hunter_2_" class="secondary" d="M5.701,1.445C5.584,1.604,0.393,1.54,0.393,1.54s0,1.69,0,1.929    c0,0.239-0.185,0.728-0.382,0.781c-0.004,0.001-0.007,0-0.012-0.003C-0.003,4.25-0.007,4.251-0.011,4.25    c-0.196-0.053-0.383-0.541-0.383-0.781c0-0.239,0-1.929,0-1.929s-5.19,0.064-5.308-0.095c-0.116-0.16-0.138-0.723-0.079-0.781    c0.058-0.058,3.969-0.382,3.969-0.382h0.573l0.096-0.005v-3.719h-0.489c0,0-0.138-0.191-0.138-0.457    c0-0.266,0.138-0.351,0.138-0.351h3.264c0,0,0.138,0.085,0.138,0.351c0,0.266-0.138,0.457-0.138,0.457H1.143v3.719l0.096,0.005    h0.573c0,0,3.911,0.324,3.969,0.382C5.839,0.722,5.817,1.285,5.701,1.445z M0.984-3.443h-1.967v3.71l0.621-0.034    c0,0-0.011-0.457,0.008-0.717C-0.34-0.666-0.206-1.005-0.085-1.19h-0.686v-0.053h0.724c0.016-0.022,0.032-0.039,0.046-0.052    c0,0-0.002,0,0,0c0.013,0,0.032,0.03,0.048,0.052h0.724v0.053H0.086c0.12,0.186,0.254,0.524,0.268,0.707    c0.019,0.26,0.008,0.717,0.008,0.717l0.623,0.034V-3.443z" fill="#FFFFFF"/>
    </g>
  </g></svg>