<?xml version="1.0" standalone="no"?>
<svg xmlns="http://www.w3.org/2000/svg" viewBox="-6.37 -6.37 12.74 12.74" color="#212121" width="75" height="75"><g transform="matrix(1 0 0 -1 0 0)">
    <g xmlns="http://www.w3.org/2000/svg">
      <path class="primary" fill="currentColor" d="M0-6.245c-3.444,0-6.245,2.802-6.245,6.246c0,3.443,2.802,6.244,6.245,6.244s6.245-2.801,6.245-6.244    C6.245-3.443,3.444-6.245,0-6.245z"/>
      <path class="secondary" d="M0,6.12c3.38,0,6.12-2.74,6.12-6.119C6.12-3.38,3.38-6.12,0-6.12s-6.12,2.74-6.12,6.121    C-6.12,3.38-3.38,6.12,0,6.12 M0,6.37c-3.513,0-6.37-2.857-6.37-6.369C-6.37-3.512-3.513-6.37,0-6.37s6.37,2.858,6.37,6.371    C6.37,3.513,3.513,6.37,0,6.37L0,6.37z" fill="#FFFFFF"/>
    </g>
    <g xmlns="http://www.w3.org/2000/svg">
      <path id="RQ-7_Shadow_2_" class="secondary" d="M5.738,1.536c-0.163,0.26-4.404-0.038-5.181-0.045c0.163,1.43,0.137,3.048-0.424,3.048    c-0.956,0-0.51-3.008-0.622-3.05c-0.012-0.003,0,0-0.065,0.001c-0.778,0.008-5.019,0.305-5.181,0.045    c-0.178-0.282-0.148-1.416-0.103-1.494c0.031-0.053,2.548-0.084,4.196-0.125c-0.008-1.095-0.035-5.507,0-5.569    c0.039-0.072,0.114-0.082,0.157,0c0.001,0.003,0.004,0.019,0.005,0.045H1.48c0.001-0.026,0.003-0.042,0.005-0.045    c0.042-0.082,0.118-0.072,0.157,0C1.677-5.59,1.651-1.178,1.645-0.083c1.648,0.042,4.162,0.072,4.193,0.125    C5.884,0.121,5.914,1.254,5.738,1.536z M1.467-4.541h-2.932c0.003,1.396-0.012,3.699-0.018,4.453    c0.541-0.015,0.972-0.03,1.15-0.048c0.058-0.006,0.09-0.012,0.092-0.019c0,0,0-0.001,0.001-0.003c0,0,0,0,0-0.001    c0.011-0.035,0.031-0.14,0.055-0.264c0.002-0.008,0.002-0.015,0.003-0.022c0,0,0.003-0.004,0.004-0.012    c0.06-0.291,0.142-0.694,0.152-0.75c0-0.001,0-0.003,0-0.004l0.003-0.003h0.049c0,0,0,0,0,0v0.002l0,0l0.001,0.004    c0.012,0.056,0.095,0.46,0.153,0.75c0,0.001,0,0.003,0.002,0.006c0,0.001,0,0.004,0,0.006c0.001,0.007,0.003,0.015,0.005,0.022    C0.211-0.299,0.232-0.194,0.24-0.159c0.001,0,0.001,0.001,0.001,0.001c0,0.002,0,0.003,0,0.004    c0.003,0.006,0.035,0.012,0.095,0.019c0.179,0.019,0.606,0.034,1.149,0.048C1.478-0.842,1.463-3.145,1.467-4.541z" fill="#FFFFFF"/>
    </g>
  </g></svg>