<?xml version="1.0" standalone="no"?>
<svg xmlns="http://www.w3.org/2000/svg" viewBox="-6.37 -6.37 12.74 12.74" color="#212121" width="75" height="75"><g transform="matrix(1 0 0 -1 0 0)">
    <g xmlns="http://www.w3.org/2000/svg">
      <path class="primary" fill="currentColor" d="M0-6.245c-3.444,0-6.245,2.802-6.245,6.246c0,3.443,2.802,6.244,6.245,6.244s6.245-2.801,6.245-6.244    C6.245-3.443,3.444-6.245,0-6.245z"/>
      <path class="secondary" d="M0,6.12c3.38,0,6.12-2.74,6.12-6.119C6.12-3.38,3.38-6.12,0-6.12s-6.12,2.74-6.12,6.121    C-6.12,3.38-3.38,6.12,0,6.12 M0,6.37c-3.513,0-6.37-2.857-6.37-6.369C-6.37-3.512-3.513-6.37,0-6.37s6.37,2.858,6.37,6.371    C6.37,3.513,3.513,6.37,0,6.37L0,6.37z" fill="#FFFFFF"/>
    </g>
    <g xmlns="http://www.w3.org/2000/svg">
      <path id="Scaneagle_2_" class="secondary" d="M-5.479-1.207c0.029,0.145,4.693,3.079,4.897,3.289c0.203,0.21,0.149,0.182,0.222,0.329    c0.071,0.147-0.143,1.198-0.115,1.471c0.029,0.273,0.204,0.394,0.338,0.525c0.01,0.009,0.026,0.427,0.026,0.427h0.031l0.003-0.43    c0.003,0.001,0.005,0.001,0.006-0.001c0.143-0.124,0.324-0.235,0.367-0.506C0.339,3.625,0.181,2.564,0.26,2.422    c0.079-0.143,0.024-0.117,0.238-0.317c0.215-0.2,5.028-2.883,5.065-3.025C5.6-1.065,5.531-1.043,5.531-1.043    S5.368-2.394,5.306-2.371C5.242-2.348,5.342-1.515,5.342-1.515L0.458,1.233c0,0-0.239,0.181-0.27-0.056    c-0.022-0.18,0.041-1.085-0.043-1.53l0.252,0.015l0.002-0.028L0.139-0.382C0.127-0.44,0.112-0.49,0.094-0.527    C0.076-0.559,0.058-0.581,0.037-0.592c-0.032,0.008-0.06,0.037-0.083,0.083c-0.015,0.03-0.029,0.068-0.042,0.112l-0.279-0.017    l-0.001,0.028l0.273,0.017c-0.111,0.435-0.096,1.36-0.129,1.54c-0.041,0.234-0.271,0.042-0.271,0.042l-4.732-3.001    c0,0,0.137-0.752,0.076-0.779c-0.062-0.025-0.29,1.239-0.29,1.239S-5.509-1.353-5.479-1.207z" fill="#FFFFFF"/>
    </g>
  </g></svg>