<?xml version="1.0" standalone="no"?>
<svg xmlns="http://www.w3.org/2000/svg" viewBox="-6.37 -6.37 12.74 12.74" color="#212121" width="75" height="75"><g transform="matrix(1 0 0 -1 0 0)">
    <g xmlns="http://www.w3.org/2000/svg">
      <circle class="primary" fill="currentColor" cx="0" cy="0" r="6.245"/>
      <path class="secondary" d="M0,6.12c3.38,0,6.12-2.74,6.12-6.12S3.38-6.12,0-6.12S-6.12-3.38-6.12,0S-3.38,6.12,0,6.12 M0,6.37    c-3.513,0-6.37-2.857-6.37-6.37S-3.513-6.37,0-6.37S6.37-3.513,6.37,0S3.513,6.37,0,6.37L0,6.37z" fill="#FFFFFF"/>
    </g>
    <g xmlns="http://www.w3.org/2000/svg" id="Aircraft_Carriers_4_">
      <path class="secondary" d="M-5.665-0.24h2.822v0.455l0.057-0.418h0.113v0.418c-0.005,0.004-0.012,0.017-0.021,0.037    S-2.707,0.285-2.71,0.29v0.02c0,0.02,0.007,0.034,0.02,0.043c0.016,0.009,0.021,0.025,0.021,0.051    c0,0.025-0.007,0.043-0.022,0.052c-0.016,0.009-0.023,0.023-0.023,0.043c0,0.006,0.002,0.012,0.005,0.02    C-2.706,0.522-2.692,0.53-2.673,0.54c0.021,0.011,0.033,0.015,0.038,0.015C-2.655,0.562-2.666,0.573-2.67,0.587    c-0.004,0.015-0.006,0.029-0.006,0.044c0,0.021,0.004,0.038,0.013,0.055C-2.654,0.702-2.639,0.71-2.615,0.71    c0.005,0,0.012-0.001,0.019-0.003c0.005-0.006,0.012-0.018,0.021-0.039c0.009-0.019,0.015-0.032,0.018-0.037    c0.005,0.036,0.016,0.06,0.032,0.072c0.016,0.013,0.04,0.019,0.069,0.019c0-0.059-0.004-0.103-0.013-0.133    C-2.479,0.56-2.488,0.533-2.5,0.512C-2.512,0.49-2.521,0.47-2.532,0.448c-0.01-0.02-0.015-0.047-0.015-0.082h0.253l0.076,0.416    c0.005-0.051,0.013-0.107,0.024-0.171c0.012-0.062,0.028-0.119,0.051-0.17c0.011,0.023,0.026,0.038,0.049,0.044    c0.021,0.006,0.041,0.012,0.062,0.017c0.02,0.005,0.038,0.014,0.055,0.025c0.017,0.011,0.024,0.033,0.024,0.066    c0,0.002-0.006,0.009-0.019,0.018C-1.984,0.622-1.99,0.628-1.99,0.631c0,0.003-0.001,0.014-0.002,0.034    c-0.002,0.021-0.002,0.036-0.002,0.05c0,0.024,0.005,0.042,0.014,0.053c0.008,0.01,0.019,0.019,0.029,0.024    c0.012,0.006,0.021,0.013,0.03,0.021c0.01,0.007,0.013,0.022,0.013,0.045c0,0.03-0.008,0.049-0.023,0.055    c-0.017,0.006-0.034,0.012-0.056,0.016c-0.02,0.004-0.038,0.013-0.055,0.026C-2.058,0.969-2.066,0.997-2.066,1.04    c0.038,0,0.07,0.006,0.097,0.019c0.026,0.013,0.058,0.02,0.093,0.02v0.064h-0.159c0.003,0.05,0.006,0.081,0.008,0.095    c0.002,0.01,0.006,0.024,0.009,0.041c0.005,0.018,0.008,0.035,0.013,0.051c0.003,0.017,0.009,0.037,0.017,0.06h0.064    c0-0.003,0.001-0.011,0.002-0.022c0.001-0.014,0.003-0.025,0.005-0.038c0.003-0.013,0.008-0.024,0.016-0.036    c0.008-0.012,0.017-0.018,0.026-0.018c0.041,0,0.066,0.013,0.075,0.037c0.011,0.023,0.016,0.05,0.018,0.081    c0.002,0.03,0.004,0.06,0.008,0.089c0.004,0.029,0.021,0.049,0.051,0.058c0.005,0,0.013-0.004,0.023-0.015    c0.01-0.01,0.015-0.018,0.015-0.022c0-0.008,0.001-0.021,0.002-0.044c0.001-0.021,0.002-0.044,0.002-0.069    c0-0.025-0.001-0.049-0.002-0.07c-0.001-0.021-0.002-0.036-0.002-0.044c0.007,0.003,0.021-0.002,0.04-0.013    c0.019-0.012,0.03-0.021,0.036-0.024c0.008-0.014,0.017-0.045,0.025-0.095h-0.178c0.021-0.022,0.044-0.047,0.07-0.07    c0.027-0.024,0.058-0.036,0.093-0.036c0-0.029-0.009-0.061-0.026-0.091c-0.018-0.03-0.037-0.06-0.057-0.085    C-1.704,0.834-1.723,0.812-1.74,0.794c-0.018-0.018-0.026-0.028-0.026-0.03c0-0.003,0.001-0.009,0.003-0.019l0.038-0.038    c0.003-0.011,0.004-0.017,0.004-0.02c0-0.013-0.002-0.023-0.008-0.032c-0.005-0.009-0.009-0.017-0.015-0.024    c-0.005-0.008-0.01-0.016-0.016-0.024c-0.004-0.009-0.007-0.022-0.007-0.04c0-0.007,0.001-0.023,0.003-0.049    c0.009-0.011,0.028-0.021,0.063-0.03c0.034-0.011,0.058-0.014,0.069-0.008v0.204c0.03-0.005,0.049-0.01,0.058-0.016    c0.021-0.012,0.044-0.032,0.068-0.063c0.022-0.03,0.037-0.059,0.045-0.087c0.015,0.018,0.028,0.044,0.037,0.077    C-1.412,0.629-1.404,0.663-1.4,0.7c0.006,0.034,0.01,0.067,0.012,0.098c0.004,0.03,0.005,0.05,0.005,0.061h0.057V0.562    c0.03-0.008,0.049-0.01,0.056-0.008l0.076,0.039h0.02h0.019c-0.068-0.051-0.118-0.097-0.149-0.139S-1.354,0.358-1.354,0.29    c0-0.03,0.005-0.051,0.015-0.062c0.01-0.012,0.021-0.02,0.032-0.026c0.012-0.007,0.021-0.015,0.029-0.025    c0.01-0.009,0.015-0.028,0.015-0.057c0-0.022-0.004-0.046-0.012-0.069c-0.008-0.024-0.031-0.032-0.072-0.025    c-0.002-0.007-0.006-0.022-0.011-0.047c-0.005-0.023-0.008-0.04-0.008-0.048c0-0.068,0.015-0.107,0.043-0.117    c0.029-0.01,0.084-0.016,0.165-0.016h1.061l0.076,0.418c0,0.004,0.005,0.012,0.016,0.021c0.009,0.009,0.017,0.014,0.022,0.017    c0.01,0.003,0.016,0.003,0.019,0.003c0.002,0,0.006,0,0.009-0.001c0.005-0.001,0.008-0.002,0.01-0.002    c0.021-0.076,0.036-0.154,0.047-0.237c0.013-0.082,0.022-0.16,0.029-0.235H5.51l0.152-0.057c0.002-0.017,0.003-0.026,0.003-0.031    c0-0.018-0.021-0.045-0.06-0.083C5.564-0.43,5.518-0.472,5.467-0.517C5.414-0.562,5.363-0.608,5.313-0.653    C5.263-0.698,5.227-0.737,5.207-0.771C5.201-0.776,5.194-0.788,5.185-0.809C5.174-0.829,5.163-0.851,5.152-0.875    C5.141-0.899,5.129-0.923,5.118-0.946c-0.012-0.025-0.02-0.041-0.025-0.052L5.056-1.111c-0.003-0.005-0.009-0.013-0.02-0.022    C5.026-1.145,5.02-1.149,5.018-1.149H-5.476c-0.003,0-0.008,0.01-0.017,0.028c-0.009,0.02-0.016,0.035-0.021,0.048    c-0.005,0.007-0.016,0.026-0.032,0.059c-0.017,0.031-0.033,0.063-0.051,0.099C-5.614-0.882-5.63-0.851-5.645-0.821    c-0.014,0.028-0.021,0.045-0.021,0.051V-0.24z M-2.559,0.104V0.062c0.003-0.02,0.006-0.045,0.01-0.075    c0.004-0.031,0.007-0.06,0.011-0.087c0.004-0.028,0.01-0.062,0.017-0.104h0.242c0,0.036-0.003,0.078-0.011,0.128    c-0.008,0.049-0.021,0.098-0.038,0.144c-0.017,0.047-0.039,0.091-0.064,0.131c-0.024,0.04-0.055,0.07-0.09,0.091    c-0.033-0.016-0.055-0.043-0.062-0.082C-2.554,0.169-2.559,0.135-2.559,0.104z" fill="#FFFFFF"/>
    </g>
  </g></svg>