<?xml version="1.0" standalone="no"?>
<svg xmlns="http://www.w3.org/2000/svg" viewBox="-6.37 -6.37 12.74 12.74" color="#212121" width="75" height="75"><g transform="matrix(1 0 0 -1 0 0)">
    <g xmlns="http://www.w3.org/2000/svg">
      <path class="primary" fill="currentColor" d="M0.001-6.245c-3.444,0-6.246,2.802-6.246,6.245s2.802,6.245,6.246,6.245c3.443,0,6.244-2.802,6.244-6.245    S3.444-6.245,0.001-6.245z"/>
      <path class="secondary" d="M0.001,6.12C3.38,6.12,6.12,3.38,6.12,0S3.38-6.12,0.001-6.12C-3.38-6.12-6.12-3.38-6.12,0    S-3.38,6.12,0.001,6.12 M0.001,6.37C-3.512,6.37-6.37,3.513-6.37,0s2.858-6.37,6.371-6.37C3.513-6.37,6.37-3.513,6.37,0    S3.513,6.37,0.001,6.37L0.001,6.37z" fill="#FFFFFF"/>
    </g>
    <path xmlns="http://www.w3.org/2000/svg" class="secondary" d="M5.932-0.194v-0.211H5.749v-0.046H5.394H4.97v-0.034H4.643v0.057H4.46v-0.068H4.155v0.046H4.093v0.086H4.03   v0.052h0.027v0.04H3.995v0.079H3.961v0.039H3.892v-0.027H3.863v-0.034l0.006-0.068H3.743v0.04H3.714v-0.132H3.675v0.222h0.057   v0.031H3.687v0.039h0.097v0.08l0.114,0.132l-0.032,0.03l-0.123-0.14H3.687v0.118h-0.03V0.025H3.493v0.028h0.043v0.146L2.684,0.593   v0.126H2.456V0.587H2.383v0.219h0.063v0.043H2.407v0.103H2.373v-0.05H2.319V0.606H2.232V0.554h0.15c0,0,0.024-0.039,0.044-0.068   c0.02-0.029,0-0.208,0-0.208H2.388v-0.17h-0.15V0.054h0.088v-0.475H2.203v0.242H1.632v0.277H1.544v0.125H1.496V0.099H1.394   l-0.43-0.31H0.616v0.313H0.551v0.289H0.522V0.223H0.493V0.108H0.35V0.052h0.088V-0.21H-0.47v0.316h-0.022v0.119h-0.059v0.347   h-0.064v-0.55h0.035v-0.235h-0.405v0.318h-0.031v0.116h-0.061V0.196h-0.028v-0.407h-0.086v0.024H-1.22v0.031h-0.206v0.263h-0.029   v0.386h-0.026v0.075h0.02v0.034h0.034v0.087h-0.059v0.399h-0.049V-0.03H-1.6v0.163h-0.025v0.059h-0.124v0.032h-0.225V0.141h-0.059   V0.104h-0.349V0.086h-0.312v0.102H-2.73v0.029h-0.109h-0.04v0.196h-0.032v0.302h-0.033V0.224h-0.021V0.202H-2.99V0.181h-0.051   v0.541H-3.1v-0.777h-0.127v0.018h-0.287v0.152h0.025v0.052h-0.022V0.46H-3.58v-0.615h-0.138v-0.027h-0.353v0.051h-0.084v0.148H-4.3   V-0.06h-0.066v0.135h-0.08V-0.07h-0.028v-0.112h-0.087v-0.146h0.08v-0.236H-4.63v0.029h-0.047v-0.021h-1.239l-0.062,0.052   l0.16-0.583H5.698l0.279,0.632v0.263H5.932V-0.194z M1.419-0.209H1.1L1.419,0V-0.209z M3.106,0.133H2.775v0.211H2.66L2.657,0.517   h0.055l0.395-0.191V0.133H3.106z M3.466,0.107H3.193v0.186l0.272-0.12L3.466,0.107L3.466,0.107z" fill="#FFFFFF"/>
  </g></svg>