<?xml version="1.0" standalone="no"?>
<svg xmlns="http://www.w3.org/2000/svg" viewBox="-6.37 -6.37 12.74 12.74" color="#212121" width="75" height="75"><g transform="matrix(1 0 0 -1 0 0)">
    <g xmlns="http://www.w3.org/2000/svg">
      <circle class="primary" fill="currentColor" cx="0" cy="0" r="6.245"/>
      <path class="secondary" d="M0,6.12c3.38,0,6.12-2.74,6.12-6.12S3.38-6.12,0-6.12S-6.12-3.38-6.12,0S-3.38,6.12,0,6.12 M0,6.37    c-3.513,0-6.37-2.857-6.37-6.37S-3.513-6.37,0-6.37S6.37-3.513,6.37,0S3.513,6.37,0,6.37L0,6.37z" fill="#FFFFFF"/>
    </g>
    <path xmlns="http://www.w3.org/2000/svg" id="Amphibious_command_2_" class="secondary" d="M-3.681-0.703c0.036,0.228,0.057,0.401,0.063,0.522h1.604   c0.019,0.017,0.039,0.043,0.063,0.079c-0.01,0.009-0.013,0.017-0.007,0.025h0.032c0.014,0,0.026,0.002,0.04,0.008   c-0.033,0.041-0.058,0.057-0.072,0.045c0.014,0.021,0.026,0.034,0.039,0.04c-0.017,0.021-0.019,0.038-0.003,0.057   c0.023,0.023,0.036,0.045,0.036,0.062h0.036c0.035-0.061,0.054-0.104,0.057-0.128c0.018-0.003,0.03-0.008,0.036-0.017   c-0.033-0.02-0.062-0.032-0.082-0.039c0-0.007,0.004-0.016,0.013-0.027c0.026,0.002,0.052-0.001,0.076-0.01   C-1.765-0.1-1.772-0.106-1.772-0.108c0.028-0.042,0.044-0.063,0.047-0.063c0.022,0.011,0.037,0.019,0.042,0.023v0.64   C-1.719,0.517-1.744,0.536-1.76,0.551c0.029-0.013,0.062-0.03,0.096-0.053l0.03,0.008v0.253C-1.632,0.88-1.627,0.946-1.62,0.957   c0.031-0.093,0.034-0.245,0.01-0.462h0.05l0.039-0.581v-0.313c0-0.209,0.014-0.313,0.042-0.313c0.022,0,0.043,0.006,0.06,0.017   v0.249c0,0.003,0,0.023,0,0.062c0,0.037,0,0.065,0,0.086h0.366v0.135h0.062l0.057,0.308c0.073-0.035,0.115,0.004,0.129,0.118   c0.028,0.014,0.048,0.005,0.057-0.024c0.011-0.029,0.02-0.06,0.029-0.088h0.119c0.015,0.047,0.025,0.082,0.029,0.106h0.086   c0.015-0.056,0.045-0.097,0.088-0.122c0.029-0.243,0.049-0.397,0.061-0.467c0.02-0.008,0.034-0.014,0.047-0.016   c-0.022-0.065-0.034-0.103-0.034-0.108c0-0.013,0.002-0.022,0.007-0.026h0.164v0.304c0-0.016,0.011,0.008,0.031,0.068l0.016,0.852   v-0.864c0.01-0.021,0.017-0.038,0.023-0.046h0.182C0.11-0.136,0.117-0.11,0.121-0.092h0.047c0.029-0.055,0.056-0.088,0.076-0.1   C0.25-0.34,0.257-0.441,0.263-0.494c0.009,0,0.02-0.002,0.029-0.008l0.005-0.003C0.283-0.521,0.271-0.533,0.263-0.537   c0-0.112,0.001-0.167,0.004-0.166h0.452c0.021,0.07,0.032,0.213,0.03,0.43h-0.03v0.043c0.007,0.007,0.021,0.01,0.046,0.01   l0.049,0.637C0.815,0.444,0.734,0.537,0.57,0.693l0.237-0.211c0.02,0.107,0.029,0.198,0.029,0.273   C0.829,0.784,0.818,0.81,0.808,0.832C0.795,0.924,0.786,0.997,0.784,1.054c0,0.001-0.001,0.004-0.003,0.006   C0.802,1.062,0.813,1.074,0.82,1.099c0.036-0.002,0.06,0.008,0.073,0.029c-0.095,0.024-0.167,0.035-0.218,0.03v0.054   c0.231,0,0.399,0,0.506,0V1.151H0.979c-0.011,0-0.021-0.005-0.029-0.016V1.108C1.009,1.08,1.044,1.061,1.055,1.05   c-0.013-0.056-0.016-0.132-0.01-0.228L1.062,0.79C1.036,0.78,1.017,0.768,1.006,0.753c0-0.026,0.007-0.05,0.023-0.07h0.204   c0.009,0.012,0.016,0.02,0.02,0.023C1.251,0.657,1.231,0.63,1.197,0.624C1.12,0.617,1.062,0.612,1.022,0.611V0.578H1.15V0.532   c-0.028,0-0.047-0.006-0.056-0.014V0.485c0.018-0.012,0.042-0.017,0.072-0.017C1.105,0.43,1.059,0.4,1.029,0.38   C1.027,0.327,1.031,0.274,1.045,0.222c0.06,0,0.105-0.004,0.139-0.014C1.122,0.171,1.075,0.144,1.045,0.129   c0.021-0.088,0.044-0.132,0.073-0.132H1.26c0.132,0,0.198,0.023,0.198,0.069v0.231l0.017-0.204c0.013-0.054,0.03-0.08,0.053-0.08   c0.02,0,0.051,0.021,0.092,0.064C1.61,0.087,1.605,0.096,1.603,0.107c0.028-0.003,0.053,0,0.072,0.007v0.034   C1.643,0.157,1.618,0.165,1.603,0.172c0.051,0.054,0.079,0.1,0.084,0.139h0.035c0.02-0.028,0.034-0.065,0.043-0.112   c0.018-0.02,0.031-0.032,0.039-0.036C1.771,0.153,1.747,0.147,1.731,0.146V0.109c0.02-0.007,0.05-0.011,0.09-0.011   c-0.014-0.011-0.024-0.02-0.034-0.025c0.021-0.027,0.036-0.047,0.047-0.06h0.125c0.007,0.073,0.019,0.12,0.033,0.145   c0.028-0.063,0.043-0.112,0.043-0.145C2.397,0.021,2.57,0.024,2.553,0.026C2.538,0.095,2.539,0.149,2.556,0.192   c0.025-0.1,0.037-0.142,0.037-0.126l-0.023-0.04c0.022-0.006,0.04-0.011,0.053-0.013v-0.122h0.043v-0.05   c0-0.021-0.009-0.095-0.025-0.221C2.621-0.492,2.616-0.586,2.622-0.663h0.07c-0.019,0.051-0.027,0.067-0.027,0.05   c0,0.241,0.025,0.363,0.076,0.363c0.007,0,0.014-0.003,0.019-0.009c0.005-0.005,0.012-0.009,0.018-0.009   c0.007,0,0.011,0.004,0.015,0.009C2.796-0.253,2.801-0.25,2.808-0.25c0.027,0,0.043-0.033,0.043-0.097   c0-0.002-0.006-0.044-0.018-0.124C2.821-0.56,2.812-0.623,2.811-0.663c0.026,0.006,0.045,0.012,0.056,0.014   C2.864-0.45,2.879-0.317,2.909-0.253c0.084,0.002,0.126-0.034,0.126-0.106c0-0.024-0.007-0.075-0.021-0.155   C3.005-0.576,3.003-0.62,3.012-0.646h0.06C3.089-0.53,3.099-0.438,3.101-0.373l0.667,0.039c-0.02-0.122-0.034-0.208-0.04-0.256   h0.07c0.089,0,0.136,0.027,0.138,0.082c-0.049,0.03-0.085,0.032-0.108,0.006v0.231c0,0.077,0.066,0.116,0.2,0.116   c0.055,0,0.116-0.049,0.182-0.146c0.3,0,0.425,0,0.374,0v-0.034c-0.133,0.01-0.254,0.01-0.363,0c-0.002-0.011,0-0.033,0.008-0.068   s0.011-0.06,0.009-0.073C4.231-0.496,4.213-0.508,4.181-0.508c0-0.009,0-0.016,0.002-0.021C4.186-0.534,4.186-0.542,4.186-0.55   l0.69,0.039l0.947,0.017c-0.057-0.085-0.088-0.129-0.09-0.135C5.721-0.626,5.706-0.623,5.691-0.623   c-0.083,0-0.261-0.196-0.538-0.588H-5.501l-0.323,0.508H-3.681z" fill="#FFFFFF"/>
  </g></svg>