<?xml version="1.0" standalone="no"?>
<svg xmlns="http://www.w3.org/2000/svg" viewBox="-6.37 -6.37 12.74 12.74" color="#212121" width="75" height="75"><g transform="matrix(1 0 0 -1 0 0)">
    <g xmlns="http://www.w3.org/2000/svg">
      <circle class="primary" fill="currentColor" cx="0" cy="0" r="6.245"/>
      <path class="secondary" d="M0,6.12c3.38,0,6.12-2.74,6.12-6.12S3.38-6.12,0-6.12S-6.12-3.38-6.12,0S-3.38,6.12,0,6.12 M0,6.37    c-3.513,0-6.37-2.857-6.37-6.37S-3.513-6.37,0-6.37S6.37-3.513,6.37,0S3.513,6.37,0,6.37L0,6.37z" fill="#FFFFFF"/>
    </g>
    <path xmlns="http://www.w3.org/2000/svg" id="Amphibious_2_" class="secondary" d="M-5.495-0.779h1.705v0.463h0.046c0.013-0.016,0.026-0.024,0.042-0.024h0.195   c0.012,0.018,0.019,0.035,0.019,0.052c-0.038,0.02-0.062,0.037-0.07,0.052c0.015,0.013,0.017,0.026,0.006,0.042   c0.007,0.009,0.013,0.015,0.019,0.019c-0.004,0.019-0.007,0.031-0.01,0.04c0.029,0.004,0.072,0.006,0.131,0.006   c0.022-0.008,0.04-0.021,0.053-0.039l-0.02-0.019c0.007-0.007,0.005-0.022-0.005-0.049l0.018-0.019   c-0.032-0.026-0.059-0.039-0.078-0.039v-0.021c0.005-0.011,0.011-0.019,0.015-0.024h0.371C-3.053-0.347-3.048-0.35-3.044-0.35   C-3.05-0.269-3.052-0.208-3.05-0.172c0.023-0.008,0.037,0.004,0.037,0.036c0.002,0.031,0.009,0.049,0.021,0.051   c0.006-0.033,0.013-0.05,0.018-0.052c0.005,0.004,0.007,0.01,0.007,0.018c0.028-0.032,0.037-0.049,0.027-0.049   c0.044,0,0.069,0.023,0.076,0.068c0.008,0.004,0.024,0.006,0.049,0.006c0.008,0.004,0.012,0.007,0.012,0.009v0.03   C-2.83-0.046-2.851-0.041-2.867-0.039c0.013,0.012,0.023,0.02,0.033,0.023v0.062C-2.821,0.048-2.811,0.06-2.8,0.079   c0.002,0.007,0.003,0.011,0.003,0.012h0.026c0.011-0.014,0.023-0.024,0.039-0.033v-0.073C-2.712-0.022-2.7-0.03-2.693-0.036   c-0.043-0.01-0.065-0.017-0.067-0.019v-0.03C-2.731-0.096-2.704-0.1-2.683-0.098c-0.013-0.006-0.023-0.01-0.029-0.012   c0.006-0.019,0.02-0.037,0.043-0.059h0.216v-0.115c-0.013-0.01-0.02-0.019-0.024-0.024v-0.194c0.033-0.011,0.061-0.016,0.079-0.019   c-0.003-0.045,0.011-0.067,0.042-0.067c0.016,0,0.027,0.002,0.034,0.004c-0.024,0.025-0.024,0.048,0,0.066   C-2.298-0.499-2.276-0.49-2.255-0.49c-0.009,0,0.025-0.014,0.104-0.042c0.001-0.026,0.001-0.045,0-0.056   c0.02,0.013,0.035,0.021,0.045,0.021v0.067c-0.062,0.046-0.143,0.1-0.238,0.158C-2.356-0.363-2.363-0.379-2.365-0.39   c0-0.013-0.002,0.011-0.006,0.066C-2.367-0.309-2.362-0.3-2.356-0.298C-2.298-0.329-2.238-0.359-2.18-0.39   c0.083-0.043,0.125-0.089,0.125-0.137c0-0.014-0.003-0.029-0.01-0.046c0.02-0.006,0.036-0.012,0.046-0.016   c0.008,0,0.014,0.002,0.02,0.004v0.703c-0.013,0.01-0.022,0.016-0.027,0.019c0.005,0.026,0.008,0.05,0.008,0.073   c0,0.07-0.07,0.175-0.213,0.312l0.232-0.197v0.2C-2.017,0.567-2.06,0.631-2.134,0.719c0.053-0.045,0.093-0.079,0.122-0.104v0.381   C-2.021,1.01-2.028,1.032-2.034,1.062c0,0.006,0.008,0.02,0.021,0.041c0.012,0.021,0.019,0.045,0.019,0.068   c0.022-0.049,0.033-0.105,0.033-0.174c-0.005,0-0.014-0.002-0.023-0.009V0.621c0.006-0.006,0.013-0.01,0.021-0.012   c-0.002,0,0.014,0.008,0.046,0.024c0.017-0.021,0.034-0.029,0.056-0.024l0.02-0.625c0.014-0.066,0.02-0.116,0.022-0.149   c0.008-0.057,0.01-0.1,0.006-0.127c0.063-0.075,0.113-0.13,0.149-0.162c0.008-0.057,0.01-0.102,0.006-0.134h0.064v0.22   c0.043,0.026,0.077,0.099,0.104,0.217c0.022,0.105,0.063,0.162,0.125,0.173l-0.007,0.024c0.007,0.004,0.038,0.006,0.099,0.006   c-0.016-0.006-0.016-0.015,0-0.027c0.002,0,0.035,0.004,0.104,0.013C-1.132,0.043-1.11,0.06-1.108,0.086h0.122   c0.007-0.011,0.011-0.02,0.013-0.025c0.074,0.006,0.107,0.043,0.098,0.109c0.059-0.166,0.107-0.297,0.148-0.393   c0.021-0.004,0.035-0.006,0.046-0.009v-0.055C-0.696-0.312-0.71-0.334-0.725-0.35v-0.238h0.07c0.015,0.041,0.024,0.062,0.03,0.062   c0.006,0,0.01-0.001,0.011-0.002c0.001-0.001,0.005-0.002,0.011-0.004c0.012,0.004,0.02,0.007,0.02,0.012v0.374   c-0.004,0.017-0.006,0.027-0.01,0.034c0.021,0.059,0.027,0.106,0.018,0.143h0.045c0.018-0.059,0.02-0.104,0.008-0.137   c0.012,0,0.019,0.005,0.021,0.016c0.004,0.01,0.017,0.015,0.039,0.015c0.057,0,0.096-0.002,0.118-0.006   C-0.347-0.069-0.347-0.103-0.347-0.18c0-0.028,0.02-0.043,0.061-0.043c0.027,0,0.045,0.004,0.055,0.01   c0.007,0.053,0.011,0.088,0.013,0.106C-0.217-0.088-0.211-0.056-0.2-0.009c0.01,0.047,0.015,0.079,0.015,0.097v0.591l0.009-0.548   c-0.021-0.243,0.021-0.365,0.129-0.365c0.012,0,0.024,0.001,0.039,0.003C-0.011-0.228-0.013-0.26-0.015-0.329   C-0.017-0.357,0-0.372,0.036-0.372c0.02,0.003,0.031,0.005,0.037,0.007c0.015,0,0.023,0.001,0.03,0.003   C0.105-0.346,0.107-0.334,0.11-0.326v0.241c0.004,0.059,0.008,0.112,0.012,0.158c0,0.015-0.01,0.031-0.029,0.052   C0.073,0.146,0.06,0.166,0.052,0.188l0.073,0.013C0.131,0.296,0.137,0.368,0.14,0.418c0,0.033-0.028,0.049-0.088,0.047   C-0.007,0.462-0.04,0.473-0.048,0.5C-0.055,0.491-0.06,0.485-0.063,0.48v0.067c0.008-0.014,0.014-0.024,0.016-0.03h0.029   c0.126,0,0.193,0.044,0.205,0.131c0.018,0.062,0.027,0.086,0.027,0.07c0,0.019-0.025,0.04-0.074,0.067   c0.023,0.005,0.039,0.011,0.049,0.015C0.179,0.827,0.17,0.847,0.161,0.858c0.014,0.015,0.033,0.018,0.055,0.009   C0.218,0.872,0.22,0.88,0.22,0.893c0,0.025-0.014,0.04-0.04,0.042L0.11,0.938v0.046c0.02-0.002,0.064-0.001,0.137,0.003   c0.016,0,0.04-0.003,0.072-0.01c0.033-0.005,0.057-0.01,0.068-0.012C0.381,0.957,0.379,0.946,0.381,0.932   C0.334,0.924,0.298,0.918,0.271,0.916V0.871h0.052V0.84C0.309,0.832,0.299,0.819,0.292,0.801c0.015-0.01,0.029-0.017,0.046-0.019   c-0.05-0.021-0.075-0.043-0.075-0.066c0.021-0.06,0.048-0.111,0.079-0.155c0.066-0.002,0.103-0.004,0.106-0.004   c-0.009-0.008-0.012-0.015-0.01-0.021C0.532,0.525,0.575,0.52,0.569,0.518L0.575,0.48C0.565,0.491,0.554,0.497,0.539,0.5   c-0.011,0-0.019-0.007-0.027-0.02C0.504,0.469,0.495,0.463,0.487,0.463H0.329v-0.04c0.002-0.032,0.008-0.059,0.018-0.078   c0.004,0.006,0.008,0.014,0.01,0.023h0.171V0.332H0.46c0,0.004-0.004-0.016-0.012-0.061c0,0.008,0.008-0.004,0.023-0.037   C0.388,0.178,0.345,0.146,0.345,0.141C0.347,0.107,0.351,0.08,0.359,0.058C0.376-0.048,0.378-0.127,0.366-0.18h0.14   c0.015,0.03,0.019,0.053,0.012,0.067c0.094-0.019,0.14,0.007,0.14,0.076v0.213c0.011,0.002,0.02,0.004,0.024,0.006   C0.688,0.164,0.69,0.145,0.688,0.121c0.049-0.035,0.074-0.07,0.078-0.103C0.816,0.008,0.86,0,0.898-0.006   c-0.1,0.008-0.149-0.005-0.149-0.04c0-0.036,0.023-0.061,0.07-0.073v-0.243c0.006-0.006,0.02-0.01,0.043-0.01   c0.02,0,0.033,0.009,0.039,0.025c0.012,0.115,0.02,0.216,0.021,0.301c0.07,0.013,0.107-0.026,0.112-0.115   C1.034-0.23,1.032-0.3,1.032-0.372h0.021c0.023,0.147,0.034,0.257,0.03,0.333c0.061,0,0.093-0.004,0.097-0.013   c0.005-0.053,0.009-0.094,0.013-0.122c0-0.132-0.001-0.198-0.003-0.198h0.043C1.241-0.323,1.245-0.259,1.245-0.18   c0.028-0.006,0.061,0.014,0.098,0.058C1.337-0.115,1.328-0.111,1.318-0.109c0.028,0.008,0.053,0.009,0.073,0.003v0.046   C1.364-0.053,1.345-0.048,1.33-0.046c0.015,0.011,0.024,0.017,0.031,0.019v0.062C1.38,0.052,1.393,0.066,1.4,0.079h0.033   c0.003-0.013,0.013-0.023,0.03-0.033C1.467,0.004,1.468-0.022,1.47-0.033c0.014,0.002,0.025-0.002,0.034-0.013   c-0.032-0.008-0.056-0.013-0.07-0.015v-0.046c0.024,0.006,0.052,0.005,0.083-0.003c-0.021-0.01-0.031-0.017-0.031-0.019   C1.5-0.143,1.513-0.159,1.525-0.18h0.183v0.217l0.01-0.205c0.032-0.008,0.062-0.008,0.094,0v0.026   C1.801-0.138,1.793-0.135,1.787-0.133L1.79-0.085h0.201v-0.024C1.965-0.132,1.964-0.155,1.987-0.18h0.064   c0.01,0.051,0.018,0.085,0.021,0.104h0.027C2.123-0.146,2.134-0.18,2.132-0.18c0.01,0,0.017,0.001,0.021,0.003   c0,0.028,0.004,0.053,0.012,0.073v0.17l0.012-0.157c0.01-0.041,0.016-0.07,0.016-0.089h0.07c0.006,0.014,0.008,0.028,0.006,0.04   c0.014,0.004,0.026-0.01,0.036-0.04h0.18c0.011,0,0.015,0.003,0.012,0.01C2.479-0.156,2.479-0.123,2.499-0.069   c0.014-0.054,0.018-0.09,0.016-0.11c0.006-0.002,0.012-0.003,0.018-0.005c0.007,0,0.014-0.002,0.02-0.004   c-0.006-0.064-0.008-0.1-0.003-0.104c0.01,0.006,0.015,0.014,0.018,0.023h0.058v-0.285c0.005-0.005,0.01-0.007,0.016-0.007   c0.006,0.018,0.01,0.031,0.013,0.041l0.061,0.018c0.01,0,0.019-0.002,0.024-0.007C2.743-0.53,2.746-0.548,2.746-0.561   c0.056,0,0.13,0.012,0.226,0.034S3.13-0.493,3.16-0.493C3.169-0.48,3.173-0.465,3.173-0.444C3.121-0.42,3.096-0.407,3.096-0.405   l0.019,0.019C3.091-0.355,3.082-0.331,3.091-0.311C3.139-0.29,3.183-0.28,3.222-0.28c0.023-0.004,0.044-0.013,0.061-0.027   C3.27-0.318,3.263-0.324,3.261-0.329c0.02-0.028,0.028-0.054,0.024-0.076c-0.03-0.019-0.053-0.028-0.067-0.033   C3.224-0.471,3.229-0.488,3.23-0.49c0.04,0.002,0.074,0,0.101-0.006c0-0.134,0.007-0.201,0.021-0.201   c0.077,0.003,0.164,0.003,0.26,0.003c0.01,0.011,0.015,0.023,0.015,0.04C3.593-0.643,3.568-0.634,3.55-0.63   C3.542-0.639,3.536-0.645,3.534-0.648v0.201c0,0.059,0.053,0.088,0.156,0.088c0.072,0,0.129-0.039,0.17-0.119H4.18v-0.023H3.866   c0.004-0.043,0.011-0.08,0.019-0.11l1.449,0.134h0.167C5.369-0.604,5.303-0.671,5.303-0.681C5.259-0.679,5.184-0.742,5.078-0.872   c-0.1-0.123-0.165-0.223-0.194-0.3h-10.15c0,0.012-0.039,0.071-0.117,0.178c-0.078,0.107-0.117,0.17-0.117,0.19   C-5.501-0.793-5.499-0.785-5.495-0.779z" fill="#FFFFFF"/>
  </g></svg>