<?xml version="1.0" standalone="no"?>
<svg xmlns="http://www.w3.org/2000/svg" viewBox="-6.37 -6.37 12.74 12.74" color="#212121" width="75" height="75"><g transform="matrix(1 0 0 -1 0 0)">
    <g xmlns="http://www.w3.org/2000/svg">
      <circle class="primary" fill="currentColor" cx="0" cy="0" r="6.245"/>
      <path class="secondary" d="M0,6.12c3.38,0,6.12-2.74,6.12-6.12S3.38-6.12,0-6.12S-6.12-3.38-6.12,0S-3.38,6.12,0,6.12 M0,6.37    c-3.513,0-6.37-2.857-6.37-6.37S-3.513-6.37,0-6.37S6.37-3.513,6.37,0S3.513,6.37,0,6.37L0,6.37z" fill="#FFFFFF"/>
    </g>
    <g xmlns="http://www.w3.org/2000/svg" id="Amphibious_Transport_2_">
      <path class="secondary" d="M3.722-1.415h-6.253C-2.55-1.382-2.594-1.356-2.664-1.342c-0.07,0.016-0.149,0.025-0.235,0.028    C-2.986-1.31-3.071-1.309-3.154-1.311c-0.084-0.003-0.148-0.004-0.194-0.004c-0.057,0-0.126,0.001-0.209,0.004    c-0.083,0.002-0.174,0.004-0.271,0.004c-0.095,0-0.191-0.003-0.292-0.007c-0.099-0.003-0.195-0.011-0.287-0.022    c-0.093-0.012-0.176-0.028-0.25-0.05C-4.73-1.407-4.79-1.437-4.833-1.473c-0.008,0.021-0.018,0.042-0.028,0.064    C-4.873-1.387-4.89-1.37-4.91-1.356c0.026,0.004,0.04,0.02,0.042,0.046c0.004,0.025,0.004,0.046,0.004,0.061    c0,0.006-0.002,0.021-0.008,0.046l-0.191,0.039c-0.002,0-0.009-0.01-0.018-0.029C-5.09-1.213-5.097-1.229-5.102-1.242    C-5.104-1.25-5.107-1.263-5.111-1.28c-0.004-0.018-0.008-0.037-0.012-0.058c-0.004-0.021-0.008-0.039-0.012-0.058    C-5.139-1.413-5.14-1.426-5.14-1.434c-0.006-0.003-0.019-0.005-0.039-0.006C-5.199-1.44-5.212-1.441-5.217-1.441    c-0.031,0-0.06,0.019-0.087,0.054c-0.026,0.035-0.05,0.081-0.068,0.137c-0.02,0.055-0.036,0.115-0.05,0.182    c-0.015,0.066-0.026,0.132-0.036,0.194c-0.01,0.062-0.018,0.118-0.021,0.166c-0.004,0.05-0.006,0.082-0.006,0.101v0.057    c0.003-0.007,0.009-0.021,0.018-0.04s0.016-0.031,0.021-0.036c0.011-0.003,0.017-0.004,0.02-0.004    c0.003,0,0.009,0.001,0.019,0.004c0.004,0.002,0.006,0.009,0.008,0.02c0.004,0.01,0.006,0.022,0.01,0.036    c0.005,0.015,0.008,0.026,0.012,0.038c0.004,0.012,0.007,0.019,0.01,0.021c0,0.002,0.003,0.004,0.008,0.006    c0.005,0,0.009,0.001,0.012,0.001c0.002,0,0.006-0.001,0.012-0.001c0.005-0.002,0.007-0.004,0.007-0.006    c0.005-0.008,0.013-0.026,0.023-0.057c0.01-0.029,0.015-0.048,0.015-0.059l0.135,0.115v-0.154h0.364l0.039,0.077h0.229    c-0.008-0.033-0.002-0.056,0.018-0.066c0.02-0.012,0.04-0.019,0.062-0.019h0.039c0.013,0,0.027,0.001,0.046,0.003    c0.018,0.001,0.026,0.003,0.026,0.005c0.014,0.014,0.024,0.038,0.033,0.075c0.008,0.037,0.011,0.063,0.006,0.079h1.036    l0.038,0.096h1.227l0.077,0.058v0.69l0.23,0.076v0.084c0.028,0,0.05-0.003,0.064-0.009c0.016-0.007,0.031-0.015,0.048-0.023    c0.018-0.009,0.038-0.017,0.062-0.022c0.023-0.007,0.059-0.01,0.105-0.01c0,0.01-0.002,0.02-0.006,0.029    C-1.417,0.464-1.42,0.474-1.421,0.482C-1.423,0.491-1.42,0.499-1.415,0.506c0.005,0.006,0.016,0.012,0.034,0.017l-0.076,0.115    c0.002,0,0.008,0.002,0.017,0.004c0.01,0.002,0.017,0.004,0.021,0.004c0.043,0,0.081-0.018,0.113-0.054    c0.031-0.036,0.059-0.072,0.078-0.107c0.003-0.005,0.003-0.017,0-0.032C-1.23,0.436-1.233,0.417-1.239,0.397    c-0.005-0.019-0.009-0.036-0.013-0.054c-0.004-0.017-0.006-0.025-0.006-0.028c0.005,0,0.017,0.004,0.034,0.012    c0.019,0.008,0.037,0.016,0.058,0.023c0.021,0.008,0.04,0.014,0.058,0.019c0.018,0.005,0.029,0.005,0.034,0    c0.003-0.003,0.006-0.011,0.01-0.026c0.004-0.016,0.007-0.032,0.01-0.051c0.003-0.018,0.006-0.034,0.01-0.05    c0.004-0.016,0.007-0.024,0.009-0.026c0.003-0.003,0.012-0.006,0.027-0.01c0.016-0.004,0.031-0.007,0.05-0.01    c0.018-0.002,0.034-0.006,0.05-0.01c0.016-0.004,0.024-0.007,0.026-0.009c0.003-0.003,0.007-0.011,0.011-0.021    c0.003-0.012,0.007-0.023,0.009-0.036c0.003-0.013,0.007-0.024,0.01-0.036c0.004-0.012,0.007-0.019,0.01-0.021    c0.003-0.002,0.012-0.006,0.027-0.01c0.015-0.004,0.031-0.007,0.049-0.01c0.019-0.002,0.035-0.005,0.05-0.009    c0.016-0.005,0.024-0.008,0.027-0.011c0.003-0.002,0.006-0.009,0.008-0.019c0.003-0.011,0.006-0.022,0.01-0.037    c0.004-0.014,0.007-0.026,0.012-0.038c0.003-0.011,0.007-0.018,0.01-0.021c0-0.002,0.002-0.004,0.008-0.005    C-0.64-0.099-0.636-0.1-0.633-0.1c0.008,0,0.014,0.004,0.02,0.008c0.021,0.078,0.032,0.142,0.036,0.194    c0.004,0.053,0.006,0.115,0.006,0.189c0,0.013-0.001,0.039-0.002,0.077c-0.001,0.038-0.002,0.063-0.002,0.076    c-0.03,0.016-0.046,0.042-0.046,0.077h0.084V0.63c-0.022,0-0.04,0.001-0.05,0.004c-0.01,0.002-0.021,0.004-0.03,0.004    c-0.008,0-0.017-0.003-0.026-0.008C-0.654,0.624-0.67,0.614-0.69,0.6c0.008,0.015,0.003,0.04-0.016,0.072    c-0.018,0.033-0.026,0.061-0.026,0.081c0,0.022,0.002,0.048,0.006,0.076c0.004,0.028,0.022,0.042,0.056,0.042    c0.002,0,0.009,0,0.02-0.004c0.004-0.004,0.012-0.011,0.022-0.019c0.01-0.008,0.016-0.014,0.016-0.02    c0-0.008-0.006-0.021-0.016-0.04C-0.64,0.77-0.647,0.758-0.651,0.753h0.038c0.092,0,0.16,0.034,0.205,0.104s0.074,0.15,0.09,0.243    c0.015,0.093,0.022,0.187,0.022,0.278c0,0.095,0.004,0.167,0.008,0.219V1.147c0.021,0,0.038,0.002,0.051,0.006    c0.012,0.004,0.024,0.009,0.035,0.014c0.012,0.006,0.025,0.01,0.039,0.014c0.015,0.004,0.032,0.006,0.056,0.006    c0-0.067-0.009-0.131-0.024-0.193c-0.017-0.062-0.062-0.105-0.137-0.126v-1.035h0.276c0,0.074,0.008,0.139,0.023,0.191    c0.015,0.055,0.03,0.118,0.045,0.192h0.059V0.062h0.287C0.438,0.099,0.453,0.128,0.47,0.155c0.018,0.024,0.032,0.05,0.046,0.074    c0.015,0.023,0.026,0.05,0.037,0.077c0.01,0.026,0.018,0.06,0.022,0.101h0.058V0.254c0.028,0.074,0.05,0.15,0.065,0.229    s0.025,0.155,0.031,0.231c0.004-0.076,0.015-0.153,0.03-0.231s0.037-0.154,0.064-0.229v0.46l0.059-0.269l0.076-0.038l0.077-0.307    l0.076,0.077v0.651l0.039,0.115C1.156,0.909,1.162,0.888,1.17,0.88c0.008-0.009,0.017-0.013,0.026-0.013    c0.012,0,0.022,0,0.033-0.001c0.012-0.002,0.023-0.014,0.037-0.037C1.232,0.835,1.212,0.832,1.2,0.82    C1.19,0.809,1.187,0.794,1.189,0.777c0.003-0.016,0.007-0.033,0.015-0.051c0.008-0.019,0.012-0.032,0.012-0.039    c0.021,0,0.039,0.011,0.056,0.035c0.017,0.022,0.041,0.034,0.071,0.034c0.053,0,0.08-0.026,0.08-0.081    c0-0.03-0.008-0.052-0.022-0.063C1.385,0.601,1.377,0.579,1.377,0.546c0-0.041,0.003-0.076,0.01-0.105    c0.006-0.029,0.017-0.066,0.032-0.109C1.435,0.339,1.445,0.352,1.45,0.369c0.005,0.018,0.012,0.036,0.017,0.054    C1.474,0.44,1.482,0.456,1.494,0.469c0.011,0.013,0.031,0.019,0.06,0.019c0.002,0,0.006,0,0.01-0.001    C1.567,0.484,1.57,0.484,1.572,0.484C1.57,0.477,1.566,0.466,1.562,0.452c-0.006-0.015-0.01-0.029-0.014-0.045    c-0.004-0.015-0.007-0.029-0.01-0.044C1.536,0.35,1.534,0.339,1.534,0.331c0-0.021,0.01-0.033,0.031-0.037    c0.021-0.003,0.037-0.006,0.049-0.006c0.016,0,0.027,0.005,0.033,0.014c0.006,0.01,0.012,0.019,0.016,0.029    c0.003,0.01,0.008,0.02,0.014,0.028c0.005,0.01,0.016,0.014,0.03,0.014c0.028,0,0.044-0.007,0.046-0.022    C1.756,0.335,1.757,0.318,1.757,0.3c0.019,0,0.03-0.001,0.036-0.004C1.8,0.294,1.806,0.292,1.811,0.292    c0.005,0,0.012,0.003,0.021,0.008C1.841,0.305,1.856,0.315,1.88,0.331C1.872,0.29,1.874,0.252,1.888,0.218    C1.9,0.183,1.917,0.149,1.937,0.116c0.021-0.033,0.041-0.066,0.061-0.1c0.019-0.034,0.031-0.069,0.037-0.108    c0.002-0.015,0.006-0.04,0.011-0.076s0.009-0.074,0.013-0.115c0.004-0.04,0.008-0.079,0.011-0.114    C2.07-0.434,2.071-0.46,2.071-0.475h0.211c0.084,0,0.159,0,0.225,0.002C2.572-0.472,2.638-0.47,2.704-0.468    C2.771-0.464,2.842-0.46,2.918-0.456c0.075,0.006,0.164,0.012,0.266,0.02v0.115h0.538c-0.008,0-0.023-0.002-0.045-0.004    c-0.021-0.002-0.045-0.006-0.07-0.01c-0.025-0.004-0.05-0.008-0.071-0.014C3.514-0.354,3.498-0.357,3.49-0.359    C3.486-0.362,3.479-0.367,3.47-0.377C3.461-0.386,3.455-0.394,3.452-0.397H3.49c0.019,0,0.038-0.001,0.059-0.003    c0.021-0.001,0.039-0.001,0.058-0.001h0.038c0.151,0,0.3,0.006,0.448,0.019C4.241-0.37,4.39-0.356,4.538-0.343    c0.148,0.015,0.297,0.027,0.445,0.041C5.131-0.289,5.28-0.283,5.428-0.283h0.058C5.427-0.365,5.363-0.441,5.296-0.513    C5.228-0.585,5.158-0.655,5.087-0.726c-0.072-0.07-0.143-0.142-0.211-0.213C4.807-1.011,4.741-1.086,4.681-1.165    c0-0.006-0.001-0.019-0.003-0.039c-0.001-0.02-0.001-0.032-0.001-0.038c0-0.046,0.007-0.088,0.022-0.128    c0.016-0.04,0.022-0.083,0.022-0.129c0-0.033-0.01-0.057-0.032-0.068C4.668-1.58,4.643-1.589,4.613-1.593    c-0.03-0.004-0.06-0.005-0.091-0.002c-0.03,0.003-0.057,0.004-0.076,0.004c-0.054,0-0.114,0.001-0.181,0.004    c-0.066,0.002-0.134,0.01-0.201,0.021C3.996-1.555,3.933-1.537,3.873-1.514C3.812-1.491,3.762-1.458,3.722-1.415z M-0.191,1.021    c-0.021,0-0.031-0.012-0.031-0.037c0-0.025,0.01-0.039,0.031-0.039c0.021,0,0.03,0.014,0.03,0.039    C-0.161,1.009-0.171,1.021-0.191,1.021z M-0.345,0.445c-0.021,0-0.03-0.013-0.03-0.038c0-0.025,0.009-0.038,0.03-0.038    c0.021,0,0.03,0.013,0.03,0.038C-0.314,0.433-0.324,0.445-0.345,0.445z M-0.345,0.829l-0.039-0.038h0.039V0.829z M-0.384,0.676    c-0.021,0-0.03-0.013-0.03-0.038c0-0.025,0.01-0.038,0.03-0.038c0.021,0,0.03,0.013,0.03,0.038    C-0.354,0.663-0.362,0.676-0.384,0.676z M-0.384,0.522c0.006,0.013-0.001,0.02-0.019,0.02c-0.016,0-0.022-0.007-0.02-0.02    s0.009-0.02,0.02-0.02C-0.395,0.503-0.389,0.51-0.384,0.522z M-0.422,0.407c-0.021,0-0.03-0.013-0.03-0.038    c0-0.026,0.01-0.038,0.03-0.038s0.031,0.012,0.031,0.038C-0.391,0.395-0.401,0.407-0.422,0.407z M-0.499,0.445    c-0.02,0-0.03-0.013-0.03-0.038c0-0.025,0.011-0.038,0.03-0.038c0.021,0,0.031,0.013,0.031,0.038    C-0.468,0.433-0.479,0.445-0.499,0.445z M-1.112,0.484h0.038V0.445h-0.038V0.484z M-4.603-1.242V-1.28h0.651    c-0.081,0.023-0.155,0.036-0.221,0.038c-0.064,0.003-0.138,0.004-0.22,0.004h-0.043c-0.021,0-0.041-0.001-0.062-0.002    C-4.52-1.241-4.54-1.242-4.561-1.242H-4.603z M-4.756-1.204c-0.021,0-0.031-0.012-0.031-0.038c0-0.025,0.01-0.038,0.031-0.038    c0.021,0,0.03,0.013,0.03,0.038C-4.726-1.216-4.735-1.204-4.756-1.204z M-4.833-0.59C-4.841-0.595-4.855-0.6-4.877-0.604    c-0.022-0.004-0.046-0.005-0.071-0.005c-0.026,0-0.05,0.001-0.07,0.005C-5.041-0.6-5.056-0.595-5.063-0.59    c-0.008,0.005,0.001,0.009,0.026,0.012c0.026,0.002,0.056,0.004,0.089,0.004c0.033,0,0.063-0.002,0.088-0.004    C-4.834-0.581-4.825-0.585-4.833-0.59z" fill="#FFFFFF"/>
    </g>
  </g></svg>