<?xml version="1.0" standalone="no"?>
<svg xmlns="http://www.w3.org/2000/svg" viewBox="-6.37 -6.37 12.74 12.74" color="#212121" width="75" height="75"><g transform="matrix(1 0 0 -1 0 0)">
    <g xmlns="http://www.w3.org/2000/svg">
      <circle class="primary" fill="currentColor" cx="0" cy="0" r="6.245"/>
      <path class="secondary" d="M0,6.12c3.38,0,6.12-2.74,6.12-6.12S3.38-6.12,0-6.12S-6.12-3.38-6.12,0S-3.38,6.12,0,6.12 M0,6.37    c-3.513,0-6.37-2.857-6.37-6.37S-3.513-6.37,0-6.37S6.37-3.513,6.37,0S3.513,6.37,0,6.37L0,6.37z" fill="#FFFFFF"/>
    </g>
    <g xmlns="http://www.w3.org/2000/svg" id="Attack_Submarines_3_">
      <g>
        <line class="secondary" x1="2.76" y1="0.676" x2="2.76" y2="0.825" fill="#FFFFFF"/>
      </g>
      <g>
        <line class="secondary" x1="2.663" y1="0.676" x2="2.663" y2="0.825" fill="#FFFFFF"/>
      </g>
      <g>
        <path class="secondary" d="M5.459-0.204v0.068h-0.01c0,0.005,0.001,0.008,0.001,0.013c0,0.053-0.02,0.096-0.045,0.096     c-0.024,0-0.045-0.043-0.045-0.096c0-0.005,0.002-0.008,0.002-0.013h-0.01v-0.04C5.249-0.151,5.13-0.13,4.997-0.111L4.166,0.006     C3.908,0.054,3.36,0.082,3.069,0.09v0.454c0,0.03-0.02,0.055-0.067,0.068l-0.037-0.03H2.843V0.62     C2.828,0.619,2.811,0.619,2.792,0.618v0.058H2.76H2.722V0.614c-0.008,0-0.016,0-0.024-0.001v0.062H2.663H2.628V0.609     c-0.025-0.002-0.05-0.003-0.074-0.004v0.199H2.528v0.201H2.477v-0.2H2.45V0.599C2.253,0.584,2.07,0.565,2.07,0.544V0.092     c-0.083,0-0.17,0-0.261,0c-0.083,0-0.167,0-0.255,0c-0.025,0-0.052,0-0.077,0c-0.084,0-0.168,0-0.255,0c-0.025,0-0.052,0-0.077,0     c-0.085,0-0.169,0-0.254,0c-0.026,0-0.052,0-0.078,0c-0.085,0-0.17,0-0.255,0c-0.026,0-0.051,0-0.078,0c-0.085,0-0.17,0-0.254,0     c-0.026,0-0.052,0-0.076,0c-0.088,0-0.173,0-0.256,0c-0.026,0-0.052,0-0.077,0c-0.088,0-0.174,0-0.255,0     c-0.026,0-0.053,0-0.078,0c-0.09,0-0.175,0-0.255,0c-0.18,0-0.33,0-0.432,0c-0.837,0-1.061,0.004-1.202-0.132     c-0.188-0.016-1.512-0.072-1.553-0.074C-4.274-0.14-4.564-0.181-4.827-0.229c-0.12-0.022-0.235-0.045-0.343-0.069l-0.09,0.425     h-0.282c-0.018,0-0.037-0.013-0.037-0.028v-0.507C-5.684-0.439-5.778-0.47-5.858-0.501c-0.004,0.06-0.012,0.104-0.021,0.104     c-0.01,0-0.017-0.053-0.02-0.119c-0.025-0.009-0.05-0.02-0.072-0.029c0.022-0.009,0.047-0.018,0.072-0.026     c0.003-0.067,0.01-0.119,0.02-0.119c0.009,0,0.017,0.045,0.021,0.104c0.082-0.029,0.176-0.06,0.279-0.091V-0.99h0.319l0.067,0.21     c0.114-0.028,0.236-0.054,0.366-0.077C-4.6-0.898-4.352-0.936-4.085-0.962C-3.803-0.99-3.5-1.007-3.18-1.007h7.743     c0.497,0,0.877,0.068,1.117,0.169C6.11-0.66,6.085-0.378,5.459-0.204z" fill="#FFFFFF"/>
      </g>
      <g>
        <line class="secondary" x1="-4.085" y1="-0.962" x2="-4.085" y2="-0.963" fill="#FFFFFF"/>
      </g>
      <g>
        <line class="secondary" x1="5.681" y1="-0.838" x2="5.681" y2="-0.843" fill="#FFFFFF"/>
      </g>
    </g>
  </g></svg>