<?xml version="1.0" standalone="no"?>
<svg xmlns="http://www.w3.org/2000/svg" viewBox="-6.37 -6.37 12.74 12.74" color="#212121" width="75" height="75"><g transform="matrix(1 0 0 -1 0 0)">
    <g xmlns="http://www.w3.org/2000/svg">
      <path class="primary" fill="currentColor" d="M0-6.245c-3.444,0-6.245,2.801-6.245,6.244c0,3.444,2.802,6.246,6.245,6.246s6.245-2.802,6.245-6.246    C6.245-3.444,3.444-6.245,0-6.245z"/>
      <path class="secondary" d="M0,6.12c3.38,0,6.12-2.74,6.12-6.121C6.12-3.38,3.38-6.12,0-6.12s-6.12,2.74-6.12,6.119    C-6.12,3.38-3.38,6.12,0,6.12 M0,6.37c-3.513,0-6.37-2.858-6.37-6.371C-6.37-3.513-3.513-6.37,0-6.37s6.37,2.857,6.37,6.369    C6.37,3.512,3.513,6.37,0,6.37L0,6.37z" fill="#FFFFFF"/>
    </g>
    <path xmlns="http://www.w3.org/2000/svg" id="Ballistic_Missile_Submarines_1_" class="secondary" d="M4.817-0.653c0,0.25-0.271,0.453-0.608,0.461l0,0L2.559-0.1v0.01v0.203   c0,0.076-0.062,0.139-0.141,0.139H2.301v0.35H2.29v-0.35H1.939c0.002,0.002,0.002,0.004,0.002,0.006   c0,0.014-0.011,0.025-0.024,0.025H1.896v0.43h-0.01v-0.43H1.869c-0.014,0-0.024-0.012-0.024-0.025c0-0.002,0-0.004,0.001-0.006   H1.823v0.033c0,0.012-0.009,0.023-0.021,0.025L1.798,1.218L1.793,0.31C1.781,0.308,1.772,0.296,1.772,0.284V0.251H1.733v0.031   c0,0.014-0.009,0.025-0.021,0.027v0.402H1.7V0.31C1.688,0.308,1.679,0.296,1.679,0.282V0.251H1.566   c-0.005,0-0.01-0.002-0.015-0.002v0.463h-0.01V0.247C1.475,0.235,1.425,0.179,1.425,0.112V0.085L1.394,0.081l0.031-0.006V0.026   L1.394,0.022l0.031-0.006V-0.08C1.233-0.074,1.034-0.07,0.832-0.066v0.021H0.538v-0.02c-0.016,0-0.03,0-0.046,0v0.02H0.197v-0.02   c-0.014,0-0.027,0-0.042,0v0.02h-0.294v-0.021c-0.015,0-0.028,0-0.042,0v0.021h-0.295v-0.029c-0.014,0-0.028,0-0.042,0v0.029   h-0.294v-0.039c-0.014,0-0.026,0-0.04,0l-0.001,0.039l-0.295-0.012l0.002-0.039c-1.097-0.051-1.995-0.156-2.508-0.289   c-0.12-0.021-0.204-0.037-0.204-0.037C-4.006-0.448-4.02-0.349-4.02-0.349l-0.088,0.332h-0.221C-4.34-0.015-4.348-0.015-4.35-0.015   c-0.128,0-0.232-0.014-0.232-0.029c0-0.014,0.062-0.023,0.15-0.027l0,0v-0.404c0,0-0.04-0.08-0.328-0.078l-0.008-0.018   c0,0.002,0,0.002,0,0.004C-4.769-0.554-4.772-0.54-4.775-0.526C-4.78-0.497-4.786-0.47-4.792-0.442h-0.001   C-4.791-0.47-4.79-0.499-4.787-0.526c0.002-0.016,0.002-0.029,0.004-0.043c0.002-0.008,0.004-0.014,0.006-0.021L-4.78-0.597   c-0.021,0-0.037,0.004-0.037-0.016S-4.8-0.629-4.78-0.629l0.002-0.006C-4.779-0.64-4.781-0.646-4.783-0.651   C-4.785-0.665-4.785-0.68-4.787-0.694C-4.79-0.724-4.791-0.751-4.793-0.78h0.001c0.006,0.027,0.012,0.057,0.017,0.084   c0.003,0.014,0.007,0.027,0.008,0.043l0,0l0.008-0.018l0,0c0,0,0.268-0.021,0.331-0.086v-0.369h0.294c0,0,0.044-0.006,0.077,0.092   l0.052,0.123c0,0,0.02,0.072,0.193,0.039c0,0,0.088-0.016,0.218-0.041C-2.844-1.095-1.36-1.22,0.348-1.22   c0.611,0,1.193,0.018,1.725,0.045l2.153,0.062l0,0C4.556-1.097,4.817-0.897,4.817-0.653z" fill="#FFFFFF"/>
  </g></svg>