<?xml version="1.0" standalone="no"?>
<svg xmlns="http://www.w3.org/2000/svg" viewBox="-6.37 -6.37 12.74 12.74" color="#212121" width="75" height="75"><g transform="matrix(1 0 0 -1 0 0)">
    <g xmlns="http://www.w3.org/2000/svg" id="Circle_119_">
      <path class="primary" fill="currentColor" d="M-0.001-6.245c-3.443,0-6.244,2.802-6.244,6.246c0,3.443,2.801,6.244,6.244,6.244    c3.444,0,6.246-2.801,6.246-6.244C6.245-3.443,3.443-6.245-0.001-6.245z"/>
      <path class="secondary" d="M-0.001,6.12c3.381,0,6.121-2.74,6.121-6.119c0-3.381-2.74-6.121-6.121-6.121    c-3.379,0-6.119,2.74-6.119,6.121C-6.12,3.38-3.38,6.12-0.001,6.12 M-0.001,6.37c-3.512,0-6.369-2.857-6.369-6.369    c0-3.513,2.857-6.371,6.369-6.371c3.513,0,6.371,2.858,6.371,6.371C6.37,3.513,3.512,6.37-0.001,6.37L-0.001,6.37z" fill="#FFFFFF"/>
    </g>
    <path xmlns="http://www.w3.org/2000/svg" class="secondary" d="M-5.614,0.259v-0.627l2.514-0.17c-0.014,0.035-0.021,0.072-0.021,0.112c0,0.051,0.014,0.1,0.037,0.142h-0.828   v0.115c0,0,0.885-0.036,0.932,0l0,0c0.047,0.03,0.105,0.05,0.166,0.05c0.17,0,0.309-0.138,0.309-0.307   c0-0.056-0.016-0.105-0.041-0.149l0.523-0.034l0.145,0.45l-0.23,0.452l0.102,0.046l0.287-0.462h0.441v0.229h0.443v0.114h0.238   v0.172h0.494v0.746c-0.02,0.011-0.041,0.022-0.061,0.041c-0.018,0.385,0,0.385,0,0.385s0.027,0.012,0.061,0.023v0.025h0.076V1.609   c0.014,0.004,0.027,0.005,0.033,0.004c0.033-0.009,0.098-0.065,0.033-0.099C0.009,1.501-0.011,1.476-0.022,1.45l0.004-0.1   C0.05,1.321,0.349,1.327,0.349,1.327S0.187,1.097-0.009,1.11l0.029-0.718h0.191V0.172h0.188v-0.295h0.246v0.295h0.303v-0.295h0.154   V0.14h0.385v-0.263l0.42-0.435H3.2v0.386h0.033v-0.376l0.303-0.279h0.127C3.61-0.767,3.577-0.688,3.577-0.603   c0,0.189,0.152,0.341,0.34,0.341c0.043,0,0.082-0.009,0.121-0.023L4.034-0.284h1.021v-0.071H4.149   c0.066-0.063,0.107-0.15,0.107-0.247c0-0.086-0.033-0.164-0.086-0.225h1.152l0.295,1.086h0.127L5.399-0.827h0.137L5.323-1.613   H-5.142l-0.598,1.245h-0.004v0.627H-5.614z" fill="#FFFFFF"/>
  </g></svg>