<?xml version="1.0" standalone="no"?>
<svg xmlns="http://www.w3.org/2000/svg" viewBox="-6.37 -6.37 12.74 12.74" color="#212121" width="75" height="75"><g transform="matrix(1 0 0 -1 0 0)">
    <g xmlns="http://www.w3.org/2000/svg" id="Circle_134_">
      <path class="primary" fill="currentColor" d="M-0.001-6.245c-3.443,0-6.244,2.802-6.244,6.246c0,3.443,2.801,6.244,6.244,6.244    c3.444,0,6.246-2.801,6.246-6.244C6.245-3.443,3.443-6.245-0.001-6.245z"/>
      <path class="secondary" d="M-0.001,6.12c3.381,0,6.121-2.74,6.121-6.119c0-3.381-2.74-6.121-6.121-6.121    c-3.379,0-6.119,2.74-6.119,6.121C-6.12,3.38-3.38,6.12-0.001,6.12 M-0.001,6.37c-3.512,0-6.369-2.857-6.369-6.369    c0-3.513,2.857-6.371,6.369-6.371c3.513,0,6.371,2.858,6.371,6.371C6.37,3.513,3.512,6.37-0.001,6.37L-0.001,6.37z" fill="#FFFFFF"/>
    </g>
    <g xmlns="http://www.w3.org/2000/svg">
      <polygon class="secondary" points="0.293,-0.232 0.293,1.227 0.429,1.227 0.715,-0.326 0.237,-0.326   " fill="#FFFFFF"/>
      <polygon class="secondary" points="-5.852,0.271 -5.852,-0.549 -3.94,-0.818 -4.043,-0.869 -4.026,0.98 -3.917,0.98 -3.917,-0.821     -3.657,-0.858 -3.657,-1.213 -1.179,-1.213 -1.179,-0.953 -3.754,-0.749 -3.754,-0.668 -1.179,-0.83 -1.179,-0.273 -0.729,-0.273     -0.729,-1.24 -0.565,-1.24 -0.565,-0.007 -0.198,-0.232 1.301,-0.232 1.301,-0.89 1.71,-0.89 1.71,0.218 2.295,0.218     2.433,-0.396 2.759,-0.396 2.759,-0.546 2.909,-0.546 2.909,-0.273 3.794,-0.273 3.794,1.771 3.931,1.771 3.931,-0.273     4.284,-0.273 4.284,-0.858 5.497,-0.858 5.497,-0.94 5.253,-0.94 5.253,-1.104 5.975,-1.076 5.702,-1.771 -5.226,-1.771     -5.975,-0.53 -5.975,0.271   " fill="#FFFFFF"/>
    </g>
  </g></svg>