<?xml version="1.0" standalone="no"?>
<svg xmlns="http://www.w3.org/2000/svg" viewBox="-6.37 -6.37 12.74 12.74" color="#212121" width="75" height="75"><g transform="matrix(1 0 0 -1 0 0)">
    <g xmlns="http://www.w3.org/2000/svg">
      <circle class="primary" fill="currentColor" cx="0" cy="0" r="6.245"/>
      <path class="secondary" d="M0,6.12c3.38,0,6.12-2.74,6.12-6.12S3.38-6.12,0-6.12S-6.12-3.38-6.12,0S-3.38,6.12,0,6.12 M0,6.37    c-3.513,0-6.37-2.857-6.37-6.37S-3.513-6.37,0-6.37S6.37-3.513,6.37,0S3.513,6.37,0,6.37L0,6.37z" fill="#FFFFFF"/>
    </g>
    <path xmlns="http://www.w3.org/2000/svg" id="Cigarette_Boat_2_" class="secondary" d="M5.837,0.535c-3.062,0.368-6.47-0.004-6.47-0.004l-0.699,0.188   C-1.618,1.04-2.086,0.794-2.086,0.794s0.256-0.011-0.015,0c-0.215,0.01-0.391-0.098-0.453-0.143   c-0.025,0.041-0.068,0.067-0.115,0.067c-0.067,0-0.124-0.055-0.137-0.127l-0.255-0.046c0,0.006,0,0.012,0,0.019   c0,0.085-0.062,0.154-0.139,0.154s-0.138-0.069-0.138-0.154c0-0.023,0.004-0.044,0.012-0.064l-0.229-0.041l-0.086,0.036   l-0.747,0.018l-1.244-0.172l-0.26-0.325l0.123-0.573h0.129l0.087-0.115c0,0,5.627-0.289,7.646-0.188   c2.02,0.103,3.743,1.297,3.743,1.297C5.958,0.499,5.837,0.535,5.837,0.535z" fill="#FFFFFF"/>
  </g></svg>