<?xml version="1.0" standalone="no"?>
<svg xmlns="http://www.w3.org/2000/svg" viewBox="-6.37 -6.37 12.74 12.74" color="#212121" width="75" height="75"><g transform="matrix(1 0 0 -1 0 0)">
    <g xmlns="http://www.w3.org/2000/svg" id="Circle_105_">
      <path class="primary" fill="currentColor" d="M-0.001-6.245c-3.443,0-6.244,2.802-6.244,6.246c0,3.443,2.801,6.244,6.244,6.244    c3.444,0,6.246-2.801,6.246-6.244C6.245-3.443,3.443-6.245-0.001-6.245z"/>
      <path class="secondary" d="M-0.001,6.12c3.381,0,6.121-2.74,6.121-6.119c0-3.381-2.74-6.121-6.121-6.121    c-3.379,0-6.119,2.74-6.119,6.121C-6.12,3.38-3.38,6.12-0.001,6.12 M-0.001,6.37c-3.512,0-6.369-2.857-6.369-6.369    c0-3.513,2.857-6.371,6.369-6.371c3.513,0,6.371,2.858,6.371,6.371C6.37,3.513,3.512,6.37-0.001,6.37L-0.001,6.37z" fill="#FFFFFF"/>
    </g>
    <path xmlns="http://www.w3.org/2000/svg" class="secondary" d="M5.509-0.696v-0.899H-4.737l-0.771,0.772l0.172,0.172v0.239h0.105v-0.254l2.097-0.15   c0,0-0.016,0.404,0.21,0.404c0.225,0,0.419-0.045,0.419-0.389c0.181-0.03,0.181,0,0.181,0v0.449l0.217,0.217h0.247v0.247h0.09   v0.165H-1.98v0.21h0.404v-0.492h0.374v-0.362h0.135v0.779l-0.224,0.075v0.495h0.238l0.615,0.613V0.906L-0.61,0.735v-1.103h0.218   v0.195h0.44v-0.105H0.37l0.09-0.195v-0.254h0.12v0.284h0.645l0.479-0.209h0.165v0.179h0.569l0.015-0.089h0.194l0.016-0.12h1.062   v-0.21H4.07c0,0,0.075,0.315,0.314,0.315c0.24,0,0.255-0.12,0.255-0.12H5.509z" fill="#FFFFFF"/>
  </g></svg>