<?xml version="1.0" standalone="no"?>
<svg xmlns="http://www.w3.org/2000/svg" viewBox="-6.37 -6.37 12.74 12.74" color="#212121" width="75" height="75"><g transform="matrix(1 0 0 -1 0 0)">
    <g xmlns="http://www.w3.org/2000/svg">
      <path class="primary" fill="currentColor" d="M0-6.245c-3.444,0-6.245,2.802-6.245,6.246c0,3.443,2.802,6.244,6.245,6.244s6.245-2.801,6.245-6.244    C6.245-3.443,3.444-6.245,0-6.245z"/>
      <path class="secondary" d="M0,6.12c3.38,0,6.12-2.74,6.12-6.119C6.12-3.38,3.38-6.12,0-6.12s-6.12,2.74-6.12,6.121    C-6.12,3.38-3.38,6.12,0,6.12 M0,6.37c-3.513,0-6.37-2.857-6.37-6.369C-6.37-3.512-3.513-6.37,0-6.37s6.37,2.858,6.37,6.371    C6.37,3.513,3.513,6.37,0,6.37L0,6.37z" fill="#FFFFFF"/>
    </g>
    <g xmlns="http://www.w3.org/2000/svg">
      <path class="secondary" d="M-4.364,0.581h9.437c0.025,0,0.048,0.014,0.059,0.037c0.01,0.023,0.006,0.051-0.012,0.07l-0.019,0.02    l-0.06,0.064L4.869,0.958c-0.012,0.014-0.029,0.02-0.047,0.02h-8.937c-0.018,0-0.034-0.006-0.047-0.02l-0.25-0.27    c-0.017-0.02-0.021-0.047-0.011-0.07C-4.413,0.595-4.39,0.581-4.364,0.581z" fill="#FFFFFF"/>
      <rect x="3.515" y="-0.396" class="secondary" width="0.581" height="0.127" fill="#FFFFFF"/>
      <rect x="4.159" y="-0.528" class="secondary" width="0.128" height="1.045" fill="#FFFFFF"/>
      <rect x="4.683" y="-0.528" class="secondary" width="0.128" height="1.045" fill="#FFFFFF"/>
      <rect x="2.064" y="1.042" class="secondary" width="0.129" height="0.209" fill="#FFFFFF"/>
      <rect x="3.099" y="1.042" class="secondary" width="0.128" height="0.209" fill="#FFFFFF"/>
      <rect x="2.129" y="1.069" class="secondary" width="1.033" height="0.129" fill="#FFFFFF"/>
      <path class="secondary" d="M1.98,1.315h1.331c0.035,0,0.063,0.027,0.063,0.062c0,0.037-0.028,0.064-0.063,0.064H1.98    c-0.035,0-0.064-0.027-0.064-0.064C1.916,1.343,1.945,1.315,1.98,1.315z" fill="#FFFFFF"/>
      <rect x="-4.182" y="-0.528" class="secondary" width="0.127" height="1.045" fill="#FFFFFF"/>
      <rect x="3.322" y="-0.528" class="secondary" width="0.129" height="1.045" fill="#FFFFFF"/>
      <path class="secondary" d="M5.745-0.63C5.736-0.606,5.713-0.591,5.688-0.591H-5.689c-0.025,0-0.049-0.016-0.058-0.039    c-0.011-0.023-0.006-0.051,0.011-0.068l0.663-0.723c0.012-0.014,0.028-0.021,0.046-0.021H5.025c0.018,0,0.035,0.008,0.047,0.021    L5.17-1.313l0.117,0.127l0.447,0.488C5.752-0.681,5.756-0.653,5.745-0.63z" fill="#FFFFFF"/>
      <rect x="2.54" y="-0.528" class="secondary" width="0.127" height="1.045" fill="#FFFFFF"/>
      <polygon class="secondary" points="1.491,0.517 -3.412,0.517 -3.539,0.517 -3.539,-0.528 -3.412,-0.528 -3.412,-0.396 1.491,-0.396     1.491,-0.528 1.618,-0.528 1.618,0.517   " fill="#FFFFFF"/>
    </g>
  </g></svg>