<?xml version="1.0" standalone="no"?>
<svg xmlns="http://www.w3.org/2000/svg" viewBox="-6.37 -6.37 12.74 12.74" color="#212121" width="75" height="75"><g transform="matrix(1 0 0 -1 0 0)">
    <g xmlns="http://www.w3.org/2000/svg">
      <circle class="primary" fill="currentColor" cx="0" cy="0" r="6.245"/>
      <path class="secondary" d="M0,6.12c3.38,0,6.12-2.74,6.12-6.12S3.38-6.12,0-6.12S-6.12-3.38-6.12,0S-3.38,6.12,0,6.12 M0,6.37    c-3.513,0-6.37-2.857-6.37-6.37S-3.513-6.37,0-6.37S6.37-3.513,6.37,0S3.513,6.37,0,6.37L0,6.37z" fill="#FFFFFF"/>
    </g>
    <g xmlns="http://www.w3.org/2000/svg" id="Container_Ship_2_">
      <path class="secondary" d="M0.926-1.607H0.823v-0.055c0.035,0,0.069,0.002,0.103,0.002V-1.607z" fill="#FFFFFF"/>
      <path class="secondary" d="M4.311-1.607H3.768v-0.018c0.202,0.004,0.386,0.008,0.543,0.01V-1.607z" fill="#FFFFFF"/>
      <path class="secondary" d="M1.906-1.607h-0.1v-0.045c0.034,0,0.067,0,0.101,0L1.906-1.607L1.906-1.607z" fill="#FFFFFF"/>
      <rect x="3.768" y="-1.6" class="secondary" width="0.543" height="0.053" fill="#FFFFFF"/>
      <polygon class="secondary" points="4.993,-0.997 4.474,-0.92 4.436,-0.973 4.438,-0.974 4.867,-1.221 4.867,-1.203 4.928,-1.203   " fill="#FFFFFF"/>
      <path class="secondary" d="M4.434-0.982c-0.001,0-0.001,0.002-0.003,0.002H4.43C4.44-0.988,4.446-1,4.446-1.014    c0-0.023-0.02-0.044-0.043-0.044c-0.014,0-0.027,0.008-0.034,0.019c0.002-0.01,0.011-0.018,0.02-0.021l0.436-0.252    C4.83-1.317,4.84-1.319,4.847-1.319c0.009,0,0.014,0.002,0.021,0.006v0.081L4.434-0.982z" fill="#FFFFFF"/>
      <path class="secondary" d="M2.889-1.607H2.787V-1.64c0.034,0.001,0.067,0.001,0.102,0.001V-1.607z" fill="#FFFFFF"/>
      <path class="secondary" d="M-2.019-1.607H-2.12v-0.059c0.033,0,0.066,0,0.101,0C-2.019-1.666-2.019-1.607-2.019-1.607z" fill="#FFFFFF"/>
      <path class="secondary" d="M-0.055-1.607h-0.103v-0.062c0.034,0,0.067,0,0.103,0.002C-0.055-1.667-0.055-1.607-0.055-1.607z" fill="#FFFFFF"/>
      <path class="secondary" d="M-1.036-1.607h-0.103V-1.67c0.035,0,0.068,0,0.103,0V-1.607z" fill="#FFFFFF"/>
      <path class="secondary" d="M-3.186-1.653C-3.125-1.654-3.062-1.656-3-1.657v0.05h-0.193L-3.186-1.653z" fill="#FFFFFF"/>
      <rect x="-2.119" y="-1.6" class="secondary" width="0.101" height="0.053" fill="#FFFFFF"/>
      <polygon class="secondary" points="-4.474,-1.387 -4.681,-1.384 -4.681,-1.436 -4.49,-1.436   " fill="#FFFFFF"/>
      <polygon class="secondary" points="-4.459,-1.346 -4.681,-1.346 -4.681,-1.376 -4.47,-1.379   " fill="#FFFFFF"/>
      <path class="secondary" d="M-4.734-1.574l-0.878,0.049v-0.033c0.063,0.008,0.123,0,0.123,0c0.212-0.019,0.464-0.035,0.752-0.049    L-4.734-1.574z" fill="#FFFFFF"/>
      <polygon class="secondary" points="-4.729,-1.514 -5.612,-1.467 -5.612,-1.517 -4.733,-1.566   " fill="#FFFFFF"/>
      <rect x="2.787" y="-1.6" class="secondary" width="0.102" height="0.053" fill="#FFFFFF"/>
      <rect x="-3.197" y="-1.6" class="secondary" width="0.197" height="0.053" fill="#FFFFFF"/>
      <rect x="1.806" y="-1.6" class="secondary" width="0.101" height="0.053" fill="#FFFFFF"/>
      <rect x="0.823" y="-1.6" class="secondary" width="0.103" height="0.053" fill="#FFFFFF"/>
      <rect x="-1.139" y="-1.6" class="secondary" width="0.103" height="0.053" fill="#FFFFFF"/>
      <rect x="-0.157" y="-1.6" class="secondary" width="0.103" height="0.053" fill="#FFFFFF"/>
      <path class="secondary" d="M5.297-1.35c0,0,0.02-0.134-0.154-0.211v0.058H5.069v0.129h0.073v0.055h-0.08v0.04h0.054v0.056H5.04v0.367    H4.993l-0.01-0.081L4.446-0.856l-0.02-0.037l0.021-0.021L4.413-0.967H4.412c-0.021,0-0.039-0.011-0.049-0.027    c-0.008-0.013-0.01-0.027-0.006-0.042C4.361-1.05,4.371-1.061,4.383-1.069L4.819-1.32c0.008-0.006,0.018-0.009,0.027-0.009    c0.007,0,0.014,0.003,0.021,0.006V-1.35l0.046-0.045v-0.102H4.824c0,0,0.019,0.079,0,0.079s-0.464,0-0.464,0v-0.079H4.31v-0.041    H3.768v0.214H2.889v-0.214H2.787v0.214H1.906v-0.214h-0.1v0.214h-0.88v-0.214H0.823v0.214h-0.878v-0.214h-0.103v0.214h-0.879    v-0.214H-1.14v0.214h-0.88v-0.214h-0.101v0.214H-3v-0.214h-0.201L-3.274-0.94h-0.384v-0.067h-0.061L-3.727-0.6h0.086v0.136h-0.086    v0.042h0.062v0.029h-0.049v0.216l0.127,0.006v0.048h-0.298v-0.061h0.115v-0.214h-0.129v0.486h-0.009v-0.486h-0.026l0.129-0.073    L-3.848-1.18L-3.94-0.843l-0.071-0.011l-0.01,0.057l-0.048-0.008l0.01-0.059l-0.122-0.021L-4.189-0.83l-0.048-0.008l0.01-0.053    l-0.079-0.013l-0.148-0.433h-0.234v-0.1h-0.033l-0.005-0.068L-5.62-1.459V-1.56h0.004c-0.083-0.01-0.169-0.047-0.137-0.159    l0.138-0.37H5.367L5.759-1.35H5.297z M-2.119-1.607h0.101v-0.059c-0.034,0-0.067,0-0.101,0V-1.607z M-3-1.657    c-0.062,0.001-0.125,0.003-0.186,0.004l-0.008,0.046H-3V-1.657z M-1.139-1.607h0.103V-1.67c-0.034,0-0.067,0-0.103,0V-1.607z     M-0.157-1.607h0.103v-0.06C-0.09-1.669-0.123-1.669-0.157-1.669V-1.607z M0.823-1.607h0.103V-1.66    c-0.033,0-0.067-0.002-0.103-0.002V-1.607z M1.806-1.607h0.101v-0.045c-0.033,0-0.066,0-0.101,0V-1.607z M2.787-1.607h0.102    v-0.031c-0.034,0-0.067,0-0.102-0.001V-1.607z M3.768-1.607h0.543v-0.008C4.153-1.617,3.97-1.621,3.768-1.625V-1.607z     M4.847-1.319c-0.007,0-0.017,0.002-0.022,0.007L4.389-1.061C4.38-1.057,4.371-1.049,4.369-1.039    C4.376-1.05,4.39-1.058,4.403-1.058c0.023,0,0.043,0.021,0.043,0.044C4.446-1,4.44-0.988,4.43-0.98h0.001    c0.002,0,0.002-0.002,0.003-0.002l0.434-0.25v-0.081C4.86-1.317,4.855-1.319,4.847-1.319z M4.867-1.203v-0.018l-0.43,0.247    c0,0.001,0,0.001-0.002,0.001L4.474-0.92l0.52-0.077L4.928-1.203H4.867z M4.311-1.547V-1.6H3.768v0.053H4.311z M2.889-1.547V-1.6    H2.787v0.053H2.889z M1.906-1.547V-1.6h-0.1v0.053H1.906z M0.926-1.547V-1.6H0.823v0.053H0.926z M-0.055-1.547V-1.6h-0.103v0.053    H-0.055z M-1.036-1.547V-1.6h-0.103v0.053H-1.036z M-2.019-1.547V-1.6H-2.12v0.053H-2.019z M-3-1.547V-1.6h-0.194l-0.005,0.053H-3    z M-4.681-1.346h0.222L-4.47-1.379l-0.211,0.003C-4.681-1.376-4.681-1.346-4.681-1.346z M-4.681-1.384l0.207-0.003L-4.49-1.436    h-0.19v0.052H-4.681z M-5.612-1.467l0.883-0.047l-0.004-0.053l-0.879,0.05C-5.612-1.517-5.612-1.467-5.612-1.467z M-5.612-1.559    v0.033l0.878-0.049l-0.003-0.033c-0.288,0.014-0.54,0.03-0.752,0.049C-5.489-1.559-5.549-1.551-5.612-1.559z" fill="#FFFFFF"/>
    </g>
  </g></svg>