<?xml version="1.0" standalone="no"?>
<svg xmlns="http://www.w3.org/2000/svg" viewBox="-6.37 -6.37 12.74 12.74" color="#212121" width="75" height="75"><g transform="matrix(1 0 0 -1 0 0)">
    <g xmlns="http://www.w3.org/2000/svg">
      <path class="primary" fill="currentColor" d="M0.001-6.245c-3.444,0-6.246,2.802-6.246,6.245s2.802,6.245,6.246,6.245c3.443,0,6.244-2.802,6.244-6.245    S3.444-6.245,0.001-6.245z"/>
      <path class="secondary" d="M0.001,6.12C3.38,6.12,6.12,3.38,6.12,0S3.38-6.12,0.001-6.12C-3.38-6.12-6.12-3.38-6.12,0    S-3.38,6.12,0.001,6.12 M0.001,6.37C-3.512,6.37-6.37,3.513-6.37,0s2.858-6.37,6.371-6.37C3.513-6.37,6.37-3.513,6.37,0    S3.513,6.37,0.001,6.37L0.001,6.37z" fill="#FFFFFF"/>
    </g>
    <path xmlns="http://www.w3.org/2000/svg" id="Cruisers_2_" class="secondary" d="M5.742-0.898c-0.059-0.074-0.146-0.192-0.261-0.35c-0.007-0.02-0.007-0.034,0.004-0.046   c-0.004,0-0.008,0-0.011,0C5.46-1.311,5.441-1.334,5.414-1.361c-0.009,0-0.017-0.004-0.029-0.014   C5.374-1.382,5.351-1.414,5.315-1.467C5.298-1.489,5.254-1.554,5.185-1.66c0-0.003,0-0.007,0-0.014   C5.183-1.676,5.177-1.679,5.17-1.681H-5.553C-5.555-1.679-5.558-1.676-5.56-1.674c-0.029,0.104-0.073,0.243-0.128,0.418   C-5.704-1.205-5.724-1.14-5.74-1.059c0.002,0.006,0.007,0.013,0.011,0.022v-0.013h0.103c0.003,0.004,0.007,0.013,0.011,0.02   c0.002-0.005,0.004-0.01,0.006-0.014c0.003-0.005,0.036-0.006,0.096-0.006c0.002,0.004,0.004,0.013,0.004,0.02   c0.004-0.003,0.011-0.003,0.015,0v-0.02h0.099c0.004,0.011,0.011,0.017,0.015,0.02v-0.02h0.097   c0.007,0.011,0.011,0.017,0.015,0.017v-0.017h0.107c0,0.004,0.002,0.011,0.011,0.017c0.002-0.006,0.004-0.013,0.004-0.017   c0.009,0,0.025,0,0.047,0c0.021,0,0.037,0,0.05,0c0.005,0.004,0.005,0.013,0.005,0.02c0.004-0.007,0.017-0.017,0.033-0.024h0.076   c0.002,0,0.006,0.007,0.01,0.021c-0.002-0.006-0.002-0.014,0-0.021c0.005,0.008,0.007,0.016,0.007,0.021   c0-0.003,0-0.011,0.007-0.021h0.096c0.003,0.008,0.005,0.016,0.005,0.021c0-0.003,0.004-0.003,0.011,0v-0.021h0.099   c0.002,0.005,0.006,0.015,0.009,0.024c0-0.005,0-0.009,0.002-0.012C-4.69-1.038-4.69-1.035-4.69-1.032v-0.021h0.105   c0.002,0.008,0.004,0.016,0.004,0.021c0-0.003,0.002-0.009,0.004-0.017c0.002,0.002,0.002,0.008,0.002,0.017   c0-0.009,0.005-0.017,0.009-0.021h0.095c0.002,0.005,0.004,0.013,0.004,0.021c0.002-0.003,0.007-0.003,0.011,0v-0.021h0.104   c0.002,0.005,0.002,0.013,0.002,0.021c0-0.003,0.002-0.009,0.004-0.017c0.002,0.002,0.004,0.008,0.004,0.017v-0.021h0.105   c0.002,0.008,0.002,0.016,0.002,0.021c0-0.003,0.003-0.009,0.005-0.017c0.004,0.002,0.006,0.004,0.006,0.008l0.002-0.005   c0.038-0.011,0.072-0.011,0.102,0c0.002,0,0.006,0,0.012,0v0.017v-0.02h0.105C-4.003-1.045-4-1.038-4-1.032   c-0.005-0.003-0.003-0.009,0.002-0.017c0.004,0.002,0.004,0.008,0.004,0.017v-0.014c0.007-0.003,0.038-0.003,0.095,0   c-0.004,0-0.004,0-0.009,0v0.017c0.011,0.004,0.021,0.004,0.03,0v-0.02h0.103c0.002,0.004,0.004,0.011,0.004,0.017   c0-0.003,0-0.009,0.005-0.017c0.002,0.004,0.002,0.013,0.002,0.02c0.002-0.005,0.004-0.012,0.004-0.02h0.017   c0.003,0.008,0,0.015-0.006,0.02c0.009,0.006,0.015,0.01,0.019,0.01c-0.002-0.006-0.002-0.016-0.002-0.029h0.021   c0,0.004,0.004,0.017,0.008,0.032c0.005-0.003,0.009-0.005,0.013-0.008l-0.008-0.008v-0.014l0.008-0.003   c0.002,0.004,0.002,0.011,0.002,0.017c0.007-0.003,0.009-0.007,0.009-0.014l0.023-0.003c0.002,0.004,0.002,0.01,0.002,0.013   c0-0.007,0.002-0.011,0.004-0.013c0,0.002,0.002,0.004,0.004,0.008c-0.002-0.006-0.002-0.008,0.005-0.008h0.015   c0.002,0.002,0.002,0.01,0.002,0.02c0.004,0,0.009,0.003,0.017,0.005c0.002,0.018,0.009,0.052,0.02,0.104   c0.015-0.002,0.022,0,0.024,0.006c0.013,0.051,0.03,0.147,0.049,0.29c0,0.002,0,0.007-0.002,0.013   c0.004,0.009,0.011,0.02,0.019,0.033c0.005,0.031,0.009,0.076,0.015,0.135c0.002,0.007,0.005,0.013,0.011,0.021   c0.007,0.023,0.011,0.056,0.015,0.101c0.011-0.002,0.02-0.002,0.023,0v0.014c-0.023,0.001-0.047,0.001-0.071,0   c0,0.001-0.003,0.01-0.003,0.021c0.007,0.003,0.062,0.004,0.16,0.004c0-0.011,0.002-0.02,0.004-0.024h-0.075v-0.018   c0.007-0.003,0.013-0.003,0.019,0l0.032-0.189h0.059c0.004,0.021,0.009,0.043,0.011,0.071v0.859h0.013v-0.854   c0.004-0.003,0.011-0.005,0.017-0.005c0.002-0.059,0.002-0.08,0.002-0.066c0.007-0.004,0.015-0.005,0.027-0.005   c0.023,0.003,0.057,0.007,0.095,0.013c0.004,0.022,0.007,0.051,0.013,0.083l0.004,0.865h0.009v-0.885   c0.004-0.026,0.006-0.049,0.006-0.071c0.005-0.004,0.051-0.005,0.135-0.005v0.005v0.042c-0.002,0.003-0.006,0.006-0.013,0.013   v0.097h0.078c-0.006-0.018-0.006-0.051,0-0.102c-0.009,0-0.015-0.003-0.019-0.008V-0.51h0.191c0,0.019,0.004,0.038,0.015,0.059   c0,0.003-0.004,0.008-0.011,0.017c0.002,0.007,0.007,0.013,0.011,0.021l0.008-0.006C-2.72-0.416-2.717-0.41-2.717-0.405   c0-0.003,0.004-0.005,0.011-0.008c0.002,0.003,0.004,0.004,0.004,0.006c0,0.002,0.002,0.002,0.008,0.002   c0.005,0,0.007-0.003,0.007-0.008c0,0.003,0,0.005,0,0.008l-0.191,0.797c0.002,0,0.006-0.004,0.011-0.01   C-2.86,0.35-2.85,0.303-2.835,0.244c0.057-0.229,0.113-0.453,0.175-0.679c0.002-0.002,0.006-0.009,0.015-0.017l0.006,0.021h0.02   c0.004-0.015,0.006-0.034,0.008-0.062c0.007,0.014,0.009,0.028,0.011,0.042c0.009,0.056,0.017,0.116,0.027,0.181   c0,0.005-0.006,0.017-0.019,0.034c-0.031,0.039-0.065,0.082-0.1,0.126v0.026h0.344l0.042,0.27h-0.005h-0.057   c0,0.003,0-0.03,0-0.098c-0.004,0.003-0.01,0.005-0.015,0.005v0.189h0.011c0.004-0.009,0.004-0.035,0-0.077h0.069l0.011,0.042   c-0.013,0.01-0.027,0.014-0.047,0.014l-0.002,0.042v0.021h0.015c0-0.013,0-0.03,0-0.05c0.005,0,0.011,0,0.02,0   c0.015,0,0.022,0.008,0.022,0.02C-2.29,0.312-2.296,0.338-2.303,0.374c-0.004,0-0.009,0.001-0.017,0.005   c-0.021,0.042-0.034,0.069-0.036,0.084c0.009,0.03,0.027,0.068,0.057,0.112c0.003,0.005,0.015,0.019,0.04,0.043   c0,0.014-0.004,0.028-0.01,0.042c0.006,0.009,0.017,0.019,0.029,0.025h0.401l0.076-0.29c-0.009-0.014-0.02-0.021-0.025-0.021   h-0.233c0-0.002,0-0.007,0-0.013C-2.013,0.309-2,0.257-1.98,0.205h0.059v0.077V0.273V0.088c-0.007,0.033-0.009,0.066-0.004,0.098   h-0.06V0.177c0.029-0.127,0.063-0.296,0.104-0.506c0.006,0,0.008,0.002,0.008,0.008c0.009,0,0.018,0.001,0.018,0.005l0.055-0.248   C-1.809-0.576-1.809-0.585-1.806-0.59c-0.009-0.004-0.014-0.004-0.016,0l-0.004-0.005v-0.017c0.002-0.003,0.009-0.007,0.02-0.013   c0.004-0.022,0.01-0.055,0.019-0.094h0.006c0.005,0.049,0.009,0.086,0.013,0.11c0.009-0.006,0.021-0.008,0.034-0.008   c0-0.072,0.002-0.105,0.004-0.097c0.002,0,0.009,0,0.019,0c0.005,0.017,0.009,0.04,0.016,0.071c0.004-0.003,0.015-0.006,0.029-0.01   c0.006,0,0.008,0.004,0.01,0.01c0.009,0.025,0.013,0.044,0.013,0.059c0,0.006-0.002,0.01-0.004,0.011   C-1.65-0.57-1.652-0.564-1.657-0.557c-0.006-0.003-0.01-0.007-0.01-0.013c-0.005,0-0.011,0.002-0.02,0.009   c0.005,0.027,0.015,0.069,0.029,0.126c0.005-0.002,0.009-0.005,0.021-0.009c0.006,0,0.015,0.013,0.025,0.038h0.166   C-1.442-0.403-1.44-0.398-1.44-0.393c0,0.045-0.04,0.203-0.115,0.472c-0.031,0.138-0.065,0.265-0.097,0.384v0.017   c0.004-0.003,0.011-0.006,0.017-0.013l0.202-0.792c0.002-0.003,0.006-0.01,0.011-0.021C-1.417-0.356-1.411-0.379-1.4-0.409   c0.011,0.005,0.015,0.036,0.015,0.093c0.023,0.006,0.045,0.006,0.063,0l-0.04,0.426v0.24c0,0.017-0.011,0.03-0.029,0.042   c0.027-0.02,0.055-0.039,0.086-0.06c0.002,0.002,0.004,0.006,0.004,0.007c0,0,0.003,0.002,0.005,0.002h0.006   c0.002,0.005,0.007,0.01,0.011,0.013c0.017,0.005,0.033,0.013,0.053,0.021c0.008,0,0.015-0.002,0.021-0.004   c-0.005,0.005-0.007,0.017-0.009,0.034L-1.2,0.459h-0.063C-1.268,0.45-1.27,0.442-1.27,0.438c0,0.005,0,0.013-0.002,0.021   c0-0.009-0.005-0.019-0.011-0.03c0.002,0.02,0.004,0.045,0.006,0.072c0.007-0.014,0.011-0.024,0.007-0.03c0.013,0,0.022,0,0.04,0   c0.031,0,0.048,0.019,0.048,0.055c-0.002,0.009-0.006,0.032-0.013,0.068H-1.27c0.004-0.006,0-0.017-0.011-0.03v0.081   c0-0.006,0.004-0.017,0.011-0.034h0.088c0,0.024-0.004,0.065-0.013,0.122H-1.27c0-0.009-0.002-0.019-0.011-0.029   c0,0.02,0.004,0.045,0.011,0.076c0-0.013,0.002-0.023,0.006-0.033h0.082v0.299l-0.008,0.004h-0.021   C-1.213,1.037-1.215,1.027-1.215,1.02v0.029c0.009,0.002,0.017,0.003,0.029,0.003v0.056h0.015v0.004v0.034l-0.006,0.004   c-0.005,0-0.007-0.002-0.009-0.004c0,0.039,0,0.057,0,0.055c0.002,0.006,0.007,0.016,0.011,0.029V1.36   c0.004-0.009,0.004-0.06,0.004-0.151c0.004-0.003,0.013-0.003,0.027,0c0-0.003-0.006-0.008-0.019-0.013V1.149   c0-0.002,0.006-0.004,0.019-0.004c0.002-0.009,0.006-0.021,0.011-0.038c-0.011,0-0.019-0.001-0.029-0.005V1.052h0.024   c0.005,0.013,0.005,0.023,0.005,0.035V1.02c0,0.008,0,0.018-0.005,0.029l-0.024-0.004V0.998c0.008,0,0.019-0.002,0.033-0.004   c-0.009-0.007-0.017-0.009-0.029-0.009l-0.004-0.088c0.008-0.003,0.019-0.007,0.033-0.01h-0.029V0.746h0.069   c0,0.007,0.004,0.021,0.013,0.036V0.698c0,0.01-0.004,0.021-0.013,0.034h-0.073c0.002-0.014,0.002-0.054,0-0.118h0.073   c0,0.009,0.004,0.018,0.013,0.03V0.56C-1.08,0.568-1.083,0.58-1.089,0.594h-0.073c0-0.043,0-0.085,0-0.127h0.073   c0.004,0.008,0.009,0.022,0.013,0.042c0.002-0.014,0.002-0.029,0-0.046C-1.08,0.465-1.074,0.468-1.053,0.471   c0.008-0.003,0.019-0.008,0.024-0.017V0.387h-0.01l-0.004-0.008c0.002-0.004,0.008-0.004,0.014,0   c0.005-0.007,0.005-0.012,0.005-0.018c0-0.005-0.023-0.021-0.067-0.046c0.023-0.306,0.053-0.618,0.09-0.935   C-0.996-0.64-0.992-0.67-0.99-0.712c0.005-0.003,0.04-0.006,0.105-0.006c0,0.004,0,0.01,0,0.018   c0.007,0.003,0.038,0.005,0.099,0.005c0.007,0.002,0.011,0.008,0.011,0.013c0.002-0.005,0.009-0.013,0.017-0.021   c0.009-0.008,0.021-0.014,0.032-0.014c0.073,0,0.117,0,0.132,0C-0.593-0.711-0.59-0.704-0.59-0.695   c0.019-0.003,0.042-0.003,0.062,0C-0.521-0.656-0.521-0.624-0.522-0.6c0.015,0.006,0.017,0.018,0.008,0.033   c0,0.007-0.002,0.017-0.006,0.031c0.01,0.008,0.01,0.018,0.006,0.028c-0.004,0.003-0.004,0.005,0,0.005   c0.004,0.004,0.007,0.008,0.004,0.008c-0.006,0.017-0.008,0.029-0.004,0.039c0.004,0.005,0.009,0.014,0.011,0.024l-0.144,0.607   c0.003,0,0.007-0.004,0.011-0.009l0.025-0.11c0.029-0.109,0.067-0.27,0.118-0.479c0.008-0.003,0.019-0.009,0.031-0.017   c0.002-0.003,0.006-0.013,0.015-0.029c0.009,0.024,0.015,0.073,0.025,0.146c0.009-0.002,0.015-0.001,0.019,0.005   c0.007,0.033,0.013,0.071,0.02,0.113v0.021l-0.12,0.046v0.034c0.002,0.02,0.009,0.049,0.019,0.089   c0.007,0.024,0.025,0.037,0.053,0.037c0.004,0,0.021-0.042,0.049-0.126h0.543l0.066-0.291c0.003,0,0.009-0.002,0.016-0.004   c0.01,0.002,0.021,0.006,0.029,0.011c0.008,0.003,0.017,0.007,0.027,0.01c0.002,0,0.006-0.004,0.013-0.013   c0.011-0.006,0.027-0.01,0.044-0.017c0.004,0.002,0.011,0.009,0.017,0.017C0.378-0.38,0.382-0.363,0.382-0.338L0.373-0.312H0.365   C0.362-0.315,0.362-0.32,0.362-0.325c-0.006,0-0.012,0.002-0.019,0.004C0.351-0.29,0.36-0.246,0.373-0.189   c0-0.004,0.005-0.006,0.011-0.01h0.023C0.411-0.188,0.415-0.178,0.415-0.17c0.011-0.003,0.027,0.004,0.049,0.018   C0.466-0.158,0.468-0.163,0.47-0.17h0.396C0.863-0.163,0.863-0.156,0.863-0.148C0.865-0.12,0.87-0.096,0.878-0.077   c0.013,0.052,0.025,0.123,0.038,0.216h-0.17C0.743,0.141,0.739,0.147,0.735,0.155l0.011,0.054h-0.02v-0.07   c0.005,0.021,0,0.044-0.011,0.068c0,0.002,0.007,0.016,0.02,0.037c0.002-0.013,0.002-0.017,0.002-0.017   c-0.002-0.004,0-0.005,0.004-0.005h0.087C0.83,0.225,0.832,0.231,0.832,0.24c0-0.004,0.004-0.009,0.013-0.018h0.082l0.09,0.557   c-0.01,0.011-0.027,0.026-0.05,0.047c0.011,0.003,0.027,0.006,0.046,0.011L1.002,0.868c0,0.01,0.011,0.026,0.034,0.046   C1.034,0.916,1.027,0.92,1.021,0.927v0.017C1.025,0.945,1.032,0.951,1.038,0.96s0.011,0.021,0.013,0.038V1.01   C1.042,1.013,1.029,1.015,1.017,1.015C1.049,1.062,1.062,1.087,1.06,1.087c0.002,0,0.002-0.003,0.002-0.005   c0.004,0.009,0.008,0.036,0.017,0.084c0.006,0,0.019,0.004,0.036,0.009c0,0.002-0.002,0.005-0.007,0.009   c-0.042,0-0.099,0.003-0.17,0.013c0,0.008,0.002,0.014,0.004,0.017h0.166c0,0.005-0.002,0.013-0.004,0.021   C1.102,1.242,1.097,1.255,1.093,1.271C1.055,1.328,1.036,1.378,1.036,1.423c0,0.071,0.025,0.129,0.076,0.174   c-0.023,0.014-0.058,0.032-0.1,0.059v0.008h0.013l0.097-0.055c0.013,0.005,0.031,0.015,0.053,0.025   c0.011,0,0.025,0.003,0.044,0.009c0,0.008,0.005,0.021,0.009,0.038c0.004-0.008,0.004-0.02,0.004-0.034   C1.244,1.645,1.261,1.64,1.284,1.634c0.013-0.008,0.027-0.017,0.051-0.025c0.023,0.015,0.061,0.034,0.107,0.06   c0-0.006,0-0.01,0-0.013c-0.02-0.011-0.051-0.031-0.095-0.059c0.048-0.045,0.073-0.103,0.073-0.168   c0-0.035-0.008-0.069-0.023-0.106C1.39,1.308,1.379,1.288,1.362,1.264C1.36,1.258,1.36,1.247,1.36,1.233   C1.354,1.23,1.352,1.224,1.348,1.209c0.006,0,0.05,0.001,0.137,0.004V1.187H1.348L1.346,1.175h0.052   C1.4,1.157,1.406,1.129,1.415,1.087c0.004,0,0.008,0,0.017,0c0.004-0.018,0.013-0.041,0.025-0.072H1.428   c-0.003-0.003,0-0.021,0.004-0.059C1.436,0.953,1.442,0.95,1.448,0.947V0.927C1.444,0.924,1.44,0.92,1.438,0.917   c0-0.002,0.007-0.006,0.018-0.013c0.021-0.019,0.022-0.036,0.002-0.054c0.011-0.003,0.027-0.009,0.055-0.021   C1.478,0.787,1.459,0.769,1.457,0.774l0.048-0.328h0.013c0,0.03,0.002,0.049,0.005,0.055c0.004-0.003,0.006-0.008,0.006-0.013   C1.526,0.475,1.53,0.46,1.541,0.446V0.434C1.537,0.432,1.526,0.426,1.505,0.421l0.023-0.145c0.021-0.002,0.038-0.002,0.049,0   L1.574,0.282c0.003,0.011,0.003,0.024,0.003,0.041h0.012C1.587,0.311,1.592,0.291,1.6,0.27V0.257   C1.585,0.254,1.564,0.249,1.532,0.244V0.215h0.12c0.004,0.003,0.004,0.005,0,0.008c0.004,0,0.009-0.001,0.017-0.004   c0.002,0.016,0.002,0.032,0,0.045c0-0.003,0-0.004,0.002-0.007c0.003,0,0.009,0.003,0.011,0.007c0-0.007,0-0.019-0.002-0.032   c0.004-0.003,0.007-0.007,0.009-0.011c0.002-0.004,0.004-0.006,0.01-0.006c0.025,0.003,0.058,0.004,0.1,0.004   C1.793,0.222,1.796,0.236,1.8,0.264c0.002-0.017,0.004-0.034,0.004-0.051C1.802,0.209,1.796,0.208,1.785,0.208   C1.778,0.193,1.774,0.17,1.771,0.139H1.552c0.002-0.051,0.015-0.131,0.033-0.245h0.086c0.007,0.01,0.009,0.021,0.011,0.034   C1.676-0.069,1.663-0.067,1.646-0.067L1.642-0.061C1.648-0.057,1.68-0.055,1.729-0.055c0.006-0.003,0.013-0.008,0.013-0.013   c-0.023,0-0.04-0.002-0.051-0.005C1.692-0.081,1.698-0.094,1.709-0.11v-0.013c-0.022-0.006-0.062-0.015-0.12-0.029   c0.007-0.057,0.02-0.113,0.03-0.169c0.002,0,0.004,0.001,0.004,0.005C1.621-0.32,1.621-0.321,1.627-0.321H1.68   c0,0.006,0,0.015,0,0.03c0.007,0,0.015,0,0.023,0c0.002,0.014,0.008,0.033,0.019,0.06c0.009,0.016,0.027,0.022,0.053,0.02   c0.061,0,0.08-0.033,0.053-0.101l0.002-0.004h0.038c0.009,0.045,0.015,0.067,0.019,0.067h0.027v-0.067   C1.92-0.32,1.928-0.321,1.937-0.321v-0.013c0-0.008-0.004-0.022-0.013-0.042c0-0.005,0.002-0.01,0.004-0.013   C1.926-0.403,1.917-0.426,1.903-0.46v-0.013h0.068c0.007-0.039,0.011-0.073,0.014-0.101L1.898-0.586   c-0.002,0-0.004-0.004-0.004-0.009c0-0.011,0.004-0.029,0.011-0.056c0.008-0.023,0.012-0.044,0.012-0.058   C1.92-0.736,1.926-0.79,1.938-0.868c0-0.006,0.004-0.011,0.013-0.014c0-0.017,0-0.038,0.004-0.065   c0.005-0.025,0.013-0.06,0.03-0.102h0.201l0.009,0.008C2.191-1.035,2.187-1.025,2.181-1.012c0.002,0.015,0.008,0.021,0.019,0.021   c0.017-0.002,0.027-0.012,0.029-0.025c-0.002-0.005-0.006-0.013-0.015-0.02l0.009-0.01l0.055,0.005   C2.273-1.035,2.267-1.025,2.259-1.012C2.265-0.997,2.273-0.99,2.281-0.986C2.301-0.993,2.309-1,2.313-1.012   C2.309-1.018,2.305-1.026,2.296-1.041c0.018-0.004,0.04-0.005,0.072-0.005c0.059,0,0.086,0.005,0.084,0.014   c0.004,0.055,0.015,0.119,0.033,0.189h0.772C3.272-0.928,3.28-0.983,3.28-1.012l0.304,0.005C3.59-1.005,3.59-1.003,3.588-0.999   C3.606-1.003,3.664-1,3.765-0.994l0.004,0.008C3.765-0.983,3.765-0.979,3.765-0.973H3.75c0.015,0,0.025-0.003,0.029-0.005   c0.009,0.005,0.013,0.011,0.013,0.016C3.79-0.95,3.788-0.942,3.788-0.94c0.002,0.003,0.006,0.007,0.01,0.009   C3.796-0.929,3.792-0.928,3.783-0.928c-0.008,0-0.015-0.006-0.015-0.016C3.759-0.941,3.741-0.94,3.716-0.94   c0.009,0-0.004-0.018-0.033-0.054c-0.002,0.03-0.002,0.053,0,0.066h0.004c0,0.008-0.002,0.019-0.004,0.029   C3.681-0.901,3.679-0.904,3.679-0.911C3.674-0.889,3.67-0.868,3.668-0.852c0.009,0.014,0.009,0.027,0,0.038   C3.664-0.819,3.664-0.824,3.664-0.826c0,0.011-0.003,0.031-0.009,0.06c0-0.003,0.002-0.007,0.004-0.01   C3.664-0.77,3.67-0.758,3.677-0.737c-0.007,0.005-0.009,0.005-0.009,0c0.04,0.072,0.063,0.11,0.071,0.113   c-0.004-0.015-0.004-0.02,0-0.017c0.082,0.002,0.126,0.005,0.133,0.009C3.876-0.639,3.88-0.643,3.883-0.645   c0.002-0.005,0.008-0.007,0.019-0.009C3.933-0.67,3.96-0.686,3.979-0.7c0.015-0.028,0.025-0.042,0.027-0.042l0.372,0.068   l0.004,0.008C4.386-0.674,4.388-0.685,4.39-0.695C4.35-0.701,4.299-0.711,4.235-0.725c-0.01-0.004-0.024-0.008-0.041-0.013H4.189   c0,0.002-0.002,0.004-0.006,0.004c-0.023,0-0.078-0.015-0.171-0.043v-0.013C4.017-0.8,4.021-0.816,4.032-0.838   c0.006-0.007,0.015-0.017,0.027-0.03c-0.009-0.009-0.011-0.028-0.005-0.06c-0.035,0-0.061-0.001-0.077-0.004   c0.002-0.002,0.006-0.004,0.01-0.004c0-0.006-0.002-0.012-0.008-0.018c0.004-0.003,0.006-0.004,0.006-0.004l0.322,0.105   C4.304-0.868,4.284-0.909,4.255-0.973v-0.005L5.742-0.898z M3.668-0.978L3.664-0.982L3.651-0.978v0.005L3.668-0.978z M3.559-0.914   H3.554v0.013h0.005V-0.914z M3.559-0.953H3.554v0.01h0.005V-0.953z M1.8,0.159L1.798,0.139H1.789l0.004,0.021H1.8z M-1.144,1.221   l-0.019,0.005v0.008l0.019-0.004V1.221z M-1.204,0.99h-0.011v0.004h0.011V0.99z M-3.497-0.363c0-0.014,0-0.029-0.003-0.046   c-0.006,0-0.011,0.003-0.017,0.009l0.006,0.042C-3.504-0.358-3.5-0.359-3.497-0.363z" fill="#FFFFFF"/>
  </g></svg>