<?xml version="1.0" standalone="no"?>
<svg xmlns="http://www.w3.org/2000/svg" viewBox="-6.37 -6.37 12.74 12.74" color="#212121" width="75" height="75"><g transform="matrix(1 0 0 -1 0 0)">
    <g xmlns="http://www.w3.org/2000/svg">
      <circle class="primary" fill="currentColor" cx="0" cy="0" r="6.245"/>
      <path class="secondary" d="M0,6.12c3.38,0,6.12-2.74,6.12-6.12S3.38-6.12,0-6.12S-6.12-3.38-6.12,0S-3.38,6.12,0,6.12 M0,6.37    c-3.513,0-6.37-2.857-6.37-6.37S-3.513-6.37,0-6.37S6.37-3.513,6.37,0S3.513,6.37,0,6.37L0,6.37z" fill="#FFFFFF"/>
    </g>
    <path xmlns="http://www.w3.org/2000/svg" id="Cruise_Ship_2_" class="secondary" d="M5.825-0.594H5.774L5.77-0.593L5.763-0.291L5.751-0.59L5.729-0.587H5.458v0.016   L5.261-0.569H5.217l0.001,0.036l0.078-0.001L5.17-0.471v0.019L5.019-0.451L4.934-0.438v0.039l0.04,0.039L4.877-0.302L4.862-0.279   L4.661-0.276v0.025L4.685-0.23v0.047L4.621-0.182v0.028H4.454l0.001,0.028h0.039v0.019L4.413-0.085L4.46,0h0.022v0.038l-0.04,0.041   l0.001,0.034h-0.02l0.001,0.042H4.396l-0.052-0.04H4.263l0.001,0.039h0.043L4.21,0.197v0.055L4.09,0.253L4.085,0.491L4.074,0.253   H4.053l0.001,0.063H4.008L4.005,0.449L3.999,0.317H3.868l0.001,0.06L3.714,0.474H3.702L3.701,0.517L3.699,0.474L3.563,0.476   L3.562,0.528L3.561,0.476L3.372,0.478L3.264,0.552L3.263,0.649L3.259,0.556L3.23,0.576H3.218L3.216,0.649L3.212,0.575L3.124,0.576   L3.121,0.661L3.118,0.576L2.984,0.577L2.916,0.624L2.834,0.669L2.832,0.772l-0.005-0.1L2.806,0.685L2.58,0.688L2.505,0.757   l0.084-0.001c0.013,0,0.022,0.005,0.022,0.009c0,0.007-0.009,0.01-0.022,0.01C2.59,0.776,2.59,0.778,2.59,0.781l0.001,0.026   c0,0.003-0.001,0.005-0.001,0.007l0.05-0.001c0.004,0,0.008,0.005,0.008,0.01S2.644,0.831,2.64,0.831L2.518,0.833   c-0.004,0-0.007-0.004-0.007-0.01c0-0.004,0.003-0.008,0.007-0.008l0.045-0.001C2.562,0.812,2.562,0.811,2.562,0.808V0.781   c0-0.002,0-0.004,0-0.006H2.484L2.362,0.888h0.095c0.011,0,0.02,0.004,0.02,0.008c0,0.006-0.009,0.01-0.02,0.01H2.453   c0.003,0.003,0.005,0.007,0.005,0.01v0.028c0,0.002-0.001,0.004-0.001,0.006h0.047c0.005,0,0.007,0.004,0.007,0.009   s-0.002,0.01-0.007,0.01H2.382c-0.005,0-0.007-0.004-0.008-0.009c0-0.006,0.003-0.009,0.007-0.009h0.048   c0-0.003,0-0.004-0.002-0.007V0.915c0-0.003,0.002-0.007,0.006-0.01l-0.09,0.001L2.34,0.908L2.255,1.039l0.049,0.019H2.177   L2.134,1.263L2.121,1.028L1.883,1.031l0.005-0.068l0.261-0.002L2.17,0.907L2.134,0.908c-0.01,0-0.019-0.004-0.019-0.009   c0-0.006,0.009-0.01,0.019-0.01h0.045l0.047-0.112L2.199,0.778c-0.012,0-0.022-0.004-0.022-0.009s0.011-0.011,0.022-0.011h0.035   l0.039-0.093L1.645,0.671v0.096C1.659,0.772,1.67,0.787,1.67,0.804c0,0.021-0.017,0.039-0.039,0.039   c-0.021,0-0.04-0.018-0.04-0.039c0-0.017,0.011-0.03,0.025-0.037L1.615,0.672H1.558V0.64h0.019V0.587L1.403,0.588v0.035h0.016   c0.014,0,0.026,0.011,0.027,0.026c0,0.008-0.003,0.014-0.007,0.019c0.019,0.017,0.032,0.041,0.032,0.067   c0,0.048-0.039,0.088-0.088,0.089C1.336,0.825,1.296,0.785,1.295,0.737c0-0.027,0.013-0.053,0.032-0.068   C1.322,0.665,1.319,0.657,1.319,0.651c0-0.016,0.012-0.028,0.026-0.028h0.016V0.589L1.158,0.59v0.055c0,0.003,0,0.004-0.001,0.007   l0.04-0.001c0.006,0,0.011,0.005,0.011,0.011c0,0.007-0.005,0.012-0.011,0.012H1.183C1.216,0.693,1.24,0.729,1.24,0.768   c0.001,0.061-0.047,0.11-0.107,0.11c-0.061,0-0.111-0.049-0.111-0.108C1.021,0.73,1.043,0.694,1.077,0.675H1.063   c-0.006,0-0.013-0.006-0.013-0.012c0-0.007,0.005-0.012,0.013-0.012H1.1c0-0.002,0-0.004,0-0.006V0.591H1.09L0.907,0.593   L0.906,0.398l-1.351-0.165L-0.467,0.27l-0.19,0.002l-0.025-0.043l-0.442,0.008l0.003,0.229h-0.035l-0.005,0.192l-0.007-0.192   l-0.35,0.004l-0.005,0.178L-1.53,0.47l-0.164,0.002l-0.029,0.075l-0.183,0.002L-1.9,1.236l-0.042,0.001   c0.001,0.14,0.016,0.131,0.016,0.131V1.4c-0.049,0.001-0.045-0.166-0.045-0.166l-0.034,0.001V1.26l-0.14-0.025L-2.33,1.237   l-0.104,0.025V1.229h-0.042l-0.006-0.681l-0.201,0.003l-0.184-0.105L-3.359,0.45l-0.019,0.066l-0.205,0.002L-3.59,0.857L-3.6,0.519   l-0.233,0.003l-0.155,0.001V0.435h-0.07L-4.06,0.306l-0.277,0.002l-0.001-0.032L-4.44,0.197l-0.299,0.002L-4.753,0.25l-0.001-0.053   l-0.187,0.001l-0.138,0.43l0.118-0.432l-0.085,0.001L-5.1,0.198l0.001,0.016H-5.11L-5.125,0.2h-0.062l-0.009,0.063l-0.009-0.065   L-5.25,0.135h-0.014V0.101h0.025L-5.2,0.007h-0.021l-0.001-0.033h0.014l-0.316-0.33h-0.015l-0.263-0.26h-0.044L-5.847-0.68h0.037   v-0.03h0.016l0.024-0.052l-0.06,0.001l0.017-0.074h0.072l0.308-0.492C-3.456-1.489,4.747-1.33,4.747-1.33l1.078,0.699   C5.874-0.6,5.825-0.594,5.825-0.594z" fill="#FFFFFF"/>
  </g></svg>