<?xml version="1.0" standalone="no"?>
<svg xmlns="http://www.w3.org/2000/svg" viewBox="-6.37 -6.37 12.74 12.74" color="#212121" width="75" height="75"><g transform="matrix(1 0 0 -1 0 0)">
    <g xmlns="http://www.w3.org/2000/svg">
      <path class="primary" fill="currentColor" d="M-0.001-6.245c-3.443,0-6.244,2.802-6.244,6.246c0,3.443,2.801,6.244,6.244,6.244    c3.444,0,6.246-2.801,6.246-6.244C6.245-3.443,3.443-6.245-0.001-6.245z"/>
      <path class="secondary" d="M-0.001,6.12c3.381,0,6.121-2.74,6.121-6.119c0-3.381-2.74-6.121-6.121-6.121    c-3.379,0-6.119,2.74-6.119,6.121C-6.12,3.38-3.38,6.12-0.001,6.12 M-0.001,6.37c-3.512,0-6.369-2.857-6.369-6.369    c0-3.513,2.857-6.371,6.369-6.371c3.513,0,6.371,2.858,6.371,6.371C6.37,3.513,3.512,6.37-0.001,6.37L-0.001,6.37z" fill="#FFFFFF"/>
    </g>
    <polygon xmlns="http://www.w3.org/2000/svg" class="secondary" points="3.602,-0.304 4.955,-0.304 4.955,-2.137 -3.979,-2.137 -5.58,0.011 -3.598,0.011 -3.598,0.536    -2.344,0.536 -1.518,1.958 -0.428,2.058 0.084,2.866 0.596,2.866 0.943,3.461 0.959,3.891 1.256,3.891 1.256,2.916 2.461,2.916    2.098,2.124 2.512,2.124 2.512,1.728 2.396,1.645 2.824,0.877 3.635,0.877 3.635,0.324 3.453,0.324 3.453,-0.32  " fill="#FFFFFF"/>
  </g></svg>