<?xml version="1.0" standalone="no"?>
<svg xmlns="http://www.w3.org/2000/svg" viewBox="-6.37 -6.37 12.74 12.74" color="#212121" width="75" height="75"><g transform="matrix(1 0 0 -1 0 0)">
    <g xmlns="http://www.w3.org/2000/svg">
      <path class="primary" fill="currentColor" d="M0.001-6.245c-3.444,0-6.246,2.802-6.246,6.245s2.802,6.245,6.246,6.245c3.443,0,6.244-2.802,6.244-6.245    S3.444-6.245,0.001-6.245z"/>
      <path class="secondary" d="M0.001,6.12C3.38,6.12,6.12,3.38,6.12,0S3.38-6.12,0.001-6.12C-3.38-6.12-6.12-3.38-6.12,0    S-3.38,6.12,0.001,6.12 M0.001,6.37C-3.512,6.37-6.37,3.513-6.37,0s2.858-6.37,6.371-6.37C3.513-6.37,6.37-3.513,6.37,0    S3.513,6.37,0.001,6.37L0.001,6.37z" fill="#FFFFFF"/>
    </g>
    <g xmlns="http://www.w3.org/2000/svg" id="Destroyers_2_">
      <path class="secondary" d="M-5.632-0.515c0,0.002,0.001,0.007,0.001,0.014C-5.63-0.494-5.63-0.49-5.63-0.487l0.284,0.018h1.472    c-0.007,0.012-0.018,0.02-0.033,0.024C-3.923-0.44-3.936-0.437-3.945-0.435c-0.012,0.002-0.033,0.003-0.062,0.006    c-0.03,0.002-0.062,0.004-0.097,0.006c-0.034,0.002-0.067,0.004-0.097,0.005c-0.03,0.001-0.052,0.001-0.063,0.001    c-0.003,0-0.011,0-0.021-0.001c-0.01-0.001-0.02-0.002-0.03-0.001c-0.011,0-0.021,0.002-0.027,0.007    C-4.351-0.408-4.355-0.401-4.355-0.39c0,0.001,0.001,0.002,0.002,0.004c0,0.002,0,0.003,0,0.004c0.015,0,0.04,0.002,0.077,0.003    c0.038,0.001,0.077,0.002,0.118,0.004c0.041,0.002,0.081,0.004,0.118,0.007c0.037,0.002,0.063,0.004,0.077,0.005    c0.001,0,0.006,0.001,0.013,0.003c0.007,0.001,0.015,0.003,0.021,0.006c0.009,0.002,0.016,0.004,0.023,0.006    c0.008,0.002,0.013,0.003,0.014,0.003l0.23,0.035h0.009c0.032,0,0.062-0.001,0.093-0.001c0.03-0.002,0.057-0.007,0.081-0.016    c0.023-0.009,0.043-0.023,0.058-0.043c0.015-0.02,0.023-0.047,0.025-0.082h0.009c0.012,0,0.025,0.003,0.041,0.008    c0.016,0.006,0.029,0.013,0.044,0.021c0.015,0.009,0.027,0.02,0.039,0.031C-3.25-0.38-3.241-0.368-3.236-0.354h0.195    C-3.044-0.354-3.05-0.352-3.059-0.349C-3.066-0.346-3.075-0.343-3.085-0.34c-0.01,0.003-0.019,0.006-0.026,0.008    C-3.12-0.329-3.126-0.328-3.129-0.328c-0.013,0.001-0.033,0.003-0.063,0.005c-0.03,0.003-0.062,0.005-0.097,0.007    c-0.034,0.001-0.066,0.003-0.097,0.005c-0.03,0-0.051,0.001-0.063,0.001v0.018c0.015,0,0.04,0.001,0.075,0.002    c0.035,0.001,0.073,0.003,0.112,0.005C-3.223-0.284-3.185-0.282-3.15-0.28c0.035,0.002,0.06,0.004,0.074,0.006    c0.028,0.002,0.057,0.006,0.084,0.012c0.028,0.006,0.056,0.012,0.084,0.018c0.027,0.006,0.055,0.012,0.083,0.017    c0.027,0.005,0.056,0.007,0.086,0.007h0.104c0.043,0,0.074-0.01,0.092-0.027c0.019-0.019,0.027-0.056,0.027-0.11    c0.039,0,0.074,0.007,0.105,0.021c0.03,0.015,0.059,0.033,0.085,0.054C-2.3-0.263-2.275-0.24-2.251-0.215    c0.024,0.023,0.05,0.046,0.077,0.065c0.027,0.02,0.057,0.034,0.088,0.045s0.067,0.013,0.109,0.007l0.018,0.027h0.266    c0.004,0,0.007,0.002,0.009,0.009C-1.682-0.057-1.68-0.049-1.678-0.04c0.002,0.009,0.003,0.019,0.003,0.029    c0.001,0.009,0.001,0.018,0.001,0.025v0.022c0,0.016-0.004,0.028-0.012,0.037c-0.008,0.01-0.016,0.018-0.025,0.023    c-0.01,0.006-0.018,0.012-0.025,0.019c-0.008,0.007-0.012,0.016-0.012,0.025c0,0.005,0.002,0.014,0.006,0.025    c0.003,0.012,0.007,0.023,0.013,0.036c0.005,0.013,0.011,0.023,0.018,0.035c0.007,0.01,0.013,0.017,0.019,0.019V0.215    c0.002,0,0.004,0.001,0.009,0.004c0.005,0.003,0.008,0.004,0.009,0.003c0.003-0.002,0.008-0.008,0.015-0.018    c0.007-0.008,0.012-0.014,0.013-0.018v0.088l0.026-0.088c0,0.004,0,0.009,0.002,0.018c0.001,0.009,0.002,0.017,0.004,0.026    c0.002,0.01,0.004,0.019,0.006,0.026c0.002,0.009,0.003,0.015,0.006,0.018c0.001,0.002,0.007,0.006,0.017,0.01    c0.011,0.003,0.017,0.006,0.019,0.009C-1.568,0.297-1.567,0.3-1.567,0.302c0,0.008-0.003,0.014-0.009,0.015    C-1.582,0.318-1.589,0.319-1.597,0.32C-1.604,0.322-1.61,0.324-1.617,0.326c-0.006,0.003-0.009,0.009-0.009,0.02    c0,0.007,0.003,0.014,0.009,0.019C-1.61,0.37-1.604,0.375-1.596,0.38c0.008,0.006,0.017,0.011,0.025,0.017    c0.008,0.005,0.015,0.013,0.02,0.021c0.002,0.004,0.008,0.014,0.018,0.027c0.009,0.014,0.015,0.021,0.018,0.025    c0.003-0.004,0.011-0.012,0.023-0.023C-1.48,0.436-1.469,0.423-1.455,0.41c0.013-0.014,0.024-0.026,0.034-0.038    c0.011-0.013,0.015-0.021,0.015-0.026c0-0.03-0.019-0.041-0.057-0.035c0-0.004,0-0.012,0-0.022    C-1.464,0.276-1.465,0.27-1.465,0.266c0-0.018,0.004-0.034,0.01-0.05c0.006-0.017,0.013-0.031,0.021-0.045    c0.009-0.015,0.019-0.029,0.029-0.044c0.011-0.015,0.021-0.03,0.03-0.048l0.018,0.019h0.302c0.002,0,0.006,0.004,0.009,0.012    c0.004,0.009,0.007,0.019,0.011,0.03c0.004,0.011,0.007,0.022,0.01,0.034c0.003,0.012,0.005,0.021,0.006,0.03    c0,0.001-0.001,0.004-0.002,0.01C-1.023,0.219-1.025,0.225-1.028,0.23C-1.03,0.236-1.032,0.242-1.035,0.247    c-0.001,0.006-0.002,0.009-0.002,0.01c0,0.008,0,0.021-0.001,0.04c0,0.02-0.001,0.04-0.002,0.062    c-0.002,0.021-0.003,0.041-0.003,0.06c-0.001,0.02-0.001,0.032-0.001,0.039c0.009,0,0.021,0,0.034-0.002    c0.014-0.002,0.022-0.009,0.025-0.021C-0.975,0.443-0.97,0.456-0.97,0.47c0,0.011-0.001,0.021-0.002,0.034    c-0.001,0.012-0.002,0.022-0.002,0.031c0,0.011,0.002,0.02,0.006,0.027c0.003,0.007,0.01,0.012,0.02,0.014v0.142h-0.167    c0,0.004,0,0.01,0.001,0.018c0.001,0.009,0.002,0.018,0.003,0.027C-1.11,0.771-1.109,0.78-1.108,0.789    c0.001,0.009,0.001,0.015,0.001,0.019c0,0.002,0.002,0.005,0.006,0.01c0.005,0.005,0.009,0.007,0.011,0.007    c0.007,0.001,0.017,0.003,0.032,0.005c0.015,0.002,0.03,0.004,0.047,0.006c0.018,0.001,0.034,0.003,0.049,0.005    c0.016,0.001,0.026,0.003,0.032,0.003h0.009h0.009c0.001-0.004,0.003-0.012,0.005-0.023s0.004-0.024,0.005-0.038    c0.002-0.014,0.004-0.026,0.006-0.038s0.002-0.02,0.002-0.025c0-0.002,0-0.01,0-0.024C-0.896,0.68-0.896,0.671-0.896,0.668    c0.002,0,0.008,0.003,0.018,0.009c0.011,0.006,0.017,0.009,0.02,0.006c0.001-0.001,0.002-0.004,0.004-0.009    s0.004-0.011,0.006-0.017C-0.849,0.65-0.847,0.645-0.845,0.64c0.002-0.006,0.003-0.009,0.003-0.01    c0.002-0.004,0.008-0.012,0.017-0.025s0.016-0.023,0.019-0.028c0.013-0.017,0.021-0.035,0.025-0.056    c0.003-0.021,0.007-0.042,0.01-0.063c0.003-0.022,0.008-0.043,0.015-0.062c0.007-0.02,0.021-0.036,0.039-0.049    c0.002,0.016,0.01,0.028,0.021,0.039c0.012,0.011,0.025,0.017,0.04,0.017c0.011,0,0.02-0.004,0.027-0.012    c0.007-0.008,0.014-0.017,0.019-0.027c0.005-0.01,0.011-0.02,0.016-0.029c0.005-0.011,0.012-0.018,0.019-0.022l0.036,0.035    c0.013-0.009,0.024-0.021,0.037-0.038c0.012-0.016,0.018-0.032,0.018-0.049c0-0.013-0.003-0.024-0.011-0.032    c-0.006-0.009-0.009-0.02-0.009-0.031c0-0.034,0.007-0.062,0.021-0.085c0.015-0.021,0.037-0.032,0.068-0.032    c0.018,0,0.03,0.004,0.037,0.012c0.008,0.007,0.016,0.017,0.022,0.025c0.006,0.01,0.014,0.019,0.021,0.025    c0.008,0.008,0.02,0.012,0.035,0.012c0.013,0,0.022-0.003,0.029-0.008c0.006-0.005,0.012-0.012,0.016-0.02    c0.004-0.007,0.009-0.016,0.014-0.023c0.004-0.009,0.012-0.016,0.021-0.022c0.003,0,0.01,0.002,0.02,0.003    C-0.19,0.085-0.18,0.086-0.168,0.088c0.012,0.002,0.022,0.003,0.033,0.006c0.01,0.001,0.017,0.003,0.02,0.004    c0.002,0,0.005,0.001,0.01,0.003C-0.1,0.102-0.094,0.104-0.088,0.106c0.006,0.002,0.012,0.004,0.017,0.006    c0.005,0.002,0.009,0.003,0.009,0.003c0.03,0,0.05-0.011,0.06-0.033c0.01-0.021,0.014-0.046,0.014-0.073s0-0.052-0.001-0.074    c0-0.021,0.006-0.032,0.018-0.032h0.354c0.023,0,0.047-0.005,0.069-0.017s0.04-0.026,0.055-0.046h0.195    c0.004-0.015,0.011-0.025,0.018-0.031c0.009-0.006,0.017-0.012,0.024-0.017C0.752-0.214,0.76-0.221,0.769-0.229    c0.008-0.009,0.015-0.024,0.021-0.045h0.284v0.106c0,0.004,0.011,0.009,0.031,0.013c0.021,0.004,0.044,0.008,0.07,0.012    C1.202-0.141,1.228-0.138,1.25-0.136c0.024,0.002,0.039,0.003,0.045,0.003c0.061,0,0.12-0.004,0.18-0.012    C1.533-0.152,1.593-0.16,1.652-0.169c0.06-0.01,0.119-0.018,0.179-0.024c0.06-0.007,0.12-0.011,0.183-0.011V-0.23H1.623    c-0.004,0-0.01-0.002-0.019-0.005C1.596-0.239,1.586-0.243,1.577-0.247c-0.01-0.005-0.019-0.01-0.027-0.015    c-0.008-0.005-0.013-0.01-0.016-0.013h0.249c0-0.002,0.003-0.006,0.008-0.01C1.795-0.289,1.798-0.292,1.8-0.293    c0.005-0.003,0.015-0.009,0.028-0.016c0.013-0.007,0.027-0.015,0.043-0.021c0.016-0.008,0.03-0.015,0.043-0.021    c0.014-0.006,0.023-0.011,0.027-0.013c0.002-0.001,0.006-0.001,0.014,0.001C1.961-0.36,1.966-0.359,1.967-0.359    c0,0.055,0.009,0.092,0.027,0.11c0.017,0.018,0.048,0.027,0.092,0.027H2.19c0.029,0,0.059-0.002,0.087-0.007    c0.028-0.005,0.057-0.011,0.084-0.017c0.027-0.006,0.056-0.012,0.083-0.018c0.026-0.006,0.055-0.01,0.083-0.012    c0.015-0.002,0.04-0.004,0.077-0.006c0.037-0.002,0.076-0.004,0.118-0.006C2.764-0.288,2.803-0.29,2.84-0.291    c0.038-0.001,0.063-0.002,0.077-0.002v-0.018C2.9-0.312,2.883-0.312,2.864-0.312c-0.019,0-0.039,0-0.059,0    c-0.059,0-0.122-0.004-0.188-0.01C2.552-0.329,2.492-0.343,2.438-0.363h0.248c0.002-0.003,0.004-0.006,0.008-0.01    C2.699-0.378,2.702-0.38,2.705-0.382C2.709-0.385,2.719-0.39,2.732-0.397C2.746-0.404,2.76-0.411,2.775-0.418    c0.016-0.008,0.03-0.015,0.044-0.021C2.833-0.446,2.842-0.45,2.847-0.452c0.001-0.001,0.005-0.001,0.013,0.001    C2.866-0.449,2.87-0.449,2.871-0.449c0,0.03-0.001,0.052-0.004,0.066c-0.002,0.015,0,0.024,0.003,0.031    C2.875-0.346,2.884-0.341,2.898-0.34c0.016,0.002,0.039,0.006,0.072,0.012c0.004,0,0.012,0.001,0.023,0.003    C3.006-0.323,3.018-0.321,3.03-0.319c0.014,0.002,0.026,0.004,0.039,0.007c0.012,0.001,0.02,0.002,0.025,0.002h0.009h0.009    l0.23-0.035c0.002,0,0.005-0.001,0.013-0.003C3.362-0.351,3.37-0.353,3.378-0.354C3.385-0.357,3.393-0.359,3.4-0.36    c0.008-0.002,0.013-0.003,0.014-0.003c0.014-0.001,0.039-0.003,0.077-0.005c0.037-0.003,0.076-0.005,0.117-0.007    C3.65-0.377,3.689-0.378,3.727-0.379C3.765-0.38,3.79-0.382,3.804-0.382l0.019-0.018C3.807-0.414,3.79-0.421,3.771-0.418    C3.753-0.416,3.734-0.416,3.715-0.417c-0.011,0-0.032,0-0.062-0.001C3.623-0.419,3.59-0.421,3.556-0.423    C3.521-0.425,3.489-0.427,3.459-0.429c-0.03-0.003-0.051-0.004-0.062-0.006C3.387-0.437,3.374-0.44,3.358-0.445    C3.343-0.45,3.331-0.458,3.325-0.47l0.728,0.009h0.053l0.745,0.009c0.02-0.014,0.043-0.02,0.069-0.02h0.072h0.022    c0.011,0,0.02,0,0.028,0.001C5.053-0.47,5.062-0.47,5.068-0.47h0.013c0.01,0.001,0.022,0.004,0.038,0.008    c0.016,0.004,0.023,0.007,0.023,0.01v0.178L5.17-0.452c0.01,0.01,0.021,0.015,0.029,0.017c0.01,0.002,0.021,0.003,0.034,0.003    c0.011,0,0.021-0.002,0.032-0.004C5.276-0.438,5.279-0.45,5.276-0.47l0.079,0.035v0.178l0.03-0.217l0.112,0.021v0.195l0.026-0.195    h0.097v0.106l0.01-0.142c0-0.002-0.004-0.006-0.014-0.016C5.608-0.512,5.602-0.519,5.596-0.523    c-0.03-0.024-0.067-0.056-0.113-0.091C5.438-0.65,5.393-0.686,5.349-0.719C5.305-0.753,5.268-0.782,5.236-0.806    C5.204-0.83,5.188-0.843,5.188-0.843H-5.08c-0.027,0.012-0.06,0.023-0.098,0.032c-0.038,0.01-0.076,0.02-0.118,0.029    c-0.04,0.01-0.081,0.022-0.121,0.035c-0.04,0.014-0.076,0.03-0.108,0.051C-5.558-0.675-5.583-0.65-5.603-0.621    C-5.621-0.591-5.632-0.556-5.632-0.515z M5.188-0.452c-0.01,0-0.014-0.006-0.014-0.018c0-0.012,0.004-0.018,0.014-0.018    c0.009,0,0.014,0.006,0.014,0.018C5.201-0.458,5.196-0.452,5.188-0.452z M2.9-0.47c0.002,0.006-0.001,0.009-0.01,0.009    c-0.007,0-0.01-0.003-0.009-0.009c0.001-0.006,0.004-0.01,0.009-0.01C2.895-0.479,2.897-0.476,2.9-0.47z M-1.587,0.257v-0.07    c0.003,0.001,0.006,0.004,0.01,0.008c0.005,0.004,0.007,0.007,0.008,0.01v0.009v0.009C-1.57,0.224-1.572,0.229-1.577,0.239    C-1.581,0.249-1.584,0.255-1.587,0.257z M-1.729,0.274C-1.723,0.272-1.72,0.27-1.72,0.266c0-0.003-0.003-0.006-0.009-0.009    c-0.006-0.002-0.01,0.001-0.01,0.009C-1.738,0.274-1.734,0.276-1.729,0.274z M-2.987-0.363c0.001,0.002-0.001,0.004-0.005,0.005    C-2.996-0.357-3-0.356-3.006-0.356c-0.004,0-0.009-0.001-0.013-0.002c-0.004-0.001-0.006-0.003-0.005-0.005    c0.003-0.006,0.009-0.009,0.018-0.009C-2.996-0.372-2.99-0.369-2.987-0.363z M-3.431-0.47c0.002,0.006-0.001,0.009-0.009,0.009    c-0.008,0-0.012-0.003-0.01-0.009c0.003-0.006,0.006-0.01,0.01-0.01C-3.437-0.479-3.434-0.476-3.431-0.47z" fill="#FFFFFF"/>
    </g>
  </g></svg>