<?xml version="1.0" standalone="no"?>
<svg xmlns="http://www.w3.org/2000/svg" viewBox="-6.37 -6.37 12.74 12.74" color="#212121" width="75" height="75"><g transform="matrix(1 0 0 -1 0 0)">
    <g xmlns="http://www.w3.org/2000/svg">
      <path class="primary" fill="currentColor" d="M0-6.245c-3.444,0-6.245,2.802-6.245,6.246c0,3.443,2.802,6.244,6.245,6.244s6.245-2.801,6.245-6.244    C6.245-3.443,3.444-6.245,0-6.245z"/>
      <path class="secondary" d="M0,6.12c3.38,0,6.12-2.74,6.12-6.119C6.12-3.38,3.38-6.12,0-6.12s-6.12,2.74-6.12,6.121    C-6.12,3.38-3.38,6.12,0,6.12 M0,6.37c-3.513,0-6.37-2.857-6.37-6.369C-6.37-3.512-3.513-6.37,0-6.37s6.37,2.858,6.37,6.371    C6.37,3.513,3.513,6.37,0,6.37L0,6.37z" fill="#FFFFFF"/>
    </g>
    <g xmlns="http://www.w3.org/2000/svg" id="Dock_Landing_2_">
      <path class="secondary" d="M-5.729-1.437V-0.9c0.025,0.009,0.042,0.026,0.049,0.058c0.006,0.03,0.01,0.064,0.012,0.098    c0.003,0.036,0.007,0.065,0.012,0.092c0.006,0.026,0.02,0.041,0.043,0.041h3.896c0,0.068-0.006,0.126-0.016,0.173    c-0.01,0.045-0.015,0.102-0.015,0.165c0,0.01,0.001,0.031,0.003,0.065c0.005,0.004,0.017,0.01,0.032,0.017    c0.017,0.006,0.035,0.012,0.053,0.016c0.018,0.004,0.034,0.005,0.052,0.007c0.017,0.002,0.028,0,0.036-0.002v0.25h0.191v0.517    h0.076v-0.652h0.115v0.652h0.076v-0.652h0.227c0-0.033-0.003-0.062-0.007-0.086c-0.006-0.024-0.012-0.047-0.02-0.065    c-0.008-0.022-0.015-0.043-0.02-0.065c-0.006-0.021-0.008-0.045-0.008-0.069c0-0.039,0.002-0.065,0.004-0.081    c0.002-0.015,0.007-0.025,0.014-0.027c0.006-0.004,0.016-0.006,0.029-0.004C-0.881-0.452-0.864-0.45-0.844-0.45v0.522    c0.103,0,0.21,0,0.324-0.002c0.113-0.004,0.228-0.01,0.342-0.021c0.113-0.01,0.225-0.026,0.334-0.049s0.211-0.055,0.303-0.096    v0.363h0.326c0.003,0,0.013,0.014,0.033,0.04c0.019,0.024,0.033,0.043,0.044,0.056C0.865,0.37,0.87,0.382,0.879,0.402    C0.889,0.423,0.895,0.436,0.9,0.441c0.01,0.002,0.017,0.004,0.019,0.004c0.011,0,0.02-0.008,0.029-0.024    c0.009-0.018,0.018-0.036,0.026-0.059C0.982,0.34,0.991,0.319,0.997,0.297C1.004,0.276,1.009,0.26,1.015,0.25    c0.013,0.008,0.026,0.021,0.038,0.04c0.013,0.019,0.024,0.039,0.035,0.06c0.01,0.021,0.019,0.039,0.027,0.058    C1.121,0.425,1.127,0.436,1.13,0.441c0.002,0,0.006,0,0.01,0.002c0.003,0,0.007,0.002,0.009,0.002    c0.031,0,0.053-0.019,0.065-0.061C1.227,0.346,1.234,0.301,1.237,0.25c0.002-0.053,0.002-0.101,0-0.146    C1.234,0.058,1.233,0.029,1.233,0.02h0.069v0.271C1.371,0.276,1.416,0.264,1.437,0.25c0.01-0.007,0.018-0.024,0.022-0.051    c0.006-0.026,0.011-0.05,0.018-0.078C1.482,0.095,1.491,0.07,1.501,0.05c0.011-0.021,0.027-0.03,0.051-0.03h0.345    c0.008,0,0.014,0.01,0.019,0.026c0.006,0.019,0.01,0.041,0.013,0.067C1.932,0.14,1.935,0.17,1.937,0.199    c0.001,0.03,0.002,0.059,0.002,0.085V0.35v0.133c0,0.041-0.003,0.084-0.009,0.131C1.926,0.66,1.917,0.702,1.904,0.739    C1.891,0.778,1.875,0.811,1.855,0.837c-0.02,0.024-0.045,0.037-0.074,0.037v0.294c0.005,0.004,0.012,0.01,0.021,0.02    c0.008,0.007,0.014,0.015,0.017,0.021C1.822,1.215,1.826,1.23,1.831,1.251C1.836,1.273,1.84,1.296,1.844,1.322    c0.005,0.026,0.008,0.05,0.01,0.071c0.003,0.022,0.004,0.037,0.004,0.043h0.058V0.992c0.04,0,0.073,0.002,0.096,0.004    C2.034,1,2.054,1.002,2.07,1.007c0.018,0.004,0.033,0.006,0.05,0.01c0.017,0.002,0.04,0.002,0.07,0.002    c0.006,0,0.022,0,0.05-0.002c0.003-0.004,0.007-0.01,0.01-0.021c0.004-0.014,0.008-0.024,0.01-0.038    c0.003-0.013,0.006-0.023,0.01-0.035C2.273,0.91,2.276,0.904,2.278,0.902C2.299,0.888,2.322,0.882,2.35,0.88    c0.027-0.002,0.053-0.004,0.077-0.008c0.024-0.004,0.045-0.011,0.062-0.024c0.016-0.011,0.024-0.031,0.024-0.065    c0-0.039-0.013-0.065-0.038-0.078C2.449,0.69,2.41,0.68,2.355,0.672C2.351,0.666,2.348,0.66,2.348,0.651    c0-0.002,0.002-0.006,0.002-0.012c0.002-0.004,0.004-0.007,0.006-0.007c0.003-0.002,0.01-0.006,0.021-0.01    s0.024-0.008,0.038-0.011c0.014-0.004,0.026-0.008,0.037-0.01c0.009-0.004,0.016-0.006,0.019-0.008    c0.003,0,0.005-0.004,0.006-0.008c0.002-0.005,0.003-0.009,0.003-0.011c0-0.004-0.001-0.008-0.003-0.013    C2.476,0.56,2.474,0.556,2.471,0.556C2.463,0.552,2.444,0.542,2.415,0.533c-0.028-0.012-0.048-0.015-0.06-0.015v-0.22    c0.026,0,0.046,0.002,0.06,0.004c0.014,0.002,0.028,0.006,0.04,0.011C2.468,0.317,2.48,0.319,2.496,0.325    C2.51,0.329,2.529,0.331,2.555,0.331c0.016,0,0.032-0.002,0.048-0.002c0.017-0.002,0.032-0.006,0.046-0.012    C2.663,0.31,2.672,0.299,2.676,0.282c0.004-0.018,0-0.039-0.014-0.071C2.665,0.217,2.67,0.224,2.68,0.231    C2.689,0.241,2.696,0.246,2.7,0.25c0.011,0.002,0.017,0.004,0.02,0.004c0.003,0,0.009-0.002,0.019-0.004    C2.746,0.244,2.76,0.231,2.779,0.213c0.02-0.019,0.031-0.032,0.037-0.04H3.16c0.018,0,0.033,0.014,0.044,0.04    c0.012,0.028,0.021,0.058,0.031,0.092C3.244,0.34,3.251,0.374,3.259,0.407C3.265,0.443,3.27,0.466,3.275,0.479    c-0.003-0.047,0.01-0.086,0.037-0.116c0.025-0.027,0.06-0.053,0.1-0.069c0.041-0.017,0.086-0.028,0.13-0.033    c0.045-0.008,0.083-0.01,0.116-0.01l0.039-0.077v-0.459C3.702-0.264,3.715-0.25,3.735-0.248c0.021,0.002,0.039,0.004,0.058,0.004    c0.018,0,0.031-0.002,0.044-0.008c0.011-0.006,0.022-0.01,0.032-0.017c0.011-0.004,0.021-0.01,0.032-0.014    C3.912-0.288,3.93-0.291,3.949-0.291c0.035,0,0.06,0.011,0.078,0.031C4.045-0.239,4.06-0.217,4.074-0.19    c0.015,0.024,0.028,0.047,0.042,0.069c0.014,0.019,0.034,0.03,0.06,0.03c0.002,0,0.01-0.002,0.019-0.004    C4.2-0.101,4.208-0.106,4.218-0.115c0.01-0.006,0.016-0.013,0.016-0.019v-0.306c0.023-0.013,0.04-0.034,0.052-0.062    c0.012-0.028,0.02-0.053,0.024-0.073h1.418C5.661-0.649,5.603-0.721,5.555-0.786C5.506-0.852,5.463-0.915,5.423-0.979    c-0.04-0.062-0.078-0.127-0.114-0.194C5.271-1.241,5.232-1.316,5.19-1.399C5.188-1.402,5.183-1.412,5.172-1.421    c-0.01-0.01-0.016-0.016-0.019-0.016H-5.729z M2.045,0.749c0-0.036,0.005-0.066,0.013-0.089c0.007-0.021,0.03-0.031,0.068-0.031    c0.015,0,0.03,0.002,0.044,0.005c0.015,0.004,0.025,0.018,0.032,0.038C2.126,0.696,2.075,0.749,2.05,0.825    c0-0.006-0.001-0.019-0.003-0.039C2.046,0.766,2.045,0.752,2.045,0.749z M0.334-0.269c0,0.007-0.002,0.017-0.005,0.031    c-0.002,0.016-0.006,0.03-0.01,0.047C0.315-0.175,0.311-0.162,0.307-0.151C0.301-0.14,0.294-0.134,0.287-0.134h-0.575    c-0.033,0-0.062-0.014-0.088-0.039c-0.025-0.028-0.046-0.061-0.061-0.096c-0.017-0.038-0.027-0.075-0.036-0.114    c-0.007-0.038-0.011-0.069-0.011-0.096c0-0.006,0.001-0.019,0.002-0.038c0.002-0.021,0.002-0.033,0.002-0.039    c0.005,0.004,0.013,0.01,0.021,0.017c0.009,0.01,0.015,0.018,0.017,0.022c0.003,0.01,0.008,0.026,0.016,0.051    c0.007,0.024,0.016,0.051,0.024,0.075c0.01,0.026,0.018,0.051,0.022,0.073c0.007,0.022,0.012,0.039,0.015,0.049H0.334z     M-0.61-0.058v-0.029c0-0.021,0.004-0.045,0.013-0.073c0.008-0.028,0.021-0.045,0.041-0.049l0.153,0.151H-0.61z" fill="#FFFFFF"/>
    </g>
  </g></svg>