<?xml version="1.0" standalone="no"?>
<svg xmlns="http://www.w3.org/2000/svg" viewBox="-6.37 -6.37 12.74 12.74" color="#212121" width="75" height="75"><g transform="matrix(1 0 0 -1 0 0)">
    <g xmlns="http://www.w3.org/2000/svg">
      <path class="primary" fill="currentColor" d="M0-6.245c-3.444,0-6.245,2.802-6.245,6.246c0,3.443,2.802,6.244,6.245,6.244s6.245-2.801,6.245-6.244    C6.245-3.443,3.444-6.245,0-6.245z"/>
      <path class="secondary" d="M0,6.12c3.38,0,6.12-2.74,6.12-6.119C6.12-3.38,3.38-6.12,0-6.12s-6.12,2.74-6.12,6.121    C-6.12,3.38-3.38,6.12,0,6.12 M0,6.37c-3.513,0-6.37-2.857-6.37-6.369C-6.37-3.512-3.513-6.37,0-6.37s6.37,2.858,6.37,6.371    C6.37,3.513,3.513,6.37,0,6.37L0,6.37z" fill="#FFFFFF"/>
    </g>
    <g xmlns="http://www.w3.org/2000/svg" id="Frigates_2_">
      <path class="secondary" d="M-5.789-0.749c0,0.006,0,0.016,0.002,0.029c0.001,0.016,0.002,0.025,0.002,0.031l0.079-0.08h1.971    c0-0.008,0.006-0.021,0.016-0.041c0.011-0.02,0.019-0.031,0.023-0.037c0.006-0.002,0.013-0.002,0.021,0.006    c0.008,0.006,0.014,0.01,0.02,0.01v0.377l0.099,0.08v0.906l0.059-0.551c0.042,0.008,0.069-0.004,0.081-0.037    c0.012-0.029,0.021-0.066,0.027-0.109c0.007-0.043,0.018-0.08,0.031-0.115c0.015-0.037,0.047-0.055,0.098-0.055h0.433    C-2.831-0.3-2.824-0.278-2.809-0.267c0.016,0.01,0.035,0.016,0.06,0.016c0.018,0,0.03-0.006,0.037-0.014    c0.007-0.01,0.012-0.02,0.015-0.031c0.005-0.01,0.01-0.02,0.016-0.029c0.005-0.01,0.016-0.014,0.031-0.014    c0.002,0,0.005,0.002,0.009,0.002c0.004,0.002,0.008,0.002,0.011,0.002c0.016,0.039,0.029,0.07,0.039,0.096    c0.011,0.023,0.022,0.043,0.035,0.057c0.014,0.014,0.029,0.027,0.048,0.039c0.019,0.012,0.043,0.027,0.074,0.045    c0.009,0.006,0.028,0.02,0.06,0.041v0.709l0.059-0.73h0.315c0.003,0,0.009-0.012,0.018-0.037c0.01-0.023,0.017-0.045,0.022-0.061    c0.005-0.014,0.013-0.039,0.021-0.078c0.009-0.041,0.016-0.066,0.019-0.08h0.461c0,0.02,0.002,0.033,0.005,0.043    c0.005,0.012,0.008,0.02,0.009,0.027c0.002,0.006-0.001,0.012-0.006,0.02C-1.458-0.239-1.47-0.229-1.488-0.216    C-1.496-0.21-1.509-0.202-1.527-0.192c-0.019,0.01-0.038,0.021-0.06,0.035c-0.021,0.014-0.04,0.025-0.06,0.035    c-0.018,0.01-0.031,0.018-0.039,0.023v0.043c0.051,0,0.099-0.004,0.145-0.016c0.046-0.01,0.091-0.021,0.136-0.037    c0.045-0.014,0.091-0.027,0.138-0.037c0.048-0.01,0.1-0.016,0.153-0.016v-0.174H-0.7c0.021,0.037,0.045,0.072,0.07,0.107    c0.024,0.033,0.055,0.064,0.088,0.09C-0.578-0.112-0.608-0.085-0.635-0.06c-0.024,0.023-0.037,0.059-0.037,0.104    c0.008,0,0.021,0,0.042-0.002c0.019-0.002,0.04-0.004,0.062-0.006c0.022-0.004,0.044-0.006,0.062-0.008    c0.02-0.004,0.034-0.006,0.042-0.008C-0.444,0.015-0.42,0.003-0.39-0.017c0.03-0.02,0.045-0.033,0.045-0.041v-0.238    c0.008,0,0.021-0.002,0.04-0.008c0.019-0.004,0.037-0.01,0.059-0.016c0.021-0.004,0.04-0.01,0.059-0.014    c0.019-0.004,0.031-0.004,0.04-0.002C-0.129-0.327-0.11-0.31-0.092-0.284c0.019,0.027,0.038,0.055,0.059,0.082    c0.021,0.027,0.043,0.053,0.067,0.074c0.023,0.023,0.048,0.035,0.074,0.035c0.016,0,0.03-0.014,0.042-0.039    c0.012-0.023,0.022-0.053,0.031-0.08c0.009-0.029,0.018-0.07,0.025-0.123h0.04v0.434L0.168,0.14l0.079,0.039v0.484    c-0.029,0-0.049-0.002-0.062-0.008C0.174,0.649,0.164,0.647,0.156,0.647c-0.008,0-0.02,0.004-0.033,0.012    C0.108,0.667,0.084,0.685,0.05,0.71h0.189C0.247,0.739,0.25,0.759,0.247,0.769c-0.003,0.006-0.01,0.02-0.022,0.041    c-0.011,0.02-0.018,0.033-0.018,0.039c0,0.004,0.006,0.012,0.017,0.023c0.011,0.01,0.018,0.016,0.023,0.016    C0.213,0.878,0.178,0.88,0.142,0.896C0.106,0.911,0.076,0.929,0.05,0.946h0.296v0.375l0.06-0.354    c0.039-0.006,0.064-0.01,0.078-0.01c0.031,0,0.066,0.002,0.103,0.004c0.036,0.004,0.068,0.018,0.095,0.045    c0.003-0.004,0.004-0.01,0.006-0.02c0.001-0.008,0.002-0.016,0.002-0.02c0-0.004-0.012-0.016-0.037-0.037    c-0.025-0.02-0.053-0.043-0.083-0.066C0.537,0.841,0.511,0.819,0.485,0.8C0.46,0.778,0.446,0.769,0.444,0.769    c-0.003-0.002-0.011-0.002-0.022,0c-0.011,0.004-0.024,0.008-0.037,0.01C0.372,0.782,0.359,0.786,0.349,0.792    c-0.01,0.002-0.018,0.004-0.023,0.004V0.729h0.237l0.04,0.08C0.61,0.788,0.62,0.765,0.631,0.743    c0.013-0.021,0.028-0.039,0.05-0.053L0.523,0.532c0.004-0.006,0.013-0.018,0.023-0.037s0.016-0.033,0.016-0.041    c0-0.002-0.005-0.008-0.016-0.018c-0.011-0.01-0.02-0.018-0.023-0.021c-0.009-0.006-0.028-0.02-0.059-0.039    c-0.029-0.021-0.05-0.035-0.06-0.041c0.005,0,0.015,0,0.028-0.002c0.015,0,0.024-0.002,0.03-0.002    c0.029,0,0.053,0.002,0.073,0.006c0.02,0.004,0.041,0.018,0.065,0.039C0.599,0.335,0.592,0.308,0.582,0.29    C0.571,0.274,0.558,0.259,0.539,0.249C0.521,0.237,0.5,0.229,0.478,0.222C0.455,0.214,0.431,0.198,0.405,0.179    c0.005,0,0.018-0.002,0.039-0.004c0.021,0,0.034,0,0.039,0c0.028,0,0.057,0,0.082,0.004c0.026,0.002,0.052,0.016,0.075,0.039    c0-0.004,0.001-0.008,0.003-0.018c0.001-0.01,0.002-0.018,0.002-0.021c0-0.023-0.01-0.045-0.03-0.061    c-0.02-0.016-0.042-0.029-0.068-0.041C0.521,0.065,0.493,0.056,0.468,0.046C0.441,0.036,0.42,0.028,0.405,0.021h0.039h0.039    c0.013,0.002,0.04,0.008,0.079,0.018c0.04,0.01,0.065,0.016,0.078,0.021c0.006-0.006,0.014-0.018,0.024-0.037    c0.01-0.02,0.016-0.033,0.016-0.041c0-0.006-0.006-0.012-0.016-0.02c-0.011-0.01-0.019-0.016-0.024-0.02H0.603    C0.595-0.063,0.579-0.071,0.557-0.083C0.534-0.093,0.51-0.104,0.483-0.118C0.457-0.13,0.433-0.144,0.411-0.153    c-0.022-0.01-0.038-0.018-0.046-0.023c0.008,0,0.024,0,0.05-0.002c0.024-0.002,0.041-0.002,0.049-0.002    c0.053,0,0.097,0.004,0.132,0.012c0.035,0.008,0.077,0.031,0.124,0.07c0.008-0.037,0.001-0.068-0.021-0.096    c-0.021-0.027-0.05-0.051-0.081-0.07C0.586-0.284,0.553-0.3,0.519-0.313C0.485-0.325,0.46-0.331,0.444-0.335h0.236L0.72-0.274    h0.257v0.217l0.059-0.238C1.04-0.29,1.048-0.276,1.058-0.255c0.009,0.02,0.015,0.033,0.018,0.039    c0.021,0.133,0.033,0.277,0.039,0.434c0.005,0.154,0.005,0.299,0,0.434C1.138,0.673,1.16,0.685,1.179,0.688    c0.021,0.004,0.044,0.006,0.073,0.006c0.029,0,0.06-0.004,0.093-0.012c0.033-0.008,0.049-0.031,0.049-0.066    c0-0.006,0-0.014-0.002-0.023c0-0.012-0.002-0.018-0.002-0.02c0-0.004-0.006-0.01-0.017-0.021c-0.013-0.01-0.02-0.018-0.022-0.02    C1.346,0.522,1.35,0.503,1.362,0.474h0.146L1.193,0.415V0.372c0.005,0,0.019,0,0.039,0c0.021,0.002,0.034,0.004,0.04,0.004    c0.01,0,0.028-0.004,0.055-0.006c0.026-0.006,0.054-0.008,0.084-0.014c0.031-0.002,0.06-0.008,0.086-0.01    C1.522,0.341,1.54,0.339,1.548,0.335c-0.04-0.01-0.076-0.031-0.112-0.064C1.399,0.237,1.372,0.206,1.351,0.179    c0-0.014-0.001-0.039-0.002-0.08C1.347,0.06,1.347,0.032,1.347,0.021c0-0.061,0.002-0.113,0.004-0.162    C1.354-0.188,1.366-0.239,1.39-0.296C1.396-0.3,1.401-0.304,1.409-0.304C1.46-0.237,1.499-0.183,1.528-0.14    c0.028,0.043,0.056,0.084,0.08,0.123C1.634,0.021,1.646,0.046,1.646,0.06v-0.158h0.117v0.395c0,0.016,0.013,0.027,0.036,0.035    c0.023,0.006,0.044,0.008,0.06,0.008h0.027c0.048,0,0.078-0.02,0.091-0.062c0.014-0.041,0.02-0.09,0.018-0.145    C1.994,0.079,1.989,0.028,1.979-0.017C1.971-0.063,1.966-0.091,1.966-0.099h0.391V0.69c0.002-0.029,0.006-0.08,0.012-0.156    C2.373,0.46,2.379,0.38,2.386,0.296c0.007-0.084,0.013-0.164,0.018-0.238c0.005-0.074,0.01-0.127,0.012-0.156    c0-0.008,0.002-0.021,0.006-0.039c0.004-0.018,0.008-0.039,0.012-0.059c0.004-0.021,0.009-0.041,0.012-0.059    c0.005-0.02,0.008-0.033,0.01-0.041C2.457-0.3,2.465-0.313,2.476-0.335c0.013-0.02,0.019-0.033,0.019-0.039    c0-0.016-0.004-0.035-0.012-0.059C2.475-0.456,2.467-0.481,2.459-0.511C2.45-0.538,2.443-0.565,2.435-0.595    C2.427-0.624,2.423-0.649,2.423-0.673c0.079,0,0.146,0.002,0.199,0.008c0.055,0.004,0.104,0.01,0.151,0.018    c0.048,0.006,0.099,0.014,0.152,0.02c0.054,0.006,0.12,0.012,0.199,0.018c0,0.002,0,0.006,0.002,0.01    c0.001,0.004,0.002,0.008,0.002,0.01c0,0.023-0.004,0.037-0.014,0.043C3.106-0.542,3.094-0.54,3.078-0.54    c-0.014,0-0.026,0-0.04-0.002c-0.013,0-0.023,0.002-0.031,0.01c-0.008,0.01-0.018,0.027-0.027,0.059    C2.969-0.444,2.964-0.425,2.967-0.413C2.97-0.409,2.98-0.401,3.001-0.392c0.02,0.01,0.034,0.016,0.045,0.018h0.02    c0.014,0,0.028,0,0.046,0.002C3.128-0.37,3.145-0.37,3.161-0.37h0.043c0.014,0,0.039,0,0.078-0.002    c0.039-0.002,0.065-0.002,0.079-0.002c0.023-0.014,0.042-0.035,0.054-0.062c0.012-0.029,0.02-0.055,0.025-0.076H3.282    C3.29-0.544,3.303-0.575,3.318-0.604C3.334-0.634,3.36-0.649,3.396-0.649H3.44L3.914-0.61l0.039,0.078l1.734,0.158l0.079,0.078    l0.079-0.117C5.843-0.419,5.831-0.435,5.808-0.462C5.785-0.487,5.759-0.521,5.728-0.56c-0.032-0.039-0.059-0.07-0.079-0.09    C5.601-0.7,5.539-0.763,5.465-0.839C5.39-0.915,5.316-0.989,5.244-1.06c-0.073-0.072-0.161-0.158-0.267-0.26h-9.344L-5.628-1.28    c-0.008,0-0.021,0.021-0.039,0.068c-0.019,0.047-0.037,0.1-0.055,0.16C-5.74-0.991-5.756-0.933-5.77-0.874    C-5.782-0.817-5.789-0.774-5.789-0.749z M1.903,0.021C1.89,0.011,1.871-0.007,1.848-0.028c-0.024-0.023-0.035-0.047-0.035-0.07    h0.091V0.021z M1.863,0.06c0.006,0.014-0.001,0.02-0.02,0.02c-0.016,0-0.022-0.006-0.021-0.02c0.003-0.014,0.01-0.02,0.021-0.02    C1.852,0.04,1.857,0.046,1.863,0.06z M1.588,0.14c0.021,0,0.03-0.014,0.03-0.041c0-0.025-0.01-0.039-0.03-0.039    c-0.021,0-0.032,0.014-0.032,0.039C1.556,0.126,1.566,0.14,1.588,0.14z M1.351,0.296V0.257L1.39,0.296H1.351z M1.312-0.208    c-0.014,0-0.029-0.002-0.05-0.004C1.242-0.216,1.223-0.22,1.204-0.224C1.187-0.229,1.171-0.239,1.158-0.249    C1.145-0.263,1.138-0.276,1.138-0.296h0.174V-0.208z M1.28,0.149c-0.037,0-0.068-0.006-0.095-0.02    c-0.026-0.012-0.04-0.039-0.04-0.082c0.037,0,0.068,0.006,0.096,0.02C1.267,0.081,1.28,0.108,1.28,0.149z M1.272,0.312    c-0.024,0-0.042-0.01-0.056-0.033C1.204,0.257,1.195,0.235,1.193,0.218h0.079V0.312z M1.272-0.058l-0.079-0.08h0.079V-0.058z     M1.232-0.216c0.021,0,0.032-0.014,0.032-0.039c0-0.027-0.011-0.041-0.032-0.041c-0.021,0-0.031,0.014-0.031,0.041    C1.201-0.229,1.212-0.216,1.232-0.216z M1.232,0.099c-0.005-0.012-0.012-0.02-0.021-0.02c-0.01,0-0.017,0.008-0.019,0.02    c-0.003,0.014,0.004,0.02,0.019,0.02C1.23,0.118,1.238,0.112,1.232,0.099z M1.153-0.019v-0.08l0.079,0.08H1.153z M0.562-0.138    c-0.005-0.014-0.013-0.02-0.021-0.02c-0.01,0-0.017,0.006-0.019,0.02c-0.003,0.014,0.003,0.02,0.019,0.02    C0.561-0.118,0.567-0.124,0.562-0.138z M0.523,0.651V0.612l0.039,0.039H0.523z M0.483,0.927c-0.021,0-0.031-0.014-0.031-0.039    c0-0.027,0.01-0.039,0.031-0.039c0.021,0,0.031,0.012,0.031,0.039C0.515,0.913,0.505,0.927,0.483,0.927z M0.483-0.216    c-0.021,0-0.031-0.014-0.031-0.039c0-0.027,0.01-0.041,0.031-0.041c0.021,0,0.031,0.014,0.031,0.041    C0.515-0.229,0.505-0.216,0.483-0.216z M0.325-0.058v-0.08l0.158,0.08H0.325z M0.444,0.14c-0.021,0-0.031-0.014-0.031-0.041    c0-0.025,0.01-0.039,0.031-0.039c0.021,0,0.031,0.014,0.031,0.039C0.476,0.126,0.465,0.14,0.444,0.14z M0.405,0.655    c-0.017,0-0.032-0.002-0.047-0.006C0.345,0.646,0.334,0.632,0.325,0.612c0.003,0,0.009-0.002,0.018-0.002    c0.01-0.002,0.017-0.002,0.022-0.002c0.016,0,0.03,0.002,0.046,0.006C0.425,0.618,0.437,0.63,0.444,0.651    c-0.003,0-0.009,0-0.019,0.002C0.417,0.653,0.41,0.655,0.405,0.655z M0.325,0.532V0.481c0.019,0,0.041,0.002,0.067,0.008    c0.026,0.006,0.044,0.02,0.052,0.043H0.325z M0.325,0.888V0.849h0.08v0.039H0.325z M0.405,0.415l-0.08-0.039    c0.003,0,0.007-0.002,0.011-0.004c0.004,0,0.007,0,0.01,0c0.003,0,0.009,0,0.02,0.004C0.37,0.378,0.377,0.384,0.387,0.394    C0.396,0.401,0.402,0.409,0.405,0.415z M0.405,0.257l-0.08-0.039c0.003,0,0.007,0,0.011-0.002c0.004-0.002,0.007-0.002,0.01-0.002    c0.003,0,0.009,0,0.02,0.004C0.37,0.22,0.377,0.226,0.387,0.235C0.396,0.245,0.402,0.251,0.405,0.257z M0.325-0.255v-0.08    l0.08,0.039L0.325-0.255z M0.325,0.099V0.06h0.04L0.325,0.099z M0.207,0.532c0.021,0,0.032-0.012,0.032-0.039    c0-0.025-0.011-0.039-0.032-0.039c-0.021,0-0.031,0.014-0.031,0.039C0.176,0.521,0.187,0.532,0.207,0.532z M0.168,0.573    C0.182,0.567,0.188,0.56,0.188,0.552c0-0.008-0.007-0.014-0.021-0.02c-0.014-0.006-0.02,0.002-0.02,0.02    C0.148,0.571,0.154,0.577,0.168,0.573z M-5.825-0.532c0.014-0.012,0.021-0.033,0.021-0.059c0-0.025-0.007-0.047-0.021-0.059    c-0.005-0.006-0.01-0.002-0.014,0.012c-0.004,0.014-0.006,0.029-0.006,0.047s0.002,0.033,0.006,0.047    C-5.835-0.53-5.83-0.526-5.825-0.532z" fill="#FFFFFF"/>
    </g>
  </g></svg>