<?xml version="1.0" standalone="no"?>
<svg xmlns="http://www.w3.org/2000/svg" viewBox="-6.37 -6.37 12.74 12.74" color="#212121" width="75" height="75"><g transform="matrix(1 0 0 -1 0 0)">
    <g xmlns="http://www.w3.org/2000/svg">
      <circle class="primary" fill="currentColor" cx="0" cy="0" r="6.245"/>
      <path class="secondary" d="M0,6.12c3.38,0,6.12-2.74,6.12-6.12S3.38-6.12,0-6.12S-6.12-3.38-6.12,0S-3.38,6.12,0,6.12 M0,6.37    c-3.513,0-6.37-2.857-6.37-6.37S-3.513-6.37,0-6.37S6.37-3.513,6.37,0S3.513,6.37,0,6.37L0,6.37z" fill="#FFFFFF"/>
    </g>
    <path xmlns="http://www.w3.org/2000/svg" id="Guided_Missile_submarines_1_" class="secondary" d="M5.983-0.211c0,0.023-0.019,0.044-0.053,0.065   C5.656,0.083,4.605,0.151,4.605,0.151c-0.029,0-0.286,0.042-0.51,0.129C3.872,0.366,3.719,0.424,3.719,0.424H3.475v0.134H3.466   v0.061H3.46V0.558H3.45V0.424H3.37v0.067H3.363V0.424H3.23v0.101H3.225V0.424H3.067c0,0,0,0,0,0.002v0.022   c0,0.006-0.005,0.013-0.012,0.014V0.71H3.049V0.462C3.041,0.461,3.035,0.454,3.035,0.448V0.426c0-0.002,0-0.002,0-0.002H2.923   c-0.073,0-0.231-0.092-0.231-0.092C2.574,0.34,2.354,0.351,2.354,0.351h-3.716c-0.275,0-0.697-0.03-0.697-0.03L-2.875,0.2   c-0.826-0.043-1.518-0.1-2.008-0.168l0,0c-0.06-0.01-0.197,0.141-0.197,0.141c-0.198,0.07-0.271-0.061-0.271-0.061   c-0.037-0.148-0.079-0.18-0.098-0.185c-0.004-0.002-0.01-0.002-0.014-0.002l0,0l0,0c-0.04-0.002-0.081-0.005-0.119-0.009   C-5.584,0-5.652,0.065-5.738,0.065s-0.156-0.069-0.156-0.156v-0.052c-0.058-0.021-0.089-0.045-0.089-0.071   c0-0.023,0.031-0.047,0.089-0.068v-0.05c0-0.085,0.07-0.156,0.156-0.156c0.083,0,0.151,0.064,0.156,0.146   c0.048-0.004,0.098-0.008,0.15-0.01c0.021-0.019,0.052-0.063,0.08-0.176c0,0,0.073-0.132,0.271-0.062c0,0,0.115,0.127,0.181,0.141   c0.953-0.135,2.688-0.229,4.698-0.238h0.003C2.775-0.775,4.562-0.58,4.562-0.58c0.966,0.052,1.277,0.22,1.376,0.31   C5.969-0.251,5.983-0.229,5.983-0.211z" fill="#FFFFFF"/>
  </g></svg>