<?xml version="1.0" standalone="no"?>
<svg xmlns="http://www.w3.org/2000/svg" viewBox="-9.01 -9 18.01 18" color="#212121" width="75" height="75"><g transform="matrix(1 0 0 -1 0 0)">
		<g xmlns="http://www.w3.org/2000/svg">
			<path class="secondary" d="M8.46,1.26C5.54,0.79,2.58,0.47-0.38,0.31l-0.25-0.65l-2.54-0.11C-3.28-0.27-3.41,0-3.59,0.35    c0.06,0.03,0.39,0.21,0.96,0.51c-0.09,0.25-0.25,0.47-0.44,0.66C-3.03,1.55-2.8,1.67-2.4,1.88c0.58,0.3,1.18,0.6,1.77,0.91    c0.02-0.01,0.03-0.02,0.05-0.02c0.06,0,0.13,0.05,0.17,0.15C-0.3,2.98-0.18,3.04-0.06,3.1c0.11,0.05,0.23,0.11,0.33,0.2    C0.27,3.34,0.22,3.41,0.17,3.5l2.07,1.02l0.03-0.07l1.08,0.53L3.33,5.05L3.21,5.29L3.06,5.61L1.97,5.06l0.03-0.05l-2.08-1.03    L-0.1,4.03c-0.05,0.1-0.08,0.15-0.1,0.15l-0.69-0.34c-0.02,0-0.04,0.01-0.06,0.01C-1.04,3.8-1.09,3.76-1.1,3.73    c-0.15-0.08-0.4-0.22-0.76-0.41c-0.56-0.29-0.89-0.46-0.97-0.49c-0.02,0.01-0.04,0.02-0.06,0.02s-0.05-0.01-0.07-0.02L-3.03,2.9    l-0.5-0.24c-0.09,0.19-0.2,0.35-0.32,0.52l-0.46-0.22h-0.2c-0.02,0-0.03,0.01-0.04,0.04s-0.03,0.04-0.04,0.04    c-0.28-0.11-0.54-0.26-0.78-0.44c0.01-0.01,0.01-0.03,0.02-0.04c0-0.01,0.01-0.03,0.01-0.04c0-0.08-0.16-0.21-0.48-0.39    C-6.04,2.01-6.26,1.9-6.47,1.78l0.33-0.67C-6.28,1-6.43,0.92-6.6,0.87c-0.03,0.02-0.05,0.05-0.07,0.09    c0.04,0.03,0.09,0.06,0.15,0.09c-0.08,0.08-0.19,0.16-0.29,0.22C-6.85,1.31-6.88,1.37-6.9,1.42c-0.05,0.09-0.08,0.15-0.1,0.15    c-0.28-0.14-0.54-0.28-0.8-0.45c0.04-0.09,0.08-0.2,0.12-0.3C-7.69,0.77-7.7,0.72-7.71,0.68c-0.02-0.05-0.03-0.09-0.04-0.14    c0.02-0.05,0.04-0.08,0.07-0.09c0.03,0.01,0.07,0.03,0.12,0.05l0.55-1.03c0.3,0.16,0.75,0.4,1.35,0.71    c0.12-0.17,0.23-0.35,0.28-0.56c-0.01-0.05-0.02-0.1-0.04-0.16l-3.3-0.14c0.16-1.97,0.97-3.82,2.32-5.27    c0.08-0.09,0.17-0.17,0.26-0.25c3.55,0.03,7.09,0.4,10.57,1.12L8.46,1.26z" fill="#FFFFFF"/>
			<path class="primary" fill="currentColor" d="M-0.01,9c-4.97,0-9-4.03-9-9l0,0c0-0.24,0.01-0.47,0.03-0.7l3.56,0.16c0.02,0.05,0.03,0.1,0.04,0.16    c-0.05,0.21-0.16,0.4-0.28,0.56c-0.6-0.31-1.05-0.55-1.35-0.71L-7.56,0.5c-0.05-0.02-0.09-0.04-0.12-0.05    c-0.03,0.01-0.05,0.04-0.07,0.09c0.01,0.04,0.02,0.08,0.04,0.14c0.01,0.04,0.02,0.09,0.03,0.14c-0.04,0.1-0.08,0.21-0.12,0.3    c0.26,0.17,0.52,0.31,0.8,0.45c0.02,0,0.05-0.05,0.1-0.15c0.02-0.05,0.05-0.1,0.08-0.15c0.1-0.06,0.21-0.14,0.29-0.22    c-0.05-0.03-0.1-0.06-0.15-0.09c0.02-0.04,0.04-0.07,0.07-0.09C-6.43,0.92-6.28,1-6.14,1.12l-0.33,0.67    c0.22,0.11,0.44,0.23,0.66,0.35c0.32,0.18,0.48,0.3,0.48,0.39c0,0.01-0.01,0.03-0.01,0.04C-5.36,2.57-5.36,2.6-5.37,2.61    c0.24,0.18,0.5,0.32,0.78,0.44c0.01,0,0.03-0.01,0.04-0.04c0.01-0.03,0.02-0.04,0.04-0.04h0.2l0.46,0.22    c0.12-0.17,0.23-0.33,0.32-0.52l0.5,0.24l0.06-0.06c0.02,0.01,0.05,0.02,0.07,0.02s0.04-0.01,0.06-0.02    c0.08,0.03,0.41,0.2,0.97,0.49c0.36,0.19,0.61,0.32,0.76,0.41c0.01,0.03,0.06,0.07,0.15,0.11c0.02,0,0.04-0.01,0.06-0.01    l0.69,0.34c0.02,0,0.05-0.04,0.1-0.15l0.02-0.05l2.08,1.03L1.97,5.06l1.08,0.54l0.16-0.31l0.11-0.24l0,0l0.03-0.07L2.28,4.45    L2.24,4.52L0.17,3.5c0.05-0.09,0.09-0.17,0.1-0.21c-0.1-0.08-0.22-0.15-0.33-0.2C-0.18,3.04-0.3,2.98-0.41,2.91    c-0.04-0.09-0.1-0.15-0.17-0.15c-0.02,0-0.03,0.01-0.05,0.02c-0.59-0.3-1.19-0.6-1.77-0.91c-0.4-0.21-0.62-0.32-0.67-0.36    c0.19-0.19,0.34-0.41,0.44-0.66c-0.57-0.3-0.9-0.48-0.96-0.51C-3.41,0-3.28-0.27-3.17-0.45l2.54,0.11l0.25,0.65    c2.96,0.16,5.92,0.48,8.84,0.95L4.43-5.08C0.83-5.83-2.84-6.21-6.52-6.22C-3.08-9.81,2.61-9.95,6.2-6.51s3.73,9.14,0.3,12.73    C4.81,7.99,2.45,9-0.01,9L-0.01,9z"/>
		</g>
		<g xmlns="http://www.w3.org/2000/svg" id="Circle-12_3_">
			<path class="primary" fill="currentColor" d="M-0.01,8.74c4.82,0,8.75-3.92,8.75-8.73c0-1.57-0.43-3.12-1.24-4.48C5.93-7.1,3.06-8.74-0.01-8.74     c-2.45,0-4.72,0.99-6.39,2.78C-7.9-4.33-8.74-2.22-8.74,0C-8.74,4.82-4.83,8.74-0.01,8.74 M-0.01,9c-4.97,0-9-4.03-9-8.99     c0-2.36,0.92-4.53,2.42-6.14C-4.94-7.89-2.61-9-0.01-9c3.28,0,6.16,1.76,7.73,4.4c0.81,1.35,1.28,2.93,1.28,4.61     C8.99,4.97,4.96,9-0.01,9L-0.01,9z"/>
		</g>
	</g></svg>