<?xml version="1.0" standalone="no"?>
<svg xmlns="http://www.w3.org/2000/svg" viewBox="-6.37 -6.37 12.74 12.74" color="#212121" width="75" height="75"><g transform="matrix(1 0 0 -1 0 0)">
    <g xmlns="http://www.w3.org/2000/svg">
      <circle class="primary" fill="currentColor" cx="0" cy="0" r="6.245"/>
      <path class="secondary" d="M0,6.12c3.38,0,6.12-2.74,6.12-6.12S3.38-6.12,0-6.12S-6.12-3.38-6.12,0S-3.38,6.12,0,6.12 M0,6.37    c-3.513,0-6.37-2.857-6.37-6.37S-3.513-6.37,0-6.37S6.37-3.513,6.37,0S3.513,6.37,0,6.37L0,6.37z" fill="#FFFFFF"/>
    </g>
    <g xmlns="http://www.w3.org/2000/svg" id="Harbor_Tugs_2_">
      <g>
        <path class="secondary" d="M5.581-1.026l0.002,0.047c0.066,0.023,0.116,0.046,0.116,0.046C5.698-0.757,5.634-0.642,5.634-0.642     L5.548-0.639L5.539-0.615C5.532-0.586,5.485-0.599,5.485-0.599l-0.109-0.02l0.01,0.06c0.004,0.021-0.01,0.041-0.031,0.046     C5.333-0.51,5.312-0.524,5.309-0.546L5.294-0.633L4.793-0.718v0.015c0.001,0.03-0.022,0.056-0.054,0.057     c-0.03,0-0.054-0.025-0.056-0.054L4.682-0.737L4.612-0.75l0.004,0.131c0,0.023-0.02,0.046-0.045,0.046     c-0.018,0-0.033-0.01-0.04-0.024c-0.011,0.012-0.026,0.02-0.044,0.02c-0.032,0-0.06-0.027-0.06-0.06L4.423-0.782L4.368-0.791     l0.001,0.028c0,0.033-0.026,0.062-0.06,0.062c-0.007,0-0.014-0.001-0.019-0.003C4.273-0.683,4.25-0.67,4.223-0.67H4.218     C4.17-0.667,4.131-0.705,4.13-0.752L4.127-0.857v-0.001H4.118c0,0.03-0.023,0.057-0.055,0.057C4.033-0.8,4.008-0.824,4.006-0.855     v-0.019L3.858-0.892l0.001,0.039L3.793-0.85l0.001,0.078L3.749-0.771l0.002,0.094l0.144,0.082l0.124,0.028v0.02L3.991-0.541     L3.972-0.23L3.788-0.224L3.671-0.24l0.004,0.171l0.248,0.224l0.136,0.054L4.09,0.221l0.003,0.036L4.058,0.261l0.006,0.293     L3.512,0.555L3.514,0.78l0.047,0.367l0.107-0.002l0.013,0.018L3.559,1.28h-0.22l0.002,0.08c0,0.005-0.001,0.011-0.002,0.016     c0.03,0.002,0.057,0.023,0.062,0.055c0.006,0.036-0.018,0.07-0.054,0.078L3.31,1.516C3.284,1.521,3.258,1.51,3.243,1.488     C3.241,1.491,3.238,1.493,3.235,1.497l-0.09,0.954l0.083-0.948C3.221,1.507,3.213,1.51,3.204,1.513L3.186,1.516l-0.087,0.91     l0.08-0.909L3.166,1.519C3.13,1.526,3.096,1.503,3.088,1.466C3.083,1.435,3.099,1.405,3.126,1.393     C3.123,1.384,3.12,1.375,3.12,1.364L3.118,1.275L2.862,1.261l0.164,0.232l0.001,0.056H3.021l0.001,0.035h0.014     c0.024,0,0.044,0.02,0.045,0.044c0,0.024-0.018,0.044-0.043,0.045L2.944,1.675c-0.023,0-0.044-0.02-0.044-0.043     C2.899,1.608,2.919,1.587,2.942,1.586h0.009L2.95,1.548H2.92L2.234,3.322L2.229,3.407c0,0.013-0.011,0.024-0.025,0.024     C2.189,3.43,2.179,3.418,2.18,3.405l0.01-0.191L2.132,3.265L2.126,3.396H2.112l0.006-0.117L2.052,3.337l0.001,0.061H2.041     l0.001,0.044c0.003,0,0.005,0,0.008,0c0.031,0,0.057,0.002,0.057,0.007S2.081,3.458,2.05,3.458     C2.019,3.459,1.993,3.456,1.993,3.452c0-0.004,0.015-0.007,0.035-0.008L2.027,3.398h-0.01L2.016,3.322L2.12,3.228l0.014-0.334     L1.87,2.757l0.004-0.004l0.275-0.224L2.19,1.544H2.18L2.175,1.165l-0.21-0.709L1.909,0.457l0.002,0.067L1.37,0.515L1.369,0.431     L1.228,0.424L1.24,1.013L1.222,0.424L1.024,0.413l0.008,0.482L1.019,0.411l-0.16-0.008L0.838,0.595     C0.85,0.598,0.86,0.602,0.87,0.606C0.877,0.6,0.887,0.595,0.896,0.595c0.021,0,0.038,0.017,0.039,0.037     c0,0.014-0.005,0.024-0.014,0.031c0.003,0.01,0.005,0.022,0.007,0.034c0,0.058-0.046,0.106-0.104,0.107     C0.767,0.806,0.719,0.761,0.718,0.702C0.716,0.644,0.761,0.597,0.819,0.595L0.84,0.402L0.698,0.395L0.662,0.786     C0.647,0.796,0.624,0.804,0.599,0.81L0.61,1.278c0.047-0.001,0.084,0.004,0.084,0.01c0,0.007-0.043,0.014-0.098,0.015     C0.544,1.304,0.499,1.3,0.499,1.293S0.538,1.28,0.588,1.278L0.577,0.812c-0.032,0.007-0.06,0.009-0.06,0.009l0.001,0.012     L0.456,0.834V0.812l-0.027-0.01L0.402,0.854l0.021-0.001L0.426,0.92L0.331,0.923L0.328,0.859l0.018-0.001L0.345,0.835     l-0.06,0.002L0.284,0.769l-0.083-0.03L0.056,0.93c-0.02-0.007-0.014-0.112-0.014-0.112l-0.065,0.1     C-0.051,0.95-0.055,0.919-0.055,0.919l-0.006-0.18l0.03-0.058l-0.161-0.027c-0.081-0.02-0.125-0.121-0.125-0.121l-0.018-0.049     L-0.862,0.45c-0.004,0.014-0.017,0.025-0.033,0.025c-0.018,0-0.033-0.014-0.033-0.032C-0.93,0.425-0.915,0.408-0.896,0.408     c0.008,0,0.016,0.003,0.022,0.009l0.424-0.26l-0.019-0.052l-0.15-0.48c-0.068,0.064-0.139,0.051-0.139,0.051L-0.959-0.35     c-0.05,0.042-0.06,0.033-0.124,0.034c-0.065,0.001-0.093-0.067-0.093-0.067l-0.213-0.033l0.003,0.043     C-1.315-0.28-1.41-0.232-1.41-0.232l-0.169,0.009l0.003,0.146h-0.018c0.002,0.097-0.02,0.087-0.02,0.087     c-0.017,0-0.007-0.112-0.007-0.112l-0.035,0.001l0.001,0.064l-0.02,0.001l0.001,0.019l-0.021,0.001l-0.002-0.105l0.075-0.002     L-1.72-0.4l-0.325,0.906l-0.014-0.005l0.021-0.062c0.002-0.021,0.007-0.067,0.018-0.127c-0.02-0.003-0.115-0.02-0.141-0.038     C-2.19,0.253-2.198,0.176-2.198,0.176s0.016-0.002,0.025-0.062C-2.159,0.052-2.138,0.03-2.138,0.03     c0.074,0.035,0.185,0.016,0.207,0.011c0.059-0.154,0.134-0.327,0.174-0.378l0.031-0.087L-1.73-0.438l-0.25-0.049     C-2.011-0.498-1.985-0.51-1.985-0.51l0.01-0.285H-1.99l-0.001-0.05l0.012-0.013C-2.102-0.92-2.097-1.022-2.097-1.022     l-0.076,0.019C-2.35-0.947-2.395-1.062-2.395-1.062l-0.029,0.003l0.003,0.155L-2.55-0.907l-0.003-0.148l-0.03-0.004l0.002,0.144     l-0.116-0.002l-0.005-0.167c-0.027,0-0.051-0.021-0.051-0.05c-0.001-0.028,0.021-0.051,0.049-0.051V-1.19l-0.001-0.053     C-3.384-1.259-4.113-1.11-4.113-1.11l-0.008-0.024l-0.075,0.138c-0.032,0.068-0.098,0.045-0.098,0.045     C-4.37-0.839-4.511-0.867-4.511-0.867c-0.114-0.034-0.328-0.028-0.425-0.031c-0.096-0.003-0.193-0.13-0.193-0.13     c-0.012,0.018-0.06,0.007-0.06,0.007c-0.07,0.001-0.129-0.142-0.129-0.142s-0.271,0.007-0.237-0.086     c0.033-0.096-0.011-0.166-0.011-0.166c-0.259-0.066-0.083-0.206-0.083-0.206c0.033-0.087-0.004-0.15-0.004-0.15     C0.073-2.934,5.563-1.863,5.604-1.763c0.04,0.1,0.004,0.166,0.004,0.166c0.01,0.033,0.001,0.053,0.001,0.053L5.531-1.542     L5.536-1.38c0.062,0.018,0.12,0.065,0.12,0.065C5.679-1.153,5.64-1.009,5.64-1.009L5.581-1.026z M-1.952,0.119l-0.053,0.164     c-0.002,0.001-0.002,0.003-0.003,0.006C-2.018,0.34-2.022,0.381-2.026,0.41l0.26-0.721C-1.816-0.23-1.897-0.031-1.952,0.119z      M-0.443,0.178l-0.404,0.247l0.502,0.028L-0.443,0.178z M-0.342,0.46l-0.515-0.029l-0.006,0.004c0,0.002,0,0.004,0,0.006v0.002     l0.526,0.033L-0.342,0.46z M2.177,2.908l0.028,0.001L2.21,2.81L2.151,2.809L2.148,2.892L2.177,2.908z M2.147,2.907h0.015     L2.148,2.9L2.147,2.907z M2.192,2.915l0.013,0.006l0.001-0.005L2.192,2.915z M2.205,2.929L2.177,2.915l-0.03-0.001L2.143,3.007     L2.2,3.009L2.205,2.929z M2.2,3.016L2.143,3.015L2.139,3.112l0.057,0.002L2.2,3.016z M2.192,3.163L2.195,3.12H2.139L2.134,3.215     L2.192,3.163z M1.883,2.755l0.251,0.131L2.15,2.538L1.883,2.755z M2.151,2.801l0.06,0.002l0.006-0.1H2.155L2.151,2.801z      M2.157,2.695l0.06,0.001l0.005-0.102L2.16,2.593L2.157,2.695z M2.161,2.586l0.061,0.002l0.005-0.081L2.188,2.505L2.163,2.526     L2.161,2.586z M2.228,2.473L2.197,2.499h0.029L2.228,2.473z M2.178,2.505H2.165v0.012L2.178,2.505z M2.165,2.499h0.021     l0.042-0.035l0.003-0.069L2.169,2.394L2.165,2.499z M2.233,2.388l0.005-0.102L2.175,2.284L2.17,2.387L2.233,2.388z M2.238,2.278     l0.006-0.099H2.179L2.175,2.277L2.238,2.278z M2.244,2.173l0.005-0.1H2.183L2.179,2.172L2.244,2.173z M2.249,2.066l0.006-0.09     L2.188,1.973L2.183,2.065L2.249,2.066z M2.188,1.966l0.067,0.002l0.006-0.1h-0.07L2.188,1.966z M2.26,1.862L2.264,1.8     L2.195,1.799L2.191,1.861L2.26,1.862z M2.264,1.794l0.007-0.13L2.2,1.662l-0.005,0.13L2.264,1.794z M2.206,1.544L2.2,1.655     l0.07,0.002l0.007-0.112L2.206,1.544z M2.669,1.657c0.011,0.007,0.02,0.02,0.02,0.035c0,0.025-0.019,0.044-0.042,0.044     L2.574,1.738c-0.022,0-0.044-0.019-0.044-0.041C2.529,1.682,2.538,1.667,2.549,1.66H2.537L2.536,1.62l0.026-0.002V1.546H2.474     L2.361,2.71L2.46,1.546L2.327,1.545L2.235,3.301l0.677-1.753L2.657,1.547v0.069H2.68l0.001,0.041     C2.681,1.657,2.669,1.657,2.669,1.657z" fill="#FFFFFF"/>
      </g>
    </g>
  </g></svg>