<?xml version="1.0" standalone="no"?>
<svg xmlns="http://www.w3.org/2000/svg" viewBox="-6.37 -6.37 12.74 12.74" color="#212121" width="75" height="75"><g transform="matrix(1 0 0 -1 0 0)">
    <g xmlns="http://www.w3.org/2000/svg">
      <circle class="primary" fill="currentColor" cx="0" cy="0" r="6.245"/>
      <path class="secondary" d="M0,6.12c3.38,0,6.12-2.74,6.12-6.12S3.38-6.12,0-6.12S-6.12-3.38-6.12,0S-3.38,6.12,0,6.12 M0,6.37    c-3.513,0-6.37-2.857-6.37-6.37S-3.513-6.37,0-6.37S6.37-3.513,6.37,0S3.513,6.37,0,6.37L0,6.37z" fill="#FFFFFF"/>
    </g>
    <g xmlns="http://www.w3.org/2000/svg" id="Hospital_Ships_2_">
      <path class="secondary" d="M5.922-0.422c0,0-0.087,0.013-0.255,0.031v0.046h0.005c0.01,0,0.018,0.007,0.019,0.017    c0.006,0.004,0.01,0.011,0.01,0.018c0,0.012-0.01,0.021-0.021,0.021H5.667v0.076c0,0.003-0.002,0.005-0.006,0.005    c-0.002,0-0.005-0.002-0.005-0.005v-0.076H5.644c-0.012,0-0.02-0.009-0.02-0.021c0-0.008,0.004-0.015,0.01-0.019    c0.001-0.01,0.008-0.017,0.018-0.017h0.006V-0.39C5.499-0.374,5.272-0.354,4.982-0.338L4.938-0.243H4.691l-0.02-0.028H4.578    L4.562-0.243H4.54L4.508,0.061L4.53-0.243H4.46L4.35-0.188L4.329-0.114L4.35-0.078v0.016H4.194L4.105,0.115l0.016,0.041    L4.106,0.193L4.044,0.195L4.043,0.334L4.04,0.195L3.923,0.198v0.049c0,0.007-0.005,0.013-0.012,0.013    C3.906,0.26,3.9,0.254,3.9,0.247V0.199H3.886V0.167H3.839v0.038c0,0.009-0.007,0.018-0.017,0.018S3.806,0.214,3.806,0.205V0.167    H3.682v0.056h0.052c0.003,0,0.007,0.002,0.007,0.006S3.737,0.235,3.734,0.235H3.631c-0.004,0-0.007-0.002-0.007-0.006    s0.003-0.006,0.007-0.006h0.037V0.167H3.613v0.04c0,0.008-0.006,0.016-0.016,0.016c-0.009,0-0.016-0.008-0.016-0.016v-0.04h-0.09    v0.101h0.056c0.005,0,0.007,0.004,0.007,0.008c0,0.003-0.002,0.006-0.007,0.006H3.435c-0.003,0-0.006-0.003-0.006-0.006    c0-0.004,0.003-0.008,0.006-0.008H3.48V0.167H3.323L3.271,0.123H3.027l-0.041,0.04H2.903c0.015,0,0.026,0.011,0.026,0.025    c0,0.014-0.012,0.025-0.026,0.025H2.865c-0.016,0-0.027-0.012-0.027-0.025c0-0.015,0.012-0.025,0.027-0.025H2.604L2.59,0.227    H2.586C2.601,0.238,2.61,0.256,2.61,0.276c0,0.034-0.027,0.06-0.061,0.06c-0.033,0-0.061-0.025-0.061-0.06    c0-0.021,0.011-0.038,0.025-0.05H2.506L2.494,0.163h-0.02L2.45,0.233H2.436v0.05c0,0.016-0.013,0.028-0.028,0.028    c-0.016,0-0.029-0.013-0.029-0.028v-0.05H2.36L2.32,0.508H2.239v0.021c0.001,0,0.002,0,0.003,0c0.014,0,0.024,0.01,0.024,0.022    S2.255,0.573,2.242,0.573c-0.001,0-0.002,0-0.003,0V0.59h0.016c0.013,0,0.023,0.01,0.023,0.023c0,0.008-0.005,0.017-0.011,0.02    c0.004,0.004,0.007,0.011,0.007,0.019c0,0.012-0.011,0.023-0.023,0.023H2.202c-0.014,0-0.024-0.012-0.024-0.023    c0-0.008,0.003-0.015,0.007-0.019C2.179,0.63,2.174,0.621,2.174,0.613c0-0.014,0.011-0.023,0.023-0.023h0.016V0.508H2.202    L2.191,0.463H2.166L2.135,0.806H2.113v0.16h0.029c0.005,0,0.008,0.003,0.008,0.007S2.147,0.979,2.142,0.979H2.113V1.04h0.016    c0.001,0,0.002,0,0.002,0.001V1.025h0.006L2.135,1.126L2.131,1.049c0,0.001-0.001,0.001-0.002,0.001H2.113v0.011    c0,0.002-0.002,0.005-0.006,0.005c-0.003,0-0.005-0.003-0.005-0.005V1.05H2.086c-0.002,0-0.004-0.003-0.004-0.006    s0.002-0.005,0.004-0.005h0.017v-0.06h-0.03c-0.003,0-0.006-0.002-0.006-0.006c0-0.002,0.001-0.004,0.002-0.006    C2.067,0.96,2.064,0.942,2.062,0.917C2.024,0.902,1.938,0.902,1.938,0.902s-0.065,0.01-0.094,0c-0.027-0.014-0.05,0-0.05,0V0.739    c0,0-0.001-0.011,0.05,0c0.049,0.009,0.088,0,0.103,0c0.012,0,0.094,0.011,0.114,0.013C2.062,0.664,2.072,0.561,2.1,0.463H2.094    L2.05,0.305H1.984L1.983,0.527L1.981,0.305H1.96V0.293l0.021-0.006L1.98,0.163L1.972,0.16L1.964,0.12V0.099H1.789L1.785,0.123    H1.483L1.472,0.099H0.891v-0.03H0.853v0.028H0.779L0.775,0.12H0.411L0.4,0.099H0.32L0.062-0.419H0c0,0,0.002-0.042-0.025-0.042    c-0.029,0-0.229-0.002-0.229-0.002l-0.008-0.008h-2.924l-0.01,0.012h-0.227c0,0-0.028,0.002-0.028,0.039h-0.061l-0.106,0.199    h-0.066V-0.2L-3.71-0.127h0.013l0.009,0.009H-3.8L-3.834-0.02h-0.054l-0.041-0.095h-0.259l-0.002,0.28l-0.002-0.28h-0.015    l-0.028-0.074h-0.199v0.035H-4.45v0.152l-0.001-0.152h-0.042v0.009h-0.021v-0.011h-0.042l-0.002,0.168L-4.56-0.156h-0.009v-0.061    h-0.207l-0.011-0.041h-0.398l-0.021-0.113h-0.016v-0.04H-5.25l-0.038-0.268H-5.87l-0.036-0.14H-5.93l0.006-0.03l-0.014-0.002    l0.046-0.263c0,0,0.027,0.012,0.038-0.014H5.602c0,0,0.099,0.393,0.217,0.521c0,0,0.093,0.11,0.119,0.135    C5.938-0.471,5.939-0.432,5.922-0.422z M3.867-0.508H3.618l0.001-0.25H3.368v0.25H3.119v0.25h0.249v0.25h0.251l-0.001-0.25h0.249    V-0.508z" fill="#FFFFFF"/>
      <polygon class="secondary" points="5.661,-0.03 5.659,-0.208 5.661,-0.208 5.664,-0.208   " fill="#FFFFFF"/>
    </g>
  </g></svg>