<?xml version="1.0" standalone="no"?>
<svg xmlns="http://www.w3.org/2000/svg" viewBox="-6.37 -6.37 12.74 12.74" color="#212121" width="75" height="75"><g transform="matrix(1 0 0 -1 0 0)">
    <g xmlns="http://www.w3.org/2000/svg">
      <circle class="primary" fill="currentColor" cx="0" cy="0" r="6.245"/>
      <path class="secondary" d="M0,6.12c3.38,0,6.12-2.74,6.12-6.12S3.38-6.12,0-6.12S-6.12-3.38-6.12,0S-3.38,6.12,0,6.12 M0,6.37    c-3.513,0-6.37-2.857-6.37-6.37S-3.513-6.37,0-6.37S6.37-3.513,6.37,0S3.513,6.37,0,6.37L0,6.37z" fill="#FFFFFF"/>
    </g>
    <polygon xmlns="http://www.w3.org/2000/svg" id="Littoral_Combat_2_" class="secondary" points="4.543,-0.217 3.201,-0.235 3.183,-0.138 3.351,-0.099 3.192,-0.09    3.173,-0.05 2.769,-0.05 2.75,-0.266 2.443,-0.275 2.404,-0.177 2.355,-0.148 2.297,-0.167 2.188,-0.167 2.201,-0.112 2.316,-0.03    2.307,-0.002 2.197,-0.079 2.128,-0.158 1.832,-0.187 1.783,-0.108 1.793,0.009 1.744,0.019 1.646,-0.002 1.497,-0.002    1.458,0.196 1.291,0.196 1.271,0.119 1.211,0.138 1.191,0.266 1.201,0.354 1.133,0.354 1.055,0.344 0.865,0.324 0.769,0.334    0.611,0.324 0.562,0.386 0.541,0.532 0.66,0.553 0.582,0.591 0.512,0.591 0.512,0.64 0.551,0.74 0.501,0.789 0.473,0.897    0.395,0.897 0.306,0.867 0.228,0.838 0.166,0.809 0.176,0.711 0.237,0.659 0.237,0.591 0.166,0.581 0.117,0.571 0.107,0.532    0.237,0.513 0.237,0.365 0.216,0.324 0.196,-0.266 0.059,-0.275 0.039,-0.148 -0.029,-0.138 -0.267,-0.148 -0.247,0.188    -0.286,0.217 -0.286,0.256 -0.739,0.256 -0.81,0.188 -0.897,0.936 -1.035,0.148 -1.125,0.138 -1.135,-0.138 -1.567,-0.129    -1.587,0.07 -2.099,0.07 -2.119,-0.138 -2.297,-0.148 -2.375,-0.207 -2.385,-0.275 -2.534,-0.275 -2.586,-0.205 -2.668,-0.147    -2.777,-0.103 -2.697,-0.152 -2.622,-0.217 -2.612,-0.266 -2.77,-0.275 -2.899,-0.305 -2.967,-0.365 -3.253,-0.365 -3.342,-0.196    -3.638,-0.207 -3.716,-0.235 -3.926,-0.235 -3.926,-0.266 -3.716,-0.285 -3.735,-0.395 -4.672,-0.395 -4.75,-0.365 -4.75,-0.63    -4.535,-0.857 3.656,-0.906 3.933,-0.916 4.227,-0.936 4.75,-0.235  " fill="#FFFFFF"/>
  </g></svg>