<?xml version="1.0" standalone="no"?>
<svg xmlns="http://www.w3.org/2000/svg" viewBox="-6.37 -6.37 12.74 12.74" color="#212121" width="75" height="75"><g transform="matrix(1 0 0 -1 0 0)">
    <g xmlns="http://www.w3.org/2000/svg" id="Circle_14_">
      <path class="primary" fill="currentColor" d="M-0.001-6.245c-3.443,0-6.244,2.802-6.244,6.246c0,3.443,2.801,6.244,6.244,6.244    c3.444,0,6.246-2.801,6.246-6.244C6.245-3.443,3.443-6.245-0.001-6.245z"/>
      <path class="secondary" d="M-0.001,6.12c3.381,0,6.121-2.74,6.121-6.119c0-3.381-2.74-6.121-6.121-6.121    c-3.379,0-6.119,2.74-6.119,6.121C-6.12,3.38-3.38,6.12-0.001,6.12 M-0.001,6.37c-3.512,0-6.369-2.857-6.369-6.369    c0-3.513,2.857-6.371,6.369-6.371c3.513,0,6.371,2.858,6.371,6.371C6.37,3.513,3.512,6.37-0.001,6.37L-0.001,6.37z" fill="#FFFFFF"/>
    </g>
    <path xmlns="http://www.w3.org/2000/svg" class="secondary" d="M-3.648-0.481v0.261h0.812c0,0,0.139,0.121,0.26,0.121c0.124,0,0.292-0.046,0.292-0.337   c0.229,0,0.229,0,0.229,0v0.26h0.139v0.308h0.768v1.087h0.152V0.221h0.367V0.012h0.23v0.687h0.035   C-0.402,0.743-0.429,0.805-0.429,0.87c0,0.145,0.116,0.26,0.261,0.26s0.261-0.115,0.261-0.26c0-0.065-0.027-0.127-0.066-0.172   h0.066v-0.98h0.551l0.046-0.186h0.399v0.153H1.38v-0.243h0.613v0.151c0,0-0.491,0.275-0.093,0.406   c0.445-0.221,0.828-0.406,0.828-0.406v-0.168h0.397v0.368h0.798v-0.307h0.49c0,0-0.153,0.398,0.245,0.398   c0.398,0,0.322-0.307,0.322-0.307h0.612L5.659-0.65l-0.11-0.567H-5.058l-0.602,0.736H-3.648z" fill="#FFFFFF"/>
  </g></svg>