<?xml version="1.0" standalone="no"?>
<svg xmlns="http://www.w3.org/2000/svg" viewBox="-6.37 -6.37 12.74 12.74" color="#212121" width="75" height="75"><g transform="matrix(1 0 0 -1 0 0)">
    <g xmlns="http://www.w3.org/2000/svg" id="Circle_9_">
      <path class="primary" fill="currentColor" d="M-0.001-6.245c-3.443,0-6.244,2.802-6.244,6.246c0,3.443,2.801,6.244,6.244,6.244    c3.444,0,6.246-2.801,6.246-6.244C6.245-3.443,3.443-6.245-0.001-6.245z"/>
      <path class="secondary" d="M-0.001,6.12c3.381,0,6.121-2.74,6.121-6.119c0-3.381-2.74-6.121-6.121-6.121    c-3.379,0-6.119,2.74-6.119,6.121C-6.12,3.38-3.38,6.12-0.001,6.12 M-0.001,6.37c-3.512,0-6.369-2.857-6.369-6.369    c0-3.513,2.857-6.371,6.369-6.371c3.513,0,6.371,2.858,6.371,6.371C6.37,3.513,3.512,6.37-0.001,6.37L-0.001,6.37z" fill="#FFFFFF"/>
    </g>
    <path xmlns="http://www.w3.org/2000/svg" class="secondary" d="M3.715-0.774v0.586H2l0.012,0.011v0.227H1.614v-0.248h-0.04v0.291H1.401V0.32H1.229v0.241H1.091V0.71h-0.26   V0.549H0.682v-0.666c-0.012,0-0.029,0.001-0.054,0.004C0.61,0.079,0.473,0.218,0.466,0.224L0.454,0.236l-0.18,0.02v0.305H0.026   V0.273h-0.155V1.09h-0.248V0.019l-0.186,0.07l-0.17,0.003v-0.325h-0.098v1.104h-0.156v-1.104h-0.339v0.775h0.173v0.226H-1.2v0.3   h-0.149V1.39h-0.145V1.068h-0.081V0.953h-0.149v-0.15h-0.115V0.205h-0.207L-2.161,0.32H-2.38V0.092h-0.051v0.181H-2.65v0.185   h-0.202v-0.73c-0.047,0.057-0.109,0.108-0.181,0.108c-0.118,0-0.187-0.098-0.214-0.149h-0.081v0.219h-0.171l0.013-0.211   c-0.015,0-0.038,0.003-0.074,0.01c-0.16,0.153-0.437,0.025-0.498-0.006h-0.428L-4.579-0.44h-0.89v0.345h-0.237v-0.468l0.564-0.828   H5.495L5.73-0.798L3.715-0.774z" fill="#FFFFFF"/>
  </g></svg>