<?xml version="1.0" standalone="no"?>
<svg xmlns="http://www.w3.org/2000/svg" viewBox="-6.37 -6.37 12.74 12.74" color="#212121" width="75" height="75"><g transform="matrix(1 0 0 -1 0 0)">
    <g xmlns="http://www.w3.org/2000/svg">
      <circle class="primary" fill="currentColor" cx="0" cy="0" r="6.245"/>
      <path class="secondary" d="M0,6.12c3.38,0,6.12-2.74,6.12-6.12S3.38-6.12,0-6.12S-6.12-3.38-6.12,0S-3.38,6.12,0,6.12 M0,6.37    c-3.513,0-6.37-2.857-6.37-6.37S-3.513-6.37,0-6.37S6.37-3.513,6.37,0S3.513,6.37,0,6.37L0,6.37z" fill="#FFFFFF"/>
    </g>
    <path xmlns="http://www.w3.org/2000/svg" id="Mine_Counterme_Asures_2_" class="secondary" d="M-4.443-0.866c0.007,0.015,0.017,0.023,0.029,0.027   c0-0.009,0.003-0.019,0.011-0.027c0.014,0.015,0.022,0.023,0.025,0.027c0.009-0.015,0.019-0.025,0.028-0.027   c0.01,0,0.018,0.001,0.021,0.003v0.367h0.417v0.122h0.356v-0.122h0.229c0.021,0.051,0.037,0.089,0.047,0.115   c0.012-0.003,0.021-0.005,0.028-0.008c0.015,0,0.027,0.065,0.037,0.198c0.012,0.132,0.07,0.197,0.179,0.197   c0.101,0,0.161-0.056,0.18-0.165c0-0.127,0.003-0.192,0.007-0.195c0.006-0.004,0.011-0.007,0.017-0.008   c0.006-0.001,0.011-0.003,0.013-0.006c0.003-0.167,0.005-0.254,0.008-0.258c0.01-0.01,0.017-0.012,0.025-0.004   c-0.009,0.055-0.009,0.109,0,0.162h0.258v-0.289c0-0.074,0.015-0.11,0.043-0.11c0.034,0,0.064,0.009,0.095,0.027   c0.009,0.165,0.021,0.415,0.039,0.747c0,0.095-0.041,0.184-0.122,0.264c-0.095,0.085-0.166,0.146-0.216,0.188   c0.136-0.12,0.208-0.182,0.216-0.188c0.064-0.066,0.103-0.114,0.115-0.143l0.007,0.287c0.002,0.16,0.03,0.297,0.083,0.41   C-2.287,0.738-2.307,0.742-2.33,0.74c0.039,0.015,0.061,0.023,0.062,0.026v0.097L-2.42,0.87l0.008,0.054h0.31v-0.04   c-0.027-0.006-0.053-0.013-0.08-0.018c-0.035-0.009-0.039-0.031-0.01-0.065c-0.021-0.007-0.04-0.013-0.054-0.017l0.007-0.032h0.054   c-0.039-0.018-0.059-0.025-0.061-0.025C-2.221,0.661-2.2,0.613-2.186,0.583c0-0.027,0.009-0.045,0.025-0.054v-0.608   c0-0.046,0.005-0.112,0.014-0.201c0.011-0.089,0.015-0.141,0.015-0.155c0.199,0,0.316,0,0.353,0   c0.012,0.021,0.052,0.125,0.119,0.31c0.033,0.099,0.079,0.15,0.14,0.158c0.019,0.021,0.032,0.034,0.04,0.037   c-0.015,0,0.021-0.01,0.104-0.026C-1.317,0.06-1.26,0.075-1.203,0.09c0.083-0.002,0.12-0.003,0.111-0.003   c0.063-0.029,0.115-0.051,0.154-0.065c0.035-0.204,0.062-0.356,0.078-0.46v-0.217h0.08l0.014,0.012v0.399   c0.072-0.008,0.135,0.002,0.188,0.028c0.052,0.027,0.077,0.071,0.075,0.137l-0.022,0.507v0.209c0,0.086-0.004,0.121-0.014,0.104   c-0.033,0.023-0.062,0.048-0.086,0.071c0.074-0.014,0.11-0.022,0.107-0.024V1.15c-0.029,0.012-0.019,0.08,0.029,0.205   c0-0.02,0.011-0.054,0.032-0.104V1.158C-0.48,1.138-0.49,1.117-0.484,1.092c-0.008,0.025-0.012-0.076-0.012-0.301   c0-0.015,0.013-0.027,0.037-0.039c0.004,0.009,0.005,0.024,0.003,0.046l0.141-0.011C-0.34,0.759-0.357,0.74-0.366,0.733   c0.015-0.024,0.019-0.045,0.015-0.062c-0.027,0-0.05-0.006-0.069-0.018V0.535c0-0.297,0.007-0.434,0.022-0.409   c0.021-0.197,0.034-0.295,0.039-0.295c0.015,0,0.025,0.005,0.032,0.015c-0.023,0.094-0.017,0.14,0.021,0.14   c0.036,0,0.054-0.02,0.054-0.058c0-0.064,0-0.097-0.003-0.097h0.033c0-0.029,0.002-0.05,0.006-0.062   c0.021-0.002,0.038-0.005,0.051-0.007c0.058,0,0.086,0.036,0.083,0.108c0,0.131-0.002,0.191-0.005,0.183   c0.005-0.178,0.011-0.272,0.016-0.284c0.023-0.005,0.05-0.002,0.078,0.008v0.154c-0.021,0.021-0.034,0.046-0.039,0.071   c0.005,0.015,0.01,0.022,0.015,0.026c0.015-0.012,0.027-0.02,0.036-0.022c0.028,0.04,0.053,0.066,0.071,0.081v0.029   c-0.026,0.02-0.046,0.035-0.057,0.048v0.149l0.107,0.088C0.154,0.4,0.163,0.397,0.166,0.392c-0.013-0.028-0.032-0.05-0.062-0.064   c-0.019-0.01-0.029-0.033-0.029-0.072c0-0.055,0.021-0.083,0.065-0.083c0.02,0,0.048,0.017,0.086,0.047v-0.05   C0.2,0.147,0.17,0.129,0.137,0.114V0.097c0.097-0.06,0.136-0.09,0.119-0.09c0.026,0,0.043,0.001,0.051,0.003   c-0.02,0.034-0.014,0.069,0.018,0.104c0.018-0.025,0.027-0.054,0.031-0.082C0.347,0.03,0.339,0.022,0.335,0.01   c0.01-0.009,0.012-0.017,0.007-0.024C0.256-0.043,0.213-0.09,0.213-0.154c0-0.044,0.004-0.068,0.011-0.076   c0.01,0.01,0.015,0.023,0.015,0.04h0.057c0.02-0.024,0.04-0.04,0.061-0.047c0.141,0,0.228,0,0.262,0   c0.009,0.074,0.016,0.148,0.023,0.223c0.02,0.096,0.076,0.144,0.172,0.144c0.104,0,0.164-0.123,0.184-0.37h0.381   c-0.015-0.09-0.023-0.165-0.028-0.225c0,0.002,0.028-0.126,0.086-0.386c0.007-0.011,0.018-0.015,0.028-0.015   c0.171,0,0.27,0.004,0.295,0.015c0.037,0.086,0.064,0.157,0.083,0.211H1.744C1.742-0.628,1.74-0.619,1.736-0.61   c0,0.065,0.065,0.1,0.195,0.1c0.017,0,0.041-0.028,0.074-0.084C2.06-0.598,2.091-0.604,2.1-0.612   C2.095-0.614,2.055-0.62,1.977-0.627C1.939-0.629,1.921-0.658,1.924-0.715c0.041-0.033,0.074-0.074,0.101-0.124   c0.132,0,0.219,0.004,0.262,0.008c0.079,0,0.13,0.004,0.151,0.01C2.395-0.771,2.35-0.742,2.301-0.735l0.008,0.026   c0.066-0.007,0.141-0.009,0.219-0.007C2.523-0.73,2.512-0.74,2.497-0.748C2.481-0.755,2.474-0.772,2.474-0.802   c0-0.017,0.006-0.028,0.015-0.037c0.12,0.009,0.21,0.013,0.27,0.016c0.031,0.051,0.104,0.075,0.22,0.075   c0.013,0,0.021-0.004,0.028-0.01c-0.01-0.029-0.012-0.049-0.008-0.058c0.003-0.003,0.072-0.003,0.209,0   C3.262-0.813,3.29-0.795,3.29-0.762C3.285-0.75,3.278-0.744,3.271-0.746c-0.009-0.002-0.022,0-0.042,0.004   c-0.02,0.004-0.031,0.005-0.04,0.005l-0.007,0.19C3.188-0.473,3.242-0.436,3.34-0.436c0.113,0,0.182-0.041,0.206-0.122   c0.252,0,0.371,0,0.352,0v-0.035c-0.137,0.007-0.252,0.007-0.346,0c0.007-0.031,0.012-0.08,0.012-0.145   C3.541-0.743,3.526-0.749,3.517-0.752c0.002-0.04,0.019-0.058,0.051-0.05c0.023,0,0.04,0.005,0.05,0.015   C3.612-0.785,3.609-0.776,3.609-0.762h0.043c-0.002,0.009,0-0.005,0.008-0.04c0.013,0.003,0.019,0.016,0.019,0.04h0.035   c0-0.015,0.005-0.028,0.015-0.04c0.077,0.008,0.134,0.011,0.173,0.011c0.017,0.027,0.029,0.045,0.035,0.058   c0.13,0.017,0.223,0.029,0.28,0.036c-0.012-0.038-0.015-0.064-0.01-0.079C4.239-0.771,4.267-0.77,4.285-0.77   c0-0.012,0.003,0.009,0.008,0.061h0.062C4.361-0.737,4.365-0.758,4.368-0.77h0.058c0.211,0,0.319,0.017,0.324,0.051h0.035   C4.783-0.738,4.79-0.748,4.807-0.748c0.006,0.005,0.007,0.015,0.004,0.029h0.044c0-0.02,0.008-0.029,0.024-0.029   c0.015,0,0.055,0.006,0.122,0.017c0.066,0.011,0.106,0.016,0.115,0.016C5.146-0.72,5.169-0.725,5.188-0.73l0.46,0.019   c-0.193-0.175-0.354-0.39-0.481-0.644H-5.389C-5.484-1.173-5.571-1.01-5.647-0.866H-4.443z" fill="#FFFFFF"/>
  </g></svg>