<?xml version="1.0" standalone="no"?>
<svg xmlns="http://www.w3.org/2000/svg" viewBox="-6.37 -6.37 12.74 12.74" color="#212121" width="75" height="75"><g transform="matrix(1 0 0 -1 0 0)">
    <g xmlns="http://www.w3.org/2000/svg" id="Circle_126_">
      <path class="primary" fill="currentColor" d="M-0.001-6.245c-3.443,0-6.244,2.802-6.244,6.246c0,3.443,2.801,6.244,6.244,6.244    c3.444,0,6.246-2.801,6.246-6.244C6.245-3.443,3.443-6.245-0.001-6.245z"/>
      <path class="secondary" d="M-0.001,6.12c3.381,0,6.121-2.74,6.121-6.119c0-3.381-2.74-6.121-6.121-6.121    c-3.379,0-6.119,2.74-6.119,6.121C-6.12,3.38-3.38,6.12-0.001,6.12 M-0.001,6.37c-3.512,0-6.369-2.857-6.369-6.369    c0-3.513,2.857-6.371,6.369-6.371c3.513,0,6.371,2.858,6.371,6.371C6.37,3.513,3.512,6.37-0.001,6.37L-0.001,6.37z" fill="#FFFFFF"/>
    </g>
    <path xmlns="http://www.w3.org/2000/svg" class="secondary" d="M-4.416-0.57l0.228,0.795l0.133-0.799l0.511-0.008c-0.021,0.03-0.035,0.061-0.037,0.09   c-0.019,0.184,0.349,0.717,0.349,0.717l0.078-0.812l0.491-0.007C-2.682-0.421-2.26,0.132-2.26,0.132h0.129l0.018-0.133l0.275-0.124   v-0.266l0.57,0.504l0.294-0.131c0,0,0.202,1.123,0.532,1.233c0.275-0.239,0.477-1.323,0.477-1.323l0.883-0.109l0.533,0.199h0.312   l0.018-0.296h0.827h0.147l0.826,1.529l0.019,0.257H3.398l0.037,0.368h0.79l0.019-0.441L3.857,1.326c0,0-0.551-1.451-0.477-1.654   c0.072-0.201,0.164-0.366,0.164-0.366h0.791l0.018,0.238c0,0,0.441,0.386,0.827,0.276c0.386-0.111,0.552,0.147,0.698-0.129   c0.146-0.275,0.295-0.956-0.312-1.213C4.96-1.779,5.034-1.871,4.262-1.834C3.49-1.797-4.777-1.842-4.777-1.842l-1.23,1.294   L-4.416-0.57z" fill="#FFFFFF"/>
  </g></svg>