<?xml version="1.0" standalone="no"?>
<svg xmlns="http://www.w3.org/2000/svg" viewBox="-6.37 -6.37 12.74 12.74" color="#212121" width="75" height="75"><g transform="matrix(1 0 0 -1 0 0)">
    <g xmlns="http://www.w3.org/2000/svg">
      <path class="primary" fill="currentColor" d="M0-6.245c-3.444,0-6.245,2.802-6.245,6.246c0,3.443,2.802,6.244,6.245,6.244s6.245-2.801,6.245-6.244    C6.245-3.443,3.444-6.245,0-6.245z"/>
      <path class="secondary" d="M0,6.12c3.38,0,6.12-2.74,6.12-6.119C6.12-3.38,3.38-6.12,0-6.12s-6.12,2.74-6.12,6.121    C-6.12,3.38-3.38,6.12,0,6.12 M0,6.37c-3.513,0-6.37-2.857-6.37-6.369C-6.37-3.512-3.513-6.37,0-6.37s6.37,2.858,6.37,6.371    C6.37,3.513,3.513,6.37,0,6.37L0,6.37z" fill="#FFFFFF"/>
    </g>
    <path xmlns="http://www.w3.org/2000/svg" id="Ocean_Surveillance_2_" class="secondary" d="M-5.867-0.728c0.021-0.008,0.034-0.016,0.04-0.021   c0.008,0.057,0.01,0.119,0.008,0.189c0.07,0.008,0.143,0.014,0.219,0.016c0.07-0.004,0.133-0.01,0.188-0.016   c0.085,0,0.135,0.008,0.148,0.025C-5.25-0.548-5.229-0.556-5.206-0.56l0.402,0.016C-4.788-0.548-4.78-0.554-4.78-0.56   c0.062,0,0.164,0.002,0.307,0.006c0.143,0.002,0.259,0.002,0.35,0.002c0.008,0.004,0.012,0.006,0.012,0.01   c0,0.006,0.005,0.008,0.012,0.008c0.022-0.006,0.039-0.012,0.05-0.018c0.153,0,0.272,0.004,0.359,0.008   c0.086,0.006,0.122,0.01,0.105,0.01c0.022-0.006,0.04-0.012,0.051-0.018c0.117,0,0.185,0.094,0.203,0.283   C-3.334-0.171-3.336-0.07-3.339,0.032c0.005,0.012,0.017,0.021,0.036,0.027c0.018-0.031,0.054-0.064,0.108-0.098   c0.047,0,0.081,0.004,0.103,0.012c0.073,0.087,0.122,0.153,0.15,0.204c0.15,0.189,0.229,0.305,0.238,0.344   c0.06,0.051,0.103,0.092,0.129,0.121c0.023-0.021,0.041-0.033,0.055-0.039c0.01,0,0.018,0.002,0.023,0.008   c0.002,0.053,0.006,0.105,0.01,0.16c0.004,0.055,0.039,0.09,0.107,0.102c0.003,0.076,0.006,0.123,0.012,0.145   c0.072,0.035,0.143,0.059,0.211,0.074c0.019-0.049,0.029-0.098,0.031-0.145c0.037,0.006,0.053,0.008,0.051,0.008l0.055-0.562   c-0.002-0.072,0.022-0.109,0.074-0.109c0.047,0,0.072,0.018,0.075,0.055c0.01,0.09,0.017,0.143,0.019,0.152v0.406   c0,0.041-0.031,0.076-0.094,0.102v0.359c-0.018,0.018-0.037,0.031-0.055,0.039V1.45c0.023-0.008,0.039-0.01,0.047-0.008   c0.016,0.051,0.024,0.086,0.027,0.105c0.019-0.02,0.022-0.061,0.012-0.121h0.113C-1.8,1.454-1.784,1.474-1.759,1.489   c0.008-0.02,0.015-0.035,0.02-0.047c0-0.023-0.018-0.045-0.055-0.066c-0.049-0.027-0.079-0.049-0.09-0.062   C-1.87,1.31-1.853,1.306-1.829,1.302c0.072,0,0.119-0.004,0.138-0.016C-1.725,1.27-1.752,1.259-1.77,1.251V1.063   c0.016-0.01,0.026-0.018,0.031-0.02c0.048,0.002,0.088,0.01,0.121,0.02c0.011,0.039-0.001,0.061-0.035,0.064   C-1.708,1.13-1.736,1.132-1.739,1.134c0,0.006,0.002,0.01,0.004,0.014c0.003,0.004,0.004,0.008,0.004,0.014   c0.165-0.008,0.25-0.012,0.258-0.012V1.146c0-0.006,0.002-0.008,0.004-0.012c-0.049-0.006-0.086-0.014-0.108-0.02   C-1.58,1.106-1.583,1.1-1.586,1.094c0-0.021,0.007-0.037,0.021-0.051h0.19c0.014,0.014,0.022,0.021,0.028,0.023   c0.018-0.025,0.021-0.053,0.007-0.082C-1.371,0.994-1.387,1-1.391,1c-0.016-0.002-0.024-0.006-0.027-0.012v-0.69   c0.068-0.047,0.092-0.07,0.071-0.07c0.062,0,0.107-0.004,0.136-0.012c-0.002-0.027-0.001-0.045,0.004-0.055h0.098   c0-0.119,0-0.211,0-0.275v-0.041c-0.015,0-0.027-0.006-0.039-0.016v-0.205c0.006-0.115,0.006-0.189,0-0.223h0.031   C-1.13-0.62-1.142-0.638-1.149-0.647c0.017-0.018,0.035-0.025,0.06-0.029c0.05,0.023,0.078,0.041,0.086,0.053   c-0.031,0.031-0.05,0.051-0.056,0.061c0.006,0.02,0.013,0.031,0.021,0.037c0.062-0.029,0.125-0.059,0.187-0.086   c0.073-0.037,0.108-0.082,0.105-0.135C-0.778-0.902-0.767-0.98-0.711-0.98c0.034,0,0.071,0,0.111,0.002s0.077,0.004,0.111,0.006   c0.097,0.012,0.13,0.016,0.102,0.016c0.009,0.006,0.013,0.012,0.017,0.02c0.002,0.012,0.002,0.02,0,0.023   c0.002,0.004,0.006,0.008,0.011,0.012l0.164-0.008l0.016,0.697h0.087c0.007-0.041,0.011-0.07,0.015-0.088h0.082   c0.326,0.057,0.572,0.115,0.742,0.172C1.026-0.034,1.18,0.021,1.208,0.036c0.089,0.135,0.148,0.252,0.176,0.348   C1.499,0.616,1.57,0.771,1.595,0.849c0.029,0.123,0.049,0.219,0.06,0.289C1.689,1.087,1.707,1.046,1.71,1.017   C1.72,1.093,1.727,1.15,1.73,1.189l0.02-0.293c0.139-0.354,0.27-0.629,0.398-0.824C2.284-0.2,2.406-0.409,2.511-0.56h0.031   c0.018,0,0.028,0.047,0.031,0.139C2.575-0.331,2.585-0.284,2.6-0.284c0.023,0,0.035-0.023,0.035-0.07v-0.262   c0-0.164,0.032-0.266,0.098-0.303l0.41,0.057c0,0.012,0.003,0.023,0.008,0.035c-0.005,0,0.032,0.002,0.113,0.006   C3.28-0.817,3.29-0.817,3.292-0.817c0-0.008,0.008-0.01,0.023-0.01c0.078,0,0.119-0.002,0.121-0.004v0.057L3.198-0.677l0.004,0.061   l0.227-0.061c0.029,0.004,0.057,0.006,0.082,0.006c0.006-0.039,0.006-0.082,0-0.127l0.023,0.01c0.011,0,0.016-0.016,0.016-0.039   c0,0.039-0.006,0.01-0.02-0.084h0.039c0.195,0,0.293,0.043,0.293,0.125v1.588c0.016,0,0.027-0.01,0.032-0.027   c0-0.205,0.001-0.314,0.004-0.324c0.018,0,0.032-0.002,0.043-0.008c0.018-0.094,0.03-0.164,0.039-0.211l0.007-0.164   C3.943-0.003,3.929-0.065,3.941-0.12c0.007-0.008,0.014-0.012,0.02-0.012c0.01,0.01,0.029,0.016,0.059,0.016   c0-0.055,0.003-0.113,0.007-0.176C3.99-0.298,3.962-0.304,3.941-0.308v-0.463c0.007-0.006,0.014-0.01,0.02-0.01   c0.015,0.021,0.04,0.037,0.073,0.045c-0.015,0,0.023-0.025,0.118-0.078C4.246-0.798,4.333-0.78,4.414-0.767   C4.412-0.739,4.425-0.728,4.453-0.731c0.081,0.023,0.112,0.037,0.094,0.037C4.633-0.7,4.66-0.702,4.628-0.702   c-0.002-0.02,0-0.033,0.005-0.041C5.47-0.675,5.896-0.642,5.911-0.642c-0.219-0.221-0.328-0.51-0.328-0.867   c0.002-0.02,0.004-0.033,0.004-0.039h-11.34C-5.824-1.476-5.859-1.38-5.859-1.263c0.006,0.043,0.012,0.092,0.02,0.148   c0.009,0.059,0.015,0.107,0.02,0.148c0,0.045-0.031,0.117-0.091,0.219C-5.896-0.735-5.883-0.729-5.867-0.728z M2.401-0.612   c0.022,0.027,0.04,0.049,0.051,0.064L1.768,0.649V0.216c-0.017-0.031-0.03-0.055-0.044-0.07C2.026-0.237,2.252-0.491,2.401-0.612z    M1.971-0.974c0.008,0.098,0.038,0.146,0.09,0.146c0.017,0,0.038-0.018,0.065-0.053C2.164-0.86,2.191-0.842,2.208-0.826   C2.24-0.71,2.253-0.653,2.249-0.653h0.074v0.037L1.705,0.083v-1.057C1.705-0.974,1.971-0.974,1.971-0.974z M1.005-0.87   c0.072,0.021,0.097,0.035,0.07,0.035c0.053,0,0.085-0.047,0.099-0.139c0.05,0.008,0.091,0.014,0.125,0.016   C1.301-0.96,1.303-0.966,1.303-0.974h0.116c0.039,0.223,0.068,0.396,0.086,0.52c0.012,0,0.018-0.008,0.021-0.021L1.462-0.938   C1.458-0.966,1.466-0.981,1.49-0.981c0.067,0.004,0.105,0.004,0.112,0.004v0.955l-0.077-0.41L1.513-0.444   C1.497-0.429,1.491-0.419,1.494-0.409l0.07,0.48v0.074c-0.188-0.078-0.29-0.121-0.309-0.129c-0.237-0.49-0.356-0.754-0.356-0.791   C0.899-0.839,0.935-0.87,1.005-0.87z M1.505,0.165c0.061,0.033,0.09,0.096,0.09,0.188v0.34C1.591,0.706,1.583,0.714,1.576,0.716   l-0.29-0.641C1.36,0.106,1.433,0.136,1.505,0.165z M0.306-0.591c0.232-0.121,0.381-0.184,0.449-0.184   c0.042,0,0.07-0.004,0.086-0.014l0.355,0.766H1.153C0.575-0.239,0.185-0.347-0.019-0.347c-0.021,0-0.033-0.002-0.035-0.004   C-0.046-0.388,0.073-0.468,0.306-0.591z M-0.077-0.798c0.018-0.01,0.037-0.016,0.059-0.016c0.177,0,0.363,0.014,0.559,0.039   c-0.049,0.047-0.096,0.078-0.137,0.09C0.211-0.587,0.049-0.499-0.081-0.421c-0.003-0.02-0.007-0.033-0.012-0.045   C-0.093-0.679-0.088-0.788-0.077-0.798z M-1.724,0.563c0.07-0.02,0.125-0.031,0.16-0.039V0.442   c-0.07-0.008-0.113-0.057-0.128-0.148C-1.68,0.286-1.66,0.282-1.634,0.282c0.016-0.047,0.016-0.084,0-0.109h0.051   c0,0.01-0.001,0.02-0.004,0.027c0,0.016,0.031,0.027,0.094,0.035c0.012,0.039,0.023,0.059,0.035,0.059v0.707   C-1.47,1.003-1.481,1.007-1.493,1.009l-0.253-0.098L-1.724,0.563z M-1.806,1.044v0.223c-0.006,0-0.036,0.01-0.094,0.033V1.044   H-1.806z M-3.04-0.198c0.038-0.037,0.064-0.076,0.078-0.117c0.057-0.008,0.113-0.014,0.172-0.018h0.035v0.189   c0,0.207,0.003,0.301,0.012,0.277c0.023,0.045,0.053,0.068,0.09,0.07c0.022,0.002,0.035,0.021,0.035,0.059v0.211h-0.047   C-2.924,0.142-3.079-0.083-3.13-0.202L-3.04-0.198z" fill="#FFFFFF"/>
  </g></svg>