<?xml version="1.0" standalone="no"?>
<svg xmlns="http://www.w3.org/2000/svg" viewBox="-6.37 -6.37 12.74 12.74" color="#212121" width="75" height="75"><g transform="matrix(1 0 0 -1 0 0)">
    <g xmlns="http://www.w3.org/2000/svg">
      <circle class="primary" fill="currentColor" cx="0" cy="0" r="6.245"/>
      <path class="secondary" d="M0,6.12c3.38,0,6.12-2.74,6.12-6.12S3.38-6.12,0-6.12S-6.12-3.38-6.12,0S-3.38,6.12,0,6.12 M0,6.37    c-3.513,0-6.37-2.857-6.37-6.37S-3.513-6.37,0-6.37S6.37-3.513,6.37,0S3.513,6.37,0,6.37L0,6.37z" fill="#FFFFFF"/>
    </g>
    <g xmlns="http://www.w3.org/2000/svg" id="Patrol_Boats_2_">
      <path class="secondary" d="M-3.81-1.973C-3.841-1.98-3.872-1.989-3.905-1.998c-0.032-0.01-0.064-0.018-0.097-0.023    c-0.03-0.007-0.051-0.012-0.062-0.014c-0.03-0.012-0.055-0.031-0.071-0.062c-0.018-0.03-0.035-0.062-0.053-0.093    c-0.016-0.034-0.035-0.062-0.058-0.089c-0.023-0.026-0.053-0.04-0.093-0.04c-0.023,0-0.041,0.007-0.056,0.018    c-0.012,0.013-0.023,0.026-0.032,0.045C-4.437-2.237-4.445-2.219-4.455-2.2c-0.011,0.018-0.025,0.034-0.04,0.046l-0.078-0.078    C-4.589-2.226-4.611-2.209-4.64-2.181C-4.67-2.152-4.687-2.13-4.691-2.114C-4.694-2.109-4.689-2.092-4.68-2.061    c0.01,0.029,0.021,0.051,0.027,0.064c0.003,0.005,0.01,0.014,0.02,0.023c0.009,0.01,0.017,0.016,0.019,0.016    c0.006,0,0.02-0.006,0.04-0.018c0.021-0.013,0.034-0.02,0.039-0.021c0.003,0,0.009-0.001,0.02-0.002C-4.505-1.999-4.496-2-4.491-2    c0.028,0,0.05,0.004,0.064,0.013c0.015,0.011,0.03,0.033,0.049,0.07h-0.431c-0.004,0-0.009-0.011-0.018-0.03    c-0.01-0.02-0.017-0.035-0.021-0.049C-4.854-2.01-4.861-2.035-4.869-2.075c-0.01-0.039-0.016-0.064-0.019-0.079h-0.294v0.237    c-0.065,0.007-0.114,0.03-0.146,0.068c-0.033,0.038-0.058,0.082-0.075,0.134C-5.42-1.662-5.434-1.607-5.44-1.552    C-5.448-1.495-5.458-1.444-5.47-1.4c-0.012,0.045-0.03,0.077-0.054,0.1c-0.022,0.022-0.06,0.025-0.109,0.011v0.627    c0,0.034,0.008,0.06,0.023,0.075c0.017,0.015,0.035,0.025,0.056,0.029c0.021,0.003,0.044,0.004,0.068,0.002    c0.024-0.003,0.048-0.004,0.068-0.004v0.462c0.021,0,0.041-0.005,0.061-0.018c0.02-0.012,0.032-0.03,0.038-0.057h0.471v-0.372    h0.687v0.432h0.077v-0.432h0.236v0.353h0.313v-0.312h0.059v0.45h-0.616c0,0.034,0.007,0.06,0.021,0.078    c0.013,0.019,0.028,0.035,0.046,0.047c0.019,0.014,0.038,0.027,0.06,0.038c0.021,0.012,0.041,0.028,0.059,0.053h0.354v0.136    h-0.511c0.027,0.006,0.075,0.014,0.145,0.022c0.071,0.01,0.146,0.019,0.226,0.03c0.08,0.01,0.156,0.02,0.226,0.028    c0.071,0.01,0.121,0.016,0.149,0.019h0.031c0.016,0,0.033,0,0.055,0.001C-3.212,0.399-3.191,0.4-3.17,0.4h0.048h0.039    c0.019,0,0.037-0.001,0.059-0.003c0.02-0.001,0.04-0.001,0.059-0.001h0.039c0.021-0.008,0.034-0.021,0.038-0.036    c0.003-0.015,0.005-0.031,0.005-0.047c0-0.039-0.013-0.066-0.039-0.081c-0.025-0.014-0.066-0.024-0.12-0.033    c0.002-0.005,0.007-0.012,0.016-0.021c0.011-0.009,0.017-0.015,0.022-0.017c0.008-0.002,0.022-0.007,0.046-0.013    c0.021-0.005,0.046-0.009,0.072-0.014c0.025-0.004,0.051-0.007,0.072-0.009c0.022-0.003,0.036-0.004,0.046-0.004    c0-0.005,0-0.019,0.001-0.039c0.001-0.021,0.002-0.035,0.002-0.04c0-0.034-0.002-0.065-0.008-0.094    c-0.005-0.029-0.03-0.05-0.074-0.062v-0.392h0.901v0.508c-0.005,0-0.012,0.006-0.021,0.017c-0.009,0.01-0.014,0.019-0.017,0.023    c-0.004,0.014-0.007,0.04-0.011,0.079c-0.004,0.039-0.006,0.065-0.006,0.077h0.173v-0.704h0.059v0.43h0.079v-0.372h0.333    l0.04-0.058h0.333v0.783l0.097,0.039c-0.021,0.009-0.033,0.021-0.041,0.042c-0.006,0.019-0.01,0.038-0.01,0.057h0.601    c0.003,0,0.009,0.008,0.019,0.023c0.008,0.016,0.015,0.027,0.021,0.035c0.01,0.021,0.024,0.051,0.045,0.09    c0.02,0.04,0.036,0.072,0.048,0.099C-0.19,0.689-0.184,0.705-0.181,0.71l-0.354,1.06c0.003,0,0.007,0,0.01,0.001    c0.004,0.001,0.008,0.002,0.01,0.002c0.003,0,0.01-0.001,0.021-0.003c0.002-0.003,0.008-0.014,0.017-0.033    c0.011-0.02,0.018-0.035,0.022-0.047c0.011-0.03,0.026-0.077,0.049-0.141c0.023-0.062,0.048-0.134,0.076-0.214    c0.029-0.08,0.059-0.164,0.09-0.253c0.032-0.089,0.062-0.173,0.091-0.252c0.028-0.081,0.054-0.151,0.075-0.214    c0.023-0.062,0.039-0.11,0.051-0.142l0.039-0.039c0,0.003,0,0.008,0.002,0.018C0.019,0.462,0.02,0.469,0.02,0.475    c0,0.028-0.007,0.052-0.021,0.07c-0.015,0.019-0.021,0.041-0.021,0.066c0,0.023,0.007,0.04,0.023,0.05    C0.016,0.67,0.034,0.676,0.054,0.676c0.043,0,0.07-0.01,0.086-0.027C0.154,0.632,0.161,0.61,0.163,0.586    c0.001-0.024-0.002-0.05-0.007-0.078C0.151,0.48,0.148,0.456,0.148,0.436h0.396v0.412h0.491v1.099H0.878    C0.892,2,0.914,2.054,0.945,2.104C0.976,2.155,1.02,2.194,1.074,2.22H0.643v0.099h0.941V2.22H1.259    C1.25,2.194,1.244,2.172,1.239,2.15c-0.005-0.019-0.01-0.039-0.013-0.06c-0.002-0.021,0-0.037,0.005-0.048    c0.003-0.01,0.014-0.025,0.033-0.044C1.284,1.979,1.3,1.968,1.31,1.966c-0.017,0.005-0.043,0.003-0.08-0.007    C1.19,1.95,1.165,1.938,1.153,1.926c-0.006-0.006-0.006-0.015,0-0.027c0.005-0.013,0.011-0.026,0.019-0.041    c0.009-0.014,0.016-0.028,0.021-0.042c0.008-0.013,0.01-0.022,0.01-0.027h0.554c0-0.044-0.013-0.085-0.037-0.121    C1.695,1.631,1.666,1.593,1.638,1.554c-0.03-0.04-0.058-0.083-0.083-0.13C1.53,1.377,1.519,1.322,1.519,1.26h0.263    C1.752,1.251,1.728,1.251,1.708,1.261C1.688,1.27,1.672,1.284,1.659,1.303C1.646,1.32,1.637,1.342,1.632,1.363    C1.625,1.385,1.623,1.406,1.623,1.428c0.204,0,0.407-0.011,0.609-0.031c0.2-0.021,0.403-0.031,0.607-0.031V1.317H2.29L2.211,1.239    h0.193c0-0.044,0.007-0.078,0.021-0.102C2.44,1.114,2.459,1.097,2.484,1.084C2.51,1.073,2.536,1.065,2.569,1.062    C2.6,1.061,2.633,1.06,2.666,1.06c0.029,0,0.052,0.002,0.067,0.007c0.015,0.006,0.03,0.011,0.045,0.016    c0.016,0.006,0.029,0.012,0.044,0.016c0.014,0.006,0.035,0.008,0.064,0.008h0.039c0.021,0,0.04-0.005,0.058-0.016    C3,1.08,3.005,1.058,2.996,1.023c0.009,0,0.023-0.001,0.05-0.004C3.07,1.017,3.087,1.017,3.094,1.017    c0.032,0,0.058,0.005,0.077,0.015c0.021,0.011,0.038,0.023,0.054,0.037c0.018,0.015,0.036,0.027,0.054,0.037    c0.019,0.012,0.042,0.017,0.07,0.017V0.984l0.275-0.078C3.618,0.9,3.611,0.888,3.602,0.867C3.593,0.846,3.588,0.833,3.585,0.828    v-0.02V0.788c0-0.005,0.002-0.016,0.005-0.03c0.005-0.014,0.009-0.028,0.012-0.046C3.606,0.694,3.61,0.68,3.613,0.665    C3.618,0.65,3.621,0.64,3.624,0.632l0.04-0.117h0.211c0-0.014-0.004-0.04-0.006-0.079C3.865,0.396,3.862,0.37,3.859,0.357    c0-0.006-0.006-0.014-0.017-0.022C3.834,0.326,3.824,0.32,3.82,0.317C3.824,0.314,3.833,0.31,3.842,0.3    c0.01-0.009,0.015-0.016,0.018-0.021v-0.02V0.24C3.856,0.233,3.852,0.224,3.843,0.208C3.836,0.191,3.826,0.175,3.818,0.159    C3.809,0.143,3.8,0.126,3.793,0.109C3.784,0.094,3.78,0.085,3.78,0.083c-0.002-0.021-0.004-0.035-0.004-0.04    c0-0.023,0.003-0.044,0.008-0.061C3.789-0.035,3.802-0.055,3.82-0.075c0,0.006,0.002,0.015,0.007,0.026    c0.007,0.012,0.013,0.023,0.02,0.037c0.009,0.013,0.017,0.025,0.024,0.035c0.011,0.011,0.02,0.018,0.027,0.02    c0.013,0.005,0.045,0.012,0.098,0.016V-0.31h0.059c0.032,0.002,0.079,0.006,0.142,0.009c0.062,0.005,0.135,0.009,0.217,0.015    c0.079,0.005,0.165,0.011,0.252,0.016c0.088,0.005,0.172,0.01,0.252,0.016C4.996-0.25,5.066-0.245,5.13-0.241    c0.062,0.003,0.109,0.008,0.142,0.01C5.253-0.173,5.254-0.131,5.274-0.104c0.021,0.026,0.053,0.041,0.095,0.041    c0.013,0,0.034-0.016,0.063-0.046c0.028-0.029,0.057-0.064,0.088-0.104C5.55-0.251,5.576-0.288,5.6-0.324    C5.621-0.358,5.632-0.38,5.632-0.389c0-0.019-0.004-0.031-0.013-0.041c-0.01-0.009-0.021-0.018-0.034-0.025    C5.571-0.462,5.559-0.471,5.544-0.477C5.529-0.483,5.517-0.493,5.506-0.505l-0.47-0.63C4.855-1.346,4.671-1.512,4.483-1.632    c-0.188-0.12-0.388-0.21-0.598-0.271C3.677-1.963,3.455-1.999,3.222-2.015C2.988-2.028,2.736-2.035,2.467-2.035    c-0.857,0-1.717,0.014-2.577,0.041c-0.86,0.026-1.721,0.04-2.581,0.04h-0.121H-3c-0.072,0-0.145,0-0.223-0.001    C-3.3-1.956-3.372-1.957-3.44-1.957h-0.188H-3.75C-3.761-1.961-3.78-1.966-3.81-1.973z M-3.24-0.075L-3.28-0.29h0.256v-0.215    h0.059v0.392c0,0.008-0.01,0.014-0.029,0.019c-0.02,0.006-0.042,0.011-0.067,0.015C-3.091-0.077-3.115-0.074-3.14-0.073    C-3.165-0.07-3.183-0.07-3.193-0.07C-3.201-0.07-3.217-0.072-3.24-0.075z M-2.985,0.337c0-0.008,0.007-0.015,0.02-0.02    c0.013-0.005,0.02,0.001,0.02,0.02c0,0.019-0.007,0.024-0.02,0.021C-2.979,0.352-2.985,0.346-2.985,0.337z M-0.475,0.297    c0.01,0,0.017,0.008,0.02,0.021c0.002,0.014-0.004,0.02-0.02,0.02c-0.02,0-0.025-0.006-0.02-0.02    C-0.488,0.305-0.482,0.297-0.475,0.297z M-0.203,0.523c-0.016-0.03-0.024-0.06-0.024-0.088h0.129c0,0.005-0.001,0.012-0.002,0.02    c-0.002,0.007-0.002,0.014-0.002,0.02c-0.002,0.011-0.009,0.03-0.018,0.062c-0.008,0.028-0.017,0.048-0.021,0.056    C-0.165,0.577-0.186,0.554-0.203,0.523z M0.648,0.305C0.671,0.3,0.695,0.297,0.722,0.297c0.025,0,0.05,0.003,0.072,0.008    C0.815,0.308,0.831,0.312,0.84,0.317c0.007,0.005-0.003,0.01-0.029,0.012C0.785,0.332,0.755,0.333,0.722,0.333    c-0.034,0-0.063-0.001-0.091-0.004C0.604,0.327,0.597,0.322,0.604,0.317C0.611,0.312,0.627,0.308,0.648,0.305z M0.604,0.749V0.436    H0.84v0.313H0.604z M0.917,0.749V0.436h0.04v0.313H0.917z M1.286,1.21C1.3,1.223,1.314,1.236,1.332,1.255    c0.017,0.019,0.033,0.038,0.053,0.059c0.018,0.02,0.032,0.042,0.043,0.063l0.156,0.312H1.141c0-0.135,0.003-0.272,0.009-0.41    c0.008-0.14,0.022-0.277,0.042-0.412h0.164c0,0.023-0.004,0.047-0.012,0.072c-0.01,0.024-0.021,0.052-0.032,0.078    C1.301,1.045,1.289,1.073,1.28,1.1c-0.01,0.028-0.014,0.058-0.014,0.089C1.267,1.191,1.272,1.198,1.286,1.21z M1.25,0.297    c0.032,0,0.052,0.008,0.06,0.021c0.005,0.005,0,0.01-0.015,0.012C1.281,0.332,1.267,0.333,1.25,0.333    c-0.016,0-0.029-0.001-0.043-0.004C1.195,0.327,1.189,0.322,1.191,0.317C1.2,0.305,1.22,0.297,1.25,0.297z M1.191,0.396h0.087    c0,0.055-0.008,0.108-0.021,0.162C1.243,0.613,1.221,0.663,1.191,0.71V0.396z M1.338,0.79C1.334,0.791,1.332,0.792,1.329,0.792    c-0.002,0-0.009-0.001-0.02-0.004C1.305,0.783,1.297,0.775,1.286,0.767c-0.011-0.01-0.016-0.016-0.016-0.018l0.078-0.234v0.273    C1.347,0.788,1.344,0.789,1.338,0.79z M1.722,1.356c0-0.007,0.006-0.014,0.02-0.02c0.013-0.005,0.02,0.003,0.02,0.02    c0,0.019-0.007,0.026-0.02,0.021C1.728,1.372,1.722,1.365,1.722,1.356z M1.984,1.26c0-0.027,0.01-0.04,0.03-0.04    c0.022,0,0.033,0.013,0.033,0.04c0,0.025-0.011,0.039-0.033,0.039C1.994,1.299,1.984,1.285,1.984,1.26z M3.671,0.317    c0-0.025,0.01-0.039,0.031-0.039c0.021,0,0.031,0.014,0.031,0.039c0,0.026-0.011,0.04-0.031,0.04    C3.681,0.357,3.671,0.344,3.671,0.317z" fill="#FFFFFF"/>
    </g>
  </g></svg>