<?xml version="1.0" standalone="no"?>
<svg xmlns="http://www.w3.org/2000/svg" viewBox="-6.37 -6.37 12.74 12.74" color="#212121" width="75" height="75"><g transform="matrix(1 0 0 -1 0 0)">
    <g xmlns="http://www.w3.org/2000/svg">
      <path class="primary" fill="currentColor" d="M0-6.245c-3.444,0-6.245,2.802-6.245,6.246c0,3.443,2.802,6.244,6.245,6.244s6.245-2.801,6.245-6.244    C6.245-3.443,3.444-6.245,0-6.245z"/>
      <path class="secondary" d="M0,6.12c3.38,0,6.12-2.74,6.12-6.119C6.12-3.38,3.38-6.12,0-6.12s-6.12,2.74-6.12,6.121    C-6.12,3.38-3.38,6.12,0,6.12 M0,6.37c-3.513,0-6.37-2.857-6.37-6.369C-6.37-3.512-3.513-6.37,0-6.37s6.37,2.858,6.37,6.371    C6.37,3.513,3.513,6.37,0,6.37L0,6.37z" fill="#FFFFFF"/>
    </g>
    <g xmlns="http://www.w3.org/2000/svg" id="Pirate_Ship_3_">
      <path class="secondary" d="M-4.579,1.753c0.011-0.035,0.037-0.021,0.071-0.01c0.033,0.012,0.051,0.051,0.039,0.085l-0.007,0.02    c-0.013,0.034-0.039,0.021-0.072,0.01c-0.034-0.015-0.051-0.051-0.04-0.085L-4.579,1.753z" fill="#FFFFFF"/>
      <path class="secondary" d="M-4.386,1.702c0,0,0.01,0.007,0.018,0.01C-4.361,1.714-4.35,1.716-4.35,1.716    c0.007,0.002,0.012,0.007,0.012,0.01c0.001,0.004-0.001,0.011-0.007,0.016l-0.018,0.021L-4.38,1.782    c-0.005,0.005-0.011,0.007-0.015,0.005C-4.4,1.784-4.404,1.78-4.405,1.773V1.746l-0.001-0.028c-0.002-0.006,0-0.011,0.004-0.014    C-4.397,1.7-4.392,1.7-4.386,1.702z" fill="#FFFFFF"/>
      <g>
        <path class="secondary" d="M-3.348,2.862C-3.496,2.844-3.554,2.842-3.85,2.69c-0.11-0.057-0.293-0.206-0.507-0.332     c-0.328-0.191-0.729-0.326-1.051,0.019l0.131-1.567c0.171-0.052,0.486-0.084,0.895,0.145c0.045,0.026,0.093,0.05,0.138,0.072     C-3.856,1.21-3.475,1.249-3.218,1.18L-3.348,2.862z M-4.725,1.867c-0.014,0.036-0.019,0.075-0.017,0.112     c0.003,0.036,0.012,0.072,0.029,0.104c0.016,0.032,0.037,0.062,0.064,0.087c0.027,0.027,0.06,0.046,0.098,0.06     c0.038,0.012,0.074,0.019,0.112,0.014c0.038-0.002,0.073-0.011,0.104-0.027C-4.3,2.203-4.27,2.178-4.244,2.153     C-4.22,2.126-4.2,2.091-4.188,2.055c0.014-0.036,0.031-0.124,0.033-0.16c0.003-0.034-0.002-0.078-0.02-0.103     C-4.181,1.782-4.2,1.767-4.206,1.757C-4.22,1.721-4.204,1.687-4.23,1.659C-4.257,1.632-4.291,1.61-4.329,1.597     c-0.037-0.014-0.076-0.018-0.113-0.014c-0.039,0.005-0.049,0.044-0.084,0.062C-4.535,1.649-4.562,1.649-4.57,1.651     c-0.031,0.01-0.061,0.042-0.079,0.069C-4.672,1.75-4.712,1.83-4.725,1.867z M-4.169,1.655c0.016-0.047,0-0.074-0.025-0.101     c-0.027-0.027-0.06-0.048-0.097-0.062C-4.329,1.48-4.368,1.474-4.405,1.478c-0.039,0.008-0.068,0.019-0.084,0.064l-0.013,0.037     l0.007,0.004c0.019-0.022,0.038-0.041,0.067-0.045c0.039-0.005,0.077,0,0.114,0.014c0.038,0.014,0.071,0.034,0.099,0.062     C-4.195,1.636-4.19,1.66-4.19,1.689l0.007,0.002L-4.169,1.655z M-3.917,1.19c-0.027,0.002-0.047,0.027-0.046,0.055l-0.259,0.034     l-0.181-0.188c0.019-0.021,0.018-0.053-0.003-0.073c-0.021-0.021-0.056-0.023-0.076-0.002C-4.496,1.03-4.501,1.048-4.499,1.063     c-0.006,0.003-0.014,0.005-0.02,0.012c-0.014,0.012-0.014,0.035,0,0.049c0.012,0.014,0.034,0.014,0.048,0l0.16,0.166l-0.19,0.025     C-4.508,1.29-4.532,1.272-4.562,1.276c-0.03,0.003-0.051,0.032-0.047,0.062c0.002,0.021,0.017,0.036,0.035,0.043     c-0.002,0.007-0.003,0.012-0.002,0.016c0.002,0.021,0.02,0.035,0.039,0.032c0.02-0.002,0.032-0.021,0.029-0.038l0.258-0.035     l0.181,0.188C-4.083,1.556-4.083,1.579-4.07,1.593s0.035,0.014,0.049,0.002c0.005-0.007,0.008-0.012,0.01-0.016     c0.018,0.004,0.04,0.002,0.055-0.014c0.021-0.021,0.022-0.056,0.001-0.078c-0.02-0.021-0.05-0.021-0.072-0.005l-0.134-0.14     l0.23-0.029c0.002,0.019,0.02,0.032,0.039,0.029c0.019-0.002,0.031-0.02,0.029-0.039c-0.001-0.009-0.004-0.016-0.01-0.02     c0.014-0.012,0.02-0.028,0.018-0.047C-3.858,1.206-3.887,1.186-3.917,1.19z" fill="#FFFFFF"/>
      </g>
      <path class="secondary" d="M-4.363,1.864C-4.351,1.83-4.314,1.812-4.28,1.823c0.033,0.014,0.063,0.019,0.052,0.053l-0.008,0.02    c-0.012,0.034-0.05,0.053-0.083,0.042C-4.354,1.924-4.383,1.92-4.37,1.886L-4.363,1.864z" fill="#FFFFFF"/>
      <path class="secondary" d="M5.286-0.37L4.899-0.675L4.134-0.901l0.007-0.082L3.473-1.132l-0.037,0.07c0,0-1.355-0.355-2.892-0.578    L0.511-0.762C0.8-0.885,1.093-1.021,1.388-1.171l0.043,0.082C1.12-0.931,0.81-0.789,0.507-0.661L0.409,2.068l-0.15-0.014    l0.005-0.097l-2.907-1.701c-0.004,0-0.01,0.002-0.015,0.002c-0.06,0.009-0.118,0.021-0.177,0.029l-0.247,2.757L-3.136,3.04    L-3.19,3.036l0.213-2.727C-3.882,0.446-4.47,0.444-4.476,0.444V0.398L-4.599,0.39c0,0,0.362-1.373,0.812-2.06    c0,0,0.343-0.537,0.312-0.942c0,0,2.48-0.968,6.67-0.109l2.213,2.26L5.286-0.37z M0.356-0.599C-0.57-0.224-1.44,0.012-2.146,0.16    l2.41,1.78L0.356-0.599z M0.147,1.872l-2.313-1.707c-0.16,0.032-0.313,0.062-0.454,0.087L0.147,1.872z M-2.673,0.167    c0.128-0.022,0.264-0.048,0.407-0.077l-0.517-0.382l-0.039,0.425l0.076,0.046C-2.721,0.174-2.698,0.172-2.673,0.167z     M-2.769,0.184l-0.055-0.032l-0.003,0.041C-2.808,0.188-2.787,0.186-2.769,0.184z M-2.959,0.071l-1.137-0.666    c-0.149,0.247-0.279,0.557-0.369,0.947c0.083,0,0.651-0.012,1.496-0.137L-2.959,0.071z M-4.088-0.608l1.132,0.661l0.034-0.448    l-0.843-0.622l0.003-0.007C-3.875-0.91-3.985-0.772-4.088-0.608z M-3.755-1.029l0.835,0.615l0.087-1.116    C-3.062-1.482-3.421-1.358-3.755-1.029z M-2.489-1.766l-0.1,0.208c0,0-0.03,0-0.08,0.005l-0.112,1.242l0.536,0.397    c0.723-0.148,1.634-0.39,2.604-0.786l0.034-0.961C-0.612-1.803-1.681-1.88-2.489-1.766z" fill="#FFFFFF"/>
    </g>
  </g></svg>