<?xml version="1.0" standalone="no"?>
<svg xmlns="http://www.w3.org/2000/svg" viewBox="-6.37 -6.37 12.74 12.74" color="#212121" width="75" height="75"><g transform="matrix(1 0 0 -1 0 0)">
    <g xmlns="http://www.w3.org/2000/svg">
      <circle class="primary" fill="currentColor" cx="0" cy="0" r="6.245"/>
      <path class="secondary" d="M0,6.12c3.38,0,6.12-2.74,6.12-6.12S3.38-6.12,0-6.12S-6.12-3.38-6.12,0S-3.38,6.12,0,6.12 M0,6.37    c-3.513,0-6.37-2.857-6.37-6.37S-3.513-6.37,0-6.37S6.37-3.513,6.37,0S3.513,6.37,0,6.37L0,6.37z" fill="#FFFFFF"/>
    </g>
    <g xmlns="http://www.w3.org/2000/svg" id="Power_Boat_1_">
      <path class="secondary" d="M5.532,0.076L0.828-0.033l-0.981,0.632l-0.246,0.044l-0.64,0.458l0.004,0.002l-0.411,0.466h0.01l0.27,0.102    l-0.001,0.081c0,0-2.318-0.026-2.724-0.051l0.077-0.174l0.154,0.002l0.021-1.156L-3.878,0.35c0,0-0.044-0.061-0.003-0.157    l0.817,0.023c0,0-0.087-0.704-0.837-0.886l-1.233-0.047l-0.119,0.076l-0.296-0.004c0,0-0.068-0.032,0.001-0.079    c0,0,0.119-0.057,0.123-0.283l0.043-0.729l9.048-0.013c0,0,0.689-0.066,1.196,0.77L5.33-0.192c0,0,0.077,0.118,0.203,0.181    C5.533-0.012,5.641,0.059,5.532,0.076z M-1.503,1.546l0.082-0.567c-0.066,0.003-0.159,0.008-0.267,0.01l-0.718,0.563l0.883,0.016    L-1.503,1.546z M-3.412,1.534l-0.171-0.951L-3.6,1.53L-3.412,1.534z M-3.553,0.415l0.2,1.119l0.852,0.016l0.714-0.559    C-2.39,0.995-3.372,0.921-3.553,0.415z M-1.361,0.975l-0.071,0.489l0.343-0.388c-0.04-0.038-0.113-0.094-0.221-0.105    C-1.311,0.971-1.328,0.973-1.361,0.975z" fill="#FFFFFF"/>
    </g>
  </g></svg>