<?xml version="1.0" standalone="no"?>
<svg xmlns="http://www.w3.org/2000/svg" viewBox="-6.37 -6.37 12.74 12.74" color="#212121" width="75" height="75"><g transform="matrix(1 0 0 -1 0 0)">
    <g xmlns="http://www.w3.org/2000/svg">
      <path class="primary" fill="currentColor" d="M0-6.245c-3.443,0-6.245,2.802-6.245,6.245S-3.443,6.245,0,6.245S6.245,3.444,6.245,0S3.443-6.245,0-6.245z"/>
      <path class="secondary" d="M0,6.12c3.38,0,6.12-2.74,6.12-6.12S3.38-6.12,0-6.12S-6.12-3.38-6.12,0S-3.38,6.12,0,6.12 M0,6.37    c-3.513,0-6.37-2.858-6.37-6.37S-3.513-6.37,0-6.37S6.37-3.513,6.37,0S3.513,6.37,0,6.37L0,6.37z" fill="#FFFFFF"/>
    </g>
    <g xmlns="http://www.w3.org/2000/svg">
      <path class="secondary" d="M4.622-0.176v0.624l0.003,0.004L4.622,0.454v0.35h-0.02V0.456L4.072-0.17L4.067-0.176h-4.28v0.559h-0.02    v-0.559h-1.245v0.782h-0.02v-0.782h-1.706v0.407l-0.025,0.161l-0.119,0.147l-0.237,0.035l-0.027-0.181H-3.79l0.117,0.915    l0.006,0.053h-0.604l-0.396-0.968h-0.337V0.1l-0.322,0.024v-0.251h-0.521l0.182-0.422l0.154-0.203l0.232-0.23l0.496-0.298    l0.321-0.081h9.634L5.3-0.766l0.591,0.59C5.891-0.176,4.622-0.176,4.622-0.176z M4.602-0.176h-0.51l0.51,0.601V-0.176z" fill="#FFFFFF"/>
    </g>
  </g></svg>