<?xml version="1.0" standalone="no"?>
<svg xmlns="http://www.w3.org/2000/svg" viewBox="-6.37 -6.37 12.74 12.74" color="#212121" width="75" height="75"><g transform="matrix(1 0 0 -1 0 0)">
    <g xmlns="http://www.w3.org/2000/svg">
      <path class="primary" fill="currentColor" d="M0.001-6.245c-3.444,0-6.246,2.802-6.246,6.245s2.802,6.245,6.246,6.245c3.443,0,6.244-2.802,6.244-6.245    S3.444-6.245,0.001-6.245z"/>
      <path class="secondary" d="M0.001,6.12C3.38,6.12,6.12,3.38,6.12,0S3.38-6.12,0.001-6.12C-3.38-6.12-6.12-3.38-6.12,0    S-3.38,6.12,0.001,6.12 M0.001,6.37C-3.512,6.37-6.37,3.513-6.37,0s2.858-6.37,6.371-6.37C3.513-6.37,6.37-3.513,6.37,0    S3.513,6.37,0.001,6.37L0.001,6.37z" fill="#FFFFFF"/>
    </g>
    <path xmlns="http://www.w3.org/2000/svg" id="Response_Boat_2_" class="secondary" d="M5.685-0.176L5.61-0.202L5.514-0.115L5.458-0.154l-0.049,0.14L5.363-0.032l0.006-0.085   L5.151-0.166L5.055-0.187L4.976,0.328C4.951,0.498,4.77,0.502,4.768,0.501H4.764L4.016,0.346L4.003,0.398   C4,0.409,3.994,0.418,3.985,0.424c-0.003,0.012-0.006,0.024-0.01,0.033C3.977,0.458,3.977,0.459,3.98,0.459   c0,0.002,0,0.004,0,0.005C3.977,0.465,3.973,0.466,3.973,0.471c0.008,0,0.015,0.006,0.019,0.005c0.003,0,0.006-0.001,0.008-0.002   c0.008,0,0.017-0.007,0.025-0.007c0.051,0.002,0.118,0.032,0.169,0.031c-0.001,0-0.001,0-0.002,0   c0.006,0.001,0.012,0.004,0.017,0.006c0,0.003,0.001,0.003,0.001,0.005c0.002,0.001,0,0.008,0.001,0.01   c0.001,0.003,0.003,0.003,0.006,0.003v0.002c-0.004,0.002-0.002,0.01-0.005,0.015C4.265,0.548,4.323,0.56,4.383,0.572   c0.002,0,0.004-0.004,0.008-0.008c0.001,0,0.001,0,0.003,0c0,0,0.001,0,0.002,0c0.002,0,0.005,0,0.006,0   c0,0.002,0.001,0.004,0.002,0.006c-0.002-0.001-0.002,0-0.002,0.004l0.1,0.021L4.494,0.623c-0.006,0-0.011-0.006-0.013,0   L4.604,0.65l0,0c0,0,0.001,0,0.002,0l0.079,0.016c0.006,0.002,0.01,0.003,0.01,0.003l0,0c0.002,0,0.002,0,0.003,0.001H4.7   c0,0.008-0.002,0.02-0.008,0.026c0.002-0.003-0.072-0.021-0.085-0.01c-0.005,0,0-0.007-0.003-0.008   c-0.004,0.001-0.008,0.001-0.015,0C4.586,0.691,4.587,0.693,4.58,0.703L4.562,0.699c0.004-0.013-0.003-0.003-0.007-0.01   c-0.001-0.008,0-0.019-0.001-0.021L4.46,0.648L4.151,0.583c0,0.009-0.005,0.012-0.007,0.018C4.138,0.597,4.137,0.604,4.133,0.607   c-0.006,0.016-0.012,0.03-0.021,0.044c-0.007-0.002-0.012,0-0.015,0.005C4.095,0.655,4.094,0.654,4.092,0.654   c-0.001,0-0.002,0-0.003,0C4.087,0.651,4.085,0.648,4.08,0.643C4.05,0.655,4.021,0.63,3.992,0.631   C3.991,0.629,3.989,0.629,3.986,0.628c-0.001,0-0.002,0-0.003,0C3.977,0.617,3.97,0.602,3.984,0.587   c0.036-0.006,0.124,0.05,0.12-0.013C4.062,0.575,4.021,0.55,3.98,0.551c-0.004,0-0.002,0.004-0.009,0.004   c-0.03-0.004-0.056-0.018-0.084-0.018C3.871,0.539,3.85,0.546,3.83,0.531c0.004,0-0.004-0.01-0.006-0.013   c-0.011-0.003-0.023,0-0.026-0.004C3.796,0.521,3.796,0.529,3.792,0.531C3.77,0.529,3.759,0.524,3.741,0.524   c0,0.001,0,0.002,0,0.003c-0.005,0.002-0.008,0.005-0.009,0.01L3.73,0.546c0,0.002,0,0.003,0,0.004s0,0.001,0,0.001   c0,0.002-0.001,0.004-0.001,0.008c0-0.002-0.002-0.002-0.003-0.002s-0.002,0-0.002,0c-0.008-0.013,0-0.035-0.001-0.05   C3.725,0.504,3.725,0.5,3.725,0.497c0.001,0.001,0.002,0.001,0.002,0.002c-0.004-0.013-0.01-0.025-0.021-0.033   c0,0,0-0.001-0.003-0.002c0.002,0.001,0.003,0.002,0.003,0.002C3.709,0.469,3.7,0.463,3.696,0.463L3.649,0.45L3.612,0.443   c0-0.004,0.003-0.01,0-0.012C3.566,0.429,3.521,0.416,3.47,0.409c0,0-0.03-0.011-0.052-0.013c-0.002-0.002-0.001-0.004,0-0.005   s0.001-0.001,0,0L3.417,0.393c0.02-0.055,0.025-0.109,0.063-0.137c0.02,0.008,0.032,0.02,0.047,0.031l0.085,0.061   c0.016,0.01,0.033,0.026,0.049,0.029C3.674,0.38,3.688,0.371,3.7,0.376C3.716,0.402,3.73,0.42,3.753,0.424   C3.774,0.426,3.779,0.405,3.796,0.4c0.004,0,0,0,0.003,0c0,0,0.006,0,0.011,0c0.026,0.002,0.033,0.039,0.073,0.016   C3.884,0.412,3.886,0.406,3.888,0.4C3.884,0.391,3.882,0.38,3.884,0.369l0.013-0.048L3.61,0.262   C3.422,0.218,3.426,0.124,3.43,0.106L3.358-0.546L3.183-0.583l-0.297,0.3l0.22,0.418c0,0,0.019,0.02-0.045,0.013l-1.06-0.146v0.021   L1.766,0.084L1.705-0.061L1.489-0.088l0.015,0.027l0.019-0.013l0.369,0.745L0.095,0.808l-0.276-0.03l-0.036,0.027l-0.157-0.016   l-0.049,0.03l0.075,0.11l-0.195,0.123l-0.089-0.099L-0.774,1.05h-0.013v0.03C-0.746,1.1-0.719,1.129-0.72,1.163   c0,0.042-0.046,0.077-0.11,0.093l-0.002,0.057c0,0.002,0,0.004,0,0.005l0.347,0.004c0.024,0,0.044,0.021,0.044,0.046   c0,0.024-0.021,0.045-0.045,0.045L-1.351,1.4c-0.023,0-0.043-0.02-0.043-0.045c0-0.024,0.021-0.044,0.045-0.044l0.366,0.005   c0-0.002,0-0.004,0-0.006l0.001-0.059c-0.061-0.018-0.102-0.054-0.102-0.094c0-0.034,0.028-0.064,0.074-0.082V1.053l-0.042-0.002   H-1.16l-0.089,0.104L-1.57,1.134l-0.035,0.362h-0.038l-0.004,0.035l0.171,0.013c0.014,0.001,0.022,0.013,0.021,0.025   C-1.457,1.582-1.468,1.591-1.479,1.59h-0.016v0.039l-0.014,0.002L-1.51,1.689l-0.03,0.02l0.03,0.012l0.013,0.004l0.038,0.085   l-0.174-0.002l0.019-0.083h0.03l0.014-0.029h-0.014l0.016-0.066h-0.015V1.582l-0.069-0.005l-0.026,0.239l0.185,0.015   c0.02,0.001,0.036,0.014,0.034,0.026c0,0.012-0.017,0.021-0.036,0.02l0.006,0.02l-0.023,0.087l0.068-0.021   c0.026-0.009,0.055,0.007,0.062,0.032l0.018,0.055c0.008,0.025-0.007,0.055-0.034,0.062L-1.581,2.17   c-0.027,0.009-0.055-0.007-0.063-0.033l-0.017-0.053C-1.67,2.056-1.656,2.027-1.629,2.02l0.085-0.027l-0.004-0.04L-1.587,1.87l0,0   l-0.097-0.007l-0.092,0.853h0.007l0.035-0.375l0.009,0.001L-1.76,2.716l0.08,0.005l0.002-0.01C-1.677,2.705-1.674,2.7-1.67,2.698   l0.03-0.336l0.01,0.001l-0.031,0.332c0.001,0,0.001,0,0.002,0c0.01,0,0.016,0.01,0.015,0.02L-1.65,2.764   C-1.652,2.773-1.66,2.78-1.668,2.78L-1.7,3.123h-0.01l0.032-0.348C-1.683,2.772-1.686,2.767-1.684,2.76l0.001-0.011l-0.079-0.006   L-1.795,3.1h-0.009l0.033-0.356h-0.008V2.75C-1.781,2.771-1.8,2.786-1.821,2.785C-1.83,2.783-1.837,2.779-1.842,2.774l-0.033,0.347   l-0.01-0.001l0.033-0.356C-1.854,2.757-1.856,2.75-1.855,2.741V2.738l-0.082-0.005L-1.938,2.74   c-0.001,0.008-0.007,0.013-0.014,0.014L-1.983,3.09h-0.009l0.031-0.336c-0.008-0.003-0.013-0.011-0.012-0.019l0.007-0.05   c0-0.006,0.006-0.013,0.013-0.014l0.031-0.343l0.009,0.002l-0.03,0.341c0.007,0.002,0.012,0.01,0.011,0.018l-0.002,0.016   l0.082,0.006l0.04-0.375c-0.003,0.002-0.006,0.003-0.01,0.003c-0.018,0-0.031-0.016-0.031-0.032l0.001-0.105   C-1.851,2.182-1.836,2.17-1.82,2.17c0.01,0,0.02,0.005,0.024,0.013l0.018-0.167L-1.887,2c-0.011-0.001-0.018-0.011-0.017-0.021   c0.002-0.011,0.012-0.019,0.021-0.017l0.038,0.006l0.016-0.113c0-0.002,0.001-0.004,0.001-0.004L-1.83,1.85   c-0.021,0-0.035-0.013-0.035-0.024c0.002-0.013,0.019-0.021,0.038-0.021l0.07,0.007l0.033-0.317h-0.021l0.011-0.137L-1.842,1.35   l0.026-0.186l0.095,0.001L-1.73,0.676l-0.049-0.002l-0.157-0.317L-1.7-0.361l-0.101-0.025l0.018-0.589l-0.05-0.005l-0.04,0.308   c-0.009,0.069-0.032,0.119-0.073,0.146c-0.046,0.033-0.097,0.024-0.106,0.021l-2.17-0.148v-0.001c-0.018,0-0.119-0.016-0.77-0.132   L-5-0.79l-0.003-0.016C-5-0.812-4.997-0.819-4.939-0.819l0.01-0.118c-0.004-0.001-0.006-0.004-0.008-0.008l-0.237-0.551   l-0.001-0.006c0-0.001,0.004-0.15,0.115-0.195l-0.001-0.002c-0.003-0.019-0.05-0.077-0.05-0.077l-0.482-0.021   c0,0-0.098-0.023-0.125-0.054c-0.027-0.029-0.1-0.158,0.033-0.304c0,0,5.83-0.295,10.3,0.346c0,0,0.655,0.539,1.025,1.223   L5.639-0.535l0.05,0.025L5.688-0.478C5.688-0.478,5.863-0.357,5.685-0.176z M3.796,0.415C3.793,0.427,3.827,0.44,3.827,0.422   C3.807,0.402,3.812,0.42,3.796,0.415z M-1.798,1.854c0,0.002,0,0.004,0,0.006l-0.016,0.112l0.04,0.005l0.013-0.119L-1.798,1.854z    M-5.003-1.494l-0.05-0.176c-0.086,0.038-0.095,0.146-0.096,0.166l0.224,0.518l0.04-0.45L-5.003-1.494z M-4.912-0.819   c0.038,0.002,0.092,0.005,0.168,0.007l0.531,0.041l0.033-0.338L-4.882-1.15L-4.912-0.819z M-4.596-1.297l-0.263-0.127L-4.88-1.179   l0.702,0.043l0.012-0.111L-4.596-1.297z M-4.139-1.244L-4.185-0.77l0.352,0.027l0.005-0.07C-3.851-0.856-3.861-0.907-3.861-0.96   c0-0.069,0.022-0.133,0.06-0.186l0.005-0.06L-4.139-1.244z M-3.803-0.771l-0.002,0.03l0.026,0.002   C-3.786-0.749-3.796-0.759-3.803-0.771z M-3.77-1.202v0.02C-3.765-1.189-3.76-1.194-3.752-1.2L-3.77-1.202z M-4.196-0.741   C-4.197-0.74-4.199-0.74-4.201-0.74c-0.004,0-0.006-0.001-0.007-0.002l-0.538-0.042c-0.037-0.002-0.069-0.003-0.097-0.004   c0.278,0.049,0.602,0.105,0.622,0.105c0,0-0.003,0-0.004,0.001l0.004-0.001l0.6,0.042c-0.047-0.013-0.09-0.037-0.126-0.066   L-4.196-0.741z M-3.531-1.153C-3.585-1.154-3.633-1.134-3.668-1.1l0.285,0.019C-3.419-1.125-3.473-1.152-3.531-1.153z    M-3.362-1.053l-0.33-0.021c-0.023,0.033-0.039,0.072-0.039,0.115c-0.001,0.108,0.086,0.197,0.194,0.2   c0.109,0.001,0.198-0.087,0.199-0.195C-3.338-0.99-3.346-1.024-3.362-1.053z M-2.596-1.067l-0.672-0.077   c0.016,0.021,0.03,0.047,0.039,0.072l0.633,0.042C-2.596-1.03-2.596-1.067-2.596-1.067z M-2.596-1.002l-0.623-0.041   c0.008,0.029,0.012,0.059,0.012,0.09c-0.001,0.101-0.048,0.189-0.119,0.249l0.503,0.038c0.007,0,0.058-0.004,0.108-0.029   c0.072-0.035,0.112-0.092,0.117-0.17L-2.596-1.002z M-2.567-1.065l-0.002,0.202L-2.57-0.862C-2.575-0.775-2.621-0.709-2.703-0.67   c-0.06,0.029-0.118,0.032-0.12,0.032h-0.002l-0.537-0.04c-0.039,0.023-0.082,0.039-0.129,0.045l1.44,0.1h0.004   c0,0,0.046,0.012,0.086-0.017c0.033-0.022,0.054-0.065,0.06-0.126l0.04-0.309L-2.567-1.065z M-1.244-0.245l-0.307-0.022   c0,0-0.047-0.007-0.077,0.064l-0.113,0.372c0,0,0.006,0.055,0.06,0.059l0.397,0.025c0,0,0.075,0.018,0.087-0.094l0.035-0.344   C-1.162-0.185-1.156-0.242-1.244-0.245z M-0.271-0.156l-0.646-0.047c-0.025-0.001-0.047,0.018-0.049,0.044l-0.028,0.38   c-0.001,0.025,0.018,0.048,0.044,0.05l0.646,0.046c0.026,0.002,0.048-0.018,0.05-0.043l0.027-0.38   C-0.227-0.133-0.245-0.154-0.271-0.156z M0.117-0.123C0.023-0.132,0.014-0.067,0.014-0.067L-0.02,0.246   c-0.005,0.088,0.052,0.099,0.052,0.099L0.34,0.363l0.035-0.467L0.117-0.123z M0.92,0.295L0.814,0.061   c-0.062-0.139-0.1-0.139-0.1-0.139l-0.27-0.016L0.403,0.372L0.813,0.4C0.932,0.409,0.92,0.295,0.92,0.295z M1.047-0.021   C1.005-0.022,1.019,0.018,1.019,0.018l0.209,0.438c0.014,0.028,0.063,0.032,0.063,0.032l0.287,0.025   c0.064,0.008,0.03-0.053,0.03-0.053l-0.27-0.453L1.047-0.021z M4.77,0.474c0.006,0,0.043-0.003,0.08-0.021   c0.058-0.024,0.09-0.068,0.099-0.128l0.022-0.142l-0.803-0.17L4.075,0.182c0.018,0.011,0.027,0.031,0.022,0.053L4.093,0.256   C4.087,0.283,4.06,0.302,4.033,0.295L4.029,0.294L4.022,0.318L4.77,0.474z M3.95,0.15L3.95,0.15l0.1,0.021l0.09-0.164L3.95-0.034   V0.15z M3.919-0.428L3.388-0.539l0.039,0.367l0.494,0.104L3.919-0.428z M3.921-0.039L3.43-0.143l0.027,0.248L3.456,0.109   C3.455,0.113,3.441,0.193,3.615,0.234l0.287,0.059L3.91,0.266C3.89,0.255,3.881,0.234,3.886,0.213L3.891,0.19   c0.004-0.018,0.016-0.031,0.031-0.037L3.921-0.039z M3.947-0.422l0.002,0.359l0.204,0.044L4.33-0.34L3.947-0.422z M4.359-0.334   L4.182-0.013l0.793,0.168l0.054-0.347L4.359-0.334z" fill="#FFFFFF"/>
  </g></svg>