<?xml version="1.0" standalone="no"?>
<svg xmlns="http://www.w3.org/2000/svg" viewBox="-6.37 -6.37 12.74 12.74" color="#212121" width="75" height="75"><g transform="matrix(1 0 0 -1 0 0)">
    <g xmlns="http://www.w3.org/2000/svg">
      <circle class="primary" fill="currentColor" cx="0" cy="0" r="6.245"/>
      <path class="secondary" d="M0,6.12c3.38,0,6.12-2.74,6.12-6.12S3.38-6.12,0-6.12S-6.12-3.38-6.12,0S-3.38,6.12,0,6.12 M0,6.37    c-3.513,0-6.37-2.857-6.37-6.37S-3.513-6.37,0-6.37S6.37-3.513,6.37,0S3.513,6.37,0,6.37L0,6.37z" fill="#FFFFFF"/>
    </g>
    <g xmlns="http://www.w3.org/2000/svg" id="Sailing_Dinghy_1_">
      <path class="secondary" d="M3.167-4.069C3.146-4.01,3.115-3.911,3.089-3.857l0.357-0.008l0.001-0.003l0.006,0.002l0.434-0.012    l0.002,0.062L3.437-3.804L3.373-3.629H3.367l-2.492,6.62L0.88,2.993L0.838,3.091L0.832,3.106H0.83L0.63,3.56l0.032,0.451    l-0.147,1.78H0.504l0.147-1.779l-0.03-0.429l-0.149,0.34v1.915h-0.07v-0.15H0.351c0,0-2.372-5.734-2.901-9.102    c0,0,1.729-0.168,2.748-0.09l-0.004-0.07h-2.925v-0.062h0.944V-4.19l-1.978-0.048L0.213,5.79L0.201,5.794l-3.978-10.03    l0.006-0.002L-3.826-4.24l-0.246-0.152C-3.911-4.378-2.814-4.6-2.814-4.6H3.13c0.574,0.123,0.942,0.552,0.942,0.552L3.167-4.069z     M0.748-3.737l0.114,0.129c0.188-0.03,1.487-0.227,2.521-0.08l0.041-0.115L0.748-3.737z M0.817,3.106H0.754    c0,0-0.268-4.702,0.085-6.711c0,0,0.004,0,0.01,0L0.733-3.737H0.722v-0.014L0.718-3.756l0.004-0.003L0.721-3.798l0.35-0.01H1.064    v-0.314L0.472-4.135v5.468l0.156,2.204L0.817,3.106z M-0.546-3.635l0.72-0.343v-0.014l-0.75,0.356L-0.546-3.635L-0.546-3.635z     M0.186-3.982l0.216-0.104V-4.1L0.185-3.997L0.186-3.982z M0.401-4.073L0.186-3.97l0.016,0.335h0.2v-0.438H0.401z M0.401-4.112    v-0.025L0.178-4.142L0.184-4.01L0.401-4.112z M0.619,3.559L0.472,1.493v2.401L0.619,3.559z M0.208-3.503    c0.068,0.006,0.134,0.012,0.193,0.021v-0.091H0.205L0.208-3.503z M0.174-3.965l-0.693,0.33h0.71L0.174-3.965z M-1.775-3.635H-0.6    l-0.001-0.001l0.772-0.368L0.165-4.142l-1.94-0.049C-1.775-4.191-1.775-3.635-1.775-3.635z M1.075-4.121v0.313l2.001-0.05    C3.1-3.905,3.133-4.001,3.155-4.071L1.075-4.121z" fill="#FFFFFF"/>
    </g>
  </g></svg>