<?xml version="1.0" standalone="no"?>
<svg xmlns="http://www.w3.org/2000/svg" viewBox="-6.37 -6.37 12.74 12.74" color="#212121" width="75" height="75"><g transform="matrix(1 0 0 -1 0 0)">
    <g xmlns="http://www.w3.org/2000/svg">
      <circle class="primary" fill="currentColor" cx="0" cy="0" r="6.245"/>
      <path class="secondary" d="M0,6.12c3.38,0,6.12-2.74,6.12-6.12S3.38-6.12,0-6.12S-6.12-3.38-6.12,0S-3.38,6.12,0,6.12 M0,6.37    c-3.513,0-6.37-2.857-6.37-6.37S-3.513-6.37,0-6.37S6.37-3.513,6.37,0S3.513,6.37,0,6.37L0,6.37z" fill="#FFFFFF"/>
    </g>
    <path xmlns="http://www.w3.org/2000/svg" class="secondary" d="M4.185-4.116l0.009,0.002l-3.21,9.511l-0.007,0.24C0.979,5.64,0.979,5.642,0.979,5.645   c0,0-0.001,0.002-0.002,0.003v0.023L0.888,5.668c-0.011,0-0.021,0.001-0.033,0.001c-0.068,0-0.124-0.012-0.124-0.024   c0-0.015,0.056-0.028,0.124-0.028c0.003,0,0.007,0.002,0.008,0.002l0.008-0.23H0.702c0,0-2.272-5.284-2.49-8.832   c0,0,1.725-0.204,2.809-0.063l0.124,0.025l0.004-0.106c-0.181-0.004-0.525,0-0.922,0.007L0.221-3.579L0.219-3.582   c-0.927,0.017-2.127,0.053-2.146,0.053l-0.002-0.058c0.02,0,1.289-0.039,2.227-0.055l0.866-0.453l0.001-0.071L0.434-4.173   l-0.28,0.18h-1.137l-0.179-0.102l-0.587-0.063l-0.013-0.077L-1.8-4.35h-0.09l-0.039,0.191h-0.002l-0.593,6.097l-0.014,0.553   l-0.057-0.003l0.003-0.134C-2.76,2.031-3.74,0.03-4.276-3.648c0,0,1.339-0.11,1.847-0.065l0.001-0.042   c-0.376-0.016-1.866,0.06-1.883,0.06l-0.003-0.059c0.015,0,0.106-0.004,0.244-0.01l-0.036-0.523c-0.014,0-0.027,0.001-0.042,0.001   c0,0,0.268-0.317,0.306-0.331c0.04-0.013,0.269-0.217,0.741-0.23H3.46l0.854,0.741L4.185-4.116z M-1.95-4.157l-0.41,0.02   l-0.154,5.801L-1.95-4.157z M-2.426-3.813l0.006-0.271l-0.444,0.273c0.112-0.002,0.217-0.004,0.302-0.004   C-2.509-3.815-2.463-3.815-2.426-3.813z M-2.503-4.196l-0.445-0.052l-0.064-0.064c0,0-0.351-0.012-1.074,0.023l0.036,0.521   C-3.76-3.78-3.281-3.799-2.902-3.81l0.483-0.298v-0.026l-0.019,0.001L-2.503-4.196z M0.34-3.642   c0.223-0.004,0.425-0.007,0.584-0.007c0.09,0,0.167,0.003,0.227,0.003l0.013-0.427L0.34-3.642z M2.17-4.248l-0.064,0.09   L1.281-4.165L0.986,5.333L1.01,5.265L1.429-3.61c0.728-0.396,2.438-0.268,2.438-0.268L1.129,4.911l3.045-9.029L2.17-4.248z" fill="#FFFFFF"/>
  </g></svg>