<?xml version="1.0" standalone="no"?>
<svg xmlns="http://www.w3.org/2000/svg" viewBox="-6.37 -6.37 12.74 12.74" color="#212121" width="75" height="75"><g transform="matrix(1 0 0 -1 0 0)">
    <g xmlns="http://www.w3.org/2000/svg">
      <circle class="primary" fill="currentColor" cx="0" cy="0" r="6.245"/>
      <path class="secondary" d="M0,6.12c3.38,0,6.12-2.74,6.12-6.12S3.38-6.12,0-6.12S-6.12-3.38-6.12,0S-3.38,6.12,0,6.12 M0,6.37    c-3.513,0-6.37-2.857-6.37-6.37S-3.513-6.37,0-6.37S6.37-3.513,6.37,0S3.513,6.37,0,6.37L0,6.37z" fill="#FFFFFF"/>
    </g>
    <path xmlns="http://www.w3.org/2000/svg" id="Salvage_2_" class="secondary" d="M-5.702-0.629c0.035,0.017,0.049,0.056,0.044,0.119c0.216,0.042,0.33,0.064,0.343,0.066v0.411   c0,0.041,0.017,0.083,0.052,0.125l0.008-0.394c0,0.003,0.011-0.005,0.031-0.024c0.011-0.045,0.017-0.077,0.021-0.098h0.027   c0.128,0.005,0.216,0.023,0.26,0.055c0.047,0.066,0.074,0.117,0.08,0.154c0.043,0.092,0.083,0.199,0.117,0.323   C-4.674,0.26-4.64,0.334-4.616,0.329v0.114h0.031c0.045,0,0.081-0.021,0.11-0.062c0.029-0.04,0.051-0.061,0.067-0.061   c0.116-0.421,0.181-0.653,0.196-0.698c0.031,0,0.057-0.002,0.075-0.002l1.594-0.067h3.459c0.209,0.09,0.415,0.181,0.614,0.272   h0.269v0.239c-0.024,0.052-0.047,0.1-0.071,0.145C1.774,0.251,1.8,0.286,1.804,0.313h0.038c0.005-0.018,0.009-0.031,0.013-0.039   h0.457c0.039-0.008,0.07-0.016,0.09-0.02c0.006,0.027,0.01,0.047,0.012,0.059h0.045V0.221c0.018,0,0.029-0.001,0.035-0.005V0.185   C2.482,0.146,2.471,0.112,2.458,0.083v-0.258h0.098c0.295,0.541,0.442,0.826,0.442,0.853c0,0.008-0.002,0.016-0.004,0.022   C3.009,0.704,3.02,0.71,3.029,0.717c0.005,0.05,0.008,0.092,0.008,0.126c0,0.006,0.002,0.011,0.003,0.016h0.431v0.354   c0,0.011,0.008,0.017,0.024,0.02V0.858c-0.011,0,0.06,0,0.213,0v0.138C3.705,1.093,3.665,1.17,3.589,1.226l0.004,0.023l0.03,0.004   c0.041-0.04,0.068-0.059,0.083-0.059l0.008,0.125c0.014,0.003,0.023,0.003,0.029,0V0.906c0-0.02,0.002-0.035,0.008-0.048h0.043   C3.808,0.86,3.815,0.864,3.817,0.87C3.798,0.946,3.78,1.003,3.771,1.04c0.002,0.056,0.018,0.082,0.043,0.082h0.501v0.269   C4.323,1.38,4.326,1.295,4.326,1.134c0.087-0.058,0.131-0.081,0.131-0.07c0-0.008-0.011-0.049-0.031-0.122   c-0.023-0.075-0.032-0.12-0.032-0.138C4.346,0.769,4.311,0.741,4.287,0.721c0.121-0.355,0.229-0.66,0.323-0.916   c0.654-0.207,0.986-0.313,0.994-0.319c0.047-0.055,0.08-0.104,0.098-0.146C5.203-1.083,4.887-1.326,4.753-1.39H-5.603   c-0.038,0.034-0.07,0.063-0.1,0.088L-5.702-0.629L-5.702-0.629z M2.406-0.175V0.03H1.85v-0.205H2.406z" fill="#FFFFFF"/>
  </g></svg>