<?xml version="1.0" standalone="no"?>
<svg xmlns="http://www.w3.org/2000/svg" viewBox="-6.37 -6.37 12.74 12.74" color="#212121" width="75" height="75"><g transform="matrix(1 0 0 -1 0 0)">
    <g xmlns="http://www.w3.org/2000/svg" id="Circle_122_">
      <path class="primary" fill="currentColor" d="M-0.001-6.245c-3.443,0-6.244,2.802-6.244,6.246c0,3.443,2.801,6.244,6.244,6.244    c3.444,0,6.246-2.801,6.246-6.244C6.245-3.443,3.443-6.245-0.001-6.245z"/>
      <path class="secondary" d="M-0.001,6.12c3.381,0,6.121-2.74,6.121-6.119c0-3.381-2.74-6.121-6.121-6.121    c-3.379,0-6.119,2.74-6.119,6.121C-6.12,3.38-3.38,6.12-0.001,6.12 M-0.001,6.37c-3.512,0-6.369-2.857-6.369-6.369    c0-3.513,2.857-6.371,6.369-6.371c3.513,0,6.371,2.858,6.371,6.371C6.37,3.513,3.512,6.37-0.001,6.37L-0.001,6.37z" fill="#FFFFFF"/>
    </g>
    <path xmlns="http://www.w3.org/2000/svg" class="secondary" d="M5.304-0.566v-1.735l-8.604,0.107l-2.612,2.335h1.18c0,0,0.287,0.259,0.752,0.312c0,0.411,0,0.411,0,0.411   v0.072h-0.501v0.143h0.52l0.054,0.107h0.68l-0.019-0.375h-0.196v-0.34l1.323-0.18l0.483,0.77l1.682-0.054L0.026,0.213h0.25   l0.412,1.063L0.402,1.473L0.42,1.705H0.276v0.323h0.251v0.698h0.144v0.231h-0.43V3.19h1.233V2.958H1.118V1.92L1.01,1.741   L0.992,1.589h0.501V1.24H0.956v-1.485l0.232-0.232v0.69L1.779,0.02v-0.461H2.03c0,0-0.036,0.269,0.268,0.269   c0.304,0,0.698-0.43,0.698-0.43h1.163v0.322H3.783v0.3h1.145v-0.245H4.409v-0.43h0.608l0.107,0.231h0.179V-0.566z" fill="#FFFFFF"/>
	</g></svg>