<?xml version="1.0" standalone="no"?>
<svg xmlns="http://www.w3.org/2000/svg" viewBox="-6.37 -6.372 12.74 12.743" color="#212121" width="75" height="75"><g transform="matrix(1 0 0 -1 0 0)">
		<g xmlns="http://www.w3.org/2000/svg">
			<path class="primary" fill="currentColor" d="M0-6.25c-3.443,0-6.245,2.801-6.245,6.244c0,3.446,2.801,6.248,6.245,6.248S6.245,3.44,6.245-0.003    C6.245-3.449,3.443-6.25,0-6.25z"/>
			<path class="secondary" d="M0,6.122c3.38,0,6.12-2.74,6.12-6.12v-0.003c0-3.38-2.74-6.12-6.12-6.12l0,0c-3.38,0-6.12,2.74-6.12,6.12    v0.003C-6.12,3.377-3.38,6.122,0,6.122L0,6.122 M0,6.372c-3.512,0-6.37-2.857-6.37-6.37c0-3.515,2.857-6.373,6.37-6.373    c3.512,0,6.37,2.857,6.37,6.37S3.512,6.372,0,6.372L0,6.372z" fill="#FFFFFF"/>
		</g>
		<path xmlns="http://www.w3.org/2000/svg" id="Tanker_Ship_2_" class="secondary" d="M4.801-0.21H4.527v0.839H3.013L2.929,2.15H2.686L2.602,0.628H1.088V0.209h0.41V-0.21   h-3.536l-0.404,0.419h-2.655l1.813-2.367h7.986c0.217,0,0.392,0.175,0.392,0.392v0.001v1.555C5.094-0.21,4.801-0.21,4.801-0.21z" fill="#FFFFFF"/>
	</g></svg>