<?xml version="1.0" standalone="no"?>
<svg xmlns="http://www.w3.org/2000/svg" viewBox="-6.37 -6.37 12.74 12.74" color="#212121" width="75" height="75"><g transform="matrix(1 0 0 -1 0 0)">
    <g xmlns="http://www.w3.org/2000/svg">
      <path class="primary" fill="currentColor" d="M-0.001-6.245c-3.443,0-6.244,2.802-6.244,6.245s2.801,6.245,6.244,6.245c3.444,0,6.246-2.802,6.246-6.245    S3.443-6.245-0.001-6.245z"/>
      <path class="secondary" d="M-0.001,6.12C3.38,6.12,6.12,3.38,6.12,0S3.38-6.12-0.001-6.12C-3.38-6.12-6.12-3.38-6.12,0    S-3.38,6.12-0.001,6.12 M-0.001,6.37C-3.513,6.37-6.37,3.513-6.37,0s2.857-6.37,6.369-6.37C3.512-6.37,6.37-3.513,6.37,0    S3.512,6.37-0.001,6.37L-0.001,6.37z" fill="#FFFFFF"/>
    </g>
    <path xmlns="http://www.w3.org/2000/svg" id="Technical_Research_2_" class="secondary" d="M-5.522-0.296h0.662v0.249c0.049,0.003,0.076,0.023,0.086,0.062   c0,0.03,0,0.062,0,0.093c-0.01,0,0.016,0.001,0.072,0.005c0.014,0.008,0.021,0.017,0.025,0.023h0.137   c0.025-0.017,0.045-0.027,0.061-0.028l0.016,0.017c0.027-0.016,0.062-0.016,0.105,0c0.039,0.223,0.072,0.396,0.096,0.52   c0.199,0.016,0.314,0.028,0.348,0.037c0.004,0.035,0.006,0.06,0.004,0.073c0.031,0.006,0.059,0.006,0.084,0   c-0.004-0.035,0.002-0.06,0.016-0.076c0.02,0,0.031-0.001,0.033-0.002l0.066-0.563c0.018,0.015,0.025,0.025,0.025,0.036   c0.008-0.004,0.014-0.008,0.016-0.013c0.014,0.002,0.021,0.005,0.023,0.009c0.014,0.002,0.023,0.006,0.029,0.012v0.43   c0.008,0,0.016-0.003,0.023-0.006V0.163c0.004,0,0.014,0.001,0.029,0.005l0.002,0.427c-0.01,0.032-0.014,0.047-0.014,0.043   c0.008,0.004,0.018,0.009,0.025,0.015v0.217C-3.567,0.895-3.575,0.91-3.575,0.916c0.004,0.004,0.01,0.007,0.02,0.009   c0.012,0.002,0.018,0.004,0.021,0.006c0,0.057,0.004,0.086,0.016,0.09c0.002-0.043,0.006-0.074,0.008-0.096h0.045   c0.004,0.004,0.008,0.012,0.008,0.022h0.037c0.002-0.026,0.004-0.045,0.006-0.054h-0.043c-0.016-0.005-0.027-0.009-0.033-0.013   c-0.002-0.029,0.004-0.07,0.018-0.124h0.119V0.722c-0.041,0-0.061-0.018-0.061-0.053c0-0.009,0.004-0.018,0.014-0.025   c0.008,0.004,0.014,0.008,0.018,0.012h0.029c0.002-0.018,0.004-0.031,0.006-0.041c-0.035-0.008-0.07-0.016-0.104-0.023   c-0.023-0.01-0.035-0.037-0.035-0.083c0-0.051,0.006-0.086,0.02-0.107V0.171c-0.014-0.006-0.02-0.012-0.02-0.021   c0.021-0.017,0.041-0.027,0.061-0.031c0.006,0.001,0.008,0.004,0.008,0.005c0,0.003,0.004,0.005,0.01,0.006   c0.012-0.001,0.023-0.003,0.033-0.006c0.014-0.001,0.023-0.004,0.035-0.005c0.037,0,0.055,0.02,0.055,0.061   c0,0.031-0.002,0.053-0.008,0.067C-3.302,0.26-3.31,0.271-3.313,0.281c0,0.058,0.016,0.087,0.049,0.087   c0.027,0,0.041-0.029,0.041-0.087c-0.01-0.025-0.02-0.045-0.029-0.058c0.002-0.045,0.008-0.077,0.018-0.1   c0.006,0,0.016,0.015,0.033,0.044c0.043-0.005,0.082-0.005,0.117,0c0.006-0.012,0.008-0.026,0.006-0.044   c0.033-0.004,0.055-0.005,0.062-0.005v-0.264c-0.01-0.021-0.012-0.036-0.004-0.046c0.055-0.013,0.098-0.021,0.123-0.024   c0-0.028,0.002-0.079,0.006-0.154c0.004-0.061,0.004-0.11,0.004-0.147c0.025-0.02,0.049-0.031,0.068-0.038h0.123   c0.016,0.024,0.023,0.036,0.025,0.036c0.025,0,0.055-0.001,0.084-0.002c0.031-0.002,0.059-0.002,0.084-0.005   c0.016,0,0.023,0.025,0.023,0.076v0.18c0.033,0,0.049-0.001,0.049-0.003c-0.002-0.099,0-0.181,0.006-0.246   c0.102,0,0.168-0.004,0.201-0.009c0.023-0.017,0.082-0.023,0.18-0.023c0.016,0,0.076,0.007,0.182,0.021   c0.016-0.008,0.027-0.015,0.035-0.021h0.213c0.008,0.006,0.01,0.015,0.01,0.025h0.205v0.363h0.064V-0.44   c0-0.057,0.016-0.085,0.045-0.085c0.018,0.003,0.029,0.004,0.037,0.007c0.068,0,0.105-0.006,0.117-0.017   c0.01-0.011,0.059-0.016,0.145-0.016c0.01,0.002,0.014,0.004,0.012,0.009v0.573l0.002,0.218h0.059   c0.131-0.038,0.254-0.065,0.371-0.081c0.25-0.046,0.453-0.081,0.607-0.104c-0.008,0,0.002,0.003,0.035,0.009   c0.021-0.003,0.037-0.004,0.047-0.006C-0.296-0.216-0.624-0.42-0.845-0.548c0.023-0.007,0.053-0.01,0.088-0.012h0.705v0.162   C0.112-0.08,0.233,0.159,0.31,0.322c0.152,0.303,0.232,0.464,0.238,0.483c0.02,0.081,0.033,0.145,0.039,0.188   c0.045-0.174,0.09-0.301,0.131-0.383c0.289-0.545,0.434-0.82,0.436-0.826c0.02-0.038,0.055-0.054,0.104-0.047v-0.274   c0.041-0.006,0.064-0.013,0.068-0.021h0.748c0.094,0.034,0.176,0.049,0.242,0.043v0.244c0.01,0,0.023-0.003,0.045-0.006v-0.25   c-0.008,0,0.064,0,0.217,0c0.01-0.017,0.018-0.027,0.023-0.031h0.641c0.377,0,0.646,0.029,0.811,0.087c0,0.029,0,0.048,0.006,0.059   C4.147-0.323,4.198-0.28,4.21-0.284v0.318H4.187C4.198,0.06,4.208,0.099,4.216,0.15C4.214,0.186,4.212,0.216,4.21,0.24   C4.194,0.256,4.185,0.268,4.183,0.275c0.012,0,0.021,0.001,0.027,0.006c0,0.012,0.002,0.028,0.008,0.051   c0.006,0.022,0.008,0.037,0.008,0.044c0.012,0.005,0.023,0.005,0.039,0c0.006-0.034,0.01-0.061,0.012-0.078   c0.016,0.007,0.033,0.007,0.051,0C4.325,0.271,4.325,0.251,4.325,0.237C4.312,0.239,4.296,0.234,4.276,0.224L4.294,0.09h0.021   V0.058C4.302,0.052,4.294,0.034,4.294,0.002c0-0.051,0.008-0.13,0.021-0.234l0.299,0.113c0.004-0.027,0.002-0.069-0.008-0.128   c-0.006,0.042-0.01,0.074-0.012,0.096c-0.08-0.044-0.174-0.1-0.279-0.168c0.004-0.061,0.004-0.12,0.006-0.18   c0.004-0.042,0.047-0.063,0.125-0.063c0.033,0.004,0.062,0.008,0.088,0.012c0.012,0,0.029-0.008,0.055-0.023   c0.035,0.018,0.064,0.035,0.09,0.052C4.716-0.515,4.743-0.51,4.763-0.51C4.819-0.493,4.835-0.484,4.81-0.484   c0.012-0.002,0.021-0.005,0.029-0.009C4.849-0.497,4.858-0.5,4.87-0.501c0.037,0,0.088,0.013,0.15,0.04   c0.023-0.006,0.043-0.012,0.055-0.018c0.102,0,0.195,0.012,0.281,0.034l0.016-0.011c0.02,0.007,0.035,0.011,0.047,0.011   c0.016-0.001,0.031-0.001,0.041,0c0.01,0.002,0.02,0.005,0.025,0.01c0.01-0.005,0.014-0.008,0.014-0.01l0.018,0.007L5.522-0.47   l-0.18-0.551H-5.456C-5.479-0.858-5.497-0.68-5.509-0.484c0.01,0.004,0.018,0.007,0.023,0.009v0.061   C-5.503-0.403-5.513-0.391-5.517-0.38c0.02,0.011,0.029,0.019,0.031,0.023C-5.487-0.344-5.489-0.335-5.491-0.33   c-0.004-0.002-0.016,0-0.031,0.005V-0.296z M4.073-0.608c0.004,0.026,0.006,0.047,0.006,0.061C4.052-0.562,4.03-0.572,4.019-0.583   C4.028-0.591,4.046-0.599,4.073-0.608z M3.897-0.638c0.014,0.012,0.033,0.025,0.057,0.044C3.938-0.579,3.919-0.565,3.897-0.555   C3.888-0.577,3.888-0.605,3.897-0.638z M3.841-0.635c0,0.026-0.002,0.047-0.006,0.061c-0.018-0.01-0.031-0.022-0.043-0.038   C3.813-0.619,3.829-0.627,3.841-0.635z M3.761-0.592C3.776-0.58,3.79-0.569,3.798-0.56c-0.025,0.005-0.051,0.005-0.078,0   C3.733-0.567,3.747-0.578,3.761-0.592z M3.743-0.612C3.71-0.591,3.69-0.578,3.681-0.574C3.677-0.605,3.677-0.633,3.677-0.658   C3.69-0.648,3.714-0.633,3.743-0.612z M3.626-0.664L3.62-0.586C3.616-0.59,3.604-0.597,3.593-0.607   C3.581-0.618,3.571-0.626,3.565-0.63C3.573-0.637,3.595-0.648,3.626-0.664z M3.536-0.615c0.016,0.007,0.025,0.019,0.029,0.038   C3.554-0.572,3.532-0.575,3.499-0.583C3.513-0.594,3.524-0.605,3.536-0.615z M3.505-0.646c-0.018,0.027-0.033,0.043-0.049,0.05   v-0.079C3.479-0.662,3.495-0.652,3.505-0.646z M3.394-0.688c0.004,0.011,0.008,0.022,0.008,0.038c0,0.014-0.004,0.027-0.008,0.041   C3.37-0.626,3.351-0.64,3.339-0.649C3.362-0.667,3.382-0.68,3.394-0.688z M3.315-0.638c0.018,0.017,0.029,0.032,0.033,0.046   c-0.014,0-0.037-0.002-0.07-0.005C3.28-0.608,3.294-0.622,3.315-0.638z M3.278-0.669v0.025c-0.008,0-0.025,0.008-0.049,0.022   c-0.002-0.034-0.002-0.062,0-0.083C3.249-0.691,3.265-0.68,3.278-0.669z M3.175-0.711l0.006,0.09l-0.059-0.04   C3.144-0.685,3.161-0.7,3.175-0.711z M3.099-0.644c0.016,0,0.029,0.016,0.043,0.047h-0.09C3.063-0.618,3.079-0.634,3.099-0.644z    M3.021-0.696c0.021,0.01,0.037,0.02,0.049,0.027C3.058-0.651,3.04-0.634,3.015-0.621C3.015-0.653,3.017-0.679,3.021-0.696z    M2.956-0.698c0.006,0.024,0.006,0.049,0,0.072C2.94-0.634,2.923-0.646,2.907-0.661C2.919-0.679,2.935-0.691,2.956-0.698z    M2.882-0.644c0.012,0.002,0.025,0.016,0.041,0.04c-0.021,0.002-0.047,0.002-0.076,0C2.854-0.622,2.866-0.636,2.882-0.644z    M2.905-0.725v0.023c-0.01,0.009-0.018,0.016-0.023,0.02c-0.023-0.016-0.041-0.03-0.051-0.043H2.905z M2.856-0.669   C2.841-0.648,2.823-0.634,2.8-0.626C2.796-0.642,2.794-0.669,2.794-0.711C2.821-0.694,2.841-0.68,2.856-0.669z M2.751-0.669v0.025   h-0.01v-0.025H2.751z M2.735-0.704v0.066c-0.008,0-0.016,0.002-0.016,0.005C2.706-0.642,2.694-0.649,2.687-0.655   C2.694-0.679,2.712-0.694,2.735-0.704z M2.593-0.698C2.62-0.684,2.634-0.671,2.634-0.661C2.622-0.644,2.606-0.63,2.593-0.621   V-0.698z M2.075-0.704v0.078c-0.023,0.001-0.039-0.01-0.049-0.035C2.042-0.685,2.058-0.698,2.075-0.704z M1.995-0.644   C2.011-0.64,2.024-0.627,2.032-0.605C2.001-0.602,1.972-0.599,1.948-0.597C1.964-0.621,1.979-0.636,1.995-0.644z M1.917-0.711   c0.02,0.021,0.037,0.038,0.049,0.05C1.954-0.646,1.937-0.634,1.917-0.626C1.911-0.649,1.911-0.677,1.917-0.711z M1.87-0.704v0.063   C1.864-0.63,1.858-0.622,1.854-0.621c-0.02-0.013-0.035-0.025-0.049-0.034C1.817-0.68,1.839-0.697,1.87-0.704z M1.782-0.644   c0.012,0.002,0.025,0.016,0.041,0.04c-0.027,0.002-0.057,0.003-0.09,0.003C1.749-0.622,1.765-0.636,1.782-0.644z M1.7-0.698   c0.014,0.004,0.033,0.015,0.057,0.029C1.741-0.645,1.722-0.626,1.696-0.615C1.696-0.644,1.698-0.673,1.7-0.698z M1.628-0.698   c0.008,0.001,0.016,0.004,0.021,0.004L1.644-0.63C1.63-0.631,1.61-0.64,1.585-0.655C1.593-0.671,1.608-0.686,1.628-0.698z    M1.563-0.644c0.02,0.016,0.033,0.029,0.045,0.043H1.513C1.528-0.622,1.544-0.636,1.563-0.644z M1.481-0.704   c0.025,0.017,0.043,0.031,0.055,0.043C1.519-0.646,1.499-0.63,1.476-0.615C1.476-0.651,1.478-0.682,1.481-0.704z M1.429-0.682   C1.431-0.655,1.433-0.64,1.433-0.633C1.421-0.636,1.409-0.646,1.394-0.661C1.403-0.671,1.415-0.677,1.429-0.682z M1.376-0.638   C1.39-0.63,1.399-0.616,1.405-0.597H1.345C1.354-0.618,1.364-0.633,1.376-0.638z M1.321-0.688c0.016,0.002,0.027,0.011,0.035,0.026   C1.349-0.653,1.343-0.647,1.343-0.644H1.315L1.321-0.688z M0.646,0.261l0.447-0.49h0.025c0.004,0.008,0.004,0.014,0.006,0.018   L0.649,0.716c-0.008,0-0.016-0.002-0.02-0.006V0.29C0.638,0.28,0.644,0.271,0.646,0.261z M0.798-0.533   c0.008,0.015,0.016,0.028,0.02,0.037h0.158c0.008,0.025,0.012,0.059,0.008,0.099c-0.004,0.035-0.004,0.057,0,0.064   c0.006,0.015,0.027,0.02,0.061,0.014c0,0.01,0,0.042,0.002,0.097L0.63,0.214v-0.747H0.798z M0.106-0.533   c0.123,0.235,0.23,0.423,0.324,0.562C0.429,0.037,0.423,0.044,0.419,0.049c0.02,0.018,0.029,0.027,0.029,0.029   c0,0.018-0.02,0.005-0.062-0.037c0.027,0.036,0.051,0.074,0.072,0.112c0.057,0.229,0.084,0.404,0.086,0.527   C0.542,0.694,0.542,0.704,0.542,0.71L0.048-0.281C0.13-0.21,0.192-0.155,0.237-0.119c-0.16-0.174-0.24-0.269-0.24-0.284v-0.13   H0.106z M0.14-0.533h0.369c-0.012,0.062-0.02,0.103-0.021,0.122c0.006,0.044,0.01,0.085,0.014,0.121   c0.01,0.071,0.016,0.176,0.021,0.313c-0.004,0.06-0.008,0.108-0.016,0.147C0.485,0.117,0.474,0.069,0.47,0.031   C0.323-0.206,0.21-0.384,0.134-0.501C0.136-0.518,0.138-0.527,0.14-0.533z M0.292-0.058c0.041,0.042,0.072,0.075,0.094,0.099   c-0.039-0.053-0.088-0.106-0.148-0.16L0.292-0.058z M0.015,0.044l-0.92,0.158v-0.721L0.015,0.044z M-0.159-0.652   c0.012,0.006,0.018,0.017,0.02,0.031c-0.002,0.013-0.004,0.02-0.006,0.024c0.002-0.002-0.021-0.004-0.072-0.004   C-0.208-0.614-0.188-0.631-0.159-0.652z M-0.249-0.635v0.026h-0.01v-0.026H-0.249z M-0.384-0.644   c0.01,0.011,0.023,0.026,0.041,0.043h-0.096C-0.423-0.622-0.403-0.636-0.384-0.644z M-0.534-0.694   c-0.002,0.011,0,0.035,0.006,0.073c-0.02-0.005-0.037-0.019-0.051-0.04C-0.569-0.679-0.554-0.689-0.534-0.694z M-0.608-0.644   c0.02,0.014,0.033,0.028,0.039,0.047h-0.084C-0.646-0.615-0.63-0.63-0.608-0.644z M-0.636-0.661c-0.02,0.02-0.037,0.033-0.055,0.04   c-0.004-0.026-0.006-0.053-0.006-0.077C-0.671-0.686-0.651-0.673-0.636-0.661z M-0.747-0.694c0.004,0.028,0.004,0.053,0.004,0.073   c-0.025-0.013-0.043-0.025-0.055-0.034C-0.788-0.687-0.772-0.698-0.747-0.694z M-0.825-0.638c0.01,0.002,0.02,0.016,0.023,0.041   h-0.07C-0.86-0.618-0.845-0.633-0.825-0.638z M-0.854-0.664c-0.012,0.016-0.021,0.026-0.029,0.031l-0.027-0.005v-0.061   L-0.854-0.664z M-0.991-0.688c0.01,0.019,0.012,0.034,0.004,0.05c-0.018-0.006-0.029-0.012-0.037-0.018   C-1.019-0.669-1.007-0.68-0.991-0.688z M-1.069-0.664C-1.083-0.651-1.097-0.64-1.108-0.633l-0.006-0.055   C-1.095-0.68-1.079-0.673-1.069-0.664z M-1.636-0.694c0.002,0.009,0.004,0.016,0.004,0.021c0.002,0.005,0.004,0.011,0.006,0.019   c-0.006,0.012-0.012,0.02-0.016,0.022c-0.004-0.001-0.01-0.005-0.02-0.011c-0.008-0.006-0.014-0.01-0.018-0.012   C-1.675-0.663-1.661-0.676-1.636-0.694z M-1.704-0.644c0.018,0.018,0.033,0.031,0.043,0.04c-0.041,0.007-0.068,0.007-0.086,0.003   C-1.737-0.614-1.726-0.628-1.704-0.644z M-2.06-0.682c0.006,0.002,0.008,0.005,0.014,0.006v0.043   c-0.025-0.009-0.041-0.017-0.051-0.022C-2.083-0.669-2.071-0.677-2.06-0.682z M-2.128-0.638c0.014,0.004,0.023,0.017,0.031,0.041   h-0.061C-2.151-0.608-2.142-0.622-2.128-0.638z M-2.716-0.667l0.008,0.006l-0.008,0.015l-0.008-0.003L-2.716-0.667z M-2.763-0.633   c0.006,0.012,0.012,0.021,0.018,0.027c-0.01,0.004-0.025,0.004-0.045,0.002C-2.784-0.615-2.774-0.625-2.763-0.633z M-2.81-0.676   c0.01,0.012,0.014,0.022,0.008,0.032c-0.008,0-0.021-0.008-0.033-0.021C-2.823-0.668-2.815-0.673-2.81-0.676z M-2.97-0.517h0.023   c-0.002,0.016-0.002,0.048,0,0.099c-0.02-0.001-0.029-0.02-0.029-0.055C-2.976-0.493-2.974-0.509-2.97-0.517z M-2.97-0.315   c0.004,0,0.01-0.003,0.016-0.007c0.008,0.028,0.01,0.048,0.006,0.061h-0.027C-2.979-0.284-2.981-0.3-2.981-0.308   C-2.978-0.312-2.974-0.313-2.97-0.315z M-4.86-0.389L-4.864-0.34h-0.131C-4.938-0.361-4.894-0.377-4.86-0.389z M-4.999-0.496   c0.02-0.001,0.029-0.003,0.027-0.003C-4.97-0.478-4.983-0.454-5.011-0.43c-0.01-0.01-0.014-0.032-0.01-0.069   C-5.026-0.501-5.019-0.5-4.999-0.496z M-5.062-0.479v0.085c-0.061-0.007-0.117-0.007-0.17,0c-0.004-0.024-0.004-0.052,0-0.085   H-5.062z M-5.429-0.496c0.016,0.004,0.027,0.008,0.037,0.012c0.004,0,0.012-0.004,0.021-0.012c0.008-0.008,0.014-0.012,0.021-0.012   l0.014,0.012c0.016-0.005,0.033-0.008,0.053-0.005l0.006,0.107c-0.012-0.007-0.061-0.007-0.145,0   c-0.008-0.021-0.014-0.04-0.014-0.056C-5.431-0.469-5.429-0.484-5.429-0.496z M-5.323-0.333h-0.121   c0-0.011-0.002-0.019-0.006-0.026C-5.39-0.351-5.349-0.341-5.323-0.333z" fill="#FFFFFF"/>
  </g></svg>