<?xml version="1.0" standalone="no"?>
<svg xmlns="http://www.w3.org/2000/svg" viewBox="-6.37 -6.37 12.74 12.74" color="#212121" width="75" height="75"><g transform="matrix(1 0 0 -1 0 0)">
    <g xmlns="http://www.w3.org/2000/svg">
      <path class="primary" fill="currentColor" d="M0.001-6.245c-3.444,0-6.246,2.802-6.246,6.245s2.802,6.245,6.246,6.245c3.443,0,6.244-2.802,6.244-6.245    S3.444-6.245,0.001-6.245z"/>
      <path class="secondary" d="M0.001,6.12C3.38,6.12,6.12,3.38,6.12,0S3.38-6.12,0.001-6.12C-3.38-6.12-6.12-3.38-6.12,0    S-3.38,6.12,0.001,6.12 M0.001,6.37C-3.512,6.37-6.37,3.513-6.37,0s2.858-6.37,6.371-6.37C3.513-6.37,6.37-3.513,6.37,0    S3.513,6.37,0.001,6.37L0.001,6.37z" fill="#FFFFFF"/>
    </g>
    <path xmlns="http://www.w3.org/2000/svg" class="secondary" d="M5.543-0.816C5.508-0.808,5.47-0.804,5.434-0.799C5.396-0.79,5.382-0.777,5.384-0.738   c0,0.015,0.004,0.031,0.01,0.047c0.078,0.2,0.158,0.402,0.238,0.604C5.65-0.038,5.673,0.007,5.661,0.061   c-0.008,0.033-0.002,0.07-0.002,0.104c0,0.007-0.002,0.013-0.003,0.019c-0.003,0-0.005,0-0.007,0   C5.647,0.176,5.645,0.168,5.645,0.16c-0.001-0.019,0-0.04,0-0.061c-0.001-0.034-0.046-0.081-0.08-0.081c-0.163,0-0.326,0-0.489,0   c-0.008,0-0.018,0-0.031,0c0,0.161,0,0.318,0,0.476c-0.002,0-0.006,0-0.008,0c-0.002-0.01-0.004-0.019-0.004-0.028   c0-0.082,0-0.165,0-0.247C5.031,0.205,5.027,0.19,5.021,0.179C4.993,0.131,4.962,0.084,4.935,0.036   C4.926,0.023,4.918,0.019,4.901,0.019c-0.084,0-0.17,0-0.255,0c-0.026,0-0.059,0.007-0.079-0.005   C4.55,0.002,4.546-0.031,4.535-0.056C4.534-0.059,4.534-0.06,4.534-0.061C4.527-0.064,4.521-0.074,4.513-0.074   c-0.137,0-0.275,0-0.412,0c-0.008,0-0.019,0.008-0.021,0.016C4.059-0.02,4.04,0.019,4.022,0.061   C4.016,0.076,4.015,0.094,4.009,0.115c0.026,0,0.045,0.001,0.064,0c0.02-0.002,0.043,0.001,0.045,0.022   c0.004,0.029-0.004,0.06-0.006,0.09c0,0.002-0.004,0.003-0.006,0.005c-0.037,0.017-0.069,0-0.072-0.042   c0-0.001-0.002-0.004-0.002-0.008c-0.01,0.003-0.019,0.005-0.027,0.007C3.759,0.264,3.514,0.337,3.269,0.41   C3.117,0.455,2.966,0.501,2.814,0.546C2.798,0.551,2.782,0.567,2.766,0.57c-0.03,0.002-0.062,0.001-0.093,0   c-0.01-0.002-0.024-0.012-0.026-0.02c-0.006-0.028-0.011-0.055-0.01-0.081c0.004-0.11-0.01-0.221,0.008-0.33   c0.004-0.026-0.01-0.059,0.021-0.077c0.002,0,0.002-0.003,0.002-0.005c0-0.043,0-0.086,0-0.128c-0.006,0-0.01-0.003-0.013-0.003   c-0.223,0-0.445,0-0.668,0c-0.012,0-0.026,0.007-0.033,0.016C1.89,0.011,1.813,0.068,1.75,0.138   C1.745,0.145,1.739,0.15,1.733,0.158c0.189,0,0.377,0,0.564,0C2.296,0.132,2.306,0.12,2.331,0.12c0.051,0,0.053,0.001,0.053,0.052   c0,0.007,0,0.012,0,0.018c0,0.016,0.004,0.037-0.016,0.041c-0.02,0.004-0.043,0.004-0.061-0.004   c-0.011-0.006-0.02-0.008-0.031-0.006C1.884,0.338,1.49,0.455,1.097,0.572C1.082,0.578,1.067,0.58,1.059,0.597   C1.056,0.604,1.041,0.607,1.03,0.609c-0.023,0-0.049,0-0.073,0C0.929,0.608,0.923,0.602,0.921,0.572   c0-0.008-0.002-0.02-0.008-0.022C0.897,0.541,0.896,0.527,0.896,0.512c0.003-0.119,0.006-0.237,0.009-0.355   c0-0.019-0.003-0.039,0.02-0.047C0.929,0.108,0.93,0.099,0.931,0.094c0-0.014-0.002-0.027,0-0.04   c0.002-0.019-0.004-0.032-0.021-0.04C0.884-0.002,0.86-0.02,0.835-0.035C0.827-0.041,0.817-0.048,0.808-0.048   c-0.086-0.001-0.172-0.001-0.258,0c-0.004,0-0.009,0.004-0.013,0.007c0.004,0.004,0.009,0.01,0.013,0.01   C0.583-0.034,0.578-0.01,0.579,0.008c0,0.021,0.001,0.042-0.029,0.04c-0.007,0.01-0.017,0.021-0.025,0.021   C0.503,0.064,0.47,0.087,0.464,0.045c-0.016,0-0.029,0-0.045,0C0.42,0.048,0.421,0.05,0.422,0.053   C0.413,0.058,0.403,0.069,0.396,0.068C0.372,0.064,0.339,0.087,0.331,0.044C0.298,0.043,0.298,0.043,0.298,0.012   c0-0.005,0-0.01,0-0.014c-0.002-0.02,0.004-0.029,0.025-0.029c0.005,0,0.011-0.006,0.016-0.008   C0.334-0.042,0.328-0.048,0.322-0.048c-0.05-0.001-0.099-0.001-0.149-0.001c-0.026,0-0.053,0-0.082,0c0,0.021-0.001,0.038,0,0.057   c0.002,0.02-0.007,0.024-0.025,0.024c-0.041,0-0.084,0-0.126,0C-0.085,0.033-0.103,0.029-0.102,0c-0.013,0-0.022,0-0.032,0   c-0.294,0-0.588,0-0.883,0c-0.006,0-0.013-0.001-0.02,0c-0.015,0-0.021-0.006-0.021-0.021c0.002-0.016,0.001-0.03,0.001-0.043   c-0.04-0.016-0.057,0.016-0.078,0.033c-0.007,0.008-0.013,0.02-0.013,0.03c-0.002,0.049-0.001,0.1-0.001,0.149s0,0.049-0.05,0.053   c-0.002,0-0.003,0.002-0.006,0.003c-0.001,0.02,0.003,0.046-0.03,0.046c-0.097,0-0.194,0-0.291,0c-0.019,0-0.028-0.01-0.031-0.026   c-0.001-0.008-0.001-0.015-0.002-0.021c-0.456,0-0.91,0-1.366,0c0,0.024,0.002,0.05,0,0.074C-2.927,0.3-2.931,0.325-2.934,0.347   C-2.939,0.398-2.939,0.398-2.99,0.398c-0.004,0-0.007,0-0.01,0c-0.055,0-0.055,0-0.057-0.055c0-0.002-0.002-0.003-0.003-0.006   c-0.011,0-0.022,0-0.036,0c0,0.024,0.002,0.047-0.001,0.069c-0.005,0.04,0.003,0.069,0.047,0.08   c0.024,0.007,0.019,0.029,0.015,0.046c-0.001,0.005-0.018,0.009-0.027,0.012c-0.008,0.001-0.018,0-0.025,0   C-3.089,0.547-3.091,0.55-3.093,0.551c0.007,0.014,0.016,0.024,0.02,0.038c0.005,0.013,0.007,0.029,0.004,0.042   c-0.002,0.007-0.018,0.012-0.026,0.014c-0.015,0.001-0.03,0-0.045,0C-3.146,0.66-3.144,0.668-3.128,0.668   c0.004-0.001,0.008-0.002,0.011,0c0.017,0.009,0.05-0.02,0.05,0.021c0,0.036-0.033,0.012-0.049,0.019c-0.008,0.002-0.018,0-0.027,0   c0,0.003,0,0.006,0.001,0.007c0.01,0.002,0.02,0.003,0.027,0.004c0,0.036,0,0.069,0,0.104c-0.01,0.002-0.02,0.003-0.029,0.006   c0,0.032,0,0.064,0,0.098c0,0.03,0,0.063,0,0.096c0,0.033,0,0.064,0,0.098C-3.145,1.15-3.141,1.181-3.146,1.21   c-0.003,0-0.007,0-0.011,0c0-0.134,0-0.267,0-0.4c-0.037,0-0.068,0-0.102,0c0,0.011,0,0.021,0,0.03c0,0.079,0,0.156-0.001,0.236   c0,0.006-0.003,0.014-0.005,0.022c-0.003-0.002-0.006-0.002-0.01-0.002c0-0.15,0-0.301,0-0.452c-0.015,0-0.025,0.001-0.041,0.003   c0,0.192,0,0.383,0,0.575c-0.004,0-0.008,0-0.013,0c0-0.192,0-0.384,0-0.577c-0.009,0-0.015-0.001-0.02-0.001   C-3.386,0.65-3.425,0.655-3.466,0.66c0,0.014-0.001,0.025,0,0.037c0,0.018,0.001,0.033-0.022,0.035   c-0.005,0-0.008,0.011-0.015,0.02c0.02,0,0.031,0.002,0.043,0c0.017-0.001,0.029,0.003,0.029,0.024   c0,0.022-0.013,0.026-0.031,0.026c-0.012-0.001-0.022,0-0.036,0c0,0.066,0,0.129,0,0.193C-3.499,1.009-3.491,1.03-3.516,1.03   c-0.022,0-0.016-0.02-0.016-0.033c-0.001-0.056-0.001-0.113-0.001-0.169c0-0.008,0-0.016,0-0.025c-0.018,0-0.032,0-0.046,0   c-0.017-0.001-0.024-0.01-0.024-0.025c0-0.018,0.006-0.025,0.023-0.025c0.016,0,0.031,0,0.049,0   c-0.003-0.009-0.004-0.02-0.008-0.02c-0.02-0.006-0.018-0.02-0.018-0.035c0-0.012,0-0.023,0-0.037   c-0.002,0.002-0.005,0.003-0.007,0.004C-3.57,0.656-3.586,0.648-3.586,0.639c-0.002-0.05-0.008-0.104,0.001-0.152   c0.009-0.047-0.014-0.086-0.02-0.128c0,0-0.002,0-0.006,0C-3.612,0.365-3.612,0.373-3.612,0.38   c-0.003,0.067-0.004,0.136-0.006,0.203c-0.001,0.006,0,0.014-0.002,0.015C-3.643,0.61-3.637,0.63-3.636,0.648   c0,0.019-0.008,0.026-0.025,0.026c-0.029-0.002-0.058,0-0.088,0c0,0.011,0,0.019,0,0.026C-3.75,0.733-3.754,0.737-3.787,0.739   c-0.034,0-0.067,0-0.1,0c-0.021,0-0.042,0-0.063,0c-0.046-0.002-0.067,0.012-0.062-0.058c0-0.003-0.002-0.005-0.003-0.008   c-0.006,0-0.012,0-0.017,0c-0.035-0.002-0.035-0.002-0.035,0.033c0,0.096,0,0.193,0,0.289c0,0.009-0.002,0.019-0.002,0.027   c-0.003,0-0.006,0-0.008,0c-0.002-0.008-0.004-0.017-0.004-0.025c-0.001-0.089-0.002-0.178,0-0.266c0-0.039-0.006-0.074-0.02-0.11   c-0.005-0.013-0.01-0.019-0.023-0.018C-4.137,0.606-4.145,0.6-4.147,0.584c-0.004-0.021-0.01-0.043-0.014-0.059   C-4.183,0.533-4.196,0.539-4.21,0.541c-0.022,0.002-0.045,0.001-0.068,0c-0.028,0-0.033-0.006-0.034-0.035c0-0.023,0-0.049,0-0.08   c-0.05,0.021-0.062-0.016-0.079-0.045C-4.394,0.38-4.396,0.377-4.396,0.375c-0.005-0.016-0.017-0.018-0.032-0.018   c-0.205,0-0.41,0-0.616,0c-0.017,0-0.023,0.002-0.026,0.021C-5.093,0.479-5.115,0.58-5.138,0.681c-0.016,0.065,0,0.053-0.069,0.056   c-0.024,0.001-0.031-0.008-0.03-0.032c0-0.142,0-0.283,0-0.425c0-0.009,0-0.018,0-0.026c-0.016,0-0.028,0-0.042,0   c0,0.076,0.001,0.149,0,0.224c0,0.011-0.002,0.022-0.007,0.032C-5.303,0.539-5.319,0.57-5.339,0.6   c-0.006,0.008-0.019,0.014-0.027,0.016c-0.021,0.003-0.04,0-0.061,0c0,0.016,0,0.029,0,0.043c0.029-0.004,0.036,0.01,0.033,0.034   c-0.002,0.007-0.001,0.013,0,0.021c0,0.016,0.002,0.03-0.022,0.03c-0.021,0-0.033-0.006-0.03-0.029   c0-0.004-0.002-0.009-0.003-0.017c-0.01,0-0.019,0-0.028,0c-0.053,0-0.051,0.007-0.049-0.05c0.001-0.028-0.007-0.051-0.023-0.072   C-5.569,0.554-5.583,0.528-5.603,0.5c-0.005,0-0.017-0.001-0.029,0c-0.024,0.003-0.032-0.007-0.031-0.031   C-5.662,0.4-5.662,0.331-5.662,0.263c0-0.054,0-0.054,0.051-0.057c0.003,0,0.006-0.002,0.011-0.002c0-0.012,0.001-0.021,0-0.029   c-0.005-0.091,0.013-0.182-0.014-0.27c0-0.148,0-0.298,0-0.448c0.001-0.008,0.002-0.017,0.005-0.024   c0.004-0.013,0.012-0.026,0.014-0.039c0.01-0.054,0.033-0.101,0.085-0.117c0.045-0.017,0.063-0.061,0.106-0.076   c-0.012-0.002-0.021-0.002-0.031,0C-5.452-0.8-5.458-0.807-5.456-0.822c0.006-0.08,0.01-0.16,0.021-0.239   c0.014-0.105,0.04-0.124,0.145-0.123c0.031,0,0.062,0,0.094,0.004c0.023,0.005,0.037,0.021,0.039,0.047   c0.002,0.077,0.004,0.155,0.007,0.234c0.001,0.019,0.003,0.037,0.004,0.062c0.044-0.008,0.085-0.016,0.124-0.025   C-5.001-0.87-4.98-0.885-4.964-0.899c0.021-0.017,0.023-0.043,0.01-0.063c-0.016-0.025-0.028-0.055-0.067-0.05   c0.01,0.035,0,0.064-0.025,0.086c-0.008,0.005-0.02,0.008-0.027,0.005c-0.006-0.001-0.012-0.013-0.012-0.021   c-0.001-0.026,0-0.053,0-0.083c-0.04-0.031-0.038-0.043,0.016-0.067c0-0.022-0.002-0.046,0-0.067   c0.001-0.01,0.006-0.021,0.012-0.025c0.008-0.003,0.021,0.001,0.026,0.007C-5.016-1.158-5.007-1.14-4.994-1.12   c0.001,0,0.007-0.001,0.012-0.001s0.011,0,0.015,0c0.006-0.003,0.016-0.006,0.018-0.011c0.031-0.069,0.086-0.089,0.158-0.089   C-1.676-1.22,1.439-1.22,4.555-1.22c0.188,0,0.377,0,0.562,0.026c0.115,0.017,0.23,0.037,0.34,0.086   c0.057,0.023,0.111,0.056,0.15,0.105C5.665-0.924,5.638-0.842,5.543-0.816z M-1.582-0.136c-0.019,0-0.035,0-0.052,0   c0-0.011,0-0.021,0-0.03c0.019,0,0.035,0,0.052,0l0,0c-0.017,0-0.034,0-0.052,0c0,0.011,0,0.02,0,0.03   C-1.617-0.136-1.601-0.136-1.582-0.136L-1.582-0.136z M-2.052-0.136c-0.018,0-0.035,0-0.051,0c0-0.011,0-0.021,0-0.03   c0.018,0,0.035,0,0.051,0l0,0c-0.017,0-0.033,0-0.051,0c0,0.01,0,0.02,0,0.03C-2.086-0.136-2.069-0.136-2.052-0.136L-2.052-0.136z    M0.437-0.048c0.02,0,0.039-0.001,0.059,0C0.476-0.049,0.456-0.048,0.437-0.048s-0.037-0.001-0.055,0   C0.399-0.049,0.418-0.048,0.437-0.048z M1.008,0.021c0.03,0.02,0.062,0.037,0.095,0.057c0.016-0.045,0.031-0.09,0.051-0.144   C1.1-0.061,1.052-0.055,1.001-0.049c0,0.021,0,0.038,0,0.057C1.001,0.011,1.003,0.018,1.008,0.021z M-4.887,0.043   c0.032,0,0.064,0,0.097-0.002c0.004,0,0.01-0.002,0.012-0.006C-4.755,0.003-4.724,0.003-4.7,0.036   c0.007,0.011,0.029,0.009,0.034-0.003c0.01-0.027,0.032-0.022,0.051-0.02c0.011,0.002,0.021,0.014,0.032,0.021   C-4.585,0.037-4.586,0.04-4.587,0.043c0.008,0,0.018,0.001,0.024-0.002c0.007-0.001,0.016-0.009,0.017-0.014   c0.001-0.031,0-0.062,0-0.094c-0.113,0-0.227,0-0.341,0C-4.887-0.029-4.887,0.006-4.887,0.043z M4.027,0.174   c0-0.003,0-0.005,0-0.007c-0.007,0-0.015,0-0.02,0c-0.212,0-0.424,0-0.637,0.001c-0.012,0-0.025,0.003-0.037,0.01   c-0.17,0.1-0.338,0.202-0.508,0.302C2.823,0.482,2.82,0.484,2.819,0.49C3.222,0.384,3.625,0.279,4.027,0.174z M2.774,0.439   c0,0.016,0.014,0.031,0.023,0.048c0.175-0.104,0.352-0.209,0.527-0.315c0-0.001-0.001-0.003-0.001-0.004c-0.183,0-0.364,0-0.55,0   C2.774,0.262,2.772,0.351,2.774,0.439z M1.735,0.091C1.786,0.036,1.832-0.013,1.88-0.063c-0.066,0-0.13,0-0.197,0   C1.7-0.012,1.717,0.036,1.735,0.091z M1.071,0.523C1.47,0.421,1.867,0.318,2.267,0.216c0-0.001,0-0.003,0-0.004   c-0.008,0-0.014-0.001-0.021-0.001c-0.231,0-0.464,0-0.695,0c-0.013,0-0.025,0.004-0.036,0.01C1.37,0.309,1.226,0.399,1.081,0.487   C1.065,0.498,1.06,0.506,1.071,0.523z M1.034,0.484c0.018,0.011,0.033,0.004,0.048-0.005c0.134-0.084,0.269-0.167,0.403-0.25   c0.008-0.005,0.014-0.01,0.027-0.018c-0.164,0-0.32,0-0.479,0C1.034,0.304,1.034,0.395,1.034,0.484z M1.016,0.117   c0.009,0.007,0.011,0.027,0.015,0.04c0.219,0,0.438,0,0.659,0c-0.007-0.013-0.015-0.026-0.019-0.04   C1.659,0.091,1.65,0.062,1.642,0.035c-0.008-0.017-0.008-0.017-0.03-0.014c0,0.019-0.008,0.036,0.013,0.054   C1.634,0.083,1.63,0.109,1.626,0.127c0,0.004-0.02,0.006-0.031,0.008c-0.107,0-0.215,0-0.323,0c-0.032,0-0.032,0-0.032-0.035   c0-0.023,0-0.047,0-0.072c-0.037-0.01-0.041-0.009-0.053,0.025C1.179,0.074,1.172,0.096,1.164,0.12   C1.155,0.145,1.144,0.152,1.12,0.139c-0.035-0.018-0.068-0.04-0.102-0.06C1.015,0.076,1.011,0.073,1.003,0.068   C1.003,0.088,0.994,0.104,1.016,0.117z M-5.238-0.066c-0.012,0-0.024,0-0.038,0c0,0.054,0,0.106,0,0.162c0.013,0,0.024,0,0.038,0   C-5.238,0.043-5.238-0.011-5.238-0.066z" fill="#FFFFFF"/>
  </g></svg>