<?xml version="1.0" standalone="no"?>
<svg xmlns="http://www.w3.org/2000/svg" viewBox="-6.37 -6.37 12.74 12.74" color="#212121" width="75" height="75"><g transform="matrix(1 0 0 -1 0 0)">
		<g xmlns="http://www.w3.org/2000/svg">
			<circle class="primary" fill="currentColor" cx="0" cy="0" r="6.245"/>
			<path class="secondary" d="M0,6.12c3.38,0,6.12-2.74,6.12-6.12S3.38-6.12,0-6.12S-6.12-3.38-6.12,0S-3.38,6.12,0,6.12 M0,6.37    c-3.513,0-6.37-2.857-6.37-6.37S-3.513-6.37,0-6.37S6.37-3.513,6.37,0S3.513,6.37,0,6.37L0,6.37z" fill="#FFFFFF"/>
		</g>
		<path xmlns="http://www.w3.org/2000/svg" id="_x31_8_Wheeler_2_" class="secondary" d="M-5.739,1.211v-1.81l0.243-0.026l0.334,0.008c-0.07-0.059-0.115-0.147-0.115-0.246   c0-0.178,0.145-0.324,0.322-0.324c0.146,0,0.271,0.099,0.31,0.233c0.038-0.135,0.163-0.233,0.31-0.233   c0.152,0,0.28,0.107,0.314,0.249C-3.988-1.08-3.86-1.187-3.708-1.187c0.179,0,0.322,0.145,0.322,0.324   c0,0.108-0.054,0.204-0.136,0.263l1.02,0.01v-0.06h-0.002v-0.114c0.16-0.054,0.327-0.046,0.438-0.029l0,0c0,0,0.122-0.003,0.181,0   c0.044,0.003,0.037,0.142,0.032,0.208l1.593,0.016c0-0.258,0.131-0.389,0.232-0.389c0.107,0,0.169,0.188,0.169,0.188   S0.18-0.843,0.236-0.872v-0.143h0.068v0.137c0.061,0.022,0.102,0.114,0.102,0.114c0.027-0.071,0.096-0.095,0.133-0.103V-0.99h0.062   v0.124C0.75-0.829,0.808-0.585,0.813-0.559L1.709-0.55l0.014-0.055C1.643-0.6,1.34-0.592,1.248-0.662   C1.142-0.744,1.098-0.87,1.098-1.02l0.007-0.076h0.178C1.333-1.199,1.439-1.27,1.562-1.27c0.151,0,0.277,0.108,0.309,0.251   l0.147-0.003C2.048-1.163,2.174-1.27,2.326-1.27c0.145,0,0.27,0.101,0.303,0.237l1.938-0.036c0,0,0.084,0.076,0.125,0.118   c0.002,0.001,0.006,0.002,0.01,0.005c0-0.004,0-0.007,0-0.01c0-0.173,0.141-0.314,0.313-0.314c0.144,0,0.264,0.095,0.303,0.226   h0.347c0,0,0.075,0.075,0.075,0.192S5.716-0.735,5.716-0.735s0,0.386,0,0.444S5.64-0.189,5.446-0.155   C5.254-0.122,4.86-0.047,4.86-0.047L4.784,0.314l0.083,0.025c0,0-0.075,0.109-0.192,0.151C4.558,0.531,4.558,0.531,4.558,0.531   s0-0.017-0.093,0.059C4.373,0.666,3.661,1.118,3.51,1.161C3.36,1.202,3.083,1.177,3.083,1.177v-1.802H2.111h-0.05l0.008,0.059   h0.438v0.394h0.242v1.24c0,0-0.202,0.125-0.377,0.134H2.338L2.321,1.27L-5.739,1.211z M-2.338-0.628v0.04l0.441,0.003   c0.004-0.054,0.014-0.144-0.002-0.144c0,0-0.021,0-0.033,0.001v0.084C-2.086-0.618-2.232-0.62-2.338-0.628z M-2.469-0.59   l0.105,0.001v-0.042c-0.045-0.003-0.08-0.009-0.105-0.013V-0.59z M-4.142-0.606L-3.9-0.604c-0.06-0.045-0.104-0.11-0.121-0.186   C-4.039-0.715-4.082-0.65-4.142-0.606z M-4.752-0.612l0.217,0.002c-0.053-0.042-0.092-0.099-0.11-0.163   C-4.664-0.709-4.702-0.653-4.752-0.612z" fill="#FFFFFF"/>
	</g></svg>