<?xml version="1.0" standalone="no"?>
<svg xmlns="http://www.w3.org/2000/svg" viewBox="-6.37 -6.37 12.74 12.74" color="#212121" width="75" height="75"><g transform="matrix(1 0 0 -1 0 0)">
		<g xmlns="http://www.w3.org/2000/svg">
			<circle class="primary" fill="currentColor" cx="0" cy="0" r="6.245"/>
			<path class="secondary" d="M0,6.12c3.38,0,6.12-2.74,6.12-6.12S3.38-6.12,0-6.12S-6.12-3.38-6.12,0S-3.38,6.12,0,6.12 M0,6.37    c-3.513,0-6.37-2.857-6.37-6.37S-3.513-6.37,0-6.37S6.37-3.513,6.37,0S3.513,6.37,0,6.37L0,6.37z" fill="#FFFFFF"/>
		</g>
		<path xmlns="http://www.w3.org/2000/svg" id="Advertising_Van_1_" class="secondary" d="M5.514-1.575H5.511c0.028,0.093,0.028,0.187,0.016,0.28H5.526h0.002L5.512-1.29   l-0.11,0.038l0.002,0.009c0.013,0.067,0.021,0.136,0.021,0.206c0,0.078-0.011,0.156-0.037,0.237v0.003l-0.059,0.05H5.326H5.313   L5.31-0.742C5.273-0.563,5.006-0.296,4.425,0.104C4.428,0.105,4.43,0.107,4.431,0.109L4.403,0.128L4.395,0.179   C4.37,0.208,4.301,0.227,4.229,0.243L4.182,0.274L4.179,0.273C4.156,0.294,4.133,0.316,4.111,0.337   C4.09,0.358,4.068,0.379,4.046,0.4h0.037L4.065,0.443L4.021,0.454L3.995,0.449C3.617,0.803,3.197,1.12,2.757,1.471   c-0.189,0.146-0.343,0.185-0.48,0.174H1.354C1.248,1.641,1.176,1.576,1.137,1.45L1.135,1.451L1.125,1.41l0,0   C1.109,1.339,1.1,1.252,1.1,1.149C1.059,0.397,1.053-0.356,1.061-1.109H0.855v0.238h0.169v0.16H0.977v0.688h0.048v0.161H0.951   l0.026,1.387C0.98,2.197,0.812,2.54,0.689,2.553h-5.887C-5.32,2.56-5.391,2.156-5.402,1.341V0.138h-0.087v-0.161h0.059v-0.136   h-0.105v-0.226h0.105v-0.327h-0.059v-0.16h0.201V-1.11h-0.133v-0.269h0.789v-0.288H-4V-1.85h0.903   c0.04-0.013,0.081-0.023,0.121-0.034c0.005-0.372,0.309-0.671,0.681-0.671c0.313,0,0.577,0.211,0.656,0.499l0.868,0.159   C-0.76-1.911-0.742-1.92-0.721-1.92h0.24h0.111h0.665h0.109h0.271c0.021,0,0.042,0.012,0.053,0.029v-0.084h0.425l0.03-0.064   l0.553,0.01l0.002-0.077L2.825-2c0.062-0.312,0.337-0.549,0.667-0.549c0.375,0,0.677,0.3,0.682,0.672l0.26,0.023l0.018-0.001   l0.87-0.005c0.132-0.009,0.026,0.095,0.063,0.235L5.514-1.575z M-1.576-1.109l-0.238,0.29h0.779v-0.29H-1.576z M-2.146-0.819   L-2.146-0.819c0-0.052,0.014-0.095,0.031-0.095h0.083C-2.016-0.914-2-0.872-2-0.82v0.001h0.134l0.239-0.29h-1.379l0.239,0.29   H-2.146z M-2.835-0.819l-0.239-0.29H-3.31v0.29H-2.835z M-0.68-1.109l-0.145,0.29h0.979V-0.82c0-0.051,0.016-0.094,0.033-0.094   H0.27c0.018,0,0.03,0.042,0.03,0.094v0.001h0.12l-0.129-0.29H-0.68z M-4.723-0.819L-4.723-0.819c0-0.052,0.016-0.095,0.032-0.095   h0.083c0.018,0,0.032,0.042,0.032,0.094v0.001h1.056l-0.222-0.29h-0.105v0.069h-0.809v-0.048l-0.198,0.27L-4.723-0.819   L-4.723-0.819z M-1.646-1.666h0.107C-1.571-1.678-1.604-1.689-1.636-1.7C-1.639-1.688-1.643-1.677-1.646-1.666z M5.37-1.241H5.364   c0.001,0.003,0.001,0.006,0.002,0.01l0.021-0.017L5.37-1.241z M5.388-1.236l0.009-0.006c0,0.003,0.001,0.007,0.002,0.011   l0.003-0.003L5.396-1.242L5.388-1.24C5.388-1.239,5.388-1.237,5.388-1.236z M0.631-1.109v0.29h0.017v-0.29H0.631z M-5.119-0.819   h0.056v-0.29h-0.056V-0.819z M-1.614-1.852c0.149,0.047,0.296,0.109,0.44,0.186h0.061v-0.009c0-0.029,0.023-0.052,0.053-0.052   h0.178c0.029,0,0.052,0.023,0.052,0.052v0.009h0.047v-0.131L-1.618-1.95c0.002,0.025,0.004,0.051,0.004,0.077   C-1.614-1.866-1.614-1.858-1.614-1.852z" fill="#FFFFFF"/>
	</g></svg>