<?xml version="1.0" standalone="no"?>
<svg xmlns="http://www.w3.org/2000/svg" viewBox="-6.37 -6.37 12.74 12.74" color="#212121" width="75" height="75"><g transform="matrix(1 0 0 -1 0 0)">
		<g xmlns="http://www.w3.org/2000/svg" id="Circle_4_">
			<path class="primary" fill="currentColor" d="M-0.001-6.245c-3.443,0-6.244,2.802-6.244,6.246c0,3.443,2.801,6.244,6.244,6.244    c3.444,0,6.246-2.801,6.246-6.244C6.245-3.443,3.443-6.245-0.001-6.245z"/>
			<path class="secondary" d="M-0.001,6.12c3.381,0,6.121-2.74,6.121-6.119c0-3.381-2.74-6.121-6.121-6.121    c-3.379,0-6.119,2.74-6.119,6.121C-6.12,3.38-3.38,6.12-0.001,6.12 M-0.001,6.37c-3.512,0-6.369-2.857-6.369-6.369    c0-3.513,2.857-6.371,6.369-6.371c3.513,0,6.371,2.858,6.371,6.371C6.37,3.513,3.512,6.37-0.001,6.37L-0.001,6.37z" fill="#FFFFFF"/>
		</g>
		<path xmlns="http://www.w3.org/2000/svg" class="secondary" d="M5.358,0.933v1.422h-0.1V0.948H4.346v1.375H4.181V0.972c0,0-3.056,0-3.4,0   C0.403,1.357,0.308,0.893,0.308,0.893H-1.38l-0.322,0.552h0.622V1.79h-1.181l-0.062-0.135h-2.005V1.411h1.964V1.152h0.26   l0.189-0.354h-1.187L-4.72,0.115c0,0-0.041,0.134-0.37,0.134c-0.33,0-0.338-0.33-0.368-0.464c-0.033-0.134-0.009-0.251,0.164-0.456   c-0.063-0.244,0.071-0.423,0.071-0.423s0.973-0.699,1.452-0.999c0.479-0.299,0.857-0.259,0.857-0.259s4.871,0,5.413,0   s0.542,0.174,1.378,0.629c0.834,0.455,0.751,0.794,0.751,0.794h0.284c0,0,0,0.485,0,0.745H5.28v0.386H5.133H5.067   c0.165,0.22,0.401,0.447,0.401,0.447v0.26L5.358,0.933z" fill="#FFFFFF"/>
	</g></svg>