<?xml version="1.0" standalone="no"?>
<svg xmlns="http://www.w3.org/2000/svg" viewBox="-6.37 -6.37 12.74 12.74" color="#212121" width="75" height="75"><g transform="matrix(1 0 0 -1 0 0)">
		<g xmlns="http://www.w3.org/2000/svg" id="Circle_7_">
			<path class="primary" fill="currentColor" d="M-0.001-6.245c-3.443,0-6.244,2.802-6.244,6.246c0,3.443,2.801,6.244,6.244,6.244    c3.444,0,6.246-2.801,6.246-6.244C6.245-3.443,3.443-6.245-0.001-6.245z"/>
			<path class="secondary" d="M-0.001,6.12c3.381,0,6.121-2.74,6.121-6.119c0-3.381-2.74-6.121-6.121-6.121    c-3.379,0-6.119,2.74-6.119,6.121C-6.12,3.38-3.38,6.12-0.001,6.12 M-0.001,6.37c-3.512,0-6.369-2.857-6.369-6.369    c0-3.513,2.857-6.371,6.369-6.371c3.513,0,6.371,2.858,6.371,6.371C6.37,3.513,3.512,6.37-0.001,6.37L-0.001,6.37z" fill="#FFFFFF"/>
		</g>
		<path xmlns="http://www.w3.org/2000/svg" class="secondary" d="M5.447,0.683L3.843,1.234L2.604,1.301L2.103,1.987l-0.85,0.317v1.261H1.137V2.348L1.114,2.356L-0.861,2.39   v0.251l-0.133,0.234h-0.419L-1.43,2.489h0.318V2.223l-0.67-0.235l-2.076,0.235L-3.94,1.987l2.159-0.318l-0.652-0.401H-2.96   l-0.812-0.736l-1.322,0.017V0.214l-0.352-0.419v-0.72l0.134-0.167l0.049-0.011c-0.031-0.113-0.049-0.233-0.049-0.358   c0-0.758,0.614-1.372,1.373-1.372c0.758,0,1.372,0.614,1.372,1.372H2.47c0-0.758,0.614-1.372,1.373-1.372   c0.758,0,1.373,0.614,1.373,1.372c0,0.095-0.01,0.187-0.027,0.275l0.259,0.277L5.447,0.683L5.447,0.683z" fill="#FFFFFF"/>
	</g></svg>