<?xml version="1.0" standalone="no"?>
<svg xmlns="http://www.w3.org/2000/svg" viewBox="-6.37 -6.37 12.74 12.74" color="#212121" width="75" height="75"><g transform="matrix(1 0 0 -1 0 0)">
		<g xmlns="http://www.w3.org/2000/svg" id="Circle_8_">
			<path class="primary" fill="currentColor" d="M-0.001-6.245c-3.443,0-6.244,2.802-6.244,6.246c0,3.443,2.801,6.244,6.244,6.244    c3.444,0,6.246-2.801,6.246-6.244C6.245-3.443,3.443-6.245-0.001-6.245z"/>
			<path class="secondary" d="M-0.001,6.12c3.381,0,6.121-2.74,6.121-6.119c0-3.381-2.74-6.121-6.121-6.121    c-3.379,0-6.119,2.74-6.119,6.121C-6.12,3.38-3.38,6.12-0.001,6.12 M-0.001,6.37c-3.512,0-6.369-2.857-6.369-6.369    c0-3.513,2.857-6.371,6.369-6.371c3.513,0,6.371,2.858,6.371,6.371C6.37,3.513,3.512,6.37-0.001,6.37L-0.001,6.37z" fill="#FFFFFF"/>
		</g>
		<path xmlns="http://www.w3.org/2000/svg" class="secondary" d="M5.344-0.764v1.282L4.09,1.151v0.362L3.762,2.057l-1.226,0.09c0,0-0.162,0.347-0.835,0.347   c-0.672,0-0.642-0.331-0.939-0.331c-0.299,0-1.016-0.287-1.016-0.287s-0.029,0.165,0,0.361c0.029,0.195-0.18,0.257-0.403,0.257   c-0.224,0-0.372-0.468-0.372-0.468l-0.345-0.211l-3.97,0.512V1.859l5.001-0.619V0.917h-0.201l-0.545-0.55H-2V0.114l-0.389-0.366   v-0.799l0.197-0.016h0.001c-0.04-0.111-0.063-0.232-0.063-0.361c0-0.588,0.473-1.065,1.055-1.065c0.584,0,1.055,0.478,1.055,1.065   H3.12c0-0.588,0.473-1.065,1.055-1.065c0.584,0,1.057,0.478,1.057,1.065c0,0.053-0.006,0.105-0.014,0.156v0.002L5.344-0.764z" fill="#FFFFFF"/>
	</g></svg>