<?xml version="1.0" standalone="no"?>
<svg xmlns="http://www.w3.org/2000/svg" viewBox="-6.37 -6.37 12.74 12.74" color="#212121" width="75" height="75"><g transform="matrix(1 0 0 -1 0 0)">
		<g xmlns="http://www.w3.org/2000/svg">
			<path class="primary" fill="currentColor" d="M0-6.245c-3.444,0-6.245,2.802-6.245,6.246c0,3.443,2.802,6.244,6.245,6.244s6.245-2.801,6.245-6.244    C6.245-3.443,3.444-6.245,0-6.245z"/>
			<path class="secondary" d="M0,6.12c3.38,0,6.12-2.74,6.12-6.119C6.12-3.38,3.38-6.12,0-6.12s-6.12,2.74-6.12,6.121    C-6.12,3.38-3.38,6.12,0,6.12 M0,6.37c-3.513,0-6.37-2.857-6.37-6.369C-6.37-3.512-3.513-6.37,0-6.37s6.37,2.858,6.37,6.371    C6.37,3.513,3.513,6.37,0,6.37L0,6.37z" fill="#FFFFFF"/>
		</g>
		<path xmlns="http://www.w3.org/2000/svg" id="Amphibious_Assaut_2_" class="secondary" d="M5.648,0.887L5.482,1.099l0.01,0.143H5.443L5.414,1.169L5.258,1.241L5.229,1.356   l-0.048,0.72L5.17,1.367L5.111,1.262L4.985,1.241L4.956,1.075H4.575c0,0,0.02,0.146-0.068,0.166L4.41,1.2L4.088,1.253L0.089,1.398   h-0.206V1.262L-0.75,1.305c0,0,0.039,0.135-0.136,0.114l0.187,0.251l-0.07,0.124l0.039,0.157l-0.283,0.208h-0.702v0.104   l-0.233,0.198V2.17l-0.4-0.115c0,0-0.234,0.021-0.234-0.104H-2.63v0.115h-0.13l-0.097-0.147h-0.585c0,0-0.088,0.084-0.244-0.052   l-0.067-0.011c0,0-0.112,0.132-0.274-0.042l-0.224-0.427l-0.098,0.011c0,0-0.077,0.094-0.126-0.021L-4.7,1.336   c0,0-0.078,0.124-0.215,0.104c0,0-0.147-0.031-0.166-0.146l-0.165-0.032l-0.098,0.062l-0.539-0.02V1.099V0.182l1.651-1.434   l0.259-0.181c0,0-0.104-0.235,0.209-0.389l1.378-0.64h5.695l1.548,0.459c0,0,0.169,0.181,0.182,0.307l0.079,0.027L5.18-1.952   c0,0,0.077-0.03,0.098,0.085v0.136v0.245C5.297-1.501,5.317-1.512,5.34-1.512c0.069,0,0.122,0.078,0.122,0.177   c0,0.099-0.053,0.179-0.122,0.179c-0.022,0-0.043-0.011-0.062-0.027v0.12l0.087,0.031l0.137,0.834v0.146c0,0,0.079,0.062,0,0.146   l0.034,0.304L5.648,0.887z M-2.698-2.125l-0.613,0.241c0.193,0.061,0.337,0.244,0.353,0.466h0.347   C-2.72-1.515-2.787-1.66-2.787-1.821C-2.787-1.934-2.754-2.039-2.698-2.125z M-2.074-2.294C-1.911-2.209-1.8-2.029-1.8-1.821   c0,0.161-0.068,0.307-0.174,0.403h0.466C-1.615-1.515-1.682-1.66-1.682-1.821c0-0.208,0.109-0.388,0.274-0.473H-2.074z    M-0.337-2.294h-0.632c0.162,0.085,0.274,0.265,0.274,0.473c0,0.161-0.067,0.307-0.176,0.403h0.215l0.182,0.083h0.163   c-0.177-0.079-0.301-0.268-0.301-0.486C-0.611-2.029-0.5-2.209-0.337-2.294z M0.867-2.294H0.102   c0.163,0.085,0.274,0.265,0.274,0.473c0,0.219-0.123,0.407-0.3,0.486h0.819C0.718-1.414,0.594-1.603,0.594-1.821   C0.594-2.029,0.705-2.209,0.867-2.294z M2.025-2.294H1.307C1.47-2.209,1.58-2.029,1.58-1.821c0,0.219-0.123,0.407-0.301,0.486   h0.773C1.874-1.414,1.75-1.603,1.75-1.821C1.75-2.029,1.862-2.209,2.025-2.294z M3.195-2.294H2.464   c0.163,0.085,0.274,0.265,0.274,0.473c0,0.219-0.125,0.407-0.302,0.486h0.786c-0.176-0.079-0.3-0.268-0.3-0.486   C2.922-2.029,3.032-2.209,3.195-2.294z M3.792-2.161c0.072,0.092,0.116,0.21,0.116,0.34c0,0.219-0.123,0.407-0.301,0.486h0.184   l0.324,0.101c-0.049-0.081-0.076-0.179-0.076-0.28c0-0.221,0.126-0.411,0.306-0.489L3.792-2.161z M5.023-1.468   C5.022-1.438,5.018-1.41,5.011-1.381l0.042-0.037L5.023-1.468z" fill="#FFFFFF"/>
	</g></svg>