<?xml version="1.0" standalone="no"?>
<svg xmlns="http://www.w3.org/2000/svg" viewBox="-6.37 -6.37 12.74 12.74" color="#212121" width="75" height="75"><g transform="matrix(1 0 0 -1 0 0)">
		<g xmlns="http://www.w3.org/2000/svg">
			<circle class="primary" fill="currentColor" cx="0" cy="0" r="6.245"/>
			<path class="secondary" d="M0,6.12c3.38,0,6.12-2.74,6.12-6.12S3.38-6.12,0-6.12S-6.12-3.38-6.12,0S-3.38,6.12,0,6.12 M0,6.37    c-3.513,0-6.37-2.857-6.37-6.37S-3.513-6.37,0-6.37S6.37-3.513,6.37,0S3.513,6.37,0,6.37L0,6.37z" fill="#FFFFFF"/>
		</g>
		<g xmlns="http://www.w3.org/2000/svg" id="Armored_Bank_Truck_2_">
			<path class="secondary" d="M-4.645,3.004c0.059,0.017,0.161,0.023,0.211-0.008S-4.345,2.93-4.345,2.93S-4.06,2.947-3.95,2.948    c0.104,0.001,0.397-0.009,0.41-0.009c0.012,0,0.097,0.094,0.212,0.087C-3.212,3.02-3.184,2.993-3.14,2.964s0.084-0.03,0.178-0.035    c0.094-0.006,0.373,0.004,0.436,0.002C-2.463,2.93-2.32,2.93-2.32,2.93s0.114,0.118,0.228,0.105    c0.114-0.012,0.18-0.086,0.18-0.086l0.921,0.004c0,0,0.037,0.082,0.112,0.098c0.029,0.006,0.092,0.001,0.133-0.02    c0.05-0.024,0.076-0.066,0.082-0.067c0.013-0.002,0.392,0.003,0.41,0.007c0.019,0.003,0.02,0.02,0.02,0.056    c0.001,0.037-0.017,0.096,0.081,0.104c0.098,0.009,0.653,0.007,0.7,0.006s0.115,0.002,0.14,0.001S0.82,3.163,0.858,3.164    C0.897,3.166,0.943,3.155,0.953,3.13c0.01-0.025,0.016-0.06,0.019-0.096c0.005-0.037,0.016-0.047,0.043-0.051    C1.032,2.98,1.056,2.986,1.091,2.988l0.146,0.005c0,0,0.246,0,0.292-0.001c0.046,0,0.102-0.003,0.126-0.004l0.042-0.001    c0.007,0,0.036,0.093,0.122,0.097C1.904,3.089,1.917,3.05,1.925,3.02c0.008-0.031,0.017-0.037,0.029-0.038    c0.012,0,0.127,0.008,0.195-0.005C2.218,2.964,2.3,2.873,2.311,2.812c0.006-0.031,0.018-0.132,0.02-0.231    c0.001-0.092,0.008-0.195,0.011-0.228c0.007-0.067,0.021-0.316,0.031-0.321c0.01-0.004,0.008-0.16,0.01-0.25    C2.385,1.693,2.382,1.15,2.385,1.105C2.39,1.061,2.396,1.024,2.412,1.018c0.017-0.006,0.013-0.056,0.013-0.072    c0-0.016,0.007-0.042,0.025-0.049c0.019-0.006,0.077-0.005,0.111-0.006c0.034,0,0.316-0.016,0.405-0.025    C3.082,0.854,3.34,0.828,3.59,0.797C3.8,0.77,4.03,0.728,4.132,0.708c0.088-0.016,0.373-0.065,0.492-0.11    c0.058-0.021,0.142-0.064,0.199-0.143c0.052-0.073,0.079-0.145,0.082-0.16c0.006-0.029,0.013-0.06,0.013-0.06s0.041,0,0.071-0.005    C5.01,0.227,5.051,0.193,5.067,0.136c0.015-0.058,0.022-0.041,0.021-0.1c0-0.059-0.006-0.156-0.011-0.196    C5.073-0.201,5.063-0.266,5.065-0.28s0.023-0.047,0.014-0.061C5.069-0.355,5.073-0.39,5.078-0.41c0.004-0.021,0-0.114-0.024-0.168    C5.031-0.632,5.021-0.642,5.021-0.642S5.009-0.735,5.008-0.755c0-0.021-0.009-0.081-0.009-0.081s0.067,0.004,0.117,0.003    c0.051,0,0.195-0.003,0.241-0.016c0.048-0.014,0.136-0.036,0.214-0.146c0.077-0.11,0.121-0.212,0.145-0.254    C5.74-1.29,5.75-1.344,5.757-1.377c0.007-0.032,0.002-0.064,0.011-0.069C5.776-1.45,5.791-1.482,5.782-1.5    C5.774-1.519,5.768-1.545,5.768-1.563c0-0.019-0.022-0.126-0.096-0.145C5.64-1.716,5.575-1.727,5.517-1.732    c-0.1-0.01-0.2-0.011-0.254-0.013C5.178-1.748,4.95-1.767,4.931-1.766c-0.012,0-0.027-0.014-0.058-0.035    c-0.014-0.009-0.05-0.03-0.108-0.062C4.709-1.892,4.63-1.926,4.623-1.931c-0.011-0.008-0.004-0.036,0-0.081    c0.008-0.069,0.011-0.201-0.03-0.363C4.56-2.503,4.442-2.804,4.066-3.039C3.867-3.163,3.612-3.177,3.444-3.156    c-0.077,0.01-0.234,0.03-0.388,0.11c-0.182,0.093-0.311,0.217-0.4,0.345c-0.12,0.173-0.171,0.355-0.184,0.485    c-0.009,0.074-0.008,0.14-0.008,0.14c0,0.011-0.07,0.004-0.114,0.002C2.306-2.075,0.503-2.101,0.49-2.1    c-0.011,0-0.051-0.106-0.071-0.141C0.398-2.275,0.382-2.315,0.341-2.337C0.3-2.358-0.058-2.48-0.108-2.494    c-0.051-0.013-0.137-0.042-0.188-0.043c-0.051,0-0.797-0.012-0.886-0.011C-1.269-2.546-1.973-2.552-1.979-2.55    c-0.005,0.002-0.076-0.143-0.138-0.21c-0.058-0.063-0.188-0.188-0.38-0.265C-2.668-3.093-2.84-3.084-2.905-3.082    C-2.964-3.08-3.099-3.087-3.229-3.045C-3.372-2.999-3.462-2.952-3.55-2.886c-0.084,0.064-0.166,0.147-0.189,0.177    C-3.798-2.638-3.854-2.547-3.857-2.54c-0.014,0.033-0.018,0.015-0.04,0.021c-0.021,0.006-0.029,0.022-0.042,0.027    c-0.012,0.004-0.039-0.014-0.07,0.038C-4.043-2.399-4.3-1.793-4.3-1.793s-0.128,0.014-0.167,0.021    c-0.041,0.007-0.086,0.011-0.101,0.011s-0.049-0.045-0.075-0.063c-0.027-0.017-0.068-0.038-0.12-0.043    c-0.051-0.005-0.07,0.016-0.109,0.017c-0.039,0-0.077,0.003-0.097,0.028c-0.02,0.024-0.015,0.032-0.038,0.037    C-5.03-1.781-5.051-1.77-5.06-1.76c-0.007,0.01-0.044,0.003-0.078,0.003c-0.035,0-0.435,0.024-0.467,0.027    c-0.045,0.003-0.1,0.016-0.129,0.045c-0.024,0.023-0.023,0.053-0.023,0.069s-0.006,0.022-0.02,0.022    c-0.015,0-0.009,0.053-0.002,0.075c0.006,0.022,0.01,0.075,0.017,0.105c0.008,0.03,0.016,0.057,0.034,0.084    C-5.722-1.323-5.69-1.289-5.65-1.262c0.038,0.027,0.082,0.048,0.136,0.07c0.033,0.013,0.301,0.134,0.328,0.148    C-5.16-1.03-5.107-1.005-5.107-1.005s-0.02,0.895-0.019,0.966c0.002,0.071-0.004,0.564-0.003,0.588    c0.001,0.025-0.023,0.045-0.062,0.05c-0.037,0.004-0.031,0.067-0.017,0.075c0.015,0.008-0.001,0.044-0.003,0.081    C-5.212,0.792-5.21,0.893-5.212,0.929C-5.213,0.962-5.238,1.157-5.234,1.24s0.003,0.417,0.012,0.46    c0.009,0.042,0.023,0.06,0.046,0.07c0.022,0.01,0.033,0.01,0.027,0.038c-0.006,0.029-0.028,0.043-0.049,0.054    c-0.02,0.011-0.041,0.063-0.017,0.08c0.025,0.016,0.041,0.009,0.037,0.036C-5.18,2.006-5.175,2.046-5.167,2.05    c0.008,0.004,0.009,0.028,0.01,0.063c0.001,0.102,0,0.379,0.101,0.552C-4.956,2.837-4.785,2.964-4.645,3.004z" fill="#FFFFFF"/>
			<path class="secondary" d="M-3.118-0.65C-3.1-0.645-2.972-0.628-2.947-0.629c0.024,0,0.152,0,0.181-0.001    c0.028,0,0.087-0.003,0.094-0.014c0.005-0.01,0.018-0.031,0.009-0.041c-0.009-0.01-0.019-0.014-0.032-0.007    C-2.71-0.686-2.712-0.671-2.738-0.665c-0.025,0.007-0.058,0.013-0.058,0.013s-0.004-0.03,0.004-0.04s0.006-0.03,0.006-0.03    s-0.4-0.005-0.409-0.003c-0.007,0.002,0.001,0.029,0.014,0.039C-3.169-0.678-3.136-0.656-3.118-0.65z" fill="#FFFFFF"/>
		</g>
	</g></svg>