<?xml version="1.0" standalone="no"?>
<svg xmlns="http://www.w3.org/2000/svg" viewBox="-6.37 -6.37 12.74 12.74" color="#212121" width="75" height="75"><g transform="matrix(1 0 0 -1 0 0)">
		<g xmlns="http://www.w3.org/2000/svg">
			<circle class="primary" fill="currentColor" cx="0" cy="0" r="6.245"/>
			<path class="secondary" d="M0,6.12c3.38,0,6.12-2.74,6.12-6.12S3.38-6.12,0-6.12S-6.12-3.38-6.12,0S-3.38,6.12,0,6.12 M0,6.37    c-3.513,0-6.37-2.857-6.37-6.37S-3.513-6.37,0-6.37S6.37-3.513,6.37,0S3.513,6.37,0,6.37L0,6.37z" fill="#FFFFFF"/>
		</g>
		<g xmlns="http://www.w3.org/2000/svg">
			<path class="secondary" d="M5.333-2.511v-0.18H4.339l-0.147,0.09c0,0-0.379,0.054-0.455,0.108C3.661-2.438,3.069-1.061,3.069-1.061    L2.848-1.043L2.83-0.983H2.631l0.015-0.313c0.271-0.1,0.465-0.366,0.465-0.679c0-0.398-0.314-0.722-0.702-0.722    S1.707-2.374,1.707-1.975c0,0.084,0.015,0.164,0.039,0.238L1.694-1.758v-0.163H1.109v0.222l-1.421,0.066l-0.001-0.001    c0.001-0.016,0.001-0.031,0.001-0.047c0-0.558-0.439-1.01-0.982-1.01c-0.398,0-0.742,0.245-0.896,0.597L-2.2-2.096h-0.355v0.205    h-0.177v-0.12h-0.134v0.078h-0.217v-0.072H-3.2v0.079l-0.152,0.047l-0.443,1.847l-0.872,1.545c0,0-0.521-1.954-0.503-2.014    c0.018-0.06,0.105-0.023,0.105-0.023s0.444,0.831,0.485,0.907c0.041,0.076-0.041,0.223-0.041,0.223h0.07    c0,0,0.315-0.902,0.176-1.203c-0.141-0.301-0.724-0.388-1.126-0.371c-0.236,0.01-0.138,0.413-0.138,0.413s0.242,1.51,0.274,1.713    c0.033,0.203-0.006,0.349,0.029,0.589s0.381,0.83,0.445,0.818C-4.826,2.553-4.803,2.45-4.803,2.45s0.088-0.36,0.212-0.534    C-4.469,1.741-3.3,0.652-3.183,0.189c0.116-0.462,0-1.256,0-1.256h0.094v0.163h0.223v-0.114h0.216v-0.048h0.135v0.175h-0.1v0.896    h0.07c0,0,0.037,0.15,0.093,0.144c0.056-0.006,0.118-0.06,0.118-0.06s0.515,2.195,0.391,2.291    c-0.122,0.096-0.438,0.084-0.438,0.084v0.084c0,0,1.085,0.156,1.218,0.15c0.13-0.006,1.747-0.138,1.747-0.138V2.44H-1.31    l-0.188-0.054V2.083h-0.17c0,0-0.444-2.146-0.421-2.201c0.023-0.054,0.12-0.075,0.14-0.12c0.022-0.045-0.042-0.286,0-0.288    c0.046-0.003,0.334,0.132,0.334,0.132s-0.021,0.165,0,0.198c0.02,0.033,0.579,0,0.579,0v0.156c0,0-0.198,0.806-0.211,0.859    C-1.26,0.875-1.175,0.917-1.135,0.887c0.037-0.03,0.163-0.252,0.163-0.252s0.21-0.235,0.205-0.343    c-0.008-0.108-0.035-0.205-0.035-0.205s0.212,0,0.309,0c0.098,0,0.48-0.132,0.48-0.132v-0.108h-0.06l-0.016-0.102    c0,0-0.068-0.002-0.159-0.005c-0.09-0.004,0.13-0.842,0.13-0.842h0.087v0.222h0.169v-0.054l-0.05-0.037v-0.121    c0,0,0.411-0.005,0.479-0.006c0.066,0,0.11,0.087,0.141,0.133C0.736-0.92,0.469,0.084,0.45,0.171    C0.43,0.259,0.484,0.357,0.484,0.357S0.179,0.286,0.15,0.328S0.76,0.854,0.829,0.82C0.9,0.788,0.684,0.67,0.684,0.67V0.496    L0.771,0.46c0,0,0.094,0.163,0.164,0.156c0.07-0.006,1.264-0.625,1.264-0.625L3.577-0.61l0.316-1.251h0.059L3.894-1.416    c0,0,0.24,0.192,0.327,0.18C4.31-1.248,5.169-1.693,5.169-1.693l0.069-0.192L5.004-1.969L5.333-2.511z" fill="#FFFFFF"/>
		</g>
	</g></svg>