<?xml version="1.0" standalone="no"?>
<svg xmlns="http://www.w3.org/2000/svg" viewBox="-6.37 -6.37 12.74 12.74" color="#212121" width="75" height="75"><g transform="matrix(1 0 0 -1 0 0)">
		<g xmlns="http://www.w3.org/2000/svg">
			<circle class="primary" fill="currentColor" cx="0" cy="0" r="6.245"/>
			<path class="secondary" d="M0,6.12c3.38,0,6.12-2.74,6.12-6.12S3.38-6.12,0-6.12S-6.12-3.38-6.12,0S-3.38,6.12,0,6.12 M0,6.37    c-3.513,0-6.37-2.857-6.37-6.37S-3.513-6.37,0-6.37S6.37-3.513,6.37,0S3.513,6.37,0,6.37L0,6.37z" fill="#FFFFFF"/>
		</g>
		<g xmlns="http://www.w3.org/2000/svg">
			<path class="secondary" d="M3.431,1.224c-0.291,0-0.566-0.06-0.822-0.158C2.586,1.138,2.565,1.201,2.547,1.259    C2.69,1.29,2.832,1.329,2.956,1.4L2.945,1.421c0.001,0,0.002,0.001,0.003,0.001c0.096,0.055,0.181,0.127,0.245,0.223    c0.063,0.096,0.104,0.213,0.113,0.351C3.307,2.01,3.307,2.024,3.307,2.038c0.001,0.161-0.073,0.294-0.173,0.389    C2.981,2.57,2.775,2.647,2.606,2.694c-0.17,0.047-0.303,0.061-0.303,0.061H2.289L1.965,2.82c-0.032,0-0.062-0.015-0.081-0.042    C1.866,2.751,1.861,2.717,1.872,2.686l0.115-0.305H1.985C1.964,2.373,1.95,2.348,1.96,2.327C1.967,2.305,1.989,2.293,2.011,2.3    l0.004-0.012C2.01,2.283,2.005,2.279,2.002,2.274l-3.607-0.112l-0.247,0.817c0.044,0.008,0.083,0.018,0.11,0.027    c0.076,0.027,0.135,0.077,0.207,0.105c0.059,0.023,0.159,0.043,0.233,0.036c0.042-0.004,0.083-0.044,0.138-0.048    c0.056-0.002,0.11,0.011,0.162,0.031c0.029,0.012,0.059,0.025,0.086,0.041c0.012,0.005,0.018,0.012,0.02,0.019    c0.005,0.015-0.008,0.032-0.017,0.049C-0.92,3.254-0.93,3.268-0.94,3.281c-0.023,0.026-0.053,0.043-0.086,0.054    C-1.105,3.362-1.195,3.361-1.278,3.36c-0.053,0-0.106-0.004-0.16-0.005C-1.576,3.35-1.739,3.343-1.88,3.343    C-2.105,3.344-2.276,3.367-2.485,3.39c-0.11,0.012-0.258,0.033-0.224-0.124c0.027-0.125,0.217-0.217,0.354-0.24    c0.035-0.021,0.04-0.075,0.091-0.083c0.04-0.006,0.127-0.001,0.219,0.009l0.274-0.946l-0.596-1.053    c-0.32,0.167-0.678,0.271-1.064,0.271c-1.276,0-2.311-1.035-2.312-2.312c0-1.277,1.036-2.312,2.312-2.312    c0.94,0,1.746,0.564,2.107,1.371l0.455-0.141l0.006,0.019C-0.801-2.169-0.74-2.19-0.672-2.19c0.096,0,0.186,0.021,0.27,0.055    l0.231-0.339l-0.111-0.044l-0.021-0.109l0.082-0.094l0.445,0.055l0.071,0.071L0.279-2.479L0.096-2.441l-0.285,0.442    c0.151,0.134,0.25,0.325,0.25,0.543c0,0.16-0.062,0.301-0.15,0.422l2.351,2.537l0.003-0.009C2.25,1.485,2.247,1.467,2.25,1.451    C2.24,1.45,2.233,1.446,2.224,1.445l0.004-0.024c0.016,0.002,0.029,0.008,0.045,0.01c0.001,0,0.001,0,0.001-0.001    C2.272,1.428,2.24,1.398,2.252,1.326C2.264,1.25,2.305,1.237,2.305,1.237C2.327,1.24,2.349,1.246,2.371,1.25V1.249    C2.35,1.245,2.329,1.239,2.307,1.236L2.31,1.212c0.023,0.004,0.046,0.01,0.069,0.014L2.454,1C1.668,0.631,1.12-0.162,1.12-1.088    C1.12-2.365,2.156-3.4,3.431-3.4c1.277,0,2.312,1.035,2.312,2.312S4.707,1.224,3.431,1.224z M-2.177,2.977    c-0.05-0.001-0.092,0.005-0.11,0.041l0.071,0.005c0.012,0.001,0.039,0.003,0.041,0.003h-0.001    c0.194,0.009,0.346,0.051,0.515,0.066c-0.045-0.034-0.066-0.05-0.144-0.069c0-0.001-0.024-0.005-0.057-0.01l-0.001,0.003    c-0.121,0.048-0.193-0.028-0.193-0.028l0.001-0.002C-2.099,2.981-2.142,2.978-2.177,2.977z M-1.724,1.828l0.744-2.555    l-0.175-0.006C-1.263-0.034-1.682,0.556-2.268,0.9L-1.724,1.828z M-1.395-0.809c0.013-0.092,0.028-0.183,0.028-0.278    c0-0.07-0.014-0.137-0.021-0.206l-1.759,0.162c0.002,0.012,0.003,0.024,0.003,0.037c0,0.092-0.049,0.168-0.116,0.221L-1.395-0.809    z M-3.27-0.807l0.877,1.494c0.516-0.303,0.888-0.818,0.991-1.43L-3.27-0.807z M-1.13-1.317c0.028,0.091,0.079,0.168,0.15,0.227    c0.045-0.077,0.096-0.178,0.109-0.251L-1.13-1.317z M-1.139-0.903C-1.141-0.869-1.145-0.834-1.149-0.8l0.172,0.006    C-1.037-0.822-1.089-0.861-1.139-0.903z M-3.188-1.245l1.781-0.242c-0.028-0.141-0.069-0.278-0.125-0.407L-3.3-1.347    C-3.255-1.323-3.215-1.289-3.188-1.245z M-0.774-1.923c-0.16,0.036-0.291,0.143-0.349,0.294C-1.007-1.601-0.844-1.568-0.8-1.6    C-0.752-1.633-0.762-1.804-0.774-1.923z M-0.628-1.251l-0.077,0.273c0.011,0.001,0.021,0.007,0.033,0.007    c0.087,0,0.164-0.029,0.235-0.069C-0.488-1.116-0.561-1.208-0.628-1.251z M-3.431-3.151c-1.138,0-2.065,0.926-2.065,2.064    c0,1.139,0.926,2.065,2.065,2.065c0.341,0,0.659-0.091,0.943-0.239L-3.366-0.81l-0.032-0.001C-3.409-0.81-3.419-0.808-3.431-0.808    c-0.157,0-0.287-0.128-0.287-0.287c0-0.158,0.13-0.286,0.287-0.286c0.004,0,0.006,0.003,0.01,0.003l1.856-0.576    C-1.893-2.659-2.604-3.151-3.431-3.151z M-1.295-1.968c0.013,0.033,0.02,0.068,0.032,0.102c0.041-0.059,0.086-0.111,0.142-0.155    L-1.295-1.968z M-0.643-1.938l0.004,0.151l0.09-0.132C-0.58-1.927-0.61-1.936-0.643-1.938z M-0.386-1.693l0.117-0.021    C-0.287-1.74-0.3-1.769-0.322-1.792L-0.386-1.693z M-0.186-1.457c0-0.043-0.014-0.081-0.024-0.12    c-0.084,0.032-0.195,0.083-0.256,0.135l0.208,0.224C-0.216-1.289-0.186-1.368-0.186-1.457z M-0.245-0.876    C-0.362-0.79-0.499-0.731-0.654-0.727v0.011L-0.777-0.72l-0.751,2.665L2.08,2.077L2.188,1.74L-0.245-0.876z M2.466,1.564    L2.46,1.562L2.209,2.369C2.228,2.379,2.237,2.4,2.23,2.421S2.198,2.454,2.176,2.446H2.174L2.108,2.594l0.176-0.037    c0.001,0,0.003,0,0.003,0C2.333,2.551,2.554,2.52,2.753,2.435c0.1-0.042,0.192-0.098,0.256-0.164c0.063-0.067,0.1-0.137,0.1-0.232    c0-0.009,0-0.018,0-0.027C3.1,1.902,3.07,1.82,3.025,1.754C2.962,1.657,2.859,1.588,2.728,1.538    C2.714,1.533,2.696,1.532,2.682,1.527L2.673,1.549C2.625,1.531,2.561,1.524,2.507,1.511c0.005,0.01,0.017,0.016,0.014,0.027    C2.511,1.56,2.487,1.572,2.466,1.564z M2.539,1.282C2.666,1.309,2.788,1.347,2.9,1.403C2.788,1.346,2.666,1.309,2.539,1.282    C2.539,1.282,2.539,1.282,2.539,1.282z M3.431-3.151c-1.138,0-2.064,0.926-2.064,2.064c0,0.816,0.478,1.516,1.166,1.851    l0.253-0.759c0,0,0.283-0.589,0.444-0.877C3.166-0.924,3.124-1.004,3.124-1.095c0-0.158,0.128-0.286,0.286-0.286    c0.159,0,0.286,0.127,0.286,0.286c0,0.158-0.127,0.287-0.286,0.287c-0.024,0-0.05-0.004-0.072-0.009    C3.236-0.613,3.064-0.264,3.009-0.126C2.967-0.019,2.817,0.432,2.685,0.833c0.232,0.09,0.482,0.145,0.746,0.145    c1.138,0,2.064-0.927,2.064-2.065S4.57-3.151,3.431-3.151z" fill="#FFFFFF"/>
		</g>
	</g></svg>