<?xml version="1.0" standalone="no"?>
<svg xmlns="http://www.w3.org/2000/svg" viewBox="-6.37 -6.37 12.74 12.74" color="#212121" width="75" height="75"><g transform="matrix(1 0 0 -1 0 0)">
		<g xmlns="http://www.w3.org/2000/svg" id="Circle_11_">
			<path class="primary" fill="currentColor" d="M-0.001-6.245c-3.443,0-6.244,2.802-6.244,6.246c0,3.443,2.801,6.244,6.244,6.244    c3.444,0,6.246-2.801,6.246-6.244C6.245-3.443,3.443-6.245-0.001-6.245z"/>
			<path class="secondary" d="M-0.001,6.12c3.381,0,6.121-2.74,6.121-6.119c0-3.381-2.74-6.121-6.121-6.121    c-3.379,0-6.119,2.74-6.119,6.121C-6.12,3.38-3.38,6.12-0.001,6.12 M-0.001,6.37c-3.512,0-6.369-2.857-6.369-6.369    c0-3.513,2.857-6.371,6.369-6.371c3.513,0,6.371,2.858,6.371,6.371C6.37,3.513,3.512,6.37-0.001,6.37L-0.001,6.37z" fill="#FFFFFF"/>
		</g>
		<path xmlns="http://www.w3.org/2000/svg" class="secondary" d="M4.047,1.339L3.595,1.354L3.531,1.198H3.407v0.109H1.924V1.198h-2.356l-0.522,0.523h-1.21h-0.233H-3.99V1.46   h1.046l-0.303-0.303h-0.664l-0.703-0.473h-1.233V0.341l1.358-1.297h0.065c0.047-0.43,0.412-0.766,0.855-0.766   s0.81,0.336,0.855,0.766h0.374c0.046-0.43,0.411-0.766,0.854-0.766s0.81,0.336,0.855,0.766h1.002   c0.046-0.43,0.411-0.766,0.855-0.766c0.443,0,0.809,0.336,0.855,0.766h0.336c0.047-0.43,0.411-0.766,0.855-0.766   c0.443,0,0.809,0.336,0.855,0.766h0.074l1.646,0.609V0.7L4.047,1.339z" fill="#FFFFFF"/>
	</g></svg>