<?xml version="1.0" standalone="no"?>
<svg xmlns="http://www.w3.org/2000/svg" viewBox="-6.37 -6.37 12.74 12.74" color="#212121" width="75" height="75"><g transform="matrix(1 0 0 -1 0 0)">
		<g xmlns="http://www.w3.org/2000/svg" id="Circle_15_">
			<path class="primary" fill="currentColor" d="M-0.001-6.245c-3.443,0-6.244,2.802-6.244,6.246c0,3.443,2.801,6.244,6.244,6.244    c3.444,0,6.246-2.801,6.246-6.244C6.245-3.443,3.443-6.245-0.001-6.245z"/>
			<path class="secondary" d="M-0.001,6.12c3.381,0,6.121-2.74,6.121-6.119c0-3.381-2.74-6.121-6.121-6.121    c-3.379,0-6.119,2.74-6.119,6.121C-6.12,3.38-3.38,6.12-0.001,6.12 M-0.001,6.37c-3.512,0-6.369-2.857-6.369-6.369    c0-3.513,2.857-6.371,6.369-6.371c3.513,0,6.371,2.858,6.371,6.371C6.37,3.513,3.512,6.37-0.001,6.37L-0.001,6.37z" fill="#FFFFFF"/>
		</g>
		<path xmlns="http://www.w3.org/2000/svg" class="secondary" d="M5.91,0.586c-0.031,0.031,0,0.104,0,0.104H5.799L5.513,1.087v0.175H5.012V1.087L4.36,1.229H2.635L2.531,1.142   h-0.11L2.342,1.245L2.023,1.229L1.955,1.185v0.789H1.831V1.171L1.777,1.166L1.649,1.222H0.116l-0.438-0.023l-0.024,0.206   l-0.31,0.31l-0.119-0.103L-1.593,1.65l-0.033,0.063h-0.102L-2.049,1.42l-0.128-0.054l-1.416,0.501l-0.031-0.093l1.328-0.471   L-2.508,1.07h-0.087L-2.65,1.134L-3.382,1.15c0,0,0,0,0.031,0.032c0.032,0.031,0.016,0.095,0,0.158s-0.007,0.096-0.08,0.144   c-0.07,0.048,0,0-0.087-0.024C-3.604,1.437-3.55,1.142-3.55,1.142L-3.604,1.03h-0.111l-0.017-0.06c0,0-0.103-0.074-0.229-0.113   C-3.978,0.99-4.185,0.968-4.185,0.968l0.007-0.247c0,0,0,0-0.095,0.008C-4.367,0.737-4.4,0.713-4.4,0.713L-4.47,0.69l-0.024,0.08   h-0.127L-4.67,0.555l-1.255-0.176l1.47-1.431h0.183c0-0.509,0.413-0.922,0.922-0.922s0.923,0.413,0.923,0.922h0.379   c0-0.509,0.412-0.922,0.921-0.922s0.922,0.413,0.922,0.922h0.818c0-0.509,0.414-0.922,0.923-0.922s0.921,0.413,0.921,0.922h0.366   c0-0.509,0.414-0.922,0.923-0.922c0.51,0,0.922,0.413,0.922,0.922h0.345l0.684,0.263v0.159H5.593l0.135,0.397l0.119,0.047   L5.775-0.13L5.728-0.034L5.91,0.229C5.91,0.229,5.942,0.555,5.91,0.586z" fill="#FFFFFF"/>
	</g></svg>