<?xml version="1.0" standalone="no"?>
<svg xmlns="http://www.w3.org/2000/svg" viewBox="-6.37 -6.37 12.74 12.74" color="#212121" width="75" height="75"><g transform="matrix(1 0 0 -1 0 0)">
		<g xmlns="http://www.w3.org/2000/svg">
			<path class="primary" fill="currentColor" d="M0-6.245c-3.444,0-6.245,2.802-6.245,6.246c0,3.443,2.802,6.244,6.245,6.244s6.245-2.801,6.245-6.244    C6.245-3.443,3.444-6.245,0-6.245z"/>
			<path class="secondary" d="M0,6.12c3.38,0,6.12-2.74,6.12-6.119C6.12-3.38,3.38-6.12,0-6.12s-6.12,2.74-6.12,6.121    C-6.12,3.38-3.38,6.12,0,6.12 M0,6.37c-3.513,0-6.37-2.857-6.37-6.369C-6.37-3.512-3.513-6.37,0-6.37s6.37,2.858,6.37,6.371    C6.37,3.513,3.513,6.37,0,6.37L0,6.37z" fill="#FFFFFF"/>
		</g>
		<path xmlns="http://www.w3.org/2000/svg" class="secondary" d="M5.876,0.366c0,0-0.01,0.141-0.162,0.141v0.176H5.68v0.033H5.6L5.527,0.851v0.023H5.489v0.248H4.983V0.925   L4.796,0.954L4.328,1.009H3.885L3.846,1.058H3.299v0.064l-0.33-0.055H2.668c0,0-0.13-0.004-0.13-0.113H2.6V0.915L2.571,0.903   L2.535,0.921L2.419,0.944L2.39,0.909H2.296v0.047h0.066c0,0,0.027,0.123-0.175,0.123C2.053,1.079,2,1.04,1.98,1.015   C1.903,1.081,1.91,1.206,1.91,1.206L1.89,2.151V1.202c0-0.102-0.047-0.16-0.079-0.186L1.683,1.034H0.135l-0.351-0.07l-0.071,0.07   l-0.039,0.068l0.075,0.467h0.155c0,0,0.065-0.043,0.127,0.027L0.233,1.72l0.06,0.402L0.165,2.147h-0.216l-0.017,0.029h-0.207   L-0.32,2.17C-0.367,2.247-0.446,2.3-0.535,2.3c-0.115,0-0.214-0.084-0.25-0.201l-0.022-0.004h-0.117l-0.048-0.031H-1.01v0.025   l-0.011,0.014C-0.987,2.106-0.96,2.14-0.96,2.179v0.023c0.035,0,0.064,0.061,0.064,0.135S-0.925,2.472-0.96,2.472   c0,0-0.003-0.002-0.004-0.002c-0.009,0.033-0.033,0.055-0.064,0.055h-0.116c-0.012,0-0.021-0.002-0.031-0.008v0.02   c0,0.012-0.008,0.021-0.019,0.021c-0.01,0-0.02-0.01-0.02-0.021V2.524c-0.006,0.004-0.012,0.008-0.02,0.008   c-0.039,0-0.071-0.092-0.071-0.205c0-0.096,0.023-0.174,0.056-0.197l-0.149-0.162H-1.87V1.925l-0.666-0.004   c-0.006,0.012-0.018,0.021-0.032,0.021c-0.015,0-0.026-0.01-0.032-0.021l-1.255-0.008c-0.003,0.018-0.019,0.031-0.036,0.031   S-3.922,1.93-3.926,1.911l-0.527-0.004c-0.008,0.014-0.021,0.02-0.035,0.02h-0.069c-0.024,0-0.044-0.021-0.044-0.051   c0-0.029,0.02-0.053,0.044-0.053h0.069c0.016,0,0.031,0.012,0.039,0.027l0.523-0.01l0,0c0-0.023,0.016-0.043,0.035-0.043   c0.02,0,0.037,0.018,0.038,0.041l1.255-0.023c0.007-0.012,0.018-0.018,0.03-0.018c0.014,0,0.022,0.004,0.029,0.016l0.664-0.012   V1.765h0.542l0.073-0.084l-0.02-0.02l0.03-0.031l-0.019-0.033l0.02-0.035L-1.302,1.5l-0.021,0.07h-0.349v0.025h-0.294l-0.464-0.69   h-0.057l-0.018-0.029h-0.05v0.039l-0.018,0.023l-0.925-0.033l-0.01-0.035H-3.54l-0.01-0.041h-0.089l-0.005-0.111l-0.189-0.1   L-4.119,0.46c0,0-0.032,0.051-0.262,0.018v0.064h-0.155L-4.56,0.206L-4.68,0.19l-0.002,0.072L-5.439,0.18l-0.026-0.018l-0.282-0.02   c0,0-0.085,0-0.085-0.076V-0.03l-0.02-0.01c0,0-0.022-0.004-0.022-0.09h0.034v-0.068h0.103l0.013,0.023v0.086l0.058-0.061   c-0.021-0.014-0.037-0.039-0.037-0.07c0-0.041,0.03-0.076,0.069-0.076c0.017,0,0.033,0.006,0.044,0.02l0.095-0.006l0.237-0.262   l0.912-1.027h0.155c0.025-0.551,0.426-0.99,0.917-0.99c0.49,0,0.892,0.439,0.917,0.99h0.382C-1.95-2.12-1.55-2.56-1.058-2.56   c0.489,0,0.891,0.439,0.917,0.99h0.778c0.026-0.55,0.427-0.99,0.919-0.99c0.49,0,0.892,0.439,0.918,0.99h0.335   c0.026-0.55,0.426-0.99,0.918-0.99c0.49,0,0.892,0.439,0.918,0.99h0.288l0.682,0.348v0.166H5.53l0.145,0.49h0.062   c0.015,0,0.028,0.014,0.028,0.031S5.751-0.501,5.736-0.501H5.693L5.72-0.399L5.677-0.374l0.199,0.328V0.366z M-1.204,2.142   c0.002-0.002,0.002-0.004,0.003-0.006h-0.007C-1.206,2.138-1.205,2.14-1.204,2.142z" fill="#FFFFFF"/>
	</g></svg>