<?xml version="1.0" standalone="no"?>
<svg xmlns="http://www.w3.org/2000/svg" viewBox="-6.37 -6.37 12.74 12.74" color="#212121" width="75" height="75"><g transform="matrix(1 0 0 -1 0 0)">
		<g xmlns="http://www.w3.org/2000/svg">
			<path class="primary" fill="currentColor" d="M0-6.245c-3.444,0-6.245,2.802-6.245,6.246c0,3.443,2.802,6.244,6.245,6.244s6.245-2.801,6.245-6.244    C6.245-3.443,3.444-6.245,0-6.245z"/>
			<path class="secondary" d="M0,6.12c3.38,0,6.12-2.74,6.12-6.119C6.12-3.38,3.38-6.12,0-6.12s-6.12,2.74-6.12,6.121    C-6.12,3.38-3.38,6.12,0,6.12 M0,6.37c-3.513,0-6.37-2.857-6.37-6.369C-6.37-3.512-3.513-6.37,0-6.37s6.37,2.858,6.37,6.371    C6.37,3.513,3.513,6.37,0,6.37L0,6.37z" fill="#FFFFFF"/>
		</g>
		<path xmlns="http://www.w3.org/2000/svg" class="secondary" d="M-5.662-1.465c0-0.174,0.154-0.228,0.154-0.228h0.132l0.228,0.134l0.228-0.066l-0.287-0.239l0.227-0.094h0.526   v0.213h0.396v-0.373l0.145-0.015c0-0.018-0.001-0.034-0.001-0.052c0-0.552,0.402-0.998,0.897-0.998c0.47,0,0.854,0.4,0.895,0.911   l0.065,0.284l0.889,0.27c0.148-0.32,0.449-0.54,0.797-0.54c0.386,0,0.716,0.271,0.842,0.653l0.564-0.171   C0.998-1.882,0.979-1.998,0.979-2.118c0-0.552,0.401-0.999,0.897-0.999c0.399,0,0.738,0.292,0.855,0.693h0.888   c0.115-0.401,0.455-0.693,0.854-0.693c0.495,0,0.897,0.447,0.897,0.999c0,0.237-0.075,0.455-0.199,0.627l0.08,0.039h0.191   l0.167,0.08v1.545l-0.503,0.16L4.474,0.306v0.161H3.301L3.432,1.11v0.147H3.301v0.341c0,0,0.048,0.16-0.252,0.16h-4.26l-0.059,0.12   h0.105v0.227H-1.38V1.931h-0.047V1.718h-0.288V1.651H-2.54c0,0-0.035,0.026-0.144-0.146L-3.21,0.612h-0.098L-3.41,0.626h0.039   c0.069,0,0.125,0.062,0.125,0.14s-0.056,0.14-0.125,0.14H-3.6c-0.068,0-0.124-0.062-0.124-0.14c0-0.042,0.017-0.08,0.043-0.105   l-0.043,0.006L-4.717,0.56h-0.265v-1.318h-0.047v0.173L-5.219,0.8l-0.058,0.075l0.651,0.381c0.021,0.013,0.031,0.04,0.028,0.069   l0.422,0.214C-4.159,1.526-4.14,1.522-4.123,1.53l0.806,0.351c0.023,0.01,0.037,0.037,0.037,0.066l0.572,0.219   c0.019,0.008,0.033,0.022,0.035,0.037L-2.6,2.157l2.022,0.413l0.204,0.06l0.016-0.028C-0.37,2.595-0.377,2.584-0.376,2.574   c0-0.016,0.021-0.025,0.046-0.024l0.003-0.005l0.004,0.006L0.38,2.644C0.388,2.645,0.397,2.647,0.403,2.65l0.012-0.064l0.109-0.081   C0.441,2.424,0.094,2.37,0.094,2.37c0.335-0.053,0.765,0.094,0.765,0.094C1.326,2.41,1.59,2.61,1.59,2.61   C0.858,2.464,0.836,2.717,0.836,2.717L0.703,2.942L-0.373,2.85l-0.072,0.253h-0.18l-0.019-0.042l-0.148,0.03v0.05   c0,0.023-0.018,0.042-0.038,0.042s-0.037-0.019-0.037-0.042V3.094l-0.73-0.099L-1.6,3.003c-0.007,0.023-0.029,0.036-0.05,0.028   c-0.017-0.007-0.027-0.025-0.025-0.044l-0.61-0.066l-0.038,0.103h-0.145l0.011-0.121L-2.87,2.857   C-2.876,2.872-2.887,2.883-2.898,2.89c-0.027,0.013-0.053-0.003-0.061-0.037L-2.961,2.84l-1.473-0.699   c0.01,0.035,0.015,0.071,0.015,0.108c0,0.199-0.145,0.36-0.323,0.36s-0.322-0.161-0.322-0.36c0-0.082,0.025-0.157,0.067-0.218   L-5.36,1.562l-0.087-0.044c-0.395-0.079-0.144-0.586-0.144-0.586l0.251-1.505l0.007-0.326l-0.072-0.079l-0.126-0.141v-0.253   C-5.64-1.398-5.662-1.465-5.662-1.465z M-0.293,2.616l0.039,0.087L0.117,2.77l0.271-0.066c-0.005,0-0.009,0-0.013,0L-0.293,2.616z    M0.508-1.45c0.011,0.062,0.018,0.126,0.018,0.191h0.68l0.049-0.14c-0.063-0.067-0.118-0.143-0.16-0.229L0.508-1.45z M-2.018-1.81   l0.005,0.025l-0.109,0.226h0.892c0.002-0.004,0.002-0.007,0.004-0.011L-2.018-1.81z M-4.974,2.001   c0.031-0.036,0.07-0.065,0.112-0.084V1.811L-5.283,1.6L-4.974,2.001z M-2.971,2.794l-0.044-0.222   c-0.002-0.006-0.002-0.011-0.002-0.017l-0.002,0.001l-1.437-0.6l-0.051,0.048c0.021,0.025,0.039,0.054,0.053,0.084L-2.971,2.794z    M-0.867,3.053V3.016c0-0.017,0.009-0.03,0.021-0.037l-0.698-0.166l-0.041,0.145L-0.867,3.053z M-0.662,3.023l-0.139-0.034   c0.005,0.008,0.009,0.017,0.009,0.026V3.05l0.132-0.026L-0.662,3.023L-0.662,3.023z M-2.229,2.771l-0.042,0.112l0.604,0.064   l0.045-0.152l-0.607-0.146V2.771z M-2.803,2.478l-0.119,0.043c0,0.002,0.002,0.004,0.002,0.005l0.057,0.282   c0.001,0.004,0.001,0.007,0.002,0.011l0.408,0.045l0.01-0.106l-0.036-0.094L-2.803,2.478z M-2.726,2.224L-3.3,2.005   c-0.019,0.023-0.045,0.034-0.068,0.023l-0.69-0.3l0.035,0.109l0.826,0.386l0.418,0.067l0.049-0.054l0.017-0.01   C-2.718,2.227-2.722,2.226-2.726,2.224z M-5.367,1.001l-0.08,0.108l0.203,0.196l0.85,0.372l0.148-0.108l0,0L-4.622,1.38   c-0.02,0.021-0.048,0.029-0.07,0.017L-5.367,1.001z" fill="#FFFFFF"/>
	</g></svg>