<?xml version="1.0" standalone="no"?>
<svg xmlns="http://www.w3.org/2000/svg" viewBox="-6.37 -6.37 12.74 12.74" color="#212121" width="75" height="75"><g transform="matrix(1 0 0 -1 0 0)">
		<g xmlns="http://www.w3.org/2000/svg">
			<circle class="primary" fill="currentColor" cx="0" cy="0" r="6.245"/>
			<path class="secondary" d="M0,6.12c3.38,0,6.12-2.74,6.12-6.12S3.38-6.12,0-6.12S-6.12-3.38-6.12,0S-3.38,6.12,0,6.12 M0,6.37    c-3.513,0-6.37-2.857-6.37-6.37S-3.513-6.37,0-6.37S6.37-3.513,6.37,0S3.513,6.37,0,6.37L0,6.37z" fill="#FFFFFF"/>
		</g>
		<path xmlns="http://www.w3.org/2000/svg" id="Bulldozer_2_" class="secondary" d="M4.721-0.427l-0.206,0.3l-0.02,0.008L4.009,0.095L3.365-0.249l0.003-0.069   C3.134-0.296,3.074-0.523,3.074-0.523L2.983-1.092L2.868-1.188L2.417-0.442v0.004L2.403-0.219C2.362,0.827,2.28,0.693,2.28,0.693   c0,0.071-0.033,0.085-0.033,0.085c0.022,0.182-0.02,0.36-0.02,0.36l-0.255,0.01L1.964,1.002L1.863,0.836L1.782,0.832L1.119,1.88   C1.086,1.911,1.043,1.869,1.043,1.869l-0.116,0.19L0.713,1.933l0.629-1.005L1.235,0.934L1.126,0.922l0.003-0.049l-0.546,0.01   l-0.01,0.338L0.667,1.23C0.639,1.29,0.559,1.328,0.559,1.328l-0.312-0.02C0.183,1.301,0.133,1.205,0.133,1.205l0.106-0.001   L0.253,0.97l-0.299,0.008L-0.057,1.25l-0.018,0.041l-0.07,1.888c-0.099,0.04-0.174-0.013-0.174-0.013l0.066-1.888l-0.012-0.041   l0.015-0.27l-0.176-0.009l-0.217,0.13C-0.734,1.184-0.811,1.22-0.811,1.22l-0.235,1.74l-0.265,0.134l-0.938-0.009l-1.767-0.142   l-0.409-0.057l-0.029-0.348c-0.02-0.234,0.204-0.19,0.204-0.19l-0.047-0.944C-4.292,1.217-4.21,1.229-4.21,1.229l0.17-0.023   l-0.008-0.233L-4.427,0.94l-0.029-0.06c-0.098,0.13-0.193-0.004-0.193-0.004L-4.91,0.332c-0.116-0.257,0.065-0.254,0.065-0.254   l-0.094-0.167l0.003-0.433l0.253-0.271l0.51,0.002l0.031-0.089l-0.145-0.066l0.031-0.224c-0.592-0.174-0.71-0.361-0.71-0.361   c-0.871-1.105,0.55-1.609,0.55-1.609l4.779-0.055c1.34,0.046,1.628,0.849,1.628,0.849c0.364,0.037,1.384,0.263,1.384,0.263   c0.501,0.134,0.807-0.03,0.807-0.03C4.241-2.169,4.277-2.253,4.3-2.334l0,0c0.035-0.122,0.04-0.235,0.04-0.235l0.905-0.365   C4.02-1.724,4.721-0.427,4.721-0.427z M-4.815,0.111c-0.127-0.02-0.076,0.113-0.076,0.113l0.303,0.609   c0.056,0.055,0.11,0.006,0.11,0.006L-4.815,0.111z M-1.069,2.732l0.196-1.384L-1.021,1.34l-0.174,1.456L-1.069,2.732z M-1.33,2.911   l0.213-1.582l0.069-1.3L-2.08-0.084l-0.122,3.001L-1.33,2.911z M-3.582,2.687l0.948,0.072c0,0,0.118,0.028,0.118-0.136l0.035-1.654   c0,0,0.005-0.085-0.105-0.102l-0.622-0.033l-0.441,0.33c0,0-0.031,0.014-0.038,0.128l-0.046,1.215   C-3.733,2.508-3.792,2.679-3.582,2.687z M-4.052,1.289l-0.129-0.008c-0.064,0.022-0.056,0.094-0.056,0.094l0.052,0.964l0.176-0.022   L-4.052,1.289z M2.427-1.457c-0.181-0.113-0.19-0.074-0.19-0.074L2.335-1.43L2.283-0.458L2.769-1.22   C2.703-1.305,2.427-1.457,2.427-1.457z" fill="#FFFFFF"/>
	</g></svg>