<?xml version="1.0" standalone="no"?>
<svg xmlns="http://www.w3.org/2000/svg" viewBox="-6.37 -6.37 12.74 12.74" color="#212121" width="75" height="75"><g transform="matrix(1 0 0 -1 0 0)">
		<g xmlns="http://www.w3.org/2000/svg">
			<circle class="primary" fill="currentColor" cx="0" cy="0" r="6.245"/>
			<path class="secondary" d="M0,6.12c3.38,0,6.12-2.74,6.12-6.12S3.38-6.12,0-6.12S-6.12-3.38-6.12,0S-3.38,6.12,0,6.12 M0,6.37    c-3.513,0-6.37-2.857-6.37-6.37S-3.513-6.37,0-6.37S6.37-3.513,6.37,0S3.513,6.37,0,6.37L0,6.37z" fill="#FFFFFF"/>
		</g>
		<path xmlns="http://www.w3.org/2000/svg" id="Car_2_" class="secondary" d="M-5.391-0.084c0.071,0.096,0.036,0.54,0.12,0.6s0.144,0.276,0.191,0.276   c0.048,0,0.744,0.06,0.936,0.084C-3.951,0.9-3.208,1.307-2.536,1.523s2.195,0.228,2.818,0.144c0.623-0.083,1.571-0.744,1.679-0.815   c0.108-0.072,0.36-0.168,0.36-0.168C2.957,0.636,4.78,0.3,4.924,0.216c0.144-0.083,0.384-0.468,0.384-0.468   s0.035-0.084,0.144-0.167C5.56-0.503,5.523-0.671,5.427-0.768C5.331-0.863,5.476-0.936,5.392-1.079   C5.308-1.223,5.044-1.163,4.924-1.211c-0.12-0.048-0.084-0.132-0.18-0.144c-0.03-0.004-0.059,0.003-0.085,0.016   c-0.163-0.228-0.43-0.376-0.73-0.376c-0.359,0-0.67,0.211-0.814,0.516h-5.351h-0.002c-0.144-0.305-0.454-0.517-0.813-0.517   c-0.385,0-0.713,0.242-0.842,0.581l-0.226,0.031c-1.224,0.168-1.259,0.3-1.296,0.372C-5.45-0.66-5.438-0.587-5.499-0.408   C-5.559-0.228-5.463-0.18-5.391-0.084z" fill="#FFFFFF"/>
	</g></svg>