<?xml version="1.0" standalone="no"?>
<svg xmlns="http://www.w3.org/2000/svg" viewBox="-6.37 -6.37 12.74 12.74" color="#212121" width="75" height="75"><g transform="matrix(1 0 0 -1 0 0)">
		<g xmlns="http://www.w3.org/2000/svg">
			<path class="primary" fill="currentColor" d="M0-6.245c-3.444,0-6.245,2.802-6.245,6.246c0,3.443,2.802,6.244,6.245,6.244s6.245-2.801,6.245-6.244    C6.245-3.443,3.444-6.245,0-6.245z"/>
			<path class="secondary" d="M0,6.12c3.38,0,6.12-2.74,6.12-6.119C6.12-3.38,3.38-6.12,0-6.12s-6.12,2.74-6.12,6.121    C-6.12,3.38-3.38,6.12,0,6.12 M0,6.37c-3.513,0-6.37-2.857-6.37-6.369C-6.37-3.512-3.513-6.37,0-6.37s6.37,2.858,6.37,6.371    C6.37,3.513,3.513,6.37,0,6.37L0,6.37z" fill="#FFFFFF"/>
		</g>
		<g xmlns="http://www.w3.org/2000/svg">
			<path id="Caterpillar_613G_2_" class="secondary" d="M5.349-0.47C5.184-0.097,4.871,0.155,4.513,0.155c-0.047,0-0.092-0.005-0.138-0.014    v0.14L4.188,0.548H4.014L3.936,0.674v0.239H3.65V0.59H3.508L3.409,0.604l0.237,0.577C3.658,1.207,3.65,1.239,3.63,1.252    C3.609,1.266,3.586,1.256,3.575,1.23L3.321,0.615L2.279,0.759L2.092,0.927L2.245,1.18l0.044-0.056l0.197,0.07L2.399,1.32    c0,0,0.065,0.279-0.067,0.42c0,0,0.019,0.246-0.108,0.288c0,0-0.083,0.015-0.1-0.134L1.929,2.203L1.89,2.183V2.147    c0,0-0.369-0.062-0.561-0.365l0.17-0.386L1.455,1.327c0,0-0.05,0.099-0.164,0.077C1.176,1.382,1.28,1.234,1.28,1.234L1.089,1.003    c0,0-0.146,0.121-0.248-0.02L0.939,0.85L0.742,0.541c0,0-0.138,0.07-0.192-0.021l0.089-0.148l-0.045-0.02L0.412,0.434v0.16    c0,0.038-0.022,0.068-0.053,0.068c-0.029,0-0.055-0.03-0.055-0.068V0.479L0.16,0.539v0.229c0,0.04-0.026,0.075-0.057,0.075    c-0.033,0-0.058-0.035-0.058-0.075v-0.18l-0.229,0.093c0,0-0.042,0.303-0.218,0.52c0,0,0.005,0.141,0.071,0.141v0.245    c0,0-0.243,0.021-0.243-0.287l-1.2,0.008v0.075c0,0-0.177,0.092-0.313,0V1.327c0,0-0.122,0.048-0.225,0.02V1.256h-0.149    l-0.351-0.631v1.039h0.043v0.224h0.051V1.98h-0.203L-3.05,2.141h-0.013V2.4c0,0.022-0.017,0.042-0.038,0.042    c-0.021,0-0.04-0.02-0.04-0.042V2.144l-1.053,0.031c0,0-0.201,0.028-0.263-0.132h-0.241V1.972h0.082V1.698h0.039L-4.66,0.772    l-0.845,0.014c0,0-0.121,0.057-0.188-0.645l-0.086-0.618l0.054-0.127l-0.122-0.027v-0.018C-5.86-0.637-5.878-0.631-5.896-0.631    C-5.954-0.631-6-0.691-6-0.765c0-0.073,0.046-0.134,0.104-0.134c0.018,0,0.036,0.008,0.049,0.019v-0.019l1.065-0.236v-0.169h0.935    v0.057l0.273-0.062c0.064-0.576,0.452-1.02,0.923-1.02c0.431,0,0.795,0.376,0.899,0.886l0.143-0.143l0.385-0.056v0.28h0.164v0.378    h-0.12v0.196h0.054v0.365l-0.082,0.106v0.133l0.048,0.06V0.07c0,0-0.207,0.099-0.229-0.154v-0.112h-0.427v0.155h0.054    c0,0,0.539,1.275,1.175,0.337v-0.31h0.122l0.043,0.084l0.373-0.098l0.055-0.52l0.045-0.098l-0.319-0.406v-0.084l0.144-0.028    l0.109-0.183v-0.309l0.34-0.085v-0.14l0.702,0.14l0.835,0.015v-0.07h0.317v0.07h1.253v0.112H3.65C3.806-2.02,4.134-2.3,4.513-2.3    c0.435,0,0.799,0.366,0.919,0.872L5.813-1.29c0,0,0.055,0,0.055,0.435L5.349-0.47z M-3.879,0.759H-4.34V1.86h0.461    C-3.879,1.86-3.879,0.759-3.879,0.759z M-3.469,0.752h-0.36v1.066h0.36C-3.469,1.818-3.469,0.752-3.469,0.752z M-2.985,0.73    h-0.312v1.088h0.312V0.73z M-1.701,0.828L-1.952,0.31h-0.243v0.729c0.082,0.021,0.115-0.05,0.115-0.05l0.27-0.014l0.022,0.063    C-1.65,1.031-1.701,0.828-1.701,0.828z M0.978,0.184L0.73,0.324l0.335,0.455c0,0,0.077-0.146,0.159-0.062s0.16,0,0.16,0    L0.978,0.184z M1.861,0.821L1.329,0.079C1.215,0.057,1.143,0.142,1.143,0.142l0.361,0.44c0,0,0.193,0.155,0.227,0.19    C1.764,0.806,1.78,0.933,1.78,0.933C1.89,0.927,1.861,0.821,1.861,0.821z" fill="#FFFFFF"/>
		</g>
	</g></svg>