<?xml version="1.0" standalone="no"?>
<svg xmlns="http://www.w3.org/2000/svg" viewBox="-6.37 -6.37 12.74 12.74" color="#212121" width="75" height="75"><g transform="matrix(1 0 0 -1 0 0)">
		<g xmlns="http://www.w3.org/2000/svg">
			<path class="primary" fill="currentColor" d="M0-6.245c-3.444,0-6.245,2.802-6.245,6.246c0,3.443,2.802,6.244,6.245,6.244s6.245-2.801,6.245-6.244    C6.245-3.443,3.444-6.245,0-6.245z"/>
			<path class="secondary" d="M0,6.12c3.38,0,6.12-2.74,6.12-6.119C6.12-3.38,3.38-6.12,0-6.12s-6.12,2.74-6.12,6.121    C-6.12,3.38-3.38,6.12,0,6.12 M0,6.37c-3.513,0-6.37-2.857-6.37-6.369C-6.37-3.512-3.513-6.37,0-6.37s6.37,2.858,6.37,6.371    C6.37,3.513,3.513,6.37,0,6.37L0,6.37z" fill="#FFFFFF"/>
		</g>
		<g xmlns="http://www.w3.org/2000/svg">
			<path id="Caterpillar_D9_2_" class="secondary" d="M-5.795-1.655c0.217,0,0.349,0.003,0.349,0.003h0.626l0.736,0.269v0.097h0.348V-1.2    c0.094,0,0.184-0.058,0.184-0.058v-0.077l0.849,0.145c0-0.09,0.031-0.168,0.081-0.236L-2.7-1.459l0.016-0.044l0.091,0.039    c0.054-0.063,0.12-0.116,0.183-0.157l-0.062-0.081l0.035-0.03l0.065,0.087c0.058-0.036,0.11-0.061,0.145-0.076v-0.124h0.043v0.108    h0.275v-0.108h0.044v0.108h0.275v-0.108h0.042v0.108h0.275v-0.108h0.044v0.108h0.275v-0.108h0.043v0.108h0.274v-0.108h0.044v0.108    h0.273v-0.108h0.045v0.108H0v-0.108h0.042v0.108h0.274v-0.108h0.045v0.108h0.275v-0.108H0.68v0.108h0.275v-0.108h0.044v0.108    h0.275v-0.108h0.042v0.108h0.275v-0.108h0.044v0.108H1.91v-0.108h0.043v0.108h0.275v-0.108h0.044v0.108h0.34    c0.004,0,0.006,0,0.01,0v-0.094h0.045v0.095C2.799-1.733,2.91-1.712,3.006-1.678L3.031-1.78l0.043,0.014L3.047-1.661    C3.199-1.596,3.305-1.494,3.376-1.38l0.067-0.051l0.024,0.04L3.4-1.34c0.071,0.133,0.1,0.279,0.11,0.407h0.104v0.049h-0.1    C3.52-0.719,3.498-0.597,3.498-0.597l1.621,0.365L5.295-0.26v-0.528H5.182c0-0.74-0.417-1.019-0.417-1.019    c0.763,0,1.093,0.749,1.093,0.749v0.692h0.095v1.134H5.754c0,0-0.148,0.173-0.156,0.239C5.589,1.076,5.493,1.124,5.493,1.124    L5.225,1.643C5.05,1.889,4.908,1.642,4.908,1.642L4.412,1.494c-0.09,0.233-0.288,0.19-0.288,0.19L3.232,1.292l-0.43-0.119v0.346    h0.036V1.7H2.776v0.2L2.51,2.527H2.148L2.07,3.789l0.047,0.042v0.39H1.033V3.9L-0.16,3.831V3.659l-0.146-0.108V2.783l0.09-0.145    h-0.419v0.39h-0.358V2.65h-0.084v1.059h-0.221V2.625h-0.628c-0.189,0-0.229,0.426-0.229,0.426l0.177,0.698L-2.09,3.793    l-0.059-0.167l-0.257,0.069l-0.28-1.034C-2.857,2.56-2.717,2.376-2.717,2.376l-0.245-1.03L-3.006,1.35l-0.061-0.198l0.04-0.028    l0.024-0.17l-0.21-0.8L-3.609,0.33c0.099,0,0.15,0.213,0.15,0.213l-0.508,0.021l-0.02,0.051c0.216,0.237-0.068,0.503-0.068,0.503    l-0.049-0.042L-4.23,1.518c-0.056,0.255-0.17,0.22-0.17,0.22L-4.841,1.14V0.968H-4.92l-0.487-2.271    c-0.01,0.029-0.095,0.016-0.095,0.016l-0.301-0.271C-5.838-1.587-5.795-1.655-5.795-1.655z M2.699,0.662    c0,0,1.225-0.062,1.588,0.48l0.187,0.054l0.005,0.096l0.434,0.144l0.126-0.989L4.887,0.163c0,0-0.287-0.062-0.361-0.044    C4.451,0.14,4.322,0.302,4.322,0.302S4.17,0.475,4.049,0.316H3.555v0.227H3.342V0.495H2.859v0.096h-0.16V0.662z M-2.946,0.178    l0.008,0.053l-0.086,0.038l0.182,0.648l0.101,0.105l0.033-0.015l0.065,0.207l-0.048,0.044l0.23,0.989l0.069-0.034L-2.624,0.09    L-2.946,0.178z M-3.186-0.36l0.021,0.048l0.438-0.164v-0.081l-0.156,0.01l0.006-0.091l-0.201-0.034    C-3.064-0.385-3.186-0.36-3.186-0.36z M-3.793,0.071c0,0,0.108,0.087,0.52-0.087l-0.09-0.306l-0.252,0.086l0.052,0.148    L-3.793,0.071z" fill="#FFFFFF"/>
		</g>
	</g></svg>