<?xml version="1.0" standalone="no"?>
<svg xmlns="http://www.w3.org/2000/svg" viewBox="-6.37 -6.37 12.74 12.74" color="#212121" width="75" height="75"><g transform="matrix(1 0 0 -1 0 0)">
		<g xmlns="http://www.w3.org/2000/svg">
			<path class="primary" fill="currentColor" d="M0-6.245c-3.444,0-6.245,2.802-6.245,6.246c0,3.443,2.802,6.244,6.245,6.244s6.245-2.801,6.245-6.244    C6.245-3.443,3.444-6.245,0-6.245z"/>
			<path class="secondary" d="M0,6.12c3.38,0,6.12-2.74,6.12-6.119C6.12-3.38,3.38-6.12,0-6.12s-6.12,2.74-6.12,6.121    C-6.12,3.38-3.38,6.12,0,6.12 M0,6.37c-3.513,0-6.37-2.857-6.37-6.369C-6.37-3.512-3.513-6.37,0-6.37s6.37,2.858,6.37,6.371    C6.37,3.513,3.513,6.37,0,6.37L0,6.37z" fill="#FFFFFF"/>
		</g>
		<g xmlns="http://www.w3.org/2000/svg">
			<path id="Caterpillar_140H_Grader_2_" class="secondary" d="M5.784-0.395l0.133,0.173v1.483L5.784,1.397L4.758,1.511    c0,0.137-0.072,0.159-0.072,0.159H4.534v0.383c0,0.118,0.074,0.118,0.074,0.118v0.224c-0.216,0-0.232-0.183-0.232-0.183V1.667    H4.313C4.324,1.685,4.33,1.704,4.33,1.726c0,0.09-0.11,0.164-0.247,0.164S3.837,1.816,3.837,1.726    c0-0.021,0.005-0.041,0.016-0.059H3.837H3.639c-0.174,0-0.177-0.101-0.177-0.101L2.646,1.543c0,0,0-1.158,0-1.615    c-0.009,0-0.018,0-0.026,0c-0.081,0-0.158-0.013-0.231-0.038v2.254L2.45,2.645h0.098v0.25H-0.09l0.116-0.246H0.1V2.571    L0.062,2.599L0.034,2.548V1.984h0.037l0.056,0.272L0.22,1.384c-0.124-0.01-0.132-0.117-0.132-0.117l0.046-0.556    C-0.136,0.983-0.7,1.13-0.7,1.13l-1.154-0.065l-0.054,1.237c-0.003,0.049-0.037,0.087-0.076,0.084    c-0.04-0.003-0.071-0.045-0.068-0.094L-2,1.057l-1.935-0.164l-1.097-0.327h-0.1V-0.1C-5.5-0.205-5.773-0.597-5.773-1.062    c0-0.548,0.376-0.992,0.842-0.992c0.464,0,0.842,0.444,0.842,0.992c0,0.177-0.04,0.344-0.109,0.488h1.292v-0.287h1.308    C-1.275-1.117-1.62-1.394-1.62-1.394v-0.002c-0.016-0.009-0.029-0.023-0.039-0.042c-0.006,0.187-0.068,0.37-0.19,0.512    l-0.049-0.059c0.227-0.263,0.229-0.692,0.007-0.959l0.049-0.058c0.11,0.132,0.172,0.299,0.184,0.469    c0.014-0.032,0.041-0.054,0.074-0.054c0.007,0,0.014,0,0.02,0.003l0,0c0.467,0,0.391,0.644,0.391,0.644l0.252,0.144v0.003    c0.024,0.005,0.043,0.03,0.043,0.061c0,0.03-0.019,0.056-0.043,0.062v0.001l-0.293,0.15h-0.115v0.14h0.021v0.39h-0.171V-0.52    h-0.322l-0.033,0.854c0.008,0.015,0.012,0.032,0.012,0.052l-0.004,0.093H-1.5l0.036-0.37l0.217-0.01V0.054h0.055v0.024    l0.207,0.006c0,0,0.118,0.194-0.07,0.232h-0.121v0.162h0.419l0.965-0.705l0.29-0.479H0.53l0.045-0.619    c0-0.151,0.104-0.275,0.232-0.275c0.13,0,0.234,0.124,0.234,0.273l0.045,0.612l0.024-0.03l0.089-0.277l0.42-0.336h0.197    C1.923-1.763,2.243-2.055,2.62-2.055c0.362,0,0.672,0.271,0.79,0.649h0.343C3.878-1.77,4.181-2.027,4.534-2.027    c0.465,0,0.842,0.444,0.842,0.991c0,0.062-0.005,0.121-0.014,0.178h0.241l0.101,0.191h0.231l0.054,0.031v0.072L5.784-0.395z     M-4.344-0.309l0.34,0.405V0.2l0.339,0.204c0.14,0.082,0.299,0.073,0.299,0.073h1.392l0.005-0.101    c0.001-0.034,0.018-0.062,0.041-0.077l0.025-0.609h-2.441V-0.309z M0.995-1.325c0-0.121-0.084-0.22-0.188-0.22    c-0.103,0-0.187,0.099-0.187,0.223l-0.019,0.26h0.411L0.995-1.325z M1.018-1.009h-0.42L0.576-0.706H1.04L1.018-1.009z     M1.413,0.037H0.822c-0.153,0-0.32-0.024-0.32,0.156L0.435,1.13c0,0.18-0.069,0.327,0.085,0.327h0.909    c0.152,0,0.134-0.147,0.134-0.327V0.366C1.562,0.185,1.567,0.037,1.413,0.037z M1.586,1.811c0-0.182-0.074-0.199-0.227-0.199    H0.635c-0.152,0-0.275,0.001-0.275,0.183L0.32,2.186c0,0.181-0.052,0.327,0.102,0.327h0.887c0.154,0,0.278-0.009,0.278-0.19V1.811    H1.586z M2.156,0.411c0-0.11-0.075-0.201-0.17-0.201c-0.094,0-0.169,0.091-0.169,0.201V2.34c0,0.11,0.075,0.199,0.169,0.199    c0.095,0,0.17-0.089,0.17-0.199V0.411z" fill="#FFFFFF"/>
		</g>
	</g></svg>