<?xml version="1.0" standalone="no"?>
<svg xmlns="http://www.w3.org/2000/svg" viewBox="-6.37 -6.37 12.74 12.74" color="#212121" width="75" height="75"><g transform="matrix(1 0 0 -1 0 0)">
		<g xmlns="http://www.w3.org/2000/svg">
			<circle class="primary" fill="currentColor" cx="0" cy="0" r="6.245"/>
			<path class="secondary" d="M0,6.12c3.38,0,6.12-2.74,6.12-6.12S3.38-6.12,0-6.12S-6.12-3.38-6.12,0S-3.38,6.12,0,6.12 M0,6.37    c-3.513,0-6.37-2.857-6.37-6.37S-3.513-6.37,0-6.37S6.37-3.513,6.37,0S3.513,6.37,0,6.37L0,6.37z" fill="#FFFFFF"/>
		</g>
		<path xmlns="http://www.w3.org/2000/svg" id="Cement_truck_2_" class="secondary" d="M2.179,0.377v0.196H1.532l0.037,0.14c0.223,0.068,0.386,0.276,0.386,0.522   c0,0.225-0.135,0.417-0.33,0.5v0.038H1.589v0.002h0.016v0.039h0.021v0.055H1.589v0.097H1.527V1.869V1.864H1.434v0.021H1.423v0.033   H1.378V1.885H1.366V1.864H1.212V1.742c-0.2-0.079-0.345-0.276-0.345-0.507c0-0.099,0.026-0.192,0.072-0.271l-0.092-0.35   c0,0,0,0,0,0.001c0.001,0.016,0.002,0.033,0.004,0.05c0,0,0,0.001,0,0.002c0.002,0.017,0.004,0.034,0.004,0.051v0.001   c0,0.018,0.002,0.035,0.003,0.053l0,0C0.874,1.113,0.84,1.478,0.691,1.58L-0.4,2.217l-0.548,0.16H-0.95l0,0l-1.82,0.125l0.047,0.15   h-0.001l-0.051,0.014H-2.78l-0.045-0.147L-2.864,2.53l-0.543,0.012l0.019,0.06l-0.033,0.01l-0.021-0.07l-0.37,0.007l0.003,0.014   l-0.03,0.047h-0.215l0.016,0.035l-1.229-0.004l-0.005-0.028l0.442-0.406h-0.056V2.198h-0.003V1.483l-0.009-0.039H-4.99v0.105h-0.03   v0.033c0.036,0.007,0.06,0.025,0.06,0.047c0,0.021-0.023,0.04-0.06,0.046v0.02h-0.06v-0.02C-5.115,1.669-5.141,1.65-5.141,1.628   c0-0.021,0.025-0.041,0.061-0.047V1.549h-0.03V1.357h0.121v0.036h0.079L-5,1.047C-5.023,1.063-5.051,1.07-5.076,1.059l0.042-0.152   l-0.034-0.126l0.071-0.019l0.014-0.049c0.029-0.001,0.05,0.011,0.064,0.028l0.03-0.007V0.687h0.019h0.051H-4.7l0.004-0.001   c-0.017,0-0.034,0-0.053,0c-0.258,0-0.467-0.027-0.486-0.06h-0.002V0.623c0,0,0-0.001,0-0.002c0,0,0-0.003,0.002-0.004l0.118-0.883   h0.045v-0.015c-0.03-0.036-0.045-0.078-0.045-0.122c0-0.121,0.12-0.222,0.283-0.247v-0.123h0.032v-0.149h0.069v0.149H-4.7v0.12   c0.13,0.016,0.235,0.078,0.282,0.163H-4.2v-0.116h0.055v0.021h0.181l0.522-0.216l0.119-0.164H-3.7v-0.162h0.033v-0.421   l-0.112-0.007v0.147h-0.066V-1.56h-0.016c-0.008-0.001-0.014-0.006-0.014-0.013v-0.032c0-0.007,0.006-0.013,0.006-0.013h0.023   v-0.015h0.014v-0.001l-0.019-0.008v-0.013l0.019,0.008v-0.018h0.04v0.018l0.021-0.008v0.013l-0.021,0.008v0.001h0.013v0.015h0.112   v-0.045h0.011l0.003-0.114c0-0.014-0.003-0.025-0.006-0.033l0,0c-0.005-0.007-0.01-0.012-0.016-0.016l-0.001-0.001l-0.002-0.001   l-0.093-0.089v-0.001C-3.78-1.927-3.784-1.936-3.788-1.946c-0.003-0.01-0.003-0.02-0.003-0.03l0,0v-0.301h0.029v0.302v0.001   c0,0.006,0,0.012,0.004,0.018c0.001,0.005,0.004,0.011,0.01,0.017l0.091,0.088c0.009,0.007,0.018,0.015,0.024,0.027l0,0   c0.003,0.006,0.004,0.012,0.006,0.02v-0.004h0.038L-3.59-1.897l0.016-0.001l0,0l0.033-0.001v0.001h0.017l0.001,0.095l0.145,0.141   h0.006c-0.032-0.082-0.049-0.17-0.049-0.264c0-0.408,0.332-0.74,0.739-0.74c0.317,0,0.587,0.198,0.694,0.479v-0.008h0.034   c0.015-0.018,0.036-0.03,0.062-0.03c0.025,0,0.048,0.012,0.063,0.03h0.182c0.015-0.018,0.037-0.03,0.062-0.03   c0.026,0,0.049,0.012,0.063,0.03h0.034v0.058c0.092-0.306,0.376-0.528,0.71-0.528c0.304,0,0.564,0.182,0.679,0.442h0.392v0.003   c0.043,0,0.085,0,0.129,0c0.045,0,0.082,0.036,0.087,0.081c0,0,0.009,0,0.014,0c0,0,0.006,0.002,0.006,0.005   c0,0.001,0,0.002-0.002,0.003L0.529-2.13c0,0.001-0.003,0.002-0.003,0.002c-0.008,0-0.012,0-0.012,0   C0.508-2.102,0.494-2.08,0.475-2.065h0.192v0.023h0.559c0-0.002-0.002-0.006-0.002-0.009v-0.024l0,0c0-0.001,0-0.001,0-0.001   v-0.019h0.01H1.25v-0.009h0.013v0.009h0.02H1.29v0.019c0,0,0,0,0,0.001l0,0v0.024c0,0.003-0.002,0.006-0.002,0.009H1.68   c0-0.002-0.002-0.006-0.002-0.009v-0.024l0,0c0-0.001,0-0.001,0-0.001v-0.019h0.008h0.019v-0.009h0.012v0.009h0.018h0.01v0.019   c0,0,0,0,0,0.001l0,0v0.024c0,0.003-0.002,0.006-0.004,0.009h0.077v0.029c0-0.001,0.002-0.003,0.003-0.004   c0.035-0.021,0.07-0.027,0.078-0.015c0.006,0.012-0.016,0.039-0.051,0.06c-0.01,0.008-0.022,0.013-0.032,0.017v0.032l0.118-0.028   L1.899-2.075h0.004L1.896-2.094l0.043-0.011l0.005,0.019l0.063-0.017L2.003-2.116L1.997-2.113v-0.005l0.015-0.005H2.008L2.001-2.12   L1.995-2.134l0.008-0.002L2.001-2.145l0.02-0.006l0.004,0.009L2.03-2.143l0.004,0.015L2.038-2.13L2.04-2.125L2.034-2.124   l0.002,0.01l0.01-0.002L2.048-2.11l0.041-0.012v-0.002l0.125-0.033C2.22-2.159,2.225-2.16,2.231-2.16v-0.003l0.19,0.001   c0,0,0.007,0.001,0.009,0.001v-0.001h0.086c0.039,0,0.073,0.033,0.073,0.072v0.097l0.034-0.001v-0.104c0,0,0.045-0.013,0.062,0.062   c0.001,0.01,0.002,0.023,0.006,0.038l0.088-0.004c0.038-0.374,0.352-0.665,0.735-0.665c0.41,0,0.741,0.332,0.741,0.74   c0,0.012-0.001,0.023-0.001,0.034l0.072,0.001l0.012-0.125l0.053-0.175l0.326,0.063l0.229,0.084L4.932-2.051L4.99-2.056   l0.085,0.015c0,0,0.062,0.035,0.096,0.052C5.207-1.97,5.238-1.942,5.253-1.885c0.005,0.014,0.007,0.032,0.009,0.05   c0.001,0.003,0.001,0.007,0.001,0.01v0.001C5.268-1.79,5.27-1.753,5.271-1.729c0,0.011,0,0.02,0,0.025l0,0l0,0   C5.275-1.676,5.255-1.67,5.255-1.67H5.221H5.213l0.016,0.024v0.145l0.019,0.01v0.037L5.227-1.446l0.002,0.032l0.019,0.008   c0,0,0,0.039-0.002,0.087C5.244-1.271,5.2-1.252,5.2-1.252L4.999-1.25l0.039,0.119l0.068,0.005l0,0L5.13-1.125h0.037l0.004,0.011   C5.176-1.109,5.18-1.102,5.185-1.089L5.188-1.08H5.187c0,0.005,0.002,0.011,0.004,0.017C5.202-1.008,5.237-0.64,5.237-0.64   s0.016,0.217-0.003,0.371c-0.018,0.155-0.07,0.324-0.07,0.324s0,0,0,0.001c0,0,0,0,0,0.001c0,0,0,0-0.001,0.001c0,0,0,0,0,0.001   C5.161,0.062,5.161,0.062,5.161,0.064l0,0C5.159,0.066,5.159,0.066,5.155,0.068l0,0l0,0l0,0l0,0v0.001l0,0l0,0L5.152,0.07   c0,0,0,0.001-0.003,0.002c0,0.001,0,0.001-0.002,0.002c0,0-0.003,0-0.004,0.001L5.14,0.076c-0.002,0-0.004,0.001-0.004,0.001   C5.103,0.081,5.072,0.081,5.072,0.081L5.044,0.089L5.037,0.096l0,0L4.963,0.289C4.968,0.294,4.97,0.299,4.97,0.301v0.274   c0,0.003-0.012,0.027-0.023,0.053v0.145l0,0L4.944,0.831l-0.02,0.032L4.885,0.871H4.883H4.882H4.744L4.686,1.023   C4.7,1.031,4.704,1.035,4.704,1.035L4.688,1.048l0,0L4.683,1.053c0,0-0.033,0.107-0.072,0.132C4.605,1.188,4.602,1.19,4.6,1.191   C4.598,1.192,4.598,1.192,4.596,1.193c-0.019,0.01-0.038,0.019-0.07,0.029l0.003,0.009l-0.01,0.001l0.007,0.029   c0.003,0.013-0.007,0.025-0.018,0.028L4.449,1.302C4.44,1.303,4.431,1.299,4.426,1.292C4.421,1.295,4.419,1.297,4.419,1.297H4.394   C4.382,1.298,4.359,1.271,4.36,1.258c-0.003,0-0.007,0-0.009,0.001c-0.009,0-0.022,0.003-0.032,0.004v0.053h0.017v0.016   L4.309,1.334L4.301,1.342L4.042,1.355L3.765,1.34L3.758,1.33L3.74,1.333L3.738,1.327L3.726,1.329L3.222,1.332   c0,0.002,0,0.006,0,0.01S3.22,1.348,3.22,1.348H3.216H3.214c-0.007,0-0.011,0-0.016,0H3.196c0,0-0.005,0-0.007,0   c0,0-0.001-0.002-0.001-0.006c0-0.004,0-0.006,0-0.01H3.156c0,0-0.071,0.003-0.092-0.1C3.042,1.13,3.024,1.026,3.02,0.979V0.978   H3.003V0.962h0.015c0-0.001,0-0.001,0-0.002H3.014L3.009,0.894c0-0.014-0.01-0.021-0.027-0.022H2.969l0.034,0.629l0.062-0.004   l0.003,0.034l0.18-0.01L3.235,1.578c0.006,0.098-0.057,0.12-0.229,0.129c-0.179,0.01-0.233-0.025-0.238-0.103L2.752,1.55   l0.065-0.004L2.815,1.511h0.017L2.796,0.88H2.788L2.787,0.872l0.009-0.001L2.759,0.189H2.754L2.676,0.22L2.662,0.208l0.032-0.025   L2.662,0.171l0.093-0.066L2.754,0.104L2.639,0.187L2.563,0.089C2.555,0.086,2.546,0.082,2.537,0.078   c-0.112-0.056-0.182-0.12-0.214-0.247c-0.032-0.126-0.06-0.304-0.064-0.387C2.256-0.64,2.256-0.684,2.256-0.684h0.045l0,0h0.021   h0.01L2.327-0.802H1.938L1.936-0.799v0.051h0.243v0.065h0.019v0.09H2.179v0.573H2.24v0.011c0.009,0,0.019,0,0.027,0   c0.006,0,0.012,0.005,0.012,0.011c0,0.008,0,0.018,0,0.026c0.004,0,0.005,0,0.005,0c0.007,0,0.007,0.001,0.007,0.005   c0,0.005,0,0.009,0,0.014c0,0.003,0,0.006-0.006,0.006c0,0-0.002,0-0.006,0c0,0.007,0,0.014,0,0.021S2.273,0.085,2.267,0.085H2.26   c0.03,0.007,0.052,0.026,0.052,0.05c0,0.021-0.019,0.041-0.045,0.047v0.031h0.041v0.27H2.267v0.283   c0.002,0.05-0.037,0.072-0.11,0.07V0.79C2.2,0.788,2.224,0.781,2.222,0.768V0.484H2.181v-0.27h0.041V0.186   C2.203,0.182,2.188,0.173,2.179,0.162V0.27v0.02V0.377 M2.179,0.109c0.01-0.01,0.024-0.019,0.041-0.023c-0.013,0-0.027,0-0.041,0   V0.109z M-4.228,1.686c-0.004,0-0.007,0.001-0.014,0.002L-4.46,1.751l0.071,0.046l0.098-0.09l0.015,0.022L-4.228,1.686z    M-4.118,0.687l0.08-0.054l-0.014-0.039l-0.094,0.093H-4.118z M0.727-0.011L0.689-0.083H0.657C0.664-0.072,0.668-0.06,0.675-0.05   c0,0.002,0.001,0.003,0.001,0.004c0.007,0.012,0.013,0.024,0.017,0.037c0,0,0.002,0.001,0.002,0.002   C0.698,0.002,0.7,0.01,0.706,0.018l0.021-0.006V-0.011z M0.334-0.679v-0.123H0.155c0.109,0.099,0.221,0.245,0.319,0.396v0.001   c0.01,0.015,0.019,0.03,0.029,0.045c0,0.001,0.002,0.001,0.002,0.001c0.01,0.015,0.019,0.03,0.026,0.045   c0.002,0,0.002,0.001,0.002,0.001c0.009,0.016,0.018,0.03,0.025,0.044C0.56-0.268,0.56-0.267,0.56-0.267   c0.009,0.015,0.017,0.03,0.025,0.044c0,0,0,0.001,0,0.002c0.008,0.015,0.016,0.028,0.023,0.042l0,0H0.64L0.396-0.64H0.372   C0.351-0.64,0.334-0.658,0.334-0.679z M2.828-0.75L2.83-0.762l0.013-0.001L2.841-0.767H2.783l0.003,0.078l0.046,0.002   c0,0,0.007,0.07,0.03,0.15C2.865-0.526,2.869-0.513,2.875-0.5c0-0.023-0.01-0.054-0.01-0.054L2.844-0.741H2.837L2.828-0.75z    M2.928-0.769l0.028-0.01H2.943L2.928-0.769L2.928-0.769z M3.05-0.161h0.035l0,0V-0.17H3.054L3.05-0.161z M2.282-1.874L2.282-1.874   l-0.01-0.001C2.269-1.874,2.267-1.873,2.265-1.873l0.002,0.002L2.282-1.874z M2.3-1.881v-0.008C2.297-1.887,2.293-1.885,2.29-1.883   v0.002H2.3z M3.018,0.885l0.028-0.021V0.838l-0.02-0.005L2.993,0.49l0.024-0.021L3.016,0.435L2.993,0.416L2.991,0.357l0.024-0.018   v-0.04L2.993,0.28l0.006-0.078L3.02,0.191L3.017,0.155L2.999,0.134V0.093L2.944,0.114L2.943,0.148L2.93,0.153l0.038,0.709h0.02   C3.001,0.861,3.012,0.869,3.018,0.885z M4.863,0.573v-0.02L4.755,0.84H4.88c0.021-0.005,0.034-0.028,0.034-0.067l0,0V0.687   c-0.005,0.01-0.01,0.016-0.01,0.016H4.879C4.879,0.703,4.863,0.582,4.863,0.573z M2.374-1.933C2.366-1.927,2.342-1.91,2.308-1.893   L2.307-1.881l0.062-0.017L2.414-1.92L2.407-1.949l-0.031,0.02L2.374-1.933z M2.226-2.025l0.01,0.031   C2.26-2.008,2.284-2.023,2.298-2.031H2.249H2.248L2.226-2.025z M-2.087-0.963l-1.315,1.088l0.027,0.105l1.481-0.882l0.541-0.179   l0,0h0.002l1.259-0.097c0.056,0,0.115,0.026,0.179,0.07v-0.106L-2.087-0.963L-2.087-0.963z M-3.686-0.463l0.022-0.031h-0.022   V-0.463z M-3.686,0.237V0.4l0.104-0.067l-0.04-0.149l-0.013,0.003L-3.686,0.237z M-3.753,0.303h0.013V0.291L-3.753,0.303z    M-3.948,0.495h0.12l0.088-0.058V0.368h-0.079L-3.948,0.495z M-4.005,0.55l-0.019,0.018l0.015,0.047l0.098-0.064L-4.005,0.55   L-4.005,0.55z M-4.146,0.083h0.064l0.069-0.095h-0.134L-4.146,0.083L-4.146,0.083z M-4.146,0.172l0.024-0.034h-0.024V0.172z    M-4.372-0.011l0.067,0.403L-4.2,0.249v-0.26C-4.2-0.011-4.372-0.011-4.372-0.011z M-4.468,1.719l0.242-0.07   c0,0,0.004,0,0.005-0.001V1.641L-4.468,1.71V1.719z M-4.468,1.873l0.053-0.05l-0.053-0.035V1.873z M-4.538,1.773l-0.117,0.035   c-0.031,0.008-0.049,0.041-0.041,0.071L-4.65,2.04l0.112-0.103V1.773z M-4.553,1.734L-4.82,1.808v0.331h0.062l0.073-0.068   l-0.059-0.205c-0.011-0.034,0.01-0.071,0.043-0.08l0.156-0.045L-4.553,1.734z" fill="#FFFFFF"/>
	</g></svg>