<?xml version="1.0" standalone="no"?>
<svg xmlns="http://www.w3.org/2000/svg" viewBox="-6.37 -6.37 12.74 12.74" color="#212121" width="75" height="75"><g transform="matrix(1 0 0 -1 0 0)">
		<g xmlns="http://www.w3.org/2000/svg" id="Circle_10_">
			<path class="primary" fill="currentColor" d="M-0.001-6.245c-3.443,0-6.244,2.802-6.244,6.246c0,3.443,2.801,6.244,6.244,6.244    c3.444,0,6.246-2.801,6.246-6.244C6.245-3.443,3.443-6.245-0.001-6.245z"/>
			<path class="secondary" d="M-0.001,6.12c3.381,0,6.121-2.74,6.121-6.119c0-3.381-2.74-6.121-6.121-6.121    c-3.379,0-6.119,2.74-6.119,6.121C-6.12,3.38-3.38,6.12-0.001,6.12 M-0.001,6.37c-3.512,0-6.369-2.857-6.369-6.369    c0-3.513,2.857-6.371,6.369-6.371c3.513,0,6.371,2.858,6.371,6.371C6.37,3.513,3.512,6.37-0.001,6.37L-0.001,6.37z" fill="#FFFFFF"/>
		</g>
		<path xmlns="http://www.w3.org/2000/svg" class="secondary" d="M5.699,1.745L5.284,1.831L4.906,2.537h-5.603v-0.19l-0.998-1.013H-2.15l-1.242-0.289l0.067,0.249v0.749   l-0.207-0.054l0.027-0.706l-0.12-0.293l-0.709-0.165l0.076,0.284v0.749l-0.206-0.054l0.026-0.706L-4.573,0.77l-1.126-0.263   l0.924-1.525l0.38-0.258l0.001,0.001c-0.008-0.054-0.013-0.107-0.013-0.163c0-0.607,0.492-1.1,1.099-1.1s1.101,0.492,1.101,1.1   c0,0.053-0.005,0.105-0.013,0.156l0.277-0.259h4.357l0.294,0.11c0-0.003-0.001-0.005-0.001-0.008c0-0.607,0.492-1.1,1.1-1.1   s1.1,0.492,1.1,1.1c0,0.28-0.105,0.535-0.277,0.729l0,0l0.277-0.04l0.191-0.483l0.176,0.087L5.098-0.69L5.7,1.056L5.595,1.25   l0.104,0.099V1.745z" fill="#FFFFFF"/>
	</g></svg>