<?xml version="1.0" standalone="no"?>
<svg xmlns="http://www.w3.org/2000/svg" viewBox="-6.37 -6.37 12.74 12.74" color="#212121" width="75" height="75"><g transform="matrix(1 0 0 -1 0 0)">
		<g xmlns="http://www.w3.org/2000/svg">
			<circle class="primary" fill="currentColor" cx="0" cy="0" r="6.245"/>
			<path class="secondary" d="M0,6.12c3.38,0,6.12-2.74,6.12-6.12S3.38-6.12,0-6.12S-6.12-3.38-6.12,0S-3.38,6.12,0,6.12 M0,6.37    c-3.513,0-6.37-2.857-6.37-6.37S-3.513-6.37,0-6.37S6.37-3.513,6.37,0S3.513,6.37,0,6.37L0,6.37z" fill="#FFFFFF"/>
		</g>
		<g xmlns="http://www.w3.org/2000/svg" id="Crane_2_">
			<path d="M-1.71,4.585c-0.055-0.094-0.07-0.227-0.077-0.368c0.033-0.001,0.049-0.018,0.051-0.05C-1.58,4.205-1.7,4.452-1.71,4.585z    "/>
			<path d="M-1.164,4.548C-1.168,4.515-1.16,4.493-1.127,4.497C-1.123,4.53-1.131,4.551-1.164,4.548z"/>
			<path d="M-1.038,4.446c0.027-0.005,0.034,0.009,0.052,0.013C-0.99,4.481-1.009,4.488-1.038,4.484    C-1.038,4.471-1.038,4.459-1.038,4.446z"/>
			<path d="M-0.897,4.383c0.009,0,0.017,0,0.025,0c-0.003,0.01,0.005,0.012,0.013,0.013c0,0.008,0,0.017,0,0.025    c-0.016-0.002-0.022,0.003-0.025,0.013C-0.896,4.431-0.897,4.421-0.91,4.421C-0.904,4.411-0.896,4.4-0.897,4.383z"/>
			<path d="M-2.308,4.344c-0.011-0.049,0.061-0.049,0.051,0C-2.282,4.366-2.273,4.343-2.308,4.344z"/>
			<path d="M-2.372,4.23c0.011,0.048-0.061,0.048-0.05,0C-2.404,4.23-2.388,4.23-2.372,4.23z"/>
			<path d="M-2.436,4.179c0,0.017,0,0.034,0,0.051C-2.484,4.24-2.484,4.169-2.436,4.179z"/>
			<path d="M-1.787,4.179C-1.838,4.167-1.814,4.08-1.838,4.04c0.052,0.012,0.068,0.059,0.09,0.101    C-1.761,4.155-1.796,4.145-1.787,4.179z"/>
			<path d="M-0.275,4.167c-0.026,0.005-0.033-0.009-0.051-0.013c0.004-0.022,0.021-0.029,0.051-0.025    C-0.275,4.141-0.275,4.154-0.275,4.167z"/>
			<path d="M-1.647,4.167C-1.66,4.158-1.66,4.138-1.686,4.141C-1.69,4.101-1.65,4.108-1.647,4.078    C-1.619,4.085-1.635,4.156-1.647,4.167z"/>
			<path d="M-2.65,4.09c-0.01-0.049,0.061-0.049,0.051,0C-2.626,4.112-2.615,4.089-2.65,4.09z"/>
			<path d="M0.194,3.9C0.22,3.895,0.228,3.909,0.246,3.913C0.242,3.935,0.223,3.942,0.194,3.938C0.194,3.925,0.194,3.913,0.194,3.9z"/>
			<path d="M-2.98,3.798c0.022,0.011,0.048,0.028,0.025,0.051C-2.995,3.855-3.001,3.817-2.98,3.798z"/>
			<path d="M-3.057,3.785c0.003-0.022,0.021-0.028,0.051-0.025c0,0.017,0,0.034,0,0.051C-3.041,3.82-3.031,3.785-3.057,3.785z"/>
			<path d="M-1.583,3.76c-0.056-0.016-0.09-0.055-0.141-0.076c0.043-0.055,0.104-0.09,0.153-0.139    C-1.547,3.594-1.592,3.684-1.583,3.76z"/>
			<path d="M-3.108,3.76c0-0.013,0-0.025,0-0.038c0.033-0.004,0.056,0.004,0.052,0.038C-3.073,3.76-3.092,3.76-3.108,3.76z"/>
			<path d="M-1.901,3.748c-0.005-0.061-0.001-0.101-0.013-0.127c0.033-0.019,0.105,0.029,0.115,0.076    C-1.845,3.702-1.845,3.754-1.901,3.748z"/>
			<path d="M-3.171,3.709c0.003-0.022,0.021-0.029,0.05-0.025c0,0.013,0,0.025,0,0.038C-3.147,3.728-3.153,3.713-3.171,3.709z"/>
			<path d="M-3.209,3.684c0.002-0.011-0.005-0.012-0.013-0.013c0-0.009,0-0.017,0-0.025c0.011,0.002,0.012-0.005,0.013-0.013    c0.008,0,0.017,0,0.025,0C-3.187,3.644-3.18,3.645-3.171,3.646c0,0.008,0,0.017,0,0.025c-0.011-0.003-0.013,0.005-0.013,0.013    C-3.192,3.684-3.201,3.684-3.209,3.684z"/>
			<path d="M-3.285,3.595C-3.318,3.599-3.34,3.591-3.336,3.557C-3.303,3.553-3.281,3.562-3.285,3.595z"/>
			<path d="M-3.413,3.468c-0.001,0.035,0.021,0.026,0,0.051C-3.462,3.529-3.462,3.458-3.413,3.468z"/>
			<path d="M-4.658,3.341c-0.044-0.028-0.076,0.01-0.126-0.012c0-0.026,0-0.051,0-0.077C-4.793,3.237-4.833,3.261-4.86,3.239    c0.026-0.045,0.007-0.137,0.013-0.203c0.026-0.007,0.083,0.016,0.089-0.013c0.004-0.04-0.038,0.032-0.038-0.012    c0.031-0.048,0.088-0.038,0.19-0.039c0,0.021,0,0.042,0,0.063c0.054,0.02,0.002-0.065,0.038-0.063    c0.081,0.067-0.015,0.116,0.013,0.292C-4.641,3.22-4.625,3.302-4.658,3.341z"/>
			<path d="M-1.521,3.252C-1.567,3.248-1.59,3.221-1.635,3.214c0.01-0.058,0.078-0.057,0.114-0.089    C-1.482,3.156-1.529,3.208-1.521,3.252z"/>
			<path d="M-4.695,2.884c-0.011-0.006-0.021-0.013-0.038-0.013c0-0.008,0-0.017,0-0.026c0.01,0.003,0.012-0.005,0.013-0.012    c0.008,0,0.017,0,0.025,0C-4.697,2.868-4.675,2.858-4.695,2.884z"/>
			<path d="M-4.771,2.884C-4.81,2.897-4.794,2.855-4.797,2.833c0.013,0,0.025,0,0.038,0C-4.754,2.859-4.768,2.867-4.771,2.884z"/>
			<path d="M-4.467,2.871c-0.013,0-0.025,0-0.038,0C-4.511,2.844-4.496,2.837-4.492,2.82C-4.47,2.824-4.463,2.842-4.467,2.871z"/>
			<path d="M-4.606,2.871c-0.018,0-0.034,0-0.052,0C-4.672,2.827-4.587,2.812-4.606,2.871z"/>
			<path d="M2.519,2.756c-0.037-0.004-0.064-0.02-0.075-0.05c0.033-0.005,0.07,0.075,0.062,0C2.523,2.71,2.517,2.738,2.519,2.756z"/>
			<path d="M-1.443,2.744c-0.012-0.002-0.013-0.013-0.025-0.013c0-0.009,0-0.017,0-0.025c0.021,0,0.042,0,0.062,0    C-1.402,2.735-1.443,2.72-1.443,2.744z"/>
			<path d="M-1.99,2.706c-0.053-0.019-0.188-0.023-0.241,0C-2.26,2.7-2.236,2.644-2.244,2.617C-2.125,2.612-2.004,2.606-1.99,2.706z"/>
			<path d="M-2.028,2.629c0.065-0.019,0.127-0.039,0.179,0C-1.88,2.72-1.99,2.693-2.028,2.629z"/>
			<path d="M-2.257,2.681c-0.024,0.024-0.008-0.102-0.013-0.14C-2.244,2.517-2.262,2.643-2.257,2.681z"/>
			<path d="M-1.545,2.629c-0.04,0.007-0.045-0.022-0.09-0.012c0.01-0.074-0.01-0.199,0.09-0.166C-1.545,2.511-1.545,2.57-1.545,2.629    z"/>
			<path d="M3.345,2.604c-0.017,0.03-0.089,0.005-0.127,0.013C3.233,2.555,3.29,2.612,3.345,2.604z"/>
			<path d="M3.077,2.617C3.06,2.602,3.021,2.606,3.027,2.566C3.05,2.567,3.055,2.55,3.077,2.553C3.077,2.575,3.077,2.596,3.077,2.617    z"/>
			<path d="M-2.231,2.477c-0.01-0.069,0.016-0.103,0.013-0.165c0.049,0.019,0.18,0.023,0.229,0c0.018,0.023,0.003,0.039,0.013,0.089    C-1.96,2.438-1.906,2.44-1.85,2.439C-1.867,2.475-1.916,2.44-1.901,2.528C-2.014,2.55-2.146,2.521-2.231,2.477z"/>
			<path d="M-1.456,2.452C-1.5,2.466-1.494,2.359-1.443,2.389C-1.438,2.419-1.467,2.416-1.456,2.452z"/>
			<path d="M-1.329,2.389c0.003-0.03,0.02-0.048,0.013-0.089c0.008-0.025,0.07,0.003,0.076-0.025    c0.031,0.021,0.021,0.045,0.037,0.101C-1.26,2.366-1.277,2.393-1.329,2.389z"/>
			<path d="M-1.71,2.287c-0.051-0.023-0.028-0.039-0.051-0.089c0.024,0,0.051,0,0.075,0C-1.691,2.257-1.711,2.232-1.71,2.287z"/>
			<path d="M-3.463,2.198c-0.022-0.003,0.137-0.048,0.127,0C-3.365,2.223-3.407,2.184-3.463,2.198z"/>
			<path d="M-3.616,2.21c0.001-0.012,0.015-0.009,0.026-0.013c0.018-0.005-0.006-0.016,0-0.038c0.041,0,0.062-0.021,0.114-0.012    c-0.006,0.037-0.075,0.01-0.09,0.038C-3.465,2.186-3.501,2.215-3.616,2.21z"/>
			<path d="M-4.327,2.16c0.014,0.045-0.078,0.034-0.05-0.012C-4.355,2.146-4.352,2.163-4.327,2.16z"/>
			<path d="M-2.32,2.147c0.009-0.055,0.115-0.012,0.165-0.025C-2.097,2.148-2.296,2.12-2.32,2.147z"/>
			<path d="M-3.59,2.134c-0.032-0.061-0.032,0.001-0.09-0.025c0.004-0.008,0.031-0.049,0-0.051C-3.648,2.032-3.579,2.075-3.59,2.134z    "/>
			<path d="M-4.556,2.083C-4.541,2.095-4.521,2.1-4.492,2.096c0,0.013,0,0.026,0,0.038C-4.533,2.138-4.554,2.119-4.556,2.083z"/>
			<path d="M-2.168,2.096c-0.029,0-0.059,0-0.089,0c-0.03,0.01-0.059-0.018-0.013-0.013C-2.192,2.069-2.068,2.097-2.168,2.096z"/>
			<path d="M-2.587,2.096c-0.039,0.035-0.035-0.031-0.089,0c0-0.017,0-0.034,0-0.051C-2.624,2.04-2.609,2.072-2.587,2.096z"/>
			<path d="M-1.926,1.995C-1.8,1.953-1.676,1.986-1.494,1.97C-1.572,2.015-1.775,1.987-1.926,1.995z"/>
			<path d="M-1.825,1.943c-0.059,0.039-0.196-0.011-0.038,0C-1.846,1.929-1.843,1.938-1.825,1.943z"/>
			<path d="M-2.028,1.131C-2.066,1.144-2.051,1.103-2.054,1.08c0.013,0,0.025,0,0.039,0C-2.01,1.106-2.023,1.114-2.028,1.131z"/>
			<path d="M-1.926,0.521c0-0.034,0-0.068,0-0.102c0.063-0.009,0.074,0.035,0.127,0.039C-1.833,0.488-1.869,0.515-1.926,0.521z"/>
			<path d="M-1.533,0.127c-0.03-0.007-0.062-0.013-0.102-0.038c0.023-0.032,0.062-0.048,0.102-0.063    C-1.526,0.05-1.511,0.088-1.533,0.127z"/>
			<path d="M-1.901-0.177c0.09-0.029,0.233-0.004,0.344-0.013C-1.665-0.154-1.781-0.181-1.901-0.177z"/>
			<path d="M-1.926-0.584c0-0.017,0-0.034,0-0.051c0.031-0.001,0.061-0.001,0.076,0.013C-1.867-0.601-1.895-0.589-1.926-0.584z"/>
			<path d="M-1.533-0.978c-0.018,0-0.034,0-0.05,0c-0.005-0.034,0.026-0.033,0.05-0.038C-1.533-1.003-1.533-0.99-1.533-0.978z"/>
			<path d="M-1.901-1.257c0.059-0.056,0.218-0.011,0.318-0.025C-1.685-1.251-1.782-1.267-1.901-1.257z"/>
			<path d="M-1.901-3.556C-1.913-3.519-1.937-3.687-1.889-3.67C-1.882-3.621-1.911-3.608-1.901-3.556z"/>
			<path d="M-1.367-3.759C-1.396-3.824-1.351-3.86-1.381-3.912c0.157-0.131,0.362-0.213,0.521-0.343    c0.033,0.028,0.059,0.017,0.089,0.026C-0.969-4.072-1.18-3.927-1.367-3.759z"/>
			<path d="M-1.647-4.051c0.019-0.016,0.004-0.027,0-0.063c0.046-0.004,0.019,0.068,0.038,0.089c-0.048,0.027-0.079-0.005-0.139,0    C-1.739-4.08-1.658-4.056-1.647-4.051z"/>
			<path d="M-1.939-4.166C-1.958-4.185-1.96-4.221-1.965-4.255c0.065-0.006,0,0.045,0.051,0.039    C-1.914-4.191-1.948-4.201-1.939-4.166z"/>
			<path d="M-2.715-4.242c-0.016,0-0.033,0-0.05,0c-0.005-0.027,0.009-0.033,0.013-0.05C-2.733-4.282-2.703-4.283-2.715-4.242z"/>
			<path d="M-0.897-4.344c0.004-0.03,0.009-0.059,0.05-0.05C-0.848-4.362-0.865-4.345-0.897-4.344z"/>
			<path d="M-0.593-4.356c-0.018,0-0.034,0-0.051,0c0.033-0.027,0.011-0.05,0.025-0.076C-0.586-4.431-0.593-4.39-0.593-4.356z"/>
			<path d="M-1.469-4.687c-0.05,0.011-0.05-0.06,0-0.05C-1.469-4.72-1.469-4.703-1.469-4.687z"/>
			<path class="secondary" d="M-1.349,4.578c0.314-0.155,0.814-0.341,0.972-0.449c0.01,0.033-0.039,0.07,0,0.089    c0.02-0.042,0.012-0.063,0.025-0.089c0.23-0.084,0.474-0.211,0.68-0.295C0.316,3.862,0.335,3.906,0.322,3.913    c-0.326,0.132-0.625,0.29-0.953,0.419c-0.011-0.037,0.018-0.033,0.013-0.063c-0.047,0.002-0.036,0.045-0.025,0.076    C-0.891,4.436-1.111,4.556-1.354,4.65C-1.36,4.603-1.312,4.604-1.349,4.578z M0.194,3.938c0.028,0.004,0.048-0.003,0.052-0.025    C0.229,3.909,0.221,3.895,0.194,3.9V3.938z M-0.326,4.154c0.018,0.004,0.024,0.019,0.051,0.013V4.128    C-0.305,4.125-0.322,4.132-0.326,4.154z M-0.91,4.421c0.013,0,0.014,0.01,0.025,0.013c0.003-0.01,0.01-0.015,0.025-0.013V4.396    c-0.008-0.001-0.016-0.002-0.013-0.013h-0.025C-0.896,4.4-0.904,4.411-0.91,4.421z M-1.038,4.484    c0.029,0.003,0.048-0.003,0.052-0.025C-1.004,4.455-1.01,4.441-1.038,4.446V4.484z M-1.164,4.548    c0.033,0.003,0.041-0.018,0.037-0.051C-1.16,4.493-1.168,4.515-1.164,4.548z" fill="#FFFFFF"/>
			<path class="secondary" d="M0.348,3.9c0.09-0.019,0.148-0.071,0.241-0.089C0.574,3.776,0.563,3.724,0.626,3.735    c-0.004,0.024-0.049,0.01-0.037,0.05c0.249-0.077,0.462-0.19,0.698-0.279c0.021,0.015-0.021-0.104,0.014-0.064    c0.061,0.004-0.025,0.009,0,0.051c0.102-0.012,0.162-0.066,0.252-0.089c-0.017-0.016-0.017-0.06,0-0.076    C1.589,3.34,1.531,3.373,1.566,3.392C1.699,3.333,1.83,3.274,1.973,3.227C1.945,3.19,1.88,3.227,1.86,3.24    c0.018-0.041,0.005-0.037-0.052-0.025C1.452,3.287,0.945,3.63,0.55,3.722C0.544,3.758,0.537,3.717,0.525,3.76    c-0.029-0.019-0.156,0.025-0.14,0.051C0.37,3.816,0.356,3.822,0.34,3.829C0.367,3.848,0.347,3.86,0.348,3.9z" fill="#FFFFFF"/>
			<path class="secondary" d="M2.989,2.515C2.996,2.54,2.984,2.546,2.978,2.559c0.018,0,0.033,0,0.05,0c0.008,0,0.015,0,0.023,0    c0.007-0.004,0.013-0.008,0.025-0.006V2.56c0.007,0,0.015,0,0.02-0.001c0.005,0,0.046-0.007,0.043-0.005    C3.211,2.539,3.279,2.517,3.35,2.5c0.005-0.001,0.01-0.002,0.017-0.004C3.364,2.46,3.338,2.428,3.345,2.375    C3.299,2.398,3.299,2.464,3.218,2.452C3.221,2.469,3.25,2.462,3.27,2.464C3.214,2.49,3.029,2.52,2.977,2.452    c0.002-0.014,0.022-0.01,0.039-0.013C3.004,2.415,2.92,2.42,2.926,2.452C2.914,2.518,2.977,2.507,2.989,2.515z" fill="#FFFFFF"/>
			<path class="secondary" d="M-1.125-4.218c-0.035,0-0.071,0.001-0.106,0.001C-1.198-4.202-1.151-4.199-1.125-4.218z" fill="#FFFFFF"/>
			<path class="secondary" d="M-4.467,2.973c-0.027,0.189,0.26,0.334,0.419,0.19C-4.01,3.155-3.938,3.18-3.921,3.15    c-0.071-0.037-0.12-0.063-0.152-0.114c0.039,0.018,0.045-0.006,0.101,0C-3.997,3.065-3.969,3.05-3.959,3.074    c0.058-0.005,0.284,0.222,0.318,0.229c0.225,0.131,0.578,0.448,0.876,0.61c-0.001,0.033-0.05,0.019-0.052,0.05    c0.045,0.008,0.032-0.044,0.077-0.038c0.104,0.132,0.394,0.297,0.584,0.458c-0.011,0.022-0.056,0.021-0.025,0.051    c0.05,0.02,0.026-0.033,0.05-0.038c0.041,0.009,0.114,0.123,0.064,0.038c0.052,0.03,0.082,0.092,0.127,0.101    C-1.954,4.533-1.96,4.521-1.965,4.51c0.049,0.021,0.13,0.123,0.166,0.076c-0.088-0.419-0.186-0.899-0.268-1.32    c-0.016-0.088-0.048-0.204-0.025-0.279c0.148,0.054,0.257,0.148,0.42,0.19c0.061-0.04,0.121-0.082,0.178-0.126    C-1.601,3.026-1.52,2.813-1.545,2.708c-0.142-0.035-0.415,0.101-0.416,0.1C-1.973,2.762-2.34,2.776-2.34,2.712    C-2.36,2.713-2.375,2.2-2.396,2.202c0.054-0.016,0.106-0.037,0.153-0.067c0.06,0,0.125,0.004,0.088-0.012    c-0.018,0.005-0.042,0.002-0.068,0c0.01-0.007,0.02-0.015,0.03-0.023c0.001,0,0.003-0.002,0.003-0.002h0.022    c0.062,0,0.037-0.01-0.007-0.015c0.057-0.057,0.082-0.136,0.076-0.214c0.002,0,0.005,0,0.007,0c0.031-0.075,0.002-0.2,0.025-0.279    c-0.015-0.004-0.035,0-0.037-0.015c0.028-0.148,0.017-0.242,0-0.394h0.038c-0.059-0.289-0.052-0.43,0-0.711    c-0.016-0.002-0.035,0.002-0.038-0.012c0.021-0.116,0.016-0.277,0-0.394c0.015-0.002,0.036,0.002,0.038-0.013    c-0.014-0.064-0.014-0.133,0-0.203C-2.082-0.154-2.101-0.15-2.104-0.165c-0.007-0.186,0.035-0.296,0.038-0.47    c-0.016-0.002-0.035,0.002-0.038-0.013c0.022-0.124,0.031-0.245,0-0.381h0.038c-0.062-0.369,0.022-0.607-0.025-1.08    c0.038-0.003,0.078,0.035,0.09-0.013C-2.017-2.154-2.05-2.096-2.065-2.135C-2.09-2.361-2.1-2.546-2.052-2.77    c-0.016-0.001-0.038,0.004-0.04-0.011c0.034-0.114,0.012-0.222,0-0.369c0.015-0.002,0.036,0.002,0.038-0.013    c-0.01-0.142-0.018-0.317-0.05-0.507c0.001-0.03,0.071-0.054,0.038-0.076c-0.003,0.014-0.014,0.02-0.025,0.025    c-0.211-0.138-0.393-0.305-0.603-0.443c0.033-0.003,0.066-0.007,0.1-0.011c0.182,0.117,0.347,0.278,0.518,0.365    c0.004,0.005,0.012,0.01,0.022,0.012C-2.061-3.801-2.069-3.805-2.077-3.81c-0.021-0.019,0.002-0.049,0.011-0.077    c-0.145-0.095-0.36-0.193-0.407-0.279C-2.494-4.164-2.514-4.17-2.534-4.182c0.013-0.001,0.026-0.003,0.04-0.005    c0.029-0.002,0.059-0.005,0.088-0.006c0.123,0.067,0.212,0.168,0.34,0.23c0.013-0.104-0.025-0.157-0.035-0.238    c0.049,0,0.098,0,0.146,0c0.003,0.014,0.009,0.027,0.017,0.035c-0.006-0.025,0.009-0.026,0.019-0.036c0.008,0,0.015,0,0.024,0    c0,0.049-0.01,0.109-0.005,0.176h0.063c0.027,0.047-0.024,0.039-0.012,0.102c0.029-0.004,0.054-0.013,0.062-0.038    c-0.029-0.004-0.029-0.034,0-0.039C-1.789-3.965-1.73-3.944-1.724-3.988C-1.802-3.933-1.75-4.103-1.825-4.051    C-1.823-4.098-1.891-4.1-1.838-4.128c-0.027-0.01-0.051-0.025-0.051-0.063c0.021-0.004,0.033,0.019,0.039,0    c-0.006-0.001-0.01-0.006-0.013-0.011c0.007,0,0.015,0,0.02-0.001C-1.8-4.204-1.758-4.206-1.717-4.207    c0.002,0.001,0.004,0.002,0.007,0.003c0.001-0.001,0.001-0.002,0.001-0.003c0.015,0,0.029,0,0.044,0    c0.02,0.014,0.037,0.034,0.044,0.016c-0.008,0-0.016-0.001-0.014-0.012c0.006,0.002,0.009,0,0.012-0.005    c0.119-0.003,0.236-0.005,0.356-0.007C-1.302-4.19-1.355-4.218-1.381-4.203C-1.326-4.2-1.393-4.129-1.342-4.166    c0.016,0.07-0.009,0.129-0.025,0.077c0,0.025-0.035,0.016-0.026,0.05c0.116-0.027,0.238-0.104,0.274-0.179    c0.072-0.001,0.144-0.002,0.215-0.003c-0.151,0.11-0.334,0.19-0.477,0.309c0.03,0.052-0.016,0.088,0.014,0.153    c0.184-0.166,0.392-0.308,0.587-0.462c0.048,0,0.096,0,0.144,0c-0.265,0.166-0.483,0.38-0.745,0.551    c-0.012,0.327-0.002,0.608-0.013,0.864c-0.01,0.242,0.001,0.374,0.026,0.597c-0.017,0-0.018,0.016-0.039,0.012    C-1.4-2.026-1.382-1.891-1.382-1.625C-1.4-1.623-1.428-1.629-1.432-1.612c0.072,0.028,0.017,0.131,0.024,0.19    c0.004,0.01,0.037,0.022,0.041,0.038c0.012,0.06-0.03,0.134,0,0.204c-0.051,0.027-0.047,0.078-0.026,0.127    c-0.017,0.031-0.038-0.022-0.05,0.012C-1.39-1.04-1.385-0.99-1.418-0.965c0.015,0.002,0.035-0.002,0.037,0.013    c-0.023,0.161,0.045,0.376-0.062,0.458c0.018,0.002,0.047-0.005,0.05,0.012c0.019,0.17,0.02,0.296,0,0.483    c-0.018,0.004-0.021,0.015-0.037,0c0.071,0.09,0.066,0.319,0.037,0.482c-0.034,0.01-0.024-0.025-0.05-0.025    c-0.01,0.052,0.061,0.024,0.05,0.076c-0.017,0.031-0.038-0.022-0.05,0.013c0.137,0.118,0.034,0.32,0.089,0.445    c-0.085,0.021,0.02,0.087-0.089,0.089c-0.01,0.071,0.053-0.008,0.05,0.051c0.004,0.034-0.071-0.012-0.05,0.038    c0.021,0.008,0.074-0.015,0.076,0.013c-0.008,0.16-0.003,0.22,0,0.381c-0.016,0.002-0.036-0.002-0.039,0.012    c0.082,0.03-0.06,0.059-0.012,0.089c0.004-0.03,0.034-0.03,0.037,0c-0.021,0.063-0.027,0.147,0.026,0.204    c0.006-0.001,0.011-0.001,0.017-0.002C-1.354,1.88-1.37,1.899-1.383,1.92c-0.057,0.098-0.03,0.253,0.079,0.304    c0.05,0.023,0.1,0.042,0.15,0.053c-0.023,0.058-0.01,0.135,0.014,0.2c-0.062-0.011-0.156-0.011-0.215,0.038    C-1.314,2.589-1.293,2.61-1.33,2.681C-1.241,2.67-1,2.626-0.976,2.604c0.004,0.063,0.019-0.143,0-0.215    c-0.03-0.005-0.027,0.023-0.063,0.012c-0.007-0.042-0.024-0.073-0.037-0.11c0.062,0.006,0.126,0.001,0.19-0.018    c0,0,0,0.001,0,0.002c-0.088,0.093,0.088,0.309,0,0.394c0.002,0,0.004,0.002,0.006,0.003c-0.018,0.024-0.029,0.05-0.037,0.077    c-0.002-0.001-0.005-0.003-0.008-0.004C-0.929,2.76-0.94,2.771-0.962,2.77c-0.016,0.037,0.023,0.019,0.036,0.027    c0,0.004-0.001,0.008-0.001,0.011c-0.108-0.009-0.282,0.071-0.339-0.012c0.002-0.04-0.209-0.075-0.19,0    c0.001-0.032,0.042-0.003,0.038,0.012c-0.006,0.02-0.041,0.011-0.025,0.051c-0.002,0.039,0.026,0.05,0.037,0.076    c-0.036,0.494-0.15,1.116-0.215,1.664c0.045,0.068,0.131,0.013,0.139,0.05c0.035-0.021,0.076-0.042,0.12-0.064    c-0.016,0.027-0.022,0.055-0.005,0.09c-0.075,0.01-0.11,0.06-0.19,0.063C-1.572,4.705-1.52,4.684-1.57,4.687    C-1.611,4.776-1.779,4.703-1.85,4.7c0.006-0.019,0.018-0.032,0.024-0.051c-0.04-0.011-0.018,0.042-0.05,0.038    C-1.941,4.6-2.125,4.564-2.117,4.446c-0.03-0.005-0.027,0.023-0.063,0.013c-0.164-0.141-0.345-0.265-0.521-0.394    c-0.015-0.04,0.02-0.03,0.025-0.05c-0.103,0.05-0.234-0.063-0.228-0.166c-0.139,0.035-0.244-0.143-0.369-0.203    c0.006-0.024,0.059-0.001,0.038-0.051c-0.05-0.02-0.025,0.034-0.05,0.039c-0.075-0.051-0.18-0.103-0.19-0.178    c0.001,0.009-0.005,0.025-0.014,0.025C-3.492,3.457-3.475,3.453-3.476,3.43C-3.523,3.417-3.518,3.457-3.54,3.468    C-3.59,3.4-3.702,3.394-3.717,3.29c0.017,0,0.011,0.022,0.024,0.025c0.003-0.053-0.036-0.057-0.076-0.038    C-3.867,3.226-3.9,3.172-4.01,3.176C-4.102,3.179-4.17,3.26-4.251,3.252c-0.105-0.01-0.142-0.109-0.229-0.165    C-4.485,3.052-4.534,2.97-4.467,2.973z M-2.015,1.08h-0.039c0.003,0.023-0.013,0.063,0.025,0.051    C-2.023,1.114-2.01,1.106-2.015,1.08z M-1.521-0.05c0-0.046-0.06-0.034-0.037-0.102h-0.344v0.114    C-1.781,0.046-1.604,0.106-1.521-0.05z M-1.533,0.026c-0.039,0.016-0.078,0.031-0.102,0.063c0.04,0.025,0.071,0.031,0.102,0.038    C-1.511,0.088-1.526,0.05-1.533,0.026z M-1.545-0.723c-0.074,0.035-0.162,0.058-0.216,0.114C-1.68-0.58-1.617-0.533-1.533-0.507    C-1.541-0.576-1.516-0.677-1.545-0.723z M-1.533-0.787v-0.127c-0.132-0.117-0.272,0.043-0.393,0.089v0.127    C-1.799-0.571-1.652-0.726-1.533-0.787z M-1.926-0.635v0.051c0.031-0.005,0.059-0.017,0.076-0.038    C-1.865-0.636-1.895-0.636-1.926-0.635z M-1.901-1.207C-1.932-1.144-1.855-1.11-1.799-1.08c0.101,0.057,0.188,0.081,0.266,0.026    v-0.153C-1.682-1.206-1.76-1.198-1.901-1.207z M-1.583-1.282c-0.101,0.014-0.26-0.03-0.318,0.025    C-1.782-1.267-1.685-1.251-1.583-1.282z M-1.583-0.978h0.05v-0.038C-1.557-1.01-1.588-1.011-1.583-0.978z M-1.926-1.092v0.203    c0.105-0.013,0.181-0.055,0.24-0.114C-1.786-1.013-1.819-1.089-1.926-1.092z M-1.545-1.803c-0.068,0.017-0.189,0.079-0.268,0.127    c0.094,0.041,0.172,0.099,0.279,0.127C-1.541-1.629-1.516-1.744-1.545-1.803z M-1.533-1.994c-0.141-0.051-0.256,0.106-0.393,0.14    v0.114c0.129,0.081,0.277-0.075,0.393-0.127V-1.994z M-1.901-0.253h0.344v-0.229c-0.12-0.04-0.272-0.187-0.368-0.038    C-1.932-0.469-1.88-0.363-1.901-0.253z M-1.901-0.177c0.12-0.004,0.236,0.023,0.344-0.013C-1.668-0.182-1.812-0.207-1.901-0.177z     M-1.533-2.248c-0.127,0.021-0.176,0.02-0.355,0.013C-1.803-2.165-1.478-1.907-1.533-2.248z M-1.875-2.337    c0.014-0.002,0.036,0.002,0.037-0.013C-1.87-2.348-1.903-2.347-1.901-2.311c0.103,0.018,0.255,0.038,0.344-0.013    c-0.036-0.017-0.248-0.055-0.268,0C-1.844-2.326-1.872-2.32-1.875-2.337z M-1.545-2.857C-1.625-2.832-1.77-2.771-1.85-2.705    c0.101,0.039,0.182,0.098,0.292,0.126C-1.543-2.652-1.51-2.775-1.545-2.857z M-1.545-3.048c-0.113,0.074-0.252,0.122-0.369,0.191    v0.114c0.152-0.035,0.256-0.117,0.381-0.178C-1.541-2.959-1.517-3.03-1.545-3.048z M-1.889-2.921    c0.106-0.046,0.212-0.093,0.306-0.153C-1.688-3.13-1.807-3.173-1.914-3.226C-1.898-3.131-1.945-2.973-1.889-2.921z M-1.609-4.026    c-0.02-0.021,0.008-0.093-0.038-0.089c0.004,0.037,0.019,0.047,0,0.063C-1.658-4.056-1.739-4.08-1.748-4.026    C-1.688-4.031-1.657-3.999-1.609-4.026z M-1.787-3.823c-0.348,0.281-0.347,0.148,0.178-0.089v-0.076    C-1.68-3.967-1.734-3.927-1.798-3.899C-1.792-3.877-1.815-3.825-1.787-3.823z M-1.812-3.696c0.064,0.051,0.147,0.082,0.229,0.114    C-1.588-3.68-1.604-3.766-1.596-3.874C-1.674-3.82-1.82-3.836-1.812-3.696z M-1.914-3.302c0.057,0.08,0.275,0.159,0.381,0.19    v-0.394c-0.09-0.054-0.19-0.097-0.292-0.139c-0.001,0.108-0.03,0.19-0.024,0.304C-1.858-3.315-1.926-3.349-1.914-3.302z     M-1.901-3.556c-0.01-0.053,0.02-0.065,0.013-0.115C-1.937-3.687-1.913-3.519-1.901-3.556z M-1.889-2.414    c0.111,0.005,0.24-0.01,0.331,0.014v-0.141C-1.69-2.572-1.765-2.664-1.914-2.68C-1.932-2.565-1.887-2.512-1.889-2.414z     M-1.901-1.905c0.085-0.055,0.213-0.067,0.267-0.152c-0.094-0.028-0.171-0.075-0.254-0.114C-1.923-2.124-1.958-1.961-1.901-1.905z     M-1.939,0.166c0.1,0.01,0.117-0.061,0.203-0.063c-0.041-0.054-0.147-0.104-0.203-0.101C-1.939,0.053-1.907,0.121-1.939,0.166z     M-1.939,0.242c0.001,0.042,0.021,0.063,0.014,0.114c0.131,0.133,0.279,0.053,0.405-0.038V0.204    c-0.056-0.037-0.104-0.082-0.177-0.102C-1.775,0.151-1.864,0.19-1.939,0.242z M-1.901,0.864c0.135,0.006,0.233-0.014,0.344,0    C-1.542,0.783-1.542,0.685-1.52,0.61c-0.065-0.056-0.153-0.091-0.24-0.127c-0.049,0.036-0.11,0.06-0.165,0.089    C-1.938,0.69-1.882,0.739-1.901,0.864z M-1.799,0.458C-1.852,0.454-1.862,0.41-1.926,0.419v0.102    C-1.869,0.515-1.833,0.488-1.799,0.458z M-1.521,0.546V0.381C-1.596,0.399-1.661,0.425-1.71,0.47    C-1.644,0.492-1.6,0.537-1.521,0.546z M-1.939,1.055c0.123,0.122,0.305,0.106,0.419-0.013c0.017-0.065-0.021-0.08-0.024-0.126    C-1.71,0.928-1.963,0.853-1.939,1.055z M-1.533,1.512C-1.57,1.525-1.604,1.543-1.647,1.55c0.02,0.049,0.016,0.046,0.127,0.076    C-1.528,1.592-1.504,1.525-1.533,1.512z M-1.914,1.246c0.042-0.018,0.082-0.038,0.127-0.051c-0.023-0.048-0.08-0.063-0.139-0.076    C-1.919,1.157-1.943,1.227-1.914,1.246z M-1.926,1.652C-1.856,1.63-1.78,1.614-1.748,1.55C-1.81,1.53-1.857,1.498-1.926,1.487    V1.652z M-1.521,1.449v-0.14c-0.082-0.033-0.147-0.081-0.228-0.115c-0.061,0.033-0.11,0.077-0.178,0.102v0.127    C-1.812,1.527-1.644,1.569-1.521,1.449z M-1.521,1.246V1.093c-0.068,0.02-0.12,0.057-0.177,0.089    C-1.635,1.199-1.604,1.249-1.521,1.246z M-1.825,1.943c-0.018-0.005-0.021-0.015-0.038,0C-2.021,1.933-1.884,1.982-1.825,1.943z     M-1.521,1.868V1.664c-0.068-0.015-0.108-0.061-0.177-0.076c-0.08,0.034-0.15,0.079-0.229,0.114c0,0.059-0.006,0.124,0.012,0.165    C-1.818,1.864-1.672,1.867-1.521,1.868z M-1.686,2.198h-0.075c0.022,0.05,0,0.066,0.051,0.089    C-1.711,2.232-1.691,2.257-1.686,2.198z M-1.521,1.957c-0.034-0.054-0.157,0.005-0.267-0.014c0.04,0.027,0.148,0.014,0.191,0    C-1.566,1.943-1.559,1.966-1.521,1.957z M-1.482,2.134c-0.039-0.009-0.024-0.009-0.062,0C-1.556,2.178-1.533,2.19-1.507,2.198    C-1.502,2.173-1.472,2.175-1.482,2.134z M-1.736,4.167c-0.002,0.032-0.018,0.049-0.051,0.05C-1.78,4.359-1.765,4.492-1.71,4.585    C-1.7,4.452-1.58,4.205-1.736,4.167z M-1.647,4.078C-1.65,4.108-1.69,4.101-1.686,4.141C-1.66,4.138-1.66,4.158-1.647,4.167    C-1.635,4.156-1.619,4.085-1.647,4.078z M-1.57,3.545c-0.049,0.049-0.11,0.084-0.153,0.139c0.051,0.021,0.085,0.06,0.141,0.076    C-1.592,3.684-1.547,3.594-1.57,3.545z M-1.635,3.214c0.045,0.007,0.067,0.034,0.114,0.038c-0.009-0.044,0.038-0.096,0-0.127    C-1.557,3.157-1.625,3.156-1.635,3.214z M-2.002,3.087c0.015,0.095,0.008,0.211,0.062,0.267c0.061-0.059,0.152-0.085,0.203-0.153    C-1.834,3.172-1.895,3.106-2.002,3.087z M-1.952,3.417C-1.941,3.55-1.85,3.604-1.748,3.646c0.068-0.058,0.136-0.119,0.203-0.178    C-1.551,3.399-1.523,3.364-1.533,3.29c-0.078,0.003-0.095-0.057-0.164-0.063C-1.777,3.296-1.884,3.337-1.952,3.417z M-1.799,3.697    c-0.01-0.047-0.082-0.095-0.115-0.076c0.012,0.026,0.008,0.066,0.013,0.127C-1.845,3.754-1.845,3.702-1.799,3.697z M-1.875,3.798    C-1.88,3.96-1.795,4.03-1.697,4.09c0.056-0.066,0.107-0.139,0.102-0.267C-1.645,3.78-1.688,3.728-1.76,3.709    C-1.797,3.741-1.836,3.77-1.875,3.798z M-1.787,4.179c-0.009-0.034,0.026-0.024,0.039-0.038C-1.77,4.099-1.786,4.052-1.838,4.04    C-1.814,4.08-1.838,4.167-1.787,4.179z M-2.308,4.344c0.034-0.001,0.025,0.021,0.051,0C-2.247,4.295-2.318,4.295-2.308,4.344z     M-2.372,4.23h-0.05C-2.433,4.279-2.361,4.279-2.372,4.23z M-2.436,4.23V4.179C-2.484,4.169-2.484,4.24-2.436,4.23z M-2.65,4.09    c0.035-0.001,0.024,0.021,0.051,0C-2.59,4.042-2.66,4.042-2.65,4.09z M-2.955,3.849c0.022-0.022-0.003-0.04-0.025-0.051    C-3.001,3.817-2.995,3.855-2.955,3.849z M-3.057,3.785c0.025,0,0.016,0.035,0.051,0.026V3.76    C-3.035,3.757-3.054,3.763-3.057,3.785z M-3.108,3.76h0.052c0.004-0.034-0.019-0.042-0.052-0.038V3.76z M-3.171,3.709    c0.018,0.004,0.023,0.018,0.05,0.013V3.684C-3.15,3.681-3.168,3.687-3.171,3.709z M-3.222,3.671c0.008,0,0.015,0.001,0.013,0.013    h0.025c0-0.008,0.002-0.016,0.013-0.013V3.646C-3.18,3.645-3.187,3.644-3.184,3.633h-0.025C-3.21,3.641-3.211,3.648-3.222,3.646    V3.671z M-3.285,3.595c0.004-0.033-0.018-0.042-0.051-0.038C-3.34,3.591-3.318,3.599-3.285,3.595z M-3.413,3.519    c0.021-0.025-0.001-0.017,0-0.051C-3.462,3.458-3.462,3.529-3.413,3.519z" fill="#FFFFFF"/>
			<path class="secondary" d="M2.936,2.558C2.926,2.553,2.916,2.551,2.9,2.553c-0.017-0.05,0.047-0.03,0.013-0.063    C2.881,2.491,2.871,2.521,2.87,2.555C2.892,2.555,2.914,2.556,2.936,2.558z" fill="#FFFFFF"/>
			<path class="secondary" d="M-4.327,2.744C-4.355,2.738-4.333,2.682-4.34,2.655c0.043-0.013,0.02,0.039,0.025,0.063    c0.066-0.076,0.099-0.189,0.152-0.28C-4.26,2.456-4.258,2.572-4.301,2.643C-4.32,2.637-4.333,2.528-4.288,2.541    C-4.312,2.486-4.344,2.486-4.34,2.389c0.084-0.01,0.182-0.02,0.204,0.063c0.017-0.004,0.019-0.022,0.037-0.025    C-4.118,2.364-4.197,2.36-4.236,2.316C-4.29,2.33-4.346,2.338-4.404,2.344c0.003,0.106,0.008,0.213-0.012,0.298    C-4.428,2.767-4.428,2.607-4.429,2.54c-0.002-0.067,0-0.142,0-0.195c-0.121,0.01-0.246,0.006-0.369-0.001    c0.001,0.128,0.001,0.283,0.001,0.407c0.005-0.047,0.062-0.003,0.038,0.044c0.259-0.008,0.921-0.036,0.94-0.051    C-3.901,2.738-4.209,2.747-4.327,2.744z" fill="#FFFFFF"/>
			<path d="M-3.896,2.909c-0.019,0.056-0.058,0.004-0.077-0.012c-0.015,0.005-0.024,0.016-0.024,0.038    c-0.028,0.007-0.069-0.064-0.076,0c-0.075-0.04-0.354,0.049-0.38-0.025c-0.045,0.053-0.158,0.037-0.256,0.038    c0-0.017,0-0.034,0-0.05c0.065,0.003,0.094,0.015,0.166,0c-0.016,0.016-0.005,0.02,0,0.038c0.022-0.059,0.207-0.064,0.279-0.013    c0.018-0.004,0.001-0.022-0.012-0.025C-4.141,2.897-4.031,2.864-3.896,2.909z"/>
			<path d="M-1.507,2.198c-0.026-0.007-0.049-0.02-0.038-0.063c0.038-0.009,0.023-0.009,0.062,0    C-1.472,2.175-1.502,2.173-1.507,2.198z"/>
			<path d="M-3.68,2.186c0.017-0.017,0.018-0.047-0.013-0.051c0.021-0.042,0.04,0.04,0.063,0C-3.617,2.13-3.639,2.199-3.68,2.186z"/>
			<path d="M-1.724-3.988C-1.73-3.944-1.789-3.965-1.787-4.001c-0.029,0.004-0.029,0.035,0,0.039C-1.796-3.938-1.82-3.928-1.85-3.924    c-0.013-0.063,0.039-0.054,0.012-0.102c-0.021,0-0.042,0-0.063,0c-0.006-0.086,0.011-0.16,0-0.216    c0.047-0.014,0.024,0.042,0.052,0.05c-0.006,0.019-0.018-0.004-0.039,0c0,0.039,0.023,0.054,0.051,0.063    C-1.891-4.1-1.823-4.098-1.825-4.051C-1.75-4.103-1.802-3.933-1.724-3.988z"/>
			<path d="M-1.381-4.204c0.03-0.018,0.094,0.021,0.128-0.025c0.034,0.027,0.111,0.038,0.14,0c-0.029,0.077-0.159,0.162-0.28,0.19    c-0.009-0.035,0.026-0.025,0.026-0.05c0.017,0.053,0.041-0.006,0.025-0.077C-1.393-4.129-1.326-4.2-1.381-4.204z"/>
			<path d="M-1.621-4.191c-0.01,0.033-0.063-0.062-0.089-0.012c-0.04-0.013,0.014-0.034,0.013-0.051    c0.024,0.009,0.029,0.039,0.05,0.051c0.026-0.003-0.018-0.034,0.013-0.051c0.021-0.009,0.021,0.06,0,0.051    C-1.637-4.193-1.629-4.192-1.621-4.191z"/>
			<path d="M2.9,1.029c-0.025-0.06,0.03-0.104,0-0.165c0.089-0.026,0.092-0.136,0.152-0.191C3.036,0.614,3.002,0.584,3.04,0.534    c0.073-0.01,0.099,0.028,0.101,0.089C3.116,0.598,3.094,0.528,3.04,0.572c0.064,0.115,0.133,0.222,0.23,0.305    c-0.043,0.053,0.013,0.063,0,0.152C3.152,1.06,3.019,1.055,2.9,1.029z"/>
			<rect x="-5.077" y="2.045" class="secondary" width="10.154" height="0.286" fill="#FFFFFF"/>
			<path class="secondary" d="M3.27,1.029c0,0,0.259,0.914,0.075,1.346c-0.14,0.331-0.378,0.072-0.419,0.013    C2.748,2.134,2.887,1.144,2.9,1.029c0,0-0.076,1.194,0.063,1.321C3.03,2.411,3.192,2.655,3.307,2.325    C3.46,1.882,3.27,1.08,3.27,1.029z" fill="#FFFFFF"/>
			<g>
				<path class="secondary" d="M-1.443,3.062V2.744l4.508-0.051l1.398,0.026l0.113-0.115L4.64,2.579l0.101,0.14l0.141,0.025V2.82     L4.78,2.845L4.487,3.227l-5.614,0.102l0.014-0.089l-0.164-0.241L-1.443,3.062z M4.068,2.82L4.336,3.1l0.253-0.267L4.068,2.82z      M3.879,2.845l-0.255,0.28L4.183,3.1L3.879,2.845z M3.116,2.884L3.345,3.1h0.14l0.217-0.254L3.434,2.808L3.396,2.897L3.116,2.884     z M2.799,2.845L2.532,3.176l0.686-0.013L2.964,2.871L2.799,2.845z M1.986,2.858L2.24,3.125l0.19-0.013l0.217-0.279L1.986,2.858z      M1.719,2.858L1.516,3.15h0.636L1.909,2.858H1.719z M0.932,2.858l0.242,0.267h0.215l0.152-0.241L0.932,2.858z M-0.174,2.897     L0.081,3.15l0.228-0.012l0.165-0.254L-0.174,2.897z M-0.479,2.897l-0.229,0.304l0.713-0.013l-0.268-0.292h-0.216     C-0.479,2.896-0.479,2.897-0.479,2.897z M-1.189,3.023l0.127,0.165l0.254-0.026l0.203-0.279l-0.33,0.013L-1.189,3.023z" fill="#FFFFFF"/>
			</g>
			<path class="secondary" d="M4.576,2.604l-1.27-0.089C3.307,2.515,4.31,2.528,4.576,2.604z" fill="#FFFFFF"/>
			<path class="secondary" d="M2.989,2.515l-3.913,0.229l0.076-0.038C-0.848,2.706,3.027,2.414,2.989,2.515z" fill="#FFFFFF"/>
			<polygon class="secondary" points="-1.494,3.049 -2.168,3.036 -2.587,3.1 -2.715,3.265 -3.298,3.277 -3.616,3.201 -3.692,3.315     -4.073,3.1 -4.479,3.087 -4.848,3.036 -4.797,2.833 -3.311,2.782 -2.639,2.782 -2.333,2.731 -1.443,2.744   " fill="#FFFFFF"/>
			<rect x="-2.841" y="-4.471" class="secondary" width="2.452" height="0.349" fill="#FFFFFF"/>
		</g>
	</g></svg>