<?xml version="1.0" standalone="no"?>
<svg xmlns="http://www.w3.org/2000/svg" viewBox="-8.64 -8.64 17.28 17.28" color="#212121" width="75" height="75"><g transform="matrix(1 0 0 -1 0 0)">
		<path xmlns="http://www.w3.org/2000/svg" fill="currentColor" d="M0-8.64c-4.77,0-8.64,3.87-8.64,8.64c0,4.77,3.87,8.64,8.64,8.64c4.77,0,8.64-3.87,8.64-8.64  C8.64-4.77,4.77-8.64,0-8.64z"/>
		<path xmlns="http://www.w3.org/2000/svg" fill="#FFFFFF" d="M6.97-1.6L6.97-1.6C6.94-1.63,6.93-1.63,6.91-1.63h-0.1c0,0.01,0,0.02,0,0.03l0.06,0.06  c0.04,0.03,0.06,0.08,0.07,0.13c0,0.05-0.04,0.09-0.09,0.09c0,0,0,0,0,0c-0.03,0-0.06-0.01-0.08-0.03L6.74-1.29l0,0l0,0l0.07,0.03  l0.01,0.53C6.81-0.64,6.8-0.54,6.78-0.44c-0.02,0.11-0.06,0.21-0.11,0.3l-0.55,1.3C6.06,1.31,5.94,1.41,5.78,1.44  c-0.43,0.05-1.01,0.11-1.6,0.14C4.04,1.62,3.9,1.64,3.76,1.66c-0.17,0.03-0.34,0.03-0.51,0C3.2,1.64,3.16,1.59,3.17,1.54L3.13,0.85  c0.02-0.04,0.02-0.08,0.01-0.12c-0.03-0.03-0.03-0.07,0-0.1C3.1,0.61,3.11,0.56,3.13,0.49C3.12,0.49,3.11,0.48,3.11,0.46  C3.09,0.27,3.1,0.13,3.09-0.09c-0.01-0.13,0-0.86,0.02-0.99c0.01-0.07,0.05-0.23,0.14-0.21l0-0.02l0-0.01c0-0.01,0-0.02,0.01-0.02  l0,0l0,0c0,0,0.01,0,0.02,0h0l0.02,0H3.02V3.1h-9.99v-4.46h0.01v-0.37h0c0-0.14,0-0.29,0-0.44h0.23V-2h0.98  c-0.02-0.07-0.03-0.15-0.03-0.23c0-0.48,0.39-0.87,0.87-0.87c0.39,0,0.73,0.26,0.84,0.64h0.68l0,0.01c0.13-0.47,0.6-0.74,1.07-0.62  c0.38,0.1,0.65,0.45,0.65,0.84c0,0.08-0.01,0.16-0.03,0.23h2.82v0C1.2-2.08,1.33-2.08,1.42-2h0.31l0.04-0.27  C1.8-2.17,1.77-2.2,1.77-2.33c0-0.13,0.11-0.24,0.24-0.24c0.11,0,0.2,0.07,0.23,0.18h0.05C2.28-2.38,2.28-2.36,2.28-2.33  c0,0.13,0,0.13,0,0c0-0.13,0.11-0.24,0.24-0.24s0.24,0.11,0.24,0.24c0,0.02,0,0.04-0.01,0.06L2.79-2h0.38v0h0.01  c0.17-0.13-0.07-0.41,0.04-0.41c0.15-0.01,0.31-0.03,0.46-0.06l0,0.02C3.8-2.92,4.28-3.2,4.74-3.08C5-3.01,5.22-2.83,5.32-2.58  l0.27,0.06l0.01-0.01v0l0,0c0.01,0,0.02,0,0.03,0H6.4l0,0h0.31c0.06,0,0.1,0.09,0.11,0.16c0.01,0.1,0.01,0.2-0.01,0.3  c-0.01,0-0.02,0.01-0.02,0.02l0,0L6.79-2.05C6.78-2.04,6.78-2.02,6.78-2.01v0c0.01,0.04,0,0.08-0.01,0.12  c0.04,0.03,0.05,0.11,0.04,0.21h0.12L6.97-1.6z"/>
	</g></svg>