<?xml version="1.0" standalone="no"?>
<svg xmlns="http://www.w3.org/2000/svg" viewBox="-6.37 -6.37 12.74 12.74" color="#212121" width="75" height="75"><g transform="matrix(1 0 0 -1 0 0)">
		<g xmlns="http://www.w3.org/2000/svg">
			<path class="primary" fill="currentColor" d="M0-6.245c-3.444,0-6.245,2.802-6.245,6.246c0,3.443,2.802,6.244,6.245,6.244s6.245-2.801,6.245-6.244    C6.245-3.443,3.444-6.245,0-6.245z"/>
			<path class="secondary" d="M0,6.12c3.38,0,6.12-2.74,6.12-6.119C6.12-3.38,3.38-6.12,0-6.12s-6.12,2.74-6.12,6.121    C-6.12,3.38-3.38,6.12,0,6.12 M0,6.37c-3.513,0-6.37-2.857-6.37-6.369C-6.37-3.512-3.513-6.37,0-6.37s6.37,2.858,6.37,6.371    C6.37,3.513,3.513,6.37,0,6.37L0,6.37z" fill="#FFFFFF"/>
		</g>
		<g xmlns="http://www.w3.org/2000/svg">
			<path class="secondary" d="M5.742-0.411c0,0.039-0.077,0.062-0.077,0.062L5.619,0.067c0,0-0.892,3.389-1.073,3.512    c-0.182,0.123-1.331,0.116-1.505,0C2.867,3.463,2.315,2.066,2.315,2.066s-0.086,0.016-0.16,0.016    c-0.073,0-0.109-0.083-0.109-0.083v-0.38L1.474,1.627c0,0-0.045,0.062-0.107,0.062S1.26,1.612,1.26,1.612H0.733    c0,0-0.034,0.069-0.092,0.069S0.54,1.603,0.54,1.603L0.198,1.619v0.293H0.077V1.681c0,0-0.096,0.008-0.146-0.008    s-0.062-0.062-0.062-0.062h-0.085v0.077h0.039l-0.008,0.37h-0.108v-0.37h0.022V1.603H-0.32L-1.243,0.54l-0.143-0.005v0.07h-0.139    c0,0,0.021-0.377,0-0.378c-0.021-0.003-2.284-0.274-2.284-0.274s-0.101,0.374-0.332,0.37C-4.372,0.319-4.489-0.084-4.57-0.132    c-0.015-0.009-0.069-0.021-0.125,0.008C-4.76-0.092-5.11,0.215-5.11,0.254c0,0.105,0,0.277,0,0.277h-0.243v0.066H-5.43V0.006    c0,0-0.054,0.004-0.054-0.054s0.026-0.093,0.026-0.093v-0.25c0,0-0.051,0-0.051-0.059c0-0.058,0.039-0.089,0.039-0.089    s0-0.351,0.008-0.467c0.001-0.003,0.001-0.007,0.002-0.011c-0.174-0.2-0.281-0.463-0.281-0.752c0-0.632,0.511-1.143,1.142-1.143    S-3.457-2.4-3.457-1.769c0,0.01,0,0.021,0,0.031l5.68-0.047h0.193c0.008-0.624,0.517-1.127,1.143-1.127    c0.575,0,1.053,0.427,1.131,0.981C4.824-1.924,4.917-1.915,4.943-1.9c0.15,0.081,0.698,0.544,0.722,0.641    c0.023,0.097,0,0.779,0,0.779S5.742-0.449,5.742-0.411z M-4.837-0.651c-0.178-0.038-0.34-0.117-0.476-0.226v0.343h0.536    L-4.837-0.651z M-5.312-0.368v0.224l0.582-0.224H-5.312z M-5.197-0.063L-5,0.01l0.347-0.324L-5.197-0.063z M5.379,0.271    L4.396,0.407l0.57,0.71H5.14L5.379,0.271z M4.341,3.489c0,0,0.086,0.04,0.139-0.029c0.055-0.07,0.529-1.884,0.529-1.884H4.955    v-0.3L4.341,0.508V3.489z M3.142,3.487c0.1,0.061,0.926,0.019,1.019,0.022c0.093,0.004,0.015-3.16,0.015-3.16L3.76,0.399    c0,0,0.027,0.027,0.003,0.051C3.739,0.473,3.697,0.445,3.697,0.445S2.285,1.43,2.285,1.534C2.285,1.639,3.041,3.425,3.142,3.487z     M4.175-0.349H3.717v0.62c0,0,0.436-0.034,0.458-0.069C4.198,0.168,4.175-0.349,4.175-0.349z M3.48,0.415H3.21L2.718,1.01    L3.48,0.415z M2.05,1.48h0.084l0.021-0.408L1.944,1.283L2.05,1.48z M1.973,1.48L1.884,1.317L1.698,1.48H1.973z M-0.786-0.333    l-0.225,0.517l0.193,0.008v-0.285h0.061v0.702h-0.061V0.307h-0.193v0.248l0.765,0.926h1.845l0.57-0.549l0.093-1.265    C2.262-0.333-0.786-0.333-0.786-0.333z M2.285,1.36l0.79-0.945H2.339L2.285,1.36z M2.575,0.257l0.105-0.59H2.419l-0.034,0.59    H2.575z M2.8-0.915C2.646-1.052,2.529-1.229,2.467-1.43H2.416v0.949h0.265l0.094-0.32h0.073L2.8-0.915z M2.756,0.257h0.166    l0.093-0.59h-0.11L2.756,0.257z M2.962-0.794l-0.04,0.333h0.115l0.052-0.267C3.046-0.746,3.003-0.769,2.962-0.794z M3.075,0.271    h0.483v-0.604H3.23L3.075,0.271z M3.559-0.627c-0.104,0-0.203-0.014-0.298-0.039v0.186h0.726l-0.21-0.167    C3.707-0.634,3.634-0.627,3.559-0.627z M4.496-0.588H4.435v-0.093h0.029v-0.394C4.33-0.898,4.146-0.763,3.932-0.689L4.205-0.46    h0.291V-0.588z M5.112-1.691l0.144,0.354h0.212L5.112-1.691z M5.491-1.163H5.336l0.155,0.309V-1.163z M4.922-1.769H4.7    c0,0.111-0.017,0.22-0.046,0.322v0.754H4.7v0.116H4.654v0.096h0.837L4.922-1.769z M4.341-0.333c0,0-0.023,0.475,0,0.504    c0.023,0.031,0.923-0.13,0.923-0.13s0.131-0.02,0.182-0.055c0.05-0.034,0.069-0.335,0.069-0.335L4.341-0.333z" fill="#FFFFFF"/>
		</g>
	</g></svg>