<?xml version="1.0" standalone="no"?>
<svg xmlns="http://www.w3.org/2000/svg" viewBox="-6.371 -6.37 12.741 12.74" color="#212121" width="75" height="75"><g transform="matrix(1 0 0 -1 0 0)">
		<g xmlns="http://www.w3.org/2000/svg">
			<g>
				<path class="primary" fill="currentColor" d="M-0.002-6.245c-3.394,0-6.194,2.762-6.242,6.156c-0.024,1.668,0.603,3.245,1.766,4.441     s2.721,1.868,4.389,1.892h0.001c3.485,0,6.284-2.76,6.333-6.153c0.024-1.668-0.603-3.246-1.766-4.443S1.757-6.221,0.09-6.244     L-0.002-6.245z"/>
				<path class="secondary" d="M0.002,6.12c3.339,0,6.069-2.683,6.117-6.031c0.049-3.381-2.652-6.16-6.031-6.208c-0.03,0-0.06,0-0.09,0     c-3.339,0-6.069,2.682-6.117,6.033c-0.049,3.379,2.651,6.158,6.03,6.206C-0.058,6.12-0.027,6.12,0.002,6.12 M0.003,6.37h-0.094     c-1.701-0.024-3.291-0.709-4.477-1.93C-5.754,3.22-6.394,1.611-6.37-0.09c0.049-3.463,2.905-6.28,6.367-6.28h0.094     c1.701,0.024,3.291,0.709,4.477,1.93S6.394-1.61,6.37,0.092C6.32,3.554,3.464,6.37,0.003,6.37L0.003,6.37z" fill="#FFFFFF"/>
			</g>
		</g>
		<g xmlns="http://www.w3.org/2000/svg">
			<path id="M142_High_Mobility_Artillery_Rocket_system_2_" class="secondary" d="M5.795-1.592c0-0.008-0.003-0.023-0.009-0.047    s-0.01-0.041-0.01-0.054c-0.009,0-0.02,0.002-0.034,0.008c-0.016,0.007-0.025,0.01-0.029,0.01    c-0.065,0.456-0.141,0.847-0.226,1.17L5.17-0.509c0-0.021,0.001-0.062,0.002-0.12c0.055,0.001,0.095-0.012,0.12-0.036l0.001-0.082    C5.265-0.761,5.225-0.793,5.175-0.845c0.013-0.008,0.04-0.018,0.083-0.025c0.017-0.004,0.026-0.033,0.027-0.088    C5.286-1.052,5.236-1.098,5.134-1.1c-0.012,0-0.031,0.007-0.058,0.019C5.051-1.068,5.03-1.062,5.013-1.063    C5-1.063,4.985-1.072,4.969-1.092c-0.016-0.02-0.033-0.03-0.051-0.03c-0.012,0-0.027,0.003-0.043,0.009    c-0.018,0.007-0.034,0.01-0.052,0.01C4.781-1.104,4.751-1.118,4.731-1.146C4.714-1.174,4.693-1.188,4.673-1.188    c-0.021,0-0.039,0.004-0.052,0.012C4.57-1.439,4.55-1.683,4.562-1.906c-0.013,0,0.023,0.023,0.106,0.069l0.001-0.062    C4.57-2.04,4.521-2.109,4.521-2.104c0-0.056,0.086-0.152,0.257-0.289l0.001-0.063c-0.432-0.006-0.648-0.01-0.653-0.01L4.125-2.402    C4.166-2.367,4.259-2.28,4.401-2.139L4.4-2.056C4.377-2.038,4.358-2.03,4.341-2.031C4.37-2.03,4.342-2.055,4.253-2.102    c-0.024,0-0.046,0.007-0.062,0.023c0.034,0.026,0.077,0.064,0.131,0.117c0.037,0.063,0.056,0.166,0.054,0.305    c-0.002,0.03-0.032,0.166-0.09,0.406c-0.004,0-0.008-0.002-0.013-0.006C4.283-1.324,4.28-1.42,4.266-1.544    c-0.05,0.152-0.09,0.296-0.121,0.431L3.967-1.129c0.07-0.173,0.105-0.303,0.107-0.392c0-0.013-0.01-0.066-0.029-0.159    C3.947-2.185,3.653-2.44,3.167-2.447C3.069-2.448,2.94-2.425,2.779-2.376c-0.09,0.023-0.193,0.107-0.312,0.252    C2.349-1.98,2.286-1.863,2.282-1.775C2.267-1.652,2.227-1.593,2.158-1.594c-0.025,0-0.054-0.01-0.087-0.032    C2.053-1.88,1.956-2.087,1.776-2.245C1.6-2.404,1.396-2.485,1.169-2.488c-0.246-0.004-0.457,0.082-0.632,0.26    C0.36-2.051,0.27-1.833,0.267-1.575c-0.001,0.08,0.007,0.16,0.022,0.241c-0.114,0.028-0.247,0.041-0.4,0.039    c-0.012,0-0.022-0.005-0.031-0.017c-0.009-0.01-0.021-0.016-0.038-0.016c-0.014,0-0.027,0.009-0.042,0.025    s-0.029,0.024-0.041,0.024c-0.017,0-0.03-0.006-0.038-0.02c-0.009-0.013-0.02-0.02-0.031-0.02c-0.018,0-0.026,0.007-0.029,0.02    C-0.363-1.286-0.371-1.28-0.383-1.28c-0.018,0-0.025-0.006-0.023-0.019c0.003-0.013-0.002-0.02-0.015-0.02l-0.854-0.013    c0.004,0-0.244-0.045-0.747-0.138l-0.019-0.07c-0.02-0.017-0.052-0.025-0.094-0.026c-0.013,0-0.03,0.003-0.054,0.01    C-2.211-1.551-2.23-1.548-2.248-1.548C-2.296-1.549-2.52-1.59-2.919-1.672c-0.005,0-0.014-0.006-0.024-0.019    C-2.965-1.955-3.072-2.17-3.264-2.337c-0.177-0.159-0.372-0.24-0.587-0.243C-3.92-2.581-4.004-2.569-4.105-2.546    c-0.133,0.033-0.263,0.118-0.392,0.258c-0.129,0.141-0.204,0.284-0.228,0.432c-0.001,0.072-0.01,0.186-0.023,0.342    C-4.866-1.52-4.95-1.531-4.999-1.55c-0.049-0.018-0.094-0.026-0.136-0.027C-5.207-1.578-5.281-1.56-5.359-1.523    C-5.35-1.489-5.346-1.461-5.346-1.44C-5.347-1.377-5.395-1.344-5.49-1.346c-0.07-0.002-0.144-0.006-0.22-0.01    c-0.004,0.038-0.014,0.093-0.026,0.165c0,0.008-0.012,0.026-0.033,0.056s-0.033,0.053-0.033,0.07c0-0.021,0.013,0.076,0.035,0.292    c0.003,0.029,0.028,0.06,0.074,0.089c-0.005,0.018-0.002,0.047,0.008,0.09c0.01,0.043,0.015,0.068,0.015,0.077    c0,0.013-0.011,0.026-0.032,0.043c-0.023,0.016-0.033,0.034-0.035,0.05c-0.004,0.018-0.006,0.087-0.007,0.209    C-5.748,0.03-5.691,0.151-5.572,0.149C-5.581,0.161-5.59,0.181-5.599,0.207c-0.06,0.02-0.104,0.049-0.131,0.089    c-0.028,0.039-0.044,0.112-0.045,0.218c-0.002,0.114,0.012,0.195,0.041,0.243l0.12,0.059C-5.585,0.832-5.571,0.9-5.572,1.019    C-5.574,1.107-5.581,1.165-5.594,1.19c-0.013,0.024-0.028,0.039-0.045,0.043L-5.64,1.297c0.038,0.001,0.063-0.006,0.077-0.019    c0.075,0.028,0.105,0.089,0.093,0.187l1.211,0.018c-0.012-0.026-0.019-0.048-0.019-0.064c0-0.043,0.073-0.062,0.218-0.06    c0.025,0,0.091,0.009,0.196,0.027c0.08-0.003,0.2,0.003,0.36,0.019c0.017,0.013,0.046,0.031,0.088,0.058    C-3.252,1.55-3.084,1.595-2.91,1.597c0.114,0.002,0.256-0.028,0.424-0.088c0.167-0.062,0.245-0.093,0.233-0.093    c0.012,0,0.033,0.004,0.062,0.011c0.029,0.006,0.051,0.011,0.063,0.011C-2.17,1.437-2.099,1.415-1.911,1.371    c-0.005,0.034,0.013,0.085,0.054,0.153c0.001-0.025,0.004-0.069,0.01-0.133C-1.843,1.328-1.84,1.286-1.84,1.267    c0.001-0.019,0.009-0.039,0.024-0.06C-1.8,1.186-1.794,1.169-1.794,1.156l0.002-0.158C-1.797,0.989-1.826,0.986-1.881,0.99    l0.017-1.129c0.004,0,0.011,0.003,0.02,0.01c0.008,0.006,0.02,0.01,0.037,0.01c0.021,0.001,0.084-0.068,0.188-0.208l0.145,0.016    c-0.034,0.104-0.052,0.144-0.051,0.114c-0.014,0.008-0.061,0.012-0.141,0.01c-0.081,0.341-0.12,0.525-0.116,0.551    c0.021,0.009,0.044,0.025,0.069,0.052L-1.72,0.929c0,0.008-0.005,0.015-0.016,0.019c-0.011,0.003-0.016,0.02-0.017,0.05    c0,0.013,0.006,0.033,0.018,0.064c0.013,0.029,0.02,0.055,0.019,0.076c0.038,0.018,0.091,0.028,0.158,0.033    c0.009,0.013,0.025,0.032,0.05,0.059c0.113,0.039,0.183,0.06,0.209,0.06C-0.948,1.295-0.715,1.259-0.6,1.18    c0.009-0.018,0.018-0.059,0.027-0.126C-0.505,1.016-0.47,0.979-0.47,0.946l0.013-0.908c-0.02-0.021-0.054-0.045-0.1-0.07v-0.045    c0.005-0.008,0.02-0.013,0.045-0.012c0.017,0,0.037,0.023,0.062,0.07l1.438,0.021C1,0.016,0.994,0.037,0.968,0.065    c0.079,0.039,0.18,0.116,0.301,0.233c0.011,0.03-0.003,0.068-0.046,0.113c0.013,0.034,0.043,0.062,0.095,0.084    c0.012-0.016,0.02-0.058,0.021-0.126c0-0.008,0.013-0.013,0.038-0.013c0.013,0,0.033,0.013,0.06,0.036    c0.027,0.024,0.048,0.036,0.06,0.036c0.018,0,0.029-0.004,0.039-0.01C1.542,0.413,1.553,0.41,1.565,0.41    c0.029,0,0.108,0.021,0.233,0.061c0.304,0.094,0.513,0.141,0.627,0.143c0.013,0,0.02-0.002,0.021-0.006    C2.45,0.603,2.459,0.601,2.477,0.601c0.02,0.001,0.082,0.039,0.183,0.11c-0.346,0.088-0.853,0.226-1.53,0.41    C1.105,1.129,1.092,1.156,1.09,1.203C0.85,1.264,0.51,1.358,0.071,1.486c-0.021-0.021-0.03-0.044-0.03-0.069    C0.02,1.411-0.012,1.424-0.055,1.453c0,0.008-0.01,0.025-0.029,0.05c-0.02,0.026-0.029,0.047-0.029,0.064    C-0.114,1.634-0.052,1.84,0.074,2.185C0.056,2.286,0.101,2.371,0.21,2.439c0.03-0.032,0.077-0.072,0.142-0.118    C0.946,2.169,1.255,2.094,1.28,2.094c0.014,0,0.029,0.005,0.049,0.017c0.019,0.012,0.034,0.017,0.047,0.017    c0.017,0.001,0.066-0.01,0.149-0.029c0.083-0.02,0.146-0.032,0.188-0.036l0.032-0.03l0.012,0.013L4.09,1.417    c-0.005-0.008-0.008,0.062-0.01,0.21C4.078,1.749,4.106,1.823,4.165,1.85c0.03,0.018,0.114,0.027,0.254,0.029    C4.512,1.88,4.57,1.815,4.593,1.685C4.599,1.58,4.605,1.476,4.61,1.374c0-0.047,0.005-0.076,0.014-0.088l0.51-0.145    c0.093,0.002,0.144,0,0.152-0.004L5.288,1.01c0-0.013-0.011-0.048-0.034-0.103C5.232,0.852,5.221,0.818,5.221,0.806    c0-0.034,0.006-0.056,0.015-0.063c0.008,0,0.019,0.016,0.03,0.044c0.055,0.022,0.088,0.076,0.1,0.161    c0.017,0.025,0.037,0.038,0.062,0.039c-0.027-0.239-0.105-0.554-0.234-0.95C5.174-0.026,5.13-0.06,5.062-0.061    c-0.013,0-0.031,0.008-0.057,0.021C4.979-0.023,4.96-0.017,4.947-0.017C4.88-0.014,4.673-0.015,4.326-0.021    c-0.047,0-0.078-0.009-0.096-0.025C4.273-0.109,4.296-0.2,4.298-0.318c0.013,0,0.117-0.004,0.311-0.015    c0-0.012,0.018-0.027,0.052-0.043l0.894,0.013C5.576-0.33,5.586-0.296,5.586-0.262l0.062,0.001c-0.003-0.06,0.021-0.093,0.072-0.1    v-0.096C5.695-0.47,5.656-0.491,5.602-0.522L5.795-1.592z M-5.573,0.631c-0.001,0.06-0.007,0.102-0.021,0.128    c0-0.013-0.024-0.02-0.075-0.021C-5.605,0.71-5.574,0.674-5.573,0.631z M-4.901,0.254L-4.91,0.87l-0.45-0.007l0.008-0.54    c0.001-0.055,0.033-0.081,0.097-0.08c0.013,0,0.063,0.002,0.151,0.008C-5.011,0.252-4.942,0.253-4.901,0.254z M-5.048-1.448    l-0.24-0.004L-5.29-1.319c0.007,0,0.025,0.004,0.053,0.011c0.027,0.007,0.05,0.011,0.067,0.011c0.029,0,0.053-0.016,0.069-0.05    C-5.074-1.407-5.057-1.44-5.048-1.448z M-4.376,0.287l-0.009,0.609L-4.803,0.89l0.009-0.609L-4.376,0.287z M-2.688-1.485    c-0.019,0.048-0.038,0.104-0.061,0.172c-0.025-0.001-0.064,0.016-0.118,0.049c-0.053,0.033-0.086,0.05-0.098,0.049l-0.096-0.001    C-3.026-1.283-3-1.35-2.983-1.418c0.09,0.001,0.143-0.021,0.16-0.068C-2.791-1.482-2.747-1.481-2.688-1.485z M-2.217,0.209    l-0.01,0.667c-0.229-0.003-0.474-0.007-0.736-0.01c-0.013-0.234-0.01-0.455,0.01-0.667L-2.217,0.209z M-1.74-1.205L-2.07-1.21    l0.002-0.062l0.127,0.001C-1.92-1.271-1.854-1.248-1.74-1.205z M1.411,0.015L1.41,0.18c-0.008,0-0.023,0.003-0.045,0.009    C1.344,0.194,1.326,0.196,1.308,0.196c-0.055-0.001-0.11-0.043-0.169-0.128C1.163,0.043,1.178,0.023,1.178,0.01L1.411,0.015z     M4.26,0.126L4.257,0.277c-0.004,0-0.018,0.001-0.04,0.007C4.192,0.288,4.168,0.289,4.143,0.289    C4.102,0.211,4.084,0.14,4.089,0.072l0.001-0.07l0.095,0.001C4.234,0.098,4.26,0.138,4.26,0.126z M4.327,1.688    c-0.026,0.05-0.034,0.081-0.021,0.094L4.173,1.779L4.155,1.646C4.206,1.673,4.263,1.687,4.327,1.688z M4.539,1.481    c-0.011,0.097-0.026,0.2-0.049,0.311c-0.018-0.03-0.024-0.061-0.024-0.09C4.467,1.682,4.49,1.607,4.539,1.481z M5.165,0.31    L5.162,0.494L5.13,0.493l0.003-0.185L5.165,0.31z M5.196,0.304H5.171L5.143,0.138l0.025,0.001L5.196,0.304z" fill="#FFFFFF"/>
		</g>
	</g></svg>