<?xml version="1.0" standalone="no"?>
<svg xmlns="http://www.w3.org/2000/svg" viewBox="-6.37 -6.37 12.74 12.74" color="#212121" width="75" height="75"><g transform="matrix(1 0 0 -1 0 0)">
		<g xmlns="http://www.w3.org/2000/svg">
			<circle class="primary" fill="currentColor" cx="0" cy="0" r="6.245"/>
			<path class="secondary" d="M0,6.12c3.38,0,6.12-2.74,6.12-6.12S3.38-6.12,0-6.12S-6.12-3.38-6.12,0S-3.38,6.12,0,6.12 M0,6.37    c-3.513,0-6.37-2.857-6.37-6.37S-3.513-6.37,0-6.37S6.37-3.513,6.37,0S3.513,6.37,0,6.37L0,6.37z" fill="#FFFFFF"/>
		</g>
		<path xmlns="http://www.w3.org/2000/svg" id="dump_truck_1_" class="secondary" d="M-5.707-0.261L-5.7-0.273C-5.701-0.275-5.701-0.277-5.703-0.28   c-0.008-0.018,0-0.04,0.019-0.047c0.019-0.008,0.04,0,0.049,0.019c0.003,0.009,0.007,0.017,0.011,0.026l0.027-0.025v-0.035h0.025   v-0.009h0.314l0.621-0.109h-0.025v-0.4h-0.139v0.146h-0.038V-0.86h-0.032c0,0-0.016-0.006-0.016-0.012v-0.034   c0-0.007,0.007-0.012,0.016-0.013l0.015-0.001v-0.106l-0.015-0.001C-4.88-1.029-4.887-1.034-4.887-1.041v-0.033   c0-0.007,0.007-0.014,0.007-0.014h0.023v-0.015h0.017v-0.001l-0.02-0.009v-0.014l0.021,0.009v-0.02h0.041v0.02l0.019-0.009v0.014   l-0.019,0.009v0.001h0.013v0.015h0.124v-0.026l-0.425-0.275l0.004-0.005C-5.126-1.401-5.157-1.436-5.157-1.48   c0-0.048,0.039-0.086,0.087-0.086c0.021,0,0.039,0.007,0.054,0.019l0.007-0.015l0.405,0.195l0.002-0.12   c0-0.014-0.002-0.025-0.006-0.033l0,0c-0.003-0.008-0.009-0.013-0.017-0.018L-4.628-1.54v-0.001l-0.095-0.093l-0.002-0.001   c-0.008-0.009-0.014-0.019-0.018-0.029c-0.004-0.009-0.004-0.02-0.004-0.03l0,0v-0.313h0.031v0.314l0,0   c0,0.006,0,0.013,0.004,0.019C-4.709-1.667-4.705-1.662-4.7-1.656l0.093,0.092c0.012,0.007,0.021,0.016,0.027,0.029l0,0   c0.005,0.013,0.009,0.027,0.009,0.047l0,0l-0.001,0.019h0.092c0.021,0.002,0.034,0.013,0.034,0.035   C-4.451-1.386-4.453-1.34-4.453-1.296l0.021,0.01h0.093C-4.345-1.327-4.35-1.368-4.35-1.41c0-0.426,0.346-0.771,0.771-0.771   c0.351,0,0.645,0.232,0.74,0.552h0.035V-1.69h0.036c0.016-0.02,0.039-0.032,0.064-0.032c0.027,0,0.051,0.012,0.066,0.032h0.19   c0.016-0.02,0.038-0.032,0.065-0.032c0.025,0,0.049,0.012,0.064,0.032h0.036v0.062h0.068c0.099-0.32,0.394-0.552,0.742-0.552   c0.378,0,0.691,0.269,0.758,0.627h0.263v-0.166h0.425v0.003c0.045,0,0.088,0,0.133,0c0.048,0,0.086,0.037,0.09,0.083   c0.006,0,0.011,0,0.016,0c0,0,0.006,0.003,0.006,0.007c0,0.001,0,0.001-0.001,0.002l0.001,0.001H2.29L2.289-1.625l0.008-0.002   l-0.003-0.01l0.022-0.005l0.002,0.009l0.007-0.002l0.003,0.013h0.086L2.518-1.65c0.006,0,0.011-0.001,0.017-0.001v-0.003h0.201   l0.008,0.001l0,0h0.09c0.041,0,0.075,0.034,0.075,0.075v0.128H2.904v0.03h0.04L2.943-1.588c0,0,0.048-0.013,0.064,0.066   c0.004,0.027,0.014,0.077,0.024,0.14h0.07c0-0.009,0-0.019,0-0.027c0-0.426,0.345-0.771,0.771-0.771c0.425,0,0.77,0.345,0.77,0.771   c0,0.012,0,0.023,0,0.035h0.081l0.015-0.138l0.053-0.183l0.343,0.066L5.37-1.541L5.355-1.548l0.061-0.005l0.088,0.015   c0,0,0.062,0.035,0.1,0.054c0.037,0.019,0.07,0.049,0.086,0.107c0,0.009,0.002,0.018,0.005,0.029l0,0   C5.696-1.34,5.697-1.332,5.699-1.324c0,0.007,0.002,0.014,0.002,0.021c0,0.002,0.002,0.003,0.002,0.005   C5.704-1.27,5.707-1.242,5.708-1.22l0,0c0,0.003,0,0.006,0.001,0.009c0,0.01,0,0.02,0,0.025l0,0l0,0   c0.002,0.028-0.018,0.033-0.018,0.033H5.656H5.648l0.016,0.026l0.001,0.152l0.02,0.009v0.039L5.661-0.918l0.003,0.033l0.021,0.009   c0,0,0,0.041-0.003,0.09c-0.001,0.05-0.048,0.071-0.048,0.071L5.428-0.714L5.467-0.59l0.097,0.007h0.037l0.005,0.011   C5.61-0.568,5.614-0.56,5.618-0.547l0.005,0.01H5.621c0.002,0.006,0.002,0.011,0.004,0.018c0.012,0.057,0.049,0.44,0.049,0.44   S5.69,0.148,5.671,0.308C5.651,0.47,5.598,0.646,5.598,0.646s0,0,0,0.001c0,0,0,0,0,0.001c0,0,0,0.001-0.002,0.002l0,0   c0,0.001-0.002,0.002-0.002,0.003l0,0C5.593,0.656,5.591,0.659,5.589,0.66l0,0l0,0l0,0l0,0l0,0C5.586,0.662,5.582,0.663,5.58,0.665   c-0.002,0-0.002,0-0.004,0.001C5.572,0.667,5.568,0.668,5.563,0.669C5.532,0.673,5.501,0.673,5.501,0.673L5.471,0.68L5.465,0.688   l0,0L5.389,0.89C5.392,0.896,5.394,0.9,5.394,0.902v0.286c0,0.003-0.011,0.028-0.023,0.055v0.152l0,0L5.37,1.455L5.348,1.487   L5.307,1.495H5.306H5.304H5.159L5.1,1.655c0.013,0.008,0.02,0.011,0.02,0.011L5.102,1.68l0,0L5.097,1.685   c0,0-0.034,0.111-0.077,0.138c-0.009,0.005-0.018,0.01-0.027,0.015l0,0l0,0C4.976,1.846,4.955,1.855,4.927,1.863l0.004,0.018   L4.92,1.882l0.007,0.03c0.004,0.013-0.005,0.026-0.018,0.029L4.848,1.954c-0.01,0.002-0.019-0.002-0.023-0.009   C4.819,1.947,4.816,1.949,4.816,1.949H4.791c-0.013,0-0.04-0.033-0.034-0.045L4.76,1.898c-0.003,0-0.006,0-0.006,0   C4.74,1.901,4.729,1.902,4.716,1.904V1.96h0.019v0.017l-0.03,0.001L4.698,1.986L4.429,2L4.14,1.984L4.133,1.975L4.112,1.977   L4.111,1.971C4.104,1.972,4.1,1.973,4.1,1.973L3.574,1.976c0,0.003,0,0.007,0,0.01c0,0.004,0,0.007,0,0.007s-0.005,0-0.007,0H3.564   c0,0-0.011,0-0.016,0H3.545H3.541c-0.002,0-0.004-0.003-0.004-0.007c0-0.003,0-0.006,0-0.009H3.506c0,0-0.073,0.004-0.097-0.104   C3.387,1.766,3.367,1.658,3.364,1.608V1.607H3.346V1.59h0.017c0-0.001,0-0.001,0-0.002H3.357L3.354,1.52   C3.352,1.505,3.342,1.498,3.322,1.496L3.155,1.502V1.494L3.141,1.495L3.092,1.436L3.09,1.41h0.005V1.406H3.094V1.405l0.001-0.003   V1.36L3.094,1.357c-0.002-0.002,0-0.005,0-0.007l0,0L3.092,1.293h0.015L3.088,0.82l0,0L3.086,0.794H3.079L2.998,0.825L2.982,0.814   l0.033-0.026L2.982,0.775l0.015,0.006L2.982,0.775L2.959,0.792L2.883,0.69c-0.011-0.003-0.021-0.007-0.03-0.012   C2.737,0.62,2.662,0.553,2.63,0.421C2.598,0.29,2.568,0.106,2.563,0.018C2.56-0.069,2.56-0.115,2.56-0.115h0.047l0,0h0.021H2.64   L2.635-0.258L2.583-0.327H2.577v0.005H2.568v0.005H2.554v-0.005H2.547v-0.005H2.502C2.52-0.273,2.525-0.212,2.526-0.166V0.06h0.012   v0.016H2.526v0.857c0,0.016-0.002,0.038-0.006,0.059l0.107,0.464l0.233,0.52h0.424l0.023,0.02H3.33l0.166,0.137V2.18H2.434   L2.431,2.172l0.003,0.006h-0.49L1.605,1.414H-4.12l0.025,0.036l-0.536,0.378c-0.021-0.044-0.067-0.01-0.055,0.022l-0.051,0.033   C-4.811,1.914-4.873,1.846-4.86,1.782l0.008-0.025l-0.236-0.512l0.002-0.003L-5.61,0.068h-0.004l-0.094-0.197l0.058-0.026   C-5.659-0.177-5.668-0.199-5.678-0.22L-5.707-0.261z M2.318,1.27L2.293,1.157C2.245,1.155,2.196,1.149,2.148,1.14V1.133   c-0.025-0.057-0.041-0.146-0.043-0.2V0.696H2.093c0-0.008,0-0.016,0-0.024c0-0.012,0-0.025,0-0.037c-0.005,0-0.011,0-0.017,0   c0,0-0.013-0.005-0.013-0.013c0-0.013,0-0.025,0-0.038H1.867l0.291,0.66l0.036-0.021L2.318,1.27z M-4.033-0.352h0.801v-0.107h-0.91   c0.002,0.002,0.004,0.005,0.006,0.008l-0.038,0.04L-4.033-0.352z M1.913,0.29V0.049C1.911,0.055,1.909,0.06,1.904,0.065   C1.897,0.072,1.887,0.076,1.877,0.076l0,0l0,0H1.865l0.002,0.026h0.008l0.019,0.184L1.913,0.29z M1.925-0.374L1.919-0.359   L1.906-0.353l0,0c0.013,0,0.027,0,0.04,0L1.93-0.423v0.005v0.023v0.001v0.002l0,0v0.003v0.003L1.928-0.382v0.004L1.926-0.375   L1.925-0.374z M1.906-0.329C1.91-0.325,1.913-0.321,1.913-0.315v-0.014H1.906z M-2.628-0.352h0.235v-0.107h-0.235V-0.352z    M-2.12-0.352h0.354v-0.107H-2.12V-0.352z M-1.18-0.352h1.774v-0.107H0.102c0,0.021,0,0.041,0,0.062c0,0.011-0.009,0.02-0.02,0.02   c-0.179,0-0.357,0-0.537,0c-0.011,0-0.021-0.009-0.021-0.02c0-0.021,0-0.041,0-0.062h-0.298c-0.025,0.031-0.051,0.062-0.08,0.09   l-0.021-0.022l0,0l-0.059-0.06c0.002-0.002,0.004-0.006,0.008-0.008H-1.18V-0.352z M1.722,0.254l0.165,0.031L1.871,0.137   l-0.02,0.002L1.845,0.076h-0.03V0.06h0.027L1.838,0.016l0.021-0.003L1.863,0.06h0.014l0,0c0.006,0,0.012-0.002,0.016-0.006   C1.898,0.049,1.9,0.044,1.9,0.037l0,0l0,0v-0.056H1.886v-0.229H1.9v-0.057l0,0l0,0c0-0.006-0.002-0.012-0.007-0.016   c-0.004-0.004-0.01-0.006-0.016-0.007l0,0l0,0H1.812v0.005H1.806v0.005H1.789v-0.005H1.783v-0.005H1.768V-0.33   c-0.005-0.001-0.01-0.003-0.01-0.007c0-0.001,0.002-0.001,0.002-0.002c0,0-0.002-0.002-0.002-0.003   c0-0.006,0.005-0.012,0.012-0.012h0.014v-0.008H1.79v-0.006h0.017v0.006h0.007v0.008c0.01,0,0.021,0,0.031,0v-0.014h0.043   c0.011,0,0.02-0.004,0.023-0.012l0.002-0.002v-0.002l0.001-0.001v-0.002V-0.39v-0.002v-0.001l0,0v-0.024l0,0l0,0l0.004-0.032   l0.004-0.005v-0.001L1.349-0.452V-0.46H1.182v0.107h0.131l0.014,0.03h0.141L1.722,0.254z M2.242-0.397v-0.01   c-0.01-0.007-0.017-0.016-0.021-0.027H2.219c-0.01,0-0.017-0.006-0.017-0.014c0-0.001,0-0.002,0.003-0.004H2.189L2.203-0.39   C2.216-0.393,2.229-0.396,2.242-0.397z M2.263-0.399L2.258-0.4v0.001L2.263-0.399z M2.554-0.368L2.497-0.445l-0.03,0.003v0.007   l-0.15,0.011C2.314-0.422,2.314-0.419,2.312-0.417c0.003,0.002,0.004,0.006,0.004,0.009c0,0.002-0.001,0.004-0.001,0.006   c0.056,0,0.11,0.007,0.167,0.025C2.485-0.37,2.488-0.36,2.493-0.353c0.019,0,0.037,0,0.054,0v-0.009h0.007V-0.368z M3.191,0.038   C3.195,0.05,3.2,0.064,3.204,0.078c0-0.024-0.009-0.057-0.009-0.057L3.174-0.175c-0.006,0-0.009,0-0.009,0l-0.008-0.01l0.001-0.012   L3.17-0.198v-0.003H3.11L3.112-0.12l0.047,0.002C3.159-0.118,3.168-0.044,3.191,0.038z M3.362,1.511L3.39,1.49V1.461L3.372,1.457   L3.337,1.099l0.024-0.021L3.36,1.041L3.337,1.022L3.334,0.96L3.36,0.942L3.359,0.899L3.337,0.88L3.341,0.8l0.023-0.012L3.36,0.75   L3.34,0.727V0.692l0,0L3.277,0.716L3.276,0.75L3.271,0.752v0.001c0.012,0,0.012,0.019,0.002,0.02l0.018,0.513h0.012l0.004,0.116   h0.005L3.311,1.428l-0.048,0.06l0.068-0.002C3.346,1.485,3.354,1.494,3.362,1.511z M5.285,1.186V1.165L5.172,1.463h0.13   c0.023-0.006,0.034-0.028,0.036-0.069l0,0V1.303C5.332,1.313,5.326,1.32,5.326,1.32H5.3C5.291,1.32,5.285,1.194,5.285,1.186z    M-4.662-0.934v-0.078l-0.124-0.01v0.097L-4.662-0.934z" fill="#FFFFFF"/>
	</g></svg>