<?xml version="1.0" standalone="no"?>
<svg xmlns="http://www.w3.org/2000/svg" viewBox="-6.37 -6.37 12.74 12.74" color="#212121" width="75" height="75"><g transform="matrix(1 0 0 -1 0 0)">
		<g xmlns="http://www.w3.org/2000/svg" id="Circle_9_">
			<path class="primary" fill="currentColor" d="M-0.001-6.245c-3.443,0-6.244,2.802-6.244,6.246c0,3.443,2.801,6.244,6.244,6.244    c3.444,0,6.246-2.801,6.246-6.244C6.245-3.443,3.443-6.245-0.001-6.245z"/>
			<path class="secondary" d="M-0.001,6.12c3.381,0,6.121-2.74,6.121-6.119c0-3.381-2.74-6.121-6.121-6.121    c-3.379,0-6.119,2.74-6.119,6.121C-6.12,3.38-3.38,6.12-0.001,6.12 M-0.001,6.37c-3.512,0-6.369-2.857-6.369-6.369    c0-3.513,2.857-6.371,6.369-6.371c3.513,0,6.371,2.858,6.371,6.371C6.37,3.513,3.512,6.37-0.001,6.37L-0.001,6.37z" fill="#FFFFFF"/>
		</g>
		<path xmlns="http://www.w3.org/2000/svg" class="secondary" d="M5.424-1.19L4.995-0.204L4.342-0.245L4.325-0.153L2.047,0.03v0.186h0.606v0.385L2.466,0.954L2.312,0.979   C2.397,1.194,2.52,1.995,3.101,3.073L3.004,3.12c0,0-0.544-0.713-0.814-2.117L1.88,1.054L1.36,1.087L0.94,1.372H0.569L0.422,1.204   L0.121,1.138V1.49l0.1,0.016v0.268h-0.417V1.472H0V1.069h-0.28l-0.738-0.25l-4.405,0.184V0.468l3.133-0.084v-0.771l-0.688-0.352   l-0.184,0.535L-3.548-0.37l0.101-0.553l-0.234-0.201l0.134-0.57L-3.3-1.823c-0.021-0.082-0.033-0.166-0.033-0.256   c0-0.574,0.467-1.043,1.043-1.043c0.512,0,0.937,0.371,1.024,0.859h1.854C0.675-2.751,1.1-3.122,1.613-3.122   S2.55-2.751,2.637-2.263h0.362c0.086-0.488,0.513-0.859,1.025-0.859c0.575,0,1.042,0.469,1.042,1.043   c0,0.168-0.04,0.326-0.11,0.465L5.424-1.19z" fill="#FFFFFF"/>
	</g></svg>