<?xml version="1.0" standalone="no"?>
<svg xmlns="http://www.w3.org/2000/svg" viewBox="-6.37 -6.37 12.74 12.74" color="#212121" width="75" height="75"><g transform="matrix(1 0 0 -1 0 0)">
		<g xmlns="http://www.w3.org/2000/svg" id="Circle_16_">
			<path class="primary" fill="currentColor" d="M-0.001-6.245c-3.443,0-6.244,2.802-6.244,6.246c0,3.443,2.801,6.244,6.244,6.244    c3.444,0,6.246-2.801,6.246-6.244C6.245-3.443,3.443-6.245-0.001-6.245z"/>
			<path class="secondary" d="M-0.001,6.12c3.381,0,6.121-2.74,6.121-6.119c0-3.381-2.74-6.121-6.121-6.121    c-3.379,0-6.119,2.74-6.119,6.121C-6.12,3.38-3.38,6.12-0.001,6.12 M-0.001,6.37c-3.512,0-6.369-2.857-6.369-6.369    c0-3.513,2.857-6.371,6.369-6.371c3.513,0,6.371,2.858,6.371,6.371C6.37,3.513,3.512,6.37-0.001,6.37L-0.001,6.37z" fill="#FFFFFF"/>
		</g>
		<path xmlns="http://www.w3.org/2000/svg" class="secondary" d="M3.305,0.271L3.272,0.403l0.347,0.016l0.117,0.597L3.305,1.124L3.189,1.198L3.121,1.2l0.344,1.377L3.322,2.612   L2.971,1.203L2.443,1.215L1.958,1.474l0.333,1.334L2.148,2.843L1.811,1.486L1.615,1.497l-0.43,0.281H0.787L0.588,1.563L0.34,1.646   L0.236,1.943H-0.24l-0.017-0.298L0.01,1.446l-0.233-0.231h-0.613l-0.349-0.231l-0.182,0.141h-0.248L-1.748,0.95h-3.827V0.437h4.39   l0.184-0.332H-1.5l-0.646-0.514l-1.718-0.198l-0.154-0.414l0.916-0.949c0.045-0.489,0.455-0.873,0.956-0.873   c0.497,0,0.905,0.377,0.956,0.861h1.12c0.05-0.484,0.459-0.861,0.956-0.861c0.496,0,0.905,0.377,0.955,0.861h0.393   c0.049-0.484,0.457-0.861,0.955-0.861c0.496,0,0.906,0.377,0.955,0.861h0.172l1.259,1.06v1.027L3.305,0.271z" fill="#FFFFFF"/>
	</g></svg>