<?xml version="1.0" standalone="no"?>
<svg xmlns="http://www.w3.org/2000/svg" viewBox="-6.37 -6.37 12.74 12.74" color="#212121" width="75" height="75"><g transform="matrix(1 0 0 -1 0 0)">
		<g xmlns="http://www.w3.org/2000/svg">
			<circle class="primary" fill="currentColor" cx="0" cy="0" r="6.245"/>
			<path class="secondary" d="M0,6.12c3.38,0,6.12-2.74,6.12-6.12S3.38-6.12,0-6.12S-6.12-3.38-6.12,0S-3.38,6.12,0,6.12 M0,6.37    c-3.513,0-6.37-2.857-6.37-6.37S-3.513-6.37,0-6.37S6.37-3.513,6.37,0S3.513,6.37,0,6.37L0,6.37z" fill="#FFFFFF"/>
		</g>
		<g xmlns="http://www.w3.org/2000/svg" id="Excavator-Dozer_2_">
			<g>
				<path class="secondary" d="M4.747-1.872c0,0,0.592-0.16,0.57-0.631c0,0,0.061-0.532-0.391-0.571c0,0-4.648-0.121-5.149,0.01     c0,0-0.551,0.05-0.601,0.45l-0.211-0.23v-0.321h-0.461l-0.4,0.391c0,0,0.36,0.301,0.08,0.842l0.16,0.03l0.421-0.13     c0,0,0.12,0.311,0.421,0.3l0.721-0.01l0.311,0.13l0.401-0.01l-0.011,0.09l-0.209-0.01c0,0-0.121,0-0.131,0.291l0.03,0.812h0.069     L0.098,0.373l-0.05-0.09l0.1-0.331l-0.05-0.021l-0.541,1.433c0,0-0.24,0.311-0.391,0.301l-0.461,0.02v0.11l-2.224,0.05     c0,0,0.06-0.16-0.311-0.19c0,0-0.622-0.02-0.672,0.21l0.04-3.266l-0.061-0.07l0.501-1.102c0,0,0.16-0.271,0.361-0.281l-0.15-0.12     c0,0-1.303,0.03-1.503,0.281c0,0-0.32,0.27-0.19,0.631c0,0,0.09,0.241,0.2,0.341l-0.06,0.181c0,0-0.07,0.13-0.03,0.19     l-0.261,0.582c0,0-0.05,0.13,0.11,0.21l0.02,0.591c0,0-0.09,0.1-0.079,0.35l0.02,1.553c0,0-0.09,0.17,0,0.301     c0,0,0.461,1.262,0.762,0.841l0.691-0.03l0.531-0.03c0,0,0.029,0.11,0.35,0.09l1.895-0.1l-0.021-0.411l0.05-0.01     c0,0,0.081,0.281,0.392,0.11c0,0,0.831,0.02,1.312-0.651c0,0,0.161,0.01,0.181-0.241L0.78,1.444l0.14,0.161     c0,0,1.122,0.03,1.503-0.05c0,0,0.34-0.07,0.4-0.15l0.04-1.223l0.802-0.041c0,0,0.26-0.03,0.26-0.341l0.041-1.07     c0,0,0.06-0.331-0.141-0.351v-0.14C3.825-1.761,4.606-1.831,4.747-1.872z M2.245,0.147v1.171H1.781V0.147H2.245z M1.62,0.147     v1.171H0.933V0.147H1.62z M-0.062,0.613v0.3l-0.19,0.261L-0.062,0.613z M-4.311,2.928l-0.491,0.021c0,0-0.01-0.311,0.101-0.411     C-4.701,2.537-4.431,2.928-4.311,2.928z M-4.792-1.17l-0.06,0.361h-0.44l0.149-0.441C-4.972-1.28-4.792-1.17-4.792-1.17z      M-4.882-0.659l-0.41,2.545l-0.101-0.021V0.413c0,0,0.08-0.161,0-0.291c0,0,0-0.07-0.04-0.09l-0.01-0.591     c0,0,0.01-0.07,0.08-0.101h0.481V-0.659z" fill="#FFFFFF"/>
			</g>
		</g>
	</g></svg>