<?xml version="1.0" standalone="no"?>
<svg xmlns="http://www.w3.org/2000/svg" viewBox="-6.37 -6.37 12.74 12.74" color="#212121" width="75" height="75"><g transform="matrix(1 0 0 -1 0 0)">
		<g xmlns="http://www.w3.org/2000/svg">
			<circle class="primary" fill="currentColor" cx="0" cy="0" r="6.245"/>
			<path class="secondary" d="M0,6.12c3.38,0,6.12-2.74,6.12-6.12S3.38-6.12,0-6.12S-6.12-3.38-6.12,0S-3.38,6.12,0,6.12 M0,6.37    c-3.513,0-6.37-2.857-6.37-6.37S-3.513-6.37,0-6.37S6.37-3.513,6.37,0S3.513,6.37,0,6.37L0,6.37z" fill="#FFFFFF"/>
		</g>
		<path xmlns="http://www.w3.org/2000/svg" id="Excavator_2_" class="secondary" d="M3.985-2.498c0,0-0.027,0.301-0.311,0.301L3.339-2.188v0.173L3.166-1.851L2.873-1.823   L2.864-1.577L2.7-1.586L2.691-1.841H2.19L1.854-2.014v-0.219h-0.21v0.083H1.515v-0.073H1.297c0,0-0.045,0.72-0.109,0.929   c0,0-0.062,0.274-0.228,0.292L0.677-0.984l0.01,1.129c0,0-0.01,0.457-0.42,0.793c0,0-0.091,0.137-0.127,0.228   c0,0-0.082,0.301-0.482,0.474c0,0,0,0.127-0.183,0.118l-1.431,1.339c0,0-0.155,0.219-0.318,0.191L-3.56,4.519   c0,0-0.055,0.209-0.228,0.064l-0.348-0.52c0,0-0.072,0.137-0.117-0.984c0,0-0.037-0.137,0.009-0.21L-4.263,1.54   c0,0-0.055-0.01-0.055-0.091l0.019-0.127c0,0,0-0.073,0.036-0.1V0.127c0,0-0.236-0.191,0.027-0.292l0.282-0.41   c0,0-0.018-0.173,0.319-0.2c0,0,0.229-0.501,0.729-0.483c0,0,0.328-0.018,0.528,0.447c0,0,0.4,0.692,0.529,0.811l-0.109,0.228   l-0.219-0.119l0.036,0.127l-0.173,0.009L-2.56,0.017l-1.03-0.026l0.256,3.162l2.369-2.224c0,0,0.774-0.739,0.793-1.085v-0.856   h-0.475c0,0-0.273-0.027-0.291-0.228c0,0-0.182,0.091-0.22-0.383l-0.163-1.458c0,0-0.037-0.21,0.173-0.228   c0,0-0.137-0.237,0.183-0.265l0.556-0.009v-0.073c0,0-0.4-0.064-0.921-0.119c0,0-0.601,0-0.738-0.272c0,0-0.519-0.292-0.245-0.766   c0,0,0-0.393,0.993-0.374L2.972-5.06c0,0,0.629,0.101,0.492,0.611c0,0,0.046,0.301-0.373,0.51L2.746-3.892   c0,0-0.09,0.146-0.656,0.137c0,0-0.601,0.009-0.894,0.109L1.188-3.545l2.598,0.073c0,0,0.274-0.01,0.274,0.282L3.985-2.498z    M-4.136,1.221c0.056,0.055,0.074,0.246,0.074,0.246c0,0.037-0.036,0.063-0.036,0.063v1.223c0.055-0.128,0.199-2.289,0.199-2.289   l-0.272-0.292L-4.136,1.221z M-3.878-0.401l-0.245,0.312l0.245,0.295v-0.215C-3.878-0.009-3.878-0.401-3.878-0.401z M-3.087,3.618   c-0.137,0.164-0.3,0.155-0.3,0.155c0.009,0.082-0.184,0.42-0.184,0.42v0.19l1.239-1.157c0.064-0.201,0.237-0.282,0.237-0.282   l1.413-1.331L-3.087,3.618z M0.9-1.804v-0.415L0.586-2.534c-0.1-0.1-0.172,0-0.172,0v1.321l0.255,0.009L0.9-1.804z M-0.226,1.321   l-0.099,0.237c0.437-0.2,0.473-0.62,0.473-0.62L-0.226,1.321z M-0.763-1.486c0,0.173,0.228,0.228,0.228,0.228l0.721,0.045   l0.027-1.54c-0.434-0.433-0.966-0.319-0.966-0.319c-0.255,0-0.21,0.21-0.21,0.21L-0.763-1.486z M-1.173-3.199   c0,0-0.082-0.055-0.082,0.109c0,0,0.146,1.55,0.201,1.668c0,0,0.046,0.137,0.118,0.119C-0.936-1.304-1.117-2.58-1.173-3.199z" fill="#FFFFFF"/>
	</g></svg>