<?xml version="1.0" standalone="no"?>
<svg xmlns="http://www.w3.org/2000/svg" viewBox="-6.37 -6.37 12.74 12.74" color="#212121" width="75" height="75"><g transform="matrix(1 0 0 -1 0 0)">
		<g xmlns="http://www.w3.org/2000/svg" id="Circle_21_">
			<path class="primary" fill="currentColor" d="M-0.001-6.245c-3.443,0-6.244,2.802-6.244,6.246c0,3.443,2.801,6.244,6.244,6.244    c3.444,0,6.246-2.801,6.246-6.244C6.245-3.443,3.443-6.245-0.001-6.245z"/>
			<path class="secondary" d="M-0.001,6.12c3.381,0,6.121-2.74,6.121-6.119c0-3.381-2.74-6.121-6.121-6.121    c-3.379,0-6.119,2.74-6.119,6.121C-6.12,3.38-3.38,6.12-0.001,6.12 M-0.001,6.37c-3.512,0-6.369-2.857-6.369-6.369    c0-3.513,2.857-6.371,6.369-6.371c3.513,0,6.371,2.858,6.371,6.371C6.37,3.513,3.512,6.37-0.001,6.37L-0.001,6.37z" fill="#FFFFFF"/>
		</g>
		<g xmlns="http://www.w3.org/2000/svg">
			<path class="secondary" d="M5.525,2.048c-0.018,0.066-0.09,0.033-0.137,0.047c-0.01,0.004-0.022,0.006-0.033,0.004    c-0.266-0.004-0.54,0.088-0.79-0.092c-0.093-0.065-0.218-0.02-0.328-0.014C4.174,1.997,4.152,2.06,4.115,2.099    C4.039,2.179,4.037,2.181,3.95,2.106c-0.067-0.061-0.13-0.109-0.233-0.1c-0.338,0.03-0.676,0.048-1.014,0.067    c-0.326,0.018-0.654,0.033-0.98,0.053C1.174,2.157,0.626,2.198,0.077,2.22c-0.419,0.018-0.836,0.062-1.255,0.07    c-0.061,0-0.078,0.029-0.072,0.084c0.006,0.053,0.011,0.105,0.012,0.159c0.002,0.029,0.011,0.063-0.022,0.081    c-0.002,0.001-0.003-0.001-0.004,0C-1.29,2.623-1.311,2.606-1.331,2.592C-1.332,2.591-1.334,2.59-1.335,2.589    c-0.114-0.072-0.23-0.145-0.342-0.223C-1.724,2.333-1.77,2.323-1.825,2.323c-0.266-0.002-0.532,0.008-0.8-0.014    C-2.986,2.28-3.336,2.194-3.688,2.118c-0.019-0.004-0.042-0.01-0.046-0.031C-3.74,2.058-3.712,2.052-3.692,2.044    c0.36-0.121,0.72-0.246,1.094-0.322c0.259-0.053,0.522-0.074,0.784-0.098C-1.761,1.62-1.721,1.597-1.697,1.54c0,0-0.001,0-0.001,0    c-0.038,0-0.073,0-0.108,0c-0.101,0-0.111-0.01-0.113-0.107C-1.92,1.374-1.917,1.317-1.923,1.258    c-0.01-0.067,0.016-0.094,0.081-0.104c0.233-0.032,0.468-0.067,0.701-0.102c0.756-0.118,1.514-0.235,2.271-0.35    c0.2-0.031,0.401-0.051,0.595-0.107c-0.2,0-0.399-0.002-0.599,0.002c-0.072,0-0.11-0.018-0.11-0.096    c0.001-0.307,0.001-0.613-0.002-0.918c0-0.068,0.024-0.094,0.096-0.088c0.071,0.006,0.145-0.004,0.216-0.004    c0.309-0.002,0.616-0.002,0.925,0c0,0,0.001,0,0.001,0c0.07,0,0.105-0.021,0.099-0.096C2.347-0.63,2.348-0.655,2.349-0.679    C2.352-0.71,2.344-0.731,2.33-0.744C2.326-0.748,2.318-0.747,2.314-0.749C2.3-0.756,2.286-0.763,2.264-0.763c0,0-0.001,0-0.001,0    c-0.494,0.002-0.988,0.002-1.482,0c0,0-0.001,0-0.001,0s0,0,0,0c-0.06,0.001-0.084,0.027-0.082,0.086    C0.699-0.56,0.694-0.442,0.699-0.325c0.004,0.076-0.027,0.102-0.104,0.1c-0.001,0-0.003,0-0.004,0    C0.399-0.229,0.206-0.228,0.013-0.228c-0.267,0-0.268,0-0.266,0.264c0,0.09-0.005,0.178-0.052,0.258    c-0.023,0.041-0.052,0.062-0.099,0.062c-0.155,0-0.312,0-0.466,0c-0.033,0-0.061-0.01-0.076-0.042    c-0.032-0.071-0.062-0.139-0.061-0.221c0.005-0.244,0.001-0.488,0.001-0.734c0-0.023,0-0.049-0.003-0.074    c-0.002-0.017-0.01-0.033-0.03-0.033c0,0,0,0,0,0c-0.001,0,0-0.001-0.001-0.001c-0.021,0-0.027,0.018-0.029,0.035    C-1.07-0.693-1.07-0.671-1.07-0.648c0,0.221-0.001,0.443,0.001,0.666c0.002,0.074-0.025,0.107-0.102,0.105    c-0.089-0.002-0.178-0.002-0.266,0C-1.472,0.124-1.497,0.116-1.514,0.1c-0.017-0.017-0.024-0.043-0.023-0.078    c0.007-0.22-0.025-0.441-0.019-0.665c0.002-0.036,0.022-0.1-0.025-0.1c0,0,0,0.001,0,0.001s0-0.001,0-0.001    c-0.042,0-0.023,0.064-0.023,0.102c0,0.475,0,0.949,0,1.424c0,0.102-0.027,0.137-0.115,0.137c-0.348,0.002-0.694,0-1.042,0    c-0.075,0-0.111-0.035-0.111-0.111c-0.002-0.746-0.005-1.49-0.007-2.234c0-0.025,0.002-0.049-0.026-0.064    C-2.955-1.514-3.003-1.513-3.04-1.491c-0.037,0.022-0.063,0.064-0.064,0.119c-0.001,0.41-0.002,0.82-0.002,1.23    c0,0.324,0.001,0.645,0.001,0.967c0,0.07,0.02,0.148-0.075,0.182C-3.19,1.011-3.198,1.03-3.2,1.042    c-0.016,0.066-0.064,0.08-0.12,0.08c-0.114,0-0.227,0-0.342,0c0,0-0.001,0-0.001,0C-3.76,1.124-3.777,1.138-3.766,1.233    c0.008,0.078-0.025,0.104-0.093,0.104c-0.087,0.002-0.171,0.002-0.258,0c-0.122,0-0.209-0.07-0.276-0.158    c-0.03-0.039-0.054-0.057-0.1-0.057C-4.615,1.124-4.737,1.124-4.859,1.12C-4.955,1.116-5.043,1.1-5.076,0.989    C-5.169,0.663-5.27,0.341-5.387,0.022c-0.041-0.114-0.044-0.233-0.07-0.348C-5.468-0.381-5.495-0.433-5.485-0.49    c0.007-0.037,0.01-0.075,0.014-0.112C-5.46-0.69-5.443-0.778-5.426-0.866c0.016-0.084,0.031-0.167,0.074-0.246    c0.031-0.059,0.039-0.096,0.022-0.122c-0.016-0.026-0.057-0.038-0.123-0.045c-0.045-0.004-0.081-0.023-0.076-0.068    c0.009-0.121-0.017-0.238-0.008-0.356c0.004-0.063,0.033-0.092,0.095-0.092c0.074,0,0.149,0,0.224,0c0,0,0.001,0,0.001,0    c0.023,0.001,0.051,0.007,0.056-0.02c0.02-0.09,0.086-0.088,0.155-0.082c0.045,0.002,0.089,0.002,0.132-0.004    c0.063-0.008,0.094,0.02,0.105,0.078c0.006,0.027,0.016,0.053,0.024,0.08c0.005,0.014,0.01,0.025,0.026,0.025c0,0,0,0,0.001,0    c0,0,0,0,0,0c0.042,0.002,0.16-0.121,0.154-0.164c-0.015-0.09-0.002-0.178,0.023-0.263c0.063-0.221,0.198-0.381,0.426-0.438    c0.227-0.055,0.434-0.016,0.594,0.177c0.066,0.082,0.117,0.17,0.14,0.271c0.005,0.026,0.016,0.042,0.029,0.056    c0.018,0.021,0.043,0.033,0.081,0.031c0.095-0.002,0.192,0.016,0.286-0.023c0.038-0.016,0.085-0.016,0.123,0    c0.075,0.033,0.152,0.025,0.229,0.025c0.339,0.002,0.679,0.002,1.018,0c0.085,0,0.171,0.01,0.255-0.025    c0.039-0.017,0.088-0.012,0.13,0.006c0.045,0.017,0.093,0.021,0.14,0.021c0.45-0.002,0.9,0,1.351,0    c0.057,0,0.121,0.014,0.173-0.004C0.468-2.06,0.476-2.09,0.479-2.122C0.482-2.15,0.482-2.181,0.495-2.205    c0.002-0.002,0.003-0.004,0.004-0.008C0.534-2.3,0.593-2.36,0.65-2.419C0.899-2.676,1.301-2.68,1.506-2.384    c0.104,0.151,0.219,0.16,0.362,0.153c0.008-0.002,0.017-0.002,0.026,0c0.087,0.011,0.139-0.022,0.186-0.1    C2.205-2.53,2.39-2.638,2.63-2.606c0.239,0.027,0.406,0.164,0.498,0.389c0.02,0.048,0.025,0.097,0.034,0.145    C3.18-1.969,3.183-1.865,3.15-1.761c-0.001,0.005,0.001,0.006,0,0.01c-0.012,0.049,0,0.074,0.058,0.072c0,0,0.001,0,0.001,0    c0.022,0,0.043,0,0.065,0c0,0,0.001,0,0.001,0c0.637,0,1.272,0,1.908,0c0.109,0,0.118,0.01,0.118,0.119    c0,0.229,0,0.457-0.002,0.686c0,0.051-0.002,0.079-0.018,0.094C5.274-0.773,5.25-0.774,5.235-0.772    c-0.016,0.003-0.023,0.009-0.05,0.009c-0.206,0.002-0.411,0-0.616,0.002c-0.002,0-0.004,0-0.005,0    c-0.029-0.001-0.065-0.01-0.082,0.02c-0.033,0.06-0.013,0.129-0.014,0.195c0,0.049,0.044,0.047,0.078,0.057    c0.04,0.012,0.063,0.045,0.085,0.076C4.762-0.228,4.89-0.038,5.023,0.146c0.07,0.096,0.125,0.223,0.287,0.182    c0.051-0.015,0.07,0.026,0.075,0.075c0.011,0.135,0.012,0.272,0.017,0.409C5.406,0.888,5.394,0.974,5.44,1.036    c0.032,0.045,0.051,0.088,0.042,0.139C5.454,1.341,5.447,1.509,5.449,1.679c0,0.057,0.008,0.105,0.047,0.154    C5.521,1.864,5.534,1.9,5.537,1.937C5.541,1.974,5.536,2.012,5.525,2.048z M-0.021,1.444C-0.021,1.444-0.022,1.444-0.021,1.444    c-0.049-0.002-0.099,0-0.148,0C-0.17,1.442-0.17,1.44-0.17,1.44c-0.346,0.021-0.691,0.041-1.037,0.064    C-1.238,1.507-1.283,1.501-1.279,1.55C-1.276,1.599-1.231,1.587-1.2,1.587c0.189-0.014,0.381-0.039,0.571-0.037    c0.16,0.004,0.32-0.018,0.481-0.012c0.043,0,0.087-0.01,0.131-0.016C0.004,1.519,0.02,1.505,0.018,1.481    C0.016,1.46,0.001,1.446-0.021,1.444z M-4.828-1.776C-4.828-1.776-4.829-1.776-4.828-1.776l-0.001-0.001    c-0.003-0.026-0.026-0.038-0.048-0.049C-4.885-1.83-4.883-1.841-4.893-1.842l0,0c-0.001,0,0-0.001-0.001-0.001    c-0.024,0-0.05,0-0.075,0c-0.116,0-0.125,0.006-0.149,0.119c-0.004,0.021-0.011,0.043-0.015,0.066    C-5.14-1.619-5.18-1.566-5.124-1.541c0,0,0,0,0.001,0c0,0,0,0.001,0,0.001c0.052,0.025,0.115,0.027,0.165-0.014    c0.044-0.037,0.076-0.084,0.129-0.115C-4.788-1.694-4.823-1.741-4.828-1.776z M-3.093-1.894C-3.139-1.896-3.17-1.886-3.169-1.831    c0,0.061,0.058,0.141,0.105,0.143c0.028,0,0.029-0.004,0.035-0.102C-3.022-1.843-3.017-1.894-3.093-1.894z M-2.201-1.896    C-2.201-1.896-2.202-1.896-2.201-1.896c-0.092,0.004-0.183,0-0.274,0c-0.089,0-0.178,0.002-0.267,0    c-0.089-0.002-0.077,0.058-0.079,0.113c-0.001,0.029,0,0.055,0.011,0.075c0.01,0.019,0.031,0.031,0.07,0.03    c0.18-0.002,0.36-0.002,0.541,0C-2.11-1.677-2.123-1.737-2.12-1.792C-2.118-1.851-2.123-1.897-2.201-1.896z M0.468-1.841    C0.441-1.916,0.379-1.888,0.339-1.896c-0.133,0-0.168,0.047-0.138,0.166c0,0,0,0,0,0c0,0,0,0,0,0.001    C0.209-1.698,0.229-1.683,0.26-1.681c0.034,0.002,0.067,0.002,0.099,0.002C0.519-1.679,0.524-1.689,0.468-1.841z M2.867,1.284    c-0.145,0.01-0.289,0.01-0.434,0.02C1.972,1.333,1.509,1.353,1.047,1.376C0.833,1.388,0.62,1.403,0.407,1.419    C0.374,1.423,0.322,1.415,0.326,1.468c0.005,0.051,0.055,0.039,0.088,0.035C0.699,1.487,0.984,1.47,1.27,1.452    c0.249-0.015,0.498-0.031,0.746-0.047c0.41-0.025,0.82-0.037,1.23-0.068c0.169-0.013,0.338-0.009,0.506-0.029    c0.042-0.004,0.084-0.012,0.104-0.077C3.519,1.249,3.192,1.265,2.867,1.284z" fill="#FFFFFF"/>
		</g>
	</g></svg>