<?xml version="1.0" standalone="no"?>
<svg xmlns="http://www.w3.org/2000/svg" viewBox="-6.37 -6.37 12.74 12.74" color="#212121" width="75" height="75"><g transform="matrix(1 0 0 -1 0 0)">
		<g xmlns="http://www.w3.org/2000/svg">
			<circle class="primary" fill="currentColor" cx="0" cy="0" r="6.245"/>
			<path class="secondary" d="M0,6.12c3.38,0,6.12-2.74,6.12-6.12S3.38-6.12,0-6.12S-6.12-3.38-6.12,0S-3.38,6.12,0,6.12 M0,6.37    c-3.513,0-6.37-2.857-6.37-6.37S-3.513-6.37,0-6.37S6.37-3.513,6.37,0S3.513,6.37,0,6.37L0,6.37z" fill="#FFFFFF"/>
		</g>
		<g xmlns="http://www.w3.org/2000/svg" id="Forklift_2_">
			<g>
				<path class="secondary" d="M-4.487-0.997c-0.19,0.149-0.14,0.22-0.14,0.22C-4.637-0.455-3.135-0.36-3.135-0.36l0.227,2.343     c-0.078-0.014-0.078,0.064-0.078,0.064c0,0.143-0.105,0.277-0.105,0.277c-0.064,0.128,0.29,0.099,0.29,0.099l2.217-0.078     C0.082,2.31,0.202,1.848,0.202,1.848l0.688-2.3C0.934-0.48,1.267-0.921,1.267-0.921L1.181-0.977l0.49-0.731L1.779-1.77v6.514     H2.35V1.401h0.303l0.217,0.78v0.321c0,0.201,0.159,0.159,0.159,0.159c0.086,0,0.086-0.086,0.086-0.086l-0.052-2.55     c0-0.231-0.073-0.249-0.073-0.249v-0.132c0-0.108-0.115-0.08,0.1-0.098L5.779-0.6c0.145-0.11-0.145-0.146-0.145-0.146     l-2.717,0.07c-0.02,0-0.037,0.014-0.051,0.032l0,0c0,0-0.001,0-0.002,0.001L2.75-0.505C2.704-0.478,2.667-0.441,2.631-0.4H2.544     v-0.597H2.351v-2.757H2.039C1.846-3.994,1.551-4.146,1.22-4.146c-0.483,0-0.892,0.325-1.016,0.77h-0.353     c-0.003-0.065-0.006-0.107-0.006-0.107l-2.478,0.041l-0.176,0.11C-2.84-3.763-3.201-4.104-3.64-4.104     c-0.459,0-0.833,0.373-0.833,0.833l-0.101,0.1c-0.02-0.051-0.045-0.061-0.045-0.061c-0.19,0.151-0.1,1.164-0.1,1.164     C-4.78-1.507-4.52-1.336-4.52-1.336L-4.487-0.997z M-2.406-0.292C-2.455-0.06-2.501,0.196-2.501,0.316     c0,0-0.081,0.392,0.119,0.411c0,0,0.252,0.031,0.321-0.26l0.172-0.723l0.722-0.111c0,0,0.521-0.029,0.37-0.31     c0,0-0.019-0.111-0.351-0.111l0.009-0.16l0.563-0.01l0.039-0.712L0.266-1.7l0.22,0.362L0.055-0.585L0.05-0.576l-0.358,0.524     l-0.279,0.025c0,0-0.123-0.062-0.106,0.042l0.685,0.495c0,0,0.128,0.032,0.07-0.071l-0.083-0.062l-0.046-0.113l0.243-0.117     L0.23,0.204L0.382,0.11L0.54-0.256l0.062,0.04L0.18,1.236l-0.078,0.01c0,0-0.083,0.078-0.085,0.149L0.012,1.493l-0.045-0.007     c0,0,0.05-0.308-0.023-0.342c0,0-0.093-0.076-0.113,0.087L-0.22,1.758c0,0-0.012,0.092,0.068,0.092c0,0,0.071,0.029,0.084-0.12     l0.028-0.201l0.085,0.01l0.013-0.146h0.071L0.033,1.761c0,0-0.087,0.395-0.416,0.388l-2.206,0.073l-0.21-2.514     C-2.744-0.274-2.406-0.292-2.406-0.292z" fill="#FFFFFF"/>
			</g>
		</g>
	</g></svg>