<?xml version="1.0" standalone="no"?>
<svg xmlns="http://www.w3.org/2000/svg" viewBox="-6.37 -6.37 12.74 12.74" color="#212121" width="75" height="75"><g transform="matrix(1 0 0 -1 0 0)">
		<g xmlns="http://www.w3.org/2000/svg">
			<path class="primary" fill="currentColor" d="M0-6.245c-3.444,0-6.245,2.802-6.245,6.246c0,3.443,2.802,6.244,6.245,6.244s6.245-2.801,6.245-6.244    C6.245-3.443,3.444-6.245,0-6.245z"/>
			<path class="secondary" d="M0,6.12c3.38,0,6.12-2.74,6.12-6.119C6.12-3.38,3.38-6.12,0-6.12s-6.12,2.74-6.12,6.121    C-6.12,3.38-3.38,6.12,0,6.12 M0,6.37c-3.513,0-6.37-2.857-6.37-6.369C-6.37-3.512-3.513-6.37,0-6.37s6.37,2.858,6.37,6.371    C6.37,3.513,3.513,6.37,0,6.37L0,6.37z" fill="#FFFFFF"/>
		</g>
		<g xmlns="http://www.w3.org/2000/svg">
			<path id="Foster-Miller_Talon_2_" class="secondary" d="M4.356-3.107c0,0.672-0.544,1.217-1.218,1.217L2.666-1.775l0.173,0.229    l-0.1,0.287H2.523l0.33,3.594l0.271,0.072l0.15,1.095L2.996,3.543V3.73h0.501l0.086,0.637L3.046,4.403v0.175    c0.114,0.022,0.2,0.123,0.2,0.243c0,0.137-0.11,0.248-0.246,0.248H2.642c-0.137,0-0.247-0.111-0.247-0.248    c0-0.105,0.067-0.197,0.162-0.23c0-0.07,0.002-0.158,0.002-0.158H2.266V3.744H2.48V3.622H2.201V2.451L2.48,2.334l-0.229-3.23    c0,0-0.565,0.015-0.823-0.078l0.015,0.866c0,0,0.702,0.308,0.279,0.944c0,0-0.063,0.094-0.208,0.2l0.021,0.738H1.327V1.166    L0.232,1.402v0.409h-0.415V1.375l-0.359,0.121l-0.106-0.008V1.55c0,0.009-0.003,0.015-0.006,0.021    c0.004,0.011,0.006,0.021,0.006,0.033c0,0.051-0.043,0.093-0.094,0.093s-0.092-0.042-0.092-0.093c0-0.053,0.041-0.094,0.092-0.094    c0-0.009,0-0.015,0-0.015v-0.01c0-0.002,0.001-0.004,0.001-0.004l-0.23-0.021v0.15h-0.258V1.503l0.036-0.036l-1.046,0.116v0.063    l0.086-0.007l0.021,0.079l-0.179,0.05l-0.296,0.171h0.414c0.096,0,0.175,0.079,0.175,0.176c0,0.092-0.07,0.166-0.159,0.174    c0.011,0.03,0.018,0.062,0.018,0.094v0.158h0.085v0.265h-0.085v0.065h0.221v0.172h0.05V3.25H-2.15    c0.02,0.045,0.032,0.098,0.032,0.154c0,0.16-0.093,0.289-0.207,0.289c-0.066,0-0.127-0.043-0.164-0.112    c-0.032,0.026-0.069,0.041-0.107,0.041c-0.115,0-0.207-0.13-0.207-0.29c0-0.087,0.026-0.164,0.07-0.218h-0.029V2.871h0.108V2.806    h-0.108V2.541h0.108V2.383c0-0.032,0.005-0.062,0.016-0.093h-0.569l-0.122,0.072v0.179h-1.44C-4.796,2.572-4.835,2.592-4.88,2.592    c-0.082,0-0.15-0.067-0.15-0.151c0-0.082,0.068-0.15,0.15-0.15c0.055,0,0.101,0.029,0.128,0.072h0.937l-0.043-0.179h-0.389    C-4.274,2.219-4.317,2.24-4.365,2.24c-0.082,0-0.15-0.067-0.15-0.15c0-0.082,0.068-0.15,0.15-0.15c0.06,0,0.113,0.035,0.137,0.086    h0.331L-3.9,2.019l0.259-0.229l0.003-0.008C-3.732,1.743-3.8,1.648-3.8,1.538c0-0.146,0.118-0.266,0.266-0.266    c0.038,0,0.072,0.007,0.104,0.021l0.019-0.041c0,0,0.079-0.48,0.443-0.336c0.365,0.142,0.551,0.286,0.551,0.286l0.807-0.124    C-1.648,1.04-1.677,0.99-1.688,0.937C-1.706,0.95-1.729,0.959-1.751,0.959c-0.075,0-0.137-0.083-0.137-0.187    c0-0.102,0.062-0.186,0.137-0.186h0.003c0.024-0.137,0.173-0.243,0.352-0.243c0.195,0,0.354,0.126,0.354,0.283    c0,0.062-0.025,0.12-0.07,0.168v0.081c0,0.047-0.011,0.092-0.031,0.131l0.124-0.02l0.187-0.031V0.823    c-0.052,0-0.093-0.042-0.093-0.093c0-0.052,0.041-0.094,0.093-0.094c0.051,0,0.092,0.042,0.092,0.094    c0,0.032-0.017,0.061-0.043,0.078v0.14l0.401-0.067l0.122,0.027l-0.129-1.417l-0.509-0.609l-0.608-0.164v0.15l0.451,0.071v0.76    l-0.322,0.164l-0.74-0.043v0.874h-0.071L-2.21-0.121l-0.054-0.07C-2.389-0.032-2.584,0.07-2.803,0.07    c-0.381,0-0.688-0.307-0.688-0.687c0-0.283,0.171-0.526,0.417-0.632L-3.103-1.34l-0.251-0.02L-3.67-1.217v-0.064l0.517-0.243    l-0.079-0.25c-0.673,0-1.218-0.546-1.218-1.218c0-0.673,0.545-1.218,1.218-1.218c0.109,0,0.215,0.015,0.315,0.042l0.84-0.544    C-1.934-5.328-1.38-5.786-0.72-5.786c0.234,0,0.455,0.059,0.649,0.161l3.475,1.33C3.521-4.27,3.633-4.227,3.735-4.169l0,0l0,0    C4.106-3.961,4.356-3.563,4.356-3.107z" fill="#FFFFFF"/>
		</g>
	</g></svg>