<?xml version="1.0" standalone="no"?>
<svg xmlns="http://www.w3.org/2000/svg" viewBox="-6.37 -6.37 12.74 12.74" color="#212121" width="75" height="75"><g transform="matrix(1 0 0 -1 0 0)">
		<g xmlns="http://www.w3.org/2000/svg">
			<circle class="primary" fill="currentColor" cx="0" cy="0" r="6.245"/>
			<path class="secondary" d="M0,6.12c3.38,0,6.12-2.74,6.12-6.12S3.38-6.12,0-6.12S-6.12-3.38-6.12,0S-3.38,6.12,0,6.12 M0,6.37    c-3.513,0-6.37-2.857-6.37-6.37S-3.513-6.37,0-6.37S6.37-3.513,6.37,0S3.513,6.37,0,6.37L0,6.37z" fill="#FFFFFF"/>
		</g>
		<path xmlns="http://www.w3.org/2000/svg" id="Front_Loader_1_" class="secondary" d="M4.627-2.912C4.564-2.923,4.538-2.898,4.493-2.893C4.497-2.831,4.46-2.812,4.473-2.74   C4.404-2.738,4.329-2.725,4.254-2.72L4.046-1.614C3.962-1.496,2.488-1.396,2.488-1.396s0,0.374,0,0.423   c0,0.047,0,0.085,0.067,0.104c0.066,0.02-0.01,0.116-0.01,0.116C2.401-0.735,2.383-0.869,2.383-0.869L2.364-1.224   c-0.097,0.067-0.25-0.02-0.25-0.02v0.192l0.066,0.01c0.03,0.029-0.076,0.106-0.076,0.106S2.009-0.897,1.912-0.945   C1.815-0.994,1.836-1.051,1.836-1.051l0.076-0.01L1.902-1.32L1.796-1.31L1.782-0.111h0.127L1.884-0.028L0.106,0.215L-0.79-0.111   l0.064-0.07L-0.7-0.309L-0.752-0.36l-0.025-0.167L-0.854-0.54l-0.294,0.652l0.051,0.448l0.115,0.115L-1.07,0.893   c0,0-0.437,0.013-0.525,0.051c-0.09,0.039-0.153,0.192-0.562,0.205c-0.41,0.013-0.781,0.275-0.781,0.275s0.218,0.441,0.242,0.544   C-2.67,2.07-2.556,2.44-2.542,2.479c0.014,0.038,0.523,0.473,0.523,0.473s-0.037,0.781-0.062,0.825   c-0.026,0.045-0.102-0.268-0.102-0.268s-1.709,0.25-1.812,0.275c-0.102,0.025-0.281,0.058-0.402,0.23   c-0.122,0.173-0.07-0.013-0.07-0.013s-0.007,0.032,0.082-0.185c0.09-0.217-0.007-0.224-0.108-0.077   c-0.102,0.147-0.05-0.006-0.05-0.006s0.076-0.134,0.114-0.289c0.037-0.153-0.108-0.07-0.166,0.026s-0.069,0.038-0.044-0.032   c0.025-0.07-0.014,0.039,0.063-0.154C-4.5,3.093-4.59,3.105-4.673,3.233C-4.755,3.362-4.717,3.24-4.717,3.24   s0.026-0.044,0.071-0.186c0.045-0.141-0.007-0.128-0.103,0C-4.845,3.183-4.8,3.042-4.8,3.042s0.026-0.045,0.104-0.198   c0.076-0.154-0.021-0.141-0.11,0c-0.089,0.14-0.063,0-0.063,0s0.029,0.009,0.087-0.135s-0.029-0.23-0.106-0.077   c-0.076,0.153-0.058,0-0.058,0C-4.899,2.546-4.87,2.431-4.87,2.431c-0.058-0.077-0.115,0.086-0.115,0.086   c0.048-0.288,0.269-0.432,0.269-0.432l0.32-0.629C-4.23,1.136-3.795,1.2-3.795,1.2c0.013-0.243,0.421-0.511,0.511-0.588   c0.089-0.076,0.627-0.486,0.627-0.486C-2.631-0.041-2.44-0.156-2.44-0.156l0.64-1.087l-0.243-0.013l-0.013-0.192   c0,0,0.318-0.179,0.396-0.281c0.077-0.102,0.204-0.243,0.127-0.269C-1.609-2.024-1.84-1.985-1.84-1.985l-0.242-0.063l0.408-0.115   L-1.8-2.317c-0.135-0.019-0.074-0.169-0.23-0.192c-0.058,0.012,0.018,0.041,0,0.077c-0.215,0.048-0.349,0.031-0.575,0.038   c-0.031-0.072-0.126-0.079-0.173-0.134c-0.054-0.008,0.048,0.071-0.02,0.077C-2.9-2.469-2.892-2.6-2.971-2.644   c-0.05-0.006,0.018,0.108-0.057,0.077c-0.078-0.07-0.051-0.176-0.134-0.268c-0.073,0.041,0.059,0.062,0,0.096   c-0.171-0.022-0.142-0.243-0.27-0.307c-0.12-0.415-0.061-0.945,0.251-1.229c0.045-0.041,0.312-0.211,0.383-0.23   c0.099-0.024,0.209,0.025,0.307,0c0.183-0.047,0.298-0.242,0.48-0.307c0.153-0.055,0.526-0.064,0.748-0.038   c0.519,0.062,0.811,0.464,0.959,0.94c0.188,0.059,0.357-0.097,0.633-0.058c0.166-0.457,1.002-0.665,1.459-0.327   c0.022,0.063,0.058,0.11,0.114,0.136c0.133-0.207,0.351-0.499,0.729-0.556C3.088-4.784,3.6-4.683,3.686-4.331   c0.037,0.027,0.068,0.059,0.097,0.096c-0.012,0.118,0.044,0.17,0.096,0.268c0.004,0.042-0.017,0.061-0.058,0.058   C3.85-3.829,3.925-3.796,3.897-3.66C3.868-3.659,3.825-3.67,3.821-3.64v0.057c0.193,0.12,0.443-0.021,0.652,0.039   C4.722-3.475,4.641-3.203,4.627-2.912z M1.722-0.14l0.027-1.151h-0.27L1.46-0.111L1.722-0.14z M1.289-0.111L1.26-1.252l-0.489-0.01   l-0.02,1.208L1.289-0.111z M-0.141-0.168l0.298,0.115l0.412,0.01L0.551-0.264l-0.01-1.641l-0.72-0.029L-0.141-0.168z" fill="#FFFFFF"/>
	</g></svg>