<?xml version="1.0" standalone="no"?>
<svg xmlns="http://www.w3.org/2000/svg" viewBox="-6.37 -6.37 12.74 12.74" color="#212121" width="75" height="75"><g transform="matrix(1 0 0 -1 0 0)">
		<g xmlns="http://www.w3.org/2000/svg">
			<path class="primary" fill="currentColor" d="M0-6.245c-3.444,0-6.245,2.802-6.245,6.246c0,3.443,2.802,6.244,6.245,6.244s6.245-2.801,6.245-6.244    C6.245-3.443,3.444-6.245,0-6.245z"/>
			<path class="secondary" d="M0,6.12c3.38,0,6.12-2.74,6.12-6.119C6.12-3.38,3.38-6.12,0-6.12s-6.12,2.74-6.12,6.121    C-6.12,3.38-3.38,6.12,0,6.12 M0,6.37c-3.513,0-6.37-2.857-6.37-6.369C-6.37-3.512-3.513-6.37,0-6.37s6.37,2.858,6.37,6.371    C6.37,3.513,3.513,6.37,0,6.37L0,6.37z" fill="#FFFFFF"/>
		</g>
		<g xmlns="http://www.w3.org/2000/svg">
			<path class="secondary" d="M1.754,3.037C1.751,3.003,1.748,2.968,1.742,2.935C1.739,2.903,1.737,2.884,1.733,2.868    C1.73,2.853,1.719,2.838,1.702,2.826C1.688,2.813,1.671,2.808,1.653,2.808c0,0-0.005,0.002-0.006,0.003c-0.004,0-0.007,0-0.007,0    c-0.008,0.002-0.018,0.004-0.033,0.01C1.593,2.824,1.578,2.829,1.564,2.833C1.55,2.838,1.534,2.842,1.521,2.846    s-0.02,0.007-0.022,0.01L0.7,3.18C0.666,3.188,0.634,3.194,0.603,3.202C0.581,3.208,0.56,3.216,0.536,3.223V2.337h0.025h0.35    l0.082,0.198h0.729l0.035,0.541C1.757,3.062,1.755,3.05,1.754,3.037z" fill="#FFFFFF"/>
			<path class="secondary" d="M5.225,0.436l-0.141,0.3H4.946l0.021,0.159h0.097l0.542,0.841l-0.342,0.2L4.967,1.475L4.923,1.677    l-1.158,0.18l-0.1-0.061l-0.181,0.14h-0.74l-0.321,0.58h-0.58l0.04,2.437l-0.1-1.51c0,0,0,0.002-0.001,0.003    C1.78,3.452,1.78,3.462,1.774,3.47C1.772,3.479,1.769,3.485,1.762,3.493C1.758,3.5,1.751,3.504,1.742,3.504L0.286,3.587    c-0.005,0-0.006,0.002-0.008,0.006C0.274,3.601,0.271,3.604,0.271,3.61C0.269,3.618,0.267,3.623,0.266,3.63    C0.265,3.634,0.263,3.641,0.261,3.643c-0.022,0-0.044,0.007-0.058,0.021C0.189,3.675,0.178,3.691,0.17,3.71    C0.16,3.729,0.153,3.749,0.148,3.77C0.143,3.792,0.137,3.812,0.131,3.83C0.124,3.848,0.116,3.865,0.105,3.878    C0.098,3.892,0.083,3.897,0.066,3.9l-0.108,0.005l-0.604-0.04c-0.025-0.004-0.048-0.007-0.064-0.01    c-0.016-0.002-0.028-0.004-0.041-0.008c-0.011-0.004-0.022-0.009-0.035-0.019C-0.796,3.82-0.81,3.805-0.827,3.784l-0.006-0.128    c-0.003,0-0.005,0-0.009-0.004c-0.002-0.003-0.004-0.004-0.006-0.003C-0.849,3.65-0.849,3.656-0.85,3.664    c-0.001,0.007-0.003,0.013-0.003,0.015C-0.854,3.68-0.858,3.68-0.859,3.682l-0.003-0.003c-0.003,0-0.01-0.002-0.02-0.005    C-0.891,3.673-0.899,3.67-0.909,3.669c-0.011-0.004-0.02-0.005-0.029-0.007c-0.009-0.003-0.014-0.004-0.016-0.004    c-0.002,0.011-0.01,0.021-0.019,0.031C-0.984,3.7-0.993,3.71-0.998,3.714l-0.016,0.001c-0.01,0-0.018,0.002-0.025,0.002    C-1.046,3.719-1.055,3.72-1.062,3.72L-1.08,3.721h-0.021C-1.11,3.722-1.117,3.722-1.124,3.722c-0.01,0-0.018,0-0.025,0    L-1.16,3.724C-1.412,3.726-1.661,3.73-1.906,3.73c-0.247,0.003-0.495,0.004-0.745,0.004c-0.007-0.001-0.013-0.004-0.02-0.01    C-2.677,3.72-2.683,3.714-2.688,3.71c-0.005,0.01-0.007,0.019-0.011,0.024c-0.005,0.008-0.008,0.015-0.015,0.019    c-0.004,0.005-0.01,0.012-0.016,0.018c-0.005,0.004-0.009,0.013-0.017,0.023C-2.753,3.8-2.758,3.806-2.767,3.819    c-0.009,0.011-0.02,0.023-0.028,0.038C-2.806,3.871-2.814,3.886-2.822,3.9C-2.83,3.913-2.838,3.921-2.841,3.926l-0.085,0.007    l-0.017-0.301l-0.014-0.005c-0.043,0-0.081,0-0.11,0C-3.098,3.628-3.129,3.628-3.16,3.628C-3.19,3.63-3.217,3.631-3.238,3.632    l-0.036,0.001c-0.019,0.001-0.04,0.001-0.064,0.002c-0.024,0-0.047,0.005-0.071,0.005l-0.052,0.003L-3.5,3.644    c-0.016,0-0.032,0.004-0.049,0.004c-0.015,0-0.03,0.001-0.042,0.002h-0.02l-0.016,0.013h-0.006l-0.024,0.001l-0.012,0.001h-0.013    l-0.035,0.004h-0.01C-3.74,3.67-3.758,3.67-3.783,3.67c-0.023-0.001-0.044-0.001-0.061-0.001C-3.86,3.667-3.869,3.667-3.873,3.667    l-0.009-0.009L-3.887,3.56c0.005-0.001,0.018-0.005,0.029-0.006c0.015-0.001,0.03-0.004,0.047-0.005    c0.017-0.001,0.03-0.003,0.046-0.008c0.014,0,0.026-0.001,0.031-0.001l0.01-0.001h0.008c0,0,0.004,0.002,0.009,0.011    c0.003,0,0.005-0.002,0.01-0.009c0.003-0.002,0.005-0.003,0.011-0.003c0.013-0.001,0.021-0.003,0.023-0.005h0.021    c0.011-0.001,0.018,0.004,0.019,0.011c0.01,0,0.027-0.003,0.054-0.003S-3.513,3.54-3.482,3.54C-3.454,3.538-3.428,3.538-3.4,3.538    c0.027,0,0.046-0.001,0.058-0.001l0.024-0.004c0.015,0,0.03,0,0.049-0.001c0.02,0,0.038,0,0.059-0.001l0.042-0.002l0.039-0.005    c0.015,0,0.032-0.001,0.051-0.002c0.019-0.001,0.037-0.002,0.053-0.004l0.037-0.001c-0.006-0.006-0.01-0.011-0.01-0.017    c-0.004-0.003-0.004-0.009-0.004-0.018C-3.003,3.473-3,3.465-2.992,3.461c0.005-0.002,0.013-0.007,0.019-0.008    C-2.967,3.45-2.96,3.448-2.954,3.445c0.007-0.002,0.008-0.006,0.007-0.017l0.06-0.001l0.004,0.082l0.141-0.01    c0-0.002,0.003-0.008,0.01-0.017c0.007-0.008,0.016-0.018,0.024-0.027C-2.7,3.444-2.689,3.429-2.674,3.416l1.647-0.094    c0.006,0,0.015,0.002,0.02,0.005C-1.003,3.336-1,3.341-0.993,3.348c0.006,0.006,0.01,0.013,0.014,0.02    C-0.976,3.375-0.972,3.38-0.97,3.384c0.002,0,0.009-0.002,0.019-0.005c0.007-0.004,0.018-0.008,0.025-0.011    c0.01-0.002,0.02-0.007,0.027-0.01c0.009-0.002,0.016-0.005,0.018-0.007h0.005h0.003c0.003,0.002,0.006,0.007,0.009,0.013    c0.003,0.008,0.003,0.013,0.004,0.015c0.002-0.007,0.009-0.011,0.018-0.018c0.006-0.004,0.016-0.01,0.024-0.014    c0.01-0.006,0.018-0.008,0.026-0.012c0.006-0.003,0.01-0.006,0.01-0.006l-0.013-0.183c-0.002-0.001-0.008-0.004-0.008-0.007    c0-0.002,0-0.005-0.002-0.012c-0.001-0.007,0.003-0.013,0.01-0.015C-0.789,3.11-0.781,3.107-0.778,3.1l-0.001-0.007    c0-0.005,0-0.009,0-0.014c0-0.003,0.001-0.011,0-0.014V3.058c-0.007-0.08-0.019-0.16-0.041-0.243    c-0.023-0.083-0.049-0.16-0.079-0.233h-0.859v0.105h-0.705V1.321h0.795V1.034h0.749V0.766h-1.575l-0.39-0.452    c0,0-0.195,0.084-0.285-0.121l-0.603,0.229c0,0-0.18,0.023-0.237-0.229h-0.227L-4.31,0.105L-5.137,0.48    c0,0-0.136,0.015-0.194-0.137L-5.587,0.45l-0.166-0.405l0.217-0.072c-0.008-0.002-0.022-0.021-0.051-0.094l-0.166,0.092    c0,0-0.27-0.181-0.149-0.361l0.916-0.477l0.068-0.26h0.275l0.038-0.54c-0.344-0.005-0.622-0.302-0.622-0.667    c0-0.315,0.206-0.581,0.481-0.65l1.425-0.765l1.717,0.361l0.155-0.342l2.051-0.839L4.164-3.79l0.743,0.817    c0.178,0.146,0.297,0.402,0.297,0.696c0,0.452-0.281,0.817-0.629,0.817c-0.06,0-0.113-0.007-0.166-0.027L4.395-1.446v0.18    l0.291,0.08v0.14h0.18l-0.2,0.461L4.626-0.12H4.084l0.021,0.435L5.225,0.436z M0.993,2.535L0.911,2.337h-0.35H0.536v0.886    C0.56,3.216,0.581,3.208,0.603,3.202C0.634,3.194,0.666,3.188,0.7,3.18l0.799-0.324c0.003-0.003,0.01-0.006,0.022-0.01    C1.534,2.842,1.55,2.838,1.564,2.833c0.014-0.004,0.028-0.009,0.043-0.012C1.622,2.815,1.631,2.813,1.64,2.81c0,0,0.003,0,0.007,0    c0.001,0,0.006-0.002,0.006-0.002c0.018,0,0.034,0.006,0.049,0.019C1.719,2.838,1.73,2.853,1.733,2.868    c0.004,0.016,0.006,0.035,0.009,0.066c0.006,0.033,0.009,0.068,0.012,0.103C1.755,3.05,1.757,3.062,1.758,3.076L1.723,2.535H0.993    z" fill="#FFFFFF"/>
		</g>
	</g></svg>