<?xml version="1.0" standalone="no"?>
<svg xmlns="http://www.w3.org/2000/svg" viewBox="-6.47 -6.37 12.94 12.74" color="#212121" width="75" height="75"><g transform="matrix(1 0 0 -1 0 0)">
		<polygon xmlns="http://www.w3.org/2000/svg" points="-6.468,-0.005 -6.462,0.005 -6.47,0.001  "/>
		<g xmlns="http://www.w3.org/2000/svg">
			<path class="primary" fill="currentColor" d="M0.1-6.245c-3.444,0-6.245,2.802-6.245,6.246c0,3.443,2.802,6.244,6.245,6.244s6.245-2.801,6.245-6.244    C6.345-3.443,3.543-6.245,0.1-6.245z"/>
			<path class="secondary" d="M0.1,6.12c3.38,0,6.12-2.74,6.12-6.119C6.22-3.38,3.48-6.12,0.1-6.12s-6.12,2.74-6.12,6.121    C-6.021,3.38-3.28,6.12,0.1,6.12 M0.1,6.37c-3.513,0-6.37-2.857-6.37-6.369c0-3.513,2.857-6.371,6.37-6.371s6.37,2.858,6.37,6.371    C6.47,3.513,3.612,6.37,0.1,6.37L0.1,6.37z" fill="#FFFFFF"/>
		</g>
		<path xmlns="http://www.w3.org/2000/svg" class="secondary" d="M5.665-0.445v0.264c0,0,0.01,0.138-0.266,0.229L5.231,0.109C5.22,0.755,5.225,1.404,5.254,2.051   C5.272,2.416,5.298,2.779,5.34,3.143c0.046,0.362-0.093-0.726-0.115-1.091c-0.039-0.64-0.053-1.281-0.05-1.922L2.396,1.137H1.645   v0.069h-0.74l-0.08,0.103h-1.583L-0.884,1.24h-0.195v0.068h-0.504V1.5l0.102,0.175l-0.004-0.147h0.16v0.147h0.132l0.074-0.103   l0.046,0.069h0.361V1.71h0.234c0,0,0.064,0.006,0.064,0.179c0,0.171-0.064,0.148-0.064,0.148H-0.73L-1.583,2.18l-0.356-0.12   l-0.028-0.063l-0.086-0.052h-0.555l-0.06,0.046h-0.308V1.837l0.119-0.034h0.166l0.053,0.027h0.573V1.768h0.319V1.71h0.094   L-1.818,1.5h0.057V1.343l-0.104-0.114l0.161-0.04c0,0-0.132-0.028-0.171-0.274L-2.003,0.06L-2.1-0.078h-0.063v0.51h0.039V0.226   c0,0,0.024-0.099,0.053,0v0.526c0,0-0.033,0.03-0.033-0.034l-0.024-0.223l-0.04,0.016c0,0-0.091,0.064-0.098-0.067h0.047v-0.511   c0,0-0.711-0.08-0.963-0.131L-5.04-0.594c0,0-0.104-0.029-0.097-0.178V-1.06l-0.075-0.087v-0.067h0.063v-0.103V-1.38l-0.099-0.005   l-0.051,0.05H-5.58v-0.637h0.183v0.053h0.185c0,0,0.098-0.006,0.183,0.138l0.003,0.001C-5.07-1.898-5.092-2.023-5.092-2.155   c0-0.606,0.492-1.1,1.1-1.1c0.39,0,0.73,0.202,0.927,0.507c0.287,0.083,0.523,0.279,0.662,0.536h4.19l0.52,0.117   c0.071-0.322,0.283-0.59,0.569-0.738c0.196-0.29,0.529-0.479,0.906-0.479c0.609,0,1.103,0.492,1.103,1.1   c0,0.131-0.024,0.256-0.065,0.371l0.19,0.008h0.482l0.114,0.068v0.247h0.08v0.91h0.092v0.162L5.665-0.445L5.665-0.445z    M-4.925-1.572v0.003l0.002,0.002C-4.924-1.568-4.924-1.569-4.925-1.572z" fill="#FFFFFF"/>
	</g></svg>