<?xml version="1.0" standalone="no"?>
<svg xmlns="http://www.w3.org/2000/svg" viewBox="-6.37 -6.37 12.74 12.74" color="#212121" width="75" height="75"><g transform="matrix(1 0 0 -1 0 0)">
		<g xmlns="http://www.w3.org/2000/svg">
			<path class="primary" fill="currentColor" d="M0-6.245c-3.444,0-6.245,2.802-6.245,6.246c0,3.443,2.802,6.244,6.245,6.244s6.245-2.801,6.245-6.244    C6.245-3.443,3.444-6.245,0-6.245z"/>
			<path class="secondary" d="M0,6.12c3.38,0,6.12-2.74,6.12-6.119C6.12-3.38,3.38-6.12,0-6.12s-6.12,2.74-6.12,6.121    C-6.12,3.38-3.38,6.12,0,6.12 M0,6.37c-3.513,0-6.37-2.857-6.37-6.369C-6.37-3.512-3.513-6.37,0-6.37s6.37,2.858,6.37,6.371    C6.37,3.513,3.513,6.37,0,6.37L0,6.37z" fill="#FFFFFF"/>
		</g>
		<g xmlns="http://www.w3.org/2000/svg">
			<path id="Jeep_2_" class="secondary" d="M-5.64-0.956c0,0-0.367-1.418,1.035-1.752c0,0,1.256-0.154,1.615,0.702    c0,0,0.203,0.448,0.082,0.781l0.204-0.235c0,0,0.08-0.172,0.48-0.172S1.617-1.73,1.617-1.73s0.294,0.188,0.539,0.547    c0.243,0.358,0.243,0.358,0.243,0.358s-0.38-0.864-0.015-1.386c0.367-0.522,0.782-0.758,1.361-0.758s0.979,0.27,1.158,0.488    c0.18,0.22,0.399,0.604,0.342,1.142h0.547L5.79,1.483L2.17,1.48L1.911,1.01l0.025,1.027L1.707,2.062L1.308,1.034l-1.501,0.033    L-0.325,0.9l0.028-0.471c0,0-0.132,0.098-0.148,0.098c-0.019,0-0.151,0.143-0.151,0.143l-0.235,0.085l0.122,0.168l-0.053,0.046    l-0.086-0.161c0,0-0.035,0.173-0.035,0.207c0,0.035,0.014,0.195,0.014,0.195l0.279,0.207c0,0,0.076,0.068,0.133,0.068    s0.212,0.104,0.212,0.104l0.094,0.023l0.073,0.022c0,0,0.252-0.293,0.362-0.293c0.109,0-0.073,0.443-0.172,0.563    C0.013,2.026-0.319,2.457-0.401,2.422c0,0-0.16-0.046,0.092-0.471L-0.36,1.927V1.825c0,0-0.081-0.139-0.109-0.139    c-0.029,0-0.178-0.062-0.178-0.062s-0.139,0.057-0.144,0.114c-0.005,0.059-0.069,0.11-0.093,0.116    c-0.021,0.005-0.005,0.212,0.006,0.247C-0.864,2.135-0.539,3.33-0.539,3.33s0.007,0.174-0.177,0.144    c-0.186-0.028-0.771-0.079-0.771-0.079s-0.086,0.062-0.201-0.351c-0.114-0.413-0.39-1.552-0.39-1.552L-4.4,1.44    c0,0-1.027-0.373-1.143-0.477C-5.656,0.86-5.674,0.606-5.674,0.584c0-0.023-0.068,0.006-0.085-0.006    c-0.019-0.011-0.162-0.275-0.115-0.43c0.046-0.156,0.046-0.156,0.046-0.156s-0.133-0.068-0.133-0.131    c0-0.064,0.144-0.127,0.235-0.098c0,0,0.109,0.217,0.138,0.223C-5.559-0.008-5.45,0.01-5.38-0.105    c0.068-0.114,0.05-0.172,0.05-0.172l-0.097,0.079L-5.65-0.265l0.027-0.26l0.138,0.024L-5.49-0.564l-0.367-0.208l0.046-0.229    L-5.64-0.956z" fill="#FFFFFF"/>
		</g>
	</g></svg>