<?xml version="1.0" standalone="no"?>
<svg xmlns="http://www.w3.org/2000/svg" viewBox="-6.37 -6.37 12.74 12.74" color="#212121" width="75" height="75"><g transform="matrix(1 0 0 -1 0 0)">
		<g xmlns="http://www.w3.org/2000/svg">
			<path class="primary" fill="currentColor" d="M0-6.245c-3.444,0-6.245,2.802-6.245,6.246c0,3.443,2.802,6.244,6.245,6.244s6.245-2.801,6.245-6.244    C6.245-3.443,3.444-6.245,0-6.245z"/>
			<path class="secondary" d="M0,6.12c3.38,0,6.12-2.74,6.12-6.119C6.12-3.38,3.38-6.12,0-6.12s-6.12,2.74-6.12,6.121    C-6.12,3.38-3.38,6.12,0,6.12 M0,6.37c-3.513,0-6.37-2.857-6.37-6.369C-6.37-3.512-3.513-6.37,0-6.37s6.37,2.858,6.37,6.371    C6.37,3.513,3.513,6.37,0,6.37L0,6.37z" fill="#FFFFFF"/>
		</g>
		<path xmlns="http://www.w3.org/2000/svg" id="LAV_25_2_" class="secondary" d="M5.931,1.168c0-0.01-0.023-0.099-0.067-0.271c-0.045-0.17-0.066-0.26-0.066-0.268V0.543   c0.077,0.004,0.115-0.046,0.115-0.151c0-0.079-0.01-0.127-0.03-0.145c-0.045,0.013-0.106,0-0.182-0.039   c0.003-0.01,0.03-0.022,0.078-0.039c0.037-0.014,0.054-0.052,0.054-0.112c0-0.015-0.014-0.065-0.05-0.158v-0.013   c0.043,0.026,0.068,0.038,0.081,0.038c0.008,0,0.03-0.021,0.067-0.064C5.865-0.243,5.807-0.293,5.754-0.293   c-0.021,0-0.049,0.01-0.085,0.026C5.66-0.23,5.646-0.176,5.625-0.102C5.61-0.137,5.601-0.224,5.595-0.365   c0.006-0.043,0.007-0.113,0.007-0.21c0-0.005-0.002-0.013-0.009-0.026c-0.006-0.014-0.01-0.024-0.01-0.033   c0-0.005,0.004-0.037,0.01-0.1C5.6-0.795,5.602-0.839,5.602-0.865c0.076-0.048,0.116-0.101,0.116-0.158   c0-0.043-0.018-0.073-0.056-0.092c-0.061,0-0.153-0.011-0.28-0.031C5.378-1.152,5.335-1.193,5.251-1.275   C5.169-1.356,5.11-1.397,5.077-1.397H4.432v-0.27L4.414-1.688c0.008-0.064-0.012-0.146-0.062-0.243   C4.351-1.952,4.341-1.98,4.329-2.016c-0.041-0.114-0.128-0.23-0.261-0.35C4.018-2.409,3.954-2.452,3.872-2.49   c-0.13-0.066-0.266-0.099-0.407-0.099c-0.143,0-0.28,0.034-0.414,0.104c-0.175,0.089-0.299,0.19-0.372,0.31   C2.59-2.02,2.538-1.885,2.521-1.766c-0.012,0-0.019,0.009-0.019,0.026v0.335L2.484-1.392H2.411c0-0.004-0.004-0.013-0.012-0.026   C2.431-1.755,2.341-2.04,2.126-2.272c-0.195-0.211-0.43-0.315-0.701-0.315c-0.211,0-0.401,0.066-0.572,0.197   c-0.196,0.149-0.315,0.35-0.36,0.604c-0.004,0.035-0.012,0.092-0.02,0.171C0.461-1.536,0.46-1.482,0.462-1.456   c0.01,0.017,0.012,0.029,0.012,0.038L0.45-1.392h-0.48C-0.038-1.4-0.052-1.41-0.066-1.424c0.013-0.025,0.015-0.102,0.013-0.224   c0-0.004-0.005-0.012-0.013-0.02c0-0.031-0.003-0.066-0.007-0.104c-0.013-0.057-0.049-0.154-0.109-0.29   c-0.024-0.044-0.081-0.123-0.171-0.237c-0.065-0.066-0.165-0.129-0.305-0.19c-0.109-0.044-0.226-0.066-0.353-0.066   c0.05,0-0.055,0.016-0.312,0.046c-0.006,0.004-0.023,0.011-0.047,0.02c-0.109,0.03-0.226,0.118-0.347,0.264   C-1.84-2.082-1.908-1.952-1.925-1.839c0,0.011-0.004,0.027-0.014,0.057C-1.95-1.753-1.955-1.734-1.955-1.726v0.322   c-0.021,0.009-0.044,0.013-0.072,0.013c-0.047,0-0.068-0.011-0.068-0.032c0.016-0.056,0.021-0.131,0.019-0.224   c-0.005-0.004-0.011-0.012-0.019-0.02c-0.012-0.268-0.121-0.488-0.328-0.664c-0.183-0.158-0.382-0.237-0.598-0.237   c-0.239,0-0.453,0.085-0.644,0.257C-3.872-2.124-3.98-1.885-3.987-1.596C-3.994-1.587-3.996-1.575-4-1.562   c0.02,0.039,0.028,0.071,0.028,0.099c0,0.048-0.064,0.071-0.2,0.071c-0.007,0-0.063,0-0.169,0   c-0.105-0.004-0.163-0.006-0.171-0.006c-0.027,0-0.11,0.059-0.25,0.178c-0.003,0-0.173,0.153-0.506,0.46   C-5.709-0.355-5.93-0.127-5.93-0.076c0,0.027,0.02,0.08,0.061,0.159c0.012,0.013,0.03,0.034,0.054,0.066c0,0.004,0,0.015,0,0.031   c0,0.009-0.002,0.023-0.008,0.043c-0.006,0.021-0.013,0.035-0.019,0.044C-5.848,0.275-5.857,0.286-5.869,0.3   c-0.004-0.005-0.006,0.002-0.006,0.02c0,0.022,0.05,0.059,0.151,0.112h0.038c0.021-0.07,0.059-0.169,0.114-0.297   C-5.523,0.15-5.479,0.164-5.44,0.181c0.038,0.018,0.088,0.053,0.148,0.1C-5.307,0.343-5.288,0.42-5.23,0.517   c-0.009,0.018-0.015,0.049-0.019,0.092c0.012,0.022,0.055,0.033,0.128,0.033c0.061,0,0.102-0.011,0.122-0.033   c-0.02-0.026-0.022-0.062-0.005-0.111c0.003,0,0.036,0.037,0.102,0.111v0.264c0.074,0.044,0.096,0.108,0.066,0.197   c0.021,0.04,0.039,0.061,0.057,0.061c0.011,0,0.026-0.01,0.049-0.028l0.011-0.085c0.009,0.005,0.013-0.003,0.013-0.021V0.589   c0.012-0.013,0.026-0.02,0.042-0.02c0.012,0,0.051,0.013,0.112,0.039c0.063,0.026,0.156,0.07,0.278,0.132   c0.015,0.01,0.029,0.04,0.043,0.093c0.198,0.097,0.307,0.145,0.328,0.145c0.004,0,0.026-0.005,0.066-0.014   c0.041-0.009,0.066-0.013,0.078-0.013c0.005,0,0.02,0,0.044,0c0.023,0.004,0.042,0.006,0.055,0.006c0.005,0.014,0,0.039-0.013,0.08   c0.005,0.004,0.011,0.009,0.02,0.012c0.008,0.005,0.014,0.01,0.018,0.014c0.057-0.061,0.088-0.092,0.091-0.092   c0.038,0,0.055,0.031,0.051,0.092c0,0.062,0.018,0.093,0.053,0.093c-0.012,0,0.011,0,0.067,0C-3.32,1.15-3.241,1.148-3.135,1.148   c0.014-0.035,0.032-0.052,0.048-0.052c-0.034,0,0.042,0.039,0.226,0.118c0.085,0.038,0.167,0.059,0.243,0.059   c0.062,0,0.13-0.016,0.204-0.045c0.075-0.031,0.11-0.048,0.106-0.048c0.009,0,0.076,0.005,0.203,0.014   c0.129,0.01,0.196,0.014,0.206,0.014c0.04,0,0.064-0.01,0.075-0.03s0.029-0.029,0.058-0.029c0.052,0,0.081,0.017,0.085,0.05   C-1.675,1.23-1.653,1.252-1.613,1.26l0.894,0.014c0.086,0,0.134-0.012,0.145-0.036c0.009-0.024,0.051-0.036,0.118-0.036   c0.265,0,0.438,0.007,0.519,0.02c-0.01,0.033-0.025,0.09-0.044,0.171c-0.021,0.077-0.048,0.113-0.08,0.104l-0.487-0.013   c-0.045,0-0.068,0.002-0.072,0.007c-0.058,0.043-0.14,0.09-0.244,0.138l-1.877,0.013c-0.035-0.013-0.08-0.02-0.132-0.02   c-0.009,0-0.044,0.005-0.107,0.016c-0.063,0.011-0.098,0.016-0.106,0.016S-3.12,1.65-3.159,1.642   C-3.2,1.633-3.224,1.629-3.231,1.629c-0.037,0-0.065,0.008-0.086,0.024v0.166c0.021,0.021,0.045,0.032,0.073,0.032   c0.008,0,0.044-0.003,0.103-0.01c0.062-0.007,0.097-0.01,0.104-0.01c0.008,0,0.023,0.007,0.047,0.02   c0.021,0.014,0.034,0.021,0.038,0.021c0.024,0,0.073-0.004,0.147-0.014c0.027-0.019,0.044-0.026,0.047-0.026h1.735   c0.095,0,0.153,0.005,0.178,0.014c0.057,0.043,0.138,0.101,0.243,0.171c0.005,0.004,0.03,0.006,0.08,0.006   c0.007,0.041,0.015,0.084,0.023,0.133c0.009,0.048,0.034,0.076,0.08,0.085l0.475-0.177C0.151,2.146,0.25,2.227,0.347,2.307   c0.026,0.021,0.092,0.032,0.202,0.032c0.089,0,0.139-0.003,0.15-0.007c0.046-0.009,0.082-0.018,0.11-0.025   c0.017,0.039,0.034,0.075,0.049,0.11c0.015,0.036,0.045,0.054,0.086,0.054c0.035,0,0.067-0.027,0.093-0.082   c0.027-0.056,0.045-0.082,0.052-0.082c0.046,0,0.067,0.037,0.067,0.11c0,0.05-0.012,0.092-0.036,0.127   c0.012,0.029,0.028,0.045,0.049,0.045c0.008,0,0.031-0.006,0.066-0.017c0.037-0.011,0.06-0.016,0.068-0.016   s0.025,0.002,0.054,0.005c0.028,0.006,0.048,0.008,0.055,0.008c0.054,0,0.079-0.021,0.079-0.065c0-0.01,0-0.024,0-0.046   C1.487,2.437,1.486,2.42,1.486,2.411c0-0.069,0.062-0.104,0.183-0.104L3.244,2.26c0.087,0,0.229-0.006,0.435-0.02   c0.027-0.005,0.054-0.028,0.077-0.072h0.465V1.511c0.002-0.009,0.008-0.02,0.017-0.033C4.233,1.456,4.223,1.444,4.201,1.444H3.964   C3.927,1.409,3.902,1.393,3.891,1.393H3.397c-0.033,0-0.064-0.044-0.098-0.133C3.32,1.242,3.338,1.234,3.354,1.234l2.562,0.007   C5.927,1.224,5.931,1.199,5.931,1.168z M3.902,1.832v0.271c-0.072,0-0.111,0-0.115,0V2.017c0-0.014,0.021-0.075,0.062-0.185H3.902z    M4.159,1.846V2.09C4.138,2.106,4.105,2.115,4.062,2.115c-0.041,0-0.073-0.007-0.098-0.019V1.852   c0.024-0.013,0.059-0.02,0.104-0.02C4.104,1.832,4.135,1.837,4.159,1.846z" fill="#FFFFFF"/>
	</g></svg>