<?xml version="1.0" standalone="no"?>
<svg xmlns="http://www.w3.org/2000/svg" viewBox="-6.37 -6.37 12.74 12.74" color="#212121" width="75" height="75"><g transform="matrix(1 0 0 -1 0 0)">
		<g xmlns="http://www.w3.org/2000/svg">
			<path class="primary" fill="currentColor" d="M0-6.245c-3.444,0-6.245,2.802-6.245,6.246c0,3.443,2.802,6.244,6.245,6.244s6.245-2.801,6.245-6.244    C6.245-3.443,3.444-6.245,0-6.245z"/>
			<path class="secondary" d="M0,6.12c3.38,0,6.12-2.74,6.12-6.119C6.12-3.38,3.38-6.12,0-6.12s-6.12,2.74-6.12,6.121    C-6.12,3.38-3.38,6.12,0,6.12 M0,6.37c-3.513,0-6.37-2.857-6.37-6.369C-6.37-3.512-3.513-6.37,0-6.37s6.37,2.858,6.37,6.371    C6.37,3.513,3.513,6.37,0,6.37L0,6.37z" fill="#FFFFFF"/>
		</g>
		<g xmlns="http://www.w3.org/2000/svg">
			<path class="secondary" d="M-5.365-0.369c0,0-0.061-0.312,0-0.396c0.057-0.086,0.244-0.104,0.361-0.138    c-0.241-0.214-0.395-0.534-0.395-0.894c0-0.645,0.495-1.166,1.106-1.166c0.384,0,0.724,0.209,0.921,0.525    c0.228,0.104,0.416,0.289,0.53,0.517h5.353c0.154-0.236,0.39-0.404,0.666-0.468C3.37-2.731,3.724-2.962,4.129-2.962    c0.609,0,1.104,0.521,1.104,1.166c0,0.157-0.029,0.307-0.083,0.443C5.18-1.34,5.417-1.228,5.449-1.037    c0.031,0.204,0,0.396,0,0.396h0.107v-0.171h0.342v0.318H5.535v0.124h0.106v0.261L5.297,0.005c0,0,0.075,0.113-0.02,0.262    C5.18,0.412,4.815,0.412,4.815,0.412L3.538,1.069c0,0-0.62,0.653-0.782,0.735c-0.166,0.082-1.501,0-1.501,0s-0.044,0.25,0,0.33    C1.297,2.213,1.8,2.1,1.8,2.1s0.387,0.013,0.418,0.217c0.034,0.202-0.023,0.384-0.16,0.43C1.921,2.792,0.52,2.973,0.437,2.961    C0.354,2.948,0.223,2.824,0.223,2.824h-0.354c0,0-0.29,0.023-0.322-0.146c-0.031-0.17,0.086-0.34,0.086-0.34S0.75,2.212,0.759,2.1    C0.77,1.986,0.727,1.771,0.727,1.771s-2.51,0.081-2.928-0.066c-0.419-0.148-1.072-1.135-1.46-1.36    c-0.387-0.227-1.267-0.396-1.267-0.396S-5.305-0.148-5.442-0.18C-5.68-0.232-5.802-0.222-5.89-0.299    C-5.977-0.37-5.365-0.369-5.365-0.369z M3.652,0.824l0.804-0.468H3.652V0.824z M-2.009,1.362l-0.75-0.842L-2.92,0.628l0.857,0.838    L-2.009,1.362z M0.852,1.466H0.504v0.13h0.348V1.466z M2.211,1.53h0.507L3.03,1.172H2.524L2.211,1.53z M1.18,1.239    c0,0.17,0.847,0.09,0.999,0c0.152-0.091,0.264-0.327,0.225-0.518C2.364,0.531,1.55-1.045,1.55-1.045s-0.276-0.072-0.369,0    C1.087-0.976,1.18,1.069,1.18,1.239z M0.465,1.239h0.387v-2.25H0.465V1.239z M-3.004-0.127l0.07,0.073l0.188-0.245    c0,0,0.004-0.088,0.081,0c0.077,0.09-0.065,0.522,0.031,0.639c0.096,0.114,0.668,0.878,0.812,0.967c0.144,0.091,1.894,0,1.894,0    v-1.842h-0.276v1.689h-0.112l-0.176-0.952v-0.737h-0.307v-0.246h-0.12c0,0-0.017,0.101,0,0.246c0.015,0.145-0.797,0.206-0.797,0    c0-0.207,0-0.714,0-0.714h-0.161v0.195c0,0-0.476-0.062-0.586,0C-2.577-0.992-3.004-0.127-3.004-0.127z" fill="#FFFFFF"/>
		</g>
	</g></svg>