<?xml version="1.0" standalone="no"?>
<svg xmlns="http://www.w3.org/2000/svg" viewBox="-6.37 -6.37 12.74 12.74" color="#212121" width="75" height="75"><g transform="matrix(1 0 0 -1 0 0)">
		<g xmlns="http://www.w3.org/2000/svg">
			<circle class="primary" fill="currentColor" cx="0" cy="0" r="6.245"/>
			<path class="secondary" d="M0,6.12c3.38,0,6.12-2.74,6.12-6.12S3.38-6.12,0-6.12S-6.12-3.38-6.12,0S-3.38,6.12,0,6.12 M0,6.37    c-3.513,0-6.37-2.857-6.37-6.37S-3.513-6.37,0-6.37S6.37-3.513,6.37,0S3.513,6.37,0,6.37L0,6.37z" fill="#FFFFFF"/>
		</g>
		<path xmlns="http://www.w3.org/2000/svg" id="Light_Transport_2_" class="secondary" d="M5.287-1.217L5.283-1.213C5.267-1.239,5.258-1.24,5.242-1.24H5.168   c0,0.007,0,0.014,0,0.022L5.215-1.17c0.018,0.02,0.052,0.056,0.052,0.099c0,0.044-0.036,0.072-0.073,0.072   c-0.021,0-0.043-0.007-0.061-0.025l-0.02,0.042l0.003,0.001v-0.001c0,0,0,0,0,0.001l0.05,0.024l0.008,0.399   c0.002,0.075-0.021,0.151-0.028,0.221C5.135-0.246,5.091-0.174,5.062-0.105L4.647,0.88C4.605,0.972,4.512,1.08,4.39,1.094   C4.064,1.129,3.626,1.177,3.172,1.199c-0.111,0.029-0.23,0.05-0.32,0.058c-0.12,0.01-0.318,0.03-0.387-0.001   c-0.027-0.013-0.058-0.022-0.06-0.087L2.378,0.647c0.014-0.02,0.021-0.046,0.007-0.088C2.364,0.537,2.359,0.512,2.383,0.48   C2.356,0.463,2.359,0.423,2.377,0.374C2.37,0.368,2.365,0.362,2.363,0.352c-0.016-0.151-0.008-0.25-0.017-0.423   C2.344-0.17,2.348-0.725,2.364-0.823c0.01-0.05,0.04-0.178,0.107-0.157v-0.013c0-0.003,0-0.007,0.001-0.01   c0.001-0.008,0.003-0.014,0.01-0.018l0.003-0.001l0,0c0.003-0.002,0.008-0.003,0.013-0.003H2.5h0.014H2.292v3.381h-7.579v-3.383   h0.01v-0.279h0.002c-0.002-0.11-0.002-0.223-0.002-0.335h0.171v0.12h0.741c0.014,0.013-0.022-0.013-0.022-0.174   c0-0.365,0.296-0.662,0.661-0.662c0.303,0,0.56,0.205,0.637,0.482h0.514c0,0.002,0,0.004-0.001,0.007   c0.076-0.281,0.334-0.489,0.64-0.489c0.364,0,0.662,0.297,0.662,0.662c0,0.061-0.01,0.119-0.024,0.175h2.14l0,0   c0.032-0.029,0.075-0.046,0.121-0.046c0.045,0,0.086,0.018,0.119,0.046h0.234l0.033-0.209c0.02,0.079-0.005,0.056-0.005-0.044   c0-0.101,0.082-0.183,0.183-0.183c0.084,0,0.154,0.058,0.177,0.135H1.74C1.733-1.807,1.732-1.789,1.732-1.773c0,0.101,0,0.101,0,0   s0.082-0.183,0.184-0.183c0.099,0,0.182,0.083,0.182,0.183c0,0.015-0.002,0.029-0.005,0.043L2.12-1.52h0.287v-0.002h0.012   c0.126-0.1-0.049-0.309,0.032-0.309C2.554-1.83,2.67-1.852,2.798-1.878C2.795-1.873,2.795-1.867,2.793-1.862   c0.074-0.284,0.334-0.495,0.642-0.495c0.271,0,0.504,0.164,0.606,0.398l0.205,0.046c0.003-0.002,0.006-0.003,0.01-0.005h0.001   c0.001,0,0.003,0,0.003-0.001C4.268-1.92,4.274-1.922,4.28-1.922h0.002h0.56h0.021l0,0l0,0H5.1c0.046,0,0.078,0.072,0.085,0.122   c0.009,0.075,0.009,0.152-0.008,0.227C5.168-1.57,5.164-1.566,5.159-1.562l0,0C5.157-1.56,5.157-1.559,5.154-1.556   C5.15-1.548,5.148-1.538,5.146-1.523v0.001C5.148-1.494,5.15-1.455,5.139-1.428c0.029,0.024,0.034,0.086,0.032,0.157h0.094   L5.287-1.217z" fill="#FFFFFF"/>
	</g></svg>