<?xml version="1.0" standalone="no"?>
<svg xmlns="http://www.w3.org/2000/svg" viewBox="-6.37 -6.37 12.74 12.74" color="#212121" width="75" height="75"><g transform="matrix(1 0 0 -1 0 0)">
		<g xmlns="http://www.w3.org/2000/svg">
			<path class="primary" fill="currentColor" d="M0-6.245c-3.444,0-6.245,2.802-6.245,6.246c0,3.443,2.802,6.244,6.245,6.244s6.245-2.801,6.245-6.244    C6.245-3.443,3.444-6.245,0-6.245z"/>
			<path class="secondary" d="M0,6.12c3.38,0,6.12-2.74,6.12-6.119C6.12-3.38,3.38-6.12,0-6.12s-6.12,2.74-6.12,6.121    C-6.12,3.38-3.38,6.12,0,6.12 M0,6.37c-3.513,0-6.37-2.857-6.37-6.369C-6.37-3.512-3.513-6.37,0-6.37s6.37,2.858,6.37,6.371    C6.37,3.513,3.513,6.37,0,6.37L0,6.37z" fill="#FFFFFF"/>
		</g>
		<path xmlns="http://www.w3.org/2000/svg" class="secondary" d="M-5.989,0.646l2.144,0.016L-3.7,0.789h0.558l0.146-0.11l1.377,0.062L-1.486,0.9l1.364,0.119L-0.139,1.28h0.41   l0.162-0.158h0.41V1.28c0,0,0.17-0.14-0.044,0C0.637,1.387,0.712,1.47,0.712,1.47L0.434,1.474L0.396,1.366L0.199,1.42L0.175,1.527   L-0.098,1.62l-0.888,0.026v0.067h1.099L0.817,1.74l0.048,0.054l0.358-0.12l0.074-0.12L1.175,1.42l0.678-0.026l0.1-0.014   l0.025-0.106l0.086-0.04L2.039,1.167l1.814-0.026v0.8l0.099,0.014l0.05-0.935H4.73l0.013-0.533l-1.038-0.04L3.533,0.272   l2.333-0.025l0.012-0.268l0.111-0.08v-0.573h-0.26l0.087-0.294L5.409-1.021L4.508-1.795c0,0-0.111-0.146-0.37-0.133   s-5.729-0.027-5.729-0.027s-0.357,0.08-0.654,0.24c-0.296,0.16-0.506,0.28-0.506,0.28s-0.605,0.221-0.605,0.561   c0,0.014-0.222,0.267-0.222,0.267l0.21,0.359l0.333,0.081l1.395,0.066l0.16,0.187l-0.172,0.2l-4.333,0.12L-5.989,0.646z" fill="#FFFFFF"/>
	</g></svg>