<?xml version="1.0" standalone="no"?>
<svg xmlns="http://www.w3.org/2000/svg" viewBox="-6.37 -6.37 12.74 12.74" color="#212121" width="75" height="75"><g transform="matrix(1 0 0 -1 0 0)">
		<g xmlns="http://www.w3.org/2000/svg">
			<path class="primary" fill="currentColor" d="M0-6.245c-3.444,0-6.245,2.802-6.245,6.246c0,3.443,2.802,6.244,6.245,6.244s6.245-2.801,6.245-6.244    C6.245-3.443,3.444-6.245,0-6.245z"/>
			<path class="secondary" d="M0,6.12c3.38,0,6.12-2.74,6.12-6.119C6.12-3.38,3.38-6.12,0-6.12s-6.12,2.74-6.12,6.121    C-6.12,3.38-3.38,6.12,0,6.12 M0,6.37c-3.513,0-6.37-2.857-6.37-6.369C-6.37-3.512-3.513-6.37,0-6.37s6.37,2.858,6.37,6.371    C6.37,3.513,3.513,6.37,0,6.37L0,6.37z" fill="#FFFFFF"/>
		</g>
		<path xmlns="http://www.w3.org/2000/svg" class="secondary" d="M5.145,0.975H-4.17c0,0-0.034-0.119,0.051-0.396c0.086-0.277,0.104-0.391,0.104-0.391h-0.027v-0.06h-0.207   V-0.1l-0.914-0.06l-0.739-0.287v-0.07h0.429h0.234l0.48-0.186l2.652-0.086l0.174-0.287l0.123-0.011l0.589-0.239h-0.18v-0.113   l-0.603-0.012v0.039h-0.1v-0.065h-0.672c0,0-0.06,0.023-0.27-0.217h-0.048c0.035,0.027,0.058,0.072,0.058,0.125   c0,0.083-0.06,0.151-0.132,0.151c-0.074,0-0.132-0.068-0.132-0.151c0-0.053,0.021-0.098,0.057-0.125h-0.053v0.06h-0.475l0.461-0.38   v0.109l0.358-0.124c0,0,0-0.209,0.365-0.39c0.365-0.182,0.025,0,0.025,0l0.747-0.391h3.926L2.8-2.289c0,0,0.126,0.07,0.126,0.369   L2.95-1.883v0.115h0.032v-0.061h0.103v-0.038h0.07v0.099h0.053v-0.034l0.057,0.034h0.077v0.238L3.199-1.367v0.212H3.048v0.129h0.17   l0.479,0.107h0.454l0.621,1.53l1.14,0.082v0.081L5.145,0.975z M-0.778-2.332h0.161C-0.646-2.38-0.66-2.437-0.66-2.497   c0-0.099,0.042-0.187,0.104-0.241h-0.285c0.064,0.055,0.105,0.143,0.105,0.241C-0.735-2.437-0.751-2.38-0.778-2.332z M-0.132-2.497   c0,0.061-0.017,0.117-0.043,0.165h0.16C-0.04-2.38-0.057-2.437-0.057-2.497c0-0.099,0.041-0.187,0.104-0.241h-0.285   C-0.174-2.684-0.132-2.596-0.132-2.497z M0.471-2.497c0,0.061-0.016,0.117-0.042,0.165h0.16C0.562-2.38,0.545-2.437,0.545-2.497   c0-0.099,0.042-0.187,0.106-0.241H0.365C0.43-2.684,0.471-2.596,0.471-2.497z M1.073-2.497c0,0.061-0.016,0.117-0.042,0.165H1.19   C1.164-2.38,1.148-2.437,1.148-2.497c0-0.099,0.042-0.187,0.104-0.241H0.968C1.031-2.684,1.073-2.596,1.073-2.497z M1.676-2.497   c0,0.061-0.016,0.117-0.041,0.165h0.158C1.768-2.38,1.751-2.437,1.751-2.497c0-0.099,0.042-0.187,0.105-0.241H1.571   C1.635-2.684,1.676-2.596,1.676-2.497z M-1.221-2.332C-1.247-2.38-1.264-2.437-1.264-2.497c0-0.099,0.043-0.187,0.106-0.241h-0.399   c0.064,0.055,0.105,0.143,0.105,0.241c0,0.061-0.015,0.117-0.042,0.165H-1.221z M-2.634-2.295v0.027c0,0,0.038-0.021,0.165,0.048   l0.424-0.112h0.108C-1.963-2.38-1.979-2.437-1.979-2.497c0-0.05,0.011-0.099,0.031-0.142L-2.634-2.295z M2.267-2.589   C2.274-2.56,2.279-2.528,2.279-2.497c0,0.061-0.016,0.117-0.043,0.165h0.188l0.057,0.026l0.047-0.081L2.267-2.589z" fill="#FFFFFF"/>
	</g></svg>