<?xml version="1.0" standalone="no"?>
<svg xmlns="http://www.w3.org/2000/svg" viewBox="-6.37 -6.37 12.74 12.74" color="#212121" width="75" height="75"><g transform="matrix(1 0 0 -1 0 0)">
		<g xmlns="http://www.w3.org/2000/svg">
			<path class="primary" fill="currentColor" d="M0-6.245c-3.444,0-6.245,2.802-6.245,6.246c0,3.443,2.802,6.244,6.245,6.244s6.245-2.801,6.245-6.244    C6.245-3.443,3.444-6.245,0-6.245z"/>
			<path class="secondary" d="M0,6.12c3.38,0,6.12-2.74,6.12-6.119C6.12-3.38,3.38-6.12,0-6.12s-6.12,2.74-6.12,6.121    C-6.12,3.38-3.38,6.12,0,6.12 M0,6.37c-3.513,0-6.37-2.857-6.37-6.369C-6.37-3.512-3.513-6.37,0-6.37s6.37,2.858,6.37,6.371    C6.37,3.513,3.513,6.37,0,6.37L0,6.37z" fill="#FFFFFF"/>
		</g>
		<g xmlns="http://www.w3.org/2000/svg">
			<path class="secondary" d="M-5.968-0.453c0.059-0.13,0.614-0.058,0.614-0.058l0.685-0.068c0,0,0.082-0.152,0.167-0.157    C-4.417-0.74-3.83-0.797-3.739-0.78c0.092,0.018,0.151,0.144,0.151,0.144l0.484-0.057V-0.75c0,0-0.079,0.029-0.102,0    c-0.019-0.029,0-0.462,0-0.462h0.102v-0.082h-0.143v-0.269h0.133v-0.068h-0.133V-1.78h0.109v-0.126c0,0-0.005-0.502,0.012-0.605    C-3.116-2.566-3.059-2.652-3-2.727c-0.041-0.15-0.067-0.336,0.013-0.459c0.148-0.233,0.813-0.543,1.331-0.646    c0.519-0.099,5.107-0.007,5.541,0c0.437,0.008,0.437,0.71,0.437,0.712l0.063,0.003v0.092L4.448-3.03c0,0,0.072-0.108,0.157-0.092    c0.088,0.015,0.071,0.121,0.071,0.121l0.149,0.109c0,0,0.095-0.097,0.129-0.082C4.99-2.96,4.983-2.546,4.983-2.546    S5.1-2.567,5.096-2.529C5.093-2.49,5.001-2.4,5.001-2.4L4.995-1.876L4.833-1.35L4.745-1.328L4.723-1.529L4.649-1.474L4.24-1.457    v0.091c0,0,0.119-0.02,0.194,0c0.073,0.019,0.327,0.2,0.327,0.2l0.895-0.003v0.103H5.77v0.141H5.66v0.547h0.142V-0.2H5.656    c0,0,0,0.245,0,0.317s-0.277,0.08-0.277,0.08v0.229H5.335v2.246h0.044V2.77H5.215V2.666h0.05V0.435H5.183V0.212H4.706v0.056H4.604    V0.206h-0.33V0.38H4.163L4.15,0.442L3.427,0.43c0,0,0.224,0.262,0.224,0.308C3.646,0.781,3.548,0.885,3.51,0.87    C3.473,0.855,3.466,0.708,3.466,0.708s-0.4-0.193-0.47-0.198c-0.067-0.003-0.516,0-0.516,0L2.289,0.83v0.436h0.184    c0,0,0.151-0.095,0.178-0.08c0.027,0.017-0.03,0.121-0.03,0.121l0.214,0.011c0,0,0.255-0.021,0.25,0.111    C3.078,1.556,2.84,1.562,2.84,1.562S2.79,1.637,2.744,1.638c-0.045,0.005-0.12-0.07-0.12-0.07h-0.37v1.138h0.035V2.81H2.17V2.705    h0.049V1.562c0,0-0.525,0.022-0.653,0S1.328,1.469,1.328,1.469H0.087v-0.04h0.739v-0.04h0.317V1.307h-0.05V1.212h0.32v0.146h0.44    v-0.09l-0.05-0.119c0,0-0.022-0.283,0-0.302c0.021-0.017,0.123,0,0.123,0l0.296-0.244V0.442H2.133V0.078H2.024v0.364H1.696V0.097    l-0.249-0.24L1.429-0.011H1.362v0.068l0.051,0.004v0.056H0.916l0.006-0.273H0.606c0,0,0.007,0.162-0.056,0.173    C0.515,0.021,0.379,0.023,0.353-0.006C0.307-0.052,0.318-0.144,0.318-0.144S0.132-0.137,0.127-0.16c-0.002-0.028,0-0.081,0-0.081    L-0.14-0.2c0,0-0.256-0.025-0.286-0.08c-0.007-0.014-0.019-0.107-0.033-0.233l-2.373,0.195c0,0,0.013,0.093-0.013,0.121    c-0.022,0.029-0.234,0.024-0.259,0C-3.13-0.223-3.13-0.313-3.13-0.313L-3.531-0.31c0,0-0.074,0.058-0.157,0.126    c-0.085,0.067-0.731,0.097-0.82,0.075c-0.097-0.022-0.15-0.116-0.15-0.116L-5.354-0.16c0,0-0.347,0.216-0.505,0.093    C-5.975-0.16-6.03-0.312-5.968-0.453z M2.996-3.628c0,0,0.136,0.196,0.153,0.367c0.013,0.174-0.103,0.245-0.086,0.274    C3.08-2.958,3.149-2.829,3.205-2.824c0.03,0,0.009-0.089,0.03-0.129C3.26-2.988,3.326-2.97,3.326-2.97S3.32-2.986,3.32-3.204    c0-0.216,0.095-0.369,0.095-0.369S3.358-3.645,3.32-3.654C3.281-3.667,3.276-3.548,3.197-3.548c-0.078,0-0.061-0.089-0.111-0.106    C3.033-3.672,2.996-3.628,2.996-3.628z M1.97-3.66c0,0,0.222,0.218,0.211,0.419C2.166-3.042,2.088-2.986,2.088-2.986l0.021,0.162    h0.123c0,0,0.003-0.146,0.057-0.172c0.034-0.017,0.049-0.008,0.056,0C2.333-3.033,2.289-3.156,2.289-3.27    c0-0.135,0.099-0.277,0.099-0.277L2.366-3.66H2.289L2.243-3.517H2.16L2.133-3.66H1.97z M1.084-2.796h0.137    c0,0-0.016-0.117,0.007-0.166c0.022-0.051,0.1-0.024,0.105,0.004c0.004,0.029,0.024,0.134,0.024,0.134l0.11,0.028    c0,0-0.158-0.256-0.158-0.408c0-0.15,0.124-0.344,0.124-0.344L1.373-3.66H1.277c0,0,0.012,0.073-0.031,0.116    C1.2-3.499,1.144-3.527,1.144-3.527s0.103,0.141,0.112,0.286c0.012,0.144-0.172,0.323-0.172,0.323V-2.796z M0.275-3.504    c0,0,0.025,0.275,0.064,0.263c0.039-0.013,0.142-0.303,0.142-0.303H0.379V-3.66H0.275V-3.504z M-0.771-3.595    c0,0,0.127,0.137,0.139,0.279C-0.619-3.171-0.713-2.97-0.713-2.97h0.038l0.031,0.146h0.097l0.018-0.134l0.116-0.021    c0,0-0.103-0.095-0.095-0.249c0.005-0.153,0.129-0.358,0.129-0.358V-3.66h-0.137v0.144h-0.086L-0.626-3.66h-0.145    C-0.771-3.66-0.771-3.595-0.771-3.595z M-1.379-3.544c0,0,0.084,0.062,0.105,0.245c0.022,0.185-0.06,0.325-0.06,0.325h0.082v0.178    h0.101l0.057-0.205H-1c0,0-0.157-0.073-0.15-0.27C-1.146-3.466-1-3.595-1-3.595V-3.66h-0.111v0.139h-0.124L-1.267-3.66h-0.112    V-3.544z M-2.285-3.087l0.208,0.028v0.058h-0.131L-2.18-2.89h0.134v0.094H-1.9v-0.135h0.082l0.073-0.022    c0,0-0.101-0.089-0.125-0.225c-0.021-0.138,0-0.271,0-0.271l-0.072-0.112h-0.072v0.155h-0.133v-0.077l-0.095,0.034v0.207    l-0.044,0.044L-2.285-3.087L-2.285-3.087z M-2.953-1.562l0.008,0.058h0.142v0.06L-2.93-1.437l0.018,0.562    c0,0,0.211-0.017,0.234,0.009c0.023,0.022,0.022,0.139,0.022,0.139l2.149-0.225c-0.018-0.177-0.038-0.391-0.048-0.404    c-0.026-0.042-1.151,0-1.31-0.005s-0.328-0.443-0.36-0.443C-2.28-1.808-2.26-1.703-2.309-1.701    c-0.038,0.002-0.056,0.002-0.055,0.029c0.005,0.068-0.05,0.109-0.079,0.109c-0.036,0-0.073-0.008-0.075-0.034    C-2.523-1.653-2.534-1.736-2.541-1.82c-0.008-0.075-0.146-0.01-0.15-0.034c0-0.02-0.012-0.072-0.031-0.082    c-0.056-0.024-0.161,0-0.161,0v0.108l0.08,0.005v0.092l-0.092,0.008l0.01,0.16h-0.068V-1.562z" fill="#FFFFFF"/>
		</g>
	</g></svg>