<?xml version="1.0" standalone="no"?>
<svg xmlns="http://www.w3.org/2000/svg" viewBox="-6.37 -6.37 12.74 12.74" color="#212121" width="75" height="75"><g transform="matrix(1 0 0 -1 0 0)">
		<g xmlns="http://www.w3.org/2000/svg" id="Circle_1_">
			<path class="primary" fill="currentColor" d="M-0.001-6.245c-3.443,0-6.244,2.802-6.244,6.246c0,3.443,2.801,6.244,6.244,6.244    c3.444,0,6.246-2.801,6.246-6.244C6.245-3.443,3.443-6.245-0.001-6.245z"/>
			<path class="secondary" d="M-0.001,6.12c3.381,0,6.121-2.74,6.121-6.119c0-3.381-2.74-6.121-6.121-6.121    c-3.379,0-6.119,2.74-6.119,6.121C-6.12,3.38-3.38,6.12-0.001,6.12 M-0.001,6.37c-3.512,0-6.369-2.857-6.369-6.369    c0-3.513,2.857-6.371,6.369-6.371c3.513,0,6.371,2.858,6.371,6.371C6.37,3.513,3.512,6.37-0.001,6.37L-0.001,6.37z" fill="#FFFFFF"/>
		</g>
		<path xmlns="http://www.w3.org/2000/svg" class="secondary" d="M5.674,1.575C5.663,1.661,5.652,1.747,5.638,1.831C5.635,1.856,5.612,1.878,5.603,1.894   c-0.105-0.01-0.198-0.018-0.292-0.029C5.287,1.862,5.264,1.858,5.244,1.851c-0.106-0.049-0.22-0.059-0.338-0.053   c-0.04-0.082-0.114-0.074-0.187-0.07C4.642,1.735,4.566,1.731,4.492,1.716c-0.057-0.01-0.114-0.014-0.17-0.021   C4.108,1.665,3.898,1.636,3.685,1.61C3.58,1.595,3.474,1.585,3.369,1.571C3.256,1.556,3.143,1.536,3.03,1.522   C2.922,1.509,2.814,1.497,2.705,1.485c-0.051-0.006-0.102-0.012-0.152-0.02c-0.133-0.015-0.267-0.032-0.4-0.05   C2.041,1.399,1.927,1.382,1.814,1.368c-0.063-0.01-0.125-0.014-0.188-0.02c-0.134-0.015-0.267-0.035-0.399-0.05   C1.104,1.282,0.98,1.272,0.859,1.259c-0.1-0.012-0.196-0.031-0.296-0.045c-0.022-0.002-0.05-0.01-0.067-0.002   C0.444,1.233,0.398,1.214,0.353,1.208c-0.19-0.027-0.379-0.055-0.568-0.086c-0.035-0.006-0.072-0.02-0.103-0.039   c-0.037-0.021-0.073-0.027-0.114-0.029c-0.12-0.006-0.239-0.012-0.361-0.02C-0.814,1.032-0.836,1.024-0.86,1.02   c-0.023,0.01-0.046,0.02-0.065,0.027C-1.055,1.031-1.18,1.016-1.305,1c-0.072-0.01-0.146-0.02-0.219-0.033   c-0.038-0.007-0.07-0.029-0.105-0.036c-0.098-0.02-0.197-0.033-0.297-0.051C-1.947,0.876-1.969,0.87-1.99,0.87   c-0.059-0.004-0.119-0.014-0.173-0.002c-0.182,0.039-0.36,0.086-0.546,0.131c-0.014-0.01-0.028-0.021-0.047-0.035   c-0.018,0.012-0.035,0.021-0.048,0.031c0.009,0.07,0.016,0.137,0.025,0.219C-2.83,1.193-2.864,1.177-2.903,1.159   C-2.916,1.171-2.931,1.181-2.955,1.2c-0.078-0.127-0.104-0.27-0.16-0.396c-0.26-0.037-0.302-0.053-0.368-0.018   C-3.489,0.765-3.494,0.743-3.5,0.72c-0.043-0.012-0.083-0.023-0.127-0.037c-0.004-0.018-0.01-0.033-0.01-0.049   c-0.001-0.016,0.003-0.035,0.006-0.057C-3.646,0.563-3.664,0.55-3.682,0.536c-0.014-0.012-0.037-0.021-0.042-0.037   C-3.74,0.452-3.75,0.401-3.762,0.353c-0.129,0-0.259,0-0.389,0c-0.041,0-0.084-0.008-0.125-0.006   c-0.102,0.002-0.2-0.002-0.301-0.002c-0.062,0-0.12-0.002-0.154-0.047c-0.109,0-0.207,0-0.312,0   c0.002,0.029,0.004,0.057,0.006,0.086c-0.021,0.02-0.043,0.035-0.082,0.021c-0.016-0.006-0.04,0.006-0.057,0.008   c-0.009,0.035,0.033,0.072-0.025,0.088C-5.216,0.483-5.23,0.462-5.246,0.44C-5.25,0.446-5.258,0.452-5.259,0.458   c-0.002,0.018-0.002,0.035-0.003,0.059C-5.289,0.513-5.31,0.509-5.338,0.503C-5.352,0.554-5.4,0.55-5.439,0.563   c-0.096,0.029-0.109,0.033-0.176,0.092c-0.046-0.035-0.042-0.09-0.062-0.133c-0.021-0.049-0.046-0.094-0.074-0.146   c0.091-0.072,0.178-0.143,0.265-0.213c-0.034-0.039-0.1-0.014-0.124-0.068C-5.628,0.056-5.646,0.019-5.667-0.03   c-0.035-0.027-0.08-0.062-0.132-0.105C-5.822-0.14-5.857-0.144-5.895-0.147c0.026-0.07,0.072-0.096,0.15-0.088   c0.173-0.146,0.329-0.314,0.489-0.479c0.082-0.084,0.17-0.164,0.253-0.248c0.04-0.039,0.078-0.082,0.118-0.125   c-0.008-0.012-0.018-0.025-0.027-0.041c0.008-0.027,0.015-0.055,0.022-0.08c0.042-0.045,0.078-0.016,0.121,0.014   c0.023-0.039,0.048-0.074,0.065-0.111c0.019-0.041,0.046-0.072,0.087-0.09C-4.591-1.407-4.57-1.423-4.55-1.438   c0.041-0.031,0.07-0.066,0.07-0.121c0-0.016,0.005-0.033,0.01-0.051c0.015-0.047,0.065-0.066,0.085-0.117   c0.02-0.047,0.072-0.066,0.127-0.08c0.033-0.006,0.062-0.037,0.094-0.059c0.048-0.008,0.099-0.018,0.15-0.023   C-3.982-1.892-3.95-1.892-3.92-1.884c0.024,0.006,0.043,0.006,0.065-0.002c0.019-0.006,0.042-0.008,0.06-0.004   c0.071,0.02,0.146-0.02,0.219,0.012c0.016,0.008,0.038-0.008,0.059-0.01c0.021-0.004,0.046-0.004,0.068,0   c0.033,0.01,0.065,0.02,0.1,0c0.013-0.008,0.035-0.006,0.051-0.002c0.072,0.02,0.145-0.01,0.219,0.01   c0.055,0.014,0.119-0.008,0.178-0.008c0.104,0,0.208,0.016,0.311,0.004c0.076-0.008,0.152,0.016,0.228-0.004   c0.005-0.002,0.011-0.002,0.018,0C-2.27-1.862-2.19-1.896-2.11-1.884c0.071,0.01,0.146-0.006,0.219-0.004   c0.094,0,0.187,0.004,0.281,0.006c0.007,0,0.017,0.008,0.024,0.004C-1.349-1.903-1.111-1.88-0.873-1.89   c0.079,0.027,0.16-0.01,0.244,0.008c0.062,0.014,0.131-0.01,0.196-0.006c0.087,0.004,0.176-0.014,0.262,0.014   c0.006,0,0.014,0.002,0.019,0c0.062-0.027,0.122,0,0.184,0c0.117,0,0.207,0.047,0.297,0.111C0.397-1.716,0.472-1.679,0.54-1.636   C0.56-1.624,0.576-1.61,0.596-1.597C0.618-1.583,0.64-1.571,0.662-1.56c0.021,0.014,0.045,0.025,0.063,0.043   C0.75-1.495,0.776-1.483,0.805-1.47C0.873-1.438,0.932-1.39,1-1.354c0.048,0.021,0.083,0.076,0.123,0.115   c0.012,0.012,0.023,0.027,0.028,0.043c0.019,0.061,0.037,0.119,0.05,0.16c-0.01,0.068-0.016,0.119-0.023,0.172   C1.199-0.856,1.221-0.85,1.24-0.844C1.252-0.755,1.25-0.7,1.232-0.636C1.208-0.628,1.182-0.62,1.154-0.612   C1.135-0.567,1.16-0.509,1.106-0.479C1.05-0.448,1.013-0.483,0.976-0.522C0.955-0.519,0.934-0.515,0.911-0.509   C0.838-0.485,0.832-0.478,0.832-0.397c-0.001,0.061,0,0.121,0,0.18c-0.001,0.023-0.007,0.042-0.008,0.06c-0.055,0-0.101,0-0.146,0   C0.58-0.159,0.537-0.212,0.549-0.312c0-0.006-0.002-0.01-0.005-0.021C0.532-0.339,0.515-0.343,0.5-0.351   C0.397-0.409,0.312-0.37,0.24-0.296c-0.111,0.115-0.244,0.18-0.407,0.197c-0.014,0.014-0.028,0.035-0.044,0.057   c-0.06,0.006-0.117,0.014-0.181,0.021c0-0.02,0-0.031,0-0.045c-0.097-0.025-0.192-0.053-0.289-0.08   c-0.011-0.002-0.024-0.012-0.032-0.01c-0.081,0.039-0.15-0.029-0.23-0.02c-0.008,0-0.02,0-0.024-0.002   c-0.061-0.059-0.13-0.021-0.199-0.031C-1.187-0.13-1.158-0.063-1.15,0.009c0.055,0.002,0.107,0.018,0.153-0.029   c0.044,0.061,0.118,0.016,0.175,0.045c0.002,0.018,0.004,0.029,0.007,0.047c0.116,0.045,0.247,0.025,0.368,0.068   c0,0.041,0,0.074,0,0.107c0.024,0.018,0.044,0.033,0.065,0.049c0.017,0.072-0.017,0.141-0.021,0.217   c0.313,0.066,0.638,0.086,0.954,0.162c-0.003,0.023-0.007,0.041-0.01,0.068C0.603,0.755,0.66,0.765,0.717,0.772   C0.885,0.8,1.051,0.827,1.218,0.854C1.312,0.868,1.409,0.88,1.506,0.896c0.134,0.02,0.266,0.041,0.397,0.061   c0.063,0.01,0.125,0.016,0.187,0.025c0.095,0.014,0.187,0.029,0.28,0.045c0.133,0.02,0.265,0.039,0.398,0.059   C2.853,1.1,2.938,1.113,3.021,1.129C3.157,1.149,3.292,1.17,3.428,1.19C3.499,1.2,3.569,1.214,3.64,1.224   c0.108,0.018,0.215,0.035,0.321,0.051C4.107,1.298,4.249,1.32,4.393,1.343C4.531,1.36,4.671,1.378,4.811,1.396   C4.831,1.4,4.85,1.406,4.87,1.41c0.019,0,0.047,0.006,0.058-0.006c0.055-0.049,0.093-0.02,0.13,0.025   C5.268,1.44,5.47,1.448,5.674,1.493C5.674,1.526,5.677,1.552,5.674,1.575z M-3.887-0.425c-0.025-0.012-0.053-0.014-0.09,0   c0.095,0.074,0.181,0.145,0.27,0.215c0.096-0.049,0.188-0.008,0.279-0.025c0-0.014,0.001-0.025,0.002-0.045   c-0.046,0-0.088,0-0.131,0.002c-0.058,0-0.108-0.018-0.158-0.053C-3.768-0.37-3.828-0.397-3.887-0.425z M-3.309-1.749   c-0.028,0.002-0.05,0.006-0.069,0.006c-0.007,0.031-0.014,0.055-0.02,0.082c-0.021-0.004-0.036-0.004-0.055-0.006   c-0.005-0.029-0.01-0.053-0.015-0.076c-0.032,0-0.059,0-0.087,0c0.001,0.035,0.01,0.068-0.031,0.08   c-0.058-0.002-0.032-0.062-0.063-0.084c-0.041,0-0.085-0.008-0.136,0.006c0.144,0.092,0.214,0.221,0.251,0.367   c0.03,0,0.057,0,0.088,0c0.018-0.117,0.073-0.205,0.145-0.287C-3.305-1.69-3.306-1.716-3.309-1.749z M-2.335-1.747   c-0.015,0-0.035,0-0.054,0c-0.003,0.008-0.008,0.012-0.01,0.018C-2.402-1.7-2.402-1.667-2.441-1.665   C-2.486-1.661-2.486-1.7-2.491-1.731c-0.001-0.004-0.007-0.008-0.013-0.016c-0.016,0-0.032,0-0.049,0c0,0-0.003,0-0.004,0.002   c-0.004,0.002-0.006,0.006-0.011,0.008c-0.011,0.049-0.014,0.061-0.039,0.066c-0.007,0-0.019,0-0.032,0   c-0.005-0.023-0.009-0.047-0.014-0.076c-0.029,0-0.055-0.002-0.081-0.002c-0.016,0.045,0.006,0.066,0.03,0.088   c0.07,0.055,0.109,0.131,0.14,0.211c0.008,0.023,0.013,0.051,0.021,0.076c0.035,0,0.064,0,0.101,0   c0.024-0.109,0.059-0.213,0.147-0.279C-2.307-1.683-2.32-1.712-2.335-1.747z M-0.52-1.374c0.023,0,0.052,0,0.082,0   c0.014-0.094,0.043-0.176,0.105-0.242c0.031-0.035,0.065-0.064,0.098-0.1C-0.23-1.72-0.23-1.729-0.227-1.743   c-0.021,0-0.039,0-0.059,0C-0.299-1.71-0.287-1.659-0.353-1.665c-0.013-0.023-0.024-0.051-0.039-0.078c-0.021,0-0.042,0-0.063,0   C-0.462-1.716-0.467-1.69-0.473-1.667C-0.545-1.653-0.527-1.718-0.55-1.749c-0.015,0.002-0.029,0.002-0.033,0.002   c-0.028,0.039-0.052,0.07-0.071,0.098C-0.61-1.56-0.566-1.47-0.52-1.374z M-1.813-0.181c-0.078-0.021-0.154-0.008-0.23-0.01   c-0.007,0-0.016,0.006-0.026,0.01c0.001,0.023,0.002,0.045,0.002,0.062c0.082,0.062,0.178,0.031,0.262,0.059   c0.053-0.027,0.078-0.076,0.117-0.139C-1.744-0.19-1.782-0.171-1.813-0.181z M-1.36-1.747c-0.018,0-0.03,0-0.044,0   c-0.02,0.029-0.002,0.08-0.052,0.082c-0.056,0.004-0.042-0.051-0.06-0.082c-0.02,0-0.039,0-0.062,0   c-0.016,0.033-0.006,0.092-0.076,0.078c-0.004-0.027-0.01-0.051-0.014-0.08c-0.027,0.002-0.05,0.006-0.08,0.008   c0.021,0.082,0.1,0.105,0.126,0.166c0.03,0.064,0.061,0.129,0.093,0.199c0.028,0,0.064,0,0.108,0   c0.002-0.119,0.068-0.199,0.132-0.283C-1.349-1.663-1.334-1.722-1.36-1.747z" fill="#FFFFFF"/>
	</g></svg>