<?xml version="1.0" standalone="no"?>
<svg xmlns="http://www.w3.org/2000/svg" viewBox="-6.37 -6.37 12.74 12.74" color="#212121" width="75" height="75"><g transform="matrix(1 0 0 -1 0 0)">
		<g xmlns="http://www.w3.org/2000/svg">
			<path class="primary" fill="currentColor" d="M0-6.245c-3.444,0-6.245,2.802-6.245,6.246c0,3.443,2.802,6.244,6.245,6.244s6.245-2.801,6.245-6.244    C6.245-3.443,3.444-6.245,0-6.245z"/>
			<path class="secondary" d="M0,6.12c3.38,0,6.12-2.74,6.12-6.119C6.12-3.38,3.38-6.12,0-6.12s-6.12,2.74-6.12,6.121    C-6.12,3.38-3.38,6.12,0,6.12 M0,6.37c-3.513,0-6.37-2.857-6.37-6.369C-6.37-3.512-3.513-6.37,0-6.37s6.37,2.858,6.37,6.371    C6.37,3.513,3.513,6.37,0,6.37L0,6.37z" fill="#FFFFFF"/>
		</g>
		<path xmlns="http://www.w3.org/2000/svg" id="M1117_Armored_Security_2_" class="secondary" d="M5.883-0.146L5.364,0.991H4.89L4.852,1.778L4.813,3.513l-0.03-1.745   L4.715,1.015H4.531v0.103L3.483,1.243H2.301V1.002L2.107,0.866h-1.89l0.028,0.136l0.757,0.172l-0.146,0.49v0.194l-0.328,0.25   L0.392,2.087L0.159,1.836H0.082v0.205h-1.008l-0.05,0.137h-0.31V2.075h-0.117V1.858H-1.62l-0.192-0.226l-0.114,0.146   c0,0,0,0.445-0.329,0.445V1.962c0,0,0.156,0,0.156-0.205l-0.535-0.023L-2.72,1.665V1.47h-0.602V1.368h0.592V1.23h0.329l0.243-0.296   V0.831h-0.311l-0.154,0.206L-3.893,0.9l-0.283-0.617l-0.697-0.159l-0.088,0.125h-0.184v0.377h-0.049v0.091L-5.32,0.65V0.501h-0.185   l-0.057,0.021h-0.214L-5.779-0.23l-0.103-0.171l0.931-1.335l0.893-0.302c-0.004-0.041-0.005-0.084-0.005-0.126   c0-0.795,0.546-1.438,1.221-1.438c0.621,0,1.132,0.543,1.212,1.245l0,0h3.094l0.087,0.09h0.236   c0.045-0.746,0.571-1.335,1.219-1.335c0.675,0,1.222,0.643,1.222,1.438c0,0.112-0.012,0.22-0.032,0.325l1.5,0.873l0.188,0.599   L5.782-0.23L5.883-0.146z" fill="#FFFFFF"/>
	</g></svg>