<?xml version="1.0" standalone="no"?>
<svg xmlns="http://www.w3.org/2000/svg" viewBox="-6.37 -6.37 12.74 12.74" color="#212121" width="75" height="75"><g transform="matrix(1 0 0 -1 0 0)">
		<g xmlns="http://www.w3.org/2000/svg">
			<path class="primary" fill="currentColor" d="M0-6.245c-3.444,0-6.245,2.802-6.245,6.246c0,3.443,2.802,6.244,6.245,6.244s6.245-2.801,6.245-6.244    C6.245-3.443,3.444-6.245,0-6.245z"/>
			<path class="secondary" d="M0,6.12c3.38,0,6.12-2.74,6.12-6.119C6.12-3.38,3.38-6.12,0-6.12s-6.12,2.74-6.12,6.121    C-6.12,3.38-3.38,6.12,0,6.12 M0,6.37c-3.513,0-6.37-2.857-6.37-6.369C-6.37-3.512-3.513-6.37,0-6.37s6.37,2.858,6.37,6.371    C6.37,3.513,3.513,6.37,0,6.37L0,6.37z" fill="#FFFFFF"/>
		</g>
		<g xmlns="http://www.w3.org/2000/svg">
			<path class="secondary" d="M5.951-0.332C5.93-0.374,5.894-0.393,5.844-0.393c-0.028,0-0.061,0.011-0.103,0.037    c0-0.011,0.007-0.058,0.019-0.145c0.004-0.01-0.002-0.029-0.019-0.057C5.723-0.585,5.716-0.603,5.716-0.612    c0,0.015,0.018-0.026,0.057-0.122c-0.009-0.011-0.048-0.044-0.114-0.1c0.016-0.024,0.023-0.042,0.023-0.053    c0-0.025-0.048-0.097-0.145-0.212c0.017-0.04,0.035-0.06,0.057-0.06c0.004,0.044,0.011,0.079,0.02,0.104    c0.012-0.004,0.027-0.013,0.045-0.023c0.023-0.034,0.038-0.075,0.038-0.121c0-0.09-0.034-0.136-0.103-0.136    c-0.013,0-0.037,0.016-0.072,0.046C5.484-1.259,5.46-1.243,5.449-1.243c-0.009,0-0.032-0.016-0.065-0.046    c-0.092,0-0.144-0.006-0.334-0.015C5.045-1.313,5.042-1.34,5.042-1.38c0.025-0.085,0.053-0.193,0.083-0.326    c-0.017,0-0.068,0.104-0.152,0.312C4.967-1.399,4.962-1.43,4.955-1.485C4.951-1.541,4.933-1.568,4.902-1.568    C4.897-1.554,4.881-1.541,4.852-1.53H4.756c0.004-0.229-0.002-0.382-0.02-0.463C4.71-2.119,4.654-2.238,4.563-2.35    c-0.187-0.243-0.362-0.3-0.586-0.295c-0.223,0-0.44,0.028-0.596,0.212C3.227-2.252,3.148-2.024,3.148-1.75    c-0.034,0.004-0.081,0.015-0.14,0.03C3.004-1.771,2.993-1.852,2.977-1.964C2.826-2.453,2.589-2.636,2.197-2.63    C1.984-2.624,1.771-2.593,1.615-2.411C1.46-2.228,1.383-2.007,1.383-1.744c0,0.072,0.006,0.146,0.02,0.221    C1.188-1.468,1.222-1.44,1.086-1.44C1.042-1.445,0.987-1.45,0.92-1.455L0.339-1.38C0.335-1.39,0.331-1.412,0.327-1.447    L-0.069-1.44l-0.816-0.144c0.008-0.339-0.07-0.616-0.238-0.831c-0.164-0.213-0.333-0.258-0.568-0.253    c-0.42,0.006-0.711,0.199-0.813,0.704c-0.017,0.087-0.023,0.18-0.02,0.281c0.017,0.005,0.013,0.008-0.013,0.008    c-0.004-0.012-0.024-0.021-0.064-0.031c-0.012,0-0.031,0.01-0.054,0.027s-0.041,0.027-0.054,0.027    c0.051-0.005-0.014-0.02-0.191-0.046C-3.012-1.704-3.145-1.73-3.303-1.781C-3.37-2.413-3.616-2.665-4.1-2.659    c-0.257,0-0.487,0.054-0.638,0.286c-0.14,0.219-0.197,0.468-0.172,0.751c0.014,0.04,0.012,0.061-0.005,0.061    c-0.03-0.01-0.073-0.022-0.13-0.037c-0.046,0-0.099,0.037-0.157,0.113C-5.224-1.465-5.23-1.42-5.221-1.349    c-0.095-0.006-0.23-0.011-0.408-0.016c-0.038,0-0.09,0.013-0.154,0.038c0,0.01-0.004,0.024-0.011,0.046    c0.011,0.01,0.035,0.032,0.075,0.068C-5.74-1.172-5.797-1.103-5.89-1.008c0,0.034-0.004,0.071-0.008,0.106    c-0.025,0.05-0.038,0.07-0.038,0.061v0.106c0.026,0.004,0.061,0.022,0.108,0.053C-5.824-0.667-5.83-0.62-5.847-0.538    c0.008,0,0.017,0.016,0.024,0.047l0.007,0.659c0.055,0.014,0.081,0.023,0.076,0.023c-0.02,0.197-0.03,0.345-0.03,0.446    c0.011,0.026,0.027,0.071,0.045,0.137C-5.712,1.042-5.703,1.24-5.7,1.372c0.03,0.021,0.084,0.026,0.159,0.016    C-5.527,1.424-5.52,1.49-5.52,1.585l1.135-0.015c0.004-0.006,0.016-0.063,0.03-0.176c0.01-0.009,0.212-0.018,0.607-0.022    c0.122,0.091,0.223,0.146,0.299,0.168c0.063,0.014,0.166,0.021,0.307,0.021c0.156-0.005,0.284-0.035,0.38-0.095    C-2.666,1.409-2.58,1.38-2.504,1.38c0.043,0,0.104-0.004,0.185-0.009L-2.332-0.22c0.024-0.021,0.051-0.029,0.075-0.029h0.097    v0.212c-0.019,0.015-0.044,0.02-0.083,0.015l-0.019,0.023v0.326C-2.255,0.336-2.22,0.359-2.16,0.396    c0.003,0.095,0.007,0.191,0.007,0.288c0,0.096,0,0.191,0,0.287c0.042,0.025,0.077,0.038,0.107,0.038    c0.038,0,0.06-0.038,0.063-0.113c0-0.046,0-0.091,0-0.137c0-0.006,0.01-0.012,0.032-0.016c0.013,0,0.025,0.01,0.037,0.03    c0.015,0.047,0.041,0.114,0.085,0.205c0.008,0,0.021,0.009,0.044,0.023L0.04,0.979c0.013,0,0.019,0.007,0.019,0.02    c0,0.012,0.008,0.019,0.02,0.019C0.103,1.008,0.145,0.993,0.2,0.972c0.013-0.04,0.035-0.113,0.071-0.22    C0.316,0.787,0.37,0.806,0.429,0.806c0.014,0,0.041-0.013,0.083-0.039c0.012,0.046,0.034,0.112,0.064,0.197    C0.585,0.968,0.596,0.978,0.61,0.99c0.014,0.013,0.028,0.019,0.041,0.019C0.66,0.999,0.68,0.987,0.709,0.971l2.14,0.017    C2.945,0.981,2.991,0.91,2.982,0.773l0.229-0.008c0,0.036,0.015,0.082,0.042,0.141c0.028,0.06,0.074,0.088,0.137,0.088    l2.255-0.007c0.021,0,0.064-0.063,0.133-0.19c0.06,0.015,0.12,0.012,0.18-0.008L5.951-0.332z M-5.011,0.327l0.006,0.636    l-0.432,0.008C-5.442,0.95-5.448,0.789-5.458,0.486c0.116-0.062,0.242-0.122,0.384-0.182C-5.083,0.305-5.062,0.312-5.011,0.327z     M-4.487,0.963h-0.454l-0.006-0.636l0.453-0.008L-4.487,0.963z M-3.022-1.523c-0.041,0.046-0.063,0.089-0.063,0.129    c-0.041,0-0.085,0-0.134,0c-0.054,0-0.083,0.03-0.083,0.092h-0.057c0.008-0.057,0.024-0.13,0.045-0.221    c0.075,0.021,0.144,0.03,0.197,0.03c0.004-0.02,0.022-0.037,0.052-0.053C-3.053-1.546-3.039-1.539-3.022-1.523z M-2.645,0.182    v0.107c0,0.06-0.016,0.253-0.045,0.576C-2.707,0.896-2.748,0.91-2.812,0.91c-0.046-0.004-0.215-0.004-0.503,0V0.509    c0.021-0.091,0.021-0.197,0-0.317L-2.645,0.182z M-0.267-1.303l-0.715,0.007c0.018-0.035,0.037-0.087,0.058-0.151    C-0.771-1.412-0.552-1.364-0.267-1.303z M1.459-1.288H1.107C1.17-1.334,1.214-1.356,1.235-1.356h0.211    C1.449-1.342,1.454-1.318,1.459-1.288z M4.973-1.387v0.076H4.947v-0.076H4.973z" fill="#FFFFFF"/>
		</g>
	</g></svg>