<?xml version="1.0" standalone="no"?>
<svg xmlns="http://www.w3.org/2000/svg" viewBox="-6.37 -6.37 12.74 12.74" color="#212121" width="75" height="75"><g transform="matrix(1 0 0 -1 0 0)">
		<g xmlns="http://www.w3.org/2000/svg">
			<path class="primary" fill="currentColor" d="M0-6.245c-3.444,0-6.245,2.802-6.245,6.246c0,3.443,2.802,6.244,6.245,6.244s6.245-2.801,6.245-6.244    C6.245-3.443,3.444-6.245,0-6.245z"/>
			<path class="secondary" d="M0,6.12c3.38,0,6.12-2.74,6.12-6.119C6.12-3.38,3.38-6.12,0-6.12s-6.12,2.74-6.12,6.121    C-6.12,3.38-3.38,6.12,0,6.12 M0,6.37c-3.513,0-6.37-2.857-6.37-6.369C-6.37-3.512-3.513-6.37,0-6.37s6.37,2.858,6.37,6.371    C6.37,3.513,3.513,6.37,0,6.37L0,6.37z" fill="#FFFFFF"/>
		</g>
		<g xmlns="http://www.w3.org/2000/svg">
			<path class="secondary" d="M-4.695,1.597v0.245l0.429-0.058l2.621,0.021l0.618,0.168l0.879,0.542l0.337-0.037    c0,0,0.094,0.507,0.393,0.094C0.882,2.16,0.826,2.31,0.826,2.31S1.05,2.664,1.163,2.478C1.274,2.29,1.219,2.571,1.219,2.571    l0.936-0.02L2.248,2.44V2.217l0.731-0.039l0.093-0.093c0,0,0.148,0.132,0.242-0.055c0.094-0.188,0.094-0.188,0.094-0.188    L3.371,1.279l-0.917,0.02l0.073-0.226l0.768-0.018l0.113-0.094l0.394,0.3l0.675-0.02L4.57,1.167l0.298,0.075L5.43,1.073h0.168    V0.942l0.188-0.243L5.748,0.344L5.917,0.27L5.804-0.704L5.412-0.686c0,0,0.28-0.299,0.168-0.563    c-0.112-0.26-1.404-1.197-1.404-1.197s-0.413-0.337-0.861-0.28s-6.419,0.02-6.419,0.02s-0.713-0.037-1.197,0.261    c-0.488,0.3-1.181,0.638-1.181,0.638s-0.769,0.505-0.263,1.104c0.013,0.015-0.033,0.247,0.056,0.354l0.095,0.113v0.112    l0.299,0.075l1.256,0.543c0.121,0.054,0.074,0.355,0.316,0.131c0.244-0.226,0.062-0.12,0.113-0.094l0.485,0.242l0.208,0.021    l0.019,0.131l0.317,0.168l0.767,0.057h0.487l0.262-0.131l0.056,0.168l-0.224,0.188l-0.243,0.112l-0.169,0.11l-2.621,0.038    L-4.695,1.597z" fill="#FFFFFF"/>
			<path class="secondary" d="M-4.695,1.597v0.245l0.429-0.058l2.621,0.021l0.618,0.168l0.879,0.542l0.337-0.037    c0,0,0.094,0.507,0.393,0.094C0.882,2.16,0.826,2.31,0.826,2.31S1.05,2.664,1.163,2.478C1.274,2.29,1.219,2.571,1.219,2.571    l0.936-0.02L2.248,2.44V2.217l0.731-0.039l0.093-0.093c0,0,0.148,0.132,0.242-0.055c0.094-0.188,0.094-0.188,0.094-0.188    L3.371,1.279l-0.917,0.02l0.073-0.226l0.768-0.018l0.113-0.094l0.394,0.3l0.675-0.02L4.57,1.167l0.298,0.075L5.43,1.073h0.168    V0.942l0.188-0.243L5.748,0.344L5.917,0.27L5.804-0.704L5.412-0.686c0,0,0.28-0.299,0.168-0.563    c-0.112-0.26-1.404-1.197-1.404-1.197s-0.413-0.337-0.861-0.28s-6.419,0.02-6.419,0.02s-0.713-0.037-1.197,0.261    c-0.488,0.3-1.181,0.638-1.181,0.638s-0.769,0.505-0.263,1.104c0.013,0.015-0.033,0.247,0.056,0.354l0.095,0.113v0.112    l0.299,0.075l1.256,0.543c0.121,0.054,0.074,0.355,0.316,0.131c0.244-0.226,0.062-0.12,0.113-0.094l0.485,0.242l0.208,0.021    l0.019,0.131l0.317,0.168l0.767,0.057h0.487l0.262-0.131l0.056,0.168l-0.224,0.188l-0.243,0.112l-0.169,0.11l-2.621,0.038    L-4.695,1.597z" fill="#FFFFFF"/>
		</g>
	</g></svg>