<?xml version="1.0" standalone="no"?>
<svg xmlns="http://www.w3.org/2000/svg" viewBox="-6.37 -6.37 12.74 12.74" color="#212121" width="75" height="75"><g transform="matrix(1 0 0 -1 0 0)">
		<g xmlns="http://www.w3.org/2000/svg">
			<path class="primary" fill="currentColor" d="M0-6.245c-3.444,0-6.245,2.802-6.245,6.246c0,3.443,2.802,6.244,6.245,6.244s6.245-2.801,6.245-6.244    C6.245-3.443,3.444-6.245,0-6.245z"/>
			<path class="secondary" d="M0,6.12c3.38,0,6.12-2.74,6.12-6.119C6.12-3.38,3.38-6.12,0-6.12s-6.12,2.74-6.12,6.121    C-6.12,3.38-3.38,6.12,0,6.12 M0,6.37c-3.513,0-6.37-2.857-6.37-6.369C-6.37-3.512-3.513-6.37,0-6.37s6.37,2.858,6.37,6.371    C6.37,3.513,3.513,6.37,0,6.37L0,6.37z" fill="#FFFFFF"/>
		</g>
		<g xmlns="http://www.w3.org/2000/svg">
			<path id="M60AI_Armored_Vehicle_Launched_Bridge_2_" class="secondary" d="M-0.494-1.98c-0.062-0.052-0.109-0.088-0.14-0.108    C-0.686-2.13-0.726-2.161-0.75-2.187c-0.043-0.022-0.092-0.056-0.149-0.096C-1.065-2.396-1.18-2.455-1.244-2.458    C-1.27-2.462-1.289-2.465-1.302-2.469c-0.021,0.004-0.04,0.007-0.056,0.011c-0.003,0-0.02-0.001-0.054-0.005l-2.99,0.01    c-0.103,0-0.171,0.01-0.209,0.025c-0.02,0.007-0.036,0.014-0.048,0.02c-0.149,0.09-0.261,0.155-0.337,0.196    c-0.058,0.037-0.125,0.089-0.198,0.154c-0.051,0.04-0.078,0.064-0.084,0.071c-0.037,0.068-0.063,0.121-0.078,0.158    c-0.043,0.045-0.076,0.066-0.106,0.066c-0.004,0-0.007-0.001-0.008-0.002C-5.473-1.767-5.476-1.78-5.48-1.807    c-0.006-0.052-0.01-0.09-0.012-0.117C-5.495-1.948-5.503-1.96-5.518-1.96c-0.014,0-0.019,0.013-0.019,0.04    c0.003,0.024,0.005,0.05,0.008,0.076c0.005,0.027,0.006,0.053,0.006,0.077c0,0.031-0.008,0.052-0.021,0.062    c-0.057,0.044-0.084,0.068-0.087,0.071c-0.005,0.018-0.008,0.032-0.008,0.041c0,0.018,0.007,0.033,0.021,0.049    s0.021,0.026,0.025,0.033C-5.599-1.49-5.601-1.447-5.598-1.384c0.022,0.019,0.041,0.029,0.054,0.037    C-5.559-1.341-5.572-1.332-5.582-1.32c-0.003,0.013-0.008,0.027-0.02,0.045C-5.61-1.256-5.617-1.243-5.617-1.228    c0.003,0.005,0.007,0.014,0.009,0.022c0.001,0.008,0.004,0.019,0.006,0.027c0-0.021-0.012-0.005-0.037,0.047    c-0.005,0.018-0.01,0.031-0.01,0.045c-0.019,0.028-0.034,0.048-0.047,0.062c-0.002,0.034-0.002,0.062,0,0.081    C-5.699-0.936-5.702-0.93-5.702-0.922c0,0.023,0.022,0.035,0.067,0.035c-0.009,0.018-0.03,0.051-0.067,0.103    c-0.027,0.04-0.041,0.074-0.041,0.098c0,0.053,0.031,0.081,0.097,0.081c0.02-0.01,0.037-0.019,0.049-0.026    c0.03,0.015,0.059,0.03,0.083,0.047h0.226c0.027,0.003,0.061,0.007,0.099,0.008c0.04,0.001,0.073,0.003,0.101,0.003    c0.02,0,0.033-0.002,0.041-0.005c0.011-0.014,0.017-0.024,0.022-0.031C-5.012-0.613-5-0.615-4.991-0.615L-4.74-0.62    c0.012,0,0.025,0.006,0.038,0.017c0.014,0.014,0.023,0.019,0.028,0.019C-4.646-0.598-4.622-0.61-4.602-0.62h0.451h0.86    l0.105,0.129h0.691l0.075-0.041h0.262c0,0,0.158,0.236,0.315,0.011h0.661c0,0-0.044,0.256,0.121,0.256l0.75-0.093    c0,0,0.098-0.05,0.098-0.225l0.804-0.435l0.166,0.247c0,0,0.046,0.593,0.165,1.033l1.533,3.702h0.158l0.074,0.102l0.188,0.112    l0.331,0.618l0.112-0.103L3.341,4.5l0.231-0.133L3.66,4.402l0.031,0.113c0,0,0.091,0.092,0.189-0.041L5.412,0.49l0.322-2.303    l-0.3,0.097L4.96-0.262l0.217-1.351l-0.06-0.103l-0.196-0.01L3.066,3.276L1.118-1.499L0.79-1.729v0.194L0.503-1.913v-0.204    c0,0,0.354-0.011,0.354-0.318H0.278l-0.653,0.163l0.172,0.298L-0.494-1.98z M-1.117-1.949C-1.21-1.938-1.287-1.891-1.35-1.81    c0-0.045-0.002-0.073-0.006-0.084c-0.05-0.048-0.091-0.074-0.125-0.078c0-0.093-0.023-0.178-0.07-0.256L-1.117-1.949z     M-1.966-2.322C-2.059-2.245-2.11-2.149-2.123-2.038C-2.127-2.022-2.13-2.011-2.136-2.002c-0.004,0.009-0.007,0.015-0.01,0.015    c-0.003-0.009-0.006-0.014-0.01-0.017C-2.159-2.135-2.214-2.24-2.324-2.322H-1.966z M-2.649-2.322    C-2.745-2.245-2.795-2.157-2.798-2.06c0,0.022-0.002,0.033-0.009,0.033h-0.028c-0.004-0.007-0.008-0.013-0.01-0.017    c0-0.107-0.053-0.203-0.159-0.284C-2.833-2.328-2.715-2.325-2.649-2.322z M-3.334-2.334c-0.097,0.089-0.148,0.188-0.154,0.296    C-3.493-2.03-3.497-2.025-3.497-2.022C-3.503-2.036-3.508-2.05-3.511-2.066c-0.017-0.1-0.071-0.188-0.168-0.268H-3.334z     M-3.986-2.334c-0.09,0.067-0.146,0.168-0.172,0.302h-0.033C-4.194-2.036-4.197-2.04-4.2-2.044    c-0.004-0.107-0.06-0.204-0.168-0.29C-4.368-2.334-3.986-2.334-3.986-2.334z M-4.681-2.34c-0.051,0.046-0.086,0.087-0.111,0.123    C-4.811-2.19-4.823-2.162-4.83-2.134c-0.005,0.03-0.01,0.055-0.014,0.069c-0.002,0.018-0.006,0.03-0.009,0.037    c-0.016-0.152-0.08-0.256-0.19-0.312C-5.043-2.34-4.681-2.34-4.681-2.34z M-5.212-2.345c-0.117,0.082-0.177,0.183-0.172,0.301    c-0.005,0.004-0.01,0.01-0.02,0.017h-0.019c0-0.003-0.003-0.011-0.009-0.022C-5.445-2.186-5.51-2.284-5.627-2.344L-5.212-2.345    L-5.212-2.345z" fill="#FFFFFF"/>
		</g>
	</g></svg>