<?xml version="1.0" standalone="no"?>
<svg xmlns="http://www.w3.org/2000/svg" viewBox="-6.37 -6.37 12.74 12.74" color="#212121" width="75" height="75"><g transform="matrix(1 0 0 -1 0 0)">
		<g xmlns="http://www.w3.org/2000/svg">
			<path class="primary" fill="currentColor" d="M0-6.245c-3.444,0-6.245,2.802-6.245,6.246c0,3.443,2.802,6.244,6.245,6.244s6.245-2.801,6.245-6.244    C6.245-3.443,3.444-6.245,0-6.245z"/>
			<path class="secondary" d="M0,6.12c3.38,0,6.12-2.74,6.12-6.119C6.12-3.38,3.38-6.12,0-6.12s-6.12,2.74-6.12,6.121    C-6.12,3.38-3.38,6.12,0,6.12 M0,6.37c-3.513,0-6.37-2.857-6.37-6.369C-6.37-3.512-3.513-6.37,0-6.37s6.37,2.858,6.37,6.371    C6.37,3.513,3.513,6.37,0,6.37L0,6.37z" fill="#FFFFFF"/>
		</g>
		<g xmlns="http://www.w3.org/2000/svg">
			<path class="secondary" d="M5.843,1.322v0.239L5.594,1.746L5.472,1.657L3.891,1.669c0,0.001,0,0.002,0,0.002    c0,0.102-0.073,0.185-0.16,0.185c-0.09,0-0.16-0.083-0.16-0.185H2.128C2.084,1.779,1.99,1.855,1.879,1.855h-1.16    c-0.112,0-0.206-0.076-0.25-0.185c-0.042,0-0.117,0-0.26,0c-0.309,0-0.272-0.198-0.272-0.198l0.159-0.621h0.049l0.272-0.539V0.094    l0.059-0.027h0.26l0.083,0.062l0.088-0.123H-0.76l-0.07,0.081v0.737c0,0.28-0.202,0.206-0.202,0.206v0.19h-0.119v0.088    c0.017,0.016,0.028,0.04,0.028,0.067v0.207c0,0.051-0.035,0.091-0.079,0.091c-0.043,0-0.078-0.04-0.078-0.091V1.376    c0-0.033,0.014-0.06,0.035-0.076V1.221h-0.101V0.483l-0.059-0.048V0.381l0.059-0.041v-1.133h-0.136v2.354l-0.271,0.15L-2.783,1.5    h-0.076l-0.076-0.874H-3.09v0.99c0.012,0.068,0.048,0.089,0.048,0.089L-3.131,1.78c-0.029-0.007-0.1-0.116-0.1-0.116V0.606    l-0.722-0.038V0.66h0.065c0,0.095-0.065,0.171-0.148,0.171c-0.08,0-0.147-0.076-0.147-0.171h0.062v-0.1l-0.036-0.002    c-1.125-0.055-1.035-0.321-1.035-0.321v-1.03h-0.701v-0.411h0.105v-0.102h0.143v0.102h0.179v-0.102h0.202v0.102l0.06-0.081h0.095    l0.148-0.073C-4.987-1.446-5.004-1.541-5.004-1.64c0-0.467,0.379-0.737,0.783-0.737c0.405,0,0.684,0.271,0.684,0.737    c0,0.074-0.008,0.145-0.023,0.212h0.131v0.178h0.591v-0.321h0.112v0.056h1.047v-0.056h0.404v-0.085h0.092v0.085h0.59v-0.085h0.094    v0.085h0.4v0.164h0.304c-0.021-0.075-0.03-0.154-0.03-0.234c0-0.467,0.378-0.737,0.781-0.737c0.317,0,0.539,0.125,0.642,0.451    H1.61c0-0.076,0.054-0.136,0.119-0.136c0.064,0,0.119,0.06,0.119,0.136c0-0.076,0.052-0.136,0.117-0.136    c0.064,0,0.117,0.06,0.117,0.136h0.026c0.104-0.326,0.422-0.451,0.74-0.451c0.405,0,0.684,0.271,0.684,0.737    c0,0.16-0.038,0.31-0.106,0.437h0.579l0.118-0.149h0.189c0.015-0.048,0.055-0.082,0.1-0.082c0.06,0,0.106,0.056,0.106,0.123    S4.472-1.189,4.412-1.189c-0.013,0-0.023-0.003-0.035-0.008v0.049h0.248v0.284L4.562-0.793v0.058l0.027,0.03v0.104h0.053    L4.66-0.268H4.613v0.115H4.478v-0.13H4.389v0.103H4.246v0.096H4.163v0.116H4.005v0.53H3.979C3.981,0.58,3.984,0.599,3.984,0.617    v0.059c0,0.145-0.102,0.262-0.228,0.262c-0.012,0-0.024-0.002-0.035-0.004l0.041,0.027H4.17l0.219-0.198    C4.369,0.74,4.356,0.708,4.356,0.674c0-0.069,0.049-0.126,0.109-0.126c0.061,0,0.109,0.057,0.109,0.126    c0,0.067-0.046,0.122-0.104,0.126v0.1h0.041v0.109l0.261,0.002c0.001-0.099,0.071-0.18,0.16-0.18c0.087,0,0.159,0.083,0.159,0.183    l0.07,0.001v0.048h0.083l0.147-0.286L5.329,0.702l0.07-0.424h0.059V0.176c-0.049-0.037-0.079-0.1-0.079-0.171    c0-0.111,0.078-0.202,0.175-0.202S5.73-0.106,5.73,0.005L5.717,0.114c-0.061,0-0.076-0.109-0.076-0.109    c0-0.055-0.04-0.101-0.087-0.101c-0.049,0-0.088,0.046-0.088,0.101c0,0.056,0.039,0.101,0.088,0.101v0.05v0.053v0.077h0.047    l0.112,0.438l-0.066,0.1l0.055,0.409L5.843,1.322z M3.73,1.767c0.045,0,0.082-0.044,0.082-0.096H3.646    C3.646,1.723,3.684,1.767,3.73,1.767z M3.532,0.676V0.617c0-0.019,0.001-0.037,0.004-0.055H3.532V0.411H3.307V0.032h-0.88    L2.172,0.831l0.179-0.193c-0.005-0.019-0.008-0.04-0.008-0.061c0-0.137,0.097-0.248,0.214-0.248h0.045    c0.118,0,0.214,0.111,0.214,0.248c0,0.034-0.005,0.067-0.017,0.098L2.93,0.893h0.702C3.571,0.847,3.532,0.766,3.532,0.676z     M4.934,0.919c-0.045,0-0.081,0.043-0.083,0.092l0.165,0.003C5.015,0.962,4.979,0.919,4.934,0.919z" fill="#FFFFFF"/>
		</g>
	</g></svg>