<?xml version="1.0" standalone="no"?>
<svg xmlns="http://www.w3.org/2000/svg" viewBox="-6.37 -6.37 12.74 12.74" color="#212121" width="75" height="75"><g transform="matrix(1 0 0 -1 0 0)">
		<g xmlns="http://www.w3.org/2000/svg">
			<path class="primary" fill="currentColor" d="M0-6.245c-3.444,0-6.245,2.802-6.245,6.246c0,3.443,2.802,6.244,6.245,6.244s6.245-2.801,6.245-6.244    C6.245-3.443,3.444-6.245,0-6.245z"/>
			<path class="secondary" d="M0,6.12c3.38,0,6.12-2.74,6.12-6.119C6.12-3.38,3.38-6.12,0-6.12s-6.12,2.74-6.12,6.121    C-6.12,3.38-3.38,6.12,0,6.12 M0,6.37c-3.513,0-6.37-2.857-6.37-6.369C-6.37-3.512-3.513-6.37,0-6.37s6.37,2.858,6.37,6.371    C6.37,3.513,3.513,6.37,0,6.37L0,6.37z" fill="#FFFFFF"/>
		</g>
		<g xmlns="http://www.w3.org/2000/svg">
			<path id="M88_Recovery_Vehicle_2_" class="secondary" d="M4.921-0.743L4.044,2.214v2.05c0.014,0.035,0.022,0.072,0.022,0.112    c0,0.128-0.079,0.23-0.177,0.23c-0.096,0-0.174-0.103-0.174-0.23c0-0.015,0-0.028,0.003-0.044L3.556,3.973l0.001-0.001l0,0    L3.556,3.973L3.54,3.994L3.157,3.525L3.154,3.521L2.995,3.417L2.908,3.388L2.767,3.167L-3.3-1.77    c-0.01,0.012-0.024,0.017-0.051-0.004l-0.273-0.202v0.38h-0.102v-0.505h-0.4l-0.263-0.215c0,0-0.008-0.076,0.051-0.086    l-0.069-0.073L-4.433-2.67l-0.451-0.355h0.102v-0.184l0.012-0.127C-4.786-3.32-4.807-3.31-4.829-3.31    c-0.053,0-0.095-0.055-0.095-0.124s0.042-0.124,0.095-0.124c0.03,0,0.057,0.018,0.074,0.048l0.002-0.024l0.072-0.028v-0.145    l0.227-0.048c0,0-0.08-0.269,0.146-0.451l1.062-0.768h5.003L3.099-4.35c0,0,0.183,0.144,0.183,0.69c0,0,0.153,0.048,0.248,0.202    h0.26l0.081,0.163L3.383-3.112c0,0-0.131-0.019-0.167-0.039C3.179-3.17,3.005-3.017,3.005-3.017l0.152,0.221v0.278    c0,0-0.204,0.086-0.276-0.028L2.838-2.613L2.771-2.508l0.335,0.201L2.968-1.989l-0.13-0.116L2.669-2.124l-0.005,0.01    c0.063,0.007,0.114,0.077,0.114,0.163c0,0.089-0.056,0.162-0.123,0.162c-0.049,0-0.091-0.036-0.11-0.089l-0.05,0.101v0.104    L2.429-1.616v0.202h-0.08L2.268-1.348H2.203L2.101-1.212l1.563,4.743h0.095L3.78,3.704l0.066,0.183h0.088l0.022,0.096v0.182    c0.015,0.008,0.029,0.019,0.042,0.033V2.214L3.232-0.718l0.003-0.001v-0.978h0.918l0.786-0.059v1.008L4.921-0.743z M-3.289-1.831    c0,0,0,0.001,0,0.002l5.987,4.867L2.67,2.981l-0.052-0.06l-5.295-4.553c-0.009,0-0.022-0.006-0.037-0.018l-0.101-0.068    l-0.005,0.11c0,0-0.08,0.101-0.145-0.033V-2.01l-0.048-0.028l-0.488-0.01L-3.289-1.831z M1.471-4.782H0.965    c0.079,0.089,0.128,0.22,0.128,0.365c0,0.013-0.001,0.026-0.002,0.038h0.253c0-0.012,0-0.025,0-0.038    C1.344-4.562,1.394-4.693,1.471-4.782z M0.492-4.782h-0.506c0.077,0.089,0.128,0.22,0.128,0.365c0,0.013-0.001,0.026-0.002,0.038    h0.254C0.365-4.391,0.365-4.404,0.365-4.417C0.365-4.562,0.415-4.693,0.492-4.782z M-0.485-4.782h-0.508    c0.078,0.089,0.128,0.22,0.128,0.365c0,0.013,0,0.026-0.001,0.038h0.254c-0.001-0.012-0.002-0.025-0.002-0.038    C-0.614-4.562-0.564-4.693-0.485-4.782z M-1.466-4.782h-0.506c0.078,0.089,0.128,0.22,0.128,0.365    c0,0.013-0.001,0.026-0.002,0.038h0.253c0-0.012,0-0.025,0-0.038C-1.593-4.562-1.544-4.693-1.466-4.782z M-2.444-4.782H-2.95    c0.078,0.089,0.127,0.22,0.127,0.365c0,0.013,0,0.026,0,0.038h0.253c-0.002-0.012-0.002-0.025-0.002-0.038    C-2.572-4.562-2.522-4.693-2.444-4.782z M-3.549-4.379c-0.002-0.012-0.003-0.025-0.003-0.038c0-0.046,0.006-0.092,0.015-0.135    l-0.276,0.173C-3.813-4.379-3.549-4.379-3.549-4.379z M2.742-4.379L2.015-4.673c0.036,0.074,0.057,0.162,0.057,0.256    c0,0.013,0,0.026,0,0.038C2.072-4.379,2.742-4.379,2.742-4.379z M1.824-1.203H1.628L1.555-1.317h-0.67L0.873-1.27H0.757    L0.691-1.15l0.187,0.077v0.316h0.023C0.9-0.788,0.9-0.819,0.9-0.851C0.898-0.857,0.897-0.863,0.895-0.868    C0.893-0.873,0.892-0.878,0.89-0.884c0-0.005-0.001-0.01-0.002-0.017C0.887-0.906,0.887-0.913,0.887-0.923    c0-0.003,0-0.007,0.001-0.012s0.004-0.007,0.007-0.007s0.006,0.001,0.008,0.003c0.002,0.002,0.006,0.004,0.009,0.005    C0.914-0.931,0.916-0.93,0.919-0.928c0.003,0.002,0.006,0.003,0.008,0.001l0.031,0.022c0-0.001,0-0.001,0-0.001    c0.002,0,0.002,0,0.003,0.001c0.01,0.006,0.021,0.013,0.033,0.02C1.007-0.877,1.017-0.87,1.026-0.861    c0.002,0.002,0.005,0.006,0.008,0.01c0.004,0.005,0.005,0.007,0.005,0.008v0.058c0,0.002-0.001,0.004-0.001,0.004    c-0.001,0-0.002,0.002-0.004,0.002C1.033-0.778,1.031-0.777,1.03-0.776C1.029-0.774,1.028-0.772,1.028-0.771    c0,0.023,0.001,0.047,0.004,0.067C1.034-0.682,1.035-0.66,1.034-0.639c0,0.002,0.001,0.004,0.002,0.005    C1.038-0.633,1.04-0.632,1.043-0.63c0.002,0,0.005,0.001,0.007,0.002c0.001,0.001,0.003,0.001,0.003,0.001    c0.003,0.011,0.008,0.021,0.013,0.033c0.006,0.011,0.012,0.02,0.021,0.024c0.057,0.002,0.112,0.003,0.169,0.004    C1.314-0.565,1.37-0.565,1.427-0.567C1.429-0.562,1.432-0.56,1.433-0.559c0,0.001,0,0.003,0.001,0.004    c0,0.001,0.001,0.002,0.004,0.002c0,0.001,0.005,0.001,0.012,0.001c0-0.002-0.001-0.004-0.001-0.006    C1.447-0.56,1.447-0.562,1.448-0.562c0.001,0,0.001-0.002,0.003-0.004c0.002-0.001,0.004-0.002,0.005-0.003    c0.002,0,0.008,0,0.015-0.001c0.009,0,0.017-0.001,0.025-0.002c0.008,0,0.015,0,0.023,0c0.007,0,0.013,0,0.017,0h0.02h0.02    C1.58-0.57,1.585-0.565,1.59-0.559c0.006,0.006,0.009,0.011,0.011,0.015h0.038C1.64-0.545,1.642-0.546,1.643-0.547    c0,0,0.002,0,0.002-0.001h0.002c0,0,0.003,0.001,0.007,0.001s0.007,0.002,0.01,0.004c0.005,0.002,0.008,0.004,0.01,0.007    C1.676-0.535,1.678-0.532,1.678-0.53c0,0.01-0.003,0.016-0.007,0.021C1.668-0.506,1.662-0.505,1.656-0.505l0.005,0.01h0.077    c0.004,0,0.007,0.002,0.009,0.007c0.004,0.004,0.006,0.009,0.006,0.013c0,0.001-0.001,0.005-0.002,0.011    C1.75-0.46,1.75-0.457,1.748-0.453L1.746-0.45c-0.003,0-0.007,0-0.014,0c-0.006,0-0.013-0.001-0.02-0.001S1.699-0.45,1.694-0.45    c-0.007,0-0.012,0-0.014,0c-0.002,0-0.004,0.001-0.008,0.001c-0.005,0.001-0.008,0.002-0.01,0.002v0.002    c0,0.003,0.001,0.005,0.002,0.008c0.002,0,0.003,0.002,0.003,0.006c0,0.006-0.003,0.009-0.008,0.01c-0.003,0-0.007,0-0.01,0    S1.644-0.42,1.637-0.42c-0.003,0-0.009,0-0.015,0c-0.007,0-0.012,0.001-0.019,0.001c-0.006,0.001-0.008,0.001-0.01,0.001H1.584    c-0.006,0-0.013,0.001-0.02,0.001s-0.014,0-0.021,0H1.526H1.513c-0.007,0-0.014,0-0.021,0S1.478-0.418,1.471-0.418H1.458    C1.455-0.42,1.453-0.423,1.452-0.425C1.451-0.426,1.45-0.428,1.449-0.429c0-0.002-0.003-0.002-0.005-0.003    c0,0-0.006-0.001-0.011-0.001c-0.011,0-0.021,0.002-0.03,0.004C1.395-0.426,1.385-0.425,1.375-0.425    c-0.003,0-0.006-0.001-0.007-0.001C1.366-0.428,1.364-0.429,1.361-0.429H1.359c0,0-0.002,0.002-0.005,0.003    C1.352-0.423,1.349-0.422,1.349-0.422H1.348H1.347c-0.001,0-0.002,0-0.003-0.001C1.343-0.425,1.342-0.425,1.341-0.426    c0,0-0.002,0-0.003-0.003C1.335-0.431,1.333-0.432,1.333-0.432c-0.001,0-0.003,0.001-0.005,0.003    C1.327-0.426,1.325-0.426,1.325-0.426c-0.001,0-0.002,0-0.003,0.001H1.319c-0.002,0-0.005-0.001-0.008-0.002    c0-0.002-0.003-0.003-0.005-0.003c-0.004,0-0.008,0.002-0.011,0.004C1.292-0.423,1.289-0.422,1.284-0.422H1.283    C1.281-0.423,1.28-0.426,1.276-0.429C1.272-0.432,1.27-0.436,1.27-0.437c-0.002,0.006-0.005,0.01-0.009,0.011    C1.259-0.423,1.255-0.421,1.25-0.421c-0.007,0-0.012-0.004-0.017-0.011C1.231-0.426,1.229-0.421,1.228-0.42    C1.224-0.418,1.221-0.417,1.217-0.417c-0.005,0-0.007-0.002-0.009-0.004c0-0.004-0.002-0.005-0.005-0.005H1.201    c0,0-0.002,0.001-0.004,0.001c-0.001,0-0.003,0.001-0.006,0.001c-0.002,0-0.004,0.001-0.004,0.001    C1.184-0.422,1.183-0.422,1.182-0.422c0,0-0.002-0.001-0.003-0.003C1.176-0.426,1.175-0.426,1.175-0.426    C1.173-0.425,1.171-0.424,1.171-0.421C1.168-0.42,1.165-0.419,1.165-0.418S1.163-0.417,1.163-0.417c-0.001,0-0.001,0-0.001,0    c-0.002,0-0.002-0.001-0.002-0.001s-0.001,0-0.003-0.001C1.156-0.42,1.154-0.42,1.154-0.421C1.152-0.423,1.149-0.424,1.148-0.425    c-0.001,0-0.001-0.001-0.001-0.001c-0.002,0-0.002,0.001-0.004,0.002c0,0.001-0.001,0.002-0.001,0.002    C1.141-0.421,1.139-0.42,1.136-0.42C1.134-0.419,1.131-0.419,1.13-0.418H1.129c-0.003,0-0.006-0.001-0.007-0.002    C1.121-0.422,1.118-0.424,1.118-0.426C1.116-0.427,1.115-0.429,1.113-0.431C1.111-0.432,1.11-0.433,1.108-0.433    S1.102-0.431,1.097-0.426C1.091-0.42,1.088-0.416,1.086-0.414c-0.001,0.001-0.004,0.005-0.009,0.01    C1.073-0.399,1.07-0.394,1.065-0.389C1.061-0.383,1.057-0.377,1.053-0.371C1.05-0.365,1.047-0.362,1.045-0.36    c0,0,0.003,0.001,0.005,0.001c0.001,0.001,0.004,0.001,0.006,0.002c0.003,0,0.005,0,0.005,0c0.005,0,0.006,0.001,0.006,0.001H1.07    c0.003,0,0.005-0.001,0.007-0.005c0.002-0.002,0.005-0.003,0.008-0.003c0.006,0,0.011,0,0.014,0.001    c0.003,0,0.006,0.002,0.009,0.004C1.109-0.357,1.112-0.353,1.113-0.35c0.003,0.004,0.006,0.01,0.01,0.016    C1.126-0.327,1.13-0.321,1.134-0.316C1.136-0.312,1.14-0.305,1.142-0.297C1.14-0.298,1.137-0.296,1.134-0.295    C1.131-0.292,1.129-0.291,1.128-0.291c0,0-0.003-0.001-0.005-0.003C1.121-0.295,1.12-0.295,1.12-0.295H1.112    c-0.005,0-0.011,0-0.016,0c-0.004,0.001-0.01,0.002-0.015,0.004C1.079-0.293,1.076-0.297,1.075-0.303h-0.02    c-0.008,0-0.019,0-0.028-0.001c-0.012,0-0.021,0-0.03,0h-0.02c-0.036,0-0.072,0-0.108,0.001c-0.035,0-0.071,0.002-0.107,0.008    H0.758c0,0-0.002,0.002-0.002,0.004C0.755-0.29,0.755-0.29,0.755-0.288s0,0.004,0,0.004c0,0.002-0.001,0.003-0.003,0.004    c0,0-0.002,0-0.005,0.001c-0.002,0-0.004,0-0.007,0c-0.004,0-0.006,0-0.009,0C0.729-0.278,0.729-0.278,0.728-0.278    c-0.002,0-0.004,0-0.008-0.001c0,0-0.005,0-0.008,0c-0.002,0-0.004,0-0.009-0.001L0.697-0.288v-0.087c0,0,0.001-0.001,0.001-0.002    c0.001-0.001,0.001-0.001,0.001-0.001c0.002,0,0.005-0.002,0.009-0.005c0.004-0.001,0.007-0.002,0.009-0.003    C0.715-0.391,0.71-0.395,0.704-0.397C0.698-0.4,0.693-0.401,0.689-0.403S0.68-0.406,0.672-0.409    C0.667-0.411,0.66-0.413,0.654-0.415C0.647-0.416,0.644-0.419,0.639-0.42C0.634-0.421,0.632-0.422,0.632-0.422H0.626    c0,0-0.002-0.001-0.006-0.003C0.615-0.426,0.61-0.427,0.605-0.429C0.599-0.431,0.594-0.433,0.588-0.436    C0.583-0.438,0.577-0.438,0.573-0.439C0.572-0.44,0.572-0.442,0.57-0.444C0.569-0.447,0.568-0.449,0.567-0.452    c0-0.001-0.001-0.005-0.002-0.006C0.564-0.46,0.563-0.462,0.563-0.462H0.21c0,0-0.002,0.001-0.003,0.002    C0.206-0.459,0.205-0.458,0.205-0.458c0,0.001,0,0.002,0,0.003c0,0,0,0.001,0,0.002S0.206-0.45,0.207-0.447    C0.21-0.443,0.21-0.439,0.212-0.437c0.002,0.005,0.004,0.008,0.005,0.011C0.219-0.421,0.22-0.419,0.222-0.418l0.002,0.004    c0,0,0.001,0.002,0.002,0.004c0.001,0.001,0.001,0.003,0.001,0.003c0,0.002-0.001,0.006-0.003,0.011S0.222-0.389,0.219-0.389    H0.122c0,0-0.001-0.003-0.003-0.011C0.118-0.405,0.116-0.413,0.116-0.421C0.115-0.43,0.114-0.438,0.114-0.445s0-0.012,0-0.013    c0-0.004,0-0.009,0.001-0.012s0.001-0.007,0.001-0.012c0-0.011-0.001-0.023-0.004-0.036C0.109-0.53,0.106-0.545,0.102-0.559    c-0.003-0.014-0.007-0.027-0.011-0.04c-0.004-0.014-0.007-0.025-0.01-0.035v-0.002c0-0.003,0.002-0.006,0.003-0.01    c0.002-0.006,0.002-0.009,0.003-0.011h0.016C0.106-0.652,0.108-0.648,0.11-0.645c0.003,0.003,0.003,0.006,0.005,0.01    C0.116-0.632,0.118-0.63,0.12-0.627c0,0,0.001,0.002,0.002,0.004c0,0.002,0.002,0.004,0.003,0.007    C0.126-0.614,0.127-0.61,0.128-0.609C0.129-0.607,0.13-0.605,0.131-0.605c0.001,0.001,0.001,0.002,0.003,0.004    C0.136-0.6,0.136-0.599,0.137-0.598c0.005,0.003,0.011,0.007,0.019,0.01c0.008,0.004,0.016,0.007,0.022,0.011    C0.185-0.573,0.193-0.572,0.2-0.568c0.008,0.002,0.015,0.005,0.021,0.006c0.003,0,0.006,0.002,0.011,0.002    c0.004,0,0.009,0.001,0.011,0.004l0.071,0.03h0.005c0,0,0.007,0,0.012,0c0.007,0.001,0.015,0.001,0.023,0.001    c0.008,0,0.018,0,0.026,0.001c0.01,0,0.02,0,0.027,0s0.016,0.001,0.022,0.001s0.01,0,0.012,0h0.006h0.005    c0.005,0,0.01,0,0.018-0.001c0.008,0,0.018,0,0.025,0c0.009-0.001,0.018-0.001,0.026-0.001c0.009,0,0.015,0,0.017,0    c0.001-0.005,0.003-0.009,0.006-0.01c0.002-0.003,0.005-0.004,0.008-0.006C0.567-0.539,0.581-0.539,0.599-0.54    c0.016,0,0.031-0.004,0.044-0.011c0.001-0.006,0.002-0.008,0.002-0.008c0.003,0,0.004,0,0.006-0.004    c0.005-0.007,0.008-0.016,0.01-0.026C0.664-0.599,0.665-0.61,0.665-0.62c0-0.006-0.001-0.012-0.002-0.015    c-0.001-0.004-0.002-0.01-0.004-0.018c0-0.003-0.002-0.008-0.005-0.017S0.648-0.688,0.646-0.697    c-0.003-0.011-0.006-0.02-0.01-0.03c0-0.01-0.003-0.018-0.004-0.023C0.63-0.756,0.628-0.762,0.625-0.768    C0.624-0.774,0.621-0.78,0.618-0.786C0.615-0.79,0.612-0.793,0.608-0.797S0.6-0.803,0.598-0.807    c-0.004-0.004-0.007-0.007-0.01-0.011c-0.003-0.005-0.004-0.01-0.004-0.016h0.019c0.008,0,0.015,0,0.021,0    c0.009,0.001,0.017,0.001,0.023,0.001c0.008,0,0.015,0,0.021,0c0.005,0,0.01,0,0.014,0c0.012,0,0.02,0.002,0.026,0.005    c0.005,0.004,0.01,0.014,0.012,0.027v0.003v0.007v0.005v0.004c0,0.003,0.001,0.005,0.003,0.008S0.728-0.767,0.73-0.765    c0.002,0.004,0.005,0.008,0.006,0.011C0.737-0.753,0.739-0.75,0.739-0.746c0,0.001-0.001,0.001-0.003,0.004    c0,0.002-0.001,0.003-0.001,0.003v0.003c0,0.006,0.003,0.013,0.006,0.02C0.745-0.709,0.75-0.704,0.752-0.699v0.002v0.002    c0,0.001-0.001,0.002-0.001,0.005C0.749-0.688,0.749-0.685,0.749-0.684C0.75-0.682,0.754-0.681,0.762-0.679    c0.005,0.001,0.009,0.001,0.014,0.001v-0.079h0.037v-0.131H0.769L0.662-1.007L0.527-0.93L0.382-0.915L0.364-0.882L0.243-0.888    L0.219-0.915l-0.136,0.01L0.028-0.863v0.029l-0.042-0.023L-0.03-0.915l-0.053-0.048v-0.086l-0.058-0.074l-0.047-0.063v-0.079    h-0.086v-0.096h-0.095l-0.047,0.12h-0.467l-0.098-0.092H-1.07c0,0-0.063-0.057-0.072-0.384l-0.037,0.024    c0,0-0.003,0.076-0.021,0.082c-0.018,0.004-0.505,0-0.505,0l-0.044-0.077h-0.037l0.008-0.129l0.032-0.006l0.021-0.062    l-0.047-0.024v-0.192l0.044-0.023V-2.21l-0.291,0.195c0,0-0.056,0.159-0.161,0.017l-0.426-0.054l-0.175,0.211l0.132,0.148    c0,0,0.001,0.009,0.001,0.02l5.29,4.549L2.675,2.91l0.166,0.047c0,0,0.103,0.076,0.125,0.095c0.021,0.02,0.029,0.078,0.043,0.105    c0.015,0.029,0.015,0.078,0.015,0.078l0.117,0.143l0.082,0.146l0.367,0.41l0.023-0.026L1.824-1.203z M4.062,1.99l0.809-2.724    L4.293-0.618L4.062,1.99z M4.004,2.057L3.923-0.647L3.28-0.714L4.004,2.057z M3.966-0.644l0.074,2.4l0.208-2.371L3.966-0.644z" fill="#FFFFFF"/>
		</g>
	</g></svg>