<?xml version="1.0" standalone="no"?>
<svg xmlns="http://www.w3.org/2000/svg" viewBox="-6.37 -6.37 12.74 12.74" color="#212121" width="75" height="75"><g transform="matrix(1 0 0 -1 0 0)">
		<g xmlns="http://www.w3.org/2000/svg">
			<path class="primary" fill="currentColor" d="M0-6.245c-3.444,0-6.245,2.802-6.245,6.246c0,3.443,2.802,6.244,6.245,6.244s6.245-2.801,6.245-6.244    C6.245-3.443,3.444-6.245,0-6.245z"/>
			<path class="secondary" d="M0,6.12c3.38,0,6.12-2.74,6.12-6.119C6.12-3.38,3.38-6.12,0-6.12s-6.12,2.74-6.12,6.121    C-6.12,3.38-3.38,6.12,0,6.12 M0,6.37c-3.513,0-6.37-2.857-6.37-6.369C-6.37-3.512-3.513-6.37,0-6.37s6.37,2.858,6.37,6.371    C6.37,3.513,3.513,6.37,0,6.37L0,6.37z" fill="#FFFFFF"/>
		</g>
		<g xmlns="http://www.w3.org/2000/svg">
			<path id="M9_Armored_Combat_Earthmover_2_" class="secondary" d="M5.657-1.072v0.041c0.046,0.01,0.08,0.051,0.08,0.099    c0,0.049-0.034,0.089-0.08,0.099v0.048c0.024,0.019,0.042,0.048,0.042,0.082c0,0.019-0.005,0.034-0.013,0.049    C5.725-0.635,5.752-0.595,5.752-0.55c0,0.063-0.052,0.114-0.115,0.114c-0.021,0-0.041-0.007-0.059-0.016v0.011V0.01H5.534v1.733    H5.091l-0.309-0.03L4.756,3.11L4.73,1.708L3.275,1.57L3.268,1.78c0.223,0.19,0,0.298,0,0.298l-0.19,0.158H2.29    C2.265,2.318,2.149,2.262,2.149,2.262H1.984c-0.609,0-0.723-0.316-0.723-0.316H1.116L0.963,1.698H0.576l-0.915-0.241l0.02-0.032    h0.146v-0.21H-0.23l-0.038,0.108L-0.49,1.286V1.228l-0.097-0.063l0.146-0.178V0.904l-1.758-0.165    c-0.082,0.184-0.185,0.05-0.185,0.05l-0.089-0.215l-1.435,0.037v0.096h-0.247L-4.206,0.58h-0.165L-4.46,0.77l-0.195-0.011    c-0.192,0.171-0.23-0.032-0.23-0.032l0.031-0.172h-0.138h-0.306V0.403c0,0-0.166-0.014-0.179-0.433    C-5.49-0.448-5.388-0.119-5.388-0.119l0.076,0.076l0.146-0.089c0,0,0.121-0.496,0.115-0.648c0,0-0.024-0.133,0.069-0.139v-0.045    c0,0-0.057,0.038-0.075,0C-5.074-1-5.091-1.426-5.477-1.769c0,0,0.021-0.058-0.062-0.064l-0.299-0.286    c0,0-0.025-0.101,0.095-0.051l0.483-0.014c0,0,0.432,0.146,0.449,0.154c0.021,0.006,0.089,0.07,0.089,0.07    s0.007-0.053,0.058-0.038l0.051,0.068l0.025-0.068l0.472-0.076l0.678,0.102l0.051-0.033v-0.05c0,0-0.108-0.032-0.044-0.178    c0,0-0.007-0.082,0.126-0.082l-0.05-0.114l0.172-0.166h0.119v-0.121l0.185-0.057l0.096,0.052l0.058-0.052h0.229l0.057,0.045    l0.032-0.045h0.222l0.031,0.057v-0.057H-1.9l0.032,0.052l0.044-0.052h0.235v0.052l0.062-0.052h0.191l0.057,0.038l0.025-0.038    h0.241l0.063,0.052v-0.052h0.267l0.038,0.045l0.032-0.045h0.171l0.025,0.038l0.045-0.045h0.196l0.045,0.045l0.041-0.04h0.226    l0.039,0.038l0.038-0.037H0.39l0.055,0.041L0.5-2.78h0.246l0.023,0.047L0.81-2.779h0.213l0.043,0.036l0.033-0.036h0.233    l0.034,0.032l0.033-0.032h0.119l0.09,0.032l0.049-0.032h0.27l0.039,0.047l0.076-0.047h0.262l0.042,0.047l0.053-0.047h0.393    l0.044,0.121l0.12-0.069L3.09-2.613l0.019,0.101l0.108-0.025l0.127,0.115v0.102l0.089-0.032l0.159,0.158h0.553l0.719,0.397    c0.022-0.039,0.064-0.065,0.113-0.065c0.072,0,0.13,0.057,0.13,0.13c0,0.022-0.006,0.043-0.016,0.062l0.431,0.238    C5.555-1.455,5.594-1.47,5.638-1.47c0.11,0,0.2,0.09,0.2,0.2C5.838-1.166,5.758-1.082,5.657-1.072z" fill="#FFFFFF"/>
		</g>
	</g></svg>