<?xml version="1.0" standalone="no"?>
<svg xmlns="http://www.w3.org/2000/svg" viewBox="-6.37 -6.37 12.74 12.74" color="#212121" width="75" height="75"><g transform="matrix(1 0 0 -1 0 0)">
		<g xmlns="http://www.w3.org/2000/svg">
			<circle class="primary" fill="currentColor" cx="0" cy="0" r="6.245"/>
			<path class="secondary" d="M0,6.12c3.38,0,6.12-2.74,6.12-6.12S3.38-6.12,0-6.12S-6.12-3.38-6.12,0S-3.38,6.12,0,6.12 M0,6.37    c-3.513,0-6.37-2.857-6.37-6.37S-3.513-6.37,0-6.37S6.37-3.513,6.37,0S3.513,6.37,0,6.37L0,6.37z" fill="#FFFFFF"/>
		</g>
		<path xmlns="http://www.w3.org/2000/svg" id="Moped_2_" class="secondary" d="M4.343-0.92C4.377-0.916,4.445-0.915,4.59-0.924c0.347-0.022,0.551,0.333-0.152,0.771   c-0.704,0.438-1.529,0.31-1.529,0.31l0.145,0.121c0,0,0,0-0.007,0.098C3.039,0.475,3.062,0.588,3.039,0.603   c-0.022,0.015-0.62,0.333-0.658,0.363s-0.023,0.06-0.023,0.06s-0.409,0.923-0.454,1.09C1.858,2.282,1.745,2.229,1.745,2.229   s-0.109,0.125-0.17,0.182c-0.06,0.056,0.042,0.071,0.042,0.071h0.487c0.234,0.477,0.019,0.972,0.019,0.972L1.817,3.461   c0,0,0.012,0.114,0.007,0.201C1.82,3.749,1.791,3.838,1.735,3.838c-0.054,0-0.047-0.047-0.047-0.047V3.465c0,0-0.037,0-0.06,0   S1.403,3.36,1.403,3.36s0,0.416,0,0.537S1.351,3.996,1.351,3.996H1.027L1.023,4.029c0,0-0.042,0.341-0.117,0.401   C0.83,4.49,0.818,4.396,0.818,4.396C0.826,3.931,0.91,3.685,0.97,3.685c0.062,0,0.062,0.212,0.062,0.212h0.295V3.295L1.068,3.118   c0,0,0,0-0.105-0.072C0.857,2.974,0.86,2.857,0.86,2.857S0.732,2.781,0.63,2.743C0.528,2.706,0.459,2.687,0.476,2.592   C0.49,2.498,0.63,2.49,0.691,2.521c0.059,0.03,0.236,0.087,0.236,0.087L0.95,2.566c0,0,0.529-0.839,0.549-1.066   c0.01-0.125-0.092-0.193-0.16-0.326C1.272,1.042,1.113,0.319,1.054-0.013C0.992-0.346,0.997-0.539,1-0.596   C1.004-0.652,1.356-0.8,1.396-0.853c0.043-0.053-0.018-0.132-0.268-0.261c-0.25-0.128-1.854-0.041-2.156-0.003   C-1.329-1.08-1.48-0.622-1.442-0.199s0.495,0.791,0.574,0.84c0.08,0.049,0.11,0.166,0.276,0.166s0.121,0.409,0.121,0.756   c0,0.348-0.144,0.227-0.265,0.166c-0.121-0.06-0.696-0.075-0.696-0.075c-2.087-0.076-2.262,0.038-2.412,0.083   c-0.15,0.046-0.4,0.106-0.507-0.061C-4.456,1.51-4.48,0.777-4.48,0.777s0.251,0,0.228-0.031c-0.023-0.03-0.137-0.091-0.182-0.091   c-0.046,0-0.636,0.008-0.688-0.038c-0.052-0.044-0.347-0.377-0.34-0.422C-5.455,0.149-5.28-0.176-5.28-0.176   s0.076,0.022-0.008-0.076C-5.371-0.35-5.401-0.637-5.401-0.675s-0.114-0.083-0.114-0.083l-0.022-0.053h0.062   c0,0-0.166-0.091-0.234-0.265c-0.07-0.174,0.11-0.204,0.11-0.204c0-0.318,0.529-0.25,0.529-0.25s0.026-0.004,0.071-0.013   c-0.067-0.155-0.105-0.326-0.105-0.506c0-0.697,0.566-1.263,1.263-1.263c0.698,0,1.264,0.566,1.264,1.263   c0,0.037-0.003,0.073-0.005,0.108c0,0.001,0.001,0.001,0.001,0.002c0.017,0.068,0.205,0.045,0.205,0.045   c0.014-0.113,0.151-0.128,0.151-0.128s2.646,0,2.813,0s0.371,0.06,0.371,0.06C1.391-1.75,1.624-1.538,1.965-0.789   c0.34,0.748,0.529,0.695,0.529,0.695S2.19-0.501,2.146-0.637C2.102-0.773,1.882-1.242,1.769-1.416   C1.654-1.59,1.707-1.711,1.707-1.711h0.779l0.006,0.002C2.451-1.837,2.428-1.974,2.428-2.117c0-0.735,0.597-1.332,1.331-1.332   c0.735,0,1.332,0.596,1.332,1.332C5.091-1.591,4.786-1.137,4.343-0.92z" fill="#FFFFFF"/>
	</g></svg>