<?xml version="1.0" standalone="no"?>
<svg xmlns="http://www.w3.org/2000/svg" viewBox="-6.37 -6.37 12.74 12.74" color="#212121" width="75" height="75"><g transform="matrix(1 0 0 -1 0 0)">
		<g xmlns="http://www.w3.org/2000/svg">
			<circle class="primary" fill="currentColor" cx="0" cy="0" r="6.245"/>
			<path class="secondary" d="M0,6.12c3.38,0,6.12-2.74,6.12-6.12S3.38-6.12,0-6.12S-6.12-3.38-6.12,0S-3.38,6.12,0,6.12 M0,6.37    c-3.513,0-6.37-2.857-6.37-6.37S-3.513-6.37,0-6.37S6.37-3.513,6.37,0S3.513,6.37,0,6.37L0,6.37z" fill="#FFFFFF"/>
		</g>
		<path xmlns="http://www.w3.org/2000/svg" id="Motorcycle_2_" class="secondary" d="M4.935-0.192C4.967-0.19,4.996-0.185,5.014-0.179c0.069,0.029,0.055,0.1-0.059,0.158   C4.84,0.036,4.367,0.336,3.766,0.222C3.333,0.14,3.256,0.109,3.247,0.099L2.806,0.853l-0.015,0.1h0.072c0,0,0-0.057,0.057-0.071   c0.058-0.015,0.258,0.114,0.316,0.229c0.056,0.115,0.1,0.387,0.056,0.56c-0.043,0.171-0.056,0.2-0.114,0.2S2.69,1.814,2.591,1.599   C2.49,1.383,2.533,1.412,2.533,1.412L2.49,1.383L2.289,1.67L2.16,1.699l-0.071,0.1c0,0,0.042,0.015,0.014,0.072   C2.074,1.928,2.031,1.985,2.031,1.985s-0.043,0.1-0.086,0.186C1.901,2.258,1.888,2.343,1.888,2.343S1.873,2.427,1.849,2.436   C1.814,2.451,1.773,2.415,1.773,2.415L1.716,2.458L1.658,2.544l-0.1,0.015L1.43,2.616L1.401,2.745c0,0,0,0.043-0.03,0.101   c-0.027,0.056-0.1,0.071-0.1,0.071s0.003-0.37,0-0.416C1.27,2.453,1.249,2.426,1.301,2.429c0.052,0.003,0.062,0.083,0.092,0.096   C1.426,2.54,1.444,2.501,1.444,2.501l-0.043-0.1c0,0-0.025-0.024-0.038-0.024S1.276,2.403,1.26,2.4S1.068,2.3,1.061,2.289   C1.053,2.279,1.057,2.263,1.06,2.247c0.003-0.016-0.032-0.06-0.045-0.066c0,0-0.375-0.184-0.388-0.187   C0.619,1.99,0.59,1.864,0.677,1.847C0.762,1.83,1.099,2.029,1.099,2.029l0.127,0.065L1.179,2.04L1.15,1.94   c0,0-0.492-0.393-0.519-0.412C0.604,1.509,0.557,1.519,0.557,1.519L0.421,1.455L0.402,1.409L0.293,1.272   c0,0-0.037-0.036-0.045-0.082C0.237,1.145-0.256,0.861-0.301,0.824c-0.045-0.036-0.146-0.173-0.174-0.192   C-0.502,0.614-0.53,0.641-0.53,0.641S-1.198,0.44-1.271,0.44s-0.328-0.091-0.447-0.064c-0.119,0.027-0.411,0.191-0.475,0.21   s-0.146,0.09-0.146,0.09s-0.229,0.275-0.293,0.312c-0.063,0.036-0.274,0.027-0.375,0.036c-0.1,0.009-0.594,0.083-0.657,0.073   C-3.729,1.09-3.83,1.035-3.856,0.989c-0.028-0.046-0.056-0.274-0.101-0.302c-0.045-0.027-0.375-0.155-0.484-0.21   s-0.274-0.191-0.274-0.191s-0.138,0.082-0.163,0.1c-0.028,0.018-0.02,0.201-0.02,0.201l-0.064,0.055l-0.019-0.347l-0.027-0.009   l-0.017-0.147L-5.062,0.13l0.019-0.082c0,0-0.009-0.046-0.065-0.046c-0.055,0-0.355-0.037-0.355-0.037S-5.5-0.319-5.437-0.365   C-5.373-0.41-5.216-0.42-5.216-0.42s-0.082-0.31-0.12-0.375c-0.036-0.064-0.219-0.429-0.219-0.429s0.01-0.064,0.055-0.064   c0.047,0,0.248-0.027,0.338,0.028c0.092,0.055,0.146,0.101,0.146,0.101l0.02-0.007c-0.019-0.09-0.027-0.182-0.027-0.277   c0-0.001,0-0.003,0-0.004c-0.117-0.015-0.223-0.031-0.312-0.05c0,0,0-0.174,0.047-0.21c0.012-0.009,0.127-0.015,0.294-0.02   c0.007-0.031,0.014-0.062,0.023-0.092C-5.02-1.827-5.065-1.835-5.107-1.844c0,0,0-0.173,0.047-0.21   C-5.052-2.06-4.982-2.066-4.874-2.07c0.23-0.451,0.697-0.76,1.24-0.76c0.522,0,0.979,0.289,1.215,0.716l0.11-0.04   c0,0,0.246-0.11,0.311-0.11c0.063,0,2.961,0.019,2.989,0.028c0.026,0.009,0.273,0.091,0.338,0.1   c0.064,0.009,0.073-0.037,0.128-0.045C1.512-2.19,1.548-2.136,1.548-2.136l0.056,0.018l0.027,0.192c0,0,0.154,0.045,0.164,0.082   S1.776-1.77,1.776-1.743c0,0.028-0.008,0.21-0.008,0.21L1.691-1.507l0.101,0.138l0.055,0.183c0,0,0.055,0.028,0.037,0.064   C1.865-1.085,1.82-1.012,1.82-1.012s0.173,1.27,0.184,1.315C2.011,0.35,2.166,0.614,2.295,0.669   c0.127,0.055,0.118-0.082,0.118-0.082s0.056-0.036,0.082-0.046c0.028-0.009,0.063,0.01,0.063,0.01l0.174-0.275   c0,0,0-0.155-0.018-0.228C2.697-0.026,2.643-0.291,2.632-0.336C2.624-0.382,2.531-0.583,2.514-0.629   C2.495-0.674,2.34-0.976,2.312-1.15C2.285-1.323,2.258-1.516,2.239-1.542C2.222-1.57,2.157-1.634,2.258-1.643   c0.102-0.009,0.073-0.11,0.256,0C2.525-1.637,2.54-1.627,2.561-1.614c0.1-0.735,0.729-1.303,1.491-1.303   c0.831,0,1.505,0.674,1.505,1.506C5.557-0.91,5.312-0.466,4.935-0.192z" fill="#FFFFFF"/>
	</g></svg>