<?xml version="1.0" standalone="no"?>
<svg xmlns="http://www.w3.org/2000/svg" viewBox="-6.37 -6.37 12.74 12.74" color="#212121" width="75" height="75"><g transform="matrix(1 0 0 -1 0 0)">
		<g xmlns="http://www.w3.org/2000/svg" id="Circle_5_">
			<path class="primary" fill="currentColor" d="M-0.001-6.245c-3.443,0-6.244,2.802-6.244,6.246c0,3.443,2.801,6.244,6.244,6.244    c3.444,0,6.246-2.801,6.246-6.244C6.245-3.443,3.443-6.245-0.001-6.245z"/>
			<path class="secondary" d="M-0.001,6.12c3.381,0,6.121-2.74,6.121-6.119c0-3.381-2.74-6.121-6.121-6.121    c-3.379,0-6.119,2.74-6.119,6.121C-6.12,3.38-3.38,6.12-0.001,6.12 M-0.001,6.37c-3.512,0-6.369-2.857-6.369-6.369    c0-3.513,2.857-6.371,6.369-6.371c3.513,0,6.371,2.858,6.371,6.371C6.37,3.513,3.512,6.37-0.001,6.37L-0.001,6.37z" fill="#FFFFFF"/>
		</g>
		<path xmlns="http://www.w3.org/2000/svg" class="secondary" d="M5.498,0.087l-0.457-0.89H4.454L3.312-1.472c0,0-0.146-0.201-1.109-0.201s-5.319,0-5.319,0   S-3.328-1.749-4.21-1.309c-0.88,0.44-1.517,1.396-1.517,1.396v0.154l1.86,0.294l0.734,0.62h-0.849v0.311h0.946l0.277,0.13h0.702   l0.342-0.407l0.408,0.114v0.375h0.18V1.303h0.31v0.179h4.944V1.204h0.864v0.408h0.734V0.993L5.498,0.087z" fill="#FFFFFF"/>
	</g></svg>