<?xml version="1.0" standalone="no"?>
<svg xmlns="http://www.w3.org/2000/svg" viewBox="-6.37 -6.37 12.74 12.74" color="#212121" width="75" height="75"><g transform="matrix(1 0 0 -1 0 0)">
		<g xmlns="http://www.w3.org/2000/svg" id="Circle_14_">
			<path class="primary" fill="currentColor" d="M-0.001-6.245c-3.443,0-6.244,2.802-6.244,6.246c0,3.443,2.801,6.244,6.244,6.244    c3.444,0,6.246-2.801,6.246-6.244C6.245-3.443,3.443-6.245-0.001-6.245z"/>
			<path class="secondary" d="M-0.001,6.12c3.381,0,6.121-2.74,6.121-6.119c0-3.381-2.74-6.121-6.121-6.121    c-3.379,0-6.119,2.74-6.119,6.121C-6.12,3.38-3.38,6.12-0.001,6.12 M-0.001,6.37c-3.512,0-6.369-2.857-6.369-6.369    c0-3.513,2.857-6.371,6.369-6.371c3.513,0,6.371,2.858,6.371,6.371C6.37,3.513,3.512,6.37-0.001,6.37L-0.001,6.37z" fill="#FFFFFF"/>
		</g>
		<path xmlns="http://www.w3.org/2000/svg" class="secondary" d="M4.992,0.873V2.65H4.865V0.873H2.421L2.389,1.158L2.133,1.523H1.481V2.65H1.326V1.762H0.484V1.92h-0.619V1.476   h-1.19V1.174h-0.206H-3.42V0.92h1.984l0.254-0.031V0.683L-2.674,0.62l-2.111-0.444v0.856h-0.206V0.086l-0.396-0.213l0.971-1.191   C-4.479-1.442-4.515-1.582-4.515-1.73c0-0.508,0.412-0.92,0.921-0.92c0.508,0,0.92,0.412,0.92,0.92   c0,0.035-0.003,0.069-0.006,0.104h0.44C-2.242-1.661-2.245-1.695-2.245-1.73c0-0.508,0.412-0.92,0.92-0.92   c0.509,0,0.921,0.412,0.921,0.92c0,0.035-0.002,0.069-0.006,0.104h0.708C0.294-1.661,0.291-1.695,0.291-1.73   c0-0.508,0.412-0.92,0.921-0.92s0.921,0.412,0.921,0.92c0,0.035-0.003,0.069-0.007,0.104h0.601C2.723-1.661,2.72-1.695,2.72-1.73   c0-0.508,0.412-0.92,0.92-0.92c0.509,0,0.921,0.412,0.921,0.92c0,0.035-0.002,0.069-0.006,0.104h0.286l0.548,0.548v0.666v0.889   L4.992,0.873z" fill="#FFFFFF"/>
	</g></svg>