<?xml version="1.0" standalone="no"?>
<svg xmlns="http://www.w3.org/2000/svg" viewBox="-6.37 -6.37 12.74 12.74" color="#212121" width="75" height="75"><g transform="matrix(1 0 0 -1 0 0)">
		<g xmlns="http://www.w3.org/2000/svg">
			<path class="primary" fill="currentColor" d="M0.001-6.245c-3.444,0-6.246,2.802-6.246,6.245s2.802,6.245,6.246,6.245c3.443,0,6.244-2.802,6.244-6.245    S3.444-6.245,0.001-6.245z"/>
			<path class="secondary" d="M0.001,6.12C3.38,6.12,6.12,3.38,6.12,0S3.38-6.12,0.001-6.12C-3.38-6.12-6.12-3.38-6.12,0    S-3.38,6.12,0.001,6.12 M0.001,6.37C-3.512,6.37-6.37,3.513-6.37,0s2.858-6.37,6.371-6.37C3.513-6.37,6.37-3.513,6.37,0    S3.513,6.37,0.001,6.37L0.001,6.37z" fill="#FFFFFF"/>
		</g>
		<g xmlns="http://www.w3.org/2000/svg" id="Recycling_truck_2_">
			<rect x="-5.418" y="2.154" class="secondary" width="8.098" height="0.279" fill="#FFFFFF"/>
			<rect x="2.717" y="0.648" class="secondary" width="0.215" height="0.752" fill="#FFFFFF"/>
			<rect x="-4.92" y="2.437" class="secondary" width="3.658" height="0.172" fill="#FFFFFF"/>
			<rect x="3.293" y="1.55" class="secondary" width="0.227" height="0.075" fill="#FFFFFF"/>
			<path class="secondary" d="M5.074,1.28l0.373-0.871l0.078,0.042C5.42,0.76,5.293,1.062,5.146,1.357L5.074,1.28z" fill="#FFFFFF"/>
			<path class="secondary" d="M4.773,1.544c0.012,0,0.021,0.009,0.021,0.021v0.042c0,0.012-0.01,0.021-0.021,0.021H4.291    c-0.01,0-0.021-0.01-0.021-0.021V1.565c0-0.012,0.012-0.021,0.021-0.021H4.773z" fill="#FFFFFF"/>
			<polygon class="secondary" points="4.732,1.539 4.307,1.539 4.307,1.482 3.455,1.482 3.381,1.363 5.168,1.363 5.094,1.482 4.732,1.482       " fill="#FFFFFF"/>
			<path class="secondary" d="M5.547-0.983v-0.069H5.406l0.037,0.104l0.004-0.006v0.015l0.145-0.003l0.041,0.18h0.021    c0.027,0,0.049,0.021,0.049,0.047v0.341c0,0.025-0.02,0.045-0.045,0.047c0.002,0.23-0.012,0.459-0.039,0.689L5.533,0.444    l-0.09-0.055L5.059,1.28l0.062,0.072L3.367,1.348l0.002-0.104H3.283v0.389H3.59v0.085H3.484c0.021,0,0.041,0.017,0.035,0.036    L3.49,1.853c-0.006,0.02-0.098,0.046-0.117,0.045L3.156,1.894c-0.018,0-0.1-0.019-0.111-0.035L2.984,1.752    C2.977,1.736,3.002,1.717,3.021,1.717h0.135v-0.02H3.07V0.061H3.004v-0.607h-0.01L2.48-0.964H1.854    C1.855-0.962,1.855-0.96,1.857-0.958h0.004v0.179h0.84v0.354H2.695v2.557h-8.131v-2.557h-0.025v-0.354h0.004v-0.014V-1.29h0.309    c0.021-0.015,0.047-0.024,0.076-0.024c0.027,0,0.053,0.009,0.074,0.024h0.084v-0.088l0.439,0.007l0.404-0.096l-0.072-0.178h0.07    l0.066,0.163l0.293-0.071C-3.73-1.611-3.735-1.672-3.735-1.735c0-0.444,0.359-0.804,0.803-0.804c0.367,0,0.676,0.246,0.773,0.583    c0.055-0.052,0.13-0.084,0.212-0.084c0.086,0,0.164,0.034,0.219,0.09c0.094-0.339,0.406-0.589,0.775-0.589    c0.443,0,0.805,0.36,0.805,0.804c0,0.1-0.02,0.194-0.051,0.282l0.316,0.032v-0.367h0.799l0.076-0.114h1.23l0.186,0.14    C2.42-1.765,2.434-1.767,2.447-1.767h0.211c0.025,0,0.049,0.006,0.066,0.017h0.348c0.01-0.437,0.365-0.79,0.803-0.79    c0.445,0,0.805,0.36,0.805,0.804c0,0.038-0.002,0.075-0.008,0.112h0.311L5.1-1.467h0.15c0.008-0.035,0.029-0.069,0.064-0.09    C5.377-1.594,5.455-1.58,5.488-1.525c0.029,0.048,0.016,0.111-0.031,0.152h0.09v-0.064h0.23v0.454    C5.777-0.983,5.547-0.983,5.547-0.983z M-1.912,1.595c0.035,0.056,0.102,0.083,0.201,0.083c0.166,0,0.324-0.168,0.471-0.503    l-0.395-0.61L-2.285,1L-1.912,1.595z M-2.182-0.492c-0.055-0.081-0.08-0.164-0.08-0.248c0-0.047,0.006-0.098,0.018-0.15    l-0.477,0.832c-0.031,0.05-0.043,0.095-0.043,0.135c0,0.044,0.02,0.101,0.064,0.169l0.152,0.239l-0.145,0.088    c-0.02,0.013-0.029,0.022-0.029,0.031c0,0.031,0.014,0.047,0.045,0.049l0.703,0.017l0.316-0.595    C-1.646,0.052-1.64,0.034-1.64,0.021c0-0.02-0.014-0.03-0.037-0.03L-1.818,0.08L-2.182-0.492z M-1.197-1.086h-0.758    c-0.133,0-0.197,0.102-0.197,0.306c0,0.076,0.018,0.15,0.055,0.223c0.023,0.045,0.08,0.133,0.17,0.261h0.73    C-1.197-0.296-1.197-1.086-1.197-1.086z M-1.127,0.803c0,0.017,0.006,0.028,0.02,0.034l0.129,0.062l-0.174,0.369    C-1.248,1.464-1.338,1.599-1.43,1.669c-0.039,0.032-0.111,0.064-0.217,0.097h0.879c0.188,0,0.312-0.063,0.375-0.188l0.143-0.28    l0.152,0.07C-0.072,1.376-0.059,1.38-0.059,1.38c0.014,0,0.021-0.013,0.021-0.038c0-0.021-0.006-0.042-0.016-0.062l-0.34-0.569    l-0.693,0.056C-1.113,0.77-1.127,0.782-1.127,0.803z M-0.053-0.969C-0.1-1.052-0.178-1.095-0.289-1.095h-0.305v-0.188    c0-0.017-0.008-0.026-0.029-0.033c-0.02-0.008-0.043,0.009-0.07,0.05l-0.359,0.552l0.346,0.601    c0.008,0.012,0.02,0.018,0.035,0.018c0.021,0,0.033-0.023,0.033-0.067v-0.113h0.547c0.127,0,0.225,0.011,0.293,0.034    C0.288-0.212,0.366-0.157,0.44-0.074L-0.053-0.969z M0.303-0.06C0.221-0.128,0.139-0.162,0.061-0.162h-0.328l-0.389,0.644    l0.67,0.389l0.389-0.594C0.426,0.241,0.44,0.205,0.44,0.167C0.439,0.088,0.393,0.011,0.303-0.06z M3.283,1.177h0.086l0.006-1.019    H3.283V1.177z M4.414-0.546C4.279-0.453,4.107-0.405,3.904-0.4L3.436-0.41c-0.02,0.002-0.037,0-0.051-0.01    C3.371-0.435,3.355-0.45,3.34-0.466v0.527H3.283v0.046h0.092l0.004-0.492h0.555c0.189-0.01,0.352-0.064,0.484-0.162L4.414-0.546    L4.414-0.546z" fill="#FFFFFF"/>
		</g>
	</g></svg>