<?xml version="1.0" standalone="no"?>
<svg xmlns="http://www.w3.org/2000/svg" viewBox="-6.37 -6.37 12.74 12.74" color="#212121" width="75" height="75"><g transform="matrix(1 0 0 -1 0 0)">
		<g xmlns="http://www.w3.org/2000/svg">
			<path class="primary" fill="currentColor" d="M0-6.245c-3.444,0-6.245,2.802-6.245,6.246c0,3.443,2.802,6.244,6.245,6.244s6.245-2.801,6.245-6.244    C6.245-3.443,3.444-6.245,0-6.245z"/>
			<path class="secondary" d="M0,6.12c3.38,0,6.12-2.74,6.12-6.119C6.12-3.38,3.38-6.12,0-6.12s-6.12,2.74-6.12,6.121    C-6.12,3.38-3.38,6.12,0,6.12 M0,6.37c-3.513,0-6.37-2.857-6.37-6.369C-6.37-3.512-3.513-6.37,0-6.37s6.37,2.858,6.37,6.371    C6.37,3.513,3.513,6.37,0,6.37L0,6.37z" fill="#FFFFFF"/>
		</g>
		<path xmlns="http://www.w3.org/2000/svg" id="RG-31_2_" class="secondary" d="M5.29-2.146c-0.044-0.021-0.415,0-0.415,0l0.007-0.145h0.14v-0.201H4.914l0.028-0.087   L5.021-2.92H4.855v0.107h-0.3l-0.169,0.02C4.343-3.343,3.882-3.775,3.32-3.775c-0.591,0-1.07,0.479-1.07,1.069   c0,0.06,0.006,0.118,0.014,0.175L2.032-2.503H1.518v-0.106H1.391c0,0,0.034-0.082,0-0.105c-0.034-0.026-0.752,0-0.824,0   c-0.073,0-0.165,0.136-0.165,0.136h-2.624c0.006-0.043,0.008-0.084,0.008-0.127c0-0.591-0.479-1.069-1.069-1.069   c-0.592,0-1.07,0.479-1.07,1.069c0,0.123,0.021,0.241,0.06,0.352l-0.709,0.552c0,0-0.094-0.22-0.155-0.233   c-0.062-0.015-0.258,0-0.301,0c-0.044,0,0,0.388,0,0.388l0.165,0.106l0.136,0.098c0,0-0.046,0.528,0,0.631   c0.046,0.102,0.448,0.182,0.448,0.182l0.03,0.059l1.186,0.225v0.124l0.407-0.007l0.008-0.086c0,0,0.502,0.072,0.654,0.093   C-2.272-0.2-1.761,0.833-1.761,0.833l0.123,0.023c0,0,0.189,0.364,0.248,0.364c0.058,0,0.008-0.138,0.008-0.138h0.566v0.167   L-1.245,1.78h-0.131l-0.109,0.146l0.203,0.036c0,0,0.183,0.139,0.241,0.204C-0.983,2.229-0.853,2.26-0.853,2.26v0.4l0.299-0.021   l0.101-0.306l0.169,0.014l0.051-0.196l0.321-0.046l-0.089-0.15H-0.32l-0.073-0.59V1.107c0,0,0.131,0.073,0.174,0.044   c0.043-0.029,0.116-0.124,0.116-0.124H0.16l0.015,0.065c0,0,1.149,0.037,1.201,0.124c0.051,0.087,0.211,1.398,0.211,1.187   c0-0.11,0.007-1.223,0.007-1.223S1.87,1.319,2.089,1.267c0.219-0.051,0.378-0.254,0.378-0.254l0.336-0.015v0.24l1.623-0.044   l0.008,0.218l0.261,0.066V1.392h0.073L4.692,3.556h0.065l0.131-3.002h0.117V0.256H4.94v-0.291l0.131-0.364c0,0,0.204,0.037,0.219,0   c0.015-0.036,0-0.808,0-0.808H5.035v-0.095h0.182v-0.102H5.29C5.29-1.403,5.332-2.124,5.29-2.146z" fill="#FFFFFF"/>
	</g></svg>