<?xml version="1.0" standalone="no"?>
<svg xmlns="http://www.w3.org/2000/svg" viewBox="-6.37 -6.37 12.74 12.74" color="#212121" width="75" height="75"><g transform="matrix(1 0 0 -1 0 0)">
		<g xmlns="http://www.w3.org/2000/svg">
			<path class="primary" fill="currentColor" d="M0-6.245c-3.444,0-6.245,2.802-6.245,6.246c0,3.443,2.802,6.244,6.245,6.244s6.245-2.801,6.245-6.244    C6.245-3.443,3.444-6.245,0-6.245z"/>
			<path class="secondary" d="M0,6.12c3.38,0,6.12-2.74,6.12-6.119C6.12-3.38,3.38-6.12,0-6.12s-6.12,2.74-6.12,6.121    C-6.12,3.38-3.38,6.12,0,6.12 M0,6.37c-3.513,0-6.37-2.857-6.37-6.369C-6.37-3.512-3.513-6.37,0-6.37s6.37,2.858,6.37,6.371    C6.37,3.513,3.513,6.37,0,6.37L0,6.37z" fill="#FFFFFF"/>
		</g>
		<path xmlns="http://www.w3.org/2000/svg" id="RG-33_2_" class="secondary" d="M5.767,0.3C5.602,0.342,5.503,0.36,5.503,0.36v0.297H5.315v0.125H4.943v0.087H3.905v0.228H3.81   v0.177H3.785c0,0-0.019,3.588-0.03,3.59c-0.012,0.002,0-3.714,0-3.714h0.003V1.096H3.685V0.868L3.147,0.879   c0,0-0.01,3.65-0.031,3.65c-0.017,0,0-3.649,0-3.649L3.008,0.881v0.095C3.045,1.003,3.07,1.047,3.07,1.098   c0,0.081-0.062,0.146-0.142,0.146c-0.078,0-0.143-0.065-0.143-0.146c0-0.06,0.036-0.112,0.087-0.135V0.887l-1.358,0.03   c0,0,0.366,0.824,0.298,0.932c-0.068,0.106-1.625,0.06-1.625,0.06l-0.281-0.181h-0.518l-0.08-0.084   c0.005,0.168,0.009,0.453-0.013,0.463c-0.038,0.02-0.24-0.003-0.339-0.014v0.081l0.064,0.007c0,0,0.018,0.037-0.008,0.064   c-0.025,0.029-0.184,0-0.184,0L-1.27,1.711l-0.742,0.036V1.688l0.752-0.052c0,0,0.029-0.67-0.008-0.704   c-0.039-0.033-0.309,0.05-0.631-0.081c-0.32-0.13-0.698-0.962-0.698-0.962s-2.071-0.124-2.237-0.171   C-5-0.329-5.177-0.638-5.177-0.638v-0.355h-0.131v0.291h-0.264v-0.771L-5.48-1.48l0.029-0.374l0.962,0.019l0.221-0.053   c-0.18-0.18-0.292-0.433-0.292-0.713c0-0.547,0.428-0.99,0.957-0.99c0.528,0,0.955,0.443,0.955,0.99   c0,0.122-0.022,0.238-0.061,0.346l0.061-0.015l0.615,0.007h1.612c0,0,1.434-0.008,2.78-0.006C2.323-2.373,2.304-2.485,2.304-2.602   c0-0.547,0.428-0.99,0.957-0.99c0.527,0,0.955,0.443,0.955,0.99c0,0.122-0.021,0.238-0.061,0.346   c0.305,0.007,0.5,0.016,0.513,0.028c0.068,0.065,0.068,0.694,0.068,0.694S5.474-1.557,5.6-1.445C5.728-1.332,5.932,0.258,5.767,0.3   z M-0.805,1.641h-0.239v0.375c0.082,0.006,0.23,0.016,0.238-0.005C-0.801,1.99-0.804,1.777-0.805,1.641z" fill="#FFFFFF"/>
	</g></svg>