<?xml version="1.0" standalone="no"?>
<svg xmlns="http://www.w3.org/2000/svg" viewBox="-6.37 -6.37 12.74 12.74" color="#212121" width="75" height="75"><g transform="matrix(1 0 0 -1 0 0)">
		<g xmlns="http://www.w3.org/2000/svg" id="Circle_13_">
			<path class="primary" fill="currentColor" d="M-0.001-6.245c-3.443,0-6.244,2.802-6.244,6.246c0,3.443,2.801,6.244,6.244,6.244    c3.444,0,6.246-2.801,6.246-6.244C6.245-3.443,3.443-6.245-0.001-6.245z"/>
			<path class="secondary" d="M-0.001,6.12c3.381,0,6.121-2.74,6.121-6.119c0-3.381-2.74-6.121-6.121-6.121    c-3.379,0-6.119,2.74-6.119,6.121C-6.12,3.38-3.38,6.12-0.001,6.12 M-0.001,6.37c-3.512,0-6.369-2.857-6.369-6.369    c0-3.513,2.857-6.371,6.369-6.371c3.513,0,6.371,2.858,6.371,6.371C6.37,3.513,3.512,6.37-0.001,6.37L-0.001,6.37z" fill="#FFFFFF"/>
		</g>
		<path xmlns="http://www.w3.org/2000/svg" class="secondary" d="M5.872-0.28v1.029H5.526v1.22c0,0-4.381,0-4.438,0L1.013,2.254V2.54h0.248v0.229L1.05,2.979H0.304v0.157   h-0.305V2.864H-0.48v0.271h-0.439V2.787h-0.729V2.521h-0.994V2.388h1.07l0.154-0.248l-0.211-0.209h-0.957L-2.72,2.063h-1.301   l-0.955-1.296v0.4H-5.11l-0.02-0.8l-0.742-1.354h1.049v-0.438l0.389-0.099c-0.027-0.104-0.043-0.21-0.043-0.321   c0-0.714,0.582-1.293,1.299-1.293c0.666,0,1.215,0.499,1.289,1.142H0v-0.153h1.76h0.057h0.652c0.137-0.567,0.648-0.988,1.262-0.988   c0.611,0,1.123,0.421,1.26,0.988h0.883v0.591H5.526v1.277h0.346V-0.28z" fill="#FFFFFF"/>
	</g></svg>