<?xml version="1.0" standalone="no"?>
<svg xmlns="http://www.w3.org/2000/svg" viewBox="-6.37 -6.37 12.74 12.74" color="#212121" width="75" height="75"><g transform="matrix(1 0 0 -1 0 0)">
		<g xmlns="http://www.w3.org/2000/svg" id="Circle_12_">
			<path class="primary" fill="currentColor" d="M-0.001-6.245c-3.443,0-6.244,2.802-6.244,6.246c0,3.443,2.801,6.244,6.244,6.244    c3.444,0,6.246-2.801,6.246-6.244C6.245-3.443,3.443-6.245-0.001-6.245z"/>
			<path class="secondary" d="M-0.001,6.12c3.381,0,6.121-2.74,6.121-6.119c0-3.381-2.74-6.121-6.121-6.121    c-3.379,0-6.119,2.74-6.119,6.121C-6.12,3.38-3.38,6.12-0.001,6.12 M-0.001,6.37c-3.512,0-6.369-2.857-6.369-6.369    c0-3.513,2.857-6.371,6.369-6.371c3.513,0,6.371,2.858,6.371,6.371C6.37,3.513,3.512,6.37-0.001,6.37L-0.001,6.37z" fill="#FFFFFF"/>
		</g>
		<path xmlns="http://www.w3.org/2000/svg" class="secondary" d="M5.516-0.248c0.014-0.059,0-0.496,0-0.496H4.8l0.073-0.321l0.145-0.599L3.982-2.365   c0,0-0.628-0.511-1.051-0.511c-0.424,0-5.066,0-5.066,0s-0.438,0.014-0.672,0.16C-3.04-2.569-4.383-1.781-4.383-1.781v0.569   l0.415,0.417l0.986,0.416v0.54h0.175v-0.38h1.153l0.248,0.263h0.189l0.08-0.079h0.738v0.196v0.146h-5.124v0.395h5.064l0.412,0.394   h0.86h0.408v0.322h1.751v1.459h0.277V1.401h0.146V0.948h1.007v-0.975L5.516-0.248z" fill="#FFFFFF"/>
	</g></svg>