<?xml version="1.0" standalone="no"?>
<svg xmlns="http://www.w3.org/2000/svg" viewBox="-6.37 -6.37 12.74 12.74" color="#212121" width="75" height="75"><g transform="matrix(1 0 0 -1 0 0)">
		<g xmlns="http://www.w3.org/2000/svg" id="Circle_18_">
			<path class="primary" fill="currentColor" d="M-0.001-6.245c-3.443,0-6.244,2.802-6.244,6.246c0,3.443,2.801,6.244,6.244,6.244    c3.444,0,6.246-2.801,6.246-6.244C6.245-3.443,3.443-6.245-0.001-6.245z"/>
			<path class="secondary" d="M-0.001,6.12c3.381,0,6.121-2.74,6.121-6.119c0-3.381-2.74-6.121-6.121-6.121    c-3.379,0-6.119,2.74-6.119,6.121C-6.12,3.38-3.38,6.12-0.001,6.12 M-0.001,6.37c-3.512,0-6.369-2.857-6.369-6.369    c0-3.513,2.857-6.371,6.369-6.371c3.513,0,6.371,2.858,6.371,6.371C6.37,3.513,3.512,6.37-0.001,6.37L-0.001,6.37z" fill="#FFFFFF"/>
		</g>
		<g xmlns="http://www.w3.org/2000/svg">
			<path class="secondary" d="M1.461-1.45c-0.046,0-0.091,0-0.137,0C1.012-1.403,0.815-1.222,0.723-0.915    c0.006-0.061-0.028-0.066-0.069-0.066c-0.406,0-0.813,0-1.222,0c-0.027,0-0.059-0.002-0.064,0.037    c-0.006,0.033-0.016,0.064-0.057,0.06c-0.038-0.004-0.042-0.037-0.053-0.068C-0.767-1.03-0.788-1.108-0.841-1.173    C-0.965-1.331-1.125-1.427-1.323-1.45c-0.046,0-0.092,0-0.137,0c-0.175,0.02-0.324,0.09-0.443,0.221    C-1.987-1.138-2.04-1.026-2.071-0.892c-0.015-0.051-0.043-0.057-0.075-0.057c-0.061,0-0.119,0-0.18,0c-0.039,0-0.07,0-0.101,0.043    c-0.039,0.053-0.163,0.032-0.18-0.027C-2.701-1.231-2.896-1.409-3.208-1.45c-0.046,0-0.092,0-0.137,0    c-0.29,0.037-0.483,0.199-0.578,0.473c-0.026,0.076-0.06,0.104-0.136,0.098c-0.168-0.014-0.336,0-0.5,0.027    C-4.672-0.834-4.78-0.786-4.886-0.739c-0.188,0.084-0.379,0.156-0.57,0.23c-0.04,0.016-0.078,0.023-0.12-0.008    c-0.076-0.057-0.113-0.047-0.18,0.033c0,0.018,0,0.033,0,0.051c0.031,0.01,0.06,0.006,0.084-0.02    C-5.66-0.464-5.636-0.47-5.628-0.45c0.009,0.02-0.014,0.025-0.031,0.027C-5.68-0.419-5.705-0.419-5.707-0.388    C-5.708-0.37-5.706-0.349-5.686-0.349c0.063,0.006,0.059,0.068,0.087,0.094C-5.537-0.194-5.56-0.15-5.57-0.081    c-0.019,0.117-0.027,0.244,0.049,0.354c0.036,0.055,0.062,0.129,0.119,0.15c0.09,0.033,0.063,0.09,0.058,0.146    c-0.005,0.049-0.014,0.096-0.023,0.143c-0.01,0.045,0.01,0.07,0.051,0.082c0.026,0.008,0.055,0.018,0.082,0.018    c0.081,0.004,0.106,0.047,0.102,0.123c-0.004,0.049-0.004,0.1,0.008,0.15c0.017,0.064,0.066,0.109,0.117,0.105    c0.058-0.004,0.113-0.049,0.122-0.121c0.003-0.033,0.002-0.068,0.002-0.102c-0.001-0.035,0.013-0.053,0.05-0.053    c0.146,0.002,0.298-0.02,0.439,0.008c0.329,0.064,0.658,0.129,0.987,0.184C-3.022,1.173-2.646,1.3-2.248,1.272    c0.039-0.004,0.07,0.014,0.076,0.051C-2.162,1.39-2.118,1.39-2.067,1.39C-1.975,1.394-1.874,1.366-1.8,1.452    c0.052,0,0.103,0,0.153,0c0.028-0.049,0.07-0.066,0.127-0.062c0.054,0.004,0.107,0,0.161,0c0.027,0,0.05-0.006,0.057-0.039    c0.007-0.025,0.011-0.064,0.042-0.066c0.041-0.006,0.024,0.041,0.039,0.062c0.01,0.018,0.016,0.037,0.04,0.037    C-1.16,1.386-1.15,1.37-1.146,1.353c0.016-0.082,0.074-0.082,0.14-0.082c1.649,0.002,3.299,0.002,4.948,0.002    c0.06,0,0.119,0.004,0.174,0.029c0.235,0.107,0.488,0.092,0.738,0.105c0.043,0.004,0.078-0.004,0.08-0.061    c0.001-0.02,0.011-0.055,0.038-0.043C5.026,1.325,5.08,1.306,5.133,1.308c0.144,0.002,0.29-0.02,0.432,0.008    c0.101,0.021,0.121,0.023,0.111-0.078c-0.022-0.252,0.061-0.49,0.081-0.736c0-0.035,0-0.066,0-0.102    C5.748,0.368,5.735,0.339,5.7,0.331C5.662,0.323,5.644,0.298,5.637,0.263C5.619,0.169,5.564,0.14,5.475,0.155    c-0.015,0.002-0.029-0.002-0.043,0C5.344,0.169,5.285,0.138,5.26,0.05C5.253,0.028,5.245,0.009,5.22-0.001    c-0.062-0.02-0.168,0.018-0.205,0.074C5.002,0.091,4.987,0.101,4.967,0.104c-0.064,0.01-0.129,0.02-0.191,0.035    C4.709,0.155,4.683,0.13,4.694,0.067c0.019-0.1-0.042-0.174-0.075-0.258c-0.006-0.016-0.038-0.021-0.03-0.045    c0.01-0.027,0.037-0.021,0.059-0.021c0.05,0.002,0.081-0.008,0.08-0.068C4.727-0.39,4.683-0.396,4.641-0.386    C4.576-0.374,4.539-0.425,4.49-0.444C4.46-0.458,4.47-0.489,4.496-0.505c0.021-0.012,0.047-0.018,0.07-0.025    C4.6-0.542,4.607-0.565,4.606-0.597c0-0.033-0.023-0.039-0.048-0.049c-0.053-0.02-0.107-0.01-0.16-0.016    C4.354-0.665,4.33-0.698,4.332-0.735c0.003-0.049,0.041-0.02,0.065-0.016c0.017,0,0.035,0.002,0.045-0.014    C4.449-0.776,4.441-0.786,4.43-0.792c-0.024-0.01-0.04-0.021-0.027-0.049c0.01-0.027,0.029-0.043,0.057-0.043    c0.05,0,0.099-0.012,0.144-0.029C4.58-0.97,4.537-0.993,4.487-1.007C4.4-1.034,4.315-1.062,4.229-1.087    C4.175-1.104,4.121-1.118,4.065-1.13C4.049-1.134,4.023-1.142,4.012-1.118C4.001-1.095,4.02-1.079,4.036-1.069    c0.04,0.023,0.037,0.057,0.035,0.094C4.068-0.931,4.07-0.886,4.07-0.833C4.062-0.856,4.057-0.88,4.031-0.878    C3.951-0.87,3.934-0.923,3.918-0.985C3.9-1.052,3.875-1.116,3.83-1.175C3.704-1.331,3.546-1.427,3.346-1.45    c-0.046,0-0.09,0-0.135,0C2.966-1.415,2.775-1.3,2.664-1.075c-0.023,0.047-0.034,0.1-0.055,0.15C2.588-0.872,2.54-0.86,2.51-0.909    C2.485-0.944,2.458-0.948,2.424-0.948c-0.053,0-0.106,0-0.16,0c-0.041,0-0.077,0-0.107,0.045C2.129-0.864,2.079-0.866,2.062-0.927    C1.977-1.233,1.775-1.407,1.461-1.45z" fill="#FFFFFF"/>
		</g>
	</g></svg>