<?xml version="1.0" standalone="no"?>
<svg xmlns="http://www.w3.org/2000/svg" viewBox="-6.37 -6.37 12.74 12.74" color="#212121" width="75" height="75"><g transform="matrix(1 0 0 -1 0 0)">
		<g xmlns="http://www.w3.org/2000/svg">
			<circle class="primary" fill="currentColor" cx="0" cy="0" r="6.245"/>
			<path class="secondary" d="M0,6.12c3.38,0,6.12-2.74,6.12-6.12S3.38-6.12,0-6.12S-6.12-3.38-6.12,0S-3.38,6.12,0,6.12 M0,6.37    c-3.513,0-6.37-2.857-6.37-6.37S-3.513-6.37,0-6.37S6.37-3.513,6.37,0S3.513,6.37,0,6.37L0,6.37z" fill="#FFFFFF"/>
		</g>
		<g xmlns="http://www.w3.org/2000/svg" id="Skid_Steer_2_">
			<g>
				<path class="secondary" d="M5.414-0.416L5.432-0.73L5.324-0.76c0,0,0.031-0.475-0.352-0.536c0-0.051,0.002-0.106-0.005-0.152     c-0.442,0.004-0.884,0.01-1.326,0.015c0,0,0.011,0.107-0.009,0.261c-0.05-0.064-0.136-0.131-0.136-0.222     c0-0.208-0.175-0.175-0.175-0.175C3.256-2.182,2.736-2.658,2.107-2.658c-0.637,0-1.158,0.484-1.22,1.103H0.162     c-0.06-0.619-0.584-1.103-1.218-1.103c-0.677,0-1.225,0.548-1.225,1.224c0,0.445,0.238,0.835,0.593,1.05     c0.016,0.009,0.055,0.221,0.068,0.253c0.039,0.093,0.09,0.183,0.143,0.271c0.082,0.139,0.127,0.275,0.131,0.438     c-0.411-0.078-1.146-0.51-1.24-0.957l-0.107-0.504c0,0,0.275-0.168-0.016-0.306l0.016-0.139c0,0,0.275-0.245,0-0.29     c0,0-0.184-0.2-0.337-0.092c0,0,0.062-0.428-0.413-0.49l-1.774-0.352c0,0-0.308-0.077-0.184,0.123l1.224,1.989     c0,0,0.367,0.597,0.857,0.046h0.168c0,0,0.061,0.551,0.107,0.596c0,0,0.719,1.103,0.811,1.209c0,0,0.674,0.152,0.918,0.122     l0.337,1.056c0,0,0.092,0.275,0.321,0.26l0.244,0.719l-0.015,0.26c0,0-0.229,0.137-0.229,0.138     C-0.68,3.98-0.585,4.055-0.572,4.06c0.049,0.02,0.125-0.013,0.173-0.02c0.174-0.023,0.351-0.014,0.525-0.028     c0.484-0.039,0.97-0.07,1.455-0.102c0.274-0.016,0.548-0.04,0.821-0.065l0.49-1.255c0,0,0.949-0.122,1.347-0.245l0.093,0.337     l0.121-0.015l0.046,0.245l0.138-0.016L4.529,2.269l0.276-0.076V1.872c0,0,0.382,0.03,0.412-0.307V0.892H5.34L5.414-0.416z      M2.232,2.606L1.983,3.477h-2.031l-0.579-2.031l2.445,0.207L2.232,2.606z" fill="#FFFFFF"/>
			</g>
		</g>
	</g></svg>