<?xml version="1.0" standalone="no"?>
<svg xmlns="http://www.w3.org/2000/svg" viewBox="-6.37 -6.37 12.74 12.74" color="#212121" width="75" height="75"><g transform="matrix(1 0 0 -1 0 0)">
		<g xmlns="http://www.w3.org/2000/svg">
			<circle class="primary" fill="currentColor" cx="0" cy="0" r="6.245"/>
			<path class="secondary" d="M0,6.12c3.38,0,6.12-2.74,6.12-6.12S3.38-6.12,0-6.12S-6.12-3.38-6.12,0S-3.38,6.12,0,6.12 M0,6.37    c-3.513,0-6.37-2.857-6.37-6.37S-3.513-6.37,0-6.37S6.37-3.513,6.37,0S3.513,6.37,0,6.37L0,6.37z" fill="#FFFFFF"/>
		</g>
		<path xmlns="http://www.w3.org/2000/svg" id="Smart_Car_2_" class="secondary" d="M5.043-0.668C4.948-0.418,5.162-0.501,5.104-0.31C5.043-0.12,4.4,0.715,4.305,0.739   c-0.096,0.024-0.18,0.119-0.228,0.214c-0.048,0.096-0.429,0.417-0.5,0.441c-0.072,0.024-0.18,0-0.18,0s-0.941,0.608-1.944,1.3   C0.451,3.386-1.122,3.29-2.267,3.255C-3.412,3.22-4.331,2.993-4.331,2.993C-4.453,2.961-4.386,2.886-4.358,2.87   c0.027-0.016,0.048-0.044,0.06-0.1s-0.354-0.469-0.461-1.042c-0.107-0.572-0.228-0.19-0.25-0.906   c-0.024-0.715,0.083-0.62,0.096-0.775c0.011-0.155-0.013-0.454-0.215-0.632c-0.204-0.179-0.24-0.978-0.227-1.085   c0.007-0.068,0.085-0.155,0.143-0.209c0.01-0.775,0.642-1.401,1.42-1.401c0.62,0,1.148,0.398,1.34,0.954l4.801-0.107l0.024,0.096   c0,0,0.097,0.003,0.254,0.007C2.795-2.847,3.28-3.22,3.853-3.22c0.557,0,1.033,0.355,1.212,0.851   c0.12-0.065,0.243-0.004,0.243-0.004C5.485-1.205,5.14-0.919,5.043-0.668z" fill="#FFFFFF"/>
	</g></svg>