<?xml version="1.0" standalone="no"?>
<svg xmlns="http://www.w3.org/2000/svg" viewBox="-6.37 -6.37 12.74 12.74" color="#212121" width="75" height="75"><g transform="matrix(1 0 0 -1 0 0)">
		<g xmlns="http://www.w3.org/2000/svg" id="Circle_20_">
			<path class="primary" fill="currentColor" d="M-0.001-6.245c-3.443,0-6.244,2.802-6.244,6.246c0,3.443,2.801,6.244,6.244,6.244    c3.444,0,6.246-2.801,6.246-6.244C6.245-3.443,3.443-6.245-0.001-6.245z"/>
			<path class="secondary" d="M-0.001,6.12c3.381,0,6.121-2.74,6.121-6.119c0-3.381-2.74-6.121-6.121-6.121    c-3.379,0-6.119,2.74-6.119,6.121C-6.12,3.38-3.38,6.12-0.001,6.12 M-0.001,6.37c-3.512,0-6.369-2.857-6.369-6.369    c0-3.513,2.857-6.371,6.369-6.371c3.513,0,6.371,2.858,6.371,6.371C6.37,3.513,3.512,6.37-0.001,6.37L-0.001,6.37z" fill="#FFFFFF"/>
		</g>
		<g xmlns="http://www.w3.org/2000/svg">
			<path class="secondary" d="M-1.925-1.417L-1.925-1.417c0.086,0,0.169,0.002,0.255,0c0.037,0,0.083-0.012,0.088,0.047    c0.007,0.062-0.044,0.068-0.085,0.061c-0.158-0.028-0.193,0.05-0.177,0.185c0.008,0.053,0.004,0.107,0.001,0.162    c-0.002,0.07,0.029,0.094,0.099,0.094c0.413-0.002,0.828-0.002,1.242,0c0.061,0,0.092-0.02,0.11-0.078    c0.109-0.35,0.404-0.496,0.694-0.5c0.289-0.002,0.584,0.164,0.68,0.488C1-0.896,1.036-0.866,1.105-0.868    c0.526,0,1.052-0.002,1.578,0.004c0.095,0,0.138-0.033,0.174-0.125c0.128-0.316,0.354-0.438,0.668-0.457    c0.29-0.018,0.569,0.176,0.674,0.447c0.032,0.082,0.062,0.137,0.164,0.135c0.056-0.002,0.115,0.016,0.162,0.072    C4.588-0.716,4.68-0.741,4.761-0.763C4.84-0.786,4.823-0.858,4.824-0.919c0.001-0.072-0.005-0.146,0.001-0.219    c0.014-0.148,0-0.264-0.198-0.223C4.583-1.351,4.541-1.364,4.54-1.423c0-0.059,0.037-0.068,0.083-0.068c0.174,0,0.347,0,0.52,0    c0.035,0,0.072,0,0.073,0.049c0.003,0.045-0.03,0.066-0.066,0.059c-0.213-0.039-0.2,0.098-0.194,0.236    c0.003,0.087,0,0.177,0,0.265c0,0.047,0.002,0.086,0.043,0.123c0.192,0.17,0.382,0.344,0.57,0.518    c0.092,0.084,0.248,0.162,0.244,0.275C5.808,0.233,5.779,0.45,5.68,0.632c-0.136,0.25-0.31,0.482-0.461,0.725    C5.157,1.454,5.086,1.493,4.966,1.493c-2.834-0.002-5.668-0.002-8.502,0c-0.191,0-0.383-0.002-0.57-0.049    c-0.317-0.078-0.685-0.049-0.869-0.412C-5.01,0.964-5.093,0.853-5.122,0.87c-0.069,0.047,0.005,0.139,0.005,0.211    c-0.002,0.039,0.026,0.104-0.02,0.111c-0.051,0.006-0.042-0.059-0.05-0.1c-0.01-0.051-0.027-0.104-0.029-0.156    c-0.003-0.182-0.137-0.221-0.271-0.23c-0.122-0.01-0.091,0.121-0.125,0.188c-0.02,0.037-0.031,0.078-0.044,0.119    c-0.018,0.059-0.066,0.121,0.055,0.133c0.085,0.01,0.041,0.096,0.043,0.146c0.003,0.07-0.061,0.051-0.104,0.053    c-0.062,0.002-0.067-0.035-0.072-0.09C-5.753,1.093-5.68,0.956-5.628,0.812c0.039-0.107,0.019-0.152-0.096-0.168    c-0.024-0.004-0.13,0.004-0.073-0.068c0.16-0.207,0.272-0.449,0.498-0.607c0.281-0.197,0.563-0.396,0.82-0.627    c0.14-0.123,0.281-0.252,0.495-0.209c0.093,0.018,0.129-0.035,0.16-0.119c0.102-0.285,0.329-0.43,0.61-0.455    c0.298-0.029,0.569,0.087,0.694,0.37c0.081,0.186,0.185,0.227,0.355,0.201c0.016-0.002,0.031,0,0.046,0.002    c0.11,0.018,0.148-0.027,0.148-0.139c0.001-0.164,0.027-0.328-0.227-0.281C-2.241-1.28-2.264-1.315-2.26-1.362    c0.005-0.045,0.029-0.057,0.071-0.055C-2.101-1.417-2.013-1.417-1.925-1.417z" fill="#FFFFFF"/>
			<path class="secondary" d="M-1.925-1.417c-0.088,0-0.176,0-0.264,0C-2.23-1.419-2.255-1.407-2.26-1.362    C-2.264-1.315-2.241-1.28-2.196-1.288c0.254-0.047,0.228,0.117,0.227,0.281c0,0.111-0.038,0.156-0.148,0.139    C-2.133-0.87-2.148-0.872-2.164-0.87C-2.335-0.845-2.438-0.886-2.52-1.071C-2.645-1.354-2.916-1.47-3.213-1.442    c-0.281,0.025-0.509,0.17-0.61,0.455C-3.854-0.903-3.89-0.85-3.983-0.868c-0.214-0.043-0.355,0.086-0.495,0.209    c-0.257,0.23-0.539,0.43-0.82,0.627c-0.226,0.158-0.338,0.4-0.498,0.607C-5.854,0.647-5.748,0.64-5.724,0.644    C-5.61,0.66-5.589,0.705-5.628,0.812C-5.68,0.956-5.753,1.093-5.734,1.255c0.005,0.055,0.01,0.092,0.072,0.09    c0.043-0.002,0.106,0.018,0.104-0.053C-5.56,1.241-5.516,1.155-5.601,1.146c-0.121-0.012-0.072-0.074-0.055-0.133    c0.013-0.041,0.024-0.082,0.044-0.119c0.034-0.066,0.003-0.197,0.125-0.188c0.135,0.01,0.269,0.049,0.271,0.23    c0.002,0.053,0.02,0.105,0.029,0.156c0.008,0.041-0.001,0.105,0.05,0.1c0.046-0.008,0.018-0.072,0.02-0.111    c0-0.072-0.074-0.164-0.005-0.211c0.029-0.018,0.112,0.094,0.146,0.162c0.185,0.363,0.552,0.334,0.869,0.412    c0.188,0.047,0.379,0.049,0.57,0.049c2.834-0.002,5.668-0.002,8.502,0c0.12,0,0.191-0.039,0.253-0.137    C5.37,1.114,5.544,0.882,5.68,0.632c0.1-0.182,0.128-0.398,0.134-0.598C5.818-0.079,5.662-0.157,5.57-0.241    C5.382-0.415,5.192-0.589,5-0.759C4.958-0.796,4.956-0.835,4.956-0.882c0-0.088,0.003-0.178-0.001-0.266    C4.949-1.286,4.937-1.423,5.149-1.384c0.036,0.008,0.069-0.014,0.066-0.059c0-0.048-0.037-0.048-0.072-0.048    c-0.173,0-0.346,0-0.52,0c-0.046,0-0.083,0.01-0.083,0.068C4.541-1.364,4.583-1.351,4.627-1.36    c0.198-0.041,0.212,0.074,0.198,0.223c-0.006,0.072,0,0.146-0.001,0.219C4.823-0.858,4.84-0.786,4.761-0.763    C4.68-0.741,4.588-0.716,4.525-0.792C4.479-0.849,4.419-0.866,4.363-0.864C4.261-0.862,4.231-0.917,4.199-0.999    C4.095-1.271,3.815-1.464,3.525-1.446c-0.313,0.02-0.54,0.141-0.668,0.457C2.821-0.897,2.778-0.864,2.684-0.864    C2.157-0.87,1.632-0.868,1.105-0.868C1.036-0.866,1-0.896,0.982-0.958c-0.096-0.324-0.391-0.49-0.68-0.488    c-0.29,0.004-0.585,0.15-0.694,0.5c-0.019,0.059-0.05,0.078-0.11,0.078c-0.414-0.002-0.829-0.002-1.242,0    c-0.069,0-0.101-0.023-0.099-0.094c0.003-0.055,0.007-0.109-0.001-0.162C-1.86-1.259-1.825-1.337-1.667-1.31    c0.041,0.008,0.092,0.002,0.085-0.061C-1.587-1.429-1.633-1.417-1.67-1.417C-1.756-1.415-1.839-1.417-1.925-1.417L-1.925-1.417z" fill="#FFFFFF"/>
		</g>
	</g></svg>