<?xml version="1.0" standalone="no"?>
<svg xmlns="http://www.w3.org/2000/svg" viewBox="-6.37 -6.37 12.74 12.74" color="#212121" width="75" height="75"><g transform="matrix(1 0 0 -1 0 0)">
		<g xmlns="http://www.w3.org/2000/svg">
			<path class="primary" fill="currentColor" d="M0-6.245c-3.444,0-6.245,2.802-6.245,6.246c0,3.443,2.802,6.244,6.245,6.244s6.245-2.801,6.245-6.244    C6.245-3.443,3.444-6.245,0-6.245z"/>
			<path class="secondary" d="M0,6.12c3.38,0,6.12-2.74,6.12-6.119C6.12-3.38,3.38-6.12,0-6.12s-6.12,2.74-6.12,6.121    C-6.12,3.38-3.38,6.12,0,6.12 M0,6.37c-3.513,0-6.37-2.857-6.37-6.369C-6.37-3.512-3.513-6.37,0-6.37s6.37,2.858,6.37,6.371    C6.37,3.513,3.513,6.37,0,6.37L0,6.37z" fill="#FFFFFF"/>
		</g>
		<path xmlns="http://www.w3.org/2000/svg" id="Stryker_2_" class="secondary" d="M5.992,0.268c0-0.015-0.002-0.034-0.005-0.058C5.875-0.066,5.818-0.189,5.818-0.16   c0.029-0.029,0.066-0.072,0.11-0.129C5.933-0.294,5.936-0.318,5.936-0.36c0-0.085-0.04-0.128-0.117-0.128   c-0.005,0-0.022,0.003-0.052,0.011c-0.03,0.006-0.049,0.01-0.058,0.01c-0.005,0-0.018-0.015-0.039-0.044v-0.3   c0,0.044-0.022,0-0.064-0.128C5.583-0.953,5.565-0.966,5.553-0.98C5.541-0.995,5.525-1.014,5.508-1.038   C5.47-1.044,5.428-1.06,5.386-1.088c0.021-0.014,0.057-0.031,0.108-0.05v-0.071C5.447-1.233,5.428-1.245,5.438-1.245   c-0.005,0-0.021,0.003-0.047,0.007c-0.021,0-0.036,0-0.044,0C5.26-1.319,5.135-1.426,4.972-1.559c-0.022,0-0.05-0.003-0.085-0.008   C4.878-1.58,4.865-1.626,4.849-1.701c0.005-0.034,0.005-0.076,0-0.129C4.832-1.901,4.805-1.989,4.771-2.095   c-0.056-0.156-0.192-0.31-0.408-0.463c-0.146-0.1-0.329-0.15-0.549-0.15c-0.082,0-0.165,0.017-0.247,0.051   C3.184-2.52,2.952-2.253,2.87-1.859c0,0.062-0.01,0.153-0.026,0.272c-0.03,0.013-0.08,0.032-0.148,0.057   C2.689-1.593,2.684-1.678,2.675-1.788c-0.013-0.08-0.056-0.199-0.13-0.355C2.438-2.378,2.268-2.547,2.035-2.65   C2.021-2.656,1.969-2.668,1.873-2.687C1.748-2.715,1.659-2.729,1.608-2.729c-0.134,0-0.313,0.068-0.537,0.206   c-0.035,0.02-0.104,0.098-0.207,0.236C0.796-2.192,0.745-2.083,0.711-1.963C0.679-1.842,0.66-1.721,0.658-1.602   C0.636-1.574,0.584-1.559,0.501-1.559c-0.012-0.043-0.04-0.087-0.083-0.129c-0.065,0-0.16,0-0.284,0l-0.912,0.015   c-0.004,0.004-0.014,0.014-0.026,0.027c-0.021,0.101-0.043,0.189-0.064,0.265h-0.117c0.004,0.005,0.008-0.057,0.008-0.186   c0,0.033-0.008,0.017-0.02-0.05c0.004-0.053,0.002-0.126-0.007-0.222c-0.01-0.021-0.021-0.062-0.034-0.12   c-0.017-0.147-0.079-0.289-0.187-0.425C-1.332-2.519-1.457-2.615-1.6-2.673c-0.112-0.042-0.273-0.063-0.485-0.063   c-0.173,0-0.351,0.083-0.534,0.251c-0.184,0.166-0.292,0.355-0.327,0.57c-0.007,0.019-0.019,0.047-0.03,0.085   c0.003,0.042,0.001,0.107-0.008,0.193C-2.992-1.599-3.021-1.58-3.068-1.58c-0.034,0-0.062-0.015-0.084-0.043   c0.004-0.028,0.004-0.076,0-0.143C-3.161-1.789-3.171-1.822-3.185-1.86C-3.188-1.878-3.19-1.904-3.19-1.937   C-3.213-1.975-3.236-2.03-3.263-2.101c-0.063-0.238-0.215-0.416-0.452-0.536c-0.117-0.062-0.268-0.092-0.453-0.092   c-0.469,0-0.768,0.239-0.893,0.721C-5.096-1.871-5.112-1.812-5.112-1.83v0.449c0,0.01,0.01,0.034,0.03,0.074   C-5.063-1.266-5.055-1.24-5.055-1.23c0,0.014-0.083,0.114-0.251,0.3c-0.043,0.019-0.089,0.038-0.136,0.058   C-5.528-0.832-5.57-0.794-5.57-0.76c0.025,0.075,0.038,0.106,0.038,0.093c0-0.02-0.108,0.126-0.323,0.435   c-0.092,0.129-0.136,0.199-0.136,0.215c0,0.028,0.048,0.062,0.143,0.1c0.048,0.015,0.097,0.031,0.147,0.05   c0.036,0.033,0.09,0.071,0.162,0.114c0.586,0.161,0.9,0.242,0.938,0.242c0.009,0,0.023-0.004,0.042-0.011   c0.02-0.007,0.036-0.011,0.048-0.011c0.13,0,0.194,0.039,0.194,0.115v0.385C-4.308,1-4.271,1.041-4.206,1.088   c0.03,0.005,0.072,0.008,0.129,0.008c0.021-0.02,0.03-0.069,0.026-0.15c0-0.006-0.005-0.012-0.013-0.022l0.025-0.078   C-4,0.851-3.945,0.853-3.877,0.853c0.009,0,0.039-0.01,0.094-0.028c0.053-0.02,0.086-0.028,0.094-0.028   c0.069,0,0.218,0.021,0.447,0.064c0.081,0.014,0.201,0.052,0.36,0.113c0.031,0.053,0.081,0.135,0.15,0.249v0.021   c-0.03,0.02-0.065,0.029-0.104,0.029c-0.01,0-0.04,0-0.091,0c-0.051-0.005-0.082-0.007-0.091-0.007c-0.095,0-0.148,0-0.161,0   c-0.009,0.009-0.023,0.021-0.046,0.036C-3.268,1.31-3.33,1.315-3.413,1.315L-5.061,1.33C-5.096,1.315-5.126,1.31-5.15,1.31h-0.349   l-0.015,0.015v0.106l0.072,0.035c0.085,0,0.148,0.003,0.187,0.007c0.044,0,0.062,0,0.052,0c0.01,0,0.026-0.006,0.053-0.018   c0.024-0.012,0.044-0.02,0.054-0.021C-5.085,1.432-4.975,1.43-4.769,1.43l1.3,0.035c0.052,0,0.132,0.003,0.239,0.007   c0.006,0.005,0.014,0.013,0.026,0.021c0.014,0.011,0.023,0.015,0.033,0.015h0.31c-0.052,0-0.018,0.005,0.104,0.015   c0.112,0.189,0.146,0.354,0.104,0.492c0.026,0.047,0.051,0.071,0.07,0.071c0.078,0,0.141,0.003,0.188,0.007   c0.047,0,0.069,0,0.064,0c0.03,0,0.053-0.007,0.064-0.021c0.021-0.037,0.059-0.098,0.11-0.178c0.061,0.042,0.088,0.064,0.084,0.064   h0.368c0.03,0.019,0.068,0.052,0.11,0.1c0.03,0.057,0.045,0.095,0.045,0.113c0,0.01-0.006,0.026-0.02,0.05   c-0.012,0.024-0.02,0.045-0.02,0.064c0,0.01,0.008,0.031,0.02,0.064c0.014,0.034,0.02,0.053,0.02,0.058   c0,0.033-0.006,0.054-0.02,0.063h-0.29c-0.048,0-0.094,0.012-0.137,0.037C-2,2.515-2.008,2.531-2.016,2.555   C-2.035,2.568-2.051,2.572-2.06,2.572h-0.296c-0.031,0-0.099,0.014-0.201,0.043v0.05c0.051,0.019,0.136,0.027,0.252,0.027   l0.323-0.006c0.108,0,0.17,0,0.188,0c0.013,0,0.033,0.006,0.062,0.018c0.028,0.012,0.049,0.018,0.062,0.018   c0.043,0,0.148,0.005,0.315,0.015c0.049,0,0.183-0.012,0.402-0.036C-0.927,2.695-0.9,2.684-0.869,2.665V2.601   C-0.891,2.586-0.92,2.568-0.96,2.544c0-0.034-0.018-0.075-0.053-0.121c-0.03,0.004-0.044,0.033-0.044,0.086l-0.039,0.006   c0.03,0,0.006-0.012-0.071-0.035c-0.03-0.005-0.072-0.016-0.129-0.029c-0.009-0.023-0.03-0.06-0.065-0.106v-0.05h0.978   c0.009-0.005,0.019-0.012,0.032-0.021V2.222C-0.404,2.165-0.43,2.132-0.43,2.123c0,0.047,0.02,0.002,0.06-0.137   c0.021-0.109,0.06-0.273,0.115-0.492c0.004-0.019,0.032-0.04,0.084-0.063c0.03-0.02,0.045-0.057,0.045-0.115   c0-0.008-0.008-0.026-0.025-0.054c-0.017-0.024-0.025-0.043-0.025-0.053c0-0.066,0.062-0.101,0.188-0.101   c0.039,0,0.078,0.013,0.116,0.036c0.053,0.042,0.1,0.071,0.143,0.087C0.296,1.239,0.333,1.244,0.38,1.244l1.146-0.013   C1.547,1.172,1.569,1.116,1.594,1.06c0.022-0.059,0.06-0.087,0.112-0.087H1.99c0.009,0,0.021,0.002,0.04,0.007   c0.017,0,0.027,0,0.03,0c0.045,0.063,0.065,0.103,0.065,0.121v1.014h0.053V1.159C2.199,1.15,2.223,1.136,2.249,1.116   C2.261,1.101,2.274,1.083,2.287,1.06c0.087-0.012,0.118-0.016,0.097-0.016l0.473,0.007c0.15,0.029,0.205,0.044,0.161,0.044   c0.039,0,0.065-0.008,0.077-0.022c-0.003-0.024,0.009-0.052,0.04-0.084c0.389-0.125,0.627-0.187,0.718-0.187   c-0.022,0,0.01,0.035,0.097,0.107C3.971,0.9,3.986,0.872,3.993,0.824c0.022-0.02,0.063-0.047,0.121-0.082   c0.059-0.035,0.133-0.053,0.223-0.053c0.005,0,0.011,0.001,0.021,0.005c0.008,0,0.018,0,0.024,0c0.009,0,0.033-0.008,0.07-0.027   c0.04-0.02,0.064-0.029,0.072-0.029c0.01,0,0.021,0.004,0.039,0.011C4.581,0.657,4.593,0.66,4.602,0.66   c-0.009,0,0.022-0.021,0.091-0.063c0.03-0.014,0.079-0.021,0.147-0.021C4.862,0.6,4.89,0.639,4.919,0.696   c0.008,0.039,0.017,0.1,0.025,0.18C4.957,0.919,4.97,0.985,4.983,1.075C4.997,1.088,5.01,1.1,5.023,1.108   C5.036,1.1,5.042,1.083,5.042,1.061c0,0.013-0.009-0.036-0.025-0.15C4.998,0.843,4.981,0.765,4.964,0.674V0.632l0.015-0.014   c0.013,0,0.024,0.009,0.038,0.027c0.017,0.066,0.048,0.216,0.09,0.45c0.03-0.006,0.046-0.017,0.046-0.035   c0-0.005-0.006-0.026-0.016-0.063C5.125,0.963,5.12,0.937,5.12,0.917C5.09,0.67,5.074,0.539,5.074,0.524   C5.084,0.519,5.091,0.512,5.1,0.503C5.312,0.45,5.609,0.372,5.992,0.268z M-1.322,2.065v0.05c-0.009,0.01-0.02,0.024-0.033,0.044   h-0.051C-1.377,2.106-1.348,2.074-1.322,2.065z M-0.636,2.079v0.086h-0.427c-0.021-0.042-0.033-0.066-0.033-0.071   c0-0.02,0.005-0.028,0.013-0.028c0.034,0,0.087-0.006,0.156-0.018s0.106-0.018,0.11-0.018C-0.856,2.03-0.795,2.047-0.636,2.079z" fill="#FFFFFF"/>
	</g></svg>