<?xml version="1.0" standalone="no"?>
<svg xmlns="http://www.w3.org/2000/svg" viewBox="-6.37 -6.37 12.74 12.74" color="#212121" width="75" height="75"><g transform="matrix(1 0 0 -1 0 0)">
		<g xmlns="http://www.w3.org/2000/svg">
			<path class="primary" fill="currentColor" d="M0-6.245c-3.444,0-6.245,2.802-6.245,6.246c0,3.443,2.802,6.244,6.245,6.244s6.245-2.801,6.245-6.244    C6.245-3.443,3.444-6.245,0-6.245z"/>
			<path class="secondary" d="M0,6.12c3.38,0,6.12-2.74,6.12-6.119C6.12-3.38,3.38-6.12,0-6.12s-6.12,2.74-6.12,6.121    C-6.12,3.38-3.38,6.12,0,6.12 M0,6.37c-3.513,0-6.37-2.857-6.37-6.369C-6.37-3.512-3.513-6.37,0-6.37s6.37,2.858,6.37,6.371    C6.37,3.513,3.513,6.37,0,6.37L0,6.37z" fill="#FFFFFF"/>
		</g>
		<g xmlns="http://www.w3.org/2000/svg">
			<polygon class="secondary" points="0.574,-0.223 0.471,-0.326 -0.227,-0.606 -0.227,-0.094 0.574,-0.138   " fill="#FFFFFF"/>
			<path class="secondary" d="M-1.896,0.128v0.057l1.211-0.065l0.048-0.19l0.334-0.019v-0.53h-0.136l-0.104,0.058v0.122h-0.104L-0.703-0.4    H-0.93v0.075h-0.174L-1.252-0.41v0.113L-1.526-0.25L-2.17-0.24l-0.511-0.123l-0.123,0.01l-0.219,0.009v-0.245h-0.084l-0.151-0.124    l-0.095-0.056L-3.41-0.636l-0.076-0.011l-0.009,0.691h-0.151v-0.066h0.085L-3.627-0.78l-0.445-0.114v0.171h-0.122v-0.161    l-0.198,0.047l-0.01-0.047l-0.095-0.057h-0.237l-0.228,0.104l-0.085-0.085l-0.228-0.057c-0.273-0.037-0.16-0.33-0.16-0.33    l-0.242-0.149v-0.076V-1.66h0.075v-0.126h0.114v0.076h0.112l1.226-0.91v-0.126h0.151l0.104,0.042    c-0.03-0.092-0.048-0.19-0.048-0.295c0-0.508,0.413-0.92,0.92-0.92c0.51,0,0.922,0.412,0.922,0.92    c0,0.116-0.021,0.228-0.061,0.329h0.197c-0.04-0.102-0.061-0.213-0.061-0.329c0-0.508,0.412-0.92,0.921-0.92    s0.921,0.412,0.921,0.92c0,0.116-0.021,0.228-0.061,0.329h0.205l0.114-0.102h0.173C0.231-2.843,0.222-2.92,0.222-2.999    c0-0.508,0.412-0.92,0.921-0.92s0.921,0.412,0.921,0.92c0,0.079-0.01,0.156-0.028,0.228h0.126c-0.019-0.072-0.03-0.149-0.03-0.228    c0-0.508,0.413-0.92,0.922-0.92s0.921,0.412,0.921,0.92c0,0.079-0.011,0.156-0.028,0.228h0.306v-0.075h0.354L5.29-2.354    l0.236-0.051l0.215,1.426L5.474-1.006c0.005,0.351,0.003,0.699-0.003,1.05c-0.006,0.36-0.019,0.721-0.038,1.079    c-0.021,0.36-0.05,0.72-0.096,1.076c-0.022,0.18-0.05,0.357-0.086,0.534C5.216,2.909,5.173,3.085,5.109,3.254    c0.063-0.169,0.105-0.345,0.14-0.521c0.034-0.177,0.062-0.354,0.084-0.534c0.043-0.356,0.07-0.716,0.089-1.075    c0.021-0.359,0.03-0.719,0.036-1.079c0.003-0.351,0.003-0.701-0.004-1.052l-0.092-0.01L5.358-0.979l0.008,0.071L5.164-0.794    L5.14-0.842L4.99-0.857L4.838-0.808C4.821-0.605,4.804-0.402,4.783-0.2C4.747,0.158,4.705,0.516,4.655,0.872    c-0.05,0.357-0.107,0.712-0.182,1.064c-0.039,0.177-0.08,0.352-0.13,0.524C4.294,2.634,4.237,2.806,4.16,2.97    c0.077-0.164,0.132-0.336,0.182-0.509c0.049-0.173,0.09-0.349,0.126-0.524c0.074-0.354,0.13-0.709,0.179-1.065    C4.694,0.515,4.734,0.156,4.77-0.201c0.019-0.2,0.035-0.4,0.052-0.602L4.73-0.772L4.653-0.695H4.512L4.416-0.653v0.071H4.312    v-0.047h0.066v-0.053H4.236v-0.126h-0.14L4.059-0.771L2.937-0.754l-0.04-0.04L2.699-0.753L2.689-0.71L2.646-0.677L2.703-0.62    L2.699-0.374C2.694-0.189,2.794-0.236,2.794-0.236c0.255-0.095,0.368,0.033,0.368,0.033l0.994,0.246L4.118,0.336H4.18v0.033    l-0.062-0.01v0.076L4.231,0.44v0.817H4.095h-0.12V0.573H3.857H3.735v0.112H3.56L3.551,0.742l0.047,0.034l0.019,0.069l-0.023,0.03    l0.015,0.142L3.28,1.074L3.209,0.719H3.101v-0.07H3.054v0.037C2.803,0.843,2.575,0.748,2.575,0.748l-0.634,0.01v0.047l-0.236-0.1    L1.497,0.738L1.492,0.686L0.99,0.742L0.977,0.705H0.612v0.071l-0.076,0.07H0.82L0.815,0.899l0.138,0.004L0.915,1.112L0.702,1.074    L0.674,1.112H0.565L0.526,1.018L0.054,0.97l-0.095,0.048l0.028-0.133l-0.265-0.039l-1.041-0.188L-1.3,0.591l0.993,0.143V0.62    h-0.32l-0.028-0.208l-0.379,0.161l-0.069-0.114l-0.783,0.009l-0.009,0.058h-0.937V0.468l-2.157,0.02v0.057h0.066l-0.01,0.076    h-0.274l0.009-0.113h-0.728c-0.058-0.066,0-0.189,0-0.189l3.094-0.133v-0.04L-1.896,0.128z M-0.227-0.094l0.801-0.044v-0.085    L0.471-0.326l-0.697-0.28L-0.227-0.094L-0.227-0.094z" fill="#FFFFFF"/>
		</g>
	</g></svg>