<?xml version="1.0" standalone="no"?>
<svg xmlns="http://www.w3.org/2000/svg" viewBox="-6.37 -6.37 12.74 12.74" color="#212121" width="75" height="75"><g transform="matrix(1 0 0 -1 0 0)">
		<g xmlns="http://www.w3.org/2000/svg">
			<circle class="primary" fill="currentColor" cx="0" cy="0" r="6.245"/>
			<path class="secondary" d="M0,6.12c3.38,0,6.12-2.74,6.12-6.12S3.38-6.12,0-6.12S-6.12-3.38-6.12,0S-3.38,6.12,0,6.12 M0,6.37    c-3.513,0-6.37-2.857-6.37-6.37S-3.513-6.37,0-6.37S6.37-3.513,6.37,0S3.513,6.37,0,6.37L0,6.37z" fill="#FFFFFF"/>
		</g>
		<path xmlns="http://www.w3.org/2000/svg" id="SUV_2_" class="secondary" d="M-5.481-0.257v0.103l0.043,0.004c0,0,0,0.129,0.021,0.578c0.021,0.448,0.086,0.44,0.12,0.44   c0.035,0,1.487-0.009,1.487-0.009c0,0.224,0.086,0.289,0.182,0.349c0.095,0.061,0.888,0.358,1.044,0.423   c0.155,0.064,0.353,0.103,0.448,0.103c0.094,0,0.103,0.035,0.103,0.082c0,0.048-0.017,0.147,0.005,0.147c0.021,0,0.104,0,0.177,0   s0.103,0.009,0.103-0.064s0.027-0.061,0.027-0.061s0,0,0.141,0.064c0.144,0.065,2.795-0.012,3.119-0.168   C1.86,1.58,2.688,0.778,2.83,0.765c0.144-0.013,2.174-0.194,2.342-0.349C5.34,0.26,5.366-0.179,5.366-0.179   c0.142-0.009,0.115-0.302,0.107-0.552c-0.009-0.25-0.354-0.302-0.491-0.302c-0.138,0-0.112-0.086-0.112-0.086s0,0-0.077,0.103   c-0.01,0.012-0.028,0.02-0.053,0.023c0-0.016,0-0.032,0-0.049c0-0.495-0.401-0.896-0.896-0.896c-0.355,0-0.663,0.206-0.808,0.505   l-0.129-0.04C2.688-1.425,2.594-1.127,2.594-1.127L-1.671-1.05L-1.71-1.18C-1.781-1.399-2.018-1.4-2.095-1.394   c-0.125-0.333-0.448-0.57-0.826-0.57c-0.488,0-0.884,0.396-0.884,0.884c0,0.081,0.011,0.16,0.032,0.234   c-0.02-0.004-0.052-0.014-0.075-0.04c-0.035-0.039-0.009-0.405-0.03-0.444c-0.021-0.04-0.135-0.083-0.135-0.083l-0.012,0.6   L-4.24-0.809C-4.313-0.916-4.649-0.83-4.649-0.83c-0.75,0.134-0.733,0.134-0.733,0.207s0.078,0.108,0.078,0.108L-5.33-0.472   L-5.481-0.257z" fill="#FFFFFF"/>
	</g></svg>