<?xml version="1.0" standalone="no"?>
<svg xmlns="http://www.w3.org/2000/svg" viewBox="-6.37 -6.37 12.74 12.74" color="#212121" width="75" height="75"><g transform="matrix(1 0 0 -1 0 0)">
		<g xmlns="http://www.w3.org/2000/svg" id="Circle_2_">
			<path class="primary" fill="currentColor" d="M-0.001-6.245c-3.443,0-6.244,2.802-6.244,6.246c0,3.443,2.801,6.244,6.244,6.244    c3.444,0,6.246-2.801,6.246-6.244C6.245-3.443,3.443-6.245-0.001-6.245z"/>
			<path class="secondary" d="M-0.001,6.12c3.381,0,6.121-2.74,6.121-6.119c0-3.381-2.74-6.121-6.121-6.121    c-3.379,0-6.119,2.74-6.119,6.121C-6.12,3.38-3.38,6.12-0.001,6.12 M-0.001,6.37c-3.512,0-6.369-2.857-6.369-6.369    c0-3.513,2.857-6.371,6.369-6.371c3.513,0,6.371,2.858,6.371,6.371C6.37,3.513,3.512,6.37-0.001,6.37L-0.001,6.37z" fill="#FFFFFF"/>
		</g>
		<path xmlns="http://www.w3.org/2000/svg" class="secondary" d="M5.489-0.679c0,0,0-0.134-0.051-0.15C5.389-0.846,5.348-0.912,5.28-0.971C5.214-1.029,4.105-1.72,4.105-1.72   h-5.054c0,0-0.198,0.027-0.262,0.073c-0.296,0.221-1.151,0.862-1.166,0.918C-2.393-0.662-2.418-0.6-2.418-0.6l-0.233,0.237   c0,0,0.093,0.542,0.858,0.425c0,0,0.025,0.259,0.175,0.275c0.15,0.017,0.31-0.075,0.31-0.075s0.374,0.045,0.516,0.077   C-0.65,0.37-0.384,0.388-0.384,0.388l-0.083,0.08l-0.45,0.036l-3.707,0.041H-4.69h-0.842h-0.149v0.184h0.133h0.816h0.092   l4.007,0.125l0.325,0.158v0.366c0,0,0.306,0.05,0.307,0c0.001-0.05,0-0.259,0-0.259s0.126,0.075,0.227,0.075   c0.1,0,0.166-0.042,0.166-0.042l0.55,0.075c0,0,0.092,0.134,0.217,0.134c0.126,0,0.209-0.083,0.209-0.083h0.158v0.44l0,0   c0,0-0.018-0.008,0.058-0.008c0.075,0,0.134-0.059,0.15-0.1c0.014-0.04,0.039-0.147,0.039-0.147s0.059,0.033,0.1-0.009   c0.041-0.042,0.033-0.067,0.158-0.067S2.298,1.412,2.365,1.37c0.066-0.041,0.324-0.008,0.391-0.032   C2.822,1.312,2.939,1.179,2.98,1.129c0.042-0.05,0.184,0.066,0.184,0.066l-0.1,0.075c0,0,0.233,0.075,0.367,0.017   c0.133-0.059,0.174-0.15,0.19-0.226c0.017-0.074,0.025-0.282-0.083-0.332c-0.106-0.05-0.29-0.125-0.29-0.125l0.017-0.258H3.99   l0.058,0.025h0.559l0.075-0.05H4.83h0.342L5.33,0.204c0,0,0.159,0.075,0.242-0.037c0.084-0.113-0.075-0.13-0.066-0.163   c0.009-0.032,0.066-0.133,0.108-0.166s0.099-0.176,0.05-0.209c-0.05-0.033-0.117-0.066-0.117-0.066L5.489-0.679z" fill="#FFFFFF"/>
	</g></svg>