<?xml version="1.0" standalone="no"?>
<svg xmlns="http://www.w3.org/2000/svg" viewBox="-8.578 -8.578 17.157 17.156" color="#212121" width="75" height="75"><g transform="matrix(1 0 0 -1 0 0)">
		<g xmlns="http://www.w3.org/2000/svg">
			<g>
				<path fill="currentColor" class="primary" d="M8.453,0.001c0-4.669-3.785-8.454-8.454-8.454c-4.67,0-8.453,3.785-8.453,8.454 c0,4.667,3.783,8.452,8.453,8.452C4.668,8.453,8.453,4.668,8.453,0.001z"/>
				<path class="secondary" d="M0-8.578c-4.73,0-8.578,3.849-8.578,8.579C-8.578,4.73-4.73,8.578,0,8.578 c4.73,0,8.579-3.848,8.579-8.577C8.578-4.729,4.73-8.578,0-8.578z M0,8.328c-4.592,0-8.328-3.735-8.328-8.327 c0-4.593,3.736-8.329,8.328-8.329s8.329,3.736,8.329,8.329C8.328,4.593,4.592,8.328,0,8.328z" fill="#FFFFFF"/>
			</g>
		</g>
		<path xmlns="http://www.w3.org/2000/svg" class="secondary" d="M3.576-0.55L3.487-0.589c0,0,0.011-0.216-0.061-0.298c-0.072-0.083-1.05-0.945-1.05-0.945 S2.271-1.948,1.735-1.948s-6.368,0-6.368,0s-0.227-0.011-0.381,0.083c-0.155,0.094-1.034,0.663-1.034,0.663s-0.1,0.071-0.175,0.206 l-0.031-0.016l-0.112,0.075l-0.081,0.115c0,0-0.14-0.041-0.219,0.097c-0.078,0.137,0.041,0.212,0.041,0.212l0.037-0.022 l0.044,0.031c0,0-0.356,0.041-0.465,0.272c0,0-0.4-0.194-0.74,0.115l0.059,0.066l-0.165,0.022l0.022,0.272 c0,0-0.056,0.396,0.396,0.515c0,0-0.003,0.044,0.031,0.053l-0.006,0.066l0.107,0.001V0.861h0.058V0.844V0.761 c0,0,0.383-0.094,0.429-0.474v-0.1l0.033,0.021h0.318l0.062-0.027c0,0,0.056,0.092,0.089,0.092s0.104,0.01,0.104,0.01 s0.01,0.035,0.044,0.035s0.741,0.04,0.741,0.04l0.05-0.025L-5.23,0.33l0.065,0.054h1.059l0.042-0.052h0.368l0.052,0.031h0.308 l-0.029,0.029h-0.169l-0.065,0.106l-0.01,0.129h-0.169l-0.298,0.447l-0.006,0.106l-0.01,0.094l0.021,0.023l0.048-0.002l0.025-0.021 h0.31l0.035-0.027h0.083l0.194,0.075l0.017-0.092l0.223,0.017l0.004,0.085H-3.18v0.2l-0.331,0.046l-0.004,0.05l-0.029,0.019h-0.67 v0.075h-0.78l-0.144-0.027v0.081l0.144-0.019h0.766l0.027,0.017h0.88l0.033,0.031h0.37l0.05,0.017h0.137V1.737 c0,0,0.179,0.012,0.179-0.156c0,0,0.01-0.096-0.06-0.119l0.069-0.031l0.069,0.031l0.37,0.089h0.191l0.046-0.021l0.094,0.002 l0.012,0.056l0.002,0.11l0.067,0.021c0,0-0.046,0.106,0.073,0.16v0.054c0,0-0.012,0.015,0.062,0.015c0.075,0,0.102,0,0.102,0V1.587 h-0.146c0,0-0.015,0.01-0.015,0.027s-0.002,0.035-0.002,0.035L-1.669,1.67l-0.077-0.023V1.583l0.015-0.042h0.106V1.437h0.196 c0,0,0.027,0.012,0.027-0.025s0-0.037,0-0.037h-0.098l-0.002-0.044l0.017-0.01c0,0,0.035,0.017,0.106,0.017V1.292l0.214-0.062 c0,0,0.006,0.037,0.065,0.037c0.058,0,0.208,0,0.208,0l0.037-0.017l0.085-0.008l0.206,0.067l0.006-0.133l0.108-0.102l0.198-0.035 l0.04,0.019c0,0,0.243-0.035,0.285-0.042s0.354-0.106,0.368-0.119c0.015-0.012,0.214-0.012,0.214-0.012l0.04-0.023l0.023,0.002 l0.01-0.035l0.909-0.051L1.65,0.805l1.064-0.012L2.73,0.77h0.231l0.016,0.022l1.058-0.016l0.009-0.022h0.119L4.187,0.77h0.056 l0.022,0.019h1.227V0.755h0.212l0.009,0.014h0.821l0.006-0.027H6.72L6.73,0.769h0.815l0.002-0.025h0.309V0.491H5.51L5.493,0.44 H4.259L4.245,0.466H4.183L4.169,0.48L1.522,0.443L0.729,0.405c0,0-0.012-0.005-0.012-0.039c0,0-0.006,0.008-0.031-0.005 S0.66,0.349,0.627,0.347S0.365,0.34,0.365,0.34L0.354,0.322c0,0,0.002-0.008,0.023-0.008c0.022,0,0.08,0.001,0.101-0.02 S0.484,0.28,0.528,0.28s0.225,0,0.225,0S0.771,0.302,0.86,0.302c0,0-0.002-0.033,0.02-0.033s0.027,0.034,0.064,0.027 s0.935-0.161,0.935-0.161s0.022-0.012,0.022-0.037l1.322-0.229C3.223-0.132,3.506-0.22,3.576-0.55z" fill="#FFFFFF"/>
	</g></svg>