<?xml version="1.0" standalone="no"?>
<svg xmlns="http://www.w3.org/2000/svg" viewBox="-8.578 -8.578 17.157 17.156" color="#212121" width="75" height="75"><g transform="matrix(1 0 0 -1 0 0)">
		<g xmlns="http://www.w3.org/2000/svg">
			<g>
				<path fill="currentColor" class="primary" d="M8.453,0.001c0-4.669-3.785-8.454-8.454-8.454c-4.67,0-8.453,3.785-8.453,8.454 c0,4.667,3.783,8.452,8.453,8.452C4.668,8.453,8.453,4.668,8.453,0.001z"/>
				<path class="secondary" d="M0-8.578c-4.73,0-8.578,3.849-8.578,8.579C-8.578,4.73-4.73,8.578,0,8.578 c4.73,0,8.579-3.848,8.579-8.577C8.578-4.729,4.73-8.578,0-8.578z M0,8.328c-4.592,0-8.328-3.735-8.328-8.327 c0-4.593,3.736-8.329,8.328-8.329s8.329,3.736,8.329,8.329C8.328,4.593,4.592,8.328,0,8.328z" fill="#FFFFFF"/>
			</g>
		</g>
		<path xmlns="http://www.w3.org/2000/svg" class="secondary" d="M-5.536-1.864l6.488-0.007c0,0,0.309,0.02,0.565,0.164s1.189,0.703,1.189,0.703s0.151,0.085,0.236,0.197 c0.085,0.112,0.171,0.335,0.171,0.335l0.269,0.151l-0.578,0.63L2.501,0.395L2.429,0.428L0.991,0.552L0.906,0.487L0.748,0.552 l0.414,0.085l0.053-0.013l2.403,0.433l0.079-0.02l1.129,0.184l0.013,0.036l2.202,0.358c0,0,0.035,0.013,0.018,0.144 C7.041,1.892,7.015,1.87,7.015,1.87L4.839,1.529L4.791,1.542L1.188,0.986L1.136,0.951L0.413,0.85L0.348,0.889L0.164,0.859 L0.068,0.868l-0.136,0.066l-0.039,0.022l0.022,0.039l-0.158,0.144l-0.341,0.07L-0.593,1.13l-0.184,0.022l-0.004,0.197l-0.079,0.07 l-0.118-0.022l-0.009,0.14L-1.04,1.564l0.009,0.096l-0.285-0.07l-0.236,0.066l-0.215-0.044l-0.061-0.241l-0.057,0.092l-0.285,0.004 l-0.096-0.153L-2.852,1.27l-0.07,0.088l-0.149,0.031l-0.044,0.07l-0.197,0.105L-3.636,1.52l-0.035-0.096l-0.123,0.066l-0.171-0.013 l0.013,0.131l-0.223,0.057l-0.398-0.039V1.546c0,0-0.394,0.044-0.368-0.372c0.026-0.416,0.679-0.359,0.679-0.359l0.022-0.083 l0.223-0.039l0.123-0.066l0.127-0.131l-0.534-0.018l-2.36-0.206c0,0-0.039-0.039-0.031-0.096s0.009-0.105,0.009-0.105 s-0.197-0.109-0.25-0.197S-7.063-0.31-7.063-0.31s0.219-0.127,0.267-0.158C-6.748-0.498-6.735-0.52-6.735-0.52 s-0.118-0.263-0.044-0.39s0.228-0.315,0.42-0.455c0.193-0.14,0.495-0.372,0.569-0.416C-5.715-1.825-5.641-1.855-5.536-1.864z" fill="#FFFFFF"/>
	</g></svg>