<?xml version="1.0" standalone="no"?>
<svg xmlns="http://www.w3.org/2000/svg" viewBox="-8.578 -8.578 17.157 17.156" color="#212121" width="75" height="75"><g transform="matrix(1 0 0 -1 0 0)">
		<g xmlns="http://www.w3.org/2000/svg">
			<g>
				<path fill="currentColor" class="primary" d="M8.453,0.001c0-4.669-3.785-8.454-8.454-8.454c-4.67,0-8.453,3.785-8.453,8.454 c0,4.667,3.783,8.452,8.453,8.452C4.668,8.453,8.453,4.667,8.453,0.001z"/>
				<path class="secondary" d="M0-8.578c-4.73,0-8.578,3.849-8.578,8.579C-8.578,4.73-4.73,8.578,0,8.578 c4.73,0,8.579-3.848,8.579-8.577C8.578-4.729,4.73-8.578,0-8.578z M0,8.328c-4.592,0-8.328-3.735-8.328-8.327 c0-4.593,3.736-8.329,8.328-8.329s8.329,3.736,8.329,8.329C8.328,4.593,4.592,8.328,0,8.328z" fill="#FFFFFF"/>
			</g>
		</g>
		<path xmlns="http://www.w3.org/2000/svg" class="secondary" d="M1.282-0.421l0.228-0.01l0.01,0.045l0.512,0.007l0.121-0.042l0.083-0.024L2.255-0.48l0.163-0.003 l0.436-0.062l0.668-0.069l0.131,0.007l0.374-0.059l0.675-0.076l0.754-0.121l0.031-0.031l0.042-0.014l0.228-0.415L5.652-1.411 L5.541-1.462l0.038-0.159c0,0,0.057-0.213-0.285-0.509S4.326-2.924,4.326-2.924S4.114-3.131,3.652-3.131S-3.83-3.2-3.83-3.2 s-0.304-0.028-0.507,0.069c-0.203,0.097-1.61,0.876-1.61,0.876s-0.226,0.097-0.286,0.272C-6.293-1.807-6.298-1.72-6.298-1.72 l-0.06-0.032l-0.198,0.083L-6.75-1.47l0.032,0.161l-0.411-0.101c0,0-0.171-0.032-0.249,0.111c-0.078,0.143,0.06,0.281,0.06,0.281 l0.125,0.074c0,0-0.065,0.101,0.028,0.129c0.092,0.028,0.226,0.06,0.226,0.06l0.065,0.134L-6.916-0.35h0.364l0.046,0.018 L-6.69-0.054l0.18-0.065l0.203-0.203l0.268,0.018l0.046,0.037l0.563,0.005l0.009-0.032l0.526-0.009l0.065,0.06l0.152,0.005 l0.028,0.032l1.453-0.014l0.014,0.055l-0.152,0.046l0.005,0.106h-0.383l-0.101,0.235l-0.157-0.014c0,0-0.041-0.098-0.175-0.098 c-0.134,0-0.236,0.101-0.236,0.196s0.059,0.231,0.236,0.231h0.052l0.061,0.16h0.149l0.02,0.02l0.049,0.015 c0,0,0.005,0.082,0.068,0.082s0.057,0.03,0.085,0.03s0.078,0.017,0.125,0.017c0.047,0,0.071-0.014,0.071-0.014h0.13l0.005,0.035 l0.307,0.002L-3,0.988l0.389-0.033l0.01-0.016l0.155,0.038l0.04,0.045l0.115-0.002l0.007,0.111l0.033,0.038l-0.03,0.061 l0.003,0.071l-0.071,0.012l-0.01,0.228l0.033,0.028l-0.012,0.09l0.035,0.016l0.005,0.156l0.04,0.04L-2.26,1.988l0.036,0.075 l-0.007,0.026l-0.035,0.016v0.03l0.038,0.009l0.002,0.026l0.05-0.002l0.007-0.066L-2.18,2.063l0.036-0.078l-0.007-0.038 l-0.01-0.069l0.038-0.047V1.655l0.03-0.003l-0.003-0.109l-0.026-0.026c0,0,0.023-0.042,0.023-0.094s-0.078-0.096-0.078-0.096 l-0.007-0.08L-2.112,1.2L-2.13,1.16l0.049-0.036l0.009-0.038l0.116,0.019l-0.017,0.036l0.182,0.504l0.045,0.071l0.026,0.047 c0,0,0.071,0.201,0.132,0.21s0.132,0.012,0.132,0.012s0.024,0.002,0.024-0.04c0-0.042,0.038-0.245,0.038-0.245s0.075-0.017,0.151,0 c0.076,0.017,0.096,0.009,0.109,0.031s0.026,0.042,0.054,0.04c0.028-0.002,0.038-0.002,0.038-0.002l0.009,0.052l0.113,0.045 l0.033-0.012l0.08,0.087l0.109,0.033L-0.6,2.061l0.03,0.007l0.74,0.778L0.088,2.916l0.038,0.023l0.066-0.075L0.35,3.025 l0.031,0.049l0.017,0.002l0.104,0.129l0.049-0.043L0.428,3.053V3.037L0.402,3.006L0.376,2.994L0.223,2.836l0.002-0.017L0.211,2.798 L0.194,2.799l-0.267-0.278l0.021-0.047L-0.11,2.391l-0.009-0.024l-0.316-0.33l0.007-0.019l-0.045-0.054l0.014-0.016l-0.017-0.035 l0.031-0.033l0.005-0.03l0.019-0.003l-0.01-0.063l0.087-0.238c0,0-0.087-0.177-0.087-0.191s-0.007-0.069-0.066-0.078 s-0.069-0.009-0.069-0.009S-0.6,1.309-0.626,1.341s-0.042,0.031-0.059,0.061S-0.74,1.466-0.74,1.466l-0.085-0.078 c0,0-0.023-0.063-0.019-0.073c0.003-0.01,0.005-0.057,0.003-0.063s-0.016-0.033-0.016-0.033l-0.085-0.017V1.137l-0.003-0.071 l-0.03-0.09l0.073-0.002l0.019,0.104l0.116,0.023c0,0,0.063,0.116,0.068,0.116c0.005,0,0.175,0.024,0.175,0.024l0.026-0.007 l0.174-0.012L-0.2,1.264l0.052,0.003c0,0,0.03-0.036,0.03-0.089s-0.012-0.163-0.017-0.182c-0.005-0.019-0.009-0.028-0.009-0.028 l-0.042-0.007V0.875l0.175,0.03c0,0,0.014,0.019,0.036,0.019s0.023-0.009,0.023-0.009S0.043,0.932,0.074,0.932 s0.054-0.068,0.054-0.068l0.255,0.003L0.38,0.842l-0.04-0.01L0.338,0.818h0.099l0.255,0.038L0.71,0.847l0.005-0.245h0.017 l0.01-0.047l0.395-0.076l0.078,0.003L1.182,0.51l0.039,0.076l0.253,0.013L1.674,0.56l0.287-0.172L1.995,0.38l0.143,0.021 l0.047,0.034L2.25,0.432l0.998,0.193L3.25,0.646l0.083-0.003l1.021,0.19l0.117,0.057l1,0.206L5.53,1.081l0.13,0.018l1.271,0.25 l0.344,0.063c0,0,0.06,0.042,0.112-0.073S7.333,1.182,7.333,1.182L5.585,0.81c0,0,0.029-0.026-0.055-0.044 C5.447,0.747,4.537,0.552,4.537,0.552L4.49,0.562L4.441,0.56l-1.05-0.221c0,0-0.01-0.018-0.034-0.023S3.316,0.318,3.316,0.318 L2.36,0.107c0,0,0.013-0.06,0.008-0.102C2.362-0.037,2.393-0.076,2.393-0.076S2.378-0.112,2.339-0.12 C2.3-0.128,2.151-0.172,2.151-0.172L2.13-0.229L1.935-0.271L1.839-0.248L1.802-0.214H1.687c0,0-0.029,0.073-0.063,0.073 c-0.034,0-0.094-0.026-0.094-0.026L1.51-0.245c0,0-0.039-0.055-0.073-0.07C1.404-0.331,1.282-0.421,1.282-0.421z" fill="#FFFFFF"/>
	</g></svg>