<?xml version="1.0" standalone="no"?>
<svg xmlns="http://www.w3.org/2000/svg" viewBox="-6.37 -6.37 12.74 12.74" color="#212121" width="75" height="75"><g transform="matrix(1 0 0 -1 0 0)">
		<g xmlns="http://www.w3.org/2000/svg">
			<circle class="primary" fill="currentColor" cx="0" cy="0" r="6.245"/>
			<path class="secondary" d="M0,6.12c3.38,0,6.12-2.74,6.12-6.12S3.38-6.12,0-6.12S-6.12-3.38-6.12,0S-3.38,6.12,0,6.12 M0,6.37    c-3.513,0-6.37-2.857-6.37-6.37S-3.513-6.37,0-6.37S6.37-3.513,6.37,0S3.513,6.37,0,6.37L0,6.37z" fill="#FFFFFF"/>
		</g>
		<path xmlns="http://www.w3.org/2000/svg" id="Tour_Bus_2_" class="secondary" d="M-5.719-1.252c0,0,0.053,1.726,0.105,2.043c0.053,0.317,0.3,0.281,0.3,0.281   S2.01,1.794,2.908,1.829c0.898,0.036,1.744-0.193,1.744-0.193C4.844,1.566,4.968,1.32,4.968,1.32l0.158-0.053   c0.23,0,0.405-0.071,0.477-0.089C5.672,1.161,5.779,0.685,5.672,0.65C5.567,0.614,5.585,1.002,5.498,1.09   C5.409,1.178,4.986,1.196,4.986,1.196s0.265-0.828,0.37-1.303c0.105-0.476,0.018-1.145-0.071-1.25   C5.197-1.463,4.424-1.48,4.424-1.48L3.855-1.468c-0.094-0.135-0.25-0.224-0.428-0.224c-0.152,0-0.29,0.066-0.386,0.172   C2.963-1.704,2.778-1.833,2.565-1.833c-0.247,0-0.454,0.172-0.506,0.404L2.011-1.428l-3.79-0.013   C-1.87-1.592-2.035-1.692-2.224-1.692c-0.187,0-0.351,0.099-0.442,0.248h-0.023C-2.747-1.668-2.95-1.833-3.192-1.833   c-0.163,0-0.31,0.076-0.404,0.194c-0.096-0.118-0.241-0.194-0.405-0.194c-0.24,0-0.443,0.164-0.502,0.387   C-5.63-1.445-5.719-1.252-5.719-1.252z" fill="#FFFFFF"/>
	</g></svg>