<?xml version="1.0" standalone="no"?>
<svg xmlns="http://www.w3.org/2000/svg" viewBox="-6.37 -6.37 12.74 12.74" color="#212121" width="75" height="75"><g transform="matrix(1 0 0 -1 0 0)">
		<g xmlns="http://www.w3.org/2000/svg">
			<circle class="primary" fill="currentColor" cx="0" cy="0" r="6.245"/>
			<path class="secondary" d="M0,6.12c3.38,0,6.12-2.74,6.12-6.12S3.38-6.12,0-6.12S-6.12-3.38-6.12,0S-3.38,6.12,0,6.12 M0,6.37    c-3.513,0-6.37-2.857-6.37-6.37S-3.513-6.37,0-6.37S6.37-3.513,6.37,0S3.513,6.37,0,6.37L0,6.37z" fill="#FFFFFF"/>
		</g>
		<path xmlns="http://www.w3.org/2000/svg" id="Tractor_2_" class="secondary" d="M5.434-0.428c-0.369,0.387-0.859,0.45-1.34,0.238c0.009,0.157,0.007,0.314,0.009,0.473   C4.104,0.4,4.232,0.375,4.307,0.45C4.372,0.515,4.39,0.655,4.414,0.741C4.472,0.953,4.525,1.166,4.576,1.38   c0.03,0.132,0.188,0.523,0.129,0.672c-0.042,0.104-0.656,0.171-0.762,0.18C3.597,2.258,3.262,2.318,2.912,2.33   C2.598,2.34,2.283,2.325,1.968,2.325C1.645,2.324,1.322,2.323,0.999,2.288C0.935,2.281,0.816,2.386,0.764,2.42   c-0.169,0.104-0.31,0.142-0.505,0.169c0.049,0.16,0.098,0.435-0.101,0.516c-0.252,0.104-0.516-0.15-0.647-0.337   C-0.623,2.577-0.77,2.308-0.72,2.065c0.064-0.322,0.436-0.196,0.609-0.057c0.046-0.253,0.278-0.406,0.374-0.632   c0.021-0.05,0.041-0.377,0.01-0.4c-0.041-0.031-0.17,0-0.127,0.058c0.104,0.14-0.11,0.113-0.188,0.14   C-0.14,1.208-0.107,1.316-0.245,1.316c-0.04,0.006-0.238-0.054-0.235-0.058c-0.071,0.094,0.062,0.109-0.135,0.136   C-0.763,1.416-0.659,1.411-0.72,1.519C-0.81,1.68-1.104,1.392-1.08,1.664c0.019,0.205,0.344,0.053,0.239,0.338   c-0.032,0.083-0.505,0.022-0.586,0.021c-0.107-0.001-0.157,0.225-0.187,0.312C-1.704,2.61-1.91,2.634-2.191,2.6   C-2.477,2.566-2.267,1.546-2.23,1.34c-0.117-0.036-0.187-0.068-0.151,0.066c0.024,0.092-0.255,0.067-0.272,0.175   C-2.67,1.673-2.878,1.597-2.918,1.583C-2.975,1.562-2.92,1.671-2.961,1.689c-0.092,0.038-0.225,0.04-0.325,0.056   c-0.12,0.02-0.263-0.004-0.386-0.004c-0.133,0-0.488-0.01-0.569-0.137C-4.313,1.492-4.64,1.453-4.76,1.376   c-0.11-0.069-0.057-0.178-0.188-0.237c-0.16-0.073-0.334-0.172-0.326-0.366c0.001-0.03,0.037-0.106,0.014-0.12   C-5.353,0.6-5.445,0.528-5.51,0.442c-0.136-0.183,0.039-0.258-0.006-0.426C-5.55-0.112-5.821-0.241-5.684-0.41   c0.076-0.092,0.167-0.144,0.129-0.284c-0.032-0.122-0.207-0.279,0.002-0.373c0.042-0.019,0.19-0.206,0.199-0.258   c0.002-0.014-0.085-0.099-0.063-0.165c0.026-0.08,0.112-0.124,0.191-0.127c-0.059-0.111,0.21-0.242,0.192-0.266   c-0.128-0.161,0.273-0.16,0.27-0.148c0.007-0.032-0.082-0.073-0.044-0.114C-4.758-2.199-4.66-2.234-4.6-2.27   c0.122-0.074,0.256-0.117,0.372-0.163C-4.07-2.496-3.92-2.547-3.751-2.57c0.153-0.021,0.304,0.04,0.466,0.024   C-3.562-2.769-3.002-2.808-3.002-2.8c0-0.074-0.158-0.084-0.062-0.183C-3-3.048-2.922-3.105-2.848-3.159   c0.037-0.026-0.023-0.098,0.081-0.157C-2.69-3.361-2.62-3.398-2.533-3.381c-0.101-0.182,0.625-0.402,0.768-0.435   c0.212-0.049,0.494-0.154,0.714-0.119c0.113,0.019,0.094,0.066,0.221,0.062c0.158-0.009,0.346-0.057,0.469,0.071   c0.133,0.139,0.132,0.185,0.315,0.212c0.218,0.033,0.304,0.056,0.394,0.257c0.061,0.139,0.077,0.181,0.238,0.229   c0.199,0.059,0.248,0.128,0.277,0.331c0.013,0.089-0.002,0.225,0.111,0.28c0.119,0.06,0.257,0.08,0.253,0.243   c-0.006,0.185-0.059,0.26,0.03,0.446C1.383-1.542,1.782-1.52,1.973-1.302c0.216,0.247,0.375,0.675,0.278,1.003   c0.132-0.034,0.306-0.034,0.427-0.094c0.066-0.034,0.009-0.055,0.095-0.079C2.83-0.488,2.849-0.482,2.897-0.51   c0.031-0.019,0.107,0.046,0.152,0.035c0.098-0.023,0.197-0.039,0.297-0.061C3.44-0.556,3.571-0.642,3.65-0.64   C3.207-1.432,3.473-2.662,4.549-2.644C5.527-2.628,6.105-1.132,5.434-0.428" fill="#FFFFFF"/>
	</g></svg>