<?xml version="1.0" standalone="no"?>
<svg xmlns="http://www.w3.org/2000/svg" viewBox="-6.37 -6.37 12.74 12.74" color="#212121" width="75" height="75"><g transform="matrix(1 0 0 -1 0 0)">
		<g xmlns="http://www.w3.org/2000/svg">
			<circle class="primary" fill="currentColor" cx="0" cy="0" r="6.245"/>
			<path class="secondary" d="M0,6.12c3.38,0,6.12-2.74,6.12-6.12S3.38-6.12,0-6.12S-6.12-3.38-6.12,0S-3.38,6.12,0,6.12 M0,6.37    c-3.513,0-6.37-2.857-6.37-6.37S-3.513-6.37,0-6.37S6.37-3.513,6.37,0S3.513,6.37,0,6.37L0,6.37z" fill="#FFFFFF"/>
		</g>
		<path xmlns="http://www.w3.org/2000/svg" id="Tractor-Trailer_2_" class="secondary" d="M-5.66-0.925l0.003,2.556L2.882,1.63c0,0,0.189,0.017,0.19-0.135L3.07-0.652   L2.749-0.65L2.698-0.727h0.758C3.319-0.642,3.148-0.38,3.153-0.299l0.072-0.01C3.233-0.317,3.238-0.332,3.25-0.335   C3.3-0.402,3.375-0.459,3.458-0.477c0.015,0.002,0.029,0.004,0.037,0.021c-0.003,0.01-0.003,0.028-0.017,0.032   c0.002,0.011-0.01,0.019-0.004,0.03l0.013,0.598l0.006,0.172l0.013,0.007C3.513,0.417,3.567,0.42,3.567,0.454L3.59,1.143   C3.594,1.27,3.6,1.403,3.6,1.527c0.006,0.008,0.016,0.014,0.012,0.027c0.025,0.014,0.001,0.008,0.062-0.006   c0-0.069-0.003-0.147-0.005-0.213L3.653,0.728c0.001-0.096-0.008-0.199-0.008-0.292C3.653,0.431,3.663,0.422,3.674,0.42   l0.035,0.067c0.037,0.077,0.116,0.107,0.185,0.136c0.2,0.051,0.406,0.085,0.613,0.115L4.504,0.742   c0.009,0.016-0.003,0.05,0.025,0.048C4.526,0.812,4.544,0.83,4.546,0.849c0.005,0.01,0.018,0.004,0.027,0.005   c0.016-0.011,0.015-0.03,0.023-0.045c0.086,0.003,0.176,0,0.256,0.006c0.041-0.008,0.067,0.029,0.09,0.058   C4.954,0.878,4.978,0.879,4.981,0.86C5.003,0.825,4.998,0.769,4.97,0.734c0.06-0.012,0.127-0.016,0.189-0.027   c0.014-0.004,0.036,0.007,0.048,0c0,0,0.041-0.036,0.076-0.03c0.019-0.011,0.015-0.032,0.019-0.049   c0.104-0.189,0.189-0.385,0.296-0.57c0.01,0.022,0.033,0.041,0.058,0.038C5.67,0.088,5.685,0.072,5.685,0.053   C5.682,0.033,5.691-0.002,5.66-0.002c-0.017-0.001-0.029,0-0.044,0.009c-0.008-0.018,0.02-0.045,0.003-0.058   c0.013-0.007-0.01-0.016,0.003-0.023c0.003-0.075,0.012-0.147,0.013-0.222C5.627-0.325,5.66-0.317,5.673-0.332   c0.024-0.027,0.01-0.071,0.012-0.104C5.676-0.452,5.66-0.457,5.644-0.459C5.652-0.597,5.666-0.74,5.675-0.875l0.01-0.009   c0.012-0.013,0.01-0.034-0.003-0.047l0.016-0.201L5.693-1.138C5.651-1.143,5.612-1.145,5.57-1.144L5.558-1.149   C5.562-1.192,5.559-1.239,5.55-1.28C5.516-1.411,5.417-1.538,5.281-1.576c-0.146-0.048-0.308-0.003-0.41,0.104   c-0.066-0.058-0.144-0.1-0.232-0.104c-0.142-0.01-0.284,0.066-0.35,0.189C4.068-1.37,3.849-1.364,3.63-1.347   C3.601-1.35,3.605-1.317,3.591-1.301C3.576-1.288,3.569-1.31,3.555-1.313C3.46-1.31,3.349-1.308,3.245-1.3   C3.163-1.301,3.077-1.287,3.003-1.292c-0.037,0.057-0.05,0.129-0.059,0.197C2.941-1.093,2.933-1.09,2.929-1.097   c0.013-0.1-0.012-0.198-0.062-0.28c-0.039-0.084-0.13-0.153-0.21-0.189c-0.14-0.068-0.343-0.038-0.459,0.067   C2.086-1.526,1.961-1.502,1.87-1.434C1.738-1.332,1.681-1.173,1.717-1.005C1.72-0.981,1.733-0.96,1.733-0.937   C1.68-0.926,1.624-0.92,1.568-0.912c0,0,0.009,0.063,0.042,0.123v0.012L1.56-0.776c0,0-0.004,0.005-0.006,0.013H1.516l-0.17-0.275   H1.263L1.246-1.053v-0.01v-0.022L1.241-1.132C1.296-1.15,1.328-1.198,1.323-1.256c-0.004-0.057-0.039-0.107-0.096-0.11   c-0.034-0.001-0.059,0.009-0.08,0.035c0,0-0.066,0.006-0.08,0.094L1.034-1.233C1.026-1.289,0.983-1.328,0.927-1.33   C0.863-1.332,0.813-1.276,0.812-1.211C0.811-1.167,0.826-1.136,0.861-1.11v0.012H0.845L0.831-1.085v0.052l-2.383,0.018l-0.066-0.15   L-1.666-1.16l0.02,0.073L-1.69-1.094l0.019,0.079l-0.247,0.002l-0.018-0.075h-0.157L-2.1-1.012L-2.412-1.01l-0.109-0.24h-0.103   l-0.09-0.162C-2.805-1.567-2.943-1.64-3.123-1.629c-0.158,0.01-0.266,0.075-0.35,0.211h-0.246c0,0-0.053-0.108-0.222-0.103   c-0.151-0.145-0.416-0.132-0.536-0.03c-0.137,0.116-0.211,0.349-0.12,0.529L-5.54-1.01v-0.048h-0.12v0.048l-0.036,0.036   L-5.66-0.925z" fill="#FFFFFF"/>
	</g></svg>