<?xml version="1.0" standalone="no"?>
<svg xmlns="http://www.w3.org/2000/svg" viewBox="-6.37 -6.37 12.74 12.74" color="#212121" width="75" height="75"><g transform="matrix(1 0 0 -1 0 0)">
		<g xmlns="http://www.w3.org/2000/svg">
			<path class="primary" fill="currentColor" d="M0-6.245c-3.444,0-6.245,2.802-6.245,6.246c0,3.443,2.802,6.244,6.245,6.244s6.245-2.801,6.245-6.244    C6.245-3.443,3.444-6.245,0-6.245z"/>
			<path class="secondary" d="M0,6.12c3.38,0,6.12-2.74,6.12-6.119C6.12-3.38,3.38-6.12,0-6.12s-6.12,2.74-6.12,6.121    C-6.12,3.38-3.38,6.12,0,6.12 M0,6.37c-3.513,0-6.37-2.857-6.37-6.369C-6.37-3.512-3.513-6.37,0-6.37s6.37,2.858,6.37,6.371    C6.37,3.513,3.513,6.37,0,6.37L0,6.37z" fill="#FFFFFF"/>
		</g>
		<g xmlns="http://www.w3.org/2000/svg">
			<path id="Transport_truck_1_" class="secondary" d="M5.692,1.885c-0.002,0.08-0.014,0.171-0.09,0.203    C5.549,2.11,5.485,2.101,5.431,2.099C5.33,2.098,5.229,2.096,5.128,2.095C5.039,2.093,4.959,2.041,4.87,2.048    C4.763,2.056,4.655,2.086,4.547,2.086c-0.148,0-0.297-0.006-0.443-0.008C3.879,2.074,3.656,2.07,3.431,2.065    c-0.078,0-0.151,0.004-0.229,0.024C3.065,2.127,2.924,2.117,2.784,2.112l0,0C2.714,2.108,2.649,2.094,2.58,2.073l0.001-0.001    C2.468,2.026,2.35,2.021,2.229,2.018C2.159,2.016,2.09,2.014,2.023,2.027C1.952,2.038,1.883,2.062,1.812,2.08    c-0.146,0.038-0.29,0.04-0.438,0.021C1.32,2.095,1.266,2.086,1.212,2.073C1.177,2.064,1.146,2.059,1.118,2.035    c-0.004,0.023-0.075-0.014-0.09-0.017C0.994,2.011,0.959,2.01,0.926,2.01C0.835,2.005,0.744,2.004,0.654,2.011    C0.584,2.017,0.518,2.047,0.45,2.066C0.379,2.088,0.307,2.095,0.233,2.095C0.15,2.096,0.062,2.092-0.02,2.07    c-0.075-0.02-0.145-0.039-0.225-0.035c-0.102,0.004-0.203,0.031-0.3,0.048c-0.04,0.007-0.081,0.003-0.121,0.003    C-0.767,2.084-0.752,2.082-0.851,2.08c-0.095-0.001-0.19-0.059-0.188-0.178C-1.033,1.49-1.028,1.08-1.023,0.667    C-1.047,0.68-1.055,0.681-1.068,0.708C-1.086,0.742-1.111,0.772-1.14,0.795c-0.064,0.051-0.148,0.064-0.226,0.051    C-1.367,0.935-1.368,1.024-1.37,1.114c0,0.055-0.001,0.11-0.002,0.165c0,0.012,0,0.023-0.001,0.035    c0,0.014-0.002,0.025-0.007,0.039c-0.003,0.005-0.028,0.031-0.028,0.034C-1.41,1.604-1.414,1.819-1.416,2.035    C-1.417,2.113-1.419,2.193-1.42,2.271c-0.002,0.089-0.081,0.145-0.151,0.11c-0.069-0.033-0.061-0.11-0.061-0.179    C-1.679,2.207-1.73,2.203-1.776,2.201C-1.8,2.2-1.82,2.183-1.843,2.182c-0.03-0.003-0.062-0.003-0.091-0.006    C-1.995,2.171-2.051,2.165-2.11,2.155c-0.098-0.016-0.029-0.04-0.125-0.069c-0.041-0.011-0.082-0.023-0.122-0.037    C-2.385,2.04-2.413,2.031-2.44,2.023C-2.454,2.02-2.48,2.022-2.473,2.002c-0.16-0.008-0.321-0.025-0.481-0.027    c-0.07-0.01-0.134-0.043-0.134-0.135c0-0.043,0.002-0.086,0.003-0.128C-3.14,1.75-3.214,1.731-3.244,1.666    c-0.021-0.045-0.012-0.1-0.01-0.147c0.002-0.062,0.006-0.127,0.008-0.19c-0.019,0.01-0.037-0.109-0.041-0.126    c-0.025-0.096-0.048-0.19-0.067-0.286c-0.003-0.021-0.029-0.012-0.047-0.012c-0.027-0.001-0.056-0.001-0.083-0.001    c-0.027-0.001-0.02-0.006-0.026,0.019c-0.007,0.034-0.032,0.062-0.063,0.062C-3.657,0.99-3.742,0.98-3.824,0.98    c0,0-0.023,0.043-0.027,0.048C-3.868,1.044-3.892,1.05-3.913,1.047c-0.033-0.006-0.056-0.032-0.075-0.056    c-0.02-0.02-0.039-0.041-0.061-0.061C-4.062,0.914-4.071,0.927-4.09,0.937l0.005-0.01c-0.007,0-0.013,0.001-0.019,0.001    c-0.103-0.002-0.207-0.005-0.312-0.006c-0.012,0-0.023-0.001-0.036-0.001c-0.018,0-0.033-0.007-0.046-0.021    C-4.504,0.893-4.5,0.894-4.507,0.894c-0.038-0.001-0.079-0.002-0.117-0.003C-4.895,0.886-5.2,0.919-5.434,0.734l0.006-0.011    c-0.015-0.009-0.045-0.045-0.06-0.03C-5.5,0.707-5.512,0.72-5.523,0.732c-0.029,0.03-0.059,0.062-0.089,0.094    C-5.619,0.833-5.625,0.84-5.631,0.848c-0.017,0.016-0.017,0.007-0.028-0.009c-0.021-0.025-0.04-0.05-0.062-0.076    c-0.017-0.02-0.016-0.018,0.004-0.034C-5.71,0.72-5.703,0.711-5.693,0.702c0.028-0.033,0.06-0.066,0.092-0.099    c0.009-0.01,0.018-0.019,0.027-0.028c0.002-0.004-0.029-0.064-0.033-0.072c-0.017-0.038-0.029-0.078-0.04-0.12l0,0    c-0.021-0.094-0.02-0.188-0.019-0.284c0.001-0.104,0.003-0.208,0.005-0.312c0.002-0.166,0.004-0.332,0.006-0.498    c-0.01,0.09-0.12,0.12-0.165,0.046c-0.018-0.029-0.09-0.031-0.119-0.039C-5.96-0.709-5.983-0.715-5.994-0.739    c-0.017-0.04,0.01-0.089,0.049-0.088c0.035,0,0.074,0.017,0.111,0.026c0.005-0.022-0.022-0.016-0.034-0.017    c0-0.073,0.001-0.148,0.002-0.223c0.001-0.045,0.002-0.09,0.002-0.136c0-0.034-0.003-0.071,0.013-0.102    c0.027-0.057,0.152-0.031,0.2-0.031c0.069,0.001,0.138,0.002,0.206,0.004c0,0.022,0.001,0.045-0.002,0.066    c0.044,0,0.087,0,0.129,0.002c0.029,0.001,0.058,0.001,0.086,0.002c0.023,0,0.027,0.007,0.029-0.02    c0.003-0.065,0.021-0.13,0.071-0.167c0.061-0.043,0.143-0.046,0.21-0.048c-0.128-0.401-0.001-0.861,0.308-1.11    c0.286-0.231,0.681-0.233,0.971-0.009c0.307,0.236,0.444,0.684,0.331,1.085c0.021,0,0.042,0.001,0.062,0.001    C-3.231-1.503-3.234-1.5-3.234-1.478c-0.001,0.009-0.001,0.02-0.001,0.03c0.023,0,0.045,0,0.068,0    c0.023,0.001,0.018-0.005,0.018-0.031c0.047,0.001,0.094,0.001,0.14,0.001c0.017,0.001,0.034,0.001,0.052,0.001    c0.016,0.001,0.009-0.046,0.009-0.062c0-0.087,0.048-0.166,0.132-0.158c0.081,0.008,0.11,0.088,0.109,0.17    c0.05-0.021,0.089,0.02,0.088,0.073c0,0.03,0,0.061,0,0.092c0.01,0,0.023,0.007,0.023-0.007c0-0.019,0-0.035,0.001-0.054    c0-0.043,0-0.085,0-0.129c0.002-0.058,0.004-0.116,0.004-0.175c0.062,0.001,0.124,0.002,0.186,0.003c0,0.014,0,0.027-0.001,0.042    l0.821,0.017c0-0.023-0.008-0.042,0.016-0.042c0.016,0,0.031,0.001,0.047,0.001c0.037,0,0.075,0.001,0.113,0.002    c0,0.059-0.002,0.116-0.002,0.176C-1.414-1.502-1.414-1.476-1.414-1.45c0,0.004,0.054,0.003,0.062,0.003    c0-0.061,0-0.123,0.001-0.184c0-0.039,0.002-0.078,0.002-0.114c0-0.009-0.004-0.051,0.001-0.055c0.002-0.005,0.044,0,0.051,0    c0.032,0.001,0.065,0.002,0.099,0.002c0.052,0.002,0.104,0.003,0.155,0.004c0-0.096,0.116-0.097,0.111-0.002    c0.214-0.033,0.316-0.032,0.53,0.01C-0.403-1.881-0.289-1.874-0.293-1.78c0.105,0.002,0.213,0.004,0.319,0.006    C0.025-1.689,0.023-1.603,0.021-1.518c0.022,0,0.173,0.009,0.173-0.002C0.198-1.607,0.2-1.696,0.204-1.783    c0.002-0.043,0.02-0.096,0.067-0.071C0.307-1.836,0.3-1.792,0.299-1.757c-0.004,0.081-0.006,0.163-0.01,0.244l0.183,0.002    C0.424-1.698,0.432-1.9,0.487-2.082c0.115-0.37,0.427-0.632,0.773-0.646c0.366-0.016,0.708,0.248,0.831,0.64    C2.129-2.116,2.159-2.101,2.199-2.1c0.044-0.009,0.088-0.013,0.135-0.012C2.372-2.11,2.41-2.106,2.447-2.1    c0.034,0.006,0.059-0.006,0.091,0.023c0.08-0.272,0.271-0.494,0.51-0.596C3.382-2.814,3.765-2.696,3.992-2.39    C4.24-2.054,4.258-1.558,4.031-1.204c0.128,0.003,0.256,0.005,0.384,0.007c0.014,0,0.062,0.007,0.062-0.004    c0-0.023,0-0.047,0-0.07C4.479-1.366,4.48-1.46,4.482-1.554c0-0.111,0.001-0.223,0.003-0.334C4.486-1.9,4.484-1.911,4.489-1.922    c0.019-0.037,0.085-0.037,0.103,0.001c0.01,0.022,0.002,0.062,0.002,0.085C4.592-1.622,4.59-1.408,4.587-1.194c0,0,0,0,0.002,0    C4.638-1.193,4.688-1.191,4.737-1.19c0.01,0,0.021,0,0.03,0c0.007,0,0.011-0.025,0.014-0.032c0.018-0.03,0.045-0.043,0.074-0.043    c0.04,0.001,0.102,0.017,0.136-0.003c0.037-0.023,0.07-0.07,0.103-0.1c0.072-0.073,0.19-0.015,0.189,0.097    C5.282-1.249,5.295-1.258,5.312-1.249c0.01,0.004,0.017,0.011,0.024,0.019c0.014,0.016,0.02,0.039,0.02,0.061    c0.002,0.013,0,0.026,0,0.04c0,0.066-0.002,0.132-0.004,0.198c0,0.056,0.006,0.124-0.052,0.146    c0.045,0.002,0.09,0.003,0.135,0.004c0.008,0,0.04-0.002,0.04,0.003c0,0.015,0,0.03-0.001,0.044    C5.473-0.638,5.471-0.542,5.469-0.446C5.53-0.448,5.565-0.361,5.574-0.303C5.58-0.265,5.578-0.226,5.578-0.187    C5.576-0.099,5.576-0.01,5.574,0.078c0.034,0.001,0.069,0.001,0.103,0.001c0.012,0,0.024,0.001,0.034,0.001    c0.007,0.001,0.003,0.024,0.003,0.031C5.712,0.188,5.711,0.266,5.711,0.344c-0.002,0.131-0.004,0.261-0.004,0.39    C5.701,1.119,5.695,1.502,5.692,1.885 M5.177-0.774L5.181-0.78L4.997-0.784C4.996-0.706,4.995-0.628,4.994-0.551    c0.022,0,0.029,0.004,0.041-0.016c0.017-0.024,0.034-0.048,0.051-0.074C5.115-0.685,5.146-0.73,5.177-0.774 M-3.212,0.907h-0.046    C-3.25,0.941-3.239,0.979-3.23,1.013c0.004-0.021,0.013-0.042,0.026-0.058C-3.19,0.941-3.204,0.925-3.212,0.907 M-3.075,0.911    L-3.098,0.91c0.009,0.013,0.01,0.021,0.022,0.026L-3.075,0.911" fill="#FFFFFF"/>
		</g>
	</g></svg>