<?xml version="1.0" standalone="no"?>
<svg xmlns="http://www.w3.org/2000/svg" viewBox="-6.37 -6.37 12.74 12.74" color="#212121" width="75" height="75"><g transform="matrix(1 0 0 -1 0 0)">
		<g xmlns="http://www.w3.org/2000/svg">
			<circle class="primary" fill="currentColor" cx="0" cy="0" r="6.245"/>
			<path class="secondary" d="M0,6.12c3.38,0,6.12-2.74,6.12-6.12S3.38-6.12,0-6.12S-6.12-3.38-6.12,0S-3.38,6.12,0,6.12 M0,6.37    c-3.513,0-6.37-2.857-6.37-6.37S-3.513-6.37,0-6.37S6.37-3.513,6.37,0S3.513,6.37,0,6.37L0,6.37z" fill="#FFFFFF"/>
		</g>
		<path xmlns="http://www.w3.org/2000/svg" id="Van_2_" class="secondary" d="M-5.515-0.948c0.122,0,0.072,0.058,0.072,0.058C-5.726,0.37-5.371,1.283-5.14,1.812   c0.233,0.529,0.682,0.485,0.682,0.485s4.209,0.058,5.499,0.058s1.681,0,2.108-0.239s1.833-1.434,2.057-1.651   c0.224-0.218,0.203-0.37,0.203-0.37L5.402-0.348c0,0,0.027-0.043,0.095-0.086c0.064-0.043,0.158-0.08,0.166-0.217   C5.67-0.79,5.591-0.854,5.591-0.854L5.308-1.39L3.787-1.441H3.708c0.014-0.053,0.019-0.107,0.019-0.164   c0-0.414-0.335-0.75-0.749-0.75c-0.415,0-0.75,0.336-0.75,0.75c0,0.051,0.006,0.102,0.015,0.151L2.12-1.456L1.981-1.462   c0,0-2.498,0-2.549,0S-0.69-1.586-0.756-1.601C-0.821-1.615-2.11-1.607-2.11-1.607l-0.355-0.181l-0.023,0.005   c-0.079-0.328-0.375-0.571-0.727-0.571c-0.416,0-0.75,0.336-0.75,0.75c0,0.055,0.007,0.109,0.018,0.162l-0.074,0.017L-4.992-1.41   c0,0,0,0-0.276,0c-0.274,0-0.306,0.079-0.369,0.231C-5.703-1.028-5.639-0.948-5.515-0.948z" fill="#FFFFFF"/>
	</g></svg>