<?xml version="1.0" standalone="no"?>
<svg xmlns="http://www.w3.org/2000/svg" viewBox="-6.37 -6.37 12.74 12.74" color="#212121" width="75" height="75"><g transform="matrix(1 0 0 -1 0 0)">
		<g xmlns="http://www.w3.org/2000/svg" id="Circle_6_">
			<path class="primary" fill="currentColor" d="M-0.001-6.245c-3.443,0-6.244,2.802-6.244,6.246c0,3.443,2.801,6.244,6.244,6.244    c3.444,0,6.246-2.801,6.246-6.244C6.245-3.443,3.443-6.245-0.001-6.245z"/>
			<path class="secondary" d="M-0.001,6.12c3.381,0,6.121-2.74,6.121-6.119c0-3.381-2.74-6.121-6.121-6.121    c-3.379,0-6.119,2.74-6.119,6.121C-6.12,3.38-3.38,6.12-0.001,6.12 M-0.001,6.37c-3.512,0-6.369-2.857-6.369-6.369    c0-3.513,2.857-6.371,6.369-6.371c3.513,0,6.371,2.858,6.371,6.371C6.37,3.513,3.512,6.37-0.001,6.37L-0.001,6.37z" fill="#FFFFFF"/>
		</g>
		<path xmlns="http://www.w3.org/2000/svg" class="secondary" d="M5.288,1.348h-0.26L4.874,2L4.295,2.048l-0.146,0.44H2.341L2.178,2.293H1.705L1.64,2.521H0.175L0.012,2.732   h0.635v0.294h-1.035l-0.09,0.114h-0.455l-0.18-0.195h-1.401V2.7h1.531l0.594-0.407l-0.037-0.257L-1.519,0.94h-0.376v0.521h-0.163   V0.908l-3.55-0.684v-0.848l0.194-0.194c-0.168-0.24-0.269-0.531-0.269-0.847c0-0.815,0.661-1.475,1.475-1.475   c0.765,0,1.393,0.582,1.467,1.327h0.65l0.537-0.163h3.511C2.1-2.64,2.691-3.139,3.4-3.139c0.813,0,1.474,0.659,1.474,1.475   c0,0.294-0.088,0.568-0.238,0.799L5.277,0.03h0.289L5.68,0.273L5.288,1.348z" fill="#FFFFFF"/>
	</g></svg>