<?xml version="1.0" standalone="no"?>
<svg xmlns="http://www.w3.org/2000/svg" viewBox="-6.37 -6.37 12.74 12.74" color="#212121" width="75" height="75"><g transform="matrix(1 0 0 -1 0 0)">
		<g xmlns="http://www.w3.org/2000/svg" id="Circle_3_">
			<path class="primary" fill="currentColor" d="M-0.001-6.245c-3.443,0-6.244,2.802-6.244,6.246c0,3.443,2.801,6.244,6.244,6.244    c3.444,0,6.246-2.801,6.246-6.244C6.245-3.443,3.443-6.245-0.001-6.245z"/>
			<path class="secondary" d="M-0.001,6.12c3.381,0,6.121-2.74,6.121-6.119c0-3.381-2.74-6.121-6.121-6.121    c-3.379,0-6.119,2.74-6.119,6.121C-6.12,3.38-3.38,6.12-0.001,6.12 M-0.001,6.37c-3.512,0-6.369-2.857-6.369-6.369    c0-3.513,2.857-6.371,6.369-6.371c3.513,0,6.371,2.858,6.371,6.371C6.37,3.513,3.512,6.37-0.001,6.37L-0.001,6.37z" fill="#FFFFFF"/>
		</g>
		<path xmlns="http://www.w3.org/2000/svg" class="secondary" d="M5.669-0.394c0,0,0.02-0.007,0.052-0.02C5.813-0.45,5.994-0.528,6.003-0.576c0.01-0.064,0-0.193,0-0.193   S5.895-0.866,5.745-0.985c-0.152-0.118-0.7-0.527-0.852-0.655c-0.15-0.13-0.73-0.442-1.075-0.442c-0.344,0-4.788,0-4.788,0   s-0.483-0.011-0.785,0.098c-0.302,0.107-1.367,0.462-1.377,0.817c-0.012,0.354,0.258,0.592,0.709,0.636   c0.452,0.042,0.55,0.171,0.626,0.247C-1.723-0.209-1.604-0.09-1.433-0.09c0.173,0,0.474,0,0.474,0l-0.183,0.16h-4.864v0.323   L-0.872,0.5c0,0,0.431,0.247,0.709,0.279C0.117,0.811,0.805,0.93,0.805,0.93l-0.03,0.387H0.001v0.161h0.697v0.173h0.634v-0.43H1.87   v-0.29h0.518v1.151V0.931l0.743-0.237V0.178h1.225C4.355,0.178,5.647-0.232,5.669-0.394z" fill="#FFFFFF"/>
	</g></svg>