<?xml version="1.0" standalone="no"?>
<svg xmlns="http://www.w3.org/2000/svg" viewBox="-6.37 -6.37 12.74 12.74" color="#212121" width="75" height="75"><g transform="matrix(1 0 0 -1 0 0)">
		<g xmlns="http://www.w3.org/2000/svg">
			<path class="primary" fill="currentColor" d="M-0.001-6.245c-3.443,0-6.244,2.802-6.244,6.245s2.801,6.245,6.244,6.245c3.444,0,6.246-2.802,6.246-6.245    S3.443-6.245-0.001-6.245z"/>
			<path class="secondary" d="M-0.001,6.12C3.38,6.12,6.12,3.38,6.12,0S3.38-6.12-0.001-6.12C-3.38-6.12-6.12-3.38-6.12,0    S-3.38,6.12-0.001,6.12 M-0.001,6.37C-3.513,6.37-6.37,3.513-6.37,0s2.857-6.37,6.369-6.37C3.512-6.37,6.37-3.513,6.37,0    S3.512,6.37-0.001,6.37L-0.001,6.37z" fill="#FFFFFF"/>
		</g>
		<path xmlns="http://www.w3.org/2000/svg" id="Work_Van_1_" class="secondary" d="M5.425-1.433H5.423C5.45-1.341,5.451-1.249,5.439-1.157L5.438-1.156H5.44L5.424-1.152   l-0.14,0.049H5.278c0,0.004,0.001,0.008,0.002,0.014h0.01c0.024,0.138,0.031,0.277-0.016,0.425L5.259-0.65L5.224-0.609   c-0.014,0.18-0.26,0.475-0.891,0.866L4.325,0.302c-0.027,0.03-0.1,0.05-0.177,0.067L4.106,0.397L4.104,0.396   C4.08,0.417,4.059,0.438,4.036,0.459C4.016,0.48,3.995,0.5,3.974,0.521l0.011,0.001h0.039L4.007,0.563L3.961,0.575L3.923,0.567   C3.686,0.791,3.432,1,3.165,1.211C3.11,1.255,3.054,1.299,2.997,1.343C2.898,1.421,2.798,1.501,2.696,1.582   C2.415,1.818,1.895,2.321,1.428,2.398C1.412,2.4,1.396,2.404,1.379,2.405C1.361,2.409,1.352,2.411,1.352,2.411V2.407   c-0.013,0.001-0.026,0.002-0.04,0.002H-4.93l0,0c-0.12-0.001-0.197-0.025-0.248-0.088C-5.18,2.318-5.183,2.314-5.186,2.31   c-0.033-0.046-0.053-0.107-0.066-0.19c-0.002-0.007-0.003-0.015-0.004-0.022c-0.006-0.037-0.012-0.073-0.019-0.109   c0-0.012-0.003-0.024-0.004-0.036c-0.004-0.025-0.007-0.05-0.01-0.074C-5.29,1.864-5.293,1.851-5.295,1.837   c-0.003-0.022-0.006-0.046-0.009-0.069C-5.306,1.754-5.306,1.74-5.31,1.727c-0.003-0.025-0.005-0.049-0.008-0.074   c-0.001-0.012-0.004-0.024-0.004-0.037c-0.004-0.032-0.007-0.064-0.01-0.096c-0.001-0.004-0.001-0.008-0.001-0.011   c-0.006-0.038-0.009-0.074-0.013-0.111c-0.001-0.01-0.002-0.02-0.002-0.029C-5.35,1.341-5.353,1.314-5.356,1.287   c0-0.012-0.002-0.024-0.002-0.036c-0.002-0.025-0.004-0.05-0.007-0.075c0-0.012-0.001-0.024-0.003-0.037   c-0.002-0.026-0.004-0.053-0.007-0.08c0-0.009,0-0.019-0.001-0.03C-5.379,0.995-5.381,0.96-5.384,0.925c0-0.001,0-0.002,0-0.004   C-5.386,0.883-5.388,0.845-5.39,0.806C-5.391,0.803-5.391,0.8-5.391,0.797c-0.002-0.034-0.004-0.068-0.006-0.101   c0-0.008,0-0.016,0-0.024c-0.001-0.029-0.003-0.06-0.006-0.09c0-0.007-0.001-0.016-0.001-0.023   c-0.001-0.032-0.002-0.063-0.003-0.096c0-0.004-0.001-0.009-0.001-0.015c-0.018-0.455-0.021-0.905-0.023-1.346   c0-0.022-0.002-0.043-0.002-0.064c0-0.02,0-0.039-0.001-0.057h-0.013l0,0v-0.226l0,0h0.141c0.004-0.028,0.01-0.053,0.019-0.076   c0-0.005,0-0.008,0-0.014c0-0.025-0.003-0.022,0.007-0.046c0.053-0.12,0.185-0.167,0.303-0.164c0.013,0,0.023,0.004,0.031,0.013   l0.926-0.083l0.788-0.111c0.007-0.38,0.317-0.687,0.698-0.687c0.346,0,0.631,0.25,0.689,0.578l0.396,0.112v0.001h0.107   c0.006-0.002,0.013-0.003,0.013-0.003c0.014-0.002,0.023-0.004,0.031-0.004l0,0l0,0c0.783,0,1.565,0,2.348,0l0.028-0.135h0.493   L1.7-2.009l0.449-0.006l0.318,0.093L2.7-1.881c0.076-0.305,0.352-0.531,0.68-0.531c0.377,0,0.685,0.3,0.698,0.674L4.61-1.72v0.008   l0.763-0.004C5.504-1.631,5.264-1.622,5.3-1.483L5.425-1.433z" fill="#FFFFFF"/>
	</g></svg>