<?xml version="1.0" standalone="no"?>
<svg xmlns="http://www.w3.org/2000/svg" viewBox="-6.37 -6.37 12.74 12.74" color="#212121" width="75" height="75"><g transform="matrix(1 0 0 -1 0 0)">
		<g xmlns="http://www.w3.org/2000/svg">
			<path class="primary" fill="currentColor" d="M-0.001-6.245c-3.443,0-6.244,2.802-6.244,6.245s2.801,6.245,6.244,6.245c3.444,0,6.246-2.802,6.246-6.245    S3.443-6.245-0.001-6.245z"/>
			<path class="secondary" d="M-0.001,6.12C3.38,6.12,6.12,3.38,6.12,0S3.38-6.12-0.001-6.12C-3.38-6.12-6.12-3.38-6.12,0    S-3.38,6.12-0.001,6.12 M-0.001,6.37C-3.513,6.37-6.37,3.513-6.37,0s2.857-6.37,6.369-6.37C3.512-6.37,6.37-3.513,6.37,0    S3.512,6.37-0.001,6.37L-0.001,6.37z" fill="#FFFFFF"/>
		</g>
		<path xmlns="http://www.w3.org/2000/svg" id="Air_to_Air_2_" class="secondary" d="M1.04-5.355C0.98-5.449,0.374-5.364,0.348-5.359c0.007-0.003,0.041-0.02-0.018-0.183   C0.267-5.719,0.021-5.687,0.021-5.687L0.005-5.842L0.001-5.89l-0.004,0.047l-0.018,0.156c0,0-0.244-0.032-0.308,0.145   c-0.059,0.163-0.024,0.18-0.018,0.183c-0.026-0.005-0.634-0.09-0.692,0.004C-1.095-5.26-1.083-5.164-1.083-5.093   s0.426,0.714,0.516,0.763c0.088,0.051,0.236,0.004,0.236,0.004l0.006,0.046L-0.4-4.283l0.008,0.324l0.058,0.028l-0.009,1.83   c0,0-0.083-0.018-0.13-0.028c-0.046-0.01-0.074,0.153-0.018,0.173c0.055,0.021,0.139,0.069,0.139,0.069l0.014,1.02   c0,0-0.492-0.06-0.52,0.013c-0.029,0.073,0.402,0.794,0.451,0.95c0.047,0.156-0.02,4.209,0.045,4.613   c0.065,0.4,0.273,1.155,0.366,1.18c0,0,0.001,0.001,0.003,0.001l0,0c0,0,0,0,0-0.001c0.094-0.023,0.292-0.779,0.355-1.18   C0.429,4.305,0.36,0.252,0.409,0.096s0.479-0.877,0.452-0.95C0.833-0.927,0.341-0.867,0.341-0.867l0.014-1.02   c0,0,0.084-0.049,0.14-0.069c0.056-0.02,0.027-0.183-0.02-0.173C0.429-2.118,0.346-2.101,0.346-2.101l-0.009-1.83l0.058-0.028   l0.007-0.324L0.325-4.28l0.008-0.046c0,0,0.148,0.047,0.236-0.004c0.088-0.049,0.516-0.691,0.516-0.763S1.097-5.26,1.04-5.355z" fill="#FFFFFF"/>
	</g></svg>