<?xml version="1.0" standalone="no"?>
<svg xmlns="http://www.w3.org/2000/svg" viewBox="-6.37 -6.37 12.74 12.74" color="#212121" width="75" height="75"><g transform="matrix(1 0 0 -1 0 0)">
		<g xmlns="http://www.w3.org/2000/svg">
			<path class="primary" fill="currentColor" d="M-0.001-6.245c-3.443,0-6.244,2.802-6.244,6.245s2.801,6.245,6.244,6.245c3.444,0,6.246-2.802,6.246-6.245    S3.443-6.245-0.001-6.245z"/>
			<path class="secondary" d="M-0.001,6.12C3.38,6.12,6.12,3.38,6.12,0S3.38-6.12-0.001-6.12C-3.38-6.12-6.12-3.38-6.12,0    S-3.38,6.12-0.001,6.12 M-0.001,6.37C-3.513,6.37-6.37,3.513-6.37,0s2.857-6.37,6.369-6.37C3.512-6.37,6.37-3.513,6.37,0    S3.512,6.37-0.001,6.37L-0.001,6.37z" fill="#FFFFFF"/>
		</g>
		<path xmlns="http://www.w3.org/2000/svg" class="secondary" d="M5.694,0.767L5.123,0.768l-0.09-0.029L4.104,0.74c0,0-0.097,0.607-0.071,0.693c0,0-0.131,0.145-0.243-0.002   C3.678,1.285,3.419,0.929,3.419,0.929l-0.04,0.023l-3.422,0.057c0,0-0.1-0.056-0.238-0.041l-0.051-0.077   c0,0-0.062,0.091-0.017,0.27c0,0,0.005,0.255-0.353,0.265C-1.059,1.435-1.89,1.553-1.89,1.553s-0.274,0.096-0.401-0.121   C-2.418,1.213-2.526,1.04-2.526,1.04l-0.138,0.006l-0.033-0.132c0,0-0.002,0-0.004,0c-0.096,0.002-2.802,0.038-2.85,0.051   C-5.6,0.977-5.766,0.881-5.754,0.614c0.01-0.266,0.109-0.966,0.109-0.966s0.009-0.312,0.319-0.18   c0.311,0.135,2.058,0.707,2.058,0.707l0.488,0.096c0,0,0.364-0.033,0.262-0.36l-0.518-0.789l0.57-0.166l0.049,0.096l-0.015,0.036   l0.318,0.626l0.777,0.007c0,0,0.155-1.166,0.312-1.296l0.732,0.184c0,0-0.374,1.087-0.26,1.256l0.059,0.012l-0.019,0.48l0.09-0.012   L-0.354,0.4l0.052-0.031h0.183l0.037-0.037l3.47,0.039l0.036,0.164l0.438,0.01l1.167,0.004c0,0-0.127-0.076,0.692-0.026   C5.722,0.522,5.811,0.711,5.694,0.767z M-1.475-0.219c-0.014-0.001-0.134-0.01-0.145-0.009c-0.01,0.004-0.195-0.025-0.256,0.007   c-0.062,0.033-0.097,0.15-0.091,0.217c0.008,0.067,0.129,0.086,0.129,0.086c-0.044-0.205,0.075-0.275,0.075-0.275l0.042-0.002   c-0.105,0.123,0.05,0.296,0.05,0.296s0.046-0.003,0.143-0.011C-1.432,0.082-1.4,0.012-1.391-0.055   C-1.382-0.121-1.461-0.216-1.475-0.219z M-0.672,1.043c-0.23,0.008-1.317,0.006-1.317,0.006s-0.147-0.032-0.05,0.117   c0.098,0.15,0.05,0.104,0.05,0.104s0.028,0.061,0.187,0.055c0.16-0.006,1.231,0.014,1.231,0.014s0.083-0.01,0.128-0.118   C-0.443,1.22-0.441,1.035-0.672,1.043z M3.913,0.881L3.913,0.881c-0.019,0.002-0.066,0.003-0.19,0.006   C3.454,0.894,3.531,0.954,3.531,0.954l0.225,0.269C3.781,1.263,3.86,1.208,3.86,1.208l0.038-0.109c0,0,0.033-0.03,0.047-0.049   C3.961,1.031,3.915,0.888,3.913,0.881C3.935,0.881,3.913,0.881,3.913,0.881z" fill="#FFFFFF"/>
	</g></svg>