<?xml version="1.0" standalone="no"?>
<svg xmlns="http://www.w3.org/2000/svg" viewBox="-6.12 -6.12 12.24 12.24" color="#212121" width="75" height="75"><g transform="matrix(1 0 0 -1 0 0)">
		<circle xmlns="http://www.w3.org/2000/svg" class="primary" fill="currentColor" cx="-0.041" cy="0" r="5.808"/>
		<path xmlns="http://www.w3.org/2000/svg" class="secondary" d="M0-6.12c-3.374,0-6.12,2.746-6.12,6.12S-3.374,6.12,0,6.12S6.12,3.374,6.12,0S3.374-6.12,0-6.12L0-6.12z    M0,5.424C-2.99,5.424-5.424,2.99-5.424,0S-2.99-5.424,0-5.424S5.424-2.99,5.424,0S2.99,5.424,0,5.424L0,5.424z" fill="#FFFFFF"/>
		<g xmlns="http://www.w3.org/2000/svg">
			<polygon class="secondary" points="-3.442,0.035 -3.355,0.08 -3.267,0.12 -3.175,0.155 -3.081,0.187 -2.985,0.215 -2.89,0.238     -2.79,0.256 -2.688,0.27 -2.588,0.276 -2.482,0.278 -2.418,0.278 -2.355,0.275 -2.292,0.271 -2.231,0.264 -2.169,0.254     -2.108,0.243 -2.047,0.231 -1.986,0.218 -1.946,0.206 -1.908,0.195 -1.87,0.185 -1.833,0.171 -1.796,0.156 -1.757,0.143     -1.743,0.138 -1.699,0.12 -1.644,0.096 -1.591,0.069 -1.536,0.041 -1.509,0.027 -1.505,0.024 -1.47,0.005 -1.435,-0.016     -1.401,-0.037 -1.385,-0.048 -1.381,-0.049 -1.333,-0.085 -1.283,-0.116 -1.262,-0.133 -1.239,-0.151 -1.208,-0.176 -1.18,-0.2     -1.169,-0.207 -1.145,-0.229 -1.142,-0.231 -1.119,-0.253 -1.09,-0.278 -1.069,-0.298 -1.06,-0.308 -1.032,-0.336 -1.007,-0.364     -0.979,-0.393 -0.952,-0.422 -0.929,-0.453 -0.927,-0.453 -0.899,-0.486 -0.864,-0.535 -0.826,-0.583 -0.476,-0.34 -0.482,-0.328     -0.486,-0.315 -0.491,-0.302 -0.495,-0.288 -0.499,-0.275 -0.503,-0.261 -0.506,-0.247 -0.509,-0.233 -0.512,-0.221     -0.516,-0.204 -0.517,-0.193 -0.517,-0.179 -0.521,-0.168 -0.521,-0.152 -0.521,-0.138 -0.521,-0.123 -0.521,-0.122 -0.521,-0.12     -0.521,-0.118 -0.521,-0.1 -0.521,-0.074 -0.517,-0.049 -0.512,-0.026 -0.508,-0.002 -0.502,0.021 -0.495,0.045 -0.486,0.068     -0.479,0.089 -0.469,0.112 -0.458,0.132 -0.448,0.154 -0.435,0.175 -0.422,0.192 -0.407,0.212 -0.394,0.23 -0.377,0.248     -0.361,0.265 -0.347,0.281 -0.33,0.299 -0.311,0.312 -0.293,0.328 -0.272,0.341 -0.255,0.353 -0.233,0.365 -0.222,0.372     -0.21,0.378 -0.19,0.388 -0.174,0.394 -0.168,0.396 -0.146,0.403 -0.139,0.406 -0.137,0.407 -0.125,0.412 -0.109,0.418     -0.098,0.419 -0.078,0.424 -0.078,0.551 -0.078,0.715 -0.078,0.789 -0.178,0.797 -0.271,0.806 -0.311,0.813 -0.355,0.82     -0.376,0.823 -0.469,0.844 -0.527,0.858 -0.546,0.864 -0.593,0.878 -0.604,0.881 -0.656,0.897 -0.683,0.908 -0.695,0.912     -0.749,0.932 -0.837,0.971 -0.912,1.005 -0.942,1.022 -0.983,1.044 -1.024,1.067 -1.062,1.09 -1.065,1.092 -1.104,1.116     -1.165,1.159 -1.203,1.188 -1.216,1.198 -1.236,1.211 -1.243,1.217 -1.301,1.264 -1.319,1.279 -1.387,1.34 -1.452,1.404     -1.52,1.476 -1.578,1.549 -1.637,1.622 -1.689,1.701 -1.739,1.783 -1.787,1.867 -1.829,1.951 -1.87,2.039 -1.904,2.13     -1.934,2.221 -1.961,2.312 -1.983,2.41 -1.999,2.508 -2.013,2.604 -2.018,2.705 -2.021,2.806 -2.02,2.899 -2.014,2.991     -2.005,3.083 -1.99,3.174 -1.969,3.26 -1.946,3.349 -1.921,3.433 -1.893,3.516 -1.858,3.599 -1.821,3.68 -1.781,3.758     -1.739,3.835 -1.69,3.909 -1.643,3.98 -1.591,4.053 -1.534,4.118 -1.476,4.185 -1.415,4.246 -1.352,4.307 -1.286,4.363     -1.216,4.418 -1.148,4.466 -1.074,4.517 -0.998,4.561 -0.921,4.604 -0.843,4.642 -0.761,4.676 -0.678,4.707 -0.594,4.736     -0.508,4.763 -0.42,4.781 -0.33,4.799 -0.33,4.975 -0.46,4.956 -0.587,4.932 -0.713,4.904 -0.837,4.867 -0.955,4.826     -1.074,4.778 -1.19,4.728 -1.302,4.672 -1.412,4.611 -1.521,4.545 -1.622,4.475 -1.725,4.399 -1.821,4.318 -1.913,4.235     -2.005,4.148 -2.087,4.057 -2.169,3.964 -2.247,3.863 -2.319,3.763 -2.387,3.658 -2.451,3.549 -2.51,3.438 -2.563,3.322     -2.613,3.207 -2.656,3.086 -2.694,2.965 -2.728,2.842 -2.753,2.714 -2.776,2.587 -2.791,2.455 -2.801,2.323 -2.805,2.191     -2.802,2.119 -2.799,2.048 -2.796,1.978 -2.79,1.907 -2.782,1.836 -2.771,1.767 -2.759,1.697 -2.746,1.63 -2.732,1.562     -2.716,1.493 -2.697,1.429 -2.693,1.415 -2.718,1.409 -2.85,1.372 -2.979,1.327 -3.106,1.276 -3.231,1.22 -3.353,1.159     -3.47,1.091 -3.583,1.02 -3.693,0.94 -3.799,0.855 -3.902,0.769 -3.999,0.676 -4.091,0.576 -4.182,0.477 -4.265,0.37     -4.341,0.261 -4.413,0.146 -4.483,0.027 -4.545,-0.093 -4.601,-0.216 -4.651,-0.342 -4.695,-0.471 -4.732,-0.605 -4.765,-0.741     -4.788,-0.877 -4.808,-1.02 -4.818,-1.159 -4.82,-1.304 -4.82,-1.371 -4.82,-1.433 -4.815,-1.494 -4.81,-1.558 -4.805,-1.622     -4.796,-1.685 -4.787,-1.746 -4.774,-1.809 -4.765,-1.869 -4.75,-1.929 -4.736,-1.99 -4.72,-2.051 -4.703,-2.11 -4.685,-2.168     -4.666,-2.228 -4.645,-2.284 -4.622,-2.342 -4.598,-2.396 -4.574,-2.451 -4.551,-2.51 -4.521,-2.562 -4.494,-2.614 -4.464,-2.669     -4.436,-2.722 -4.405,-2.773 -4.371,-2.824 -4.337,-2.872 -4.303,-2.923 -4.269,-2.972 -4.233,-3.021 -4.196,-3.065     -4.158,-3.114 -4.05,-3.005 -4.076,-2.974 -4.103,-2.941 -4.127,-2.906 -4.15,-2.871 -4.175,-2.836 -4.197,-2.802 -4.217,-2.766     -4.239,-2.729 -4.257,-2.692 -4.28,-2.654 -4.298,-2.619 -4.316,-2.578 -4.333,-2.54 -4.351,-2.5 -4.367,-2.462 -4.381,-2.421     -4.396,-2.38 -4.409,-2.342 -4.42,-2.3 -4.431,-2.258 -4.442,-2.217 -4.453,-2.175 -4.462,-2.132 -4.471,-2.089 -4.477,-2.047     -4.483,-2.004 -4.487,-1.959 -4.493,-1.915 -4.495,-1.873 -4.498,-1.827 -4.501,-1.781 -4.501,-1.739 -4.498,-1.634     -4.489,-1.533 -4.477,-1.432 -4.46,-1.331 -4.438,-1.232 -4.409,-1.139 -4.378,-1.044 -4.341,-0.952 -4.303,-0.866 -4.255,-0.777     -4.208,-0.692 -4.154,-0.612 -4.099,-0.531 -4.038,-0.455 -3.975,-0.382 -3.907,-0.313 -3.84,-0.245 -3.767,-0.182 -3.69,-0.123     -3.609,-0.066 -3.526,-0.013   " fill="#FFFFFF"/>
			<polygon class="secondary" points="3.999,-3.116 3.963,-3.15 3.927,-3.188 3.888,-3.222 3.85,-3.256 3.809,-3.287 3.77,-3.318     3.729,-3.35 3.688,-3.381 3.644,-3.41 3.601,-3.436 3.556,-3.462 3.51,-3.488 3.468,-3.513 3.419,-3.534 3.373,-3.556     3.325,-3.578 3.278,-3.597 3.228,-3.615 3.179,-3.633 3.128,-3.649 3.078,-3.662 3.027,-3.676 2.978,-3.689 2.924,-3.697     2.872,-3.71 2.816,-3.717 2.766,-3.724 2.712,-3.727 2.657,-3.731 2.603,-3.734 2.548,-3.735 2.443,-3.731 2.343,-3.724     2.242,-3.712 2.142,-3.691 2.138,-3.691 2.043,-3.67 1.949,-3.642 1.854,-3.611 1.764,-3.574 1.675,-3.533 1.587,-3.49     1.501,-3.442 1.419,-3.388 1.342,-3.333 1.266,-3.272 1.19,-3.208 1.122,-3.141 1.054,-3.071 0.991,-2.998 0.931,-2.921     0.874,-2.843 0.821,-2.762 0.773,-2.678 0.729,-2.59 0.688,-2.5 0.652,-2.407 0.619,-2.315 0.61,-2.276 0.61,-2.276 0.606,-2.266     0.594,-2.22 0.571,-2.121 0.554,-2.021 0.542,-1.935 0.542,-1.933 0.538,-1.896 0.535,-1.862 0.533,-1.824 0.531,-1.788     0.531,-1.771 0.528,-1.715 0.528,-1.685 0.528,-1.682 0.528,-1.655 0.531,-1.626 0.533,-1.594 0.535,-1.564 0.535,-1.557     0.537,-1.55 0.537,-1.541 0.538,-1.534 0.538,-1.534 0.539,-1.518 0.542,-1.485 0.546,-1.452 0.552,-1.421 0.555,-1.388     0.561,-1.361 0.563,-1.347 0.567,-1.326 0.574,-1.291 0.581,-1.262 0.589,-1.229 0.596,-1.199 0.604,-1.173 0.606,-1.164     0.607,-1.158 0.614,-1.139 0.621,-1.108 0.633,-1.08 0.636,-1.069 0.644,-1.048 0.654,-1.02 0.665,-0.992 0.673,-0.975     0.682,-0.947 0.693,-0.92 0.704,-0.895 0.707,-0.888 0.716,-0.868 0.729,-0.844 0.738,-0.822 0.741,-0.815 0.757,-0.788     0.77,-0.761 0.784,-0.734 0.716,-0.693 0.497,-0.566 0.497,-0.565 0.428,-0.526 0.414,-0.535 0.406,-0.543 0.401,-0.55     0.398,-0.552 0.389,-0.559 0.378,-0.566 0.376,-0.569 0.376,-0.569 0.376,-0.569 0.37,-0.575 0.365,-0.577 0.355,-0.583     0.351,-0.588 0.348,-0.588 0.35,-0.588 0.346,-0.592 0.333,-0.6 0.322,-0.605 0.312,-0.612 0.3,-0.617 0.289,-0.625 0.275,-0.629     0.264,-0.636 0.253,-0.641 0.239,-0.646 0.228,-0.65 0.214,-0.656 0.2,-0.658 0.188,-0.663 0.175,-0.665 0.162,-0.668     0.149,-0.671 0.136,-0.674 0.121,-0.676 0.108,-0.679 0.094,-0.68 0.081,-0.682 0.068,-0.682 0.056,-0.683 0.04,-0.683     0.026,-0.683 0.012,-0.682 -0.003,-0.682 -0.016,-0.68 -0.03,-0.679 -0.044,-0.676 -0.059,-0.674 -0.071,-0.671 -0.085,-0.668     -0.098,-0.665 -0.112,-0.663 -0.125,-0.657 -0.137,-0.654 -0.15,-0.648 -0.163,-0.645 -0.177,-0.638 -0.188,-0.634 -0.2,-0.629     -0.211,-0.623 -0.226,-0.617 -0.237,-0.61 -0.249,-0.603 -0.259,-0.595 -0.261,-0.593 -0.265,-0.59 -0.275,-0.585 -0.28,-0.58     -0.285,-0.577 -0.293,-0.572 -0.306,-0.562 -0.317,-0.553 -0.32,-0.55 -0.322,-0.549 -0.332,-0.539 -0.343,-0.531 -0.353,-0.521     -0.435,-0.577 -0.432,-0.577 -0.707,-0.77 -0.729,-0.738 -0.729,-0.739 -0.742,-0.719 -0.729,-0.741 -0.729,-0.742 -0.713,-0.77     -0.705,-0.782 -0.694,-0.806 -0.68,-0.83 -0.669,-0.854 -0.665,-0.862 -0.652,-0.887 -0.642,-0.912 -0.631,-0.938 -0.625,-0.952     -0.615,-0.972 -0.606,-1.001 -0.593,-1.029 -0.581,-1.06 -0.571,-1.086 -0.566,-1.107 -0.557,-1.131 -0.552,-1.152 -0.544,-1.182     -0.539,-1.197 -0.537,-1.201 -0.528,-1.232 -0.523,-1.254 -0.517,-1.277 -0.513,-1.295 -0.512,-1.297 -0.506,-1.33 -0.499,-1.364     -0.499,-1.369 -0.498,-1.372 -0.493,-1.402 -0.489,-1.428 -0.487,-1.432 -0.484,-1.441 -0.482,-1.471 -0.479,-1.502     -0.477,-1.517 -0.475,-1.532 -0.473,-1.564 -0.469,-1.601 -0.469,-1.604 -0.468,-1.637 -0.465,-1.67 -0.462,-1.703 -0.462,-1.739     -0.465,-1.779 -0.468,-1.821 -0.469,-1.862 -0.469,-1.873 -0.475,-1.945 -0.487,-2.046 -0.491,-2.068 -0.498,-2.106     -0.506,-2.148 -0.512,-2.175 -0.528,-2.242 -0.552,-2.324 -0.557,-2.343 -0.569,-2.38 -0.587,-2.432 -0.623,-2.522 -0.665,-2.61     -0.709,-2.698 -0.757,-2.784 -0.81,-2.865 -0.866,-2.944 -0.925,-3.021 -0.989,-3.094 -1.057,-3.163 -1.127,-3.231 -1.199,-3.295     -1.277,-3.353 -1.356,-3.411 -1.437,-3.462 -1.522,-3.513 -1.607,-3.556 -1.698,-3.597 -1.79,-3.633 -1.841,-3.649 -1.883,-3.665     -1.98,-3.691 -2.077,-3.714 -2.176,-3.734 -2.276,-3.746 -2.379,-3.754 -2.482,-3.758 -2.516,-3.755 -2.55,-3.755 -2.583,-3.754     -2.617,-3.751 -2.651,-3.748 -2.685,-3.746 -2.718,-3.742 -2.749,-3.737 -2.783,-3.735 -2.814,-3.729 -2.848,-3.724     -2.881,-3.717 -2.914,-3.71 -2.944,-3.703 -2.975,-3.695 -3.008,-3.688 -3.04,-3.679 -3.07,-3.668 -3.101,-3.66 -3.133,-3.649     -3.163,-3.637 -3.191,-3.627 -3.221,-3.615 -3.251,-3.604 -3.282,-3.592 -3.312,-3.578 -3.34,-3.565 -3.367,-3.549 -3.398,-3.537     -3.427,-3.521 -3.454,-3.506 -3.479,-3.49 -3.604,-3.613 -3.561,-3.642 -3.518,-3.67 -3.474,-3.697 -3.429,-3.725 -3.385,-3.748     -3.34,-3.774 -3.294,-3.799 -3.249,-3.823 -3.199,-3.844 -3.153,-3.867 -3.104,-3.886 -3.058,-3.905 -3.01,-3.926 -2.961,-3.943     -2.911,-3.962 -2.862,-3.979 -2.812,-3.993 -2.76,-4.006 -2.709,-4.021 -2.659,-4.033 -2.608,-4.045 -2.556,-4.057 -2.504,-4.066     -2.451,-4.074 -2.396,-4.082 -2.343,-4.089 -2.291,-4.094 -2.237,-4.098 -2.181,-4.102 -2.128,-4.104 -2.074,-4.106     -2.018,-4.106 -1.905,-4.104 -1.841,-4.099 -1.796,-4.098 -1.685,-4.087 -1.577,-4.072 -1.47,-4.053 -1.364,-4.03 -1.26,-4.002     -1.157,-3.97 -1.055,-3.938 -0.955,-3.897 -0.857,-3.855 -0.762,-3.809 -0.669,-3.76 -0.578,-3.706 -0.489,-3.649 -0.401,-3.592     -0.317,-3.53 -0.235,-3.465 -0.154,-3.396 -0.079,-3.324 -0.005,-3.25 -0.001,-3.245 0.056,-3.3 0.127,-3.373 0.203,-3.438     0.282,-3.504 0.362,-3.565 0.446,-3.624 0.531,-3.679 0.618,-3.731 0.709,-3.781 0.799,-3.827 0.891,-3.871 0.987,-3.911     1.084,-3.947 1.182,-3.98 1.28,-4.008 1.382,-4.035 1.485,-4.057 1.59,-4.074 1.693,-4.089 1.801,-4.098 1.909,-4.104     2.018,-4.106 2.096,-4.106 2.138,-4.104 2.174,-4.103 2.253,-4.097 2.33,-4.09 2.407,-4.082 2.481,-4.068 2.557,-4.054     2.631,-4.039 2.704,-4.021 2.778,-4.002 2.851,-3.98 2.923,-3.955 2.993,-3.932 3.062,-3.903 3.132,-3.875 3.2,-3.844     3.267,-3.812 3.333,-3.777 3.397,-3.742 3.461,-3.704 3.525,-3.665 3.585,-3.625 3.646,-3.582 3.706,-3.538 3.765,-3.494     3.82,-3.446 3.876,-3.398 3.932,-3.349 3.982,-3.298 4.036,-3.245 4.085,-3.192 4.135,-3.137 4.035,-3.079   " fill="#FFFFFF"/>
			<polygon class="secondary" points="4.817,-1.159 4.805,-1.02 4.787,-0.877 4.764,-0.741 4.732,-0.605 4.692,-0.471 4.648,-0.342     4.6,-0.216 4.543,-0.093 4.479,0.027 4.414,0.146 4.34,0.261 4.261,0.37 4.177,0.477 4.091,0.576 3.997,0.676 3.898,0.769     3.799,0.855 3.69,0.94 3.581,1.02 3.47,1.091 3.352,1.159 3.229,1.22 3.105,1.276 2.979,1.327 2.85,1.372 2.716,1.409     2.691,1.415 2.696,1.432 2.715,1.497 2.73,1.565 2.745,1.631 2.759,1.7 2.771,1.769 2.778,1.836 2.788,1.907 2.793,1.978     2.798,2.048 2.802,2.119 2.802,2.191 2.798,2.322 2.79,2.451 2.776,2.579 2.753,2.703 2.728,2.828 2.696,2.951 2.659,3.07     2.619,3.187 2.57,3.303 2.519,3.415 2.464,3.524 2.401,3.633 2.337,3.733 2.265,3.837 2.193,3.935 2.114,4.027 2.03,4.118     1.944,4.205 1.854,4.288 1.761,4.368 1.665,4.441 1.566,4.515 1.46,4.581 1.354,4.643 1.247,4.699 1.135,4.752 1.019,4.801     0.903,4.843 0.784,4.879 0.662,4.913 0.538,4.94 0.414,4.963 0.414,4.781 0.498,4.763 0.582,4.738 0.663,4.712 0.745,4.68     0.821,4.648 0.899,4.611 0.976,4.57 1.048,4.527 1.119,4.48 1.19,4.431 1.256,4.381 1.32,4.328 1.382,4.27 1.441,4.211     1.499,4.148 1.557,4.087 1.608,4.019 1.655,3.95 1.705,3.878 1.748,3.807 1.789,3.732 1.827,3.655 1.86,3.577 1.892,3.496     1.921,3.416 1.944,3.332 1.966,3.247 1.982,3.161 1.995,3.074 2.006,2.986 2.012,2.896 2.014,2.806 2.012,2.708 2.003,2.611     1.993,2.513 1.976,2.418 1.954,2.325 1.93,2.234 1.902,2.144 1.867,2.053 1.831,1.968 1.789,1.885 1.745,1.803 1.695,1.723     1.646,1.645 1.59,1.57 1.531,1.498 1.483,1.447 1.463,1.423 1.404,1.364 1.356,1.318 1.353,1.316 1.318,1.285 1.282,1.256     1.247,1.227 1.21,1.198 1.173,1.17 1.165,1.163 1.127,1.137 1.097,1.116 1.089,1.111 1.038,1.081 0.954,1.033 0.883,0.995     0.86,0.985 0.79,0.952 0.7,0.918 0.611,0.885 0.555,0.868 0.542,0.865 0.52,0.858 0.428,0.836 0.333,0.818 0.236,0.803     0.188,0.797 0.165,0.795 0.142,0.792 0.142,0.773 0.142,0.478 0.142,0.428 0.155,0.424 0.158,0.424 0.165,0.423 0.172,0.42     0.177,0.419 0.181,0.418 0.188,0.416 0.212,0.41 0.235,0.403 0.259,0.393 0.281,0.383 0.301,0.372 0.322,0.359 0.342,0.347     0.362,0.334 0.38,0.319 0.401,0.305 0.419,0.288 0.435,0.271 0.453,0.254 0.468,0.236 0.482,0.218 0.497,0.199 0.51,0.18     0.522,0.156 0.535,0.136 0.546,0.117 0.555,0.094 0.565,0.07 0.571,0.047 0.577,0.024 0.584,0 0.59,-0.023 0.595,-0.049     0.598,-0.074 0.598,-0.1 0.6,-0.123 0.6,-0.139 0.598,-0.152 0.598,-0.168 0.596,-0.181 0.595,-0.195 0.594,-0.209 0.59,-0.223     0.586,-0.237 0.583,-0.251 0.582,-0.261 0.577,-0.273 0.576,-0.281 0.571,-0.292 0.568,-0.305 0.565,-0.315 0.561,-0.323     0.558,-0.334 0.554,-0.346 0.808,-0.493 0.809,-0.493 0.903,-0.549 0.938,-0.499 0.976,-0.453 1.013,-0.407 1.052,-0.364     1.066,-0.348 1.071,-0.342 1.097,-0.315 1.115,-0.297 1.135,-0.278 1.176,-0.234 1.204,-0.211 1.229,-0.188 1.233,-0.186     1.262,-0.164 1.291,-0.139 1.32,-0.116 1.35,-0.094 1.381,-0.074 1.412,-0.049 1.441,-0.029 1.459,-0.019 1.508,0.012     1.558,0.041 1.56,0.042 1.572,0.047 1.586,0.058 1.609,0.069 1.653,0.091 1.673,0.101 1.683,0.105 1.716,0.121 1.721,0.123     1.741,0.132 1.777,0.148 1.786,0.152 1.827,0.166 1.885,0.189 1.935,0.208 1.954,0.213 1.962,0.215 1.999,0.225 2.058,0.241     2.115,0.254 2.138,0.261 2.177,0.268 2.236,0.276 2.299,0.287 2.359,0.292 2.423,0.299 2.485,0.301 2.548,0.302 2.65,0.299     2.753,0.291 2.854,0.278 2.953,0.261 3.051,0.238 3.148,0.21 3.239,0.18 3.333,0.143 3.421,0.103 3.507,0.056 3.593,0.008     3.676,-0.045 3.752,-0.1 3.831,-0.16 3.904,-0.223 3.974,-0.29 4.041,-0.36 4.105,-0.433 4.165,-0.508 4.22,-0.588 4.273,-0.671     4.322,-0.755 4.366,-0.843 4.407,-0.931 4.441,-1.025 4.475,-1.116 4.502,-1.214 4.524,-1.309 4.543,-1.408 4.556,-1.51     4.564,-1.612 4.566,-1.715 4.566,-1.764 4.564,-1.812 4.561,-1.858 4.557,-1.907 4.553,-1.951 4.546,-2 4.54,-2.046 4.53,-2.092     4.521,-2.137 4.513,-2.182 4.5,-2.228 4.487,-2.273 4.475,-2.315 4.461,-2.36 4.444,-2.403 4.428,-2.447 4.546,-2.512     4.562,-2.477 4.577,-2.445 4.592,-2.407 4.607,-2.375 4.622,-2.337 4.636,-2.303 4.648,-2.266 4.662,-2.23 4.676,-2.193     4.686,-2.156 4.698,-2.121 4.709,-2.083 4.722,-2.046 4.73,-2.008 4.741,-1.971 4.749,-1.934 4.759,-1.896 4.765,-1.856     4.773,-1.816 4.78,-1.779 4.784,-1.742 4.792,-1.701 4.797,-1.663 4.802,-1.624 4.805,-1.586 4.811,-1.543 4.812,-1.505     4.813,-1.466 4.817,-1.426 4.818,-1.385 4.819,-1.345 4.819,-1.304   " fill="#FFFFFF"/>
			<path class="secondary" d="M2.844-0.022C2.57,0.014,2.335,0.01,2.035-0.087c0.007-0.919-0.527-1.579-1.161-1.847    c0.068-0.32,0.151-0.562,0.312-0.772C2.181-2.249,2.903-1.242,2.844-0.022z" fill="#FFFFFF"/>
			<path class="secondary" d="M-1.157,1.622c0.792,0.464,1.632,0.331,2.178-0.082c0.245,0.216,0.412,0.411,0.516,0.654    C0.642,2.83-0.592,2.952-1.618,2.289C-1.511,2.033-1.392,1.835-1.157,1.622z" fill="#FFFFFF"/>
			<path class="secondary" d="M-1.964-0.087C-2.263,0.01-2.497,0.014-2.772-0.022c-0.06-1.22,0.664-2.227,1.657-2.684    c0.163,0.211,0.247,0.452,0.312,0.772C-1.434-1.666-1.969-1.006-1.964-0.087z" fill="#FFFFFF"/>
		</g>
	</g></svg>