<?xml version="1.0" standalone="no"?>
<svg xmlns="http://www.w3.org/2000/svg" viewBox="-6.37 -6.37 12.74 12.74" color="#212121" width="75" height="75"><g transform="matrix(1 0 0 -1 0 0)">
		<g xmlns="http://www.w3.org/2000/svg">
			<path class="primary" fill="currentColor" d="M-0.001-6.245c-3.443,0-6.244,2.802-6.244,6.245s2.801,6.245,6.244,6.245c3.444,0,6.246-2.802,6.246-6.245    S3.443-6.245-0.001-6.245z"/>
			<path class="secondary" d="M-0.001,6.12C3.38,6.12,6.12,3.38,6.12,0S3.38-6.12-0.001-6.12C-3.38-6.12-6.12-3.38-6.12,0    S-3.38,6.12-0.001,6.12 M-0.001,6.37C-3.513,6.37-6.37,3.513-6.37,0s2.857-6.37,6.369-6.37C3.512-6.37,6.37-3.513,6.37,0    S3.512,6.37-0.001,6.37L-0.001,6.37z" fill="#FFFFFF"/>
		</g>
		<g xmlns="http://www.w3.org/2000/svg" id="Bomb_2_">
			<path class="secondary" d="M0.399,1.284C0.063,1.575-0.337,1.806-0.79,1.949c-0.075,0.023-0.15,0.044-0.225,0.062    c-0.02,0.004-0.037,0.009-0.057,0.014C-1.146,2.04-1.22,2.056-1.294,2.067c-0.006,0-0.011,0-0.017,0.002    c-0.07,0.01-0.14,0.018-0.212,0.025c-0.018,0-0.035,0.002-0.054,0.002c-0.073,0.005-0.148,0.009-0.221,0.009    c-0.008,0-0.017,0-0.023,0c-0.076,0-0.148-0.004-0.222-0.009c-0.016-0.001-0.03-0.002-0.045-0.002    c-0.02-0.003-0.04-0.005-0.061-0.009C-2.203,2.08-2.259,2.075-2.316,2.065C-2.329,2.064-2.345,2.061-2.36,2.058    C-2.435,2.046-2.51,2.031-2.582,2.015c-0.005-0.001-0.007-0.002-0.012-0.002c-0.076-0.02-0.151-0.041-0.225-0.065    c-0.016-0.005-0.03-0.01-0.046-0.015c-0.074-0.024-0.145-0.05-0.215-0.08C-3.089,1.848-3.1,1.845-3.11,1.841    c-0.065-0.029-0.131-0.06-0.196-0.091c-0.009-0.005-0.019-0.01-0.028-0.016C-3.403,1.7-3.471,1.663-3.536,1.623    C-3.549,1.615-3.563,1.607-3.577,1.6c-0.064-0.041-0.13-0.085-0.193-0.131c-0.003-0.001-0.006-0.002-0.008-0.005    C-3.84,1.421-3.9,1.372-3.958,1.324c-0.012-0.01-0.021-0.02-0.034-0.029c-0.058-0.05-0.114-0.103-0.17-0.155    C-4.173,1.13-4.182,1.12-4.19,1.11c-0.053-0.053-0.104-0.107-0.152-0.162c-0.004-0.006-0.009-0.011-0.014-0.017    c-0.051-0.06-0.1-0.121-0.145-0.185c-0.012-0.014-0.021-0.025-0.031-0.04c-0.046-0.063-0.089-0.128-0.13-0.195    c-0.006-0.009-0.01-0.017-0.016-0.025c-0.038-0.064-0.074-0.13-0.107-0.193c-0.008-0.014-0.015-0.025-0.02-0.037    c-0.036-0.071-0.07-0.144-0.101-0.218c-0.006-0.017-0.013-0.032-0.019-0.047c-0.031-0.077-0.06-0.154-0.086-0.235    c-0.56-1.771,0.422-3.662,2.194-4.222c0.075-0.023,0.149-0.043,0.226-0.061c0.019-0.005,0.035-0.01,0.055-0.015    c0.075-0.016,0.15-0.031,0.225-0.042c0.005,0,0.01-0.002,0.015-0.002c0.069-0.011,0.143-0.02,0.214-0.023    c0.017-0.003,0.036-0.004,0.052-0.005c0.076-0.007,0.149-0.009,0.222-0.01c0.01,0,0.018,0.001,0.024,0.001    c0.073,0.001,0.147,0.004,0.222,0.009c0.016,0.002,0.029,0.002,0.044,0.005c0.077,0.004,0.152,0.014,0.229,0.026    c0.016,0.002,0.03,0.005,0.046,0.007c0.074,0.014,0.148,0.028,0.221,0.045c0.004,0,0.008,0.001,0.012,0.002    c0.075,0.02,0.151,0.04,0.225,0.064c0.016,0.005,0.031,0.01,0.046,0.015c0.073,0.024,0.146,0.051,0.215,0.079    c0.01,0.004,0.022,0.01,0.032,0.014c0.066,0.027,0.131,0.058,0.192,0.091C-0.29-4.261-0.28-4.256-0.27-4.251    c0.067,0.034,0.134,0.07,0.198,0.11c0.014,0.009,0.028,0.018,0.042,0.024c0.066,0.041,0.132,0.084,0.194,0.131    c0.002,0.001,0.006,0.004,0.008,0.006c0.062,0.045,0.121,0.092,0.179,0.139c0.011,0.01,0.023,0.021,0.034,0.03    c0.059,0.05,0.113,0.1,0.17,0.153c0.01,0.011,0.019,0.021,0.03,0.031c0.051,0.052,0.102,0.105,0.149,0.16    C0.741-3.46,0.745-3.454,0.75-3.447c0.051,0.058,0.1,0.119,0.147,0.183c0.01,0.014,0.02,0.027,0.029,0.041    C0.973-3.16,1.016-3.095,1.058-3.029c0.006,0.01,0.009,0.019,0.017,0.027C1.111-2.939,1.146-2.875,1.181-2.81    c0.007,0.014,0.014,0.025,0.021,0.038C1.235-2.7,1.27-2.628,1.301-2.556c0.006,0.017,0.013,0.033,0.017,0.049    C1.349-2.43,1.378-2.353,1.405-2.271C1.821-0.953,1.382,0.431,0.399,1.284z M-2.914-0.488c-0.358,0-0.65,0.292-0.65,0.652    c0,0.358,0.292,0.649,0.65,0.649s0.651-0.291,0.651-0.649C-2.263-0.196-2.556-0.488-2.914-0.488z" fill="#FFFFFF"/>
			<path class="secondary" d="M4.814,3.382C4.81,3.403,4.792,3.419,4.772,3.423L4.212,3.491L4.083,4.034    C4.077,4.055,4.061,4.07,4.038,4.074c-0.021,0.001-0.041-0.011-0.05-0.03L3.749,3.54L3.187,3.587    c-0.021,0.002-0.041-0.01-0.051-0.029C3.126,3.537,3.132,3.515,3.148,3.5l0.41-0.382L3.341,2.604    c-0.008-0.02-0.002-0.043,0.013-0.059C3.37,2.532,3.395,2.53,3.413,2.54l0.493,0.27l0.428-0.365    c0.007-0.007,0.017-0.012,0.027-0.012c0.011-0.002,0.022,0,0.03,0.007c0.02,0.01,0.029,0.031,0.024,0.052L4.31,3.04l0.482,0.287    C4.81,3.339,4.819,3.36,4.814,3.382z" fill="#FFFFFF"/>
			<path class="secondary" d="M1.104,3.89C0.451,4.273-0.095,3.905-0.303,3.56l-0.211-0.36c-0.025-0.044-0.035-0.091-0.038-0.138    C-1.21,3.253-1.778,3.251-1.843,3.051c-0.008-0.022-0.005-0.044-0.002-0.066l-0.017,0.005l-0.196-0.618    c0.084,0.005,0.169,0.01,0.254,0.01l0,0c0.371,0,0.739-0.059,1.097-0.169c0.45-0.145,0.852-0.366,1.196-0.646l0.195,0.619    L0.667,2.19c0.017,0.018,0.03,0.034,0.037,0.056C0.759,2.417,0.432,2.679-0.063,2.89c0.008,0.01,0.017,0.02,0.023,0.031L0.17,3.28    c0.038,0.064,0.252,0.375,0.66,0.138c0.016-0.01,1.211-0.702,2.13-0.702c0.046,0,0.09,0.003,0.133,0.006l0.14,0.326L2.996,3.267    C2.503,3.252,1.671,3.56,1.104,3.89z" fill="#FFFFFF"/>
		</g>
	</g></svg>