<?xml version="1.0" standalone="no"?>
<svg xmlns="http://www.w3.org/2000/svg" viewBox="-6.37 -6.37 12.74 12.74" color="#212121" width="75" height="75"><g transform="matrix(1 0 0 -1 0 0)">
		<g xmlns="http://www.w3.org/2000/svg">
			<path class="primary" fill="currentColor" d="M-0.001-6.245c-3.443,0-6.244,2.802-6.244,6.245s2.801,6.245,6.244,6.245c3.444,0,6.246-2.802,6.246-6.245    S3.443-6.245-0.001-6.245z"/>
			<path class="secondary" d="M-0.001,6.12C3.38,6.12,6.12,3.38,6.12,0c0-3.38-2.74-6.12-6.121-6.12C-3.38-6.12-6.12-3.38-6.12,0    C-6.12,3.38-3.38,6.12-0.001,6.12 M-0.001,6.37C-3.513,6.37-6.37,3.512-6.37,0s2.857-6.37,6.369-6.37    C3.512-6.37,6.37-3.513,6.37,0S3.512,6.37-0.001,6.37L-0.001,6.37z" fill="#FFFFFF"/>
		</g>
		<g xmlns="http://www.w3.org/2000/svg" id="BQM-74E_3_">
			<g>
				<path class="secondary" d="M0.037,5.534c0.255,0,0.379-0.391,0.462-0.644c0.107-0.339,0.055-3.481,0-5.231l2.166-0.226l0.027-1.062     L0.554-2.007L0.525-3.539L0.499-4.8l0.825-0.301L1.295-5.427l-1.069-0.08l-0.234-0.056L-0.228-5.48l-1.068,0.082l-0.028,0.326     l0.824,0.3l-0.025,1.26L-0.554-1.98l-2.139,0.38l0.026,1.06L-0.5-0.313c-0.054,1.749-0.107,4.893,0,5.231     C-0.417,5.172-0.22,5.534,0.037,5.534z" fill="#FFFFFF"/>
			</g>
		</g>
	</g></svg>