<?xml version="1.0" standalone="no"?>
<svg xmlns="http://www.w3.org/2000/svg" viewBox="-6.37 -6.37 12.74 12.74" color="#212121" width="75" height="75"><g transform="matrix(1 0 0 -1 0 0)">
		<g xmlns="http://www.w3.org/2000/svg">
			<path class="primary" fill="currentColor" d="M-0.001-6.245c-3.443,0-6.244,2.802-6.244,6.245s2.801,6.245,6.244,6.245c3.444,0,6.246-2.802,6.246-6.245    S3.443-6.245-0.001-6.245z"/>
			<path class="secondary" d="M-0.001,6.12C3.38,6.12,6.12,3.38,6.12,0S3.38-6.12-0.001-6.12C-3.38-6.12-6.12-3.38-6.12,0    S-3.38,6.12-0.001,6.12 M-0.001,6.37C-3.513,6.37-6.37,3.513-6.37,0s2.857-6.37,6.369-6.37C3.512-6.37,6.37-3.513,6.37,0    S3.512,6.37-0.001,6.37L-0.001,6.37z" fill="#FFFFFF"/>
		</g>
		<path xmlns="http://www.w3.org/2000/svg" id="Brahmos_2_" class="secondary" d="M5.511,1.394c0,0.335-0.271,0.605-0.604,0.605c-0.007,0-0.015,0-0.021,0l0,0H4.883   C4.819,1.996,4.758,1.983,4.702,1.964l-1.24-0.239l0.151,0.274L3.107,1.912L2.45,1.53L2,1.443L1.453,1.912L0.872,1.851L0.368,1.129   l-3.299-0.637c-1.561-0.3-2.011-0.86-2.068-0.94c-0.17-0.157-0.278-0.383-0.278-0.633c0-0.049,0.004-0.096,0.012-0.142   l-0.246-0.174l0.309-0.034c0.099-0.221,0.286-0.393,0.518-0.469l0.001-0.003c1.124-0.31,2.482,0.233,2.482,0.233l3.757,1.276l0,0   l1.7-0.251l0.457,0.186L3.291,0.197l0.543,0.184l0.322-0.197l0.146,0.049L4.187,0.501l0.885,0.3L5.069,0.812   C5.324,0.883,5.511,1.116,5.511,1.394z" fill="#FFFFFF"/>
	</g></svg>