<?xml version="1.0" standalone="no"?>
<svg xmlns="http://www.w3.org/2000/svg" viewBox="-6.37 -6.37 12.74 12.74" color="#212121" width="75" height="75"><g transform="matrix(1 0 0 -1 0 0)">
		<g xmlns="http://www.w3.org/2000/svg">
			<path class="primary" fill="currentColor" d="M-0.001-6.245c-3.443,0-6.244,2.802-6.244,6.245s2.801,6.245,6.244,6.245c3.444,0,6.246-2.802,6.246-6.245    S3.444-6.245-0.001-6.245z"/>
			<path class="secondary" d="M-0.001,6.12C3.38,6.12,6.12,3.38,6.12,0c0-3.38-2.74-6.12-6.121-6.12C-3.38-6.12-6.12-3.38-6.12,0    C-6.12,3.38-3.38,6.12-0.001,6.12 M-0.001,6.37C-3.513,6.37-6.37,3.512-6.37,0s2.857-6.37,6.369-6.37    C3.512-6.37,6.37-3.513,6.37,0S3.512,6.37-0.001,6.37L-0.001,6.37z" fill="#FFFFFF"/>
		</g>
		<g xmlns="http://www.w3.org/2000/svg" id="Car_Bomb_3_">
			<g>
				<path class="secondary" d="M0.183,3.105C0.076,3.199-0.051,3.271-0.195,3.317c-0.023,0.007-0.047,0.015-0.071,0.02     c-0.005,0.001-0.012,0.004-0.018,0.005c-0.023,0.004-0.047,0.009-0.07,0.013c-0.002,0-0.004,0-0.005,0.001     C-0.383,3.358-0.404,3.36-0.427,3.363c-0.007,0-0.012,0-0.018,0.001c-0.024,0.002-0.048,0.003-0.071,0.003c0,0-0.005,0-0.007,0     c-0.023-0.001-0.048-0.001-0.07-0.004c-0.003,0-0.009,0-0.013,0c-0.008-0.001-0.014-0.002-0.02-0.003     C-0.644,3.358-0.661,3.357-0.68,3.354c-0.005-0.001-0.008-0.002-0.014-0.003c-0.023-0.003-0.048-0.008-0.07-0.014     c-0.001-0.001-0.002-0.001-0.004-0.001c-0.024-0.005-0.047-0.013-0.071-0.02c-0.005-0.002-0.01-0.002-0.015-0.004     c-0.023-0.008-0.046-0.017-0.068-0.025c-0.002-0.001-0.006-0.003-0.01-0.005c-0.021-0.009-0.041-0.018-0.062-0.028     C-0.996,3.252-1,3.251-1.003,3.25c-0.021-0.012-0.043-0.023-0.063-0.036C-1.07,3.211-1.075,3.208-1.08,3.206     c-0.021-0.014-0.041-0.027-0.062-0.041c0,0-0.001-0.001-0.001-0.002C-1.162,3.149-1.182,3.134-1.2,3.118     c-0.004-0.003-0.007-0.005-0.012-0.009c-0.018-0.016-0.035-0.032-0.053-0.05c-0.004-0.002-0.007-0.006-0.01-0.009     C-1.291,3.034-1.307,3.018-1.322,3c-0.002-0.003-0.002-0.005-0.004-0.006c-0.018-0.019-0.032-0.038-0.047-0.059     c-0.004-0.004-0.006-0.008-0.01-0.014c-0.015-0.019-0.028-0.039-0.043-0.061c0-0.004-0.002-0.006-0.004-0.009     c-0.012-0.021-0.023-0.04-0.034-0.062C-1.466,2.787-1.468,2.783-1.47,2.779c-0.013-0.022-0.021-0.046-0.031-0.068     C-1.504,2.705-1.506,2.7-1.508,2.695c-0.01-0.024-0.018-0.049-0.027-0.074C-1.713,2.059-1.4,1.458-0.838,1.281     c0.023-0.008,0.048-0.015,0.071-0.02C-0.76,1.26-0.755,1.259-0.75,1.257c0.025-0.005,0.049-0.01,0.072-0.014     c0.001,0,0.003,0,0.003,0c0.024-0.004,0.047-0.006,0.069-0.009c0.006,0,0.011,0,0.018,0C-0.564,1.232-0.541,1.23-0.519,1.23     c0.003,0,0.005,0,0.008,0c0.024,0.001,0.047,0.002,0.07,0.004c0.005,0,0.01,0,0.015,0c0.023,0.003,0.047,0.006,0.072,0.01     c0.004,0,0.01,0.001,0.015,0.002C-0.315,1.25-0.293,1.255-0.27,1.26c0.002,0.001,0.003,0.001,0.005,0.001     c0.022,0.006,0.048,0.013,0.07,0.021c0.005,0.001,0.01,0.003,0.016,0.005c0.022,0.008,0.045,0.016,0.066,0.025     c0.005,0.001,0.009,0.002,0.011,0.004C-0.08,1.324-0.06,1.334-0.039,1.344c0.003,0.001,0.006,0.003,0.009,0.005     c0.022,0.011,0.043,0.022,0.063,0.035c0.006,0.003,0.01,0.006,0.014,0.007c0.021,0.015,0.041,0.027,0.061,0.043     c0.002,0.001,0.002,0.001,0.004,0.002c0.02,0.014,0.039,0.028,0.057,0.044c0.003,0.003,0.007,0.006,0.01,0.009     c0.02,0.017,0.037,0.032,0.055,0.049c0.003,0.004,0.006,0.007,0.01,0.01c0.016,0.017,0.032,0.034,0.047,0.052     C0.291,1.6,0.293,1.602,0.295,1.604c0.016,0.018,0.031,0.037,0.046,0.058C0.344,1.666,0.347,1.671,0.35,1.675     c0.016,0.021,0.029,0.041,0.042,0.062c0.002,0.003,0.004,0.007,0.005,0.01c0.012,0.019,0.023,0.04,0.034,0.06     c0.003,0.005,0.005,0.009,0.007,0.013c0.011,0.022,0.021,0.045,0.031,0.069c0.002,0.005,0.004,0.01,0.006,0.015     c0.01,0.025,0.02,0.05,0.027,0.074C0.635,2.396,0.494,2.835,0.183,3.105z M-0.869,2.543c-0.114,0-0.207,0.094-0.207,0.207     c0,0.114,0.093,0.207,0.207,0.207c0.114,0,0.207-0.093,0.207-0.207C-0.662,2.637-0.755,2.543-0.869,2.543z" fill="#FFFFFF"/>
				<path class="secondary" d="M1.584,3.771c0,0.007-0.007,0.013-0.014,0.014L1.393,3.807L1.352,3.979C1.351,3.985,1.346,3.99,1.338,3.991     C1.331,3.992,1.325,3.988,1.322,3.982l-0.076-0.16L1.067,3.837c-0.007,0.001-0.013-0.003-0.016-0.01     C1.049,3.821,1.051,3.814,1.055,3.81l0.131-0.122L1.117,3.524C1.114,3.519,1.115,3.512,1.12,3.506     c0.006-0.004,0.014-0.004,0.02-0.001L1.297,3.59l0.135-0.115C1.435,3.472,1.438,3.471,1.44,3.471c0.004-0.001,0.007,0,0.01,0.002     c0.006,0.003,0.009,0.011,0.007,0.017L1.424,3.663l0.153,0.092C1.582,3.759,1.586,3.766,1.584,3.771z" fill="#FFFFFF"/>
				<path class="secondary" d="M0.406,3.934c-0.207,0.121-0.38,0.005-0.445-0.105l-0.068-0.113C-0.114,3.7-0.118,3.686-0.118,3.67     c-0.21,0.062-0.391,0.061-0.411-0.003c-0.002-0.007-0.002-0.015,0-0.021l-0.005,0.002l-0.062-0.196     c0.025,0.001,0.053,0.003,0.079,0.003l0,0c0.118,0,0.234-0.019,0.348-0.054c0.144-0.046,0.271-0.116,0.38-0.205l0.062,0.196     L0.269,3.394C0.273,3.398,0.277,3.404,0.28,3.411c0.017,0.055-0.087,0.138-0.245,0.204c0.004,0.004,0.006,0.008,0.009,0.011     L0.109,3.74c0.013,0.02,0.081,0.119,0.21,0.043C0.324,3.78,0.704,3.561,0.996,3.561c0.014,0,0.028,0.001,0.041,0.002l0.045,0.104     L1.008,3.735C0.852,3.731,0.586,3.828,0.406,3.934z" fill="#FFFFFF"/>
			</g>
			<path class="secondary" d="M4.869-2.834C4.773-2.758,4.74-2.685,4.74-2.685S4.527-2.341,4.398-2.266C4.27-2.191,2.641-1.892,2.074-1.848    c0,0-0.226,0.085-0.322,0.149c-0.014,0.009-0.047,0.032-0.09,0.06l0.633,0.627L1.127-1.313C1.089-1.292,1.051-1.272,1.012-1.252    l1.157,2.205l-1.94-1.711l0.024,0.81l-0.538-0.984c-0.086,0.003-0.177,0.003-0.27,0.004l-0.04,1.693l-0.585-1.36l-1.561,2.738    l0.36-2.877l-0.669,0.52l0.06-1.171c-0.047-0.021-0.098-0.042-0.142-0.062l-1.156,0.739l0.75-0.914    C-3.602-1.647-3.667-1.673-3.7-1.677c-0.172-0.021-0.793-0.075-0.835-0.075c-0.044,0-0.098-0.193-0.172-0.246    c-0.075-0.054-0.044-0.449-0.107-0.536c-0.065-0.085-0.15-0.129-0.096-0.288c0.053-0.162,0.043-0.227,0.074-0.291    c0.032-0.064,0.065-0.182,1.156-0.331l0.203-0.027c0.114-0.303,0.408-0.52,0.751-0.52c0.321,0,0.599,0.189,0.727,0.461h0.002    h4.779c0.129-0.272,0.405-0.461,0.727-0.461c0.27,0,0.507,0.133,0.653,0.336C4.185-3.666,4.211-3.672,4.237-3.67    c0.086,0.011,0.054,0.086,0.161,0.129c0.106,0.043,0.342-0.01,0.417,0.117C4.891-3.295,4.763-3.23,4.848-3.144    C4.934-3.059,4.965-2.908,4.869-2.834z" fill="#FFFFFF"/>
		</g>
	</g></svg>