<?xml version="1.0" standalone="no"?>
<svg xmlns="http://www.w3.org/2000/svg" viewBox="-6.37 -6.37 12.74 12.74" color="#212121" width="75" height="75"><g transform="matrix(1 0 0 -1 0 0)">
		<g xmlns="http://www.w3.org/2000/svg">
			<path class="primary" fill="currentColor" d="M-0.001-6.245c-3.443,0-6.244,2.802-6.244,6.245s2.801,6.245,6.244,6.245c3.444,0,6.246-2.802,6.246-6.245    S3.443-6.245-0.001-6.245z"/>
			<path class="secondary" d="M-0.001,6.12C3.38,6.12,6.12,3.38,6.12,0S3.38-6.12-0.001-6.12C-3.38-6.12-6.12-3.38-6.12,0    S-3.38,6.12-0.001,6.12 M-0.001,6.37C-3.513,6.37-6.37,3.513-6.37,0s2.857-6.37,6.369-6.37C3.512-6.37,6.37-3.513,6.37,0    S3.512,6.37-0.001,6.37L-0.001,6.37z" fill="#FFFFFF"/>
		</g>
		<g xmlns="http://www.w3.org/2000/svg">
			<path class="secondary" d="M2.031-0.037L2.029-0.036C2.029-0.041,2.031-0.037,2.031-0.037z" fill="#FFFFFF"/>
			<path class="secondary" d="M5.769,0.813H5.104L5.065,0.766h-0.47L4.552,0.79L4.504,0.794v0.118l0.035,0.005c0.039,0.039,0,0.262,0,0.262    L4.504,1.189L4.44,1.201l0.016,0.023H4.273l0.013-0.031H4.211v0.062l0.086,0.005c0,0-0.042,0.15-0.073,0.143    C4.189,1.396,4.127,1.431,4.127,1.431C4.125,1.459,4.036,1.507,4.036,1.507L4.024,1.775C3.946,1.851,3.882,1.76,3.882,1.76V1.49    c0,0-0.051-0.015-0.047-0.067c0.003-0.052-0.017-0.167-0.017-0.167H0.736L0.74,1.269l0.031,0.119    C0.8,1.562,0.599,1.586,0.57,1.586c-0.027,0-0.187,0.008-0.357,0.012c-0.17,0.003-0.13,0.051-0.13,0.051L0.012,2.071h-0.585    l0.003-0.127C-0.514,1.767-0.68,1.653-0.68,1.653l-0.062-0.4l-0.979-0.008l-0.004,0.066L-1.762,1.3c0,0-0.059,0.012-0.078,0.071    c-0.021,0.06,0.035,0.15,0.035,0.163c0,0.013,0.018,0.086,0.018,0.086l0.082,0.009v0.04L-1.787,1.68l-0.008,0.024    c0,0-0.018-0.021,0,0.009c0.015,0.027,0,0.11-0.088,0.125C-1.971,1.854-1.981,1.74-1.981,1.74s-0.057-0.048-0.018-0.124    c0.04-0.074-0.015-0.115-0.015-0.115l-0.072-0.025C-2.152,1.427-2.12,1.193-2.12,1.193c-0.284-0.004-0.299-0.032-0.299-0.032    l-0.216-0.292L-5.18,0.897l-0.016,0.02l-0.32,0.008c0,0-0.051-0.005-0.187-0.023c-0.135-0.021-0.095-0.227-0.095-0.227    s0.135-0.479,0.154-0.602c0.02-0.122,0.053-0.648,0.053-0.768c0-0.118,0.26-0.092,0.26-0.092l0.015,0.01l0.152,0.019l0.118,0.115    l0.004,0.079c0,0,0.562,0.582,0.702,0.704c0.138,0.123,0.415,0.115,0.415,0.115L-3.05,0.26l0.012-0.028l0.585,0.008    c0,0,0.115,0.005,0.412,0c0.297-0.004,0.3-0.217,0.3-0.217l-0.015-0.009c0.007-0.122-0.092-0.272-0.092-0.272    s-0.49-0.768-0.593-0.882c-0.104-0.116-0.021-0.116-0.021-0.116s0.166-0.046,0.423-0.118c0.258-0.071,0.313-0.039,0.313-0.039    c0.062,0.03,0.035,0.091,0.035,0.091c-0.039,0.016-0.016,0.106-0.016,0.106l0.197,0.373l0.119,0.222l0.115,0.193l0.02,0.007h0.032    l0.003-0.015l0.139-0.009c0,0,0.436,0,0.632-0.004c0.2-0.004,0.187,0.036,0.187,0.036c0.008-0.036,0.08-0.028,0.08-0.028    c-0.04-0.146,0.289-1.625,0.289-1.625C0.19-2.103,1.034-1.874,1.034-1.874C0.886-1.651,0.74-0.222,0.74-0.222l0.113,0.029    c0,0,0.021,0.016-0.035,0.111c-0.058,0.094,0.002,0.22,0.02,0.237c0.018,0.019,0.089,0.019,0.135,0.041    c0.044,0.023,0.094,0.077,0.094,0.077l0.265,0.019L1.326,0.334L1.535,0.33L1.529,0.274c0,0-0.005-0.05,0-0.198    c0.006-0.148,0.034-0.113,0.034-0.113c0.032,0,0.037-0.08,0.037-0.08S1.589-0.393,1.589-0.513c0-0.118,0.01-0.991,0.01-0.991    c0.165-0.073,0.344-0.005,0.344,0.005c0,0.008,0.006,0.111,0.006,0.111l0.023,0.015c0,0,0.004,0.854,0.004,0.864    c0,0.009-0.004,0.245,0.003,0.37c0.005,0.112,0.043,0.104,0.051,0.103c0,0.002-0.001,0.007,0.004,0.031    C2.05,0.058,2.031,0.076,2.031,0.076l0.006,0.159l0.013-0.02l2.118,0.005l0.048,0.086c-0.019,0-0.021,0.089-0.021,0.089    L4.23,0.387C4.273,0.36,4.508,0.382,4.508,0.382l0.007,0.145l0.037-0.003l0.054,0.03l0.459-0.002l0.057-0.046l0.647,0.007    C5.845,0.679,5.769,0.813,5.769,0.813z M-0.446-0.311c-0.035-0.04-0.049-0.082-0.049-0.082l-0.532,0.006v0.018    c0,0-0.008,0.006-0.072,0.076c-0.062,0.07-0.042,0.177,0.004,0.241c0.046,0.062,0.135,0.07,0.135,0.07s-0.008-0.024-0.014-0.025    c-0.003-0.002-0.024-0.062-0.008-0.168c0.018-0.104,0.105-0.186,0.119-0.194C-0.85-0.376-0.85-0.344-0.85-0.344    s-0.034,0.021-0.057,0.138C-0.928-0.091-0.8,0.019-0.8,0.019s0.005-0.003,0.119,0.002c0.114,0.004,0.19-0.037,0.201-0.049    c0.011-0.011,0.067-0.1,0.071-0.124C-0.402-0.176-0.412-0.271-0.446-0.311z" fill="#FFFFFF"/>
		</g>
	</g></svg>