<?xml version="1.0" standalone="no"?>
<svg xmlns="http://www.w3.org/2000/svg" viewBox="-6.12 -6.12 12.24 12.24" color="#212121" width="75" height="75"><g transform="matrix(1 0 0 -1 0 0)">
		<path xmlns="http://www.w3.org/2000/svg" class="primary" fill="currentColor" d="M5.831-0.023c0-3.221-2.61-5.832-5.831-5.832s-5.831,2.611-5.831,5.832c0,3.221,2.61,5.831,5.831,5.831   S5.831,3.197,5.831-0.023z"/>
		<path xmlns="http://www.w3.org/2000/svg" class="secondary" d="M0-6.12c-3.374,0-6.12,2.746-6.12,6.12S-3.374,6.12,0,6.12S6.12,3.374,6.12,0S3.374-6.12,0-6.12L0-6.12z    M0,5.424C-2.99,5.424-5.424,2.99-5.424,0S-2.99-5.424,0-5.424S5.424-2.99,5.424,0S2.99,5.424,0,5.424L0,5.424z" fill="#FFFFFF"/>
		<path xmlns="http://www.w3.org/2000/svg" class="secondary" d="M0.002-1.178c-0.636,0-1.153,0.518-1.153,1.152c0,0.637,0.518,1.155,1.153,1.155   c0.637,0,1.153-0.519,1.153-1.155C1.155-0.66,0.639-1.178,0.002-1.178L0.002-1.178z M0.002,0.955c-0.54,0-0.979-0.439-0.979-0.98   c0-0.539,0.439-0.979,0.979-0.979c0.539,0,0.979,0.439,0.979,0.979C0.981,0.516,0.541,0.955,0.002,0.955L0.002,0.955z" fill="#FFFFFF"/>
		<path xmlns="http://www.w3.org/2000/svg" class="secondary" d="M0.438,1.272L0.329,1.299C0.237,1.322,0.036,1.332,0.002,1.334C-0.087,1.33-0.246,1.318-0.329,1.299   l-0.106-0.024v0.915c-0.62,0.191-1.048,0.766-1.048,1.419c0,0.808,0.632,1.46,1.437,1.484h0.005h0.005h0.007h0.011h0.009h0.013   c0.818,0,1.483-0.665,1.483-1.484c0-0.654-0.426-1.228-1.046-1.419L0.438,1.272L0.438,1.272z M-0.04,4.92   c-0.712-0.022-1.269-0.599-1.269-1.312c0-0.597,0.403-1.119,0.981-1.269l0.065-0.017V1.487c0.095,0.012,0.202,0.019,0.26,0.021   c0.005,0.001,0.144-0.005,0.266-0.021l0.001,0.836L0.33,2.34c0.578,0.149,0.981,0.672,0.981,1.269c0,0.724-0.588,1.312-1.31,1.312   h-0.013H-0.02H-0.03h-0.006H-0.04L-0.04,4.92z" fill="#FFFFFF"/>
		<path xmlns="http://www.w3.org/2000/svg" class="secondary" d="M-3.144-3.328L-3.144-3.328c-0.519,0-0.991,0.263-1.264,0.702c-0.001,0.002-0.002,0.004-0.004,0.007   C-4.413-2.614-4.416-2.61-4.418-2.607l-0.013,0.021c-0.197,0.344-0.251,0.744-0.147,1.127c0.102,0.383,0.349,0.703,0.691,0.901   c0.226,0.13,0.481,0.199,0.74,0.199c0.374,0,0.738-0.144,1.012-0.397l0.795,0.458l0.031-0.106c0.026-0.092,0.116-0.271,0.134-0.302   c0.048-0.075,0.137-0.207,0.196-0.269l0.074-0.08l-0.793-0.458c0.145-0.632-0.139-1.289-0.705-1.616   C-2.628-3.26-2.884-3.328-3.144-3.328L-3.144-3.328z M-3.146-0.533c-0.229,0-0.454-0.062-0.652-0.176   C-4.103-0.883-4.319-1.166-4.41-1.505c-0.091-0.337-0.045-0.69,0.13-0.993l0.018-0.03c0-0.001,0.002-0.004,0.004-0.007   c0.24-0.388,0.658-0.619,1.115-0.619c0.229,0,0.455,0.062,0.655,0.176c0.516,0.298,0.766,0.909,0.606,1.484L-1.9-1.429l0.725,0.419   c-0.058,0.074-0.116,0.165-0.148,0.213c-0.003,0.007-0.067,0.13-0.114,0.241l-0.725-0.416L-2.21-0.924   C-2.454-0.676-2.796-0.533-3.146-0.533L-3.146-0.533z" fill="#FFFFFF"/>
		<path xmlns="http://www.w3.org/2000/svg" class="secondary" d="M3.144-3.328c-0.259,0-0.516,0.068-0.741,0.199c-0.566,0.327-0.85,0.984-0.705,1.616L0.904-1.055l0.074,0.079   c0.06,0.063,0.148,0.194,0.196,0.27c0.017,0.029,0.107,0.211,0.134,0.302L1.34-0.298l0.795-0.458   c0.273,0.254,0.638,0.397,1.012,0.397c0.259,0,0.515-0.069,0.74-0.199c0.343-0.198,0.59-0.519,0.691-0.901   c0.104-0.383,0.05-0.783-0.147-1.127L4.418-2.607C4.416-2.61,4.414-2.614,4.412-2.618C4.409-2.622,4.408-2.624,4.407-2.626   C4.135-3.065,3.662-3.328,3.144-3.328L3.144-3.328z M1.176-1.01L1.9-1.429L1.882-1.493C1.723-2.069,1.973-2.68,2.489-2.979   c0.199-0.114,0.425-0.176,0.654-0.176c0.458,0,0.875,0.231,1.115,0.619l0.021,0.037C4.455-2.195,4.501-1.842,4.41-1.504   S4.103-0.883,3.799-0.709C3.601-0.595,3.374-0.533,3.146-0.533c-0.35,0-0.69-0.143-0.935-0.391L2.163-0.972L1.438-0.556   C1.392-0.668,1.327-0.791,1.323-0.797C1.293-0.845,1.233-0.936,1.176-1.01L1.176-1.01z" fill="#FFFFFF"/>
		<path xmlns="http://www.w3.org/2000/svg" class="secondary" d="M0.002-1.989c-0.436,0-0.847,0.141-1.191,0.404l-0.104,0.078l0.571,0.331l0.044-0.025   c0.205-0.118,0.44-0.182,0.68-0.182c0.238,0,0.474,0.063,0.678,0.182l0.044,0.025l0.572-0.332L1.192-1.586   C0.848-1.85,0.437-1.989,0.002-1.989L0.002-1.989z M-0.977-1.524c0.291-0.189,0.626-0.29,0.979-0.29c0.351,0,0.687,0.1,0.977,0.29   L0.723-1.376C0.502-1.495,0.254-1.557,0.002-1.557c-0.254,0-0.502,0.062-0.724,0.181L-0.977-1.524L-0.977-1.524z" fill="#FFFFFF"/>
		<path xmlns="http://www.w3.org/2000/svg" class="secondary" d="M1.933-0.412L1.359-0.083L1.36-0.015c0,0.485-0.256,0.923-0.683,1.169L0.635,1.179L0.634,1.841L0.755,1.79   c0.736-0.306,1.212-1.019,1.212-1.815c0-0.085-0.006-0.173-0.018-0.259L1.933-0.412L1.933-0.412z M1.534,0.018L1.789-0.13   c0.002,0.035,0.002,0.071,0.002,0.104c0,0.683-0.381,1.297-0.983,1.6l0.001-0.295C1.255,1.004,1.522,0.537,1.534,0.018L1.534,0.018   z" fill="#FFFFFF"/>
		<path xmlns="http://www.w3.org/2000/svg" class="secondary" d="M-1.929-0.41l-0.017,0.129c-0.011,0.085-0.018,0.172-0.018,0.256c0,0.797,0.476,1.511,1.211,1.815l0.12,0.051   l0.002-0.66l-0.044-0.025c-0.422-0.243-0.684-0.693-0.684-1.18v-0.057L-1.929-0.41L-1.929-0.41z M-0.805,1.574   c-0.603-0.302-0.983-0.917-0.983-1.6c0-0.033,0-0.066,0.003-0.101l0.254,0.146c0.016,0.514,0.289,0.989,0.727,1.261V1.574   L-0.805,1.574z" fill="#FFFFFF"/>
	</g></svg>