<?xml version="1.0" standalone="no"?>
<svg xmlns="http://www.w3.org/2000/svg" viewBox="-6.37 -6.37 12.74 12.74" color="#212121" width="75" height="75"><g transform="matrix(1 0 0 -1 0 0)">
		<g xmlns="http://www.w3.org/2000/svg">
			<path class="primary" fill="currentColor" d="M-0.001-6.245c-3.443,0-6.244,2.802-6.244,6.245s2.801,6.245,6.244,6.245c3.444,0,6.246-2.802,6.246-6.245    S3.443-6.245-0.001-6.245z"/>
			<path class="secondary" d="M-0.001,6.12C3.38,6.12,6.12,3.38,6.12,0S3.38-6.12-0.001-6.12C-3.38-6.12-6.12-3.38-6.12,0    S-3.38,6.12-0.001,6.12 M-0.001,6.37C-3.513,6.37-6.37,3.513-6.37,0s2.857-6.37,6.369-6.37C3.512-6.37,6.37-3.513,6.37,0    S3.512,6.37-0.001,6.37L-0.001,6.37z" fill="#FFFFFF"/>
		</g>
		<path xmlns="http://www.w3.org/2000/svg" id="Flash_bomb_2_" class="secondary" d="M2.871,1.276C2.83,2.166,2,2.085,2,2.085L1.19,2.39L1.17,2.916   c0.143,0.606-0.02,1.255-0.02,1.255C0.564,5.545-0.954,4.878-0.954,4.878C-2.391,3.765-1.359,2.49-1.359,2.49L-1.621,2.47   c-0.304,0.041-0.952-0.466-0.952-0.466c-0.667-0.021-0.809-1.07-0.809-1.07s0-0.952,0-1.054c0-0.102,0.121-3.843,0.121-3.843   c3.358-2.388,5.97-0.062,5.97-0.062l0.162,0.323c0,0,0.101,0.061,0.121,0.223c0.02,0.162-0.061,1.336,0.061,1.964   C3.174-0.889,2.911,0.387,2.871,1.276z M0.928,3.079c0.117,0.33-2.194,0.479-2.219,0.068c0-0.006,0-0.012-0.002-0.018   C-1.32,2.749-1.404,3.104-1.404,3.104c-0.109,0.646,0.256,1.199,0.387,1.367c0.131,0.168,0.752,0.517,1.473,0.137   C1.176,4.229,0.928,3.079,0.928,3.079z" fill="#FFFFFF"/>
	</g></svg>