<?xml version="1.0" standalone="no"?>
<svg xmlns="http://www.w3.org/2000/svg" viewBox="-6.37 -6.37 12.74 12.74" color="#212121" width="75" height="75"><g transform="matrix(1 0 0 -1 0 0)">
		<g xmlns="http://www.w3.org/2000/svg">
			<path class="primary" fill="currentColor" d="M-0.001-6.245c-3.443,0-6.244,2.802-6.244,6.245s2.801,6.245,6.244,6.245c3.444,0,6.246-2.802,6.246-6.245    S3.443-6.245-0.001-6.245z"/>
			<path class="secondary" d="M-0.001,6.12C3.38,6.12,6.12,3.38,6.12,0S3.38-6.12-0.001-6.12C-3.38-6.12-6.12-3.38-6.12,0    S-3.38,6.12-0.001,6.12 M-0.001,6.37C-3.513,6.37-6.37,3.513-6.37,0s2.857-6.37,6.369-6.37C3.512-6.37,6.37-3.513,6.37,0    S3.512,6.37-0.001,6.37L-0.001,6.37z" fill="#FFFFFF"/>
		</g>
		<path xmlns="http://www.w3.org/2000/svg" class="secondary" d="M5.841,1.207l-0.662-0.01V1.165H4.479L4.476,1.191l-0.34,0.006L4.132,1.136c0,0-0.045,0.021-0.111,0.025   C3.956,1.165,3.452,1.165,3.452,1.165L3.386,2.01c0,0-0.045,0.22-0.211,0.076L2.716,1.395l-0.01-0.035l-0.084,0.01L2.608,1.507   L0.216,1.527L0.21,1.369L0.159,1.354L0.155,1.4l-0.213,0.025l-0.02-0.174l-0.064,0.021l-0.02,0.499c0,0-0.035,0.172-0.23,0.222   l-1.945,0.164c0,0-0.064,0.03-0.152-0.122c-0.088-0.153-0.26-0.448-0.26-0.448S-2.8,1.4-2.907,1.491c0,0-0.055,0.036-0.105,0.031   c-0.051-0.006-0.051-0.006-0.051-0.006l-0.033-0.188c0,0,0.061-0.03,0.057-0.051c-0.004-0.021-0.098-0.026-0.098-0.026   l-0.217-0.015l-0.107-0.01H-5.04c0,0-0.01,0.102-0.09,0.106C-5.206,1.34-5.782,1.318-5.782,1.318S-5.991,0.1-5.813-0.39l0.109-0.01   c0,0,0.057,0.147,0.625,0.396l0.01-0.152l0.135-0.061l0.436,0.273l0.088,0.006l0.004-0.092l0.158-0.01l0.01,0.122h0.307v0.143   l-0.025,0.046l0.006,0.209l0.561,0.03l0.014,0.167l0.111,0.01l0.008-0.319l0.205-0.005c0,0,0.268,0.014,0.152-0.464l-0.779-1.22   l0.732-0.244c0,0,0.102-0.03,0.125,0.046L-2.86-1.441c0,0-0.037,0,0.094,0.259c0.129,0.259,0.389,0.758,0.389,0.758h1.004   c0,0,0.068-0.995,0.348-1.736l0.963,0.288c0,0-0.396,1.309-0.305,1.669c0,0,0.098-0.432,0.242-0.518c0,0,0.326-0.034,0.457-0.015   c0.133,0.021,0.236,0.082,0.262,0.202c0,0,0.123-0.056,0.111,0.094l0.059,0.032l0.254,0.007L2.479-0.39L2.46-0.674   c0,0-0.055-0.107,0.027-0.133c0,0,0.047-0.188,0.047-0.213c0-0.026,0.033-1.094,0.033-1.094s0.295-0.062,0.561,0.01l-0.02,1.246   c0,0,0.006,0.106,0.006,0.162c0,0,0.07,0.036,0.037,0.138C3.118-0.456,3.108-0.375,3.108-0.375l0.518,0.016l0.012,0.036l0.904,0.02   c0,0,0.17,0.315,0,0.763L4.511,0.581c0,0,0.043,0.005,0.02,0.296h0.656l0.006-0.032l0.645,0.018   C5.837,0.862,5.938,1.003,5.841,1.207z M-1.513-0.268v-0.062L-2.06-0.344C-2.185-0.329-2.198-0.09-2.198-0.09   c0,0.143,0.162,0.178,0.162,0.178c-0.082-0.305,0.061-0.406,0.061-0.406l0.037,0.01c-0.037,0.031-0.061,0.184-0.061,0.184   c-0.004,0.111,0.148,0.232,0.148,0.232l0.338-0.029C-1.347-0.086-1.513-0.268-1.513-0.268z M-0.435,1.458   c0,0-1.26-0.008-1.611-0.014C-2.397,1.437-2.28,1.62-2.181,1.742c0.098,0.122,0.283,0.122,0.283,0.122s0.918-0.007,1.283-0.007   c0.363,0,0.348-0.081,0.348-0.081C-0.175,1.484-0.435,1.458-0.435,1.458z" fill="#FFFFFF"/>
	</g></svg>