<?xml version="1.0" standalone="no"?>
<svg xmlns="http://www.w3.org/2000/svg" viewBox="-6.37 -6.37 12.74 12.74" color="#212121" width="75" height="75"><g transform="matrix(1 0 0 -1 0 0)">
		<g xmlns="http://www.w3.org/2000/svg">
			<path class="primary" fill="currentColor" d="M-0.001-6.245c-3.443,0-6.244,2.802-6.244,6.245s2.801,6.245,6.244,6.245c3.444,0,6.246-2.802,6.246-6.245    S3.443-6.245-0.001-6.245z"/>
			<path class="secondary" d="M-0.001,6.12C3.38,6.12,6.12,3.38,6.12,0S3.38-6.12-0.001-6.12C-3.38-6.12-6.12-3.38-6.12,0    S-3.38,6.12-0.001,6.12 M-0.001,6.37C-3.513,6.37-6.37,3.513-6.37,0s2.857-6.37,6.369-6.37C3.512-6.37,6.37-3.513,6.37,0    S3.512,6.37-0.001,6.37L-0.001,6.37z" fill="#FFFFFF"/>
		</g>
		<path xmlns="http://www.w3.org/2000/svg" id="Grenade_2_" class="secondary" d="M1.035,4.519l0.108,0.009l0.922-2.53h0.19l0.019-0.154l0.244-0.025l0.434-0.779L2.897,0.777   L2.853,0.769V0.695l0.234-0.144L3.34-0.253L3.204-0.488l-0.027,0.01l0.209-0.28L3.34-1.555L3.177-1.718l0.117-0.29L3.142-2.793   L2.971-2.91L2.935-2.965l0.08-0.263l-0.37-0.678H2.571L2.554-3.968L2.418-4.03l0.036-0.291L1.876-4.945L0.864-5.369L0.692-5.378   l-1.04,0.036l-0.84,0.361l-0.77,0.813l0.011,0.172h0.044L-1.91-3.94L-2.02-3.896l-0.444,0.777l0.092,0.209v0.081l-0.18,0.154   l-0.182,0.759l0.145,0.18v0.117l-0.172,0.182l-0.036,0.769l0.172,0.126l0.027,0.1l-0.117,0.262l0.234,0.769l0.226,0.072   l0.019,0.109L-2.31,1.058l0.489,0.795l0.233,0.036l0.011,0.145l0.161,0.009l0.959,2.467l0.236,0.019l0.062,0.091L-0.23,4.636   l0.029,0.163c0,0-0.101,0.208-0.462,0.036c-0.361-0.172-1.203-1.058-1.32-1.4c0,0-0.832-1.601-0.886-2.17   c0,0-0.199-1.237-0.199-1.699c0-0.46,0.063-1.338,0.063-1.364c0-0.027-0.119-0.423-0.218-0.182   C-3.239-1.935-3.43-1.366-3.375-0.127c0.054,1.238,0.552,2.621,0.552,2.621s0.389,1.003,0.767,1.356c0,0,1.067,1.201,1.113,1.21   c0.046,0.01,0.886,0.38,1.536,0.308c0,0,0.207-0.009,0.207-0.082c0-0.071,0-0.071,0-0.071h0.182l0.054-0.172V4.519z" fill="#FFFFFF"/>
	</g></svg>