<?xml version="1.0" standalone="no"?>
<svg xmlns="http://www.w3.org/2000/svg" viewBox="-6.37 -6.37 12.74 12.74" color="#212121" width="75" height="75"><g transform="matrix(1 0 0 -1 0 0)">
		<g xmlns="http://www.w3.org/2000/svg">
			<path class="primary" fill="currentColor" d="M-0.001-6.245c-3.443,0-6.244,2.802-6.244,6.245s2.801,6.245,6.244,6.245c3.444,0,6.246-2.802,6.246-6.245    S3.443-6.245-0.001-6.245z"/>
			<path class="secondary" d="M-0.001,6.12C3.38,6.12,6.12,3.38,6.12,0S3.38-6.12-0.001-6.12C-3.38-6.12-6.12-3.38-6.12,0    S-3.38,6.12-0.001,6.12 M-0.001,6.37C-3.513,6.37-6.37,3.513-6.37,0s2.857-6.37,6.369-6.37C3.512-6.37,6.37-3.513,6.37,0    S3.512,6.37-0.001,6.37L-0.001,6.37z" fill="#FFFFFF"/>
		</g>
		<g xmlns="http://www.w3.org/2000/svg" id="Intercontinental_2_">
			<g>
				<line class="secondary" x1="-0.006" y1="2.926" x2="0.004" y2="-0.056" fill="#FFFFFF"/>

				<rect x="-0.356" y="-0.056" transform="matrix(1 -0.0033 0.0033 1 -0.0047 3.698041e-06)" class="secondary" width="0.71" height="2.981" fill="#FFFFFF"/>
			</g>
			<g>
				<polygon class="secondary" points="-0.001,-4.59 -1.256,-5.135 -0.982,-5.625 -0.383,-5.625 -0.001,-5.244 0.326,-5.625 0.926,-5.625      1.253,-5.135 -0.001,-4.59    " fill="#FFFFFF"/>
				<path class="secondary" d="M0.938-5.646H0.315L0.309-5.639l-0.311,0.363l-0.37-0.371h-0.622l-0.007,0.012l-0.284,0.511l0.023,0.01     l1.261,0.55l0.008-0.005l1.279-0.555L0.938-5.646z M0.336-5.603h0.576L1.22-5.145l-1.221,0.531l-1.223-0.531l0.255-0.458h0.576     l0.392,0.392L0.336-5.603z" fill="#FFFFFF"/>
			</g>
			<g>
				<polygon class="secondary" points="-0.001,3.453 -0.219,2.962 0.218,2.962 -0.001,3.453    " fill="#FFFFFF"/>
				<polygon class="secondary" points="0.422,2.829 -0.425,2.829 -0.001,3.781    " fill="#FFFFFF"/>
			</g>
			<g>
				<polygon class="secondary" points="-0.055,0.516 -0.764,0.079 0.762,0.079 -0.055,0.516    " fill="#FFFFFF"/>
				<path class="secondary" d="M0.762,0.057h-1.604l0.786,0.483l0.011-0.006l0.816-0.436L0.762,0.057z M-0.686,0.102h1.358l-0.728,0.388     L-0.686,0.102z" fill="#FFFFFF"/>
			</g>
			<g>
				<line class="secondary" x1="-0.001" y1="5.164" x2="-0.001" y2="2.44" fill="#FFFFFF"/>
				<rect x="-0.134" y="2.44" class="secondary" width="0.266" height="2.724" fill="#FFFFFF"/>
			</g>
			<g>
				<polygon class="secondary" points="-0.028,5.602 -0.246,5.164 0.245,5.164 -0.028,5.602    " fill="#FFFFFF"/>
				<path class="secondary" d="M0.283,5.143h-0.566l0.018,0.031l0.236,0.473L0.283,5.143z M-0.21,5.187h0.414l-0.231,0.369L-0.21,5.187z" fill="#FFFFFF"/>
			</g>
			<g>
				<line class="secondary" x1="-0.001" y1="0.097" x2="-0.001" y2="-5.025" fill="#FFFFFF"/>
				<rect x="-0.5" y="-5.025" class="secondary" width="0.999" height="5.122" fill="#FFFFFF"/>
			</g>
		</g>
	</g></svg>