<?xml version="1.0" standalone="no"?>
<svg xmlns="http://www.w3.org/2000/svg" viewBox="-6.37 -6.37 12.74 12.74" color="#212121" width="75" height="75"><g transform="matrix(1 0 0 -1 0 0)">
		<g xmlns="http://www.w3.org/2000/svg">
			<path class="primary" fill="currentColor" d="M-0.001-6.245c-3.443,0-6.244,2.801-6.244,6.244c0,3.444,2.801,6.246,6.244,6.246    c3.444,0,6.246-2.802,6.246-6.246C6.245-3.444,3.443-6.245-0.001-6.245z"/>
			<path class="secondary" d="M-0.001,6.12c3.381,0,6.121-2.74,6.121-6.121c0-3.379-2.74-6.119-6.121-6.119    c-3.379,0-6.119,2.74-6.119,6.119C-6.12,3.38-3.38,6.12-0.001,6.12 M-0.001,6.37c-3.512,0-6.369-2.858-6.369-6.371    c0-3.512,2.857-6.369,6.369-6.369c3.513,0,6.371,2.857,6.371,6.369C6.37,3.512,3.512,6.37-0.001,6.37L-0.001,6.37z" fill="#FFFFFF"/>
		</g>
		<path xmlns="http://www.w3.org/2000/svg" id="Machine_Gun_2_" class="secondary" d="M5.16,1.419h0.232V1.388v-0.24l0.113-0.365l0.007-0.023V0.741l0.048,0.004V0.724h0.017   v0.018l0.046,0.004l0.002-0.021V0.702V0.69V0.669V0.651V0.63V0.606V0.591V0.563v-0.01V0.522V0.501V0.489H5.577v0.012v0.01H5.562   v-0.01L5.561,0.489H5.513h-0.35L5.16,0.499H4.812L4.809,0.495L4.808,0.493L4.303,0.491L4.297,0.485L3.745,0.483L3.737,0.476   L3.67,0.474l-0.002-0.02H3.162V0.437L2.91,0.435L2.852,0.399L2.822,0.39H1.696L1.42,0.388L1.329,0.366L1.18,0.313H1.139H1.105   L0.726,0.31L0.457,0.302l-0.07-0.02L0.354,0.257L0.339,0.226L0.331,0.169V0.028L0.337-0.06l0.024-0.08l0.021-0.055H0.301L0.3-0.337   v-0.004v-0.002v-0.004v-0.006v-0.006v-0.006v-0.004v-0.006v-0.004l0.001-0.004v-0.004v-0.006v-0.006v-0.004v-0.004v-0.008v-0.002   v-0.002v-0.002v-0.006v-0.006v-0.004L0.303-0.44v-0.002v-0.002v-0.004V-0.45v-0.002v-0.002v-0.004v-0.01v-0.01v-0.004l0.008-0.168   l0.012-0.154L0.34-0.95l0.03-0.16l0.023-0.115L0.45-1.452l0.058-0.195l0.048-0.146l0.052-0.141l0.048-0.119l0.023,0.01l0.007-0.01   l0.004-0.008l-0.021-0.01L0.65-2.077L0.438-2.185l0.003-0.014L0.438-2.21L0.424-2.218L0.402-2.22L0.388-2.21l-0.17-0.084   l0.001-0.008L0.21-2.319L0.198-2.325H0.182L0.171-2.323L0.161-2.31L0.159-2.3l0.009,0.016v0.004L0.069-2.075L0.068-2.063   l-0.036,0.09l-0.056,0.172l-0.053,0.184l-0.039,0.152l-0.05,0.23l0.001,0.008l-0.032,0.189l-0.011,0.094l-0.015,0.121L-0.24-0.608   l-0.013,0.201v0.197l-0.103-0.002l-0.146-0.043l-0.064-0.041l-0.045-0.008l-0.061,0.006L-0.728-0.3l-0.065-0.008l-0.068-0.016   L-0.92-0.351l-0.043-0.051L-0.99-0.438l-0.058-0.07L-1.065-0.53l-0.062-0.055L-1.221-0.62l-0.081-0.023h-0.213L-1.603-0.62   l-0.187,0.076l-0.052-0.012l-0.068-0.061L-2.022-0.78l-0.11-0.176l-0.035-0.078l-0.009-0.014L-2.198-1.11l-0.044-0.025   l-0.081,0.004l-0.181,0.086l-0.103,0.057l-0.039,0.021l-0.036,0.047l-0.023,0.045l0.013,0.057l0.312,0.479l0.183,0.271l0.041,0.133   l-0.021,0.07l-0.055,0.033l-0.062,0.016h-0.011l-0.591-0.002l-0.106,0.002l-0.185-0.02L-3.25,0.147l-0.059-0.02l-0.105-0.047   l-0.487-0.223l-0.495-0.242L-4.768-0.55v-0.012l-0.034-0.014l-0.024-0.01l-0.007-0.02l-0.011-0.008l-0.014-0.006l-0.024,0.006   L-4.887-0.61l-0.33-0.127L-5.35-0.753h-0.023L-5.467-0.72l-0.01,0.01l-0.053,0.09l-0.02,0.086l-0.002,0.061l-0.013,0.012   l-0.004,0.01v0.018l0.004,0.014l0.008,0.008l0.007,0.002l0.002,0.045l-0.001,0.02l0.015-0.002l0.003,0.18l-0.016,0.271L-5.57,0.308   l-0.013,0.068l-0.009,0.018l-0.01,0.037l-0.014,0.008l-0.009,0.02l0.001,0.021l0.007,0.01l-0.006,0.057l-0.002,0.096l0.024,0.1   l0.002,0.006l0.074,0.068l0.211,0.027l0.416,0.002l0.191-0.002l0.001-0.016L-4.387,0.8l0.254-0.012l0.19-0.006l0.22,0.014   l0.162,0.021l0.081,0.037l0.164,0.092l0.049,0.02l0.059,0.01h0.204h0.529l0.169-0.002l0.013-0.014l0.653,0.004h0.862L0.011,0.97   l0.053,0.119l0.002,0.029L0.068,1.12l0.022,0.076h0.034l0.012,0.008l0.019,0.002l0.007-0.002l0.016-0.008l0.008-0.01L0.601,1.2   l0.033,0.008h0.015l0.013-0.006l0.07,0.004V1.177L0.729,1.173l0.003-0.004V1.077L0.783,0.97l0.184-0.002L1.104,0.96v0.014   l0.646,0.002l0.087-0.002l0.001-0.008l0.08-0.002v0.008L2.35,0.974v-0.01L2.425,0.97v0.004h0.734l0.003,0.023h0.504L3.668,0.96   H3.69V0.921h0.124l0.001-0.033h0.42l0.005,0.01l0.017,0.014l0.021,0.004L4.3,0.911L4.32,0.894l0.009-0.016l0.006-0.021L4.332,0.831   L4.329,0.823L4.32,0.808L4.303,0.794L4.283,0.79l-0.02,0.004L4.244,0.806L4.24,0.808L4.236,0.815H3.815L3.814,0.782H3.69V0.745   H3.668V0.657l0.069-0.002l0.008-0.006h0.549l0.009-0.01l0.505-0.002l0.005-0.004H5.16v0.059v0.455v0.24V1.419L5.16,1.419z    M-4.756,0.858l0.002-0.01l-0.062,0.002l0.001,0.006l0.012,0.01l0.025,0.002l0.014-0.004L-4.756,0.858L-4.756,0.858z" fill="#FFFFFF"/>
	</g></svg>