<?xml version="1.0" standalone="no"?>
<svg xmlns="http://www.w3.org/2000/svg" viewBox="-8.64 -8.64 17.28 17.28" color="#212121" width="75" height="75"><g transform="matrix(1 0 0 -1 0 0)">
			<circle xmlns="http://www.w3.org/2000/svg" fill="currentColor" cx="0" cy="0" r="8.64"/>
			<g xmlns="http://www.w3.org/2000/svg">
				<polygon fill="#FFFFFF" points="-5.94,-2.25 -6.51,-1.64 -6.44,-1.6 -6.99,-0.99 -6.63,-0.67 -5.63,-0.73 -4.49,0.38 -4.32,0.35     -5.11,0.91 -4.51,1.64 -1.78,3.15 0.97,5.96 2.4,6.92 2.47,6.97 2.49,6.95 2.51,6.95 2.69,6.78 2.64,6.81 2.64,6.8 2.66,6.79     2.61,6.71 1.65,5.28 -1.16,2.53 -2.67,-0.2 -3.4,-0.8 -3.96,-0.01 -3.93,-0.18 -5.04,-1.32 -4.98,-2.32 -5.3,-2.68 -5.91,-2.13     -5.95,-2.2 -6.55,-1.63   "/>
				<polygon fill="#FFFFFF" points="-3.79,-4.39 -4.36,-3.79 -4.29,-3.74 -4.84,-3.14 -4.48,-2.81 -3.48,-2.87 -2.34,-1.77     -2.17,-1.79 -2.96,-1.24 -2.36,-0.51 0.37,1.01 3.11,3.81 4.54,4.77 4.61,4.82 4.64,4.81 4.66,4.8 4.84,4.63 4.79,4.67 4.79,4.66     4.81,4.64 4.75,4.56 3.79,3.13 0.99,0.39 -0.53,-2.34 -1.25,-2.95 -1.81,-2.15 -1.78,-2.33 -2.89,-3.46 -2.83,-4.47 -3.16,-4.82     -3.76,-4.28 -3.8,-4.35 -4.41,-3.77   "/>
				<polygon fill="#FFFFFF" points="-1.64,-6.54 -2.22,-5.93 -2.15,-5.89 -2.69,-5.29 -2.34,-4.96 -1.33,-5.02 -0.2,-3.91     -0.02,-3.94 -0.82,-3.38 -0.21,-2.66 2.52,-1.14 5.26,1.66 6.69,2.62 6.76,2.68 6.79,2.66 6.81,2.66 6.99,2.48 6.94,2.52     6.94,2.51 6.95,2.5 6.9,2.41 5.94,0.98 3.14,-1.76 1.62,-4.49 0.9,-5.09 0.34,-4.3 0.36,-4.47 -0.74,-5.61 -0.68,-6.61     -1.01,-6.97 -1.62,-6.42 -1.65,-6.49 -2.26,-5.92   "/>
			</g>
		</g></svg>