<?xml version="1.0" standalone="no"?>
<svg xmlns="http://www.w3.org/2000/svg" viewBox="-6.12 -6.12 12.24 12.24" color="#212121" width="75" height="75"><g transform="matrix(1 0 0 -1 0 0)">
		<circle xmlns="http://www.w3.org/2000/svg" class="primary" fill="currentColor" cx="0" cy="0" r="5.507"/>
		<path xmlns="http://www.w3.org/2000/svg" class="secondary" d="M0-6.12c-3.374,0-6.12,2.746-6.12,6.12S-3.374,6.12,0,6.12S6.12,3.374,6.12,0S3.374-6.12,0-6.12L0-6.12z    M0,5.424C-2.99,5.424-5.424,2.99-5.424,0S-2.99-5.424,0-5.424S5.424-2.99,5.424,0S2.99,5.424,0,5.424L0,5.424z" fill="#FFFFFF"/>
		<path xmlns="http://www.w3.org/2000/svg" class="secondary" d="M5.318-0.001c0,0.724-1.129,1.259-2.637,1.547C2.806,1.898,2.906,2.24,2.977,2.561   c0.233,1.066,0.12,1.793-0.317,2.046C2.551,4.669,2.426,4.7,2.288,4.7C1.691,4.7,0.856,4.098,0,3.104   C-0.855,4.098-1.689,4.7-2.288,4.7c-0.137,0-0.263-0.031-0.371-0.094c-0.627-0.362-0.523-1.611-0.019-3.061   c-1.508-0.287-2.641-0.822-2.641-1.547c0-0.723,1.131-1.257,2.637-1.546c-0.124-0.353-0.225-0.694-0.295-1.014   c-0.233-1.066-0.12-1.794,0.317-2.046C-2.551-4.67-2.425-4.7-2.288-4.7C-1.689-4.7-0.855-4.098,0-3.105   c0.856-0.992,1.689-1.596,2.288-1.596c0.138,0,0.263,0.031,0.371,0.095c0.438,0.252,0.551,0.98,0.317,2.046   c-0.07,0.319-0.171,0.661-0.295,1.014C4.189-1.258,5.318-0.724,5.318-0.001z M2.288,4.426c0.089,0,0.167-0.021,0.234-0.058   c0.32-0.186,0.389-0.823,0.187-1.749c-0.071-0.321-0.174-0.666-0.3-1.024C1.966,1.668,1.495,1.722,1.017,1.753   C0.742,2.166,0.462,2.547,0.182,2.888C0.988,3.831,1.771,4.426,2.288,4.426z M1.311-0.757C1.163-1.01,1.013-1.255,0.858-1.49   C0.582-1.505,0.297-1.511,0-1.511c-0.295,0-0.582,0.006-0.857,0.021C-1.013-1.255-1.163-1.01-1.31-0.757   C-1.457-0.5-1.593-0.248-1.719-0.003C-1.591,0.25-1.455,0.504-1.31,0.756c0.146,0.253,0.297,0.498,0.452,0.734   C-0.582,1.504-0.295,1.512,0,1.512c0.297,0,0.583-0.008,0.858-0.021C1.013,1.253,1.163,1.009,1.31,0.756   c0.146-0.252,0.281-0.505,0.409-0.757C1.591-0.251,1.456-0.504,1.311-0.757z M1.869-0.307c0.168-0.352,0.318-0.697,0.446-1.034   C1.97-1.396,1.598-1.439,1.2-1.469C1.318-1.283,1.434-1.09,1.548-0.894C1.661-0.698,1.767-0.502,1.869-0.307z M0.671-1.772   C0.449-2.094,0.225-2.395,0-2.672c-0.224,0.277-0.448,0.578-0.669,0.899C-0.446-1.781-0.223-1.787,0-1.787   C0.224-1.787,0.447-1.781,0.671-1.772z M-1.199-1.469C-1.597-1.439-1.97-1.396-2.315-1.341c0.128,0.336,0.278,0.683,0.446,1.034   c0.104-0.197,0.211-0.395,0.322-0.587C-1.434-1.09-1.317-1.283-1.199-1.469z M-1.87,0.304C-2.045,0.663-2.193,1.011-2.319,1.34   c0.346,0.055,0.722,0.099,1.12,0.129C-1.318,1.282-1.434,1.09-1.547,0.894C-1.661,0.696-1.767,0.5-1.87,0.304z M-0.669,1.771   C-0.448,2.093-0.224,2.394,0,2.67c0.225-0.276,0.449-0.577,0.671-0.899C0.447,1.781,0.224,1.786,0,1.786   C-0.223,1.786-0.446,1.781-0.669,1.771z M1.548,0.894C1.434,1.09,1.318,1.282,1.2,1.469c0.397-0.03,0.77-0.074,1.115-0.129   C2.188,1.004,2.037,0.657,1.869,0.306C1.767,0.501,1.661,0.697,1.548,0.894z M-2.522,4.368c0.067,0.038,0.146,0.058,0.234,0.058   c0.518,0,1.3-0.595,2.106-1.538c-0.28-0.341-0.561-0.722-0.834-1.135c-0.48-0.031-0.953-0.085-1.398-0.159   C-2.934,3.061-2.949,4.121-2.522,4.368z M-5.044-0.001c0,0.494,0.927,1.011,2.456,1.294c0.159-0.422,0.35-0.858,0.562-1.292   c-0.22-0.439-0.409-0.875-0.566-1.294C-4.119-1.01-5.044-0.493-5.044-0.001z M-2.288-4.426c-0.09,0-0.166,0.019-0.234,0.058   C-2.843-4.184-2.91-3.547-2.707-2.62c0.07,0.321,0.173,0.667,0.3,1.025c0.441-0.074,0.913-0.128,1.392-0.159   c0.273-0.413,0.554-0.793,0.834-1.135C-0.988-3.832-1.771-4.426-2.288-4.426z M2.707-2.62c0.204-0.927,0.136-1.563-0.185-1.748   C2.455-4.407,2.377-4.426,2.288-4.426c-0.518,0-1.3,0.594-2.106,1.537c0.28,0.342,0.561,0.722,0.835,1.135   c0.479,0.031,0.949,0.085,1.393,0.159C2.535-1.953,2.638-2.298,2.707-2.62z M2.592-1.293C2.436-0.875,2.246-0.44,2.026-0.001   c0.22,0.439,0.409,0.875,0.565,1.293c1.528-0.283,2.452-0.8,2.452-1.293C5.044-0.493,4.12-1.01,2.592-1.293z" fill="#FFFFFF"/>
		<path xmlns="http://www.w3.org/2000/svg" class="secondary" d="M0,0.533c0.295,0,0.533-0.239,0.533-0.534c0-0.294-0.238-0.532-0.533-0.532c-0.294,0-0.533,0.238-0.533,0.532   C-0.533,0.294-0.294,0.533,0,0.533z" fill="#FFFFFF"/>
	</g></svg>