<?xml version="1.0" standalone="no"?>
<svg xmlns="http://www.w3.org/2000/svg" viewBox="-6.37 -6.37 12.74 12.74" color="#212121" width="75" height="75"><g transform="matrix(1 0 0 -1 0 0)">
		<g xmlns="http://www.w3.org/2000/svg">
			<path class="primary" fill="currentColor" d="M-0.001-6.245c-3.443,0-6.244,2.802-6.244,6.245s2.801,6.245,6.244,6.245c3.444,0,6.246-2.802,6.246-6.245    S3.443-6.245-0.001-6.245z"/>
			<path class="secondary" d="M-0.001,6.12C3.38,6.12,6.12,3.38,6.12,0S3.38-6.12-0.001-6.12C-3.38-6.12-6.12-3.38-6.12,0    S-3.38,6.12-0.001,6.12 M-0.001,6.37C-3.513,6.37-6.37,3.513-6.37,0s2.857-6.37,6.369-6.37C3.512-6.37,6.37-3.513,6.37,0    S3.512,6.37-0.001,6.37L-0.001,6.37z" fill="#FFFFFF"/>
		</g>
		<path xmlns="http://www.w3.org/2000/svg" class="secondary" d="M5.068,2.298l-0.016,0.51H4.782c0,0-0.135,0.039-0.27,0.058c-0.136,0.02-0.104-0.051-0.104-0.051   S-2.76,2.84-3.197,2.84s-0.47,0.032-0.47,0.032h-0.282V2.847h-0.032v0.057c-0.052,0.007-0.27,0.123-0.27,0.123l-0.242,0.011   l-0.042,0.125l-0.095,0.041l0.053-0.645c-0.117-0.178-0.307-0.874-0.307-0.874s-0.116-0.126-0.2-0.459   c-0.084-0.333,0.243-0.354,0.243-0.354s0.442,0.021,0.801,0.104C-3.683,1.06-3.64,0.57-3.64,0.57l-0.169-0.312   c-0.645-1.165-0.822-2.269-0.802-2.57C-4.589-2.615-4.22-2.823-4.22-2.823s0.653-0.197,1.085-0.333s0.422,0.073,0.422,0.073   l1.075,2.935c0.274,0.114,0.401,0.052,0.401,0.052C-0.594-0.679,0.06-0.346,0.06-0.346c0.496,0.177,0.517,0.645,0.517,0.645   c0.053,0.428,0.496,0.406,0.496,0.406h0.273l0.2,0.396l0.106,0.012l0.116,0.291c0,0,2.973-0.011,3.099-0.011   c0.127,0,0.158,0.072,0.158,0.072C5.163,1.652,5.068,2.298,5.068,2.298z M-1.032,0.001c0,0-0.267,0.208-0.07,0.527h0.064   l0.041-0.319l0.063-0.049c0,0,0.14-0.271,0.4-0.222c0,0,0.021,0.069-0.007,0.09C-0.568,0.049-0.779,0.091-0.85,0.41   c0,0,0.049,0.292,0.295,0.361l0.514-0.021c0,0,0.477-0.097,0.407-0.568C0.366,0.182-0.119-0.513-1.032,0.001z" fill="#FFFFFF"/>
	</g></svg>