<?xml version="1.0" standalone="no"?>
<svg xmlns="http://www.w3.org/2000/svg" viewBox="-6.12 -6.12 12.24 12.24" color="#212121" width="75" height="75"><g transform="matrix(1 0 0 -1 0 0)">
		<path xmlns="http://www.w3.org/2000/svg" class="primary" fill="currentColor" d="M5.752,0c0-3.203-2.596-5.8-5.799-5.8S-5.848-3.203-5.848,0s2.598,5.8,5.801,5.8S5.752,3.203,5.752,0z"/>
		<path xmlns="http://www.w3.org/2000/svg" class="secondary" d="M0-6.12c-3.374,0-6.12,2.746-6.12,6.12S-3.374,6.12,0,6.12S6.12,3.374,6.12,0S3.374-6.12,0-6.12L0-6.12z    M0,5.424C-2.99,5.424-5.424,2.99-5.424,0S-2.99-5.424,0-5.424S5.424-2.99,5.424,0S2.99,5.424,0,5.424L0,5.424z" fill="#FFFFFF"/>
		<g xmlns="http://www.w3.org/2000/svg">
			<path class="secondary" d="M2.482-4.325l-1.65,2.833C0.529-1.691-0.041-1.706-0.041-1.706s-0.578,0.015-0.881,0.214l-1.655-2.833    c0,0,0.973-0.752,2.558-0.752C1.56-5.077,2.482-4.325,2.482-4.325L2.482-4.325L2.482-4.325z" fill="#FFFFFF"/>
			<path class="secondary" d="M-0.012-1.02c0.541,0,0.973,0.44,0.973,0.978c0,0.541-0.432,0.981-0.973,0.981    c-0.541,0-0.979-0.44-0.979-0.981C-0.99-0.579-0.553-1.02-0.012-1.02L-0.012-1.02L-0.012-1.02z" fill="#FFFFFF"/>
			<path class="secondary" d="M2.449,4.262l-1.625-2.85c0.322-0.161,0.614-0.647,0.614-0.647s0.282-0.52,0.257-0.885l3.282,0.002    c0,0,0.166,1.21-0.624,2.584C3.56,3.838,2.449,4.262,2.449,4.262L2.449,4.262L2.449,4.262z" fill="#FFFFFF"/>
			<path class="secondary" d="M-4.973-0.058h3.284c-0.024,0.365,0.251,0.871,0.251,0.871S-1.14,1.309-0.81,1.472L-2.44,4.319    c0,0-1.136-0.465-1.929-1.837C-5.159,1.114-4.973-0.058-4.973-0.058L-4.973-0.058L-4.973-0.058z" fill="#FFFFFF"/>
		</g>
	</g></svg>