<?xml version="1.0" standalone="no"?>
<svg xmlns="http://www.w3.org/2000/svg" viewBox="-6.37 -6.37 12.74 12.74" color="#212121" width="75" height="75"><g transform="matrix(1 0 0 -1 0 0)">
		<g xmlns="http://www.w3.org/2000/svg">
			<path class="primary" fill="currentColor" d="M-0.001-6.245c-3.443,0-6.244,2.802-6.244,6.245s2.801,6.245,6.244,6.245c3.444,0,6.246-2.802,6.246-6.245    S3.443-6.245-0.001-6.245z"/>
			<path class="secondary" d="M-0.001,6.12C3.38,6.12,6.12,3.38,6.12,0S3.38-6.12-0.001-6.12C-3.38-6.12-6.12-3.38-6.12,0    S-3.38,6.12-0.001,6.12 M-0.001,6.37C-3.513,6.37-6.37,3.513-6.37,0s2.857-6.37,6.369-6.37C3.512-6.37,6.37-3.513,6.37,0    S3.512,6.37-0.001,6.37L-0.001,6.37z" fill="#FFFFFF"/>
		</g>
		<polygon xmlns="http://www.w3.org/2000/svg" id="Rocket_Launcher_2_" class="secondary" points="5.626,0.946 5.672,0.92 5.71,0.892 5.752,0.852 5.787,0.812 5.816,0.77    5.845,0.719 5.878,0.635 5.896,0.564 5.899,0.544 5.906,0.484 5.906,0.412 5.896,0.33 5.873,0.246 5.84,0.166 5.794,0.097    5.735,0.029 5.665,-0.023 5.594,-0.06 5.536,-0.076 5.509,-0.082 5.421,-0.087 5.347,-0.078 5.27,-0.053 5.21,-0.022 5.149,0.023    5.108,0.062 5.097,0.065 4.55,0.044 4.489,0.035 4.074,0.018 3.24,-0.025 3.246,-0.063 3.243,-0.08 3.235,-0.094 3.225,-0.105    3.162,-0.148 3.15,-0.155 3.135,-0.16 2.353,-0.197 2.352,-0.217 2.362,-0.253 2.643,-1.003 2.653,-1.043 2.653,-1.072    2.644,-1.097 2.624,-1.11 2.532,-1.172 2.509,-1.175 2.479,-1.166 2.442,-1.141 2.413,-1.111 2.383,-1.07 1.9,-0.316 1.891,-0.301    1.856,-0.305 1.527,-0.32 1.495,-0.324 1.464,-0.314 1.453,-0.309 1.449,-0.307 1.419,-0.287 1.403,-0.27 1.39,-0.243    1.071,-0.236 1.433,-1.074 1.423,-1.102 1.414,-1.107 1.417,-1.107 1.413,-1.107 1.316,-1.175 1.315,-1.176 1.312,-1.179    1.304,-1.18 1.218,-1.214 1.216,-1.215 0.973,-1.254 0.996,-1.334 0.998,-1.341 0.999,-1.346 1,-1.354 1.001,-1.357 1.002,-1.365    1.003,-1.371 1.005,-1.374 1.005,-1.38 1.007,-1.396 1.007,-1.424 0.997,-1.447 0.976,-1.463 0.975,-1.465 0.816,-1.575    0.787,-1.58 -0.537,-1.717 -0.594,-1.715 -0.648,-1.7 -0.697,-1.673 -0.752,-1.626 -0.754,-1.623 -0.759,-1.618 -0.761,-1.615    -0.765,-1.611 -0.767,-1.607 -0.771,-1.603 -0.774,-1.601 -0.777,-1.597 -0.78,-1.592 -0.783,-1.589 -0.788,-1.585 -0.79,-1.582    -0.798,-1.568 -0.804,-1.563 -0.807,-1.559 -0.808,-1.555 -0.81,-1.553 -0.811,-1.551 -0.813,-1.548 -0.815,-1.546 -0.816,-1.544    -0.817,-1.54 -0.819,-1.538 -0.821,-1.535 -0.823,-1.533 -0.825,-1.531 -0.827,-1.527 -0.83,-1.525 -0.83,-1.523 -0.832,-1.521    -0.836,-1.514 -0.839,-1.508 -0.841,-1.506 -0.845,-1.499 -0.853,-1.483 -0.844,-1.465 -0.863,-1.427 -0.882,-1.427 -1.37,-0.191    -5.556,-0.356 -5.595,-0.358 -5.632,-0.353 -5.678,-0.331 -5.729,-0.29 -5.732,-0.277 -5.733,-0.257 -5.741,-0.236 -5.743,-0.235    -5.77,-0.235 -5.778,-0.232 -5.817,-0.167 -5.845,-0.107 -5.866,-0.04 -5.884,0.027 -5.896,0.107 -5.904,0.179 -5.905,0.267    -5.903,0.33 -5.894,0.406 -5.882,0.477 -5.863,0.549 -5.84,0.612 -5.815,0.662 -5.773,0.729 -5.765,0.731 -5.737,0.731    -5.729,0.75 -5.728,0.771 -5.724,0.781 -5.676,0.816 -5.664,0.822 -5.677,0.828 -5.7,0.853 -5.709,0.875 -5.717,0.902    -5.721,0.922 -5.722,0.948 -5.712,1.026 -5.628,1.468 -5.613,1.505 -5.586,1.541 -5.443,1.698 -5.426,1.714 -5.408,1.716    -5.331,1.714 -5.313,1.706 -5.304,1.69 -5.293,1.667 -5.065,0.926 -5.058,0.891 -5.056,0.863 -5.059,0.837 -1.58,0.834    -1.597,0.848 -1.615,0.876 -1.627,0.912 -1.63,0.944 -1.625,0.984 -1.583,1.191 -1.585,1.193 -1.574,1.238 -1.574,1.243    -1.569,1.271 -1.569,1.273 -1.566,1.279 -1.567,1.282 -1.559,1.32 -1.556,1.33 -1.549,1.345 -1.537,1.359 -1.522,1.369    -1.445,1.438 -1.441,1.442 -1.437,1.447 -1.433,1.45 -1.429,1.455 -1.356,1.518 -1.326,1.518 -1.322,1.514 -1.319,1.516    -1.314,1.528 -1.315,1.543 -1.319,1.551 -1.301,1.568 -1.278,1.569 -1.269,1.568 -1.121,1.178 -0.991,0.834 5.065,0.829    5.084,0.837 5.092,0.854 5.104,0.854 5.111,0.854 5.115,0.854 5.118,0.854 5.179,0.95 5.187,0.959 5.195,0.963 5.214,0.965    5.278,0.964 5.288,0.967 5.333,0.997 5.354,1.002 5.394,1.005 5.464,0.999 5.58,0.964 5.626,0.946  " fill="#FFFFFF"/>
	</g></svg>