<?xml version="1.0" standalone="no"?>
<svg xmlns="http://www.w3.org/2000/svg" viewBox="-6.37 -6.37 12.74 12.74" color="#212121" width="75" height="75"><g transform="matrix(1 0 0 -1 0 0)">
		<g xmlns="http://www.w3.org/2000/svg" id="Circle_158_">
			<path class="primary" fill="currentColor" d="M-0.001-6.245c-3.443,0-6.244,2.802-6.244,6.246c0,3.443,2.801,6.244,6.244,6.244    c3.444,0,6.246-2.801,6.246-6.244C6.245-3.443,3.443-6.245-0.001-6.245z"/>
			<path class="secondary" d="M-0.001,6.12c3.381,0,6.121-2.74,6.121-6.119c0-3.381-2.74-6.121-6.121-6.121    c-3.379,0-6.119,2.74-6.119,6.121C-6.12,3.38-3.38,6.12-0.001,6.12 M-0.001,6.37c-3.512,0-6.369-2.857-6.369-6.369    c0-3.513,2.857-6.371,6.369-6.371c3.513,0,6.371,2.858,6.371,6.371C6.37,3.513,3.512,6.37-0.001,6.37L-0.001,6.37z" fill="#FFFFFF"/>
		</g>
		<path xmlns="http://www.w3.org/2000/svg" class="secondary" d="M0.821-5.534c0,0-0.001,0.086,0,0.41c0.003,0.322-0.078,0.375-0.078,0.375L0.479-4.198v5.146L0.431,1.11   c0,0,0.001,2.025,0,2.289c-0.003,0.264-0.036,0.6-0.132,1.254C0.203,5.306,0,5.628,0,5.628s-0.204-0.322-0.3-0.975   c-0.095-0.654-0.128-0.99-0.13-1.254c-0.003-0.264,0-2.289,0-2.289l-0.05-0.162v-5.146l-0.263-0.551c0,0-0.081-0.053-0.079-0.375   c0-0.324,0-0.41,0-0.41s-0.021-0.094,0.086-0.094c0.108,0,0.735,0,0.735,0s0.627,0,0.734,0C0.843-5.628,0.821-5.534,0.821-5.534z" fill="#FFFFFF"/>
	</g></svg>