<?xml version="1.0" standalone="no"?>
<svg xmlns="http://www.w3.org/2000/svg" viewBox="-6.37 -6.37 12.74 12.74" color="#212121" width="75" height="75"><g transform="matrix(1 0 0 -1 0 0)">
		<g xmlns="http://www.w3.org/2000/svg" id="Circle_137_">
			<path class="primary" fill="currentColor" d="M-0.001-6.245c-3.443,0-6.244,2.802-6.244,6.246c0,3.443,2.801,6.244,6.244,6.244    c3.444,0,6.246-2.801,6.246-6.244C6.245-3.443,3.443-6.245-0.001-6.245z"/>
			<path class="secondary" d="M-0.001,6.12c3.381,0,6.121-2.74,6.121-6.119c0-3.381-2.74-6.121-6.121-6.121    c-3.379,0-6.119,2.74-6.119,6.121C-6.12,3.38-3.38,6.12-0.001,6.12 M-0.001,6.37c-3.512,0-6.369-2.857-6.369-6.369    c0-3.513,2.857-6.371,6.369-6.371c3.513,0,6.371,2.858,6.371,6.371C6.37,3.513,3.512,6.37-0.001,6.37L-0.001,6.37z" fill="#FFFFFF"/>
		</g>
		<path xmlns="http://www.w3.org/2000/svg" class="secondary" d="M0.43-4.437v0.605l0.057,0.172v5.982L0.43,2.509v0.939c0,0-0.37,2.318-0.43,2.336h-0.001l0,0l0,0l0,0   C-0.062,5.767-0.43,3.448-0.43,3.448V2.509l-0.059-0.186v-5.982l0.059-0.172v-0.605l-0.441-0.756v-0.592h0.441v0.117l0.186,0.01   v-0.057h0.116l0.046,0.057l0.081-0.125v-0.002l0,0l0,0v0.002L0.08-5.657l0.047-0.057h0.115v0.057l0.188-0.01v-0.117h0.44v0.592   L0.43-4.437z" fill="#FFFFFF"/>
	</g></svg>