<?xml version="1.0" standalone="no"?>
<svg xmlns="http://www.w3.org/2000/svg" viewBox="-6.37 -6.37 12.74 12.74" color="#212121" width="75" height="75"><g transform="matrix(1 0 0 -1 0 0)">
		<g xmlns="http://www.w3.org/2000/svg">
			<path class="primary" fill="currentColor" d="M-0.001-6.245c-3.443,0-6.244,2.802-6.244,6.245s2.801,6.245,6.244,6.245c3.444,0,6.246-2.802,6.246-6.245    S3.443-6.245-0.001-6.245z"/>
			<path class="secondary" d="M-0.001,6.12C3.38,6.12,6.12,3.38,6.12,0S3.38-6.12-0.001-6.12C-3.38-6.12-6.12-3.38-6.12,0    S-3.38,6.12-0.001,6.12 M-0.001,6.37C-3.513,6.37-6.37,3.513-6.37,0s2.857-6.37,6.369-6.37C3.512-6.37,6.37-3.513,6.37,0    S3.512,6.37-0.001,6.37L-0.001,6.37z" fill="#FFFFFF"/>
		</g>
		<path xmlns="http://www.w3.org/2000/svg" id="Short_Range_2_" class="secondary" d="M1.706-1.593c-0.047-0.073-1.106,0-1.106,0l0.082-3.015c0,0,0.399-0.17,0.399-0.321   S0.682-5.105,0.682-5.105s0.063-0.479,0-0.545c-0.059-0.058-0.554-0.014-0.68-0.002h-0.003c-0.125-0.012-0.625-0.056-0.68,0.002   c-0.066,0.065,0,0.545,0,0.545S-1.082-5.08-1.082-4.929s0.401,0.321,0.401,0.321l0.082,3.015c0,0-1.06-0.073-1.109,0   c-0.047,0.072,0,0.456,0,0.625c0,0.168,0.979,1.042,1.027,1.236c0.048,0.19,0,1.931,0,2.661c0,0.655,0.382,2.355,0.627,2.697   c0.021,0.026,0.037,0.044,0.055,0.054c0.016-0.01,0.033-0.027,0.052-0.054C0.3,5.285,0.682,3.585,0.682,2.93   c0-0.73-0.05-2.471,0-2.661C0.728,0.074,1.706-0.8,1.706-0.968C1.706-1.137,1.755-1.521,1.706-1.593z" fill="#FFFFFF"/>
	</g></svg>