<?xml version="1.0" standalone="no"?>
<svg xmlns="http://www.w3.org/2000/svg" viewBox="-6.37 -6.37 12.74 12.74" color="#212121" width="75" height="75"><g transform="matrix(1 0 0 -1 0 0)">
		<g xmlns="http://www.w3.org/2000/svg">
			<path class="primary" fill="currentColor" d="M-0.001-6.245c-3.443,0-6.244,2.802-6.244,6.245s2.801,6.245,6.244,6.245c3.444,0,6.246-2.802,6.246-6.245    S3.443-6.245-0.001-6.245z"/>
			<path class="secondary" d="M-0.001,6.12C3.38,6.12,6.12,3.38,6.12,0S3.38-6.12-0.001-6.12C-3.38-6.12-6.12-3.38-6.12,0    S-3.38,6.12-0.001,6.12 M-0.001,6.37C-3.513,6.37-6.37,3.513-6.37,0s2.857-6.37,6.369-6.37C3.512-6.37,6.37-3.513,6.37,0    S3.512,6.37-0.001,6.37L-0.001,6.37z" fill="#FFFFFF"/>
		</g>
		<g xmlns="http://www.w3.org/2000/svg" id="Shotgun_3_">
			<path class="secondary" d="M-5.762,0.159l2.458,0.161c0.052,0.003,0.114,0.013,0.19,0.031c0.075,0.018,0.148,0.043,0.218,0.077    c0.069,0.033,0.131,0.074,0.183,0.123c0.053,0.05,0.084,0.107,0.093,0.171c0.019-0.004,0.042-0.007,0.071-0.011    c0.027-0.003,0.056-0.002,0.085,0.002c0.028,0.004,0.056,0.013,0.079,0.025c0.023,0.014,0.039,0.035,0.048,0.064    c0.021,0.002,0.059,0.006,0.111,0.01c0.052,0.004,0.109,0.008,0.169,0.013c0.061,0.005,0.116,0.008,0.169,0.012    c0.053,0.003,0.091,0.005,0.114,0.005c0.05,0,0.128,0.001,0.235,0.003c0.107,0.002,0.229,0.003,0.364,0.003h0.428h0.426    c0.135,0,0.256-0.001,0.363-0.003s0.187-0.003,0.235-0.003c0.023,0.027,0.044,0.05,0.06,0.067C0.354,0.927,0.37,0.94,0.385,0.949    c0.015,0.008,0.03,0.013,0.047,0.016c0.016,0.002,0.037,0.003,0.062,0.003c0.005,0,0.016-0.001,0.033-0.001    c0.017-0.001,0.028-0.002,0.034-0.002c0.056-0.005,0.127-0.011,0.213-0.02c0.087-0.009,0.169-0.018,0.25-0.027    c0.08-0.01,0.149-0.018,0.209-0.024c0.06-0.006,0.09-0.009,0.092-0.009l0.081-0.042h4.067c0,0.042,0.019,0.073,0.058,0.093    c0.037,0.02,0.072,0.029,0.104,0.029C5.64,0.96,5.652,0.936,5.676,0.89c0.021-0.047,0.046-0.097,0.07-0.152    c0.025-0.055,0.047-0.105,0.066-0.152c0.02-0.048,0.029-0.075,0.029-0.084c0-0.003-0.002-0.006-0.004-0.01    c-0.002-0.004-0.003-0.008-0.003-0.01C5.728,0.445,5.615,0.424,5.5,0.417C5.384,0.411,5.268,0.406,5.148,0.402    C5.031,0.399,4.914,0.391,4.797,0.377C4.682,0.363,4.571,0.33,4.466,0.278v0.081c0,0.002-0.009,0.005-0.027,0.01    C4.42,0.373,4.398,0.378,4.373,0.384c-0.025,0.005-0.053,0.01-0.08,0.013C4.267,0.399,4.244,0.401,4.225,0.401H4.15    c-0.047,0-0.102,0-0.161,0.001C3.93,0.403,3.866,0.404,3.803,0.404H3.654c-0.311,0-0.618-0.006-0.921-0.018    c-0.303-0.012-0.61-0.021-0.925-0.027L-0.163,0.32c-0.06,0-0.127-0.003-0.202-0.009c-0.076-0.007-0.151-0.017-0.227-0.029    c-0.077-0.014-0.152-0.029-0.225-0.05C-0.889,0.212-0.954,0.188-1.01,0.159C-1.015,0.157-1.021,0.15-1.034,0.139    C-1.047,0.127-1.059,0.114-1.071,0.1c-0.013-0.014-0.025-0.026-0.036-0.04c-0.012-0.013-0.02-0.021-0.021-0.022    c-0.037-0.03-0.083-0.058-0.14-0.084c-0.058-0.026-0.117-0.047-0.179-0.064c-0.062-0.017-0.125-0.03-0.188-0.04    c-0.062-0.01-0.118-0.015-0.167-0.015c-0.039,0-0.069,0.006-0.089,0.019c-0.02,0.011-0.035,0.046-0.044,0.104    c-0.036-0.05-0.087-0.083-0.153-0.099c-0.065-0.017-0.131-0.024-0.197-0.024h-0.113c-0.068,0-0.132,0.009-0.189,0.026    c-0.059,0.017-0.111,0.036-0.158,0.058c-0.047,0.021-0.089,0.041-0.123,0.058c-0.037,0.018-0.065,0.026-0.09,0.026    c-0.049,0-0.088-0.007-0.114-0.021C-3.1-0.033-3.123-0.051-3.143-0.073C-3.162-0.094-3.18-0.116-3.197-0.14    c-0.018-0.024-0.039-0.045-0.067-0.064c-0.002,0-0.009-0.002-0.018-0.005c-0.01-0.004-0.021-0.007-0.034-0.012    c-0.013-0.005-0.025-0.009-0.038-0.013c-0.013-0.004-0.022-0.008-0.029-0.01c-0.147-0.036-0.289-0.072-0.423-0.107    c-0.135-0.036-0.267-0.074-0.396-0.115C-4.331-0.507-4.46-0.552-4.59-0.601c-0.13-0.05-0.265-0.105-0.404-0.168    C-5.021-0.813-5.067-0.85-5.13-0.876c-0.062-0.027-0.128-0.047-0.198-0.06C-5.397-0.949-5.465-0.957-5.53-0.961    C-5.596-0.966-5.646-0.968-5.68-0.968h-0.039c-0.003,0.019-0.005,0.051-0.009,0.092c-0.003,0.042-0.007,0.09-0.009,0.143    c-0.004,0.055-0.006,0.11-0.009,0.168C-5.747-0.507-5.75-0.451-5.753-0.397C-5.756-0.344-5.758-0.296-5.76-0.255    c-0.001,0.042-0.002,0.072-0.002,0.092v0.039l-0.08,0.242L-5.762,0.159z M-2.695-0.077c0.03-0.014,0.066-0.024,0.105-0.032    c0.039-0.008,0.078-0.013,0.116-0.015c0.037-0.002,0.063-0.003,0.075-0.003c0.03,0,0.063,0.001,0.1,0.003    c0.037,0.002,0.073,0.008,0.108,0.017C-2.154-0.1-2.121-0.086-2.09-0.069c0.03,0.018,0.056,0.04,0.075,0.067    c0,0.016-0.01,0.032-0.03,0.052c-0.019,0.02-0.035,0.029-0.051,0.029c-0.004,0-0.014-0.005-0.03-0.013    c-0.016-0.009-0.033-0.018-0.052-0.028c-0.018-0.009-0.035-0.018-0.052-0.027c-0.016-0.008-0.024-0.013-0.026-0.013    c-0.005,0-0.011,0.005-0.019,0.013c-0.008,0.01-0.015,0.019-0.021,0.027c-0.009,0.011-0.016,0.02-0.023,0.028    c-0.008,0.008-0.014,0.013-0.018,0.013c-0.002,0-0.008,0-0.018,0.001c-0.011,0.001-0.019,0.002-0.024,0.002    c-0.023,0-0.044-0.005-0.06-0.013c-0.017-0.009-0.023-0.032-0.021-0.071c-0.005,0.02-0.016,0.032-0.034,0.037    C-2.512,0.041-2.53,0.044-2.549,0.044h-0.029h-0.045c-0.026,0-0.053-0.006-0.08-0.015c-0.026-0.01-0.04-0.026-0.04-0.05    C-2.743-0.044-2.728-0.063-2.695-0.077z" fill="#FFFFFF"/>
		</g>
	</g></svg>