<?xml version="1.0" standalone="no"?>
<svg xmlns="http://www.w3.org/2000/svg" viewBox="-6.37 -6.37 12.74 12.74" color="#212121" width="75" height="75"><g transform="matrix(1 0 0 -1 0 0)">
		<g xmlns="http://www.w3.org/2000/svg">
			<path class="primary" fill="currentColor" d="M-0.001-6.245c-3.443,0-6.244,2.802-6.244,6.245c0,3.443,2.801,6.245,6.244,6.245    c3.444,0,6.246-2.802,6.246-6.245C6.245-3.443,3.443-6.245-0.001-6.245z"/>
			<path class="secondary" d="M-0.001,6.12C3.38,6.12,6.12,3.38,6.12,0c0-3.38-2.74-6.12-6.121-6.12C-3.38-6.12-6.12-3.38-6.12,0    C-6.12,3.38-3.38,6.12-0.001,6.12 M-0.001,6.37C-3.513,6.37-6.37,3.513-6.37,0s2.857-6.37,6.369-6.37    C3.512-6.37,6.37-3.512,6.37,0S3.512,6.37-0.001,6.37L-0.001,6.37z" fill="#FFFFFF"/>
		</g>
		<g xmlns="http://www.w3.org/2000/svg">
			<path class="secondary" d="M2.975-3.4c-0.965,0.676-2.07,5.158-2.528,7.188C0.41,4.495,0.35,5.006,0.343,5.067L-0.11,5.011    c0.005-0.039,0.419-3.544-0.274-5.18c-0.218-0.288-0.523-0.61-0.848-0.712c-0.736,1.275-1.454,2.702-1.821,4.104    c-0.06,0.624-0.086,1.182-0.09,1.548L-3.6,4.766c0.002-0.189,0.062-4.66,1.46-5.865c0.008-0.007,0.019-0.009,0.027-0.016    l0.282-0.754c0.038-0.191,0.087-0.535,0.138-0.93c0.046-0.351,0.092-0.74,0.133-1.1C-1.552-4.32-1.507-4.7-1.437-5.001    c0.007-0.069,0.013-0.119,0.013-0.119l0.015,0.001c0.092-0.335,0.218-0.543,0.356-0.543c0.144,0,0.273,0.224,0.366,0.581l0.001,0    l0,0.003c0.088,0.341,0.142,0.802,0.142,1.312c0,0.358-0.028,0.69-0.075,0.976l0.007,0.243v0.184    c0.057-0.093,0.117-0.191,0.172-0.281c0.443-0.72,0.826-1.341,1.08-1.85c0.281-0.562,0.745-0.875,1.287-0.875    c0.051,0,0.103,0.003,0.154,0.009c0.61,0.064,1.169,0.496,1.3,1.003C3.476-3.99,3.331-3.65,2.975-3.4z M-1.478-0.91    C-1.53-0.905-1.581-0.895-1.631-0.877c-0.073,0.034-0.146,0.068-0.211,0.124c-0.536,0.461-0.861,1.599-1.054,2.759    C-2.512,0.997-2.004,0.006-1.478-0.91z M-0.246-2.524C-0.364-2.333-0.488-2.13-0.612-1.926v0.192l0.183,0.688    c0.028,0.027,0.063,0.038,0.089,0.068C0.304-0.25,0.467,1.308,0.473,2.662c0.531-2.197,1.433-5.419,2.292-6.173    C2.757-3.528,2.735-3.576,2.699-3.658C2.587-3.52,2.423-3.427,2.231-3.427c-0.336,0-0.608-0.272-0.608-0.609    c0-0.15,0.06-0.281,0.149-0.387C1.745-4.429,1.719-4.433,1.69-4.442C1.411-4.535,1.079-4.5,0.892-4.469    C0.876-4.442,0.86-4.42,0.845-4.391C0.585-3.874,0.2-3.248-0.246-2.524z" fill="#FFFFFF"/>
		</g>
	</g></svg>