<?xml version="1.0" standalone="no"?>
<svg xmlns="http://www.w3.org/2000/svg" viewBox="-6.37 -6.37 12.74 12.74" color="#212121" width="75" height="75"><g transform="matrix(1 0 0 -1 0 0)">
		<g xmlns="http://www.w3.org/2000/svg">
			<path class="primary" fill="currentColor" d="M-0.001-6.245c-3.443,0-6.244,2.801-6.244,6.244c0,3.444,2.801,6.246,6.244,6.246    c3.444,0,6.246-2.802,6.246-6.246C6.245-3.444,3.443-6.245-0.001-6.245z"/>
			<path class="secondary" d="M-0.001,6.12c3.381,0,6.121-2.74,6.121-6.121c0-3.379-2.74-6.119-6.121-6.119    c-3.379,0-6.119,2.74-6.119,6.119C-6.12,3.38-3.38,6.12-0.001,6.12 M-0.001,6.37c-3.512,0-6.369-2.858-6.369-6.371    c0-3.512,2.857-6.369,6.369-6.369c3.513,0,6.371,2.857,6.371,6.369C6.37,3.512,3.512,6.37-0.001,6.37L-0.001,6.37z" fill="#FFFFFF"/>
		</g>
		<g xmlns="http://www.w3.org/2000/svg" id="Sniper_Rifle_2_">
			<path class="secondary" d="M1.271-1.788c0.003,0.006,0.009,0.012,0.019,0.021c0.01,0.01,0.016,0.016,0.021,0.018    c0.003,0.027,0.007,0.076,0.015,0.146C1.332-1.53,1.342-1.456,1.35-1.374c0.01,0.08,0.019,0.156,0.025,0.229    c0.008,0.072,0.013,0.123,0.016,0.152v0.053v0.102v0.102v0.061c0.002,0.039,0.004,0.09,0.01,0.152    c0.004,0.062,0.01,0.123,0.014,0.184c0.003,0.059,0.006,0.109,0.01,0.152C1.428-0.146,1.43-0.122,1.43-0.118L1.47-0.04    c-0.003,0-0.007,0-0.01,0.002C1.456-0.036,1.453-0.036,1.451-0.036c-0.02,0-0.035-0.01-0.049-0.027    c-0.014-0.02-0.023-0.039-0.03-0.062C1.363-0.151,1.358-0.175,1.355-0.194C1.352-0.216,1.35-0.231,1.35-0.239    C1.32-0.241,1.277-0.243,1.221-0.245c-0.058-0.004-0.123-0.006-0.195-0.01c-0.072-0.004-0.149-0.008-0.231-0.01    C0.713-0.267,0.635-0.269,0.562-0.271C0.491-0.274,0.426-0.274,0.365-0.276C0.309-0.278,0.264-0.278,0.236-0.278H0.197    c-0.062-0.004-0.14-0.01-0.231-0.014C-0.127-0.294-0.219-0.3-0.308-0.304s-0.165-0.008-0.229-0.01    c-0.064-0.004-0.097-0.004-0.1-0.004c-0.008,0-0.031-0.006-0.066-0.02c-0.035-0.012-0.072-0.025-0.113-0.041    c-0.039-0.014-0.075-0.029-0.111-0.041c-0.033-0.014-0.056-0.018-0.066-0.018c-0.031-0.006-0.088-0.012-0.172-0.021    c-0.082-0.008-0.17-0.016-0.265-0.025c-0.094-0.01-0.182-0.018-0.265-0.023c-0.084-0.006-0.141-0.01-0.172-0.01    c-0.018,0.004-0.041,0.02-0.069,0.043c-0.028,0.025-0.052,0.037-0.071,0.037c-0.032,0-0.062-0.006-0.088-0.016    c-0.025-0.01-0.052-0.02-0.078-0.031c-0.027-0.01-0.055-0.02-0.084-0.027c-0.029-0.01-0.061-0.014-0.094-0.014    c-0.043,0-0.08,0.008-0.109,0.021C-2.492-0.491-2.52-0.476-2.545-0.458C-2.57-0.442-2.596-0.427-2.623-0.413    c-0.025,0.012-0.057,0.02-0.094,0.02c-0.019,0-0.039-0.002-0.063-0.002c-0.022-0.002-0.036-0.016-0.042-0.041    c-0.006-0.018-0.016-0.047-0.027-0.09c-0.013-0.043-0.023-0.086-0.036-0.131C-2.898-0.704-2.91-0.747-2.92-0.788    C-2.928-0.829-2.936-0.856-2.94-0.874c-0.003-0.004-0.009-0.018-0.019-0.041c-0.01-0.021-0.018-0.033-0.021-0.039h-0.056    c-0.025,0-0.053,0-0.084-0.002c-0.03,0-0.059,0-0.086,0h-0.053c-0.051,0-0.1,0.002-0.146,0.012    c-0.046,0.008-0.091,0.018-0.138,0.029c-0.046,0.01-0.09,0.02-0.134,0.029c-0.045,0.008-0.091,0.012-0.14,0.012h-1.191    c-0.003,0-0.009-0.006-0.02-0.018c-0.012-0.01-0.018-0.018-0.02-0.023l-0.041-0.119C-5.09-1.048-5.098-1.065-5.106-1.085    c-0.01-0.02-0.017-0.027-0.02-0.027h-0.715c-0.001,0-0.009,0.008-0.019,0.027c-0.008,0.02-0.016,0.037-0.021,0.051v0.033v0.047    l0.039,0.994l0.04,0.057h0.715l0.159,0.18c0.005,0,0.03,0.002,0.078,0.006c0.046,0.002,0.093,0.002,0.138,0.002h0.088    c0.094,0,0.182,0,0.262-0.002c0.08,0,0.161-0.004,0.24-0.008c0.08-0.004,0.16-0.014,0.242-0.025    c0.082-0.012,0.17-0.027,0.263-0.051V0.177c0-0.029-0.003-0.057-0.013-0.086c-0.008-0.029-0.017-0.059-0.027-0.088    c-0.012-0.029-0.021-0.059-0.029-0.088c-0.009-0.031-0.014-0.061-0.014-0.092c0-0.07,0.018-0.117,0.049-0.145    C-3.617-0.349-3.567-0.36-3.496-0.36c0.074,0,0.132,0.02,0.176,0.061c0.041,0.041,0.078,0.09,0.111,0.145    c0.033,0.059,0.064,0.115,0.098,0.174c0.033,0.057,0.076,0.104,0.132,0.141c0.032,0.021,0.068,0.037,0.104,0.047    c0.036,0.008,0.072,0.02,0.107,0.031c0.037,0.01,0.07,0.023,0.102,0.039c0.031,0.02,0.059,0.045,0.084,0.082    c0.02,0.025,0.031,0.055,0.041,0.088c0.008,0.031,0.019,0.061,0.031,0.086c0.012,0.025,0.029,0.045,0.053,0.057    c0.025,0.014,0.062,0.018,0.113,0.008c0,0.002,0,0.006,0,0.018c0.003,0.01,0.003,0.016,0.003,0.021    c0,0.016-0.003,0.031-0.006,0.047c-0.004,0.014-0.017,0.023-0.038,0.031c-0.1-0.023-0.194-0.037-0.281-0.039    c-0.088-0.002-0.18-0.004-0.281-0.004h-0.051c-0.02,0-0.039,0-0.059,0.002C-3.074,0.675-3.094,0.675-3.11,0.675h-0.028    l-0.04,0.039v0.287c0.241,0,0.474-0.008,0.698-0.023c0.225-0.016,0.459-0.023,0.699-0.023c0.034,0,0.059,0.012,0.073,0.037    c0.014,0.025,0.026,0.051,0.039,0.08h0.198c-0.002-0.006,0.002-0.02,0.012-0.041c0.013-0.02,0.02-0.033,0.028-0.037    c0.01-0.006,0.022-0.006,0.038-0.004c0.015,0.002,0.031,0.006,0.047,0.012c0.016,0.004,0.029,0.01,0.039,0.014    c0.012,0.006,0.016,0.008,0.014,0.008v0.217c0.033-0.004,0.055-0.006,0.062-0.008c0.036-0.008,0.062-0.016,0.081-0.023    C-1.133,1.2-1.119,1.192-1.105,1.187c0.012-0.006,0.025-0.012,0.039-0.018c0.015-0.004,0.04-0.006,0.072-0.006v0.506    c0,0.016,0.01,0.037,0.027,0.064c0.02,0.027,0.036,0.043,0.052,0.053c0.029,0,0.075,0.004,0.134,0.004    C-0.723,1.792-0.656,1.796-0.58,1.8c0.076,0,0.154,0.004,0.238,0.008c0.083,0.004,0.162,0.006,0.239,0.008    C-0.027,1.819,0.041,1.821,0.1,1.823c0.062,0.002,0.107,0.004,0.137,0.004h0.082c0.007,0,0.02,0.002,0.039,0.006    c0.02,0.002,0.039,0.006,0.059,0.01c0.021,0.004,0.041,0.01,0.061,0.012c0.02,0.006,0.031,0.01,0.039,0.012l0.04-0.039V1.071    c-0.011-0.002-0.03-0.008-0.062-0.018c-0.031-0.01-0.051-0.018-0.059-0.021c-0.004-0.006-0.012-0.012-0.022-0.02    c-0.011-0.01-0.017-0.016-0.017-0.02c0-0.006,0.007-0.02,0.02-0.039c0.014-0.021,0.02-0.035,0.02-0.041    c0-0.002,0.002-0.016,0.002-0.041c0.002-0.025,0.002-0.045,0.002-0.057c0-0.051-0.004-0.084-0.011-0.102    c-0.007-0.02-0.02-0.029-0.04-0.033c-0.019-0.004-0.044-0.004-0.074,0C0.282,0.685,0.243,0.683,0.197,0.675    C0.176,0.673,0.155,0.667,0.135,0.657c-0.02-0.006-0.041-0.016-0.059-0.025c-0.02-0.01-0.039-0.018-0.062-0.025    c-0.02-0.008-0.042-0.01-0.065-0.01c-0.08,0-0.158,0.002-0.234,0.012c-0.078,0.008-0.154,0.018-0.232,0.029    c-0.076,0.01-0.153,0.02-0.23,0.027c-0.078,0.01-0.153,0.014-0.232,0.014c-0.055,0-0.104-0.002-0.146-0.004    c-0.041-0.002-0.09-0.016-0.145-0.039c0-0.004-0.002-0.006-0.002-0.01c-0.002-0.004-0.002-0.008-0.002-0.012    c0-0.002,0.002-0.008,0.004-0.018c0.005-0.006,0.011-0.014,0.02-0.023c0.008-0.012,0.016-0.018,0.021-0.018h0.356    c0.02-0.033,0.049-0.055,0.088-0.064c0.041-0.006,0.077-0.012,0.11-0.016c0.016,0,0.046,0,0.093-0.004    C-0.537,0.47-0.481,0.468-0.42,0.466c0.062-0.004,0.129-0.006,0.201-0.01C-0.148,0.452-0.08,0.45-0.02,0.448    C0.044,0.446,0.1,0.442,0.146,0.438c0.047,0,0.076-0.002,0.09-0.002H0.52c0.125,0,0.268,0,0.429,0    c0.159-0.004,0.331-0.004,0.515-0.004h0.562h0.56c0.188,0,0.362,0,0.521,0.004c0.158,0,0.299,0,0.423,0h0.284l0.041-0.039h1.178    c0,0.055,0.004,0.09,0.017,0.104c0.013,0.012,0.054,0.018,0.124,0.018c0.039,0,0.068-0.002,0.096-0.01    C5.295,0.501,5.312,0.47,5.321,0.415H5.84c0.004,0,0.012-0.012,0.023-0.035c0.01-0.025,0.016-0.045,0.016-0.062    c0-0.012-0.006-0.033-0.016-0.064C5.852,0.224,5.844,0.206,5.84,0.198c-0.013,0-0.035-0.002-0.071-0.006    c-0.034-0.004-0.071-0.008-0.11-0.012c-0.039-0.006-0.075-0.01-0.109-0.014C5.514,0.165,5.491,0.161,5.481,0.159    c-0.005,0-0.019-0.008-0.04-0.02C5.42,0.128,5.407,0.12,5.402,0.12H5.388H5.361c-0.011,0-0.033,0-0.062,0.004    C5.268,0.128,5.236,0.132,5.201,0.136C5.166,0.14,5.133,0.142,5.104,0.147c-0.029,0.004-0.049,0.008-0.06,0.012    C4.996,0.161,4.922,0.163,4.82,0.165c-0.1,0.004-0.215,0.006-0.342,0.01C4.35,0.179,4.215,0.181,4.072,0.185    C3.932,0.187,3.795,0.188,3.666,0.19C3.538,0.194,3.423,0.194,3.322,0.196C3.221,0.198,3.146,0.198,3.098,0.198H2.902H2.611    c-0.082,0-0.17,0-0.258-0.002c-0.091-0.002-0.182-0.002-0.27-0.002c-0.088,0-0.171,0-0.249-0.002    C1.754,0.19,1.684,0.19,1.621,0.19H1.43V0.12h0.252c0-0.02-0.004-0.033-0.014-0.041C1.659,0.071,1.646,0.065,1.633,0.062    C1.62,0.058,1.609,0.052,1.6,0.042c-0.009-0.006-0.016-0.02-0.016-0.039c0-0.023,0.003-0.045,0.01-0.062    c0.003-0.02,0.016-0.039,0.035-0.059C1.623-0.267,1.625-0.413,1.633-0.56c0.01-0.146,0.02-0.295,0.029-0.441    c0.012-0.146,0.022-0.291,0.033-0.436c0.01-0.146,0.016-0.289,0.016-0.43H1.31c-0.001,0-0.009,0.004-0.02,0.016    c-0.01,0.01-0.017,0.018-0.02,0.023C1.268-1.817,1.268-1.812,1.268-1.81C1.268-1.806,1.268-1.798,1.271-1.788z M-2.562-0.394    C-2.547-0.425-2.52-0.44-2.482-0.44c0.002,0,0.006,0,0.01,0.002c0.004,0,0.008,0.002,0.009,0.002    c-0.005,0.037-0.014,0.08-0.026,0.123c-0.014,0.043-0.031,0.08-0.053,0.115c-0.026-0.006-0.039-0.02-0.042-0.043    c0-0.021-0.003-0.043-0.003-0.062C-2.588-0.333-2.579-0.362-2.562-0.394z M-2.396-0.321c0.014-0.045,0.031-0.082,0.053-0.115    c0.007-0.002,0.022-0.006,0.049-0.006c0.025-0.002,0.042-0.002,0.053-0.002c0.049,0,0.098,0.012,0.146,0.035    c0.049,0.021,0.072,0.064,0.072,0.127c0,0.014-0.002,0.033-0.004,0.053c-0.006,0.02-0.018,0.031-0.039,0.031h-0.357    C-2.419-0.237-2.41-0.278-2.396-0.321z M-2.186,0.636c0.004-0.006,0.012-0.014,0.02-0.023c0.009-0.01,0.016-0.016,0.021-0.016    h0.705c0,0.039-0.014,0.07-0.046,0.09c-0.03,0.021-0.065,0.029-0.104,0.027l-0.596-0.039c0-0.002,0-0.004-0.001-0.01    c-0.003-0.004-0.003-0.008-0.003-0.012C-2.189,0.651-2.188,0.646-2.186,0.636z M-1.09,0.956C-1.076,0.952-1.059,0.95-1.037,0.95    c0.072,0,0.146,0.004,0.221,0.016c0.077,0.012,0.154,0.023,0.232,0.037c0.078,0.016,0.156,0.029,0.234,0.043    s0.155,0.021,0.23,0.025C-0.191,1.097-0.264,1.11-0.337,1.112c-0.071,0.002-0.147,0.004-0.224,0.004h-0.043    c-0.018,0-0.034-0.002-0.049-0.002c-0.016-0.002-0.029-0.002-0.041-0.002h-0.022l-0.039-0.098h-0.358    C-1.11,0.981-1.104,0.962-1.09,0.956z M1.446-1.767c0.01-0.01,0.019-0.016,0.023-0.021C1.479-1.79,1.484-1.792,1.486-1.792    c0.006,0,0.014,0.002,0.023,0.004c0.004,0.002,0.012,0.01,0.02,0.018c0.012,0.01,0.018,0.018,0.02,0.021v0.016v0.025    c0,0.023-0.002,0.068-0.006,0.133C1.539-1.511,1.537-1.442,1.531-1.368C1.529-1.296,1.524-1.228,1.52-1.165    C1.515-1.101,1.512-1.058,1.51-1.034L1.43-1.749C1.43-1.751,1.434-1.757,1.446-1.767z" fill="#FFFFFF"/>
		</g>
	</g></svg>