<?xml version="1.0" standalone="no"?>
<svg xmlns="http://www.w3.org/2000/svg" viewBox="-6.37 -6.37 12.74 12.74" color="#212121" width="75" height="75"><g transform="matrix(1 0 0 -1 0 0)">
		<g xmlns="http://www.w3.org/2000/svg">
			<path class="primary" fill="currentColor" d="M-0.001-6.245c-3.443,0-6.244,2.802-6.244,6.245s2.801,6.245,6.244,6.245c3.444,0,6.246-2.802,6.246-6.245    S3.443-6.245-0.001-6.245z"/>
			<path class="secondary" d="M-0.001,6.12C3.38,6.12,6.12,3.38,6.12,0S3.38-6.12-0.001-6.12C-3.38-6.12-6.12-3.38-6.12,0    S-3.38,6.12-0.001,6.12 M-0.001,6.37C-3.513,6.37-6.37,3.513-6.37,0s2.857-6.37,6.369-6.37C3.512-6.37,6.37-3.513,6.37,0    S3.512,6.37-0.001,6.37L-0.001,6.37z" fill="#FFFFFF"/>
		</g>
		<path xmlns="http://www.w3.org/2000/svg" class="secondary" d="M5.527,1.069L4.181,1.019L4.084,1.283L3.43,1.268L3.338,1.391L3.235,1.42l0.001,0.332L3.091,1.794   c0.007,0.348-0.173,0.495-0.266,0.555C2.73,2.407,2.389,2.38,2.288,2.251C2.188,2.122,2.142,1.802,2.142,1.802L1.768,1.769   C1.328,1.674,0.894,1.817,0.894,1.817L0.403,1.77l0.036,0.56l-0.634-0.053l0.044-0.505c0,0-1.693-0.045-2.124-0.047   C-2.703,1.723-3.029,1.58-3.09,1.534c-0.062-0.045-0.708-0.031-0.708-0.031c-0.102,0.029-0.126,0.544-0.126,0.544   c-0.288,0.481-0.915,0.235-0.915,0.235c-0.492-0.11-0.415-0.72-0.415-0.72l-0.013-0.044L-5.32,1.55l-0.062-0.155l-0.191-0.057   l0.087-1.009l0.136-0.023l0.061-0.224l0.174-0.003l0.046,0.098l1.789,0.05l0.083-0.532l0.18-0.036l-0.025-0.089l0.139-0.071   l0.055-0.952l0.126-0.004c0,0-0.02-0.121-0.054-0.238c-0.033-0.117-0.062-0.537,0.038-1.011c0.101-0.473,0.589-0.536,0.589-0.536   l0.071-1.226L-1.106-4.5l0.091,0.148l-0.035,1.184l0.115,0.237c-0.133,0.086-0.086,1.88-0.086,1.88   c0.51-0.37,0.71-0.286,0.71-0.286s0.048,0.002,0.477,0.004c0.429,0.002,0.454,0.47,0.454,0.47l0.01,0.633l0.478,0.003l0.579-0.136   L1.645-0.448c0.438-0.126,0.308-0.359,0.308-0.359L1.949-3.265c0.143-0.057,0.318,0.384,0.318,0.384L2.266-0.438L2.027-0.227   l0.096,0.004l0.442-0.003c0,0,0.131,0.122,0.41,0.104c0.282-0.019,0.271,0.381,0.271,0.381l0.907,0.068l0.059,0.205l1.32,0.012   C5.629,0.706,5.527,1.069,5.527,1.069z M0.474-0.95C0.423-1.239-0.005-1.176-0.005-1.176c-0.214-0.032-0.562,0.034-0.562,0.034   l-0.449,0.295l-0.027,0.536l0.018,0.008l0.33-0.002c0,0-0.08-0.159,0.018-0.384c0.097-0.225,0.389-0.364,0.452-0.355   C-0.162-1.035-0.209-0.94-0.24-0.931c-0.031,0.009-0.133,0.1-0.229,0.263C-0.562-0.505-0.45-0.279-0.45-0.279l0.917,0.051   C0.467-0.229,0.524-0.66,0.474-0.95z" fill="#FFFFFF"/>
	</g></svg>