<?xml version="1.0" standalone="no"?>
<svg xmlns="http://www.w3.org/2000/svg" viewBox="-6.37 -6.37 12.74 12.74" color="#212121" width="75" height="75"><g transform="matrix(1 0 0 -1 0 0)">
		<g xmlns="http://www.w3.org/2000/svg">
			<path class="primary" fill="currentColor" d="M-0.001-6.245c-3.443,0-6.244,2.802-6.244,6.245s2.801,6.245,6.244,6.245c3.444,0,6.246-2.802,6.246-6.245    S3.443-6.245-0.001-6.245z"/>
			<path class="secondary" d="M-0.001,6.12C3.38,6.12,6.12,3.38,6.12,0S3.38-6.12-0.001-6.12C-3.38-6.12-6.12-3.38-6.12,0    S-3.38,6.12-0.001,6.12 M-0.001,6.37C-3.513,6.37-6.37,3.513-6.37,0s2.857-6.37,6.369-6.37C3.512-6.37,6.37-3.513,6.37,0    S3.512,6.37-0.001,6.37L-0.001,6.37z" fill="#FFFFFF"/>
		</g>
		<path xmlns="http://www.w3.org/2000/svg" id="Submarine_Launched_3_" class="secondary" d="M0.98-5.523c0,0,0,0-0.155,0c-0.153,0-0.338-0.094-0.338-0.154   c0-0.061,0.03-0.206,0.03-0.206H0.003c0,0-0.001,0.115-0.003,0.323c-0.001-0.208-0.002-0.323-0.002-0.323h-0.514   c0,0,0.028,0.146,0.028,0.206c0,0.061-0.184,0.154-0.338,0.154c-0.155,0-0.155,0-0.155,0s-0.068,7.479,0,8.56   c0.069,1.08,0.858,1.612,0.858,1.612s0.034,1.234,0.12,1.234c0,0,0.002-0.001,0.003-0.003c0.001,0.002,0.001,0.003,0.001,0.003   c0.088,0,0.121-1.234,0.121-1.234S0.912,4.116,0.98,3.036C1.049,1.955,0.98-5.523,0.98-5.523z" fill="#FFFFFF"/>
	</g></svg>