<?xml version="1.0" standalone="no"?>
<svg xmlns="http://www.w3.org/2000/svg" viewBox="-6.37 -6.37 12.74 12.74" color="#212121" width="75" height="75"><g transform="matrix(1 0 0 -1 0 0)">
		<g xmlns="http://www.w3.org/2000/svg">
			<path class="primary" fill="currentColor" d="M-0.001-6.245c-3.443,0-6.244,2.802-6.244,6.245s2.801,6.245,6.244,6.245c3.444,0,6.246-2.802,6.246-6.245    S3.443-6.245-0.001-6.245z"/>
			<path class="secondary" d="M-0.001,6.12C3.38,6.12,6.12,3.38,6.12,0S3.38-6.12-0.001-6.12C-3.38-6.12-6.12-3.38-6.12,0    S-3.38,6.12-0.001,6.12 M-0.001,6.37C-3.513,6.37-6.37,3.513-6.37,0s2.857-6.37,6.369-6.37C3.512-6.37,6.37-3.513,6.37,0    S3.512,6.37-0.001,6.37L-0.001,6.37z" fill="#FFFFFF"/>
		</g>
		<g xmlns="http://www.w3.org/2000/svg" id="Surface_to_Air_2_">
			<polygon class="secondary" points="3.161,4.01 0.473,2.395 0.177,2.216 -0.287,2.02 -0.342,2.02 -0.238,1.968 -0.245,1.963     -2.266,1.432 -2.212,0.576 -3.977,-0.225 -3.93,-0.578 -5.205,-1.24 -4.725,-2.096 -3.793,-1.52 -3.709,-1.775 2.759,1.859     2.576,2.775 3.615,3.4 4.237,4.128   " fill="#FFFFFF"/>
			<polygon class="secondary" points="-3.922,-3.325 -3.067,-3.325 -3.922,-1.828   " fill="#FFFFFF"/>
			<polygon class="secondary" points="-2.748,-1.401 -2.748,-2.639 -3.066,-2.798 -3.066,-3.332 3.132,-3.332 3.132,-2.371 -2.074,-2.371       " fill="#FFFFFF"/>
			<polygon class="secondary" points="-1.463,-3.699 -1.463,-4.127 -1.09,-4.127 -0.128,-3.754 -0.128,-3.486 -1.037,-3.486   " fill="#FFFFFF"/>
		</g>
	</g></svg>