<?xml version="1.0" standalone="no"?>
<svg xmlns="http://www.w3.org/2000/svg" viewBox="-6.37 -6.37 12.74 12.74" color="#212121" width="75" height="75"><g transform="matrix(1 0 0 -1 0 0)">
		<g xmlns="http://www.w3.org/2000/svg">
			<path class="primary" fill="currentColor" d="M-0.001-6.245c-3.443,0-6.244,2.801-6.244,6.244c0,3.444,2.801,6.246,6.244,6.246    c3.444,0,6.246-2.802,6.246-6.246C6.245-3.444,3.443-6.245-0.001-6.245z"/>
			<path class="secondary" d="M-0.001,6.12c3.381,0,6.121-2.74,6.121-6.121c0-3.379-2.74-6.119-6.121-6.119    c-3.379,0-6.119,2.74-6.119,6.119C-6.12,3.38-3.38,6.12-0.001,6.12 M-0.001,6.37c-3.512,0-6.369-2.858-6.369-6.371    c0-3.512,2.857-6.369,6.369-6.369c3.513,0,6.371,2.857,6.371,6.369C6.37,3.512,3.512,6.37-0.001,6.37L-0.001,6.37z" fill="#FFFFFF"/>
		</g>
		<polygon xmlns="http://www.w3.org/2000/svg" id="Surface_to_surface_2_" class="secondary" points="0.41,-5.825 -0.368,-5.804 -0.35,-5.729 -1.109,-5.69 -1.09,-5.241    -0.389,-4.618 -0.368,-3.138 -0.236,-3.038 -1.129,-3.194 -1.209,-2.319 -0.407,0.485 -0.447,4.146 -0.139,5.726 -0.129,5.802    -0.099,5.812 -0.084,5.821 0.15,5.823 0.092,5.817 0.102,5.812 0.12,5.812 0.14,5.726 0.449,4.146 0.41,0.485 1.209,-2.319    1.133,-3.194 0.238,-3.038 0.371,-3.138 0.39,-4.618 1.092,-5.241 1.111,-5.69 0.351,-5.729 0.371,-5.804 -0.407,-5.825  " fill="#FFFFFF"/>
	</g></svg>