<?xml version="1.0" standalone="no"?>
<svg xmlns="http://www.w3.org/2000/svg" viewBox="-6.37 -6.37 12.74 12.74" color="#212121" width="75" height="75"><g transform="matrix(1 0 0 -1 0 0)">
		<g xmlns="http://www.w3.org/2000/svg">
			<circle class="primary" fill="currentColor" cx="0" cy="0" r="6.245"/>
			<path class="secondary" d="M0,6.12c3.38,0,6.12-2.74,6.12-6.12S3.38-6.12,0-6.12S-6.12-3.38-6.12,0S-3.38,6.12,0,6.12 M0,6.37     c-3.513,0-6.37-2.857-6.37-6.37S-3.513-6.37,0-6.37S6.37-3.513,6.37,0S3.513,6.37,0,6.37L0,6.37z" fill="#FFFFFF"/>
		</g>
		<g xmlns="http://www.w3.org/2000/svg">
			<polygon class="secondary" points="-0.351,-4.993 -0.351,-2.432 -1.579,-2.432 -1.579,-2.201 -0.339,-2.098 -0.959,3.382 -0.017,5.255      0.901,3.382 0.28,-2.098 1.522,-2.201 1.522,-2.432 0.273,-2.432 0.273,-4.993    " fill="#FFFFFF"/>
			<circle class="secondary" cx="-0.035" cy="-4.944" r="0.312" fill="#FFFFFF"/>
			<path class="secondary" d="M-1.309-2.306c0-0.095-0.077-0.171-0.171-0.171c-0.095,0-0.171,0.076-0.171,0.171     c0,0.095,0.076,0.171,0.171,0.171C-1.386-2.135-1.309-2.211-1.309-2.306z" fill="#FFFFFF"/>
			<path class="secondary" d="M1.65-2.306c0-0.095-0.077-0.171-0.171-0.171c-0.096,0-0.171,0.076-0.171,0.171     c0,0.095,0.075,0.171,0.171,0.171C1.573-2.135,1.65-2.211,1.65-2.306z" fill="#FFFFFF"/>
		</g>
	</g></svg>