<?xml version="1.0" standalone="no"?>
<svg xmlns="http://www.w3.org/2000/svg" viewBox="-6.37 -6.37 12.74 12.74" color="#212121" width="75" height="75"><g transform="matrix(1 0 0 -1 0 0)">
		<g xmlns="http://www.w3.org/2000/svg">
			<path class="primary" fill="currentColor" d="M-0.001-6.245c-3.443,0-6.244,2.802-6.244,6.245s2.801,6.245,6.244,6.245c3.444,0,6.246-2.802,6.246-6.245    S3.443-6.245-0.001-6.245z"/>
			<path class="secondary" d="M-0.001,6.12C3.38,6.12,6.12,3.38,6.12,0S3.38-6.12-0.001-6.12C-3.38-6.12-6.12-3.38-6.12,0    S-3.38,6.12-0.001,6.12 M-0.001,6.37C-3.513,6.37-6.37,3.513-6.37,0s2.857-6.37,6.369-6.37C3.512-6.37,6.37-3.513,6.37,0    S3.512,6.37-0.001,6.37L-0.001,6.37z" fill="#FFFFFF"/>
		</g>
		<g xmlns="http://www.w3.org/2000/svg" id="Tactical_Scud_2_">
			<g>
				<polygon class="secondary" points="-0.031,5.772 -0.333,4.925 0.272,4.925 -0.031,5.772    " fill="#FFFFFF"/>
				<path class="secondary" d="M0.312,4.898h-0.684l0.013,0.035l0.328,0.922l0.026-0.073L0.312,4.898z M-0.294,4.953h0.527l-0.265,0.738     L-0.294,4.953z" fill="#FFFFFF"/>
			</g>
			<g>
				<rect x="-0.315" y="1.564" class="secondary" width="0.571" height="3.395" fill="#FFFFFF"/>
			</g>
			<g>
				<polygon class="secondary" points="-0.94,2.256 0.759,2.256 0.515,1.59 -0.638,1.59 -0.94,2.256    " fill="#FFFFFF"/>
				<path class="secondary" d="M0.55,1.543h-1.217l-0.347,0.762h1.839L0.55,1.543z M-0.606,1.638h1.088L0.69,2.209h-1.556L-0.606,1.638z" fill="#FFFFFF"/>
			</g>
			<g>
				<rect x="-0.411" y="-5.807" class="secondary" width="0.762" height="7.337" fill="#FFFFFF"/>
			</g>
			<g>
				<polygon class="secondary" points="-0.638,-4.049 -1.121,-4.958 -1.487,-5.019 -1.487,-5.383 -1.121,-5.746 1.001,-5.807 1.485,-5.443      1.485,-5.019 1.121,-5.019 0.575,-4.109 -0.638,-4.049    " fill="#FFFFFF"/>
				<path class="secondary" d="M1.015-5.855L0.999-5.854l-2.141,0.061l-0.393,0.392v0.423l0.382,0.064l0.487,0.915l0.031-0.003l1.238-0.061     l0.012-0.022l0.533-0.887h0.384v-0.495L1.515-5.48L1.015-5.855z M-1.103-5.699l2.088-0.06L1.438-5.42v0.354H1.097l-0.549,0.91     l-1.155,0.058L-1.09-5.002l-0.349-0.057v-0.305L-1.103-5.699z" fill="#FFFFFF"/>
			</g>
		</g>
	</g></svg>