<?xml version="1.0" standalone="no"?>
<svg xmlns="http://www.w3.org/2000/svg" viewBox="-6.37 -6.37 12.74 12.74" color="#212121" width="75" height="75"><g transform="matrix(1 0 0 -1 0 0)">
		<g xmlns="http://www.w3.org/2000/svg">
			<path class="primary" fill="currentColor" d="M-0.001-6.245c-3.443,0-6.244,2.802-6.244,6.245s2.801,6.245,6.244,6.245c3.444,0,6.246-2.802,6.246-6.245    S3.443-6.245-0.001-6.245z"/>
			<path class="secondary" d="M-0.001,6.12C3.38,6.12,6.12,3.38,6.12,0S3.38-6.12-0.001-6.12C-3.38-6.12-6.12-3.38-6.12,0    S-3.38,6.12-0.001,6.12 M-0.001,6.37C-3.513,6.37-6.37,3.513-6.37,0s2.857-6.37,6.369-6.37C3.512-6.37,6.37-3.513,6.37,0    S3.512,6.37-0.001,6.37L-0.001,6.37z" fill="#FFFFFF"/>
		</g>
		<path xmlns="http://www.w3.org/2000/svg" id="Tomahawk_2_" class="secondary" d="M4.569,2.312L5.28,2.922c0,0-0.013,0.102-0.165,0L4.473,2.438c0,0-0.185,0.089-0.432,0.026   L3.563,3.132L3.399,3.037L3.697,2.42L3.621,2.382l-3.635-1.556l-1.629,0.316c-0.42-0.058-0.488-0.261-0.488-0.261l1.284-0.413   l-3.401-1.455c0,0-0.439-0.276-0.599-0.436l0,0C-5.203-1.724-5.37-2.152-5.232-2.53c0.189-0.521,0.888-0.747,1.562-0.502   c0,0,0.312,0.062,0.629,0.266c0.318,0.202,4.374,2.555,4.374,2.555L4.13-0.721c0,0,0.495,0.178,0.533,0.395l-2.44,0.648l1.83,1.08   c0,0,0.205,0.128,0.255,0.203l0.675-0.533l0.113,0.103L4.523,1.822C4.523,1.822,4.753,2.077,4.569,2.312z" fill="#FFFFFF"/>
	</g></svg>