<?xml version="1.0" standalone="no"?>
<svg xmlns="http://www.w3.org/2000/svg" viewBox="-6.37 -6.37 12.74 12.74" color="#212121" width="75" height="75"><g transform="matrix(1 0 0 -1 0 0)">
    <g xmlns="http://www.w3.org/2000/svg">
      <circle class="primary" fill="currentColor" cx="0" cy="0" r="6.245"/>
      <path class="secondary" d="M0,6.12c3.38,0,6.12-2.74,6.12-6.12S3.38-6.12,0-6.12S-6.12-3.38-6.12,0S-3.38,6.12,0,6.12 M0,6.37    c-3.513,0-6.37-2.857-6.37-6.37S-3.513-6.37,0-6.37S6.37-3.513,6.37,0S3.513,6.37,0,6.37L0,6.37z" fill="#FFFFFF"/>
    </g>
    <g xmlns="http://www.w3.org/2000/svg" id="Airborne_1_">
      <polygon class="secondary" points="-0.116,-2.825 -0.117,-2.824 -0.117,-2.827   " fill="#FFFFFF"/>
      <path class="secondary" d="M0.254-2.842C0.251-2.86,0.238-2.879,0.243-2.897l0,0l0.033,0.062C0.269-2.839,0.262-2.839,0.254-2.842z" fill="#FFFFFF"/>
      <path class="secondary" d="M-0.022,5.471c0.526,0,0.955,0.051,0.955,0.11c0,0.062-0.429,0.109-0.955,0.109    c-0.525,0-0.951-0.048-0.951-0.109C-0.974,5.521-0.548,5.471-0.022,5.471z" fill="#FFFFFF"/>
      <path class="secondary" d="M-0.321-2.993l-3.764,5.291H-4.19l3.794-5.335c0.017,0.01,0.034,0.015,0.046,0.033    C-0.34-3.003-0.332-2.997-0.321-2.993z" fill="#FFFFFF"/>
      <path class="secondary" d="M-0.435-3.073c0.004,0.004,0.006,0.006,0.011,0.01l-4.315,5.342h-0.107l4.369-5.408    c0.004,0.006,0.006,0.015,0.01,0.02C-0.459-3.097-0.445-3.084-0.435-3.073z" fill="#FFFFFF"/>
      <path class="secondary" d="M4.743,2.278l-4.292-5.31C0.476-3.044,0.5-3.058,0.521-3.077l4.33,5.355H4.743z" fill="#FFFFFF"/>
      <path class="secondary" d="M0.361-2.939L0.337-2.974c0.002-0.004,0.007-0.008,0.01-0.012C0.354-2.978,0.359-2.959,0.361-2.939z" fill="#FFFFFF"/>
      <path class="secondary" d="M-0.155-2.655L-0.16-2.64C-0.16-2.646-0.156-2.649-0.155-2.655z" fill="#FFFFFF"/>
      <path class="secondary" d="M0.271-2.486l1.066,4.784H1.232L0.178-2.417c0.027-0.016,0.051-0.031,0.073-0.049    C0.254-2.477,0.264-2.479,0.271-2.486z" fill="#FFFFFF"/>
      <path class="secondary" d="M-0.196-2.563c0.002,0.02,0.005,0.039,0.008,0.061l-1.073,4.801h-0.106l1.125-5.031    c0.004,0.027,0.011,0.055,0.014,0.08C-0.202-2.642-0.203-2.604-0.196-2.563z" fill="#FFFFFF"/>
      <path class="secondary" d="M-0.186-2.95c0.022,0.025,0.063,0.033,0.096,0.053C-0.086-2.896-0.084-2.9-0.081-2.9    c0.006,0.015,0.01,0.03,0.031,0.028c0.002,0.012-0.011,0.01-0.012,0.01c0,0,0,0.006-0.001,0.009    c-0.017,0.008-0.054,0.019-0.05,0.026l-0.004,0.002l-0.001-0.002v0.003C-0.14-2.82-0.143-2.791-0.157-2.791    c0.005-0.004-0.006,0-0.006,0.003C-0.169-2.842-0.185-2.899-0.186-2.95z" fill="#FFFFFF"/>
      <path class="secondary" d="M-0.265-2.857l-2.75,5.142h-0.107l2.817-5.268c0.005,0.009,0.013,0.017,0.02,0.024    C-0.278-2.927-0.271-2.892-0.265-2.857z" fill="#FFFFFF"/>
      <path class="secondary" d="M0.433-2.888c0.011-0.033-0.021-0.09-0.021-0.121c0.004,0,0.004-0.004,0.006-0.004l3.775,5.311H4.085    L0.411-2.868C0.421-2.874,0.431-2.881,0.433-2.888z" fill="#FFFFFF"/>
      <path class="secondary" d="M0.337-2.777C0.328-2.779,0.341-2.779,0.339-2.774c0.014-0.001-0.002-0.012-0.005-0.017    c0.003-0.016-0.006-0.024-0.008-0.038c-0.019-0.004-0.033-0.005-0.05-0.007L0.243-2.897C0.247-2.906,0.262-2.902,0.27-2.906    c0.005-0.011,0.015-0.013,0.024-0.017C0.302-2.936,0.311-2.945,0.32-2.954l2.8,5.238H3.015L0.354-2.693    c0.001-0.015,0.001-0.026-0.001-0.04C0.347-2.751,0.332-2.763,0.337-2.777z" fill="#FFFFFF"/>
      <path class="secondary" d="M1.234,2.361C1.267,3.71,1.153,4.666,0.256,5.412c0.002-0.029-0.519-0.005-0.535-0.013    C-0.864,4.745-1.282,4.37-1.255,2.345C-0.839,2.739,0.978,2.626,1.234,2.361z" fill="#FFFFFF"/>
      <path class="secondary" d="M-4.21,2.321c0.015,1.353,0.779,2.189,1.638,2.773C-3.715,4.68-4.856,3.457-4.856,2.321    C-4.599,2.429-4.479,2.438-4.21,2.321z" fill="#FFFFFF"/>
      <path class="secondary" d="M4.208,2.349c0.27,0.117,0.387,0.109,0.647,0c0,1.138-1.142,2.358-2.282,2.772    C3.43,4.536,4.195,3.702,4.208,2.349z" fill="#FFFFFF"/>
      <path class="secondary" d="M-4.071,2.379c0.24,0.12,0.685,0.132,0.936-0.03C-3.122,3.702-2.277,5.255-0.99,5.53    c-0.017,0.009-0.028,0.027-0.028,0.055C-2.91,5.361-4.104,3.728-4.071,2.379z" fill="#FFFFFF"/>
      <path class="secondary" d="M-0.391,5.407C-0.41,5.414-0.953,5.468-0.953,5.495c-1.219-0.328-2.099-1.8-2.064-3.15    c0.256,0.222,1.264,0.248,1.639,0C-1.465,4.158-1.005,4.922-0.391,5.407z" fill="#FFFFFF"/>
      <path class="secondary" d="M2.997,2.345c0.034,1.351-0.916,2.801-2.139,3.128c0.003-0.026-0.47-0.059-0.486-0.065    c0.615-0.485,1.074-1.249,0.986-3.062C1.733,2.593,2.741,2.566,2.997,2.345z" fill="#FFFFFF"/>
      <path class="secondary" d="M3.126,2.349c0.253,0.162,0.695,0.15,0.935,0.03c0.035,1.349-1.16,2.982-3.05,3.206    c0-0.027-0.014-0.046-0.03-0.055C2.245,5.104,3.112,3.702,3.126,2.349z" fill="#FFFFFF"/>
      <path class="secondary" d="M0.451-3.031c-0.013,0.007-0.02,0.014-0.034,0.018c-0.002,0-0.002,0.004-0.006,0.004    c0,0.031,0.032,0.088,0.021,0.121C0.43-2.881,0.42-2.874,0.411-2.868C0.405-2.864,0.399-2.86,0.395-2.862    C0.372-2.866,0.366-2.903,0.361-2.939c-0.002-0.02-0.007-0.038-0.015-0.046c-0.003,0.004-0.008,0.008-0.01,0.012    C0.331-2.967,0.325-2.958,0.32-2.953C0.31-2.944,0.301-2.934,0.294-2.922c-0.01,0.004-0.02,0.006-0.024,0.017    c-0.009,0.004-0.023,0-0.027,0.009l0,0C0.238-2.879,0.251-2.86,0.254-2.842c0.008,0.003,0.015,0.003,0.022,0.006    c0.017,0.002,0.031,0.003,0.05,0.007c0.002,0.014,0.011,0.022,0.008,0.038c0.003,0.005,0.019,0.016,0.005,0.017    c0.002-0.005-0.011-0.005-0.002-0.003c-0.005,0.015,0.01,0.026,0.016,0.044c0.002,0.014,0.002,0.025,0.001,0.04    C0.353-2.675,0.351-2.655,0.35-2.641c-0.04,0.037-0.042,0.107-0.075,0.15C0.273-2.489,0.271-2.488,0.271-2.486    c-0.007,0.007-0.017,0.01-0.02,0.021C0.229-2.448,0.205-2.433,0.178-2.417c-0.03,0.014-0.066,0.023-0.107,0.021    C0.004-2.4-0.045-2.435-0.079-2.466C-0.121-2.512-0.132-2.593-0.142-2.67c-0.011,0.001-0.011,0.008-0.014,0.015    c0,0.006-0.004,0.009-0.004,0.015c0.003,0.008,0.003,0.018,0.005,0.021C-0.146-2.556-0.13-2.485-0.118-2.43    C-0.124-2.419-0.126-2.41-0.122-2.4c-0.018,0-0.018,0.019-0.035,0.019c-0.02-0.036-0.026-0.078-0.031-0.123    c-0.003-0.021-0.006-0.041-0.008-0.061c-0.007-0.041-0.006-0.078-0.033-0.09c-0.003-0.025-0.01-0.053-0.014-0.08    c-0.005-0.023-0.008-0.046-0.014-0.072c-0.002-0.016-0.006-0.033-0.008-0.05c-0.007-0.034-0.014-0.069-0.021-0.102    C-0.292-2.967-0.3-2.975-0.305-2.983c-0.001-0.002-0.002-0.003-0.003-0.005c-0.005-0.001-0.01-0.002-0.014-0.005    c-0.011-0.004-0.019-0.01-0.029-0.011C-0.362-3.022-0.38-3.027-0.396-3.037C-0.397-3.038-0.4-3.038-0.4-3.04    c-0.007-0.006-0.014-0.016-0.023-0.023c-0.005-0.004-0.007-0.006-0.011-0.01C-0.445-3.084-0.459-3.097-0.468-3.11    c-0.004-0.005-0.006-0.014-0.01-0.02C-0.48-3.136-0.482-3.142-0.482-3.146C-0.489-3.156-0.5-3.165-0.506-3.174    C-0.525-3.195-0.54-3.212-0.556-3.23C-0.562-3.24-0.57-3.252-0.579-3.263C-0.593-3.278-0.612-3.29-0.625-3.306    c-0.006-0.008-0.009-0.019-0.016-0.028C-0.67-3.381-0.692-3.431-0.702-3.498c0.028-0.031,0.057-0.079,0.088-0.101    c0.018-0.012,0.062-0.032,0.082-0.035c0.042-0.004,0.071,0.016,0.109,0.027c0.006,0.002,0.012,0.017,0.018,0.01    c-0.006-0.049-0.016-0.095-0.021-0.145C-0.434-3.748-0.444-3.754-0.444-3.77c0.004-0.01,0.01-0.004,0.01-0.016    C-0.445-3.901-0.461-4.011-0.481-4.12c-0.02-0.107-0.043-0.215-0.051-0.324c0.03-0.014,0.074-0.023,0.11-0.021    C-0.409-4.426-0.407-4.38-0.4-4.335c-0.002,0.01,0.012,0.008,0.01,0.019c0,0.034,0.013,0.076,0.021,0.106    c0.001,0.007-0.001,0.023,0.01,0.025c-0.003-0.019,0.015-0.036,0.017-0.051c0.001-0.02-0.002-0.051-0.002-0.076    c0-0.126-0.02-0.256-0.008-0.375c0.004-0.069,0.043-0.132,0.047-0.2c-0.006-0.007-0.014-0.015-0.017-0.026    c-0.03-0.004-0.056-0.02-0.058-0.045c-0.004-0.031,0.027-0.057,0.035-0.081c-0.015-0.019-0.033-0.036-0.03-0.059    c0.001-0.009,0.009-0.018,0.014-0.024c0.006-0.016,0.006-0.034,0.019-0.043c-0.002-0.096-0.004-0.213,0.004-0.304    c0.003-0.009,0.006-0.019,0.005-0.028c0-0.007-0.006-0.013-0.008-0.02c-0.001-0.01,0.002-0.021,0-0.032    C-0.343-5.571-0.347-5.591-0.351-5.6c-0.005-0.023-0.007-0.039-0.024-0.048c0.006-0.014-0.009-0.025-0.01-0.04    c-0.001-0.01,0.005-0.018,0.007-0.025c-0.011-0.021-0.051-0.062-0.053-0.091c-0.003-0.008,0.006-0.019,0.004-0.03    c-0.002-0.015-0.012-0.022-0.012-0.033c0.004-0.011,0.014-0.011,0.025-0.019C-0.405-5.891-0.395-5.9-0.386-5.902    c0.015-0.003,0.029,0.003,0.042-0.003c0.007,0.012,0.031,0.014,0.042,0.012c0.026,0.016,0.068,0.016,0.08,0.047    c0,0.017,0,0.03,0,0.045c0.011,0,0.008,0.011,0.011,0.016c0.003,0.003,0.016,0.002,0.01,0.013c0.024,0,0.031,0.021,0.043,0.034    c-0.019,0.045,0.001,0.077,0,0.113C-0.16-5.594-0.174-5.562-0.169-5.532c0,0.016,0.012,0.032,0.006,0.048    c0.014,0.019,0.011,0.052,0.034,0.06c-0.013,0.003-0.007,0.009-0.007,0.017c0.002,0.038,0.023,0.08,0.034,0.12    c0.012,0.04,0.027,0.079,0.03,0.123c0.023,0.012,0.049,0.029,0.057,0.056c0.005,0.016,0.004,0.036,0.008,0.057    c0.011,0.055,0.034,0.108,0.042,0.155C0.033-4.892,0.031-4.887,0.03-4.881C0.026-4.854,0.023-4.812,0.027-4.785    C0.03-4.763,0.04-4.741,0.042-4.72c0.007,0.057-0.009,0.11,0.003,0.161c0.004-0.032,0.009-0.061,0.017-0.09    C0.068-4.675,0.083-4.7,0.087-4.732C0.09-4.753,0.083-4.779,0.084-4.808C0.085-4.85,0.097-4.894,0.095-4.936    C0.093-4.993,0.093-5.043,0.15-5.039c-0.008-0.015-0.014-0.02-0.013-0.036C0.141-5.1,0.183-5.097,0.192-5.117    C0.184-5.165,0.197-5.202,0.207-5.245c0.008-0.028,0.015-0.06,0.021-0.087c0.015-0.057,0.038-0.109,0.054-0.16    c-0.017-0.017,0.006-0.03,0.007-0.053c0.003-0.009-0.002-0.017-0.004-0.026C0.282-5.591,0.28-5.614,0.278-5.633    c0-0.04,0.009-0.073,0.016-0.104c0-0.004-0.005-0.007-0.005-0.012s0.006-0.008,0.006-0.012C0.296-5.765,0.294-5.776,0.3-5.781    c0.003-0.011,0.01-0.001,0.016-0.008c-0.004-0.029,0.017-0.06-0.002-0.073c0.01-0.008,0.01-0.021,0.015-0.033    c0.011-0.004,0.015-0.016,0.024-0.02c0.034-0.017,0.082-0.019,0.118-0.013C0.486-5.923,0.519-5.908,0.526-5.9    c0.013,0.02-0.002,0.045-0.003,0.06c-0.002,0.013,0.001,0.024,0,0.034c-0.004,0.03-0.027,0.052-0.038,0.083    C0.487-5.711,0.494-5.7,0.494-5.688C0.491-5.662,0.466-5.644,0.458-5.62c-0.002,0.009,0,0.016-0.002,0.022    C0.454-5.589,0.447-5.582,0.445-5.574C0.44-5.559,0.444-5.542,0.438-5.522c0.014,0.014,0.007,0.03,0.008,0.046    c0,0.005,0.005,0.008,0.005,0.013c0.004,0.027,0.012,0.042,0.016,0.062C0.472-5.376,0.47-5.342,0.472-5.313    c0.002,0.059-0.003,0.111-0.007,0.159c0,0.007,0.012,0.003,0.009,0.014c0.002,0.012-0.016,0.006-0.01,0.02    c0.012,0.028,0.042,0.062,0.02,0.101C0.509-5.001,0.506-4.977,0.49-4.954C0.472-4.936,0.407-4.906,0.401-4.883    C0.399-4.872,0.403-4.858,0.404-4.844c0.001,0.033-0.005,0.081,0,0.112C0.406-4.71,0.417-4.688,0.421-4.669    c0,0.027-0.01,0.054-0.006,0.082c0.001,0.021,0.012,0.041,0.012,0.062c0.035-0.013,0.062,0.005,0.1-0.002    C0.54-4.516,0.556-4.503,0.568-4.485C0.577-4.473,0.6-4.448,0.602-4.438C0.604-4.431,0.6-4.421,0.6-4.415    C0.598-4.363,0.604-4.31,0.615-4.265c0.029-0.002,0.056,0.016,0.078,0.029C0.678-4.179,0.698-4.13,0.7-4.076    C0.702-3.99,0.693-3.898,0.698-3.808c0.002,0.026,0.002,0.055,0,0.082C0.694-3.663,0.682-3.603,0.683-3.542    c0,0.029-0.001,0.05-0.008,0.077C0.665-3.423,0.651-3.389,0.64-3.352c-0.007,0.03-0.015,0.068-0.015,0.094    C0.613-3.234,0.591-3.205,0.594-3.174C0.587-3.169,0.583-3.159,0.577-3.151C0.563-3.12,0.543-3.097,0.521-3.077    C0.5-3.058,0.476-3.044,0.451-3.031z M-0.157-2.791c0.015,0,0.018-0.029,0.04-0.033l0.001-0.001l0.004-0.002    c-0.004-0.008,0.033-0.019,0.05-0.026c0.001-0.003,0.001-0.009,0.001-0.009c0.001,0,0.014,0.002,0.012-0.01    C-0.071-2.87-0.075-2.886-0.081-2.9c-0.003,0-0.005,0.004-0.009,0.003c-0.032-0.02-0.073-0.027-0.096-0.053    c0.001,0.051,0.017,0.108,0.022,0.162C-0.163-2.791-0.152-2.795-0.157-2.791z" fill="#FFFFFF"/>
    </g>
  </g></svg>