<?xml version="1.0" standalone="no"?>
<svg xmlns="http://www.w3.org/2000/svg" viewBox="-6.37 -6.37 12.74 12.74" color="#212121" width="75" height="75"><g transform="matrix(1 0 0 -1 0 0)">
    <g xmlns="http://www.w3.org/2000/svg">
      <path class="primary" fill="currentColor" d="M-0.001-6.245c-3.443,0-6.244,2.802-6.244,6.246c0,3.443,2.801,6.244,6.244,6.244    c3.444,0,6.246-2.801,6.246-6.244C6.245-3.443,3.443-6.245-0.001-6.245z"/>
      <path class="secondary" d="M-0.001,6.12c3.381,0,6.121-2.74,6.121-6.119c0-3.381-2.74-6.121-6.121-6.121    c-3.379,0-6.119,2.74-6.119,6.121C-6.12,3.38-3.38,6.12-0.001,6.12 M-0.001,6.37c-3.512,0-6.369-2.857-6.369-6.369    c0-3.513,2.857-6.371,6.369-6.371c3.513,0,6.371,2.858,6.371,6.371C6.37,3.513,3.512,6.37-0.001,6.37L-0.001,6.37z" fill="#FFFFFF"/>
    </g>
    <path xmlns="http://www.w3.org/2000/svg" class="secondary" d="M5.692,1.079c0,0,0.43-0.48,0-1.311L3.188,0.085v-0.15L2.974-0.071L2.919-0.153l0.152,0.006v0.027h0.088   v-0.059L3.042-0.296H2.946c0,0-0.018-0.111-0.127-0.123c-0.108-0.01-0.14,0.121-0.14,0.121v0.064L0.136-0.171v-0.068   c0,0-0.174-0.354-0.162-0.846h-0.092L-0.18-1.147h-0.168L-0.397-1.06l-0.399,0.012v0.07l0.031,0.229l-0.142,0.02L-0.964-0.78v0.236   l0.032-0.051l0.153,0.012v0.426l-0.805,0.01l-0.031-0.059v-0.199h-0.031l-0.029,0.053h-0.082v0.223h-0.541v-0.203h0.104v-0.115   L-2.286-0.54L-2.2-1.433l-0.596,0.025L-2.87-0.671l-0.341,0.01c0,0-0.183,0.016-0.128,0.559c-0.033,0.004-0.096,0-0.096,0v-0.02   h-0.194v0.23h-0.735V-0.91c0,0-0.242-0.062-0.447,0.004V0.09H-5.77c0,0-0.254,0.375,0,0.926c0.411,0.012,1.387,0,1.387,0V1.11   l0.654,0.08l-0.008,0.148c0,0,0.088,0.045,0.205,0c0-0.117,0-0.117,0-0.117h0.066l0.286,0.213l0.063-0.109l-0.04-0.053l1.038,0.098   c0,0,0.027-0.193,0.021-0.297C-2.358,1.048-2.78,0.995-2.78,0.995l3.143-0.041h1.148L1.527,1.02l0.07,0.043L1.68,1.017l0.005-0.062   h1.047v0.15l0.09,0.088h0.127l0.117-0.117L2.994,0.931V0.884h0.128l0.039-0.039l2.216,0.184l0.028,0.043L5.692,1.079z" fill="#FFFFFF"/>
  </g></svg>