<?xml version="1.0" standalone="no"?>
<svg xmlns="http://www.w3.org/2000/svg" viewBox="-6.37 -11.411 12.74 22.823" color="#212121" width="75" height="75"><g transform="matrix(1 0 0 -1 0 0)">
    <path xmlns="http://www.w3.org/2000/svg" class="secondary" d="M0.047,2.118l-0.109,0.065c-4.099,2.437-3.813,7.325-3.81,7.373l0.033,0.104   c0.043,0.067,1.045,1.632,3.84,1.632c2.793,0,3.803-1.564,3.844-1.631l0.034-0.055V9.542c0-5.308-3.682-7.344-3.719-7.364   L0.047,2.118z" fill="#FFFFFF"/>
    <g xmlns="http://www.w3.org/2000/svg">
      <path class="primary" fill="currentColor" d="M0.047,1.999l-0.112,0.067C-4.27,4.565-3.977,9.581-3.973,9.631l0.034,0.106    c0.043,0.07,1.072,1.675,3.939,1.675c2.865,0,3.901-1.605,3.943-1.673l0.035-0.057V9.615c0-5.445-3.777-7.534-3.815-7.555    L0.047,1.999z M-3.514,9.539c-0.019-0.555-0.027-4.776,3.568-7.004c0.598,0.381,3.431,2.421,3.461,7.008    C3.32,9.806,2.344,10.948,0,10.948C-2.36,10.948-3.33,9.793-3.514,9.539z"/>
    </g>
    <g xmlns="http://www.w3.org/2000/svg">
      <path class="primary" fill="currentColor" d="M-2.202,5.678v3.891h0.814V5.678H-2.202z"/>
      <path class="primary" fill="currentColor" d="M-0.7,5.678v3.891h1.1l1.035-2.694h0.008v2.694h0.76V5.678h-1.07L0.071,8.522H0.06V5.678H-0.7z"/>
    </g>
    <g xmlns="http://www.w3.org/2000/svg">
      <path class="primary" fill="currentColor" d="M0.001-11.287c-3.444,0-6.246,2.802-6.246,6.245c0,3.444,2.802,6.245,6.246,6.245    c3.443,0,6.244-2.802,6.244-6.245C6.245-8.486,3.444-11.287,0.001-11.287z"/>
      <path class="secondary" d="M0.001,1.078c3.379,0,6.119-2.74,6.119-6.12s-2.74-6.12-6.119-6.12c-3.381,0-6.121,2.74-6.121,6.12    S-3.38,1.078,0.001,1.078 M0.001,1.328c-3.513,0-6.371-2.857-6.371-6.37s2.858-6.37,6.371-6.37c3.512,0,6.369,2.857,6.369,6.37    S3.513,1.328,0.001,1.328L0.001,1.328z" fill="#FFFFFF"/>
    </g>
    <g xmlns="http://www.w3.org/2000/svg">
      <path class="secondary" d="M-1.208-3.526c0.04,0.072,0.065,0.157,0.035,0.248C-1.181-3.355-1.215-3.443-1.208-3.526z" fill="#FFFFFF"/>
      <path class="secondary" d="M-0.19-0.931c-0.003,0.001-0.005,0.02-0.009,0.023c-0.049,0.033-0.171,0.062-0.166,0.09    C-0.444-0.816-0.454-0.704-0.504-0.7c0.019-0.018-0.017-0.004-0.018,0.007c-0.019-0.176-0.07-0.359-0.074-0.521    c0.079,0.077,0.205,0.108,0.308,0.166c0.013,0.002,0.017-0.009,0.03-0.009c0.018,0.046,0.032,0.093,0.1,0.09    C-0.151-0.929-0.188-0.933-0.19-0.931z" fill="#FFFFFF"/>
      <path class="secondary" d="M2.247-4.823c0.012,0.278-0.021,0.569-0.009,0.858c0.004,0.088,0.004,0.18,0,0.265    C2.229-3.498,2.187-3.301,2.189-3.113c0.001,0.099-0.004,0.16-0.025,0.247C2.129-2.728,2.088-2.62,2.057-2.502    c-0.025,0.097-0.051,0.219-0.05,0.298C1.971-2.12,1.899-2.033,1.908-1.932c-0.029,0.019-0.036,0.048-0.05,0.075    C1.746-1.633,1.561-1.491,1.321-1.403c-0.001,0.1,0.104,0.283,0.066,0.39C1.375-0.98,1.309-0.925,1.264-0.931    c-0.112-0.02-0.081-0.333-0.148-0.398c-0.05,0.073-0.119,0.126-0.166,0.2C0.918-1.115,0.881-1.105,0.867-1.072    c-0.026,0.01-0.073-0.002-0.082,0.025C0.763-0.985,0.81-0.927,0.816-0.865C0.898-0.837,0.96-0.843,1.049-0.824    C1.056-0.782,1.08-0.758,1.074-0.699C1.08-0.689,1.131-0.654,1.09-0.651c0.004-0.016-0.032-0.017-0.01-0.008    C1.066-0.614,1.117-0.576,1.131-0.518c0.024,0.099-0.005,0.214-0.009,0.297C0.994-0.105,0.99,0.117,0.883,0.258    C0.859,0.289,0.822,0.299,0.809,0.342C0.658,0.451,0.494,0.577,0.23,0.564C0.01,0.553-0.138,0.441-0.249,0.341    C-0.388,0.19-0.42-0.065-0.454-0.319c-0.084,0.011-0.05,0.118-0.042,0.172c0.029,0.2,0.08,0.425,0.114,0.603    c-0.011,0.035-0.021,0.062-0.007,0.1c-0.058,0.003-0.058,0.061-0.115,0.056c-0.087-0.166-0.089-0.381-0.125-0.584    c-0.024-0.134-0.019-0.256-0.108-0.291C-0.752-0.417-0.792-0.584-0.82-0.75c-0.028-0.167-0.061-0.335-0.09-0.497    c-0.033-0.02-0.051-0.057-0.074-0.089c-0.047-0.018-0.087-0.04-0.142-0.05c-0.036-0.06-0.105-0.077-0.156-0.116    c-0.033-0.026-0.07-0.072-0.107-0.106c-0.036-0.037-0.082-0.078-0.108-0.116C-1.52-1.759-1.523-1.805-1.546-1.841    C-1.563-1.868-1.597-1.899-1.62-1.932c-0.055-0.065-0.105-0.12-0.159-0.183c-0.025-0.03-0.047-0.069-0.072-0.099    c-0.048-0.054-0.109-0.087-0.15-0.141c-0.02-0.026-0.028-0.061-0.049-0.09c-0.099-0.15-0.169-0.31-0.199-0.53    c0.092-0.093,0.178-0.25,0.281-0.322c0.058-0.038,0.197-0.098,0.266-0.106C-1.57-3.421-1.477-3.356-1.355-3.32    c0.018,0.006,0.038,0.055,0.057,0.033C-1.315-3.445-1.347-3.591-1.365-3.75c-0.023-0.026-0.058-0.04-0.057-0.09    c0.015-0.032,0.025-0.015,0.032-0.051c-0.041-0.371-0.087-0.726-0.148-1.072C-1.6-5.312-1.677-5.653-1.703-6.006    c0.09-0.046,0.238-0.072,0.355-0.066c0.033,0.13,0.047,0.277,0.065,0.422c-0.002,0.032,0.036,0.024,0.034,0.058    c0,0.107,0.042,0.243,0.066,0.339c0.006,0.026-0.008,0.078,0.032,0.084c-0.013-0.06,0.044-0.119,0.05-0.166    C-1.094-5.398-1.11-5.495-1.11-5.573c0-0.406-0.056-0.826-0.025-1.208c0.02-0.223,0.147-0.419,0.158-0.637    c-0.017-0.03-0.039-0.053-0.058-0.083c-0.092-0.017-0.17-0.069-0.18-0.149C-1.23-7.752-1.133-7.832-1.109-7.915    C-1.15-7.97-1.206-8.021-1.2-8.097c0.002-0.029,0.031-0.056,0.041-0.081C-1.137-8.229-1.137-8.285-1.1-8.312    c-0.01-0.313-0.012-0.691,0.016-0.976c0.004-0.029,0.018-0.061,0.018-0.091C-1.067-9.399-1.087-9.42-1.09-9.444    c-0.006-0.027,0.002-0.066,0-0.099c-0.008-0.071-0.019-0.137-0.026-0.164c-0.021-0.078-0.027-0.126-0.083-0.156    c0.018-0.042-0.03-0.081-0.033-0.125c-0.003-0.034,0.016-0.057,0.024-0.082c-0.037-0.07-0.163-0.193-0.172-0.291    c-0.004-0.024,0.018-0.06,0.015-0.098c-0.001-0.045-0.039-0.075-0.032-0.107c0.008-0.034,0.035-0.035,0.075-0.059    c0.026-0.015,0.065-0.043,0.09-0.05c0.046-0.009,0.093,0.014,0.133-0.007c0.021,0.032,0.104,0.041,0.14,0.032    c0.081,0.057,0.22,0.058,0.258,0.157c-0.005,0.046,0.002,0.09,0,0.14c0.03,0,0.019,0.034,0.032,0.051    c0.01,0.012,0.05,0.009,0.033,0.04c0.078,0.002,0.095,0.065,0.133,0.107c-0.055,0.146,0.004,0.25,0,0.364    C-0.508-9.691-0.554-9.59-0.544-9.495c0.003,0.053,0.041,0.101,0.023,0.157c0.043,0.055,0.036,0.163,0.107,0.191    c-0.04,0.006-0.019,0.024-0.017,0.049c0.009,0.127,0.065,0.258,0.107,0.389c0.038,0.128,0.088,0.255,0.098,0.396    c0.07,0.034,0.152,0.09,0.183,0.175c0.019,0.051,0.012,0.118,0.026,0.181c0.035,0.176,0.105,0.35,0.132,0.505    C0.105-7.438,0.101-7.42,0.098-7.401C0.087-7.317,0.082-7.181,0.09-7.097c0.007,0.072,0.041,0.143,0.051,0.215    c0.02,0.176-0.03,0.344,0.008,0.513C0.16-6.47,0.174-6.562,0.197-6.658C0.219-6.745,0.269-6.825,0.28-6.923    c0.009-0.072-0.011-0.154-0.009-0.24c0.006-0.14,0.041-0.286,0.033-0.413C0.297-7.763,0.301-7.919,0.485-7.915    c-0.023-0.044-0.046-0.059-0.04-0.107C0.456-8.105,0.59-8.097,0.619-8.163c-0.031-0.15,0.016-0.269,0.05-0.405    c0.022-0.096,0.043-0.192,0.065-0.28C0.78-9.032,0.859-9.198,0.908-9.361C0.854-9.417,0.927-9.464,0.933-9.534    c0.003-0.025-0.011-0.055-0.017-0.082C0.91-9.677,0.9-9.753,0.898-9.815c-0.002-0.132,0.026-0.235,0.043-0.331    c0.003-0.016-0.01-0.024-0.009-0.041c0.003-0.01,0.017-0.024,0.017-0.033c0.003-0.019-0.004-0.054,0.016-0.066    c0.006-0.036,0.029-0.005,0.051-0.025c-0.012-0.097,0.049-0.193-0.01-0.239c0.03-0.023,0.036-0.071,0.052-0.107    c0.034-0.009,0.039-0.05,0.073-0.06c0.107-0.052,0.268-0.059,0.381-0.039c0.049,0.008,0.153,0.061,0.172,0.09    c0.041,0.06-0.002,0.148-0.007,0.189c-0.005,0.04,0.004,0.078,0,0.108C1.66-10.274,1.595-10.2,1.561-10.104    c0.003,0.037,0.029,0.079,0.025,0.115C1.576-9.91,1.496-9.85,1.471-9.773C1.463-9.747,1.467-9.722,1.463-9.7    C1.454-9.673,1.436-9.652,1.429-9.625c-0.013,0.05-0.004,0.103-0.025,0.165c0.043,0.042,0.021,0.096,0.025,0.149    C1.43-9.301,1.443-9.285,1.445-9.27c0.014,0.087,0.038,0.128,0.049,0.197c0.017,0.084,0.014,0.187,0.018,0.282    c0.006,0.188-0.008,0.359-0.024,0.512c0.004,0.02,0.041,0.007,0.032,0.042c0.006,0.038-0.045,0.021-0.032,0.065    C1.526-8.08,1.622-7.973,1.553-7.849c0.076,0.06,0.072,0.138,0.017,0.207C1.516-7.577,1.309-7.484,1.287-7.411    c-0.006,0.031,0.007,0.084,0.01,0.123c0.005,0.108-0.016,0.264,0,0.365c0.01,0.071,0.045,0.132,0.05,0.198    C1.35-6.637,1.322-6.554,1.33-6.46c0.004,0.065,0.039,0.131,0.039,0.199c0.108-0.046,0.203,0.014,0.324-0.011    c0.042,0.041,0.092,0.081,0.132,0.134c0.03,0.039,0.098,0.116,0.106,0.156c0.005,0.018-0.008,0.047-0.008,0.066    C1.92-5.747,1.933-5.574,1.974-5.429c0.096-0.006,0.18,0.048,0.249,0.093C2.179-5.152,2.238-4.995,2.247-4.823z M-1.208-3.526    c-0.007,0.083,0.027,0.171,0.035,0.248C-1.143-3.369-1.168-3.454-1.208-3.526z M-0.258-1.056c-0.014,0-0.018,0.011-0.03,0.009    c-0.103-0.058-0.229-0.089-0.308-0.166c0.004,0.161,0.056,0.345,0.074,0.521c0.001-0.011,0.036-0.024,0.018-0.007    c0.05-0.004,0.06-0.116,0.139-0.118c-0.005-0.027,0.117-0.057,0.166-0.09C-0.195-0.911-0.193-0.93-0.19-0.931    c0.002-0.002,0.039,0.002,0.032-0.035C-0.226-0.963-0.24-1.01-0.258-1.056z" fill="#FFFFFF"/>
    </g>
  </g></svg>