<?xml version="1.0" standalone="no"?>
<svg xmlns="http://www.w3.org/2000/svg" viewBox="-6.37 -6.37 12.74 12.74" color="#212121" width="75" height="75"><g transform="matrix(1 0 0 -1 0 0)">
    <g xmlns="http://www.w3.org/2000/svg">
      <path class="primary" fill="currentColor" d="M-0.001-6.245c-3.443,0-6.244,2.802-6.244,6.245s2.801,6.245,6.244,6.245c3.444,0,6.246-2.802,6.246-6.245    S3.443-6.245-0.001-6.245z"/>
      <path class="secondary" d="M-0.001,6.12C3.38,6.12,6.12,3.38,6.12,0S3.38-6.12-0.001-6.12C-3.38-6.12-6.12-3.38-6.12,0    S-3.38,6.12-0.001,6.12 M-0.001,6.37C-3.513,6.37-6.37,3.513-6.37,0s2.857-6.37,6.369-6.37C3.512-6.37,6.37-3.513,6.37,0    S3.512,6.37-0.001,6.37L-0.001,6.37z" fill="#FFFFFF"/>
    </g>
    <g xmlns="http://www.w3.org/2000/svg" id="Armored_1_">
      <polygon class="secondary" points="3.474,-3.032 3.458,-3.046 3.481,-3.026   " fill="#FFFFFF"/>
      <polygon class="secondary" points="4.194,-2.708 4.247,-2.574 4.208,-2.581 4.132,-2.63   " fill="#FFFFFF"/>
      <path class="secondary" d="M5.116-2.606L4.962-2.358l0.125,0.087l-0.186,0.29L4.608-2.15L4.31-2.209L4.212-2.178L4.083-2.255    L3.702-2.327L2.968-2.746l-0.223,0.35L2.706-2.178v0.473L3.062-1.71l0.002,0.124h0.059v0.42H2.95v-0.37L2.706-1.532v0.006    L2.019-1.55l-0.027-0.5L1.878-2.087L1.413-1.91L1.396-1.798l0.26,0.333l0.213,0.107L1.591-0.801l0.057,0.146l0.324,0.453    l-0.59,0.421L1.366,0.205l-0.215,0.52l-1.963-1.276l-0.578,0.89l0.061,0.044L-1.718,0.9l-0.023-0.017l-2.078,3.211l-0.139-0.089    l-0.119,0.184l-0.291-0.188l0.613-0.949l-0.111-0.113l0.189-0.188l0.072,0.071l1.875-2.9L-1.9-0.289l0.117-0.674l0.457-1.244    l-0.275-0.081l-0.92-0.05l-1.357-0.786l1.207-0.186l0.117,0.18l-0.08-0.191l0.297-0.223l0.852-0.223L0.19-3.85L0.096-3.4    l0.227-0.03l0.885-0.209L1.161-4.014l0.465-0.168L2.354-4.19l-0.23,0.417L2.511-3.65l0.605-0.111l0.029,0.158l0.061-0.078    l1.006,0.787l0.156-0.062l0.047,0.115l0.088-0.145L5.116-2.606z M3.474-3.032l0.008,0.006l-0.023-0.02L3.474-3.032z M4.247-2.574    L4.194-2.708L4.132-2.63l0.076,0.049L4.247-2.574z" fill="#FFFFFF"/>
    </g>
  </g></svg>