<?xml version="1.0" standalone="no"?>
<svg xmlns="http://www.w3.org/2000/svg" viewBox="-6.37 -11.747 12.74 23.494" color="#212121" width="75" height="75"><g transform="matrix(1 0 0 -1 0 0)">
    <path xmlns="http://www.w3.org/2000/svg" class="secondary" d="M0.046,2.609l-0.107,0.064c-4.036,2.398-3.755,7.213-3.751,7.26l0.032,0.103   c0.042,0.065,1.029,1.606,3.781,1.606c2.75,0,3.744-1.541,3.784-1.606l0.034-0.055V9.919c0-5.226-3.625-7.23-3.662-7.251   L0.046,2.609z" fill="#FFFFFF"/>
    <g xmlns="http://www.w3.org/2000/svg">
      <path class="primary" fill="currentColor" d="M0.046,2.504l-0.109,0.064c-4.129,2.456-3.842,7.382-3.838,7.433l0.033,0.102    c0.043,0.068,1.055,1.644,3.869,1.644s3.832-1.576,3.875-1.642l0.033-0.057V9.984c0-5.349-3.711-7.4-3.748-7.421L0.046,2.504z     M-3.45,9.909C-3.468,9.363-3.476,5.218,0.054,3.03c0.59,0.374,3.371,2.377,3.4,6.884c-0.191,0.258-1.15,1.38-3.453,1.38    C-2.315,11.294-3.269,10.158-3.45,9.909z"/>
    </g>
    <polygon xmlns="http://www.w3.org/2000/svg" class="primary" fill="currentColor" points="1.332,6.104 -1.331,6.104 -1.331,9.995 1.272,9.995 1.272,9.359 -0.498,9.359 -0.498,8.435    1.159,8.435 1.159,7.8 -0.498,7.8 -0.498,6.751 1.332,6.751  "/>
    <g xmlns="http://www.w3.org/2000/svg">
      <path class="primary" fill="currentColor" d="M0.001-11.622c-3.444,0-6.246,2.802-6.246,6.245c0,3.444,2.802,6.245,6.246,6.245    c3.443,0,6.244-2.802,6.244-6.245C6.245-8.821,3.444-11.622,0.001-11.622z"/>
      <path class="secondary" d="M0.001,0.743c3.379,0,6.119-2.74,6.119-6.12s-2.74-6.12-6.119-6.12c-3.381,0-6.121,2.74-6.121,6.12    S-3.38,0.743,0.001,0.743 M0.001,0.993c-3.513,0-6.371-2.857-6.371-6.37s2.858-6.37,6.371-6.37c3.512,0,6.369,2.857,6.369,6.37    S3.513,0.993,0.001,0.993L0.001,0.993z" fill="#FFFFFF"/>
    </g>
    <g xmlns="http://www.w3.org/2000/svg">
      <path class="secondary" d="M-0.743-0.584C-0.731-0.523-0.777-0.569-0.743-0.584L-0.743-0.584z" fill="#FFFFFF"/>
      <path class="secondary" d="M0.044-0.561C0.011-0.569-0.021-0.578-0.034-0.605C-0.002-0.597,0.029-0.588,0.044-0.561z" fill="#FFFFFF"/>
      <path class="secondary" d="M-0.743-0.584C-0.756-0.63-0.71-0.586-0.743-0.584L-0.743-0.584z" fill="#FFFFFF"/>
      <path class="secondary" d="M3.388-6.055C3.41-6.059,3.424-6.053,3.421-6.032C3.406-6.017,3.378-6.017,3.388-6.055z" fill="#FFFFFF"/>
      <path class="secondary" d="M0.562-4.298C0.575-4.344,0.575-4.254,0.562-4.298L0.562-4.298z" fill="#FFFFFF"/>
      <path class="secondary" d="M3.253-6.032c0.008,0,0.016,0,0.022,0C3.276-6.018,3.29-6.018,3.287-5.999c-0.012,0-0.023,0-0.034,0    C3.253-6.01,3.253-6.021,3.253-6.032z" fill="#FFFFFF"/>
      <path class="secondary" d="M3.319-6.044C3.312-6.013,3.373-6.052,3.365-6.021C3.333-6.01,3.292-6.014,3.319-6.044z" fill="#FFFFFF"/>
      <path class="secondary" d="M2.07-4.782c-0.001-0.015-0.021-0.026,0-0.034C2.072-4.803,2.091-4.791,2.07-4.782z" fill="#FFFFFF"/>
      <path class="secondary" d="M2.184-5.109C2.114-5.094,2.047-5.123,1.98-5.12C1.964-5.119,1.948-5.1,1.924-5.098    C1.903-5.096,1.87-5.112,1.856-5.109C1.819-5.101,1.789-5.053,1.743-5.064C1.709-4.976,1.599-4.962,1.575-4.861    C1.497-4.91,1.416-4.957,1.306-4.975C1.277-4.957,1.268-4.929,1.227-4.951c-0.139,0.184-0.3,0.347-0.495,0.473    C0.716-4.557,0.79-4.546,0.799-4.603C0.789-4.697,0.813-4.76,0.81-4.851C0.783-4.875,0.73-4.874,0.674-4.872    C0.678-5.066,0.72-5.25,0.741-5.392C0.751-5.443,0.747-5.5,0.753-5.549C0.77-5.664,0.999-5.836,1.125-5.853    C1.58-5.914,1.998-5.727,2.273-5.56c0.018,0.08,0.08,0.117,0.124,0.168c0.019,0.03,0.093,0.005,0.09,0.058    C2.462-5.28,2.396-5.262,2.341-5.222C2.289-5.186,2.246-5.123,2.184-5.109z" fill="#FFFFFF"/>
      <path class="secondary" d="M3.839-6.134c0.014,0.033,0.036,0.062,0.032,0.112c-0.064,0.048-0.146,0.063-0.19-0.011    c-0.062,0.08-0.147,0.138-0.214,0.214C3.436-5.713,3.359-5.677,3.275-5.594C3.179-5.499,3.083-5.397,2.971-5.301    C2.904-5.242,2.858-5.172,2.769-5.132c-0.102,0.161-0.28,0.245-0.383,0.405c0.017,0.028,0.062,0.028,0.045,0.09    C2.369-4.597,2.288-4.529,2.184-4.57c-0.072,0.133-0.24,0.167-0.271,0.34C1.89-4.205,1.861-4.231,1.835-4.209    C1.797-4.177,1.819-4.13,1.722-4.152c0.014,0.014,0.014,0.042,0,0.057c-0.059,0-0.074-0.018-0.124,0    C1.538-4.013,1.44-3.968,1.384-3.882c0.081,0.087-0.097,0.14-0.067,0.281c-0.045,0.02-0.089,0.039-0.124,0.067    C1.134-3.412,1.151-3.277,1.103-3.15C1.06-3.041,0.989-2.946,0.956-2.835C0.942-2.787,0.949-2.736,0.934-2.688    C0.896-2.573,0.803-2.495,0.799-2.34C0.797-2.308,0.816-2.26,0.81-2.227c-0.021,0.123-0.179,0.184-0.181,0.35    c0.045,0.112,0.142,0.173,0.17,0.303C0.737-1.566,0.711-1.592,0.72-1.518C0.616-1.5,0.501-1.496,0.438-1.438    C0.486-1.391,0.595-1.4,0.64-1.35C0.608-1.224,0.715-1.19,0.663-1.112c0.053,0.034,0.039,0.135,0.078,0.18    c0.041-0.006,0.088-0.013,0.103,0.034c0.025,0.137-0.151,0.21-0.112,0.36c0.084,0.066,0.24,0.06,0.281,0.169    C0.992-0.322,0.916-0.33,0.91-0.268C0.876-0.262,0.853-0.244,0.821-0.234c0.012,0.039-0.04,0.038-0.057,0.056    c-0.078,0.09-0.111,0.21-0.191,0.293C0.521,0.168,0.448,0.212,0.382,0.262c-0.15,0.111-0.388,0.183-0.643,0.146    C-0.662,0.35-0.929,0.029-0.879-0.437c0.015-0.132,0.085-0.255,0.067-0.451c0.051-0.042,0.132-0.054,0.18-0.101    c-0.016-0.008-0.021-0.024-0.022-0.045c-0.188,0.051-0.228-0.078-0.248-0.248c-0.049,0-0.069-0.028-0.101-0.045    c-0.07,0.062-0.164,0.1-0.236,0.158c-0.002,0.05-0.023,0.08-0.034,0.123C-1.369-1.018-1.43-0.944-1.532-0.967    C-1.625-0.986-1.64-1.108-1.724-1.135c-0.031,0.062-0.064,0.122-0.102,0.18c-0.093,0.004-0.094,0.08-0.168,0.067    C-2.083-0.9-2.168-1.148-2.14-1.27c-0.146-0.182-0.293-0.361-0.281-0.698c0.061-0.04,0.032-0.169,0.066-0.237    c0.108-0.038,0.193-0.098,0.281-0.157C-2.1-2.527-2.145-2.806-2.061-2.947C-2.064-3.081-2.097-3.244-2.04-3.342    c-0.039-0.122-0.074-0.229-0.056-0.382c0.015-0.028,0.031-0.027,0.044-0.033c-0.015-0.097-0.022-0.199-0.033-0.306    C-2.094-4.16-2.092-4.266-2.13-4.344c-0.062-0.005-0.106,0.027-0.157,0C-2.311-4.37-2.315-4.429-2.298-4.468    c0.151-0.059,0.399-0.08,0.596-0.056c0.02,0.019,0.01,0.065,0.012,0.101C-1.737-4.4-1.794-4.385-1.836-4.356    c0.007,0.188,0.01,0.381,0.056,0.53c0.174,0.033,0.27-0.056,0.372-0.068c0.011-0.1-0.014-0.247,0.068-0.304    c0.026-0.015,0.026,0.053,0.043,0.012c0.021-0.077,0.019-0.108,0-0.181c0.002-0.042,0.046-0.001,0.046-0.022    c-0.016-0.014-0.018-0.043-0.033-0.056c-0.072,0.029-0.14,0.062-0.226,0.078c-0.04-0.038-0.101-0.24-0.079-0.339    c0.02-0.081,0.131-0.139,0.135-0.213c0.065-0.002,0.125-0.027,0.192-0.057c0.006-0.088,0.071-0.114,0.078-0.225    c0.011-0.165-0.016-0.332,0-0.495c0.035-0.358,0.13-0.702,0.203-1.036c0.075-0.341,0.164-0.672,0.225-1.014    c-0.146-0.072-0.229-0.37,0.013-0.395C-0.77-8.188-0.897-8.207-0.902-8.284c-0.004-0.066,0.113-0.119,0.125-0.18    c0.011-0.062-0.041-0.128-0.046-0.191c-0.002-0.03,0.012-0.071,0.012-0.102c0.004-0.157-0.041-0.318-0.023-0.496    c0.03-0.301,0.096-0.72-0.011-0.979c-0.019-0.045-0.065-0.078-0.079-0.134c-0.038-0.157,0.014-0.31-0.022-0.451    c0.058-0.089,0.164-0.129,0.293-0.146c0.025,0.003,0.013-0.033,0.034-0.033c0.049,0.029,0.128-0.007,0.158-0.035    c0.057,0.003,0.087-0.006,0.134-0.033c0.055-0.03,0.163-0.06,0.261-0.078c0.274-0.052,0.584-0.036,0.82,0.078    c0.036,0.058,0.109,0.104,0.068,0.203c-0.067,0.021-0.07,0.102-0.136,0.136c-0.081,0.04-0.239,0.03-0.338,0.066    c-0.024,0.018-0.042,0.042-0.056,0.068c-0.105-0.004-0.105,0.098-0.215,0.089c-0.041,0.095-0.122,0.148-0.111,0.293    C0.003-10.203,0-10.155,0.055-10.165c0.021-0.013,0.053-0.017,0.058-0.045c0.042-0.017,0.002,0.051,0.045,0.034    c0.049-0.017,0.077,0.006,0.146,0c0.026-0.006-0.007,0.052,0.033,0.034c0.059-0.011,0.157-0.032,0.282-0.034    c0.208-0.006,0.557,0.006,0.574,0.158c0.006,0.049-0.06,0.164-0.101,0.19C0.989-9.76,0.794-9.805,0.663-9.77    c-0.002,0.03,0.019,0.022,0,0.044c-0.049-0.006-0.097,0.062-0.135,0.08c-0.021,0.009-0.057-0.003-0.079,0.01    C0.433-9.624,0.406-9.587,0.382-9.567C0.339-9.533,0.306-9.526,0.28-9.478c-0.013,0.023,0,0.052-0.012,0.089    C0.253-9.335,0.196-9.283,0.19-9.241C0.183-9.195,0.218-9.139,0.201-9.084c0.024,0.021,0.048,0.043,0.057,0.079    c0.005,0.031-0.062-0.009-0.057,0.022C0.209-8.86,0.232-8.765,0.292-8.689C0.31-8.667,0.326-8.651,0.336-8.621    c0.009,0.023-0.005,0.051,0,0.089c0.015,0.108,0.087,0.208,0.012,0.305c0.058,0.201,0.113,0.403,0.124,0.652    C0.656-7.391,0.687-6.802,0.72-6.416C0.736-6.223,0.737-6,0.776-5.818C0.98-5.857,1.18-5.953,1.406-5.942    C1.8-5.923,2.181-5.767,2.431-5.604c0.028-0.001,0.055-0.001,0.068,0.011c0.057,0.02,0.052,0.099,0.123,0.102    c0.005,0.033,0.006,0.069,0.034,0.08c0.157-0.123,0.296-0.264,0.45-0.395c0.051-0.043,0.12-0.069,0.146-0.136    c0.034-0.04-0.048-0.036-0.022-0.102c0.023-0.034,0.117-0.025,0.157-0.011C3.377-6.017,3.406-6.017,3.42-6.033    c0.004-0.02-0.01-0.026-0.032-0.022C3.383-6.079,3.403-6.076,3.421-6.078C3.44-6.123,3.489-6.137,3.546-6.145    c0.077-0.061,0.12-0.156,0.236-0.18C3.833-6.339,3.817-6.285,3.85-6.28c0.02,0.003,0.061-0.035,0.057,0.012    C3.923-6.229,3.848-6.185,3.839-6.134z M-0.743-0.584C-0.777-0.569-0.731-0.523-0.743-0.584C-0.71-0.586-0.756-0.63-0.743-0.584z     M-0.034-0.605c0.013,0.027,0.045,0.036,0.078,0.045C0.029-0.588-0.002-0.597-0.034-0.605z M0.562-4.298    C0.575-4.254,0.575-4.344,0.562-4.298L0.562-4.298z M2.07-4.782c0.021-0.009,0.002-0.021,0-0.034    C2.05-4.809,2.069-4.797,2.07-4.782z M2.397-5.392C2.353-5.443,2.291-5.48,2.273-5.56C1.998-5.727,1.58-5.914,1.125-5.853    C0.999-5.836,0.77-5.664,0.753-5.549C0.747-5.5,0.751-5.443,0.741-5.392C0.72-5.25,0.678-5.066,0.674-4.872    C0.729-4.874,0.782-4.875,0.81-4.851C0.813-4.76,0.789-4.697,0.799-4.603C0.79-4.546,0.716-4.557,0.731-4.479    c0.195-0.126,0.356-0.289,0.495-0.473C1.267-4.93,1.277-4.958,1.305-4.975c0.11,0.018,0.191,0.064,0.27,0.113    c0.023-0.101,0.134-0.114,0.168-0.203C1.789-5.053,1.819-5.101,1.856-5.11C1.87-5.112,1.903-5.096,1.925-5.098    C1.948-5.101,1.965-5.119,1.98-5.12c0.066-0.003,0.134,0.026,0.203,0.011C2.245-5.123,2.288-5.185,2.34-5.221    c0.056-0.04,0.121-0.059,0.146-0.112C2.49-5.387,2.416-5.361,2.397-5.392z M3.275-6.032c-0.007,0-0.015,0-0.022,0    c0,0.011,0,0.022,0,0.033c0.011,0,0.022,0,0.034,0C3.29-6.018,3.276-6.018,3.275-6.032z M3.319-6.044    C3.292-6.014,3.333-6.01,3.365-6.021C3.373-6.052,3.312-6.013,3.319-6.044z" fill="#FFFFFF"/>
    </g>
  </g></svg>