<?xml version="1.0" standalone="no"?>
<svg xmlns="http://www.w3.org/2000/svg" viewBox="-11.245 -3.206 22.49 6.412" color="#212121" width="75" height="75"><g transform="matrix(1 0 0 -1 0 0)">
    <polygon xmlns="http://www.w3.org/2000/svg" class="primary" fill="currentColor" points="-2.347,3.206 -3.452,3.206 -4.458,1.075 -5.479,3.206 -6.612,3.206 -5.067,0.053 -6.755,-3.206    -5.651,-3.206 -4.509,-0.891 -3.397,-3.206 -2.267,-3.206 -3.899,0.053  "/>
    <polygon xmlns="http://www.w3.org/2000/svg" class="primary" fill="currentColor" points="-6.837,3.206 -7.94,3.206 -8.946,1.075 -9.97,3.206 -11.101,3.206 -9.556,0.053 -11.245,-3.206    -10.14,-3.206 -8.999,-0.891 -7.886,-3.206 -6.755,-3.206 -8.39,0.053  "/>
    <polygon xmlns="http://www.w3.org/2000/svg" class="primary" fill="currentColor" points="9.608,0.053 11.163,3.206 10.06,3.206 9.054,1.075 8.028,3.206 6.897,3.206 8.442,0.053 6.757,-3.201    5.124,0.053 6.679,3.206 5.575,3.206 4.569,1.075 3.544,3.206 2.415,3.206 3.958,0.053 2.274,-3.2 0.64,0.053 2.194,3.206    1.091,3.206 0.085,1.075 -0.94,3.206 -2.069,3.206 -0.526,0.053 -2.214,-3.206 -1.108,-3.206 0.03,-0.891 1.146,-3.206    2.271,-3.206 2.276,-3.206 3.376,-3.206 4.515,-0.891 5.63,-3.206 6.755,-3.206 6.761,-3.206 7.86,-3.206 8.999,-0.891    10.114,-3.206 11.245,-3.206  "/>
  </g></svg>