<?xml version="1.0" standalone="no"?>
<svg xmlns="http://www.w3.org/2000/svg" viewBox="-9 -3.206 18 6.412" color="#212121" width="75" height="75"><g transform="matrix(1 0 0 -1 0 0)">
    <polygon xmlns="http://www.w3.org/2000/svg" class="primary" fill="currentColor" points="-4.592,3.206 -5.696,3.206 -6.702,1.075 -7.725,3.206 -8.856,3.206 -7.312,0.053 -9,-3.206    -7.896,-3.206 -6.754,-0.891 -5.642,-3.206 -4.511,-3.206 -6.145,0.053  "/>
    <polygon xmlns="http://www.w3.org/2000/svg" class="primary" fill="currentColor" points="7.364,0.053 8.919,3.206 7.814,3.206 6.809,1.075 5.784,3.206 4.653,3.206 6.197,0.053 4.513,-3.201    2.88,0.053 4.435,3.206 3.33,3.206 2.324,1.075 1.3,3.206 0.17,3.206 1.713,0.053 0.029,-3.2 -1.604,0.053 -0.05,3.206    -1.154,3.206 -2.16,1.075 -3.185,3.206 -4.314,3.206 -2.771,0.053 -4.458,-3.206 -3.353,-3.206 -2.215,-0.891 -1.1,-3.206    0.026,-3.206 0.031,-3.206 1.131,-3.206 2.271,-0.891 3.385,-3.206 4.511,-3.206 4.516,-3.206 5.616,-3.206 6.754,-0.891    7.869,-3.206 9,-3.206  "/>
  </g></svg>