<?xml version="1.0" standalone="no"?>
<svg xmlns="http://www.w3.org/2000/svg" viewBox="-6.37 -6.37 12.74 12.74" color="#212121" width="75" height="75"><g transform="matrix(1 0 0 -1 0 0)">
    <g xmlns="http://www.w3.org/2000/svg">
      <circle class="primary" fill="currentColor" cx="0" cy="0" r="6.245"/>
      <path class="secondary" d="M0,6.12c3.38,0,6.12-2.74,6.12-6.12S3.38-6.12,0-6.12S-6.12-3.38-6.12,0S-3.38,6.12,0,6.12 M0,6.37    c-3.513,0-6.37-2.857-6.37-6.37S-3.513-6.37,0-6.37S6.37-3.513,6.37,0S3.513,6.37,0,6.37L0,6.37z" fill="#FFFFFF"/>
    </g>
    <g xmlns="http://www.w3.org/2000/svg" id="Chemical_2_">
      <path class="secondary" d="M2.505-0.883C2.07,0.157,1.62,1.233,1.591,1.649V1.65C1.54,2.304,1.468,3.294,1.428,3.848h0.493v1.172h-3.844    V3.848h0.452c0.012-0.52,0.03-1.535-0.009-2.118c-0.022-0.342-0.445-1.315-0.893-2.346C-2.976-2.008-3.6-3.446-3.6-4.086    c0-0.331,0.38-0.572,1.163-0.736c0.62-0.13,1.462-0.201,2.369-0.201c0.375,0,3.667,0.026,3.667,0.938    C3.599-3.5,3.043-2.17,2.505-0.883z M-1.659,4.111v0.645h3.316V4.111H1.409h-2.887H-1.659z M-0.068-4.759    c-0.89,0-1.712,0.069-2.314,0.195C-3.085-4.416-3.336-4.22-3.336-4.086c0,0.585,0.642,2.062,1.207,3.364    c0.476,1.098,0.888,2.046,0.913,2.434c0.039,0.588,0.022,1.606,0.01,2.136h2.369c0.04-0.555,0.113-1.563,0.164-2.217    c0.032-0.46,0.47-1.507,0.934-2.616c0.504-1.203,1.075-2.567,1.075-3.101C3.336-4.411,1.967-4.759-0.068-4.759z" fill="#FFFFFF"/>
      <path class="secondary" d="M1.716-0.268L1.681-0.189h-3.336L-1.69-0.267c-0.232-0.521-1.388-3.146-1.245-3.608    c0.112-0.364,1.848-0.474,3.206-0.474c0.511,0,0.969,0.016,1.267,0.039c1.166,0.091,1.349,0.28,1.374,0.455    C2.997-3.259,1.847-0.572,1.716-0.268z M-0.003-3.041c-0.239,0-0.438,0.199-0.438,0.442c0,0.245,0.199,0.438,0.438,0.438    c0.244,0,0.442-0.193,0.442-0.438C0.439-2.842,0.241-3.041-0.003-3.041z M0.44-1.91c-0.137,0-0.247,0.112-0.247,0.247    c0,0.137,0.109,0.248,0.246,0.248c0.137,0,0.248-0.111,0.248-0.248C0.687-1.798,0.577-1.91,0.44-1.91z M0.853-1.193    c-0.136,0-0.247,0.109-0.247,0.246c0,0.137,0.111,0.248,0.247,0.248c0.137,0,0.249-0.112,0.249-0.248    C1.102-1.084,0.991-1.193,0.853-1.193z" fill="#FFFFFF"/>
    </g>
  </g></svg>