<?xml version="1.0" standalone="no"?>
<svg xmlns="http://www.w3.org/2000/svg" viewBox="-6.37 -10.134 12.74 19.671" color="#212121" width="75" height="75"><g transform="matrix(1 0 0 -1 0 0)">
    <g xmlns="http://www.w3.org/2000/svg">
      <circle class="primary" fill="currentColor" cx="-0.001" cy="-3.764" r="6.245"/>
      <path class="secondary" d="M0,2.356c3.38,0,6.12-2.74,6.12-6.12S3.38-9.884,0-9.884s-6.12,2.74-6.12,6.12S-3.38,2.356,0,2.356 M0,2.606    c-3.513,0-6.37-2.858-6.37-6.37s2.858-6.37,6.37-6.37s6.37,2.858,6.37,6.37S3.512,2.606,0,2.606L0,2.606z" fill="#FFFFFF"/>
    </g>
    <g xmlns="http://www.w3.org/2000/svg" id="XMLID_6_">
      <g>
        <path class="secondary" d="M-2.078-5.37C-2.078-5.369-2.078-5.369-2.078-5.37C-2.078-5.369-2.078-5.37-2.078-5.37z M-2.079-5.369     L-2.079-5.369C-2.08-5.368-2.08-5.368-2.079-5.369L-2.079-5.369z M-0.342-3.118c0,0-0.001,0.001-0.001,0.002l0,0     C-0.343-3.117-0.342-3.118-0.342-3.118z M-0.351-3.095C-0.347-3.099-0.35-3.096-0.351-3.095L-0.351-3.095z M-0.351-3.095     L-0.351-3.095L-0.351-3.095z M1.167-0.555c0.027-0.078,0-0.081,0-0.162c-0.022-0.009-0.029-0.03-0.055-0.05     C1.088-0.776,1.106-0.744,1.083-0.752c-0.035-0.019,0.01-0.07,0.043-0.042C1.14-0.845,1.087-0.876,1.097-0.929     C1.065-0.928,1.059-0.953,1.04-0.964C1.052-1.05,1.06-1.111,1.083-1.175c0-0.013,0-0.026,0.002-0.04     c0.002-0.045,0.01-0.089,0.012-0.134c0-0.001,0-0.002,0-0.003c-0.01-0.096-0.09-0.221-0.17-0.24     C0.893-1.601,0.84-1.595,0.799-1.585C0.815-1.616,0.785-1.64,0.785-1.677C0.762-1.705,0.743-1.672,0.717-1.673     c0,0.004,0,0.007,0,0.011C0.715-1.645,0.71-1.635,0.694-1.624c0,0-0.152-0.032-0.154-0.088C0.547-1.728,0.563-1.718,0.575-1.71     c0.002-0.002,0.004-0.003,0.006-0.005c0.002-0.001,0.004-0.003,0.004-0.003c0.002-0.01-0.004-0.015-0.004-0.036     c0.018-0.021,0.117-0.008,0.1-0.028C0.704-1.77,0.778-1.875,0.772-1.945C0.756-1.957,0.733-1.944,0.729-1.953     C0.725-1.98,0.768-1.96,0.786-1.966C0.788-1.969,0.79-1.971,0.792-1.973c0.003-0.025,0.007-0.048,0.011-0.071     C0.799-2.074,0.786-2.103,0.78-2.129C0.784-2.152,0.764-2.14,0.758-2.135c0.004-0.024,0.016-0.042,0.041-0.043     C0.793-2.208,0.77-2.248,0.793-2.27C0.762-2.287,0.766-2.312,0.751-2.333C0.741-2.343,0.722-2.34,0.702-2.34     C0.698-2.365,0.696-2.397,0.696-2.43C0.672-2.491,0.682-2.566,0.702-2.624c0.002-0.028,0.006-0.051,0.027-0.063     c0.002,0.005,0.002,0.011,0.004,0.018c0.004-0.002,0.006-0.003,0.01-0.004c0-0.004,0-0.009,0-0.014     C0.766-2.71,0.829-2.733,0.88-2.76c0-0.022-0.002-0.044-0.004-0.066c-0.02-0.028,0.016-0.083-0.041-0.1     c0.041-0.047,0.082-0.092,0.099-0.162C0.94-3.094,0.946-3.1,0.952-3.105c0.007-0.049,0.009-0.103,0.021-0.153     C0.954-3.432,0.852-3.586,0.78-3.709C0.751-3.756,0.733-3.81,0.708-3.844c-0.067-0.092-0.256-0.135-0.36-0.084     c0-0.005-0.002-0.009-0.002-0.014C0.338-3.935,0.331-3.93,0.321-3.928c-0.01,0.006-0.02,0.01-0.035,0.007     c-0.006,0.01-0.01-0.001,0,0C0.28-3.928,0.272-3.932,0.264-3.936C0.27-3.953,0.268-3.965,0.266-3.977     c0-0.001-0.002-0.002-0.002-0.003C0.258-3.998,0.247-4.011,0.249-4.029C0.213-4.124,0.17-4.22,0.167-4.322     c-0.004-0.023,0-0.05,0.006-0.077C0.181-4.44,0.192-4.48,0.202-4.522c0.002-0.051,0-0.102-0.01-0.151     C0.19-4.677,0.188-4.68,0.188-4.682C0.165-4.727,0.141-4.776,0.127-4.826C0.124-4.823,0.12-4.82,0.116-4.818     C0.092-4.873,0.057-4.951,0.067-5.037C0.075-5.122,0.165-5.24,0.2-5.376c0.01-0.037,0.018-0.081,0.021-0.12     c0.024-0.249,0.061-0.479-0.049-0.656c0.002-0.029,0.041-0.035,0.063-0.056C0.325-6.293,0.37-6.441,0.243-6.49     C0.263-6.595,0.202-6.686,0.2-6.779c0-0.017,0.014-0.032,0.016-0.05c0-0.017-0.004-0.054-0.008-0.077     C0.196-6.961,0.172-7.07,0.159-7.119C0.124-7.234,0.083-7.352,0.051-7.471C0.043-7.503,0.034-7.532,0.024-7.563     C0.008-7.614,0.016-7.675-0.025-7.711c-0.002-0.067-0.033-0.113-0.043-0.17c-0.008-0.049,0.002-0.096,0-0.141     c-0.004-0.09-0.014-0.171,0.008-0.254c0.012-0.048,0.053-0.085,0.057-0.135c0-0.022-0.012-0.041-0.016-0.062     c-0.01-0.081-0.016-0.183-0.014-0.255c0-0.011-0.002-0.023,0.014-0.021C-0.05-8.795-0.107-8.815-0.146-8.854     c-0.053-0.01-0.086-0.017-0.133-0.043c-0.037,0.011-0.049,0.006-0.072-0.014c-0.021-0.008-0.018-0.003-0.035,0.007     c-0.176-0.087-0.334-0.23-0.592-0.212c-0.018-0.004-0.033-0.01-0.043-0.021C-1.056-9.121-1.109-9.135-1.154-9.13     c-0.049,0.006-0.027,0.009-0.057,0c-0.006-0.001-0.029,0-0.029,0c-0.074,0-0.135,0.036-0.219,0.043     c-0.023,0.023-0.053,0.041-0.092,0.049c0.008,0.029-0.023,0.036-0.027,0.065C-1.584-8.931-1.56-8.89-1.529-8.868     c0.004,0.126,0.197,0.149,0.324,0.204c0.027,0.012,0.041,0.039,0.07,0.036c0.01,0.017,0.01,0.042,0.021,0.056     c0.021,0.003,0.038,0.01,0.058,0.014c0.045,0.07,0.178,0.083,0.184,0.17c0.041,0.01,0.041,0.061,0.086,0.069     c0.012,0.054,0.033,0.099,0.055,0.142c-0.016,0.031-0.041-0.022-0.041-0.007c-0.021-0.002-0.025,0.013-0.035,0.02     c-0.044-0.002-0.089-0.005-0.109-0.035c-0.029-0.011,0,0.036-0.021,0.035C-0.98-8.152-0.976-8.195-0.978-8.206     C-0.99-8.207-1.003-8.205-1-8.221c-0.033-0.002-0.045,0.018-0.064,0.028c-0.023-0.033-0.094,0.007-0.09-0.042     c-0.039,0.013-0.104,0.033-0.148,0.007c-0.094,0.033-0.207-0.009-0.283,0.05C-1.62-8.197-1.649-8.154-1.677-8.171     c-0.057,0.028-0.107,0.149-0.014,0.177c0.018,0.159,0.246,0.105,0.389,0.142c0.027,0.05,0.082,0.071,0.113,0.119     c0.023,0.002,0.039,0.012,0.068,0.008c0.035,0.086,0.102,0.139,0.178,0.184c0.018,0.059,0.01,0.146,0.049,0.183     c0,0.041-0.035,0.062-0.043,0.099c-0.006,0.035,0.006,0.07,0,0.106c-0.02,0.184-0.106,0.374-0.141,0.558     C-1.092-6.526-1.094-6.46-1.105-6.411C-1.162-6.349-1.281-6.35-1.318-6.27c0.016,0.075,0.035,0.145,0.078,0.191     c-0.076,0.074-0.113,0.184-0.154,0.301c-0.041,0.112-0.092,0.23-0.107,0.353c-0.035,0.285,0,0.564-0.014,0.861     c-0.01,0.219,0.014,0.451,0.01,0.68c0,0.002,0,0.003,0,0.004c0.029,0.138,0.068,0.274,0.072,0.417l0.002,0.001     c-0.002,0.003-0.004,0.006-0.004,0.009c0,0.004,0,0.008,0,0.012c0,0.005-0.002,0.01-0.002,0.014     c0.004,0.02,0.02,0.042,0.022,0.064c0,0.025-0.024,0.044-0.008,0.07c-0.055-0.014-0.106-0.093-0.135-0.155     c0.014-0.062-0.021-0.1-0.027-0.162c0.006-0.007,0.01-0.016,0.012-0.025C-1.576-3.658-1.58-3.68-1.582-3.702     c0-0.003-0.002-0.006-0.004-0.008c-0.004-0.065-0.01-0.135-0.018-0.204c0-0.002-0.002-0.003-0.002-0.005     C-1.614-3.961-1.62-4.001-1.624-4.042c-0.01-0.062-0.026-0.122-0.045-0.176c-0.002-0.003-0.035-0.03-0.021-0.049     c-0.024,0.008-0.029-0.031-0.043-0.05C-1.751-4.339-1.776-4.355-1.79-4.38c-0.039-0.003-0.037-0.004-0.07-0.007     c0.003,0.009,0.007,0.015,0.013,0.021c0.006-0.011,0.01,0.001,0,0c0,0.007-0.006,0.009-0.006,0.014     c-0.021,0.004-0.033-0.009-0.021-0.021C-1.88-4.388-1.9-4.389-1.923-4.387c-0.004-0.114-0.039-0.207-0.021-0.304     C-1.952-4.69-1.952-4.68-1.952-4.67c-0.027-0.168-0.029-0.302-0.057-0.451c0.002-0.018-0.016-0.018-0.022-0.028     c0.016-0.046,0.006-0.049,0.008-0.085c0.078-0.019,0.061-0.144-0.014-0.127C-2.042-5.428-2.04-5.547-2.066-5.608     c0-0.023-0.016-0.009-0.027-0.008c0-0.011,0-0.022,0.002-0.034c-0.004-0.002-0.008-0.005-0.01-0.008     c-0.037-0.01-0.018-0.059-0.021-0.084c-0.006-0.067-0.018-0.147-0.02-0.213c-0.025-0.022-0.047-0.047-0.086-0.057     c0,0.034-0.027-0.001-0.049,0.008c-0.025,0.089-0.006,0.192-0.008,0.282c0,0.058-0.029,0.106-0.014,0.148     c0.016,0.016,0.027-0.003,0.051,0C-2.25-5.478-2.211-5.375-2.242-5.292c0.022,0.04,0.036,0.084,0.036,0.143     C-2.212-5.127-2.226-5.114-2.241-5.1c-0.002,0.038-0.01,0.058-0.006,0.092c0.014,0.239,0.049,0.497,0.076,0.748     c0.01,0.093,0.029,0.187,0.021,0.261c-0.014,0.139,0.041,0.287,0.027,0.41C-2.124-3.563-2.146-3.534-2.15-3.505     c-0.008,0.063,0.006,0.113-0.021,0.148c0.019,0.06,0.037,0.119,0.043,0.19c0.01,0.01,0.033,0.005,0.043,0.015     C-2.089-3.065-2.056-2.99-2.058-2.913C-2.06-2.85-2.099-2.789-2.072-2.722c-0.02,0.018-0.062,0.001-0.086,0     c-0.008,0.015-0.018,0.028-0.014,0.057c0.045,0.022,0.123,0.014,0.17,0.034C-2-2.566-1.994-2.506-1.98-2.454     c-0.025,0.081-0.053,0.158-0.072,0.247c-0.01,0.022-0.033,0.031-0.07,0.028C-2.21-2.126-2.237-2.012-2.319-1.953     C-2.313-1.91-2.342-1.865-2.36-1.826c-0.061,0.128-0.132,0.28-0.192,0.396c0,0.144,0.047,0.24,0.127,0.304     c0.004,0.109,0.047,0.142,0.105,0.197c0.041,0.038,0.084,0.068,0.121,0.1C-2.16-0.797-2.117-0.748-2.08-0.723     c0.063,0.041,0.137,0.057,0.191,0.092c0.08,0.05,0.137,0.146,0.211,0.197c0.026,0.016,0.048,0.041,0.071,0.056     c0.031,0.019,0.064,0.024,0.092,0.042c0.027,0.019,0.045,0.052,0.07,0.071c0.047,0.033,0.107,0.054,0.156,0.084     c0.053,0.033,0.094,0.071,0.141,0.106c-0.037,0.05-0.092,0.082-0.148,0.113c-0.018,0.057-0.061,0.104-0.084,0.17     c-0.025,0.072-0.02,0.16-0.07,0.19c-0.018,0.003-0.016-0.014-0.036-0.007c-0.041,0.032-0.059,0.087-0.1,0.12     c-0.006,0.021,0.012,0.021,0.014,0.035c-0.106,0.097-0.15,0.347-0.063,0.5C-1.6,1.048-1.6,1.102-1.565,1.082     c0.063,0.1,0.1,0.221,0.184,0.311c0.221,0.24,0.709,0.266,0.932,0.014c-0.008-0.001,0-0.007,0-0.007     c0.012-0.014,0.012-0.04,0.022-0.057C-0.423,1.328-0.415,1.35-0.408,1.35c0.006-0.009,0.01-0.019,0.014-0.027     C-0.388,1.302-0.386,1.29-0.378,1.28c0,0,0.002,0,0.006-0.001c0.053-0.108,0.096-0.222,0.111-0.341     c-0.002-0.001-0.006,0-0.012,0.004c0-0.014,0.004-0.021,0.014-0.022c0.002-0.012,0.004-0.025,0.004-0.038     c-0.006-0.096,0.004-0.174,0.011-0.294c0-0.027-0.006-0.003-0.021-0.007c0.014-0.031,0.053-0.036,0.08-0.054     c0-0.004,0.002-0.009,0.004-0.014V0.497c-0.01-0.004,0-0.009,0,0c0.004-0.003,0.006-0.005,0.008-0.008     c0.002-0.004,0.002-0.008,0.002-0.011c0-0.003,0-0.006-0.002-0.008C-0.185,0.453-0.197,0.435-0.21,0.417     c-0.047-0.042-0.137-0.059-0.196-0.104c0.037-0.024,0.098,0.016,0.133,0.028c0.006-0.003,0.01-0.005,0.012-0.009     c0.002-0.013,0.01-0.025,0.02-0.032c0.002-0.008,0.002-0.015,0.004-0.023c0.084-0.002,0.18,0.01,0.191-0.063     c0.023,0.003,0.039-0.003,0.057-0.007c0.033-0.046,0.019-0.14,0.041-0.198c0.04-0.002,0.064,0.013,0.107,0.008     c0.045,0.037,0.037,0.107,0.062,0.154c0.02,0.038,0.063,0.057,0.065,0.1c0.047,0.031,0.138,0.096,0.203,0.042     c0.018,0.06,0.01,0.146,0.021,0.212c0.035,0,0.053,0.026,0.086,0.028c0.057,0.003,0.111-0.035,0.141-0.069     c-0.008-0.005-0.012-0.012-0.014-0.02C0.696,0.445,0.67,0.445,0.658,0.404c-0.019-0.07,0.051-0.26,0-0.318     c0.02-0.01,0.039-0.02,0.057-0.034c0.002,0.002,0.006,0.005,0.006,0.01c0.02-0.008,0.043-0.004,0.053,0.017     c0.01,0.005,0.02,0.006,0.033-0.005c0.067,0.067,0.195,0.065,0.248-0.015C1.041,0.038,1.063,0.03,1.061,0.009     c0-0.02-0.021-0.04-0.021-0.063c0.002-0.034,0.043-0.07,0.021-0.099C1.028-0.178,1.096-0.219,1.096-0.259     c-0.008-0.001-0.004-0.006,0-0.006C1.125-0.303,1.18-0.372,1.145-0.428c0.018-0.011,0.02-0.037,0.029-0.056     C1.174-0.508,1.137-0.544,1.167-0.555z M0.772-3.152C0.768-3.149,0.776-3.157,0.772-3.152L0.772-3.152z M0.54-2.729     C0.534-2.706,0.547-2.664,0.532-2.652C0.536-2.673,0.514-2.669,0.51-2.687C0.504-2.69,0.499-2.693,0.497-2.701     C0.473-2.702,0.463-2.684,0.461-2.714C0.495-2.712,0.508-2.729,0.54-2.729z M0.418-2.679C0.424-2.684,0.417-2.676,0.418-2.679     L0.418-2.679z M0.413-2.694C0.422-2.689,0.411-2.685,0.413-2.694C0.397-2.691,0.389-2.695,0.391-2.707     C0.403-2.707,0.409-2.703,0.413-2.694z M0.221-2.813C0.227-2.819,0.219-2.81,0.221-2.813L0.221-2.813z M0.2-2.87     C0.206-2.874,0.198-2.867,0.2-2.87L0.2-2.87z M-0.3-3.25C-0.318-3.275-0.277-3.234-0.3-3.25L-0.3-3.25z M-0.365-2.997     C-0.359-3.001-0.367-2.994-0.365-2.997L-0.365-2.997z M-2.085-5.459C-2.089-5.457-2.081-5.464-2.085-5.459L-2.085-5.459z      M-2.093-5.482C-2.085-5.509-2.085-5.454-2.093-5.482L-2.093-5.482z M-2.093-5.537C-2.097-5.535-2.089-5.542-2.093-5.537     L-2.093-5.537z M-2.142-4.98c0.006,0.002,0.014,0,0.014,0.007C-2.134-4.974-2.142-4.973-2.142-4.98z M-2.199-5.643     C-2.203-5.64-2.195-5.648-2.199-5.643L-2.199-5.643z M-2.228-5.834C-2.224-5.838-2.23-5.832-2.228-5.834L-2.228-5.834z" fill="#FFFFFF"/>
        <path class="secondary" d="M1.125-0.794C1.118-0.766,1.145-0.793,1.125-0.794L1.125-0.794z" fill="#FFFFFF"/>
        <path class="secondary" d="M1.096-0.259c0.004,0,0.008-0.005,0-0.006C1.096-0.263,1.096-0.261,1.096-0.259z" fill="#FFFFFF"/>
        <path class="secondary" d="M1.061-0.153C1.069-0.152,1.067-0.163,1.061-0.153L1.061-0.153z" fill="#FFFFFF"/>
        <path class="secondary" d="M0.772-3.152C0.776-3.157,0.768-3.149,0.772-3.152L0.772-3.152z" fill="#FFFFFF"/>
        <path class="secondary" d="M0.532-2.652C0.547-2.664,0.534-2.706,0.54-2.729c-0.031,0-0.045,0.017-0.078,0.015     C0.464-2.684,0.474-2.701,0.497-2.7c0-0.007,0.008-0.006,0.014-0.007c0-0.007,0.01-0.006,0.016-0.007     c0,0.018-0.006,0.008-0.016,0.007c0,0.007-0.008,0.006-0.014,0.007C0.499-2.693,0.504-2.69,0.51-2.687c0-0.002,0-0.004,0-0.007     c0.008,0.002,0.004,0.007,0,0.007C0.514-2.669,0.536-2.673,0.532-2.652z" fill="#FFFFFF"/>
        <path class="secondary" d="M0.51-2.707c0.01,0.001,0.016,0.011,0.016-0.007C0.52-2.713,0.51-2.714,0.51-2.707z" fill="#FFFFFF"/>
        <path class="secondary" d="M0.51-2.687c0.004,0,0.008-0.005,0-0.007C0.51-2.691,0.51-2.689,0.51-2.687z" fill="#FFFFFF"/>
        <path class="secondary" d="M0.497-2.701c0.006-0.001,0.014,0,0.014-0.007C0.504-2.707,0.497-2.707,0.497-2.701z" fill="#FFFFFF"/>
        <path class="secondary" d="M0.418-2.679C0.417-2.676,0.424-2.684,0.418-2.679L0.418-2.679z" fill="#FFFFFF"/>
        <path class="secondary" d="M0.413-2.694C0.411-2.685,0.422-2.689,0.413-2.694L0.413-2.694z" fill="#FFFFFF"/>
        <path class="secondary" d="M0.391-2.707C0.389-2.695,0.397-2.691,0.413-2.694C0.409-2.703,0.403-2.707,0.391-2.707z" fill="#FFFFFF"/>
        <path class="secondary" d="M0.221-2.813C0.219-2.81,0.227-2.819,0.221-2.813L0.221-2.813z" fill="#FFFFFF"/>
        <path class="secondary" d="M0.2-2.87C0.198-2.867,0.206-2.874,0.2-2.87L0.2-2.87z" fill="#FFFFFF"/>
        <path class="secondary" d="M-0.3-3.25C-0.277-3.234-0.318-3.275-0.3-3.25L-0.3-3.25z" fill="#FFFFFF"/>
        <polygon class="secondary" points="-0.342,-3.118 -0.343,-3.117 -0.343,-3.116    " fill="#FFFFFF"/>
        <path class="secondary" d="M-0.351-3.095C-0.35-3.096-0.347-3.099-0.351-3.095L-0.351-3.095z" fill="#FFFFFF"/>
        <path class="secondary" d="M-0.351-3.095L-0.351-3.095L-0.351-3.095z" fill="#FFFFFF"/>
        <path class="secondary" d="M-0.365-2.997C-0.367-2.994-0.359-3.001-0.365-2.997L-0.365-2.997z" fill="#FFFFFF"/>
        <path class="secondary" d="M-0.437,1.407c0.002-0.006,0.006-0.012,0.01-0.019C-0.433,1.393-0.433,1.404-0.449,1.4l0.004,0.007     C-0.445,1.407-0.441,1.407-0.437,1.407z" fill="#FFFFFF"/>
        <path class="secondary" d="M-1.874-4.373C-1.867-4.372-1.871-4.383-1.874-4.373L-1.874-4.373z" fill="#FFFFFF"/>
        <path class="secondary" d="M-2.079-5.369C-2.078-5.369-2.078-5.369-2.079-5.369C-2.078-5.37-2.078-5.369-2.079-5.369z" fill="#FFFFFF"/>
        <polygon class="secondary" points="-2.079,-5.369 -2.08,-5.369 -2.08,-5.368    " fill="#FFFFFF"/>
        <path class="secondary" d="M-2.085-5.459C-2.081-5.464-2.089-5.457-2.085-5.459L-2.085-5.459z" fill="#FFFFFF"/>
        <path class="secondary" d="M-2.093-5.482C-2.085-5.454-2.085-5.509-2.093-5.482L-2.093-5.482z" fill="#FFFFFF"/>
        <path class="secondary" d="M-2.093-5.537C-2.089-5.542-2.097-5.535-2.093-5.537L-2.093-5.537z" fill="#FFFFFF"/>
        <path class="secondary" d="M-2.199-5.643C-2.195-5.648-2.203-5.64-2.199-5.643L-2.199-5.643z" fill="#FFFFFF"/>
        <path class="secondary" d="M-2.228-5.834C-2.23-5.832-2.224-5.838-2.228-5.834L-2.228-5.834z" fill="#FFFFFF"/>
        <path class="secondary" d="M-2.228-6.011C-2.226-6.019-2.238-6.014-2.228-6.011L-2.228-6.011z" fill="#FFFFFF"/>
      </g>
      <g>
      </g>
    </g>
    <g xmlns="http://www.w3.org/2000/svg">
      <path class="primary" fill="currentColor" d="M-3.304,7.974c-0.019,0.157-0.076,0.8-0.737,0.8c-0.725,0-1.027-0.756-1.027-1.695    c0-0.271,0-1.562,0.951-1.562c0.41,0,0.801,0.259,0.819,0.863h1.027C-2.29,6.109-2.315,5.686-2.68,5.308    c-0.403-0.416-0.914-0.511-1.33-0.511c-1.569,0-2.08,1.16-2.08,2.288c0,1.443,0.807,2.4,2.086,2.4    c0.996,0,1.695-0.604,1.695-1.512H-3.304z"/>
      <path class="primary" fill="currentColor" d="M-0.885,6.361c0-0.215-0.013-0.863,0.826-0.863c0.529,0,0.863,0.252,0.863,0.636    c0,0.403-0.284,0.473-0.863,0.611c-1.084,0.271-1.677,0.593-1.677,1.381c0,0.749,0.536,1.411,1.803,1.411    c0.473,0,1.033-0.107,1.373-0.535c0.259-0.328,0.259-0.693,0.259-0.845H0.759C0.747,8.314,0.697,8.85,0.022,8.85    c-0.453,0-0.749-0.246-0.749-0.618c0-0.422,0.334-0.498,0.989-0.661c0.787-0.189,1.562-0.403,1.562-1.292    c0-0.819-0.681-1.481-1.941-1.481c-1.746,0-1.758,1.122-1.764,1.563H-0.885z"/>
      <path class="primary" fill="currentColor" d="M3.317,6.361c0-0.215-0.013-0.863,0.826-0.863c0.529,0,0.863,0.252,0.863,0.636    c0,0.403-0.284,0.473-0.863,0.611C3.059,7.016,2.466,7.337,2.466,8.125c0,0.749,0.536,1.411,1.803,1.411    c0.473,0,1.033-0.107,1.373-0.535c0.259-0.328,0.259-0.693,0.259-0.845H4.961C4.95,8.314,4.899,8.85,4.224,8.85    c-0.453,0-0.749-0.246-0.749-0.618c0-0.422,0.334-0.498,0.989-0.661c0.787-0.189,1.562-0.403,1.562-1.292    c0-0.819-0.681-1.481-1.941-1.481c-1.745,0-1.758,1.122-1.764,1.563H3.317z"/>
    </g>
  </g></svg>