<?xml version="1.0" standalone="no"?>
<svg xmlns="http://www.w3.org/2000/svg" viewBox="-6.37 -6.37 12.74 12.74" color="#212121" width="75" height="75"><g transform="matrix(1 0 0 -1 0 0)">
    <g xmlns="http://www.w3.org/2000/svg">
      <circle class="primary" fill="currentColor" cx="0" cy="0" r="6.245"/>
      <path class="secondary" d="M0,6.12c3.38,0,6.12-2.74,6.12-6.12S3.38-6.12,0-6.12S-6.12-3.38-6.12,0S-3.38,6.12,0,6.12 M0,6.37    c-3.513,0-6.37-2.857-6.37-6.37S-3.513-6.37,0-6.37S6.37-3.513,6.37,0S3.513,6.37,0,6.37L0,6.37z" fill="#FFFFFF"/>
    </g>
    <path xmlns="http://www.w3.org/2000/svg" id="Combined_Arms_1_" class="secondary" d="M3.202-3.164C3.164-3.118,3.135-3.041,3.086-2.988C2.93-2.815,2.732-2.654,2.562-2.463   C2.502-2.398,2.51-2.365,2.473-2.317c-0.02,0.024-0.065-0.007-0.086,0.029c-0.007,0.011,0.029,0.029,0,0.058   C2.303-2.149,2.152-2.104,2.036-1.938c-0.091,0.13-0.06,0.306-0.174,0.408C1.847-1.434,1.95-1.336,1.978-1.239   c-0.124-0.003-0.1,0.099-0.059,0.174C1.826-1.042,1.525-0.827,1.688-0.714c0.059,0.041,0.1-0.096,0.146-0.147   c0.057-0.063,0.135-0.14,0.203-0.204c0.12-0.109,0.252-0.343,0.38-0.202c0.153,0.116-0.09,0.188-0.146,0.261   C2.248-0.979,2.272-0.947,2.24-0.919C2.231-0.911,2.175-0.928,2.154-0.891c-0.007,0.011,0.024,0.032,0,0.061   C2.131-0.806,2.151-0.773,2.123-0.743C2.077-0.692,2.036-0.701,1.978-0.656C1.908-0.601,1.782-0.5,1.717-0.395   c-0.02,0.029,0,0.059-0.029,0.087C1.645-0.264,1.556-0.227,1.511-0.189C1.354-0.058,1.18,0.161,0.987,0.336   c0.02,0.106-0.107,0.277-0.232,0.232C0.748,0.628,0.696,0.69,0.635,0.75c0.279,0.328,0.56,0.655,0.827,0.984   c0.077,0.037,0.156-0.17,0.232-0.117C1.631,1.705,1.55,1.792,1.549,1.88C2.123,2.443,2.51,3.007,3.064,3.57   c0.127-0.02,0.111-0.22,0.263-0.145C3.317,3.512,3.312,3.525,3.27,3.6C3.253,3.628,3.117,3.645,3.211,3.717   c-0.004,0.1,0.123,0.071,0.204,0.203C3.379,3.989,3.31,4.057,3.327,4.124c0.169,0.126,0.344,0.379,0.38,0.438   c0.049,0.084,0.179,0.11,0.059,0.175C3.52,4.726,3.458,4.485,3.299,4.329C3.212,4.244,3.1,4.177,3.006,4.095   C2.572,3.719,1.979,3.068,1.665,2.696c-0.254-0.3-0.594-0.594-0.874-0.875C0.509,1.538,0.25,1.25,0,1.023   C-0.25,1.25-0.509,1.538-0.791,1.821c-0.279,0.28-0.618,0.574-0.874,0.875C-1.98,3.068-2.572,3.719-3.007,4.095   C-3.1,4.177-3.211,4.244-3.298,4.329c-0.161,0.156-0.221,0.396-0.467,0.407c-0.12-0.064,0.009-0.091,0.059-0.175   c0.034-0.059,0.212-0.312,0.38-0.438C-3.31,4.057-3.379,3.989-3.414,3.92c0.08-0.132,0.206-0.103,0.203-0.203   C-3.117,3.645-3.252,3.628-3.268,3.6c-0.044-0.074-0.049-0.088-0.059-0.175C-3.176,3.35-3.191,3.55-3.065,3.57   c0.556-0.563,0.942-1.127,1.518-1.69C-1.55,1.792-1.63,1.705-1.695,1.617c0.078-0.053,0.156,0.154,0.233,0.117   c0.269-0.329,0.548-0.656,0.827-0.984c-0.062-0.06-0.112-0.122-0.118-0.182c-0.126,0.045-0.254-0.126-0.235-0.232   c-0.19-0.175-0.365-0.394-0.523-0.525c-0.043-0.037-0.132-0.074-0.175-0.118c-0.029-0.028-0.012-0.058-0.029-0.087   C-1.781-0.5-1.908-0.601-1.978-0.656c-0.057-0.045-0.1-0.036-0.146-0.087c-0.029-0.03-0.008-0.062-0.03-0.087   c-0.024-0.028,0.006-0.05,0.001-0.061c-0.022-0.037-0.078-0.02-0.087-0.028c-0.032-0.028-0.008-0.06-0.03-0.088   c-0.057-0.072-0.3-0.145-0.145-0.261c0.126-0.141,0.259,0.093,0.377,0.202c0.068,0.064,0.147,0.141,0.205,0.204   c0.045,0.052,0.087,0.188,0.146,0.147c0.161-0.113-0.141-0.328-0.232-0.352c0.042-0.075,0.064-0.177-0.059-0.174   C-1.949-1.336-1.847-1.434-1.86-1.53c-0.115-0.103-0.085-0.278-0.177-0.408c-0.115-0.166-0.265-0.211-0.35-0.292   c-0.028-0.028,0.008-0.047,0-0.058c-0.021-0.036-0.067-0.005-0.086-0.029c-0.038-0.048-0.029-0.081-0.088-0.146   c-0.172-0.191-0.367-0.353-0.524-0.525c-0.05-0.053-0.079-0.13-0.118-0.176c-0.221-0.25-0.439-0.458-0.611-0.729   c0.05-0.227,0.293-0.391,0.495-0.554c0.081-0.064,0.132-0.154,0.205-0.203c0.078-0.054,0.15-0.014,0.203-0.088   c0.225,0.203,0.296,0.408,0.38,0.612c0.087-0.021,0.174-0.106,0.262,0.029c-0.026,0.059-0.185,0.116-0.117,0.174   c0.043,0.105,0.092,0.166,0.088,0.205C-2.301-3.698-2.244-3.617-2.24-3.6c0.016,0.076,0.069,0.147,0.117,0.232   c0.035,0.062,0.051,0.085,0.086,0.146c0.04,0.067,0.074,0.153,0.117,0.233c0.062,0.113,0.118,0.256,0.175,0.35   C-1.69-2.548-1.609-2.363-1.6-2.317c0.009,0.033,0.024,0.054,0.03,0.087c0.01,0.045-0.012,0.135,0,0.175   c0.004,0.009,0.023,0.022,0.029,0.028c0.062,0.069,0.052,0.247,0.146,0.322C-1.317-1.776-1.24-1.85-1.162-1.764   c0.148,0.09,0.115,0.121,0.264,0.262c-0.025,0.078-0.136,0.155-0.118,0.234C-0.704-0.845-0.355-0.423,0,0.001   c0.356-0.424,0.703-0.846,1.016-1.269C1.036-1.347,0.924-1.424,0.9-1.502c0.147-0.141,0.115-0.172,0.263-0.262   C1.239-1.85,1.318-1.776,1.395-1.705C1.489-1.78,1.479-1.958,1.541-2.027c0.006-0.006,0.025-0.02,0.028-0.028   c0.013-0.04-0.007-0.13,0.001-0.175C1.576-2.263,1.592-2.284,1.6-2.317c0.01-0.046,0.091-0.23,0.146-0.321   c0.057-0.094,0.111-0.236,0.175-0.35c0.043-0.08,0.075-0.166,0.115-0.233c0.036-0.061,0.052-0.083,0.087-0.146   C2.173-3.452,2.225-3.523,2.24-3.6C2.244-3.617,2.301-3.698,2.3-3.717c-0.005-0.039,0.044-0.1,0.087-0.205   C2.455-3.979,2.295-4.037,2.27-4.096c0.088-0.136,0.176-0.051,0.263-0.029c0.083-0.204,0.154-0.409,0.38-0.612   c0.053,0.074,0.123,0.034,0.203,0.088C3.189-4.6,3.239-4.51,3.319-4.446c0.203,0.163,0.447,0.327,0.496,0.554   C3.643-3.622,3.424-3.414,3.202-3.164z" fill="#FFFFFF"/>
  </g></svg>