<?xml version="1.0" standalone="no"?>
<svg xmlns="http://www.w3.org/2000/svg" viewBox="-6.37 -9.856 12.74 19.135" color="#212121" width="75" height="75"><g transform="matrix(1 0 0 -1 0 0)">
    <g xmlns="http://www.w3.org/2000/svg">
      <path class="primary" fill="currentColor" d="M0.787,7.935C0.77,8.075,0.72,8.646,0.131,8.646c-0.644,0-0.913-0.672-0.913-1.507    c0-0.24,0-1.389,0.846-1.389c0.364,0,0.711,0.229,0.728,0.768h0.913C1.688,6.277,1.666,5.902,1.341,5.566    C0.983,5.197,0.529,5.113,0.16,5.113c-1.395,0-1.848,1.03-1.848,2.032c0,1.282,0.717,2.134,1.854,2.134    c0.885,0,1.506-0.538,1.506-1.344H0.787z"/>
    </g>
    <g xmlns="http://www.w3.org/2000/svg">
      <circle class="primary" fill="currentColor" cx="0" cy="-3.486" r="6.245"/>
      <path class="secondary" d="M0,2.634c3.38,0,6.12-2.74,6.12-6.12S3.38-9.606,0-9.606s-6.12,2.74-6.12,6.12S-3.38,2.634,0,2.634 M0,2.884    c-3.513,0-6.37-2.857-6.37-6.37s2.857-6.37,6.37-6.37s6.37,2.857,6.37,6.37S3.513,2.884,0,2.884L0,2.884z" fill="#FFFFFF"/>
    </g>
    <g xmlns="http://www.w3.org/2000/svg">
      <path class="secondary" d="M-1.208,1.398C-1.195,1.458-1.243,1.412-1.208,1.398L-1.208,1.398z" fill="#FFFFFF"/>
      <path class="secondary" d="M-0.405,1.421c-0.033-0.01-0.066-0.019-0.08-0.047C-0.452,1.383-0.42,1.393-0.405,1.421z" fill="#FFFFFF"/>
      <path class="secondary" d="M-1.208,1.398C-1.22,1.35-1.174,1.396-1.208,1.398L-1.208,1.398z" fill="#FFFFFF"/>
      <path class="secondary" d="M3.001-4.175c0.021-0.004,0.035,0.002,0.034,0.023C3.019-4.135,2.99-4.135,3.001-4.175z" fill="#FFFFFF"/>
      <path class="secondary" d="M0.122-2.386C0.136-2.432,0.136-2.341,0.122-2.386L0.122-2.386z" fill="#FFFFFF"/>
      <path class="secondary" d="M2.862-4.152c0.008,0,0.016,0,0.023,0c0,0.014,0.015,0.015,0.012,0.033c-0.012,0-0.023,0-0.035,0    C2.862-4.129,2.862-4.141,2.862-4.152z" fill="#FFFFFF"/>
      <path class="secondary" d="M2.932-4.165C2.923-4.133,2.985-4.172,2.978-4.141C2.944-4.13,2.903-4.133,2.932-4.165z" fill="#FFFFFF"/>
      <path class="secondary" d="M1.658-2.879c-0.001-0.014-0.02-0.027,0-0.034C1.661-2.9,1.68-2.887,1.658-2.879z" fill="#FFFFFF"/>
      <path class="secondary" d="M1.774-3.212c-0.071,0.015-0.14-0.014-0.207-0.011c-0.017,0-0.033,0.02-0.058,0.022    C1.487-3.199,1.454-3.215,1.44-3.212C1.402-3.204,1.372-3.155,1.326-3.167C1.29-3.076,1.179-3.062,1.153-2.959    c-0.08-0.05-0.162-0.098-0.274-0.115c-0.028,0.018-0.038,0.047-0.08,0.022C0.657-2.864,0.494-2.699,0.294-2.57    C0.28-2.65,0.354-2.639,0.363-2.696c-0.01-0.097,0.015-0.161,0.011-0.252C0.347-2.974,0.292-2.973,0.236-2.971    c0.004-0.197,0.046-0.384,0.07-0.528C0.314-3.553,0.311-3.61,0.317-3.66c0.016-0.118,0.25-0.292,0.378-0.31    c0.465-0.062,0.89,0.13,1.17,0.3c0.019,0.08,0.08,0.117,0.126,0.172c0.02,0.029,0.095,0.004,0.092,0.057    C2.058-3.387,1.99-3.368,1.935-3.327C1.882-3.29,1.837-3.227,1.774-3.212z" fill="#FFFFFF"/>
      <path class="secondary" d="M3.46-4.256c0.014,0.035,0.036,0.062,0.033,0.115C3.427-4.092,3.344-4.077,3.299-4.152    c-0.063,0.081-0.15,0.141-0.218,0.218C3.049-3.827,2.972-3.79,2.886-3.706c-0.098,0.097-0.197,0.2-0.311,0.299    C2.508-3.347,2.46-3.276,2.37-3.235C2.266-3.072,2.084-2.986,1.979-2.823c0.018,0.029,0.063,0.029,0.046,0.092    C1.964-2.69,1.88-2.622,1.774-2.662C1.701-2.528,1.53-2.493,1.498-2.318c-0.022,0.026-0.053-0.001-0.08,0.023    C1.38-2.262,1.401-2.215,1.303-2.238c0.016,0.015,0.016,0.042,0,0.058c-0.059,0-0.075-0.017-0.126,0    C1.116-2.095,1.017-2.05,0.96-1.962c0.082,0.089-0.1,0.144-0.069,0.287C0.845-1.656,0.8-1.636,0.764-1.607    c-0.06,0.124-0.041,0.261-0.091,0.39C0.629-1.106,0.558-1.008,0.524-0.895c-0.016,0.048-0.008,0.1-0.023,0.148    C0.464-0.629,0.367-0.549,0.363-0.391C0.362-0.359,0.381-0.31,0.374-0.277C0.352-0.151,0.192-0.089,0.19,0.08    c0.046,0.114,0.145,0.177,0.173,0.309C0.3,0.397,0.273,0.37,0.282,0.446C0.178,0.463,0.06,0.467-0.004,0.526    c0.05,0.05,0.159,0.039,0.206,0.092C0.169,0.746,0.277,0.779,0.226,0.859c0.053,0.034,0.039,0.137,0.08,0.184    C0.347,1.035,0.395,1.03,0.409,1.077c0.026,0.14-0.154,0.214-0.115,0.367C0.38,1.511,0.54,1.504,0.581,1.616    C0.56,1.664,0.482,1.655,0.478,1.718c-0.035,0.007-0.06,0.024-0.092,0.035c0.012,0.039-0.041,0.038-0.058,0.058    C0.247,1.902,0.216,2.025,0.134,2.109c-0.053,0.053-0.129,0.1-0.195,0.148c-0.153,0.115-0.395,0.188-0.654,0.149    c-0.408-0.06-0.681-0.385-0.63-0.86c0.015-0.134,0.087-0.258,0.068-0.458c0.053-0.043,0.136-0.057,0.184-0.104    C-1.109,0.977-1.114,0.96-1.116,0.939C-1.309,0.992-1.349,0.86-1.369,0.687c-0.05,0-0.07-0.029-0.103-0.046    c-0.071,0.062-0.167,0.101-0.241,0.16c-0.001,0.052-0.024,0.083-0.034,0.126c-0.098,0.029-0.16,0.104-0.264,0.081    C-2.106,0.987-2.12,0.863-2.206,0.836C-2.237,0.9-2.272,0.96-2.31,1.019C-2.404,1.024-2.405,1.1-2.481,1.088    c-0.09-0.014-0.177-0.266-0.148-0.391c-0.149-0.184-0.298-0.366-0.287-0.71c0.062-0.041,0.034-0.173,0.069-0.241    c0.108-0.04,0.197-0.101,0.286-0.161C-2.589-0.583-2.636-0.866-2.55-1.01c-0.002-0.136-0.036-0.302,0.022-0.401    c-0.04-0.125-0.075-0.233-0.057-0.39c0.016-0.029,0.032-0.027,0.046-0.034c-0.016-0.097-0.024-0.202-0.035-0.311    C-2.582-2.245-2.58-2.354-2.618-2.432c-0.063-0.006-0.109,0.027-0.161,0C-2.804-2.459-2.81-2.52-2.791-2.559    c0.154-0.06,0.407-0.081,0.607-0.057c0.02,0.02,0.01,0.066,0.013,0.103C-2.22-2.49-2.278-2.474-2.32-2.444    c0.007,0.191,0.011,0.387,0.057,0.539c0.178,0.034,0.274-0.057,0.379-0.068c0.011-0.103-0.014-0.253,0.069-0.311    C-1.787-2.299-1.788-2.23-1.77-2.272c0.021-0.077,0.019-0.11,0-0.184c0.002-0.043,0.045-0.001,0.047-0.023    c-0.018-0.013-0.019-0.042-0.035-0.057c-0.073,0.03-0.143,0.064-0.229,0.08C-2.028-2.494-2.091-2.7-2.068-2.799    c0.019-0.084,0.133-0.144,0.138-0.218c0.066-0.002,0.127-0.028,0.195-0.058c0.006-0.09,0.072-0.117,0.08-0.229    c0.011-0.168-0.017-0.338,0-0.504c0.035-0.365,0.131-0.716,0.206-1.056c0.077-0.348,0.167-0.685,0.229-1.031    c-0.148-0.074-0.234-0.379,0.012-0.402c-0.026-0.05-0.156-0.07-0.161-0.148c-0.004-0.068,0.115-0.121,0.126-0.184    c0.012-0.062-0.041-0.13-0.045-0.195c-0.003-0.03,0.011-0.071,0.011-0.103c0.005-0.16-0.041-0.325-0.022-0.505    c0.03-0.307,0.098-0.733-0.012-0.998c-0.02-0.047-0.066-0.081-0.08-0.137c-0.039-0.16,0.014-0.314-0.023-0.459    c0.059-0.091,0.167-0.132,0.299-0.149c0.025,0.003,0.013-0.033,0.034-0.034c0.05,0.03,0.13-0.008,0.161-0.035    c0.059,0.002,0.088-0.007,0.137-0.034c0.056-0.03,0.166-0.062,0.264-0.08c0.281-0.054,0.597-0.036,0.838,0.08    C0.354-9.22,0.428-9.172,0.387-9.072c-0.07,0.021-0.073,0.105-0.14,0.138C0.165-8.893,0.005-8.903-0.097-8.866    c-0.024,0.018-0.041,0.042-0.057,0.069c-0.106-0.005-0.106,0.1-0.218,0.091c-0.042,0.096-0.125,0.15-0.114,0.299    C-0.447-8.4-0.45-8.351-0.395-8.362c0.022-0.012,0.054-0.016,0.058-0.045c0.044-0.018,0.002,0.052,0.047,0.034    c0.051-0.017,0.08,0.006,0.148,0c0.027-0.005-0.007,0.052,0.034,0.034c0.06-0.01,0.159-0.031,0.286-0.034    c0.213-0.005,0.567,0.006,0.585,0.16C0.77-8.162,0.702-8.046,0.66-8.018C0.558-7.949,0.358-7.995,0.226-7.959    c-0.002,0.031,0.019,0.023,0,0.045C0.175-7.92,0.127-7.85,0.087-7.834C0.065-7.825,0.03-7.836,0.007-7.822    c-0.017,0.011-0.043,0.048-0.069,0.07c-0.042,0.033-0.076,0.042-0.103,0.09c-0.013,0.023,0,0.053-0.012,0.092    c-0.015,0.053-0.073,0.107-0.08,0.15c-0.007,0.046,0.028,0.104,0.012,0.16c0.025,0.021,0.049,0.043,0.057,0.08    c0.005,0.032-0.062-0.009-0.058,0.022c0.009,0.125,0.032,0.222,0.092,0.299C-0.135-6.835-0.117-6.82-0.107-6.79    c0.009,0.024-0.005,0.052,0,0.092c0.014,0.109,0.087,0.211,0.011,0.309c0.06,0.205,0.116,0.412,0.127,0.666    C0.219-5.535,0.25-4.937,0.283-4.542C0.3-4.346,0.301-4.119,0.34-3.934c0.209-0.04,0.413-0.139,0.642-0.127    c0.402,0.02,0.789,0.18,1.044,0.344c0.028-0.001,0.056-0.001,0.069,0.012c0.058,0.02,0.053,0.101,0.126,0.104    c0.004,0.034,0.007,0.07,0.034,0.08c0.16-0.124,0.302-0.267,0.459-0.401C2.765-3.966,2.837-3.991,2.862-4.06    C2.897-4.1,2.814-4.096,2.84-4.164C2.864-4.199,2.96-4.19,3.001-4.175c-0.011,0.04,0.018,0.04,0.034,0.023    c0.001-0.021-0.013-0.027-0.034-0.023C2.995-4.2,3.017-4.198,3.035-4.199c0.019-0.046,0.069-0.06,0.126-0.068    C3.24-4.33,3.284-4.426,3.401-4.451c0.053-0.015,0.037,0.04,0.069,0.046c0.021,0.003,0.062-0.037,0.058,0.012    C3.546-4.352,3.468-4.308,3.46-4.256z M-1.208,1.398C-1.243,1.412-1.195,1.458-1.208,1.398C-1.174,1.396-1.22,1.35-1.208,1.398z     M-0.485,1.374c0.014,0.028,0.047,0.037,0.08,0.047C-0.42,1.393-0.452,1.383-0.485,1.374z M0.122-2.386    C0.136-2.341,0.136-2.432,0.122-2.386L0.122-2.386z M1.658-2.879c0.021-0.008,0.003-0.021,0-0.034    C1.639-2.907,1.657-2.893,1.658-2.879z M1.991-3.499C1.945-3.553,1.884-3.59,1.865-3.67c-0.28-0.17-0.705-0.361-1.17-0.299    C0.567-3.952,0.333-3.778,0.317-3.66C0.311-3.61,0.314-3.553,0.306-3.499C0.282-3.355,0.24-3.168,0.236-2.971    c0.056-0.002,0.11-0.003,0.138,0.023c0.004,0.091-0.021,0.155-0.011,0.252C0.354-2.639,0.28-2.65,0.294-2.57    c0.2-0.129,0.363-0.294,0.505-0.482c0.042,0.024,0.052-0.005,0.08-0.022c0.112,0.018,0.194,0.065,0.274,0.115    C1.179-3.062,1.29-3.076,1.326-3.167C1.372-3.155,1.402-3.204,1.44-3.212c0.014-0.003,0.047,0.013,0.07,0.011    c0.024-0.003,0.041-0.022,0.058-0.022c0.066-0.003,0.136,0.026,0.207,0.011c0.062-0.015,0.107-0.077,0.16-0.114    C1.99-3.368,2.058-3.387,2.083-3.442C2.086-3.495,2.011-3.469,1.991-3.499z M2.886-4.152c-0.008,0-0.016,0-0.023,0    c0,0.011,0,0.022,0,0.033c0.012,0,0.023,0,0.035,0C2.9-4.137,2.886-4.138,2.886-4.152z M2.932-4.165    C2.903-4.133,2.944-4.13,2.978-4.141C2.985-4.172,2.923-4.133,2.932-4.165z" fill="#FFFFFF"/>
    </g>
  </g></svg>