<?xml version="1.0" standalone="no"?>
<svg xmlns="http://www.w3.org/2000/svg" viewBox="-6.37 -6.37 12.74 12.74" color="#212121" width="75" height="75"><g transform="matrix(1 0 0 -1 0 0)">
		<g xmlns="http://www.w3.org/2000/svg">
			<circle class="primary" fill="currentColor" cx="0" cy="0" r="6.245"/>
			<path class="secondary" d="M0,6.12c3.38,0,6.12-2.74,6.12-6.12S3.38-6.12,0-6.12S-6.12-3.38-6.12,0S-3.38,6.12,0,6.12 M0,6.37    c-3.513,0-6.37-2.857-6.37-6.37S-3.513-6.37,0-6.37S6.37-3.513,6.37,0S3.513,6.37,0,6.37L0,6.37z" fill="#FFFFFF"/>
		</g>
		<path xmlns="http://www.w3.org/2000/svg" id="Commander_4_" class="secondary" d="M1.101-5.691c0.022-0.13-0.029-0.146-0.162-0.171c-0.117-0.02-0.25-0.017-0.357,0.04   c-0.09,0.047-0.09,0.09-0.132,0.173C0.435-5.618,0.417-5.585,0.396-5.557c-0.032,0.044-0.09,0.007-0.131,0.03   c-0.032,0.016-0.15,0.069-0.159,0.106C0.084-5.324,0.144-5.223,0.108-5.125C0.012-4.87,0.12-4.588,0.147-4.324   C0.162-4.19,0.122-4.062,0.114-3.929c-0.01,0.154-0.013,0.308-0.017,0.462C0.088-3.218,0.044-2.979,0.023-2.731   C0.011-2.58,0.011-2.429,0.006-2.277C0.003-2.199-0.001-2.12-0.001-2.042C0-2.025-0.015-1.789-0.035-1.81   c-0.093-0.092,0.023-0.367-0.006-0.487C-0.059-2.41-0.103-2.486-0.095-2.61c0.008-0.15,0-0.282-0.019-0.431   c-0.015-0.118,0.007-0.237,0.005-0.355C-0.11-3.52-0.129-3.643-0.13-3.766C-0.133-4.028-0.102-4.299-0.081-4.56   c0.01-0.124,0.015-0.249,0.001-0.372c-0.01-0.101-0.068-0.191-0.065-0.293c0.003-0.073,0.047-0.182-0.023-0.233   c-0.028-0.021-0.06-0.039-0.092-0.057C-0.301-5.538-0.338-5.512-0.378-5.53c-0.089-0.04-0.036-0.163-0.074-0.221   c-0.035-0.053-0.15-0.085-0.209-0.092c-0.106-0.013-0.217-0.009-0.322,0.017c-0.072,0.019-0.078,0.013-0.086,0.09   c-0.009,0.072-0.012,0.141,0.033,0.204c0.086,0.12,0.288,0.216,0.228,0.374C-0.882-4.963-0.88-4.712-0.883-4.505   c-0.004,0.24,0.03,0.487,0.037,0.729c0.008,0.271-0.007,0.531-0.022,0.802C-0.882-2.722-0.874-2.47-0.912-2.219   c-0.041,0.275-0.099,0.55-0.122,0.828c-0.011,0.122-0.051,0.226-0.077,0.344C-1.123-0.998-1.119-0.946-1.138-0.9   c-0.017,0.036-0.069,0.031-0.078,0.074c-0.024,0.119-0.01,0.257-0.018,0.38c-0.009,0.157-0.002,0.312,0,0.471   c0.001,0.082,0.026,0.203,0.006,0.282c-0.024,0.1-0.111,0.213-0.155,0.309c-0.055,0.117-0.092,0.235-0.119,0.363   c-0.03,0.142-0.095,0.286-0.106,0.431c-0.007,0.103-0.096,0.173-0.096,0.275c0.001,0.109,0.028,0.217,0.029,0.329   c0.001,0.121,0.046,0.259,0.023,0.377c-0.009,0.047-0.04,0.085-0.047,0.133C-1.71,2.607-1.695,2.692-1.685,2.775   C-1.662,2.954-1.75,3.138-1.636,3.3c0.04,0.057,0.146,0.096,0.204,0.134c0.121,0.082,0.249,0.153,0.385,0.208   c0.174,0.071,0.397,0.104,0.513,0.267c0.082,0.117,0.12,0.151,0.092,0.299c-0.02,0.098-0.05,0.22-0.116,0.271   c-0.058,0.046-0.085,0.145-0.085,0.217c0,0.031-0.021,0.062-0.011,0.094c0.017,0.051,0.047,0.002,0.035,0.069   c-0.012,0.073,0.021,0.144,0.012,0.209c-0.001,0.016-0.042,0.027-0.039,0.057C-0.642,5.154-0.64,5.178-0.64,5.209   c0,0.051,0.032,0.131-0.028,0.146c-0.052,0.01-0.158,0.051-0.177,0.107C-0.958,5.77-0.326,5.876-0.12,5.873   C0.057,5.87,0.813,5.774,0.712,5.492C0.667,5.367,0.604,5.389,0.494,5.4c0.012-0.001,0.027-0.01,0.039-0.013   C0.529,5.343,0.576,5.234,0.532,5.211C0.47,5.182,0.491,4.99,0.512,4.936c0.015-0.037-0.029-0.088-0.011-0.124   c0.017-0.036,0.061-0.028,0.044-0.075C0.526,4.676,0.498,4.403,0.396,4.463C0.36,4.338,0.332,4.247,0.351,4.115   C0.362,4.028,0.553,3.866,0.63,3.818c0.199-0.12,0.443-0.155,0.64-0.282C1.357,3.478,1.426,3.397,1.521,3.35   c0.111-0.056,0.15-0.119,0.165-0.247C1.7,2.982,1.644,2.873,1.662,2.752c0.015-0.115,0.046-0.228,0.044-0.345   C1.704,2.291,1.644,2.189,1.638,2.074c-0.002-0.052-0.03-0.087-0.037-0.136C1.59,1.863,1.623,1.804,1.632,1.732   c0.031-0.249-0.045-0.525-0.137-0.753c-0.098-0.241-0.165-0.5-0.27-0.737c-0.09-0.205-0.059-0.437-0.063-0.658   C1.16-0.524,1.151-0.629,1.161-0.737C1.164-0.779,1.17-0.826,1.162-0.869c-0.01-0.046-0.08-0.036-0.093-0.08   c-0.068-0.219-0.08-0.457-0.113-0.683C0.915-1.897,0.868-2.16,0.849-2.43c-0.035-0.51-0.011-1.029,0.02-1.54   C0.883-4.208,0.897-4.437,0.88-4.676C0.871-4.778,0.908-4.917,0.866-5.013C0.848-5.056,0.759-5.223,0.794-5.26   C0.915-5.389,1.085-5.499,1.101-5.691" fill="#FFFFFF"/>
	</g></svg>