<?xml version="1.0" standalone="no"?>
<svg xmlns="http://www.w3.org/2000/svg" viewBox="-6.37 -10.306 12.74 20.611" color="#212121" width="75" height="75"><g transform="matrix(1 0 0 -1 0 0)">
    <g xmlns="http://www.w3.org/2000/svg">
      <path class="primary" fill="currentColor" d="M-1.848,10.306h3.729v-0.91h-2.535V8.071H1.72V7.162h-2.373V5.659h2.62V4.734h-3.814v5.572H-1.848z"/>
    </g>
    <g xmlns="http://www.w3.org/2000/svg">
      <path class="primary" fill="currentColor" d="M0.001-10.181c-3.444,0-6.246,2.802-6.246,6.245c0,3.444,2.802,6.245,6.246,6.245    c3.443,0,6.244-2.802,6.244-6.245S3.444-10.181,0.001-10.181z"/>
      <path class="secondary" d="M0.001,2.185c3.379,0,6.119-2.74,6.119-6.12s-2.74-6.12-6.119-6.12c-3.381,0-6.121,2.74-6.121,6.12    S-3.38,2.185,0.001,2.185 M0.001,2.435c-3.513,0-6.371-2.857-6.371-6.37s2.858-6.37,6.371-6.37c3.512,0,6.369,2.857,6.369,6.37    S3.513,2.435,0.001,2.435L0.001,2.435z" fill="#FFFFFF"/>
    </g>
    <g xmlns="http://www.w3.org/2000/svg">
      <g>
        <path class="secondary" d="M-0.651,0.872C-0.64,0.932-0.685,0.886-0.651,0.872L-0.651,0.872z" fill="#FFFFFF"/>
      </g>
      <g>
        <path class="secondary" d="M0.14,0.895C0.106,0.886,0.073,0.877,0.06,0.85C0.093,0.858,0.124,0.867,0.14,0.895z" fill="#FFFFFF"/>
      </g>
      <g>
        <path class="secondary" d="M-0.651,0.872C-0.661,0.825-0.618,0.869-0.651,0.872L-0.651,0.872z" fill="#FFFFFF"/>
      </g>
      <g>
        <path class="secondary" d="M3.493-4.615c0.021-0.004,0.035,0.002,0.033,0.022C3.511-4.576,3.481-4.576,3.493-4.615z" fill="#FFFFFF"/>
      </g>
      <g>
        <path class="secondary" d="M0.659-2.854C0.671-2.899,0.671-2.81,0.659-2.854L0.659-2.854z" fill="#FFFFFF"/>
      </g>
      <g>
        <path class="secondary" d="M3.356-4.593c0.008,0,0.016,0,0.023,0c0,0.015,0.014,0.016,0.012,0.033c-0.012,0-0.023,0-0.035,0     C3.356-4.57,3.356-4.581,3.356-4.593z" fill="#FFFFFF"/>
      </g>
      <g>
        <path class="secondary" d="M3.425-4.604C3.417-4.574,3.478-4.612,3.47-4.581C3.437-4.571,3.396-4.574,3.425-4.604z" fill="#FFFFFF"/>
      </g>
      <g>
        <path class="secondary" d="M2.171-3.34c-0.002-0.014-0.02-0.026,0-0.033C2.173-3.359,2.192-3.348,2.171-3.34z" fill="#FFFFFF"/>
      </g>
      <g>
        <path class="secondary" d="M2.284-3.667C2.216-3.651,2.147-3.681,2.081-3.678c-0.016,0-0.033,0.02-0.057,0.021     C2.003-3.653,1.97-3.67,1.956-3.667C1.919-3.659,1.888-3.61,1.843-3.622C1.808-3.533,1.698-3.52,1.675-3.418     c-0.08-0.05-0.16-0.097-0.271-0.114C1.376-3.515,1.366-3.486,1.325-3.509c-0.14,0.185-0.301,0.347-0.498,0.474     C0.813-3.113,0.888-3.103,0.896-3.159c-0.01-0.095,0.016-0.158,0.012-0.248C0.88-3.433,0.825-3.432,0.771-3.43     c0.004-0.194,0.045-0.378,0.068-0.52c0.01-0.054,0.004-0.109,0.012-0.158c0.016-0.116,0.246-0.288,0.373-0.306     c0.457-0.061,0.875,0.127,1.15,0.295c0.018,0.079,0.08,0.115,0.125,0.169c0.02,0.029,0.094,0.004,0.09,0.057     C2.563-3.839,2.497-3.82,2.442-3.78C2.392-3.743,2.347-3.682,2.284-3.667z" fill="#FFFFFF"/>
      </g>
      <g>
        <path class="secondary" d="M3.944-4.694C3.958-4.66,3.981-4.633,3.978-4.581C3.911-4.534,3.831-4.519,3.786-4.593     c-0.062,0.08-0.148,0.139-0.215,0.215C3.54-4.272,3.464-4.236,3.38-4.152C3.282-4.058,3.187-3.956,3.073-3.859     C3.007-3.801,2.96-3.73,2.872-3.689C2.769-3.528,2.591-3.444,2.487-3.283c0.018,0.028,0.062,0.028,0.045,0.09     C2.472-3.152,2.39-3.085,2.284-3.125c-0.07,0.132-0.24,0.166-0.271,0.339C1.991-2.761,1.962-2.787,1.935-2.764     C1.897-2.732,1.919-2.686,1.821-2.707c0.016,0.015,0.016,0.041,0,0.056c-0.059,0.001-0.074-0.016-0.125,0     C1.638-2.567,1.538-2.522,1.483-2.437c0.08,0.088-0.098,0.141-0.068,0.282c-0.045,0.02-0.09,0.04-0.125,0.068     C1.231-1.965,1.249-1.83,1.2-1.702C1.157-1.593,1.087-1.498,1.054-1.386C1.04-1.339,1.046-1.287,1.03-1.239     C0.995-1.124,0.899-1.046,0.896-0.89c0,0.032,0.018,0.08,0.012,0.113c-0.023,0.123-0.18,0.184-0.182,0.35     c0.045,0.113,0.143,0.175,0.17,0.305C0.833-0.114,0.808-0.141,0.817-0.065c-0.103,0.017-0.22,0.021-0.283,0.079     c0.049,0.049,0.158,0.038,0.203,0.091C0.704,0.229,0.812,0.263,0.761,0.342c0.053,0.033,0.037,0.134,0.078,0.18     C0.88,0.515,0.927,0.509,0.94,0.556c0.027,0.137-0.15,0.211-0.113,0.361c0.086,0.066,0.242,0.06,0.283,0.169     C1.089,1.134,1.013,1.125,1.009,1.188C0.974,1.194,0.95,1.212,0.919,1.223C0.931,1.261,0.878,1.26,0.862,1.278     c-0.08,0.09-0.111,0.211-0.193,0.294C0.618,1.624,0.544,1.67,0.478,1.719c-0.15,0.112-0.389,0.184-0.645,0.146     c-0.402-0.059-0.67-0.379-0.619-0.847c0.014-0.132,0.084-0.255,0.066-0.451c0.053-0.042,0.133-0.056,0.182-0.102     C-0.554,0.458-0.56,0.441-0.562,0.42C-0.751,0.472-0.79,0.342-0.81,0.172c-0.049,0-0.07-0.028-0.102-0.045     c-0.07,0.062-0.164,0.099-0.236,0.157C-1.15,0.336-1.173,0.366-1.183,0.409c-0.096,0.028-0.158,0.102-0.26,0.079     c-0.094-0.021-0.107-0.144-0.191-0.17c-0.031,0.063-0.064,0.123-0.102,0.181c-0.094,0.005-0.096,0.079-0.17,0.068     C-1.994,0.553-2.08,0.305-2.052,0.182C-2.198,0-2.345-0.179-2.333-0.517c0.061-0.04,0.033-0.17,0.066-0.237     c0.107-0.039,0.195-0.099,0.283-0.158c-0.027-0.166-0.074-0.445,0.012-0.587C-1.976-1.633-2.007-1.796-1.95-1.895     c-0.039-0.123-0.074-0.229-0.057-0.384c0.016-0.028,0.033-0.027,0.045-0.033c-0.014-0.096-0.023-0.199-0.033-0.306     C-2.005-2.716-2.003-2.822-2.04-2.9c-0.062-0.006-0.107,0.027-0.158,0c-0.024-0.026-0.03-0.085-0.012-0.123     c0.152-0.06,0.4-0.081,0.598-0.057c0.02,0.019,0.01,0.065,0.012,0.102C-1.647-2.955-1.704-2.94-1.747-2.911     c0.008,0.188,0.01,0.382,0.057,0.531c0.176,0.034,0.27-0.056,0.373-0.067c0.012-0.101-0.014-0.249,0.068-0.305     C-1.222-2.768-1.222-2.7-1.204-2.741c0.02-0.076,0.018-0.108,0-0.181c0-0.042,0.043-0.001,0.045-0.023     c-0.018-0.013-0.018-0.042-0.035-0.056c-0.07,0.029-0.139,0.063-0.225,0.079c-0.039-0.038-0.102-0.241-0.08-0.339     c0.02-0.082,0.131-0.141,0.137-0.214c0.064-0.002,0.125-0.028,0.191-0.058c0.006-0.088,0.072-0.114,0.08-0.226     c0.01-0.165-0.018-0.333,0-0.496c0.033-0.359,0.129-0.704,0.203-1.039c0.074-0.342,0.164-0.674,0.225-1.017     c-0.146-0.072-0.23-0.372,0.012-0.396C-0.677-6.754-0.804-6.773-0.81-6.852c-0.004-0.066,0.113-0.119,0.125-0.181     c0.01-0.061-0.041-0.127-0.045-0.191c-0.004-0.03,0.01-0.07,0.01-0.102c0.004-0.157-0.041-0.319-0.021-0.497     c0.029-0.302,0.096-0.722-0.012-0.982c-0.02-0.046-0.066-0.079-0.078-0.135c-0.039-0.158,0.012-0.31-0.023-0.452     C-0.798-9.48-0.69-9.521-0.562-9.538c0.025,0.003,0.014-0.033,0.035-0.034C-0.478-9.543-0.4-9.58-0.369-9.607     c0.057,0.002,0.086-0.007,0.135-0.033c0.055-0.03,0.164-0.061,0.26-0.079c0.276-0.053,0.588-0.036,0.825,0.078     c0.035,0.057,0.107,0.104,0.068,0.203c-0.068,0.02-0.07,0.103-0.137,0.136C0.7-9.261,0.542-9.271,0.444-9.233     C0.419-9.217,0.401-9.193,0.388-9.167C0.282-9.17,0.282-9.068,0.173-9.075C0.132-8.981,0.05-8.929,0.06-8.782     c0.039,0.007,0.035,0.056,0.09,0.045c0.021-0.012,0.053-0.016,0.057-0.045C0.249-8.799,0.21-8.731,0.253-8.748     c0.049-0.017,0.078,0.006,0.146,0c0.025-0.005-0.008,0.052,0.033,0.034c0.059-0.01,0.156-0.031,0.281-0.034     C0.923-8.753,1.272-8.742,1.29-8.59c0.006,0.05-0.059,0.164-0.102,0.191C1.087-8.33,0.892-8.375,0.761-8.342     c-0.002,0.031,0.018,0.023,0,0.045C0.71-8.304,0.663-8.233,0.624-8.217C0.603-8.208,0.567-8.22,0.546-8.207     C0.528-8.195,0.503-8.158,0.478-8.138c-0.043,0.033-0.076,0.041-0.102,0.09c-0.014,0.023,0,0.052-0.012,0.09     C0.349-7.906,0.292-7.853,0.286-7.811C0.278-7.765,0.313-7.708,0.298-7.653C0.321-7.632,0.345-7.61,0.354-7.574     c0.004,0.031-0.062-0.009-0.057,0.022c0.008,0.123,0.031,0.219,0.09,0.294C0.405-7.235,0.422-7.219,0.432-7.19     c0.008,0.023-0.006,0.051,0,0.09c0.014,0.108,0.086,0.208,0.012,0.305C0.501-6.593,0.558-6.39,0.567-6.14     c0.186,0.185,0.215,0.774,0.25,1.162c0.016,0.193,0.018,0.418,0.055,0.6c0.207-0.039,0.406-0.136,0.633-0.125     C1.9-4.483,2.282-4.326,2.532-4.164C2.561-4.165,2.587-4.165,2.6-4.152C2.657-4.133,2.653-4.053,2.723-4.05     c0.004,0.034,0.008,0.068,0.035,0.079C2.917-4.095,3.056-4.235,3.21-4.367c0.051-0.043,0.121-0.07,0.146-0.136     c0.035-0.04-0.047-0.035-0.021-0.102c0.023-0.034,0.117-0.025,0.158-0.01C3.481-4.576,3.511-4.576,3.526-4.593     c0.002-0.021-0.012-0.026-0.033-0.022C3.487-4.64,3.509-4.637,3.526-4.638c0.018-0.046,0.068-0.06,0.123-0.068     c0.078-0.062,0.121-0.157,0.238-0.18C3.938-4.9,3.923-4.847,3.956-4.841c0.02,0.003,0.061-0.037,0.057,0.011     C4.028-4.79,3.952-4.746,3.944-4.694z M-0.651,0.872C-0.685,0.886-0.64,0.932-0.651,0.872C-0.618,0.869-0.661,0.825-0.651,0.872z      M0.06,0.85c0.014,0.027,0.047,0.036,0.08,0.045C0.124,0.867,0.093,0.858,0.06,0.85z M0.659-2.854     C0.671-2.81,0.671-2.899,0.659-2.854L0.659-2.854z M2.171-3.34c0.021-0.008,0.002-0.02,0-0.033     C2.151-3.366,2.169-3.354,2.171-3.34z M2.499-3.949c-0.045-0.054-0.107-0.09-0.125-0.169c-0.275-0.168-0.693-0.355-1.15-0.295     C1.097-4.396,0.866-4.224,0.851-4.107C0.843-4.059,0.849-4.003,0.839-3.949C0.815-3.808,0.774-3.624,0.771-3.43     C0.825-3.432,0.88-3.433,0.907-3.407c0.004,0.09-0.021,0.153-0.012,0.248C0.888-3.103,0.813-3.113,0.827-3.035     c0.197-0.127,0.357-0.289,0.498-0.474c0.041,0.022,0.051-0.006,0.078-0.023c0.111,0.018,0.191,0.064,0.271,0.114     C1.698-3.52,1.808-3.533,1.843-3.622C1.888-3.61,1.919-3.659,1.956-3.667C1.97-3.67,2.003-3.653,2.024-3.656     c0.023-0.002,0.041-0.021,0.057-0.021C2.147-3.68,2.216-3.651,2.284-3.666C2.347-3.682,2.392-3.743,2.442-3.78     c0.055-0.04,0.121-0.059,0.146-0.112C2.593-3.945,2.519-3.92,2.499-3.949z M3.38-4.593c-0.008,0-0.016,0-0.023,0     c0,0.012,0,0.022,0,0.033c0.012,0,0.023,0,0.035,0C3.394-4.577,3.38-4.578,3.38-4.593z M3.425-4.604     C3.396-4.574,3.437-4.571,3.47-4.581C3.478-4.612,3.417-4.574,3.425-4.604z" fill="#FFFFFF"/>
      </g>
    </g>
  </g></svg>