<?xml version="1.0" standalone="no"?>
<svg xmlns="http://www.w3.org/2000/svg" viewBox="-6.37 -6.37 12.74 12.74" color="#212121" width="75" height="75"><g transform="matrix(1 0 0 -1 0 0)">
    <g xmlns="http://www.w3.org/2000/svg">
      <circle class="primary" fill="currentColor" cx="0" cy="0" r="6.245"/>
      <path class="secondary" d="M0,6.12c3.38,0,6.12-2.74,6.12-6.12S3.38-6.12,0-6.12S-6.12-3.38-6.12,0S-3.38,6.12,0,6.12 M0,6.37    c-3.513,0-6.37-2.857-6.37-6.37S-3.513-6.37,0-6.37S6.37-3.513,6.37,0S3.513,6.37,0,6.37L0,6.37z" fill="#FFFFFF"/>
    </g>
    <path xmlns="http://www.w3.org/2000/svg" id="Field_Artillery_1_" class="secondary" d="M0.985,0.497l2.363,0.777L3.286,1.647l2.207,0.685L5.337,2.735L0.594,1.214   l-0.26,0.154l-1.087-0.466L-1.47,0.156l-1.461-0.839l-0.092-0.498l-2.674,0.062L-5.79-1.306l2.828-0.188L-2.09-1.71l0.565-0.015   c-0.023-0.074-0.038-0.151-0.038-0.233c0-0.43,0.334-0.777,0.745-0.777c0.412,0,0.747,0.348,0.747,0.777   c0,0.056-0.007,0.109-0.017,0.162l0.109-0.007l0.826-0.05C0.931-2.042,1.12-2.176,1.342-2.176c0.301,0,0.545,0.243,0.545,0.544   c0,0.118-0.04,0.227-0.103,0.316l0.039,0.32l0.746,0.622l0.529,0.125l0.268,0.41l-0.02,0.068L0.985,0.497z" fill="#FFFFFF"/>
  </g></svg>