<?xml version="1.0" standalone="no"?>
<svg xmlns="http://www.w3.org/2000/svg" viewBox="-3.352 -3.225 6.703 6.449" color="#212121" width="75" height="75"><g transform="matrix(1 0 0 -1 0 0)">
    <circle xmlns="http://www.w3.org/2000/svg" class="secondary" cx="0" cy="0" r="2.475" fill="#FFFFFF"/>
    <g xmlns="http://www.w3.org/2000/svg">
      <g>
        <path class="primary" fill="currentColor" d="M0.004-2.94c-1.622,0-2.942,1.32-2.942,2.942c0,1.62,1.32,2.938,2.942,2.938     c1.619,0,2.936-1.318,2.936-2.938C2.939-1.62,1.623-2.94,0.004-2.94z M0.004,2.44c-1.347,0-2.442-1.094-2.442-2.438     c0-1.347,1.096-2.442,2.442-2.442c1.343,0,2.436,1.096,2.436,2.442C2.439,1.347,1.347,2.44,0.004,2.44z"/>
      </g>
    </g>
    <rect xmlns="http://www.w3.org/2000/svg" x="-4.401" y="-0.25" transform="matrix(0.7226 -0.6913 0.6913 0.7226 0 0)" class="primary" fill="currentColor" width="8.802" height="0.5"/>
  </g></svg>