<?xml version="1.0" standalone="no"?>
<svg xmlns="http://www.w3.org/2000/svg" viewBox="-6.37 -6.37 12.74 12.74" color="#212121" width="75" height="75"><g transform="matrix(1 0 0 -1 0 0)">
    <g xmlns="http://www.w3.org/2000/svg">
      <path class="primary" fill="currentColor" d="M-0.001-6.245c-3.443,0-6.244,2.802-6.244,6.245s2.801,6.245,6.244,6.245c3.444,0,6.246-2.802,6.246-6.245    S3.443-6.245-0.001-6.245z"/>
      <path class="secondary" d="M-0.001,6.12C3.38,6.12,6.12,3.38,6.12,0S3.38-6.12-0.001-6.12C-3.38-6.12-6.12-3.38-6.12,0    S-3.38,6.12-0.001,6.12 M-0.001,6.37C-3.513,6.37-6.37,3.513-6.37,0s2.857-6.37,6.369-6.37C3.512-6.37,6.37-3.513,6.37,0    S3.512,6.37-0.001,6.37L-0.001,6.37z" fill="#FFFFFF"/>
    </g>
    <path xmlns="http://www.w3.org/2000/svg" id="Fixed_Wing_1_" class="secondary" d="M5.679,0.649C5.62,0.856,5.534,1.048,5.427,1.227C5.318,1.407,5.189,1.57,5.038,1.718   C4.886,1.865,4.718,1.994,4.536,2.1C4.354,2.207,4.159,2.289,3.954,2.349C3.749,2.406,3.536,2.437,3.315,2.437   c-0.336,0-0.654-0.059-0.957-0.178C2.056,2.142,1.767,1.99,1.493,1.806C1.218,1.623,0.956,1.42,0.71,1.202   c-0.246-0.22-0.482-0.431-0.709-0.634c-0.225,0.203-0.463,0.414-0.713,0.634c-0.25,0.218-0.512,0.421-0.789,0.604   C-1.778,1.99-2.067,2.142-2.372,2.259c-0.303,0.119-0.623,0.178-0.955,0.178c-0.318,0-0.623-0.062-0.914-0.188   c-0.291-0.125-0.551-0.296-0.777-0.508C-5.245,1.526-5.425,1.275-5.56,0.988c-0.135-0.286-0.203-0.591-0.203-0.915   c0-0.3,0.055-0.601,0.17-0.901c0.109-0.3,0.268-0.568,0.473-0.807c0.203-0.237,0.447-0.431,0.734-0.58   c0.287-0.147,0.604-0.222,0.957-0.222c0.359,0,0.693,0.05,1.002,0.151c0.307,0.102,0.6,0.237,0.875,0.406   c0.277,0.172,0.541,0.368,0.795,0.594c0.252,0.224,0.508,0.459,0.758,0.705C0.235-0.82,0.478-1.052,0.728-1.274   c0.252-0.222,0.518-0.42,0.799-0.594c0.279-0.17,0.578-0.309,0.898-0.412c0.318-0.105,0.66-0.157,1.029-0.157   c0.225,0,0.439,0.033,0.639,0.101C4.294-2.269,4.48-2.176,4.652-2.06C4.819-1.943,4.976-1.808,5.11-1.65   c0.137,0.157,0.254,0.327,0.352,0.51c0.094,0.181,0.166,0.37,0.219,0.565c0.049,0.196,0.076,0.39,0.08,0.583   C5.765,0.23,5.737,0.444,5.679,0.649z M-1.147-0.564c-0.199-0.189-0.408-0.361-0.627-0.514C-1.993-1.231-2.226-1.357-2.47-1.452   c-0.244-0.097-0.506-0.146-0.783-0.146c-0.205,0-0.406,0.039-0.6,0.114c-0.199,0.077-0.371,0.182-0.521,0.317   c-0.154,0.133-0.277,0.292-0.367,0.475C-4.835-0.51-4.882-0.311-4.882-0.094c0,0.174,0.033,0.357,0.1,0.549   c0.064,0.19,0.166,0.364,0.301,0.521s0.303,0.287,0.502,0.39C-3.776,1.469-3.54,1.52-3.267,1.52c0.242,0,0.486-0.051,0.729-0.153   c0.244-0.103,0.48-0.23,0.711-0.382c0.23-0.152,0.453-0.316,0.666-0.495c0.211-0.176,0.408-0.34,0.592-0.493   C-0.755-0.189-0.948-0.376-1.147-0.564z M4.729-0.704C4.634-0.887,4.513-1.046,4.362-1.18C4.212-1.312,4.04-1.416,3.845-1.488   c-0.194-0.073-0.393-0.11-0.598-0.11c-0.283,0-0.549,0.049-0.793,0.148C2.208-1.353,1.979-1.226,1.763-1.07   C1.548-0.916,1.341-0.745,1.146-0.557C0.95-0.37,0.757-0.186,0.567-0.003c0.18,0.153,0.377,0.317,0.592,0.492   c0.213,0.179,0.438,0.343,0.67,0.495C2.062,1.136,2.3,1.264,2.546,1.366C2.79,1.469,3.032,1.52,3.276,1.52   c0.277,0,0.516-0.052,0.721-0.16C4.202,1.25,4.37,1.115,4.501,0.954c0.131-0.162,0.23-0.337,0.293-0.524   C4.858,0.244,4.886,0.068,4.88-0.094C4.872-0.316,4.823-0.52,4.729-0.704z" fill="#FFFFFF"/>
  </g></svg>