<?xml version="1.0" standalone="no"?>
<svg xmlns="http://www.w3.org/2000/svg" viewBox="-6.37 -6.37 12.74 12.74" color="#212121" width="75" height="75"><g transform="matrix(1 0 0 -1 0 0)">
    <g xmlns="http://www.w3.org/2000/svg">
      <circle class="primary" fill="currentColor" cx="0" cy="0" r="6.245"/>
      <path class="secondary" d="M0,6.12c3.38,0,6.12-2.74,6.12-6.12S3.38-6.12,0-6.12S-6.12-3.38-6.12,0S-3.38,6.12,0,6.12 M0,6.37    c-3.513,0-6.37-2.857-6.37-6.37S-3.513-6.37,0-6.37S6.37-3.513,6.37,0S3.513,6.37,0,6.37L0,6.37z" fill="#FFFFFF"/>
    </g>
    <path xmlns="http://www.w3.org/2000/svg" id="Fuel_3_" class="secondary" d="M3.654-0.933C3.535-0.263,3.662,1.845,3.55,2.322C3.439,2.801,2.033,3.976,2.033,3.976   L1.746,3.788c0,0,0.561-0.637,0.629-0.715c0.068-0.078-0.113-1.09,0.068-1.416c0.18-0.322,0.785-0.356,0.785-0.356   s-0.173-1.646-0.05-2.319c0.119-0.674,0.514-2.34,0.477-2.538C3.615-3.753,3.51-3.982,3.143-4C2.775-4.017,2.701-3.899,2.545-3.725   s0,3.646,0,3.951c0,0.306-0.248,0.494-0.666,0.547C1.658,0.799,1.348,0.789,1.105,0.777C1.092,2.49,1.033,4.029,0.875,4.273   C0.688,4.564,0.051,4.499-0.811,4.505C-1.553,4.509-2.223,4.53-2.43,4.283C-2.729,3.926-2.664,2.81-2.67,1.26   c-0.006-2.504,0.035-5.617,0.035-5.617h3.697c0,0,0.057,2.412,0.047,4.693l0.736,0.009c0,0,0.281-0.031,0.273-0.169   C2.111,0.041,1.975-3.471,2.084-3.793C2.197-4.119,2.629-4.64,3.312-4.477C3.996-4.313,4.061-3.878,4.08-3.624   C4.096-3.367,3.771-1.601,3.654-0.933z M3.143,1.573c-0.027-0.051-0.367,0.179-0.41,0.272s0,0.588,0,0.588v0.035   c0,0,0.41-0.019,0.41-0.257C3.143,1.975,3.168,1.623,3.143,1.573z M0.482,2.103c0-0.339-0.275-0.614-0.613-0.614h-1.363   c-0.338,0-0.613,0.275-0.613,0.614v1.363c0,0.337,0.275,0.613,0.613,0.613h1.363c0.338,0,0.613-0.276,0.613-0.613   C0.482,3.466,0.482,2.103,0.482,2.103z" fill="#FFFFFF"/>
  </g></svg>