<?xml version="1.0" standalone="no"?>
<svg xmlns="http://www.w3.org/2000/svg" viewBox="-6.37 -6.37 12.74 12.74" color="#212121" width="75" height="75"><g transform="matrix(1 0 0 -1 0 0)">
    <g xmlns="http://www.w3.org/2000/svg">
      <circle class="primary" fill="currentColor" cx="0" cy="0" r="6.245"/>
      <path class="secondary" d="M0,6.12c3.38,0,6.12-2.74,6.12-6.12S3.38-6.12,0-6.12S-6.12-3.38-6.12,0S-3.38,6.12,0,6.12 M0,6.37    c-3.513,0-6.37-2.857-6.37-6.37S-3.513-6.37,0-6.37S6.37-3.513,6.37,0S3.513,6.37,0,6.37L0,6.37z" fill="#FFFFFF"/>
    </g>
    <path xmlns="http://www.w3.org/2000/svg" class="secondary" d="M-5.123,0.664H0.44c0,0-0.098,1.226,1.547,1.354c0-1.063,0-1.354,0-1.354h2.176c0,0,0.238,1.289,1.526,0.499   C5.322,0.712,5.307,0.664,5.307,0.664l0.005-0.057h0.132V0.522h0.245V0.475H5.584V0.353h0.057V0.23h0.048v-0.434H5.631v-0.111   H5.574v-0.113h0.049v-0.095H5.424L5.377-0.569L5.288-0.658l0.335-0.485c0,0-1.064-0.884-1.516,0.499c-1.298,0.009-2.137,0-2.137,0   V-2.01c0,0-1.317-0.188-1.562,1.318h-5.581c0,0-0.527,0.189-0.518,0.692C-5.68,0.505-5.123,0.664-5.123,0.664z" fill="#FFFFFF"/>
  </g></svg>