<?xml version="1.0" standalone="no"?>
<svg xmlns="http://www.w3.org/2000/svg" viewBox="-6.12 -6.12 12.24 12.24" color="#212121" width="75" height="75"><g transform="matrix(1 0 0 -1 0 0)">
    <path xmlns="http://www.w3.org/2000/svg" class="secondary" d="M-6.12,6.12V-6.12H6.12V6.12H-6.12z" fill="#FFFFFF"/>
    <path xmlns="http://www.w3.org/2000/svg" class="primary" fill="currentColor" d="M-6.12,6.12V-6.12H6.12V6.12H-6.12z M-0.868-2.564h-1.096v2.239h-1.943v-2.239h-1.096v5.108h1.096V0.502h1.929   v2.042h1.11C-0.868,2.544-0.868-2.564-0.868-2.564z M5.001-2.579C4.682-2.572,4.074-2.564,3.742-2.564   c-0.127,0-0.479-0.021-0.826-0.035C2.569-2.621,2.23-2.642,2.109-2.642c-1.907,0-2.246,1.773-2.246,2.594   c0,1.393,0.728,2.691,2.459,2.691c1.321,0,2.304-0.897,2.304-2.572c0-1.158-0.53-1.674-0.771-1.899   c0.233,0.042,0.707,0.07,1.146,0.049V-2.579z"/>
    <path xmlns="http://www.w3.org/2000/svg" class="primary" fill="currentColor" d="M2.29,1.858c-0.961,0-1.286-0.918-1.286-1.851c0-0.722,0.211-1.865,1.25-1.865   c1.074,0,1.272,1.116,1.272,1.936c0,0.729-0.163,1.074-0.317,1.308C3.081,1.584,2.784,1.858,2.29,1.858z"/>
  </g></svg>