<?xml version="1.0" standalone="no"?>
<svg xmlns="http://www.w3.org/2000/svg" viewBox="-6.37 -9.979 12.74 19.368" color="#212121" width="75" height="75"><g transform="matrix(1 0 0 -1 0 0)">
    <g xmlns="http://www.w3.org/2000/svg">
      <path class="primary" fill="currentColor" d="M-2.621,9.389h0.868V5.33h-0.868V9.389z"/>
      <path class="primary" fill="currentColor" d="M-0.997,9.379h1.254l1.518-3.187v3.187h0.806V5.33H1.388L-0.18,8.69V5.33h-0.817V9.379z"/>
    </g>
    <g xmlns="http://www.w3.org/2000/svg">
      <circle class="primary" fill="currentColor" cx="0" cy="-3.609" r="6.245"/>
      <path class="secondary" d="M0,2.511c3.38,0,6.12-2.74,6.12-6.12S3.38-9.729,0-9.729s-6.12,2.74-6.12,6.12S-3.38,2.511,0,2.511 M0,2.761    c-3.513,0-6.37-2.858-6.37-6.37s2.858-6.37,6.37-6.37s6.37,2.858,6.37,6.37S3.513,2.761,0,2.761L0,2.761z" fill="#FFFFFF"/>
    </g>
    <g xmlns="http://www.w3.org/2000/svg" id="Infantry_2_">
      <path class="secondary" d="M-1.232-2.026c0.039,0.074,0.068,0.16,0.034,0.253C-1.205-1.851-1.241-1.942-1.232-2.026z" fill="#FFFFFF"/>
      <path class="secondary" d="M2.294-3.351c0.011,0.285-0.021,0.582-0.009,0.878c0.005,0.09,0.005,0.182,0,0.27    c-0.009,0.206-0.053,0.408-0.05,0.599C2.236-1.503,2.232-1.44,2.21-1.352C2.175-1.21,2.132-1.101,2.1-0.98    C2.075-0.881,2.049-0.757,2.05-0.677c-0.037,0.086-0.111,0.176-0.102,0.28C1.919-0.381,1.911-0.349,1.897-0.323    C1.782-0.094,1.592,0.052,1.349,0.141C1.348,0.243,1.454,0.429,1.417,0.539C1.405,0.574,1.335,0.63,1.291,0.623    c-0.117-0.019-0.083-0.34-0.154-0.405C1.088,0.292,1.018,0.344,0.969,0.42c-0.032,0.016-0.07,0.025-0.085,0.059    C0.859,0.49,0.811,0.478,0.801,0.504C0.779,0.566,0.829,0.627,0.834,0.689c0.084,0.03,0.147,0.024,0.238,0.044    c0.005,0.042,0.03,0.068,0.023,0.126C1.102,0.871,1.154,0.905,1.113,0.91C1.116,0.892,1.08,0.891,1.105,0.9    C1.088,0.946,1.14,0.985,1.155,1.045c0.025,0.1-0.006,0.217-0.009,0.303C1.015,1.465,1.012,1.695,0.901,1.837    C0.878,1.869,0.838,1.878,0.826,1.921c-0.152,0.113-0.32,0.24-0.591,0.228C0.012,2.139-0.14,2.023-0.254,1.921    c-0.143-0.153-0.175-0.415-0.21-0.674c-0.084,0.011-0.051,0.121-0.043,0.176c0.031,0.203,0.083,0.435,0.119,0.615    C-0.399,2.074-0.41,2.1-0.398,2.141C-0.457,2.143-0.457,2.204-0.515,2.2c-0.088-0.17-0.091-0.391-0.127-0.6    c-0.023-0.135-0.02-0.259-0.109-0.295c-0.016-0.159-0.057-0.328-0.084-0.497c-0.029-0.172-0.062-0.342-0.094-0.506    c-0.033-0.021-0.052-0.061-0.076-0.093c-0.047-0.019-0.088-0.04-0.143-0.051C-1.187,0.096-1.256,0.08-1.308,0.04    c-0.035-0.026-0.072-0.072-0.11-0.109c-0.038-0.038-0.083-0.079-0.11-0.118C-1.55-0.221-1.554-0.268-1.579-0.305    c-0.016-0.027-0.049-0.061-0.076-0.092C-1.71-0.465-1.76-0.522-1.814-0.582c-0.028-0.032-0.05-0.071-0.075-0.103    c-0.048-0.054-0.112-0.09-0.152-0.144c-0.022-0.027-0.031-0.062-0.052-0.093c-0.099-0.153-0.171-0.315-0.202-0.54    c0.094-0.094,0.182-0.255,0.287-0.328c0.058-0.039,0.199-0.1,0.269-0.109c0.137-0.019,0.234,0.048,0.355,0.084    c0.019,0.007,0.039,0.057,0.061,0.034c-0.02-0.161-0.051-0.31-0.068-0.473c-0.024-0.026-0.061-0.041-0.06-0.092    c0.015-0.032,0.026-0.015,0.033-0.052c-0.04-0.38-0.087-0.74-0.15-1.095c-0.065-0.355-0.143-0.704-0.171-1.063    c0.094-0.047,0.246-0.073,0.363-0.067c0.036,0.131,0.05,0.282,0.068,0.431C-1.31-4.16-1.271-4.168-1.274-4.134    c0,0.11,0.042,0.247,0.066,0.346c0.007,0.026-0.005,0.08,0.034,0.085c-0.014-0.061,0.045-0.12,0.05-0.168    c0.008-0.064-0.008-0.165-0.008-0.245c0-0.414-0.058-0.843-0.025-1.232c0.02-0.227,0.147-0.426,0.161-0.648    c-0.019-0.03-0.042-0.055-0.061-0.086c-0.094-0.017-0.174-0.069-0.185-0.151c-0.014-0.103,0.085-0.186,0.109-0.27    c-0.042-0.055-0.099-0.11-0.092-0.186c0.001-0.03,0.03-0.057,0.041-0.084c0.021-0.051,0.023-0.11,0.059-0.136    c-0.008-0.319-0.011-0.705,0.018-0.995c0.003-0.033,0.02-0.063,0.02-0.094C-1.09-8.019-1.109-8.041-1.114-8.064    c-0.003-0.029,0.004-0.069,0-0.102c-0.004-0.074-0.017-0.14-0.024-0.169c-0.024-0.079-0.029-0.13-0.085-0.161    c0.016-0.042-0.031-0.082-0.033-0.128C-1.26-8.659-1.242-8.682-1.232-8.707C-1.271-8.777-1.4-8.905-1.41-9.002    c-0.002-0.026,0.019-0.062,0.018-0.101C-1.396-9.149-1.433-9.18-1.426-9.212c0.008-0.035,0.035-0.035,0.077-0.059    c0.025-0.018,0.066-0.046,0.093-0.051c0.046-0.01,0.095,0.014,0.133-0.008c0.024,0.032,0.108,0.041,0.144,0.033    c0.083,0.058,0.223,0.059,0.262,0.16c-0.004,0.047,0.005,0.094,0,0.144c0.033,0,0.021,0.034,0.034,0.052    C-0.673-8.93-0.631-8.933-0.649-8.9c0.081,0.002,0.097,0.066,0.135,0.11c-0.057,0.146,0.005,0.253,0,0.37    c-0.007,0.102-0.053,0.206-0.044,0.304c0.005,0.053,0.044,0.102,0.025,0.159c0.047,0.057,0.037,0.165,0.11,0.194    C-0.465-7.756-0.442-7.737-0.44-7.712c0.008,0.131,0.067,0.264,0.109,0.396c0.041,0.131,0.092,0.26,0.101,0.404    c0.073,0.036,0.157,0.094,0.187,0.179C-0.024-6.681-0.03-6.61-0.018-6.547C0.019-6.369,0.09-6.192,0.118-6.034    C0.107-6.017,0.102-5.998,0.1-5.983C0.088-5.896,0.083-5.756,0.092-5.67c0.007,0.073,0.041,0.146,0.051,0.219    c0.021,0.18-0.03,0.35,0.008,0.522c0.013-0.103,0.026-0.195,0.052-0.294c0.021-0.087,0.072-0.17,0.083-0.271    C0.295-5.567,0.275-5.65,0.277-5.737C0.283-5.88,0.317-6.029,0.31-6.16C0.303-6.35,0.305-6.51,0.497-6.505    C0.472-6.55,0.448-6.566,0.456-6.615c0.01-0.086,0.146-0.077,0.175-0.143C0.6-6.912,0.648-7.035,0.682-7.172    C0.705-7.27,0.728-7.368,0.75-7.459C0.795-7.647,0.877-7.816,0.928-7.98C0.872-8.04,0.946-8.087,0.951-8.16    C0.956-8.184,0.94-8.213,0.936-8.242C0.929-8.304,0.92-8.382,0.917-8.446C0.916-8.58,0.944-8.685,0.962-8.783    C0.963-8.8,0.951-8.809,0.952-8.826C0.954-8.837,0.969-8.849,0.97-8.859c0.002-0.02-0.005-0.054,0.016-0.067    c0.007-0.037,0.029-0.005,0.05-0.026C1.024-9.051,1.087-9.149,1.028-9.196C1.057-9.22,1.063-9.268,1.08-9.306    c0.034-0.008,0.04-0.048,0.075-0.059c0.109-0.056,0.273-0.061,0.389-0.041C1.595-9.398,1.7-9.345,1.721-9.314    c0.041,0.061-0.003,0.151-0.009,0.192c-0.005,0.04,0.005,0.08,0,0.11C1.696-8.913,1.628-8.838,1.594-8.741    c0.002,0.039,0.03,0.082,0.024,0.118C1.61-8.54,1.527-8.481,1.501-8.403C1.493-8.375,1.499-8.35,1.493-8.327    C1.484-8.299,1.466-8.278,1.459-8.251c-0.013,0.05-0.003,0.105-0.026,0.169C1.478-8.039,1.455-7.984,1.458-7.93    c0.001,0.011,0.014,0.026,0.016,0.042c0.015,0.091,0.039,0.133,0.051,0.203C1.542-7.603,1.542-7.496,1.544-7.4    c0.007,0.192-0.01,0.365-0.025,0.522C1.523-6.855,1.561-6.87,1.552-6.834c0.005,0.04-0.048,0.021-0.034,0.068    c0.041,0.091,0.138,0.201,0.066,0.328c0.079,0.061,0.075,0.141,0.018,0.212c-0.055,0.065-0.266,0.16-0.287,0.235    C1.307-5.958,1.323-5.906,1.323-5.864c0.006,0.108-0.016,0.268,0,0.37C1.335-5.42,1.37-5.357,1.375-5.29    C1.378-5.202,1.35-5.115,1.357-5.02c0.005,0.068,0.042,0.135,0.042,0.201c0.109-0.045,0.205,0.018,0.33-0.008    c0.044,0.041,0.095,0.082,0.133,0.135c0.033,0.041,0.101,0.12,0.111,0.16c0.004,0.018-0.008,0.047-0.008,0.067    c-0.006,0.174,0.01,0.351,0.049,0.497c0.099-0.005,0.184,0.05,0.255,0.095C2.225-3.686,2.288-3.524,2.294-3.351z M-1.232-2.026    c-0.009,0.084,0.027,0.175,0.034,0.253C-1.164-1.866-1.193-1.952-1.232-2.026z M-0.262,0.496c-0.015,0-0.018,0.012-0.033,0.009    c-0.103-0.059-0.232-0.091-0.313-0.169C-0.605,0.501-0.55,0.69-0.533,0.867c0.002-0.01,0.037-0.023,0.018-0.008    c0.051-0.004,0.062-0.118,0.144-0.119c-0.007-0.03,0.119-0.059,0.167-0.092c0.005-0.004,0.007-0.024,0.009-0.025    c0.002-0.001,0.04,0.003,0.033-0.033C-0.229,0.591-0.244,0.544-0.262,0.496z" fill="#FFFFFF"/>
    </g>
  </g></svg>