<?xml version="1.0" standalone="no"?>
<svg xmlns="http://www.w3.org/2000/svg" viewBox="-6.37 -10.322 12.74 20.644" color="#212121" width="75" height="75"><g transform="matrix(1 0 0 -1 0 0)">
    <g xmlns="http://www.w3.org/2000/svg">
      <path class="primary" fill="currentColor" d="M-0.001-10.197c-3.443,0-6.244,2.802-6.244,6.245c0,3.444,2.801,6.245,6.244,6.245    c3.444,0,6.246-2.802,6.246-6.245C6.245-7.396,3.443-10.197-0.001-10.197z"/>
      <path class="secondary" d="M-0.001,2.168c3.381,0,6.121-2.74,6.121-6.12s-2.74-6.12-6.121-6.12c-3.379,0-6.119,2.74-6.119,6.12    S-3.38,2.168-0.001,2.168 M-0.001,2.418c-3.512,0-6.369-2.857-6.369-6.37s2.857-6.37,6.369-6.37c3.513,0,6.371,2.857,6.371,6.37    S3.512,2.418-0.001,2.418L-0.001,2.418z" fill="#FFFFFF"/>
    </g>
    <path xmlns="http://www.w3.org/2000/svg" class="secondary" d="M2.29-3.694C2.3-3.41,2.267-3.113,2.28-2.818c0.004,0.091,0.004,0.182,0,0.27   C2.27-2.342,2.227-2.141,2.229-1.95c0.002,0.101-0.002,0.164-0.025,0.253c-0.035,0.141-0.078,0.25-0.109,0.371   C2.069-1.229,2.044-1.104,2.046-1.024C2.009-0.939,1.935-0.851,1.944-0.746c-0.029,0.017-0.037,0.049-0.05,0.075   C1.778-0.442,1.589-0.298,1.347-0.208C1.345-0.106,1.452,0.08,1.413,0.188c-0.012,0.036-0.08,0.091-0.125,0.084   c-0.115-0.02-0.084-0.34-0.152-0.404C1.087-0.058,1.015-0.005,0.968,0.07c-0.033,0.015-0.07,0.025-0.086,0.059   C0.858,0.14,0.808,0.127,0.798,0.154C0.776,0.217,0.825,0.277,0.831,0.339c0.084,0.029,0.146,0.024,0.236,0.043   C1.075,0.425,1.101,0.45,1.093,0.509c0.008,0.01,0.059,0.045,0.018,0.05C1.114,0.541,1.077,0.54,1.101,0.55   c-0.014,0.046,0.037,0.085,0.05,0.143c0.025,0.101-0.004,0.218-0.008,0.303c-0.13,0.117-0.134,0.346-0.244,0.488   C0.876,1.517,0.837,1.525,0.823,1.569c-0.152,0.112-0.318,0.239-0.59,0.228C0.011,1.785-0.14,1.671-0.255,1.569   c-0.141-0.154-0.174-0.415-0.209-0.674c-0.084,0.012-0.051,0.121-0.043,0.177c0.031,0.203,0.084,0.433,0.119,0.614   C-0.4,1.721-0.411,1.748-0.398,1.788C-0.456,1.79-0.456,1.851-0.515,1.847c-0.088-0.17-0.09-0.39-0.127-0.598   c-0.023-0.136-0.02-0.259-0.109-0.295c-0.016-0.158-0.055-0.328-0.084-0.497c-0.029-0.171-0.062-0.341-0.094-0.505   C-0.962-0.069-0.98-0.109-1.005-0.141c-0.047-0.018-0.088-0.04-0.143-0.05c-0.037-0.062-0.107-0.078-0.16-0.118   C-1.341-0.336-1.38-0.382-1.417-0.418c-0.037-0.038-0.082-0.079-0.109-0.118C-1.55-0.571-1.554-0.617-1.577-0.653   c-0.016-0.029-0.049-0.062-0.074-0.093c-0.057-0.068-0.107-0.124-0.16-0.187c-0.027-0.031-0.049-0.07-0.076-0.101   C-1.935-1.088-1.999-1.122-2.04-1.177c-0.021-0.027-0.029-0.062-0.051-0.092c-0.098-0.153-0.17-0.315-0.201-0.54   c0.092-0.095,0.18-0.255,0.287-0.328c0.057-0.039,0.199-0.101,0.268-0.108C-1.6-2.264-1.503-2.198-1.382-2.162   c0.018,0.007,0.039,0.056,0.059,0.034C-1.341-2.289-1.372-2.438-1.392-2.6C-1.415-2.626-1.45-2.641-1.45-2.692   c0.016-0.031,0.027-0.015,0.033-0.051c-0.041-0.379-0.086-0.74-0.15-1.094c-0.064-0.355-0.143-0.702-0.17-1.062   c0.094-0.047,0.244-0.073,0.363-0.067c0.035,0.131,0.049,0.282,0.066,0.43C-1.31-4.503-1.271-4.511-1.272-4.478   c0,0.109,0.043,0.247,0.066,0.346c0.008,0.026-0.006,0.078,0.033,0.084c-0.012-0.061,0.045-0.12,0.051-0.168   C-1.114-4.28-1.13-4.38-1.13-4.46c0-0.414-0.059-0.841-0.025-1.23c0.02-0.226,0.146-0.426,0.16-0.648   c-0.018-0.029-0.041-0.054-0.059-0.084C-1.15-6.44-1.228-6.492-1.24-6.573C-1.253-6.677-1.153-6.76-1.13-6.844   C-1.173-6.9-1.228-6.953-1.222-7.03c0.002-0.03,0.029-0.057,0.041-0.084C-1.16-7.165-1.16-7.223-1.122-7.249   c-0.008-0.318-0.01-0.704,0.018-0.993c0.002-0.031,0.018-0.062,0.018-0.093c-0.002-0.022-0.021-0.043-0.025-0.067   c-0.006-0.028,0.002-0.068,0-0.102c-0.006-0.074-0.02-0.14-0.025-0.168C-1.159-8.75-1.165-8.8-1.222-8.831   c0.018-0.042-0.031-0.082-0.033-0.127c-0.004-0.035,0.016-0.058,0.023-0.084c-0.037-0.069-0.166-0.196-0.176-0.295   C-1.411-9.362-1.39-9.398-1.392-9.438c-0.002-0.046-0.041-0.077-0.033-0.109c0.008-0.034,0.035-0.035,0.076-0.059   c0.027-0.017,0.066-0.046,0.094-0.051c0.045-0.01,0.094,0.014,0.133-0.009c0.023,0.034,0.107,0.042,0.145,0.034   c0.082,0.058,0.221,0.058,0.26,0.159c-0.004,0.047,0.004,0.094,0,0.144c0.033,0,0.021,0.034,0.035,0.051   c0.01,0.013,0.051,0.009,0.033,0.042c0.08,0.001,0.096,0.065,0.135,0.109c-0.057,0.148,0.006,0.254,0,0.37   C-0.521-8.653-0.565-8.55-0.558-8.452c0.004,0.054,0.043,0.103,0.025,0.16c0.045,0.056,0.037,0.165,0.109,0.193   c-0.04,0.007-0.016,0.027-0.014,0.051c0.008,0.13,0.066,0.263,0.109,0.396c0.039,0.13,0.09,0.26,0.1,0.404   c0.072,0.035,0.156,0.092,0.186,0.177c0.02,0.052,0.014,0.123,0.025,0.186C0.017-6.708,0.089-6.53,0.116-6.372   c-0.01,0.016-0.014,0.033-0.018,0.051C0.087-6.235,0.083-6.096,0.091-6.01c0.008,0.072,0.043,0.146,0.051,0.219   c0.021,0.179-0.029,0.35,0.008,0.522C0.163-5.372,0.177-5.465,0.2-5.563c0.021-0.087,0.072-0.17,0.084-0.27   c0.01-0.073-0.01-0.157-0.008-0.245c0.006-0.142,0.039-0.29,0.033-0.42c-0.008-0.191-0.004-0.35,0.186-0.346   C0.47-6.889,0.446-6.903,0.452-6.953C0.464-7.038,0.601-7.03,0.63-7.097C0.599-7.249,0.646-7.371,0.681-7.509   c0.023-0.098,0.045-0.196,0.066-0.287c0.047-0.188,0.129-0.357,0.178-0.521C0.87-8.375,0.944-8.423,0.95-8.495   C0.952-8.52,0.937-8.55,0.933-8.578C0.927-8.64,0.917-8.717,0.915-8.78C0.913-8.915,0.942-9.02,0.96-9.118   c0.002-0.016-0.012-0.025-0.01-0.041c0.002-0.012,0.016-0.024,0.018-0.034C0.97-9.213,0.962-9.247,0.984-9.26   C0.99-9.297,1.013-9.264,1.035-9.285C1.022-9.384,1.085-9.482,1.026-9.53c0.03-0.024,0.036-0.072,0.051-0.11   c0.035-0.01,0.041-0.049,0.074-0.059C1.261-9.753,1.425-9.76,1.54-9.74c0.051,0.009,0.156,0.062,0.176,0.093   c0.041,0.061-0.002,0.15-0.008,0.192c-0.006,0.04,0.004,0.08,0,0.11c-0.016,0.098-0.084,0.172-0.119,0.27   C1.593-9.036,1.62-8.994,1.614-8.958c-0.008,0.082-0.09,0.141-0.115,0.22c-0.01,0.027-0.004,0.053-0.01,0.075   C1.481-8.636,1.462-8.614,1.454-8.587C1.442-8.536,1.452-8.481,1.431-8.418C1.474-8.375,1.452-8.32,1.454-8.267   C1.456-8.256,1.47-8.24,1.472-8.225c0.014,0.09,0.039,0.132,0.051,0.202c0.016,0.084,0.014,0.19,0.018,0.286   c0.006,0.192-0.01,0.365-0.025,0.521C1.52-7.195,1.559-7.207,1.549-7.173c0.006,0.039-0.047,0.021-0.033,0.067   c0.041,0.091,0.139,0.202,0.066,0.328C1.66-6.717,1.656-6.637,1.6-6.567C1.544-6.5,1.333-6.405,1.312-6.33   C1.304-6.299,1.32-6.246,1.322-6.204c0.004,0.109-0.016,0.268,0,0.371c0.01,0.073,0.047,0.135,0.051,0.202   c0.004,0.089-0.023,0.175-0.018,0.27c0.004,0.067,0.041,0.134,0.041,0.202c0.111-0.046,0.205,0.016,0.33-0.009   C1.769-5.127,1.82-5.086,1.859-5.033c0.031,0.04,0.102,0.119,0.109,0.16c0.006,0.018-0.006,0.047-0.006,0.067   C1.956-4.633,1.97-4.457,2.011-4.309c0.098-0.008,0.184,0.047,0.254,0.093C2.22-4.029,2.282-3.868,2.29-3.694z M-0.532,0.516   c0.002-0.01,0.037-0.024,0.018-0.007c0.051-0.004,0.063-0.118,0.143-0.119c-0.007-0.03,0.118-0.06,0.167-0.093   c0.004-0.003,0.006-0.023,0.01-0.024c0.002-0.002,0.039,0.003,0.033-0.034c-0.068,0.003-0.084-0.046-0.102-0.093   c-0.014,0-0.018,0.011-0.033,0.009c-0.102-0.058-0.23-0.091-0.313-0.169C-0.604,0.15-0.55,0.338-0.532,0.516z" fill="#FFFFFF"/>
    <g xmlns="http://www.w3.org/2000/svg">
      <path class="primary" fill="currentColor" d="M2.61,5.997C2.502,6.145,0.458,8.185-0.193,8.833c0.012,0.07,0.019,0.142,0.019,0.213    c0,0.704-0.573,1.276-1.277,1.276c-0.181,0-0.354-0.038-0.51-0.106l0.74-0.685c0.14-0.13,0.148-0.347,0.019-0.488l-0.254-0.274    c-0.13-0.14-0.349-0.149-0.488-0.019l-0.728,0.672c-0.035-0.118-0.056-0.245-0.056-0.376c0-0.706,0.571-1.276,1.276-1.276    c0.068,0,0.133,0.005,0.197,0.014h0.001c0.653-0.664,2.713-2.75,2.817-2.821C1.776,4.818,2.355,4.9,2.515,5.11    C2.73,5.397,2.768,5.788,2.61,5.997z M1.976,5.214c-0.208,0-0.375,0.168-0.375,0.373c0,0.207,0.167,0.376,0.375,0.376    c0.206,0,0.374-0.169,0.374-0.376C2.35,5.382,2.182,5.214,1.976,5.214z"/>
      <path class="primary" fill="currentColor" d="M2.35,5.587c0-0.205-0.168-0.373-0.374-0.373c-0.208,0-0.375,0.168-0.375,0.373    c0,0.207,0.167,0.376,0.375,0.376C2.182,5.963,2.35,5.794,2.35,5.587z"/>
      <path class="primary" fill="currentColor" d="M2.706,9.468L1.244,8C1.159,7.911,0.997,7.923,0.855,8.014l1.58,1.584l-0.1,0.098L0.747,8.103L0.475,8.364    C0.47,8.368,0.466,8.371,0.461,8.377l1.64,1.566l-0.097,0.1L0.376,8.486c-0.075,0.128-0.08,0.266-0.003,0.346l1.479,1.436    c0.054,0.055,0.455,0.101,0.677-0.117C2.738,9.948,2.756,9.52,2.706,9.468z"/>
      <polygon class="primary" fill="currentColor" points="2.436,9.598 0.855,8.014 0.747,8.103 2.335,9.696   "/>
      <path class="primary" fill="currentColor" d="M-0.899,7.016l0.325-0.294L-1.409,5.88c0,0-0.013-0.251-0.066-0.343c-0.054-0.091-1.022-0.691-1.022-0.691    l-0.23,0.227c0,0,0.528,0.944,0.614,1.017c0.086,0.072,0.38,0.092,0.38,0.092L-0.899,7.016z"/>
    </g>
  </g></svg>