<?xml version="1.0" standalone="no"?>
<svg xmlns="http://www.w3.org/2000/svg" viewBox="-6.37 -9.73 12.74 18.86" color="#212121" width="75" height="75"><g transform="matrix(1 0 0 -1 0 0)">
    <g xmlns="http://www.w3.org/2000/svg">
      <path class="primary" fill="currentColor" d="M-4.019,9.13h1.417l0.856-2.945l0.924,2.945h1.377V5.081h-0.862v3.472l-1.103-3.472h-0.717l-1.081,3.472    V5.081h-0.812V9.13z"/>
      <path class="primary" fill="currentColor" d="M1.346,9.13h2.71V8.469H2.214V7.506h1.725V6.845H2.214V5.753h1.904V5.081H1.346V9.13z"/>
    </g>
    <g xmlns="http://www.w3.org/2000/svg">
      <circle class="primary" fill="currentColor" cx="0" cy="-3.36" r="6.245"/>
      <path class="secondary" d="M0,2.76c3.38,0,6.12-2.74,6.12-6.12S3.38-9.48,0-9.48s-6.12,2.74-6.12,6.12S-3.38,2.76,0,2.76 M0,3.01    c-3.512,0-6.37-2.858-6.37-6.37S-3.512-9.73,0-9.73s6.37,2.858,6.37,6.37C6.37,0.153,3.512,3.01,0,3.01L0,3.01z" fill="#FFFFFF"/>
    </g>
    <g xmlns="http://www.w3.org/2000/svg">
      <path class="secondary" d="M-1.223-1.791c0.039,0.073,0.066,0.16,0.033,0.251C-1.196-1.618-1.231-1.707-1.223-1.791z" fill="#FFFFFF"/>
      <path class="secondary" d="M2.275-3.105c0.011,0.283-0.021,0.578-0.009,0.871c0.004,0.09,0.004,0.181,0,0.268    c-0.009,0.205-0.051,0.404-0.05,0.593c0,0.1-0.003,0.163-0.025,0.252c-0.035,0.14-0.078,0.248-0.109,0.369    c-0.025,0.097-0.051,0.221-0.049,0.3C1.996-0.367,1.922-0.278,1.931-0.175C1.904-0.157,1.895-0.126,1.881-0.1    C1.767,0.128,1.579,0.271,1.338,0.36c-0.001,0.1,0.105,0.287,0.066,0.394c-0.012,0.035-0.08,0.09-0.125,0.083    C1.165,0.819,1.197,0.5,1.129,0.435C1.08,0.509,1.008,0.562,0.961,0.637c-0.032,0.015-0.07,0.025-0.084,0.058    C0.852,0.706,0.802,0.693,0.794,0.72C0.772,0.782,0.821,0.842,0.827,0.904c0.082,0.028,0.146,0.023,0.235,0.042    c0.007,0.043,0.031,0.068,0.025,0.126c0.007,0.011,0.058,0.046,0.017,0.05c0.004-0.018-0.033-0.018-0.009-0.008    C1.08,1.159,1.131,1.198,1.145,1.256c0.025,0.1-0.006,0.216-0.009,0.301c-0.13,0.116-0.134,0.344-0.243,0.485    c-0.022,0.032-0.061,0.04-0.075,0.083C0.667,2.238,0.501,2.364,0.232,2.352C0.011,2.341-0.14,2.227-0.252,2.125    c-0.141-0.152-0.174-0.411-0.209-0.669c-0.084,0.012-0.051,0.12-0.043,0.176c0.031,0.202,0.083,0.43,0.118,0.61    c-0.011,0.035-0.022,0.062-0.009,0.102c-0.058,0.002-0.058,0.062-0.117,0.058c-0.087-0.169-0.089-0.388-0.125-0.594    C-0.66,1.673-0.657,1.55-0.746,1.515C-0.762,1.358-0.801,1.189-0.83,1.021c-0.03-0.169-0.062-0.339-0.092-0.502    c-0.034-0.021-0.052-0.06-0.076-0.092c-0.046-0.018-0.088-0.04-0.141-0.05C-1.177,0.315-1.247,0.3-1.299,0.26    c-0.033-0.027-0.072-0.073-0.109-0.109c-0.038-0.037-0.083-0.078-0.108-0.117C-1.539,0-1.543-0.046-1.567-0.083    c-0.016-0.028-0.049-0.061-0.075-0.092C-1.697-0.242-1.748-0.298-1.801-0.36c-0.026-0.031-0.049-0.069-0.074-0.1    c-0.048-0.054-0.111-0.088-0.151-0.142c-0.021-0.027-0.03-0.062-0.051-0.093c-0.099-0.151-0.17-0.313-0.2-0.535    c0.092-0.095,0.18-0.254,0.285-0.326c0.057-0.039,0.197-0.1,0.267-0.108c0.135-0.019,0.231,0.046,0.353,0.083    c0.019,0.007,0.039,0.056,0.059,0.033c-0.019-0.161-0.051-0.309-0.069-0.468c-0.024-0.027-0.06-0.041-0.06-0.093    c0.016-0.031,0.027-0.014,0.034-0.05c-0.04-0.377-0.087-0.735-0.15-1.088c-0.063-0.352-0.141-0.697-0.168-1.054    c0.093-0.047,0.242-0.072,0.36-0.067C-1.331-4.237-1.317-4.087-1.3-3.94c-0.002,0.032,0.036,0.025,0.034,0.058    c0,0.109,0.043,0.246,0.067,0.344c0.007,0.025-0.004,0.077,0.035,0.082c-0.013-0.06,0.045-0.12,0.05-0.168    c0.008-0.063-0.009-0.162-0.009-0.242c0-0.411-0.057-0.835-0.025-1.223c0.02-0.225,0.146-0.424,0.16-0.644    c-0.018-0.03-0.042-0.055-0.059-0.084c-0.095-0.017-0.174-0.069-0.185-0.15c-0.013-0.102,0.085-0.184,0.109-0.268    C-1.164-6.29-1.221-6.343-1.215-6.419c0.002-0.03,0.031-0.057,0.043-0.084c0.02-0.05,0.021-0.108,0.058-0.134    c-0.009-0.316-0.011-0.699,0.017-0.987c0.003-0.03,0.018-0.062,0.018-0.092c-0.003-0.022-0.023-0.042-0.027-0.067    c-0.005-0.027,0.002-0.068,0-0.1c-0.005-0.074-0.018-0.14-0.025-0.168C-1.152-8.129-1.158-8.179-1.215-8.21    c0.018-0.042-0.03-0.081-0.033-0.126C-1.25-8.371-1.233-8.393-1.223-8.419c-0.039-0.069-0.166-0.196-0.176-0.292    C-1.402-8.738-1.38-8.773-1.382-8.812C-1.385-8.858-1.423-8.888-1.416-8.92C-1.407-8.954-1.38-8.955-1.34-8.979    c0.027-0.017,0.066-0.045,0.092-0.051c0.047-0.01,0.096,0.015,0.134-0.008c0.022,0.034,0.106,0.041,0.142,0.035    c0.082,0.057,0.22,0.057,0.26,0.158c-0.004,0.046,0.003,0.092,0,0.142c0.032,0,0.021,0.034,0.033,0.051    c0.009,0.013,0.051,0.009,0.033,0.041c0.08,0.002,0.097,0.065,0.134,0.109c-0.056,0.147,0.006,0.252,0,0.368    C-0.517-8.032-0.563-7.93-0.554-7.833c0.005,0.054,0.043,0.103,0.026,0.16c0.044,0.054,0.035,0.164,0.109,0.192    c-0.042,0.007-0.019,0.025-0.018,0.05c0.009,0.129,0.067,0.262,0.109,0.394c0.04,0.129,0.089,0.258,0.1,0.401    c0.072,0.035,0.155,0.092,0.185,0.176c0.018,0.051,0.011,0.122,0.025,0.184c0.035,0.177,0.106,0.354,0.134,0.51    C0.105-5.751,0.101-5.733,0.099-5.715C0.088-5.629,0.082-5.492,0.091-5.406c0.006,0.072,0.041,0.145,0.05,0.218    C0.162-5.01,0.111-4.84,0.149-4.669c0.013-0.103,0.026-0.194,0.05-0.293C0.22-5.048,0.271-5.13,0.283-5.23    c0.01-0.073-0.011-0.156-0.008-0.243c0.006-0.141,0.039-0.289,0.033-0.418C0.3-6.081,0.303-6.239,0.492-6.235    C0.468-6.28,0.443-6.295,0.45-6.343c0.012-0.085,0.146-0.076,0.177-0.142c-0.031-0.153,0.016-0.273,0.05-0.411    C0.701-6.993,0.721-7.09,0.743-7.18C0.789-7.367,0.871-7.535,0.92-7.699C0.865-7.756,0.937-7.804,0.944-7.876    C0.947-7.9,0.931-7.93,0.927-7.958C0.921-8.019,0.912-8.096,0.91-8.159C0.907-8.293,0.935-8.396,0.953-8.494    c0.003-0.017-0.01-0.026-0.009-0.042C0.945-8.548,0.96-8.56,0.961-8.569c0.003-0.02-0.004-0.054,0.017-0.067    c0.005-0.037,0.028-0.004,0.05-0.025c-0.013-0.098,0.05-0.196-0.009-0.243C1.048-8.927,1.054-8.975,1.07-9.012    c0.035-0.01,0.041-0.049,0.075-0.06C1.253-9.126,1.416-9.133,1.53-9.113c0.05,0.008,0.155,0.061,0.176,0.092    C1.747-8.96,1.703-8.871,1.697-8.83c-0.005,0.04,0.006,0.08,0,0.109C1.681-8.623,1.615-8.548,1.58-8.452    c0.004,0.038,0.029,0.08,0.025,0.116C1.596-8.254,1.514-8.195,1.489-8.117C1.48-8.09,1.486-8.065,1.48-8.043    C1.472-8.015,1.454-7.994,1.445-7.966c-0.012,0.05-0.002,0.104-0.023,0.167c0.043,0.043,0.021,0.097,0.023,0.151    c0.002,0.01,0.016,0.025,0.018,0.041c0.014,0.09,0.038,0.131,0.051,0.201C1.53-7.323,1.528-7.218,1.531-7.122    c0.007,0.19-0.009,0.363-0.024,0.519c0.002,0.021,0.042,0.008,0.032,0.042c0.006,0.04-0.047,0.021-0.033,0.067    c0.04,0.091,0.137,0.201,0.066,0.326c0.077,0.06,0.074,0.14,0.017,0.21c-0.054,0.065-0.263,0.16-0.286,0.234    C1.296-5.693,1.31-5.64,1.312-5.598c0.006,0.108-0.016,0.266,0,0.368c0.012,0.072,0.047,0.135,0.051,0.201    C1.367-4.94,1.34-4.855,1.345-4.761C1.349-4.694,1.386-4.628,1.387-4.56C1.496-4.606,1.59-4.544,1.714-4.569    c0.043,0.04,0.093,0.081,0.133,0.134c0.031,0.04,0.1,0.118,0.109,0.159C1.96-4.259,1.948-4.229,1.948-4.209    c-0.004,0.171,0.01,0.346,0.051,0.494C2.096-3.722,2.181-3.668,2.25-3.623C2.207-3.437,2.267-3.278,2.275-3.105z M-1.223-1.791    C-1.231-1.707-1.196-1.618-1.19-1.54C-1.157-1.63-1.184-1.717-1.223-1.791z M-0.261,0.711c-0.015,0-0.018,0.011-0.032,0.009    c-0.102-0.058-0.229-0.09-0.311-0.167c0.003,0.163,0.057,0.35,0.076,0.526c0-0.01,0.035-0.024,0.016-0.008    c0.051-0.003,0.062-0.117,0.143-0.117c-0.006-0.029,0.119-0.06,0.167-0.093c0.004-0.002,0.005-0.023,0.008-0.024    c0.002-0.001,0.04,0.003,0.033-0.034C-0.228,0.806-0.243,0.758-0.261,0.711z" fill="#FFFFFF"/>
    </g>
  </g></svg>