<?xml version="1.0" standalone="no"?>
<svg xmlns="http://www.w3.org/2000/svg" viewBox="-6.37 -9.986 12.74 19.971" color="#212121" width="75" height="75"><g transform="matrix(1 0 0 -1 0 0)">
    <polygon xmlns="http://www.w3.org/2000/svg" class="primary" fill="currentColor" points="2.469,6.688 0.82,6.688 0.829,5.038 -0.82,5.038 -0.82,6.688 -2.469,6.688 -2.469,8.337 -0.82,8.337    -0.82,9.986 0.829,9.986 0.82,8.337 2.469,8.337  "/>
    <g xmlns="http://www.w3.org/2000/svg">
      <circle class="primary" fill="currentColor" cx="0" cy="-3.616" r="6.245"/>
      <path class="secondary" d="M0,2.504c3.38,0,6.12-2.74,6.12-6.12S3.38-9.736,0-9.736s-6.12,2.74-6.12,6.12S-3.38,2.504,0,2.504 M0,2.754    c-3.513,0-6.37-2.857-6.37-6.37s2.857-6.37,6.37-6.37s6.37,2.857,6.37,6.37S3.513,2.754,0,2.754L0,2.754z" fill="#FFFFFF"/>
    </g>
    <path xmlns="http://www.w3.org/2000/svg" class="secondary" d="M2.212-3.368c0.012,0.275-0.02,0.562-0.008,0.847c0.004,0.087,0.004,0.176,0,0.26   c-0.008,0.2-0.051,0.395-0.048,0.579c0,0.097-0.004,0.158-0.025,0.244C2.097-1.303,2.056-1.197,2.024-1.08   c-0.023,0.095-0.05,0.215-0.048,0.292c-0.034,0.082-0.106,0.17-0.099,0.27C1.851-0.501,1.844-0.471,1.83-0.446   c-0.112,0.222-0.294,0.36-0.528,0.447C1.3,0.1,1.403,0.281,1.366,0.386C1.354,0.419,1.287,0.473,1.243,0.467   c-0.11-0.02-0.08-0.329-0.146-0.392C1.05,0.147,0.981,0.198,0.935,0.271C0.903,0.286,0.867,0.296,0.854,0.327   C0.829,0.339,0.781,0.326,0.772,0.353C0.75,0.413,0.799,0.471,0.805,0.53c0.08,0.029,0.141,0.023,0.229,0.042   c0.007,0.04,0.03,0.066,0.024,0.121c0.006,0.011,0.055,0.045,0.016,0.05c0.004-0.018-0.031-0.018-0.009-0.009   C1.051,0.779,1.1,0.816,1.113,0.873c0.025,0.098-0.006,0.211-0.008,0.293C0.979,1.279,0.976,1.5,0.869,1.638   C0.847,1.669,0.81,1.678,0.796,1.72C0.649,1.828,0.487,1.951,0.227,1.94C0.011,1.929-0.136,1.817-0.245,1.72   c-0.138-0.148-0.169-0.4-0.204-0.651c-0.08,0.012-0.048,0.117-0.04,0.171c0.028,0.197,0.08,0.418,0.113,0.594   c-0.011,0.034-0.021,0.062-0.009,0.098C-0.44,1.934-0.441,1.993-0.497,1.987C-0.583,1.823-0.585,1.611-0.62,1.411   C-0.643,1.279-0.64,1.16-0.726,1.125c-0.015-0.153-0.053-0.316-0.082-0.48c-0.029-0.166-0.06-0.33-0.09-0.489   c-0.033-0.02-0.05-0.058-0.073-0.089c-0.046-0.016-0.085-0.039-0.136-0.048c-0.037-0.06-0.105-0.075-0.155-0.113   c-0.035-0.028-0.071-0.073-0.106-0.107C-1.405-0.238-1.45-0.277-1.475-0.315c-0.022-0.033-0.027-0.078-0.05-0.114   c-0.015-0.027-0.047-0.059-0.072-0.09C-1.65-0.585-1.7-0.638-1.752-0.698C-1.778-0.729-1.8-0.767-1.824-0.796   C-1.87-0.849-1.932-0.882-1.972-0.935C-1.993-0.96-2.001-0.994-2.021-1.024c-0.095-0.147-0.165-0.304-0.195-0.521   c0.089-0.093,0.176-0.246,0.278-0.317c0.055-0.038,0.193-0.097,0.26-0.105c0.131-0.018,0.225,0.045,0.343,0.081   c0.019,0.006,0.038,0.054,0.058,0.033c-0.02-0.158-0.049-0.301-0.068-0.457C-1.366-2.335-1.404-2.35-1.402-2.4   c0.015-0.03,0.025-0.014,0.033-0.049c-0.04-0.366-0.086-0.716-0.147-1.057c-0.062-0.343-0.137-0.68-0.163-1.027   c0.091-0.045,0.236-0.07,0.351-0.065C-1.295-4.47-1.28-4.325-1.263-4.183C-1.265-4.148-1.229-4.157-1.23-4.125   c0,0.106,0.042,0.238,0.064,0.333c0.007,0.027-0.006,0.077,0.033,0.082c-0.012-0.058,0.044-0.116,0.049-0.163   c0.007-0.062-0.009-0.157-0.009-0.234c0-0.4-0.056-0.813-0.024-1.19c0.019-0.217,0.142-0.412,0.155-0.626   C-0.98-5.952-1.001-5.976-1.019-6.004C-1.11-6.022-1.187-6.072-1.199-6.15c-0.013-0.1,0.083-0.18,0.105-0.261   c-0.04-0.053-0.094-0.105-0.088-0.18c0.002-0.028,0.028-0.055,0.04-0.081c0.021-0.049,0.021-0.105,0.057-0.13   C-1.094-7.11-1.096-7.483-1.069-7.763c0.004-0.028,0.018-0.06,0.018-0.09c-0.002-0.021-0.021-0.04-0.024-0.063   c-0.006-0.027,0.002-0.067,0-0.099C-1.081-8.087-1.093-8.15-1.101-8.179c-0.02-0.076-0.025-0.123-0.08-0.154   c0.016-0.04-0.03-0.078-0.033-0.121C-1.216-8.49-1.198-8.511-1.19-8.535c-0.036-0.068-0.16-0.19-0.17-0.285   c-0.004-0.026,0.019-0.061,0.016-0.098c-0.002-0.044-0.039-0.074-0.031-0.106s0.034-0.033,0.072-0.057   c0.025-0.016,0.064-0.044,0.09-0.048c0.044-0.01,0.092,0.012,0.13-0.008c0.02,0.031,0.104,0.039,0.139,0.031   c0.079,0.057,0.214,0.057,0.252,0.154c-0.003,0.046,0.004,0.091,0,0.139c0.032,0,0.021,0.033,0.034,0.049   c0.008,0.013,0.048,0.009,0.03,0.04C-0.55-8.722-0.534-8.66-0.497-8.617c-0.055,0.143,0.004,0.244,0,0.358   c-0.006,0.098-0.05,0.198-0.042,0.292c0.005,0.052,0.042,0.099,0.025,0.155c0.043,0.054,0.036,0.16,0.104,0.187   C-0.45-7.618-0.427-7.6-0.425-7.575C-0.417-7.45-0.36-7.32-0.319-7.193c0.037,0.126,0.086,0.25,0.096,0.391   c0.07,0.034,0.151,0.089,0.18,0.171c0.019,0.051,0.012,0.118,0.024,0.18c0.034,0.172,0.104,0.344,0.13,0.496   C0.104-5.941,0.099-5.924,0.097-5.907C0.084-5.824,0.08-5.689,0.088-5.605c0.008,0.069,0.042,0.14,0.049,0.211   C0.158-5.222,0.109-5.057,0.146-4.89c0.011-0.1,0.024-0.189,0.048-0.285c0.021-0.084,0.069-0.163,0.081-0.26   c0.009-0.071-0.012-0.151-0.008-0.237C0.273-5.809,0.306-5.953,0.3-6.079C0.292-6.263,0.296-6.417,0.48-6.412   C0.455-6.455,0.432-6.47,0.438-6.518C0.449-6.601,0.58-6.592,0.609-6.656c-0.031-0.149,0.016-0.267,0.049-0.4   C0.68-7.149,0.702-7.245,0.723-7.332c0.044-0.182,0.123-0.345,0.17-0.504C0.84-7.893,0.913-7.939,0.917-8.007   c0.004-0.025-0.012-0.054-0.014-0.082c-0.008-0.06-0.016-0.134-0.019-0.195C0.882-8.413,0.91-8.514,0.927-8.61   c0.002-0.016-0.011-0.025-0.01-0.04C0.92-8.66,0.934-8.674,0.935-8.684C0.938-8.701,0.93-8.735,0.951-8.747   c0.006-0.036,0.028-0.004,0.048-0.024c-0.012-0.096,0.05-0.19-0.008-0.236C1.02-9.03,1.025-9.076,1.041-9.112   c0.034-0.01,0.04-0.048,0.072-0.058c0.106-0.052,0.265-0.059,0.375-0.04c0.049,0.008,0.151,0.06,0.171,0.089   c0.039,0.06-0.003,0.147-0.009,0.187c-0.004,0.039,0.006,0.078,0,0.106c-0.014,0.095-0.08,0.167-0.113,0.26   C1.54-8.531,1.565-8.49,1.562-8.454c-0.009,0.078-0.088,0.135-0.114,0.21C1.439-8.216,1.445-8.191,1.439-8.17   C1.433-8.145,1.413-8.122,1.406-8.097C1.394-8.049,1.403-7.996,1.383-7.935c0.042,0.042,0.021,0.096,0.023,0.147   c0.002,0.011,0.015,0.025,0.017,0.04C1.436-7.66,1.459-7.621,1.472-7.553C1.486-7.47,1.486-7.368,1.488-7.273   C1.495-7.09,1.479-6.923,1.464-6.771C1.468-6.75,1.505-6.763,1.497-6.73c0.004,0.039-0.046,0.022-0.033,0.066   c0.039,0.088,0.135,0.195,0.064,0.317c0.076,0.058,0.073,0.136,0.017,0.204C1.494-6.08,1.289-5.988,1.268-5.915   c-0.007,0.03,0.008,0.08,0.009,0.121c0.005,0.105-0.016,0.259,0,0.359c0.011,0.07,0.046,0.129,0.05,0.195   C1.33-5.154,1.305-5.07,1.309-4.978c0.005,0.065,0.04,0.128,0.04,0.194c0.107-0.044,0.199,0.015,0.319-0.008   c0.042,0.039,0.091,0.079,0.129,0.13c0.03,0.039,0.098,0.115,0.106,0.154C1.907-4.49,1.896-4.462,1.896-4.442   c-0.005,0.168,0.01,0.338,0.049,0.48c0.094-0.007,0.178,0.045,0.244,0.089C2.146-3.691,2.206-3.536,2.212-3.368z M-0.514,0.702   c0.001-0.01,0.036-0.023,0.017-0.009c0.048-0.002,0.06-0.112,0.138-0.113c-0.006-0.029,0.115-0.058,0.162-0.09   c0.005-0.003,0.006-0.022,0.009-0.023c0.003-0.002,0.039,0.002,0.033-0.034c-0.066,0.003-0.082-0.044-0.099-0.09   c-0.014,0-0.018,0.011-0.031,0.01c-0.1-0.057-0.223-0.089-0.303-0.163C-0.585,0.348-0.532,0.53-0.514,0.702z" fill="#FFFFFF"/>
  </g></svg>