<?xml version="1.0" standalone="no"?>
<svg xmlns="http://www.w3.org/2000/svg" viewBox="-6.37 -9.914 12.74 19.228" color="#212121" width="75" height="75"><g transform="matrix(1 0 0 -1 0 0)">
    <g xmlns="http://www.w3.org/2000/svg">
      <path class="primary" fill="currentColor" d="M-4.019,9.314h1.417l0.856-2.945l0.924,2.945h1.377V5.265h-0.862v3.472l-1.103-3.472h-0.717l-1.081,3.472    V5.265h-0.812V9.314z"/>
      <path class="primary" fill="currentColor" d="M1.295,9.302h1.249c0.583,0,1.07-0.039,1.406-0.442c0.212-0.257,0.246-0.549,0.246-0.756    c0-0.47-0.196-0.867-0.515-1.075c-0.297-0.19-0.706-0.19-0.918-0.19H2.175V5.265H1.295V9.302z M2.152,7.483H2.5    c0.28,0,0.801,0,0.801,0.616c0,0.549-0.465,0.549-0.711,0.549H2.152V7.483z"/>
    </g>
    <g xmlns="http://www.w3.org/2000/svg">
      <path class="primary" fill="currentColor" d="M-0.001-9.79c-3.443,0-6.244,2.802-6.244,6.245S-3.444,2.7-0.001,2.7c3.444,0,6.246-2.802,6.246-6.245    S3.444-9.79-0.001-9.79z"/>
      <path class="secondary" d="M-0.001,2.576c3.381,0,6.121-2.74,6.121-6.12s-2.74-6.12-6.121-6.12c-3.379,0-6.119,2.74-6.119,6.12    C-6.12-0.165-3.379,2.576-0.001,2.576 M-0.001,2.826c-3.512,0-6.369-2.858-6.369-6.37c0-3.513,2.857-6.37,6.369-6.37    c3.513,0,6.371,2.858,6.371,6.37C6.371-0.032,3.513,2.826-0.001,2.826L-0.001,2.826z" fill="#FFFFFF"/>
    </g>
    <g xmlns="http://www.w3.org/2000/svg">
      <path class="secondary" d="M-1.235-1.958c0.039,0.074,0.066,0.161,0.033,0.254C-1.207-1.783-1.245-1.873-1.235-1.958z" fill="#FFFFFF"/>
      <path class="secondary" d="M2.3-3.286c0.01,0.285-0.023,0.584-0.01,0.88c0.004,0.091,0.004,0.183,0,0.271    C2.28-1.928,2.237-1.727,2.239-1.534c0.003,0.1-0.001,0.164-0.025,0.252C2.179-1.14,2.136-1.03,2.105-0.909    C2.08-0.81,2.052-0.685,2.054-0.605c-0.037,0.086-0.111,0.176-0.102,0.28C1.923-0.307,1.916-0.276,1.902-0.25    C1.787-0.02,1.597,0.125,1.353,0.216C1.351,0.317,1.459,0.505,1.419,0.614C1.408,0.65,1.337,0.706,1.293,0.698    C1.177,0.679,1.21,0.357,1.14,0.291C1.091,0.367,1.019,0.419,0.972,0.496C0.939,0.51,0.902,0.521,0.886,0.554    C0.861,0.565,0.812,0.552,0.802,0.58C0.781,0.642,0.83,0.703,0.835,0.765c0.084,0.029,0.147,0.024,0.239,0.043    c0.008,0.043,0.031,0.068,0.025,0.127c0.006,0.011,0.057,0.046,0.016,0.051c0.004-0.019-0.033-0.019-0.008-0.009    C1.091,1.023,1.142,1.062,1.158,1.122c0.025,0.1-0.006,0.217-0.008,0.303c-0.133,0.117-0.137,0.347-0.246,0.49    C0.88,1.947,0.841,1.957,0.828,1.999C0.674,2.113,0.508,2.24,0.236,2.228c-0.225-0.012-0.377-0.127-0.49-0.229    C-0.397,1.846-0.43,1.583-0.465,1.323c-0.084,0.012-0.051,0.122-0.043,0.178c0.031,0.204,0.084,0.434,0.119,0.617    c-0.012,0.036-0.024,0.063-0.01,0.102c-0.059,0.002-0.059,0.062-0.117,0.059c-0.09-0.17-0.092-0.391-0.127-0.6    c-0.023-0.137-0.02-0.261-0.111-0.296c-0.016-0.16-0.055-0.33-0.084-0.499c-0.03-0.172-0.063-0.343-0.094-0.508    c-0.033-0.021-0.051-0.06-0.076-0.092c-0.047-0.018-0.088-0.04-0.143-0.051C-1.19,0.171-1.26,0.155-1.311,0.115    c-0.035-0.027-0.074-0.074-0.111-0.11c-0.037-0.038-0.084-0.079-0.109-0.118c-0.023-0.035-0.027-0.082-0.051-0.118    C-1.6-0.26-1.633-0.293-1.659-0.325c-0.055-0.069-0.107-0.125-0.16-0.187c-0.027-0.031-0.051-0.07-0.076-0.102    c-0.049-0.054-0.111-0.089-0.152-0.143C-2.069-0.785-2.079-0.819-2.098-0.85c-0.1-0.152-0.172-0.316-0.203-0.541    c0.094-0.096,0.182-0.256,0.287-0.33C-1.955-1.76-1.813-1.822-1.743-1.83c0.135-0.018,0.232,0.047,0.355,0.084    c0.018,0.006,0.04,0.055,0.059,0.034c-0.018-0.162-0.049-0.312-0.068-0.474C-1.42-2.212-1.458-2.227-1.456-2.279    C-1.44-2.311-1.431-2.294-1.423-2.33c-0.04-0.38-0.087-0.743-0.152-1.098c-0.062-0.356-0.141-0.705-0.168-1.066    c0.094-0.047,0.244-0.073,0.363-0.067c0.035,0.132,0.049,0.283,0.068,0.431c-0.004,0.033,0.035,0.026,0.033,0.06    c0,0.109,0.043,0.248,0.068,0.347c0.006,0.027-0.006,0.079,0.033,0.085c-0.014-0.061,0.045-0.121,0.051-0.17    c0.008-0.064-0.01-0.163-0.01-0.244c0-0.415-0.057-0.845-0.025-1.235C-1.142-5.515-1.014-5.716-1-5.938    c-0.018-0.03-0.043-0.055-0.061-0.085c-0.094-0.018-0.174-0.07-0.186-0.152c-0.011-0.106,0.088-0.189,0.112-0.274    c-0.041-0.056-0.098-0.109-0.092-0.187c0.002-0.029,0.031-0.057,0.043-0.084c0.02-0.051,0.021-0.109,0.059-0.135    c-0.01-0.32-0.012-0.707,0.016-0.998c0.004-0.03,0.02-0.062,0.018-0.093c0-0.022-0.021-0.043-0.025-0.068    c-0.004-0.027,0.002-0.068,0-0.101C-1.12-8.19-1.134-8.256-1.141-8.284c-0.021-0.08-0.027-0.13-0.084-0.161    c0.018-0.043-0.031-0.082-0.033-0.127C-1.26-8.609-1.242-8.631-1.233-8.657c-0.039-0.07-0.168-0.198-0.178-0.296    c-0.004-0.026,0.018-0.062,0.016-0.102C-1.399-9.099-1.438-9.13-1.43-9.163c0.008-0.035,0.035-0.035,0.076-0.06    C-1.327-9.24-1.288-9.268-1.26-9.274c0.047-0.01,0.096,0.015,0.135-0.009c0.021,0.035,0.107,0.043,0.144,0.036    c0.082,0.057,0.223,0.058,0.262,0.16c-0.004,0.047,0.002,0.093,0,0.143c0.031,0,0.021,0.034,0.033,0.052    c0.01,0.013,0.051,0.009,0.033,0.042c0.082,0.001,0.098,0.065,0.137,0.11c-0.057,0.148,0.004,0.255,0,0.371    c-0.006,0.103-0.051,0.207-0.043,0.305c0.004,0.054,0.043,0.103,0.025,0.161c0.045,0.056,0.037,0.166,0.109,0.194    c-0.041,0.007-0.018,0.026-0.016,0.051c0.008,0.131,0.066,0.265,0.109,0.397C-0.291-7.13-0.242-7-0.23-6.855    c0.072,0.035,0.156,0.092,0.186,0.178c0.02,0.052,0.012,0.123,0.025,0.186c0.035,0.179,0.107,0.357,0.135,0.516    C0.106-5.959,0.102-5.942,0.1-5.923C0.088-5.837,0.082-5.697,0.09-5.611c0.008,0.072,0.043,0.146,0.053,0.22    c0.021,0.18-0.03,0.351,0.009,0.524c0.012-0.104,0.025-0.196,0.051-0.296c0.021-0.087,0.072-0.17,0.084-0.271    c0.01-0.074-0.012-0.158-0.008-0.246c0.006-0.142,0.039-0.291,0.033-0.421C0.304-6.293,0.306-6.453,0.498-6.449    C0.472-6.494,0.449-6.508,0.455-6.558c0.012-0.086,0.148-0.077,0.18-0.144C0.601-6.856,0.65-6.978,0.685-7.117    c0.024-0.097,0.043-0.197,0.067-0.287C0.799-7.592,0.881-7.763,0.93-7.928C0.875-7.987,0.95-8.033,0.955-8.106    C0.957-8.131,0.941-8.162,0.937-8.19C0.931-8.252,0.921-8.33,0.919-8.393c-0.002-0.135,0.027-0.24,0.045-0.339    c0.002-0.017-0.012-0.026-0.01-0.042C0.957-8.786,0.97-8.798,0.972-8.808c0.002-0.02-0.006-0.054,0.016-0.067    C0.994-8.912,1.017-8.879,1.039-8.9C1.027-9,1.089-9.098,1.031-9.146C1.06-9.169,1.066-9.217,1.082-9.255    c0.035-0.01,0.041-0.05,0.076-0.06C1.267-9.37,1.431-9.376,1.546-9.358c0.051,0.009,0.158,0.062,0.178,0.094    c0.041,0.06-0.002,0.151-0.008,0.193c-0.006,0.04,0.004,0.08,0,0.11C1.701-8.862,1.632-8.787,1.597-8.689    c0.004,0.039,0.03,0.081,0.026,0.118C1.615-8.49,1.531-8.43,1.505-8.351c-0.01,0.027-0.004,0.053-0.01,0.076    C1.488-8.248,1.47-8.226,1.46-8.199C1.449-8.148,1.459-8.093,1.437-8.03C1.482-7.987,1.459-7.931,1.46-7.877    c0.002,0.01,0.016,0.027,0.018,0.043c0.016,0.09,0.039,0.132,0.051,0.202c0.016,0.084,0.016,0.191,0.018,0.288    c0.008,0.192-0.008,0.366-0.025,0.523C1.526-6.8,1.567-6.813,1.557-6.778C1.56-6.739,1.509-6.756,1.521-6.71    C1.562-6.619,1.66-6.507,1.589-6.38c0.078,0.06,0.074,0.141,0.016,0.212C1.552-6.103,1.339-6.007,1.318-5.932    C1.31-5.901,1.326-5.848,1.326-5.805c0.006,0.108-0.016,0.268,0,0.372C1.337-5.36,1.375-5.297,1.378-5.23    c0.004,0.089-0.025,0.17U-0.017,0.271c0.004,0.068,0.041,0.134,0.041,0.203c0.111-0.046,0.205,0.016,0.33-0.009    c0.045,0.04,0.096,0.082,0.135,0.135C1.9-4.59,1.969-4.51,1.978-4.469C1.982-4.452,1.97-4.422,1.97-4.402    C1.964-4.228,1.978-4.051,2.021-3.903C2.119-3.91,2.205-3.856,2.273-3.81C2.23-3.622,2.293-3.46,2.3-3.286z M-1.235-1.958    c-0.01,0.085,0.027,0.175,0.033,0.254C-1.168-1.796-1.196-1.883-1.235-1.958z M-0.264,0.571c-0.014,0-0.018,0.011-0.031,0.009    C-0.399,0.521-0.528,0.489-0.61,0.411c0.004,0.165,0.059,0.354,0.076,0.532c0.002-0.01,0.037-0.024,0.018-0.008    c0.051-0.003,0.062-0.118,0.143-0.119c-0.006-0.029,0.121-0.06,0.17-0.093C-0.2,0.72-0.198,0.699-0.196,0.698    c0.002-0.001,0.041,0.003,0.035-0.034C-0.229,0.666-0.245,0.619-0.264,0.571z" fill="#FFFFFF"/>
    </g>
  </g></svg>