<?xml version="1.0" standalone="no"?>
<svg xmlns="http://www.w3.org/2000/svg" viewBox="-6.37 -6.37 12.74 12.74" color="#212121" width="75" height="75"><g transform="matrix(1 0 0 -1 0 0)">
    <g xmlns="http://www.w3.org/2000/svg">
      <circle class="primary" fill="currentColor" cx="0" cy="0" r="6.245"/>
      <path class="secondary" d="M0,6.12c3.38,0,6.12-2.74,6.12-6.12S3.38-6.12,0-6.12S-6.12-3.38-6.12,0S-3.38,6.12,0,6.12 M0,6.37    c-3.513,0-6.37-2.857-6.37-6.37S-3.513-6.37,0-6.37S6.37-3.513,6.37,0S3.513,6.37,0,6.37L0,6.37z" fill="#FFFFFF"/>
    </g>
    <polygon xmlns="http://www.w3.org/2000/svg" id="Missile_1_" class="secondary" points="4.07,3.825 4.023,3.734 3.954,3.677 3.747,3.571 3.596,3.536 3.532,3.683    3.077,3.443 2.902,3.318 2.865,3.405 3.302,3.642 3.572,3.79 3.718,3.778 3.959,3.906 4.053,3.981 4.119,4.067 3.735,4.588    3.337,4.354 3.277,4.264 3.135,4.148 3.095,4.119 3.055,4.136 3.014,4.299 2.973,4.39 2.932,4.436 2.896,4.413 2.886,4.334    2.92,4.271 2.926,4.229 2.943,4.183 2.984,4.153 2.961,4.084 2.201,3.653 1.555,3.33 1.544,3.405 1.59,3.479 1.59,3.514    1.538,3.502 1.462,3.502 1.375,3.536 1.415,3.435 1.434,3.354 1.469,3.271 0.892,2.949 0.856,2.978 1.014,3.19 0.984,3.255    0.88,3.267 0.758,3.242 0.574,3.468 0.408,3.606 0.176,3.694 -0.014,3.717 -0.186,3.694 -0.324,3.647 -0.441,3.589 -0.596,3.484    -0.712,3.354 -0.775,3.22 -0.809,3.054 -0.809,2.844 -0.741,2.597 -0.637,2.372 -0.625,2.262 -0.688,2.138 -0.879,1.946    -4.869,-0.212 -5.057,-0.404 -5.092,-0.625 -4.91,-0.805 -4.738,-0.805 -0.879,1.373 -0.82,1.386 -0.82,1.339 -0.918,1.109    -1.006,0.545 -0.947,0.134 -0.901,-0.349 -0.849,-0.76 -0.947,-0.966 -1.154,-1.024 -1.312,-1.089 -1.432,-1.271 -1.443,-1.636    -1.419,-2.102 -1.358,-2.229 -1.346,-2.64 -1.306,-2.87 -0.942,-3.146 -1.047,-3.347 -1.12,-3.612 -1.154,-3.845 -0.988,-3.899    -0.753,-3.976 -0.66,-4.328 -0.406,-4.552 -0.124,-4.587 0.228,-4.569 0.984,-4.581 1.162,-4.503 1.313,-4.328 1.375,-4.115    1.284,-3.774 1.116,-3.317 1.052,-3.036 1.319,-2.935 1.619,-2.724 1.98,-2.454 2.085,-2.384 2.154,-2.454 2.091,-2.669    1.975,-3.134 1.901,-3.257 1.791,-3.574 1.773,-3.774 1.727,-3.993 1.721,-4.109 1.727,-4.196 1.732,-4.281 2.604,-4.305    3.447,-4.206 3.525,-4.046 3.441,-3.964 3.203,-3.952 3.031,-3.874 2.777,-3.752 2.604,-3.63 2.615,-3.251 2.731,-3.204    3.141,-2.299 3.383,-1.808 3.465,-1.452 3.482,-1.089 3.43,-0.925 3.084,-0.766 2.627,-0.782 2.195,-0.885 1.879,-0.954    1.654,-0.873 1.561,-0.562 1.491,-0.038 1.855,0.492 2.056,0.521 2.432,0.638 2.604,0.757 2.668,1.005 2.697,1.403 2.697,1.813    2.49,2.256 2.496,2.472 2.554,2.567 2.737,2.637 2.902,2.807 2.973,2.983 2.99,3.013 3.112,3.024 3.244,3.03 3.753,3.249    3.695,3.417 3.925,3.566 4.023,3.659 4.178,3.665  " fill="#FFFFFF"/>
  </g></svg>