<?xml version="1.0" standalone="no"?>
<svg xmlns="http://www.w3.org/2000/svg" viewBox="-6.37 -6.37 12.74 12.74" color="#212121" width="75" height="75"><g transform="matrix(1 0 0 -1 0 0)">
    <g xmlns="http://www.w3.org/2000/svg">
      <path class="primary" fill="currentColor" d="M-0.001-6.245c-3.443,0-6.244,2.802-6.244,6.246c0,3.443,2.801,6.244,6.244,6.244    c3.444,0,6.246-2.801,6.246-6.244C6.245-3.443,3.443-6.245-0.001-6.245z"/>
      <path class="secondary" d="M-0.001,6.12c3.381,0,6.121-2.74,6.121-6.119c0-3.381-2.74-6.121-6.121-6.121    c-3.379,0-6.119,2.74-6.119,6.121C-6.12,3.38-3.38,6.12-0.001,6.12 M-0.001,6.37c-3.512,0-6.369-2.857-6.369-6.369    c0-3.513,2.857-6.371,6.369-6.371c3.513,0,6.371,2.858,6.371,6.371C6.37,3.513,3.512,6.37-0.001,6.37L-0.001,6.37z" fill="#FFFFFF"/>
    </g>
    <path xmlns="http://www.w3.org/2000/svg" class="secondary" d="M5.571-0.18C5.538-0.061,5.433-0.027,5.433-0.027v0.165H5.249C5.221,0.23,5.054,0.212,5.054,0.212L5.05,0.332   H5.008v0.041L2.78,0.358L2.655,0.473l0.137-0.006V0.442l0.026-0.007c0.007,0.104-0.089,0.193-0.089,0.193L2.77,0.69l0.229,0.062   l0.207-0.098v0.208L2.88,1.002H2.646L2.403,1.133l0.021,0.672L2.086,2.061l-0.347,0.02L1.567,1.846H1.484V1.783L1.401,1.84v0.138   L1.298,1.963L1.263,2.005l0.035,0.014v0.062L0.64,2.066L0.585,1.99L-0.52,2.517l-0.188-0.375l-0.373,0.091l0.146-0.127h-0.597   l0.156-0.156V1.885h-0.23c0,0,0.009-0.036,0-0.069c-0.121-0.009-0.166-0.137-0.166-0.137L-1.86,1.688l-0.068,0.11V1.673h-0.098   l-0.055-0.078c0,0,0.002-0.208,0-0.424c0.051-0.134,0.119-0.1,0.119-0.1V0.967h-0.055V0.795h-0.361l-0.039-0.073h-0.201V0.695   h-0.033v0.052h-0.116L-2.806,0.71V0.672h-0.018V0.526h0.217v0.026l0.148-0.004l0.223-0.104l0.284-0.001l0.071-0.089l0.121,0.007   l0.01,0.08l0.042-0.004l0.045-0.066c0,0,0,0,0-0.064c-0.121,0.058-0.229-0.121-0.229-0.121L-2.313,0.18l-0.211-0.152l-0.129,0.025   c0,0,0.008,0.069,0,0.269c-0.3,0.114-0.805,0.037-0.805,0.037l-0.184-0.102l0.1,1.305l-0.133-1.337l-0.379-0.197l-1.16-0.004   l0.066,2.105l-0.134-2.023L-5.327,0h0.074v-0.069l-0.332-0.857v-0.138l0.146-0.011v-0.35l0.517-0.332l0.13,0.01l0.617-0.186   c0,0,0.121-0.018,0.223,0c0.055-0.47,0.802-0.368,0.802-0.368c0.479,0.12,0.479,0.678,0.479,0.678h0.059l0.078-0.078V-2.13h0.264   l2.646-0.036v0.119L0.46-2.043c0,0,0.179-0.404,0.678-0.41C1.68-2.489,1.911-2.084,1.911-2.084h0.318c0,0,0.225-0.434,0.741-0.429   c0.489-0.051,0.756,0.4,0.756,0.4l0.157,0.006v-0.098h0.678l0.861,0.42c0,0,0,0,0,0.147C5.521-1.646,5.571-1.6,5.571-1.6   S5.604-0.3,5.571-0.18z M-4.358-0.629h-0.961c0,0,0.048,0.206,0.096,0.442C-4.614-0.139-4.22-0.229-4.22-0.229L-4.358-0.629z    M0.288,1.279L0.261,1.182V0.975H0.37V0.94h-0.854V0.663h0.039V0.629h-0.076l-0.015,0.436l-0.048,0.208l-0.021,0.421L-0.867,1.95   v0.11h0.056V1.99l0.09-0.047V1.99h0.027V1.887l0.118,0.021V1.95h0.056l0.055-0.056h0.215l0.58-0.325l0.104-0.29H0.288z M1.94,0.519   h0.229l0.124-0.083H1.94V0.519z M2.245,0.221L1.94,0.294v0.072h0.408L2.245,0.221z" fill="#FFFFFF"/>
  </g></svg>