<?xml version="1.0" standalone="no"?>
<svg xmlns="http://www.w3.org/2000/svg" viewBox="-6.37 -6.37 12.74 12.74" color="#212121" width="75" height="75"><g transform="matrix(1 0 0 -1 0 0)">
    <g xmlns="http://www.w3.org/2000/svg">
      <circle class="primary" fill="currentColor" cx="0" cy="0" r="6.245"/>
      <path class="secondary" d="M0,6.12c3.38,0,6.12-2.74,6.12-6.12S3.38-6.12,0-6.12S-6.12-3.38-6.12,0S-3.38,6.12,0,6.12 M0,6.37    c-3.513,0-6.37-2.857-6.37-6.37S-3.513-6.37,0-6.37S6.37-3.513,6.37,0S3.513,6.37,0,6.37L0,6.37z" fill="#FFFFFF"/>
    </g>
    <g xmlns="http://www.w3.org/2000/svg" id="Mortar_3_">
      <path class="secondary" d="M-1.02,1.093C-1.01,1.095-1,1.098-0.992,1.101C-0.999,1.098-1.007,1.095-1.02,1.093z" fill="#FFFFFF"/>
      <path class="secondary" d="M-1.048,1.085c0,0,0.012,0.003,0.022,0.006C-1.031,1.089-1.038,1.088-1.048,1.085z" fill="#FFFFFF"/>
      <path class="secondary" d="M4.823-2.727c-0.015,0-0.028-0.001-0.041-0.001L2.016-0.181L2.008-0.189L1.429,1.539l0.525,1.805    C1.97,3.401,1.97,3.457,1.956,3.509c0,0.002,0.086,0.325,0.102,0.374s0.129,0.115,0,0.195c0,0-0.105,0.097-0.156,0.064    C1.855,4.111,1.887,4.249,1.781,4.24c0,0-0.315,0.146-0.503-0.251c0,0-0.066-0.195-0.041-0.317c0,0-0.535-0.406-0.707-0.513    l0.049,0.213c0,0,0.366,0.251,0.244,0.689C0.703,4.493,0.449,4.815-0.2,5.004c-0.01,0.002-0.021,0.005-0.031,0.009    c0,0-0.302,0.146-0.885-0.398c0,0-0.196-0.146,0.015-0.643c0,0-0.121-0.3-0.301-0.349c0,0-0.788-0.195-0.917-0.382    c0,0-1.039-1.364-1.154-1.649C-3.586,1.31-3.676,1.194-3.676,1.194S-4.009,0.74-4.09,0.578c0,0-0.243,0.08-0.391,0.04    c0,0-0.017,0.206-0.195,0.216c-0.177,0.012-0.454-0.036-0.39-0.5c0,0-0.057-0.292,0.081-0.472c0,0,0.049-0.202,0.025-0.202    c-0.025,0-0.261-0.228,0.129-0.398c0,0,0.073-0.268,0.391-0.155l0.219,0.067c0,0,0.137-0.408,0.765-0.656    c-0.211,0.08-0.82,0.311-1.016,0.429c-0.244,0.146-0.439-0.211-0.455-0.293c-0.017-0.082-0.017-0.082-0.017-0.082    S-4.976-1.656-5.04-1.737c-0.066-0.08-0.294-0.551,0-0.909c0,0,0.21-0.212,0.406-0.064c0,0,0.082,0.163,0,0.228    c-0.082,0.064-0.082,0.064-0.082,0.064s0.179,0.227,0.43,0.275c0.253,0.049,0.529,0.131,0.691-0.032    c0.162-0.162,0.31-0.098,0.31-0.098s0.161-0.049,0.161-0.122c0-0.071-0.097-0.315-0.097-0.315s0.063-0.247,0.243-0.36h0.162    L-2.56-3.3c-0.05-0.068-0.078-0.141-0.078-0.216c0-0.442,0.95-0.804,2.121-0.804s2.119,0.361,2.119,0.804    c0,0.353-0.594,0.651-1.421,0.76l0.247,0.854L1.92-0.443L2.2-1.855c-0.153-0.017-0.265-0.07-0.265-0.132    c0-0.078,0.163-0.14,0.366-0.14c0.201,0,0.365,0.062,0.365,0.14c0,0.069-0.139,0.127-0.319,0.136l-0.28,1.425l2.529-2.329    C4.511-2.782,4.458-2.822,4.458-2.864c0-0.078,0.162-0.14,0.365-0.14c0.201,0,0.364,0.062,0.364,0.14    C5.188-2.789,5.024-2.727,4.823-2.727z M-0.185,1.982c0,0,0.162-0.016,0.666,0.391C0.984,2.778,1.22,3.038,1.22,3.038l0,0    L0.382,0.146c-0.103,0.19-0.246,0.469-0.258,0.521C0.108,0.749-0.168,1.155-0.281,1.269c0,0,0.05,0.195-0.081,0.309    c-0.131,0.113,0.02,0.242-0.087,0.324C-0.449,1.901-0.379,1.982-0.185,1.982z M-0.666,0.856c-0.007-0.002-0.013-0.003-0.02-0.005    C-0.677,0.854-0.673,0.854-0.666,0.856z M-1.402,0.438c0.033,0.115,0.422,0.359,0.357,0.585c0,0,0.017,0.179,0.179,0    c0.162-0.178,0.049-0.21,0.162-0.178C-0.698,0.849-0.693,0.849-0.69,0.85c-0.006-0.001-0.014-0.004-0.014-0.004    S-0.372,0.121,0.22-0.41L0.08-0.896L-0.314-1.12c0,0,0.212,0.504,0.064,0.666c-0.146,0.163-0.827,0.391-1.461,0.415    C-1.711-0.039-1.435,0.326-1.402,0.438z M-1.954-2.396c0.08,0.074,0.648,0.383,0.648,0.383s0.229,0.146,0.31,0.146    s0.292,0.323,0.373,0.389c0.08,0.066-0.21-1.169-0.21-1.169l-0.022-0.075c-0.339-0.021-0.652-0.071-0.919-0.146l-0.083,0.157    C-1.857-2.711-2.036-2.47-1.954-2.396z M1.356,1.292l0.525-1.568l-1.369-1.34L1.356,1.292z" fill="#FFFFFF"/>
    </g>
  </g></svg>