<?xml version="1.0" standalone="no"?>
<svg xmlns="http://www.w3.org/2000/svg" viewBox="-6.37 -9.955 12.74 19.394" color="#212121" width="75" height="75"><g transform="matrix(1 0 0 -1 0 0)">
    <g xmlns="http://www.w3.org/2000/svg">
      <path class="primary" fill="currentColor" d="M-4.486,9.355h1.417l0.856-2.945l0.924,2.945h1.377V5.306h-0.862v3.472l-1.103-3.472h-0.717l-1.081,3.472    V5.306h-0.812V9.355z"/>
      <path class="primary" fill="currentColor" d="M2.643,9.439c0.431,0,1.025-0.101,1.422-0.549c0.431-0.493,0.516-1.126,0.516-1.523    c0-0.588-0.179-1.215-0.51-1.585C3.623,5.278,2.968,5.206,2.631,5.206c-0.532,0-1.064,0.168-1.434,0.554    C0.755,6.23,0.7,6.902,0.7,7.272C0.7,8.347,1.187,9.439,2.643,9.439z M1.909,6.169C2.032,6.001,2.24,5.844,2.643,5.844    c0.353,0,0.594,0.123,0.756,0.375c0.134,0.201,0.274,0.515,0.274,1.159c0,0.195-0.017,0.476-0.101,0.722    c-0.168,0.499-0.51,0.717-0.924,0.717c-0.325,0-0.583-0.134-0.745-0.341c-0.229-0.28-0.296-0.717-0.296-1.177    C1.607,6.914,1.668,6.482,1.909,6.169z"/>
    </g>
    <g xmlns="http://www.w3.org/2000/svg">
      <circle class="primary" fill="currentColor" cx="0" cy="-3.585" r="6.245"/>
      <path class="secondary" d="M0,2.535c3.38,0,6.12-2.74,6.12-6.12S3.38-9.705,0-9.705s-6.12,2.74-6.12,6.12S-3.38,2.535,0,2.535 M0,2.785    c-3.513,0-6.37-2.858-6.37-6.37s2.858-6.37,6.37-6.37s6.37,2.858,6.37,6.37S3.513,2.785,0,2.785L0,2.785z" fill="#FFFFFF"/>
    </g>
    <g xmlns="http://www.w3.org/2000/svg">
      <path class="secondary" d="M-1.211-2.029c0.039,0.072,0.066,0.156,0.033,0.248C-1.184-1.859-1.219-1.947-1.211-2.029z" fill="#FFFFFF"/>
      <path class="secondary" d="M2.254-3.331c0.011,0.279-0.021,0.57-0.008,0.86c0.004,0.09,0.004,0.18,0,0.266    c-0.01,0.203-0.052,0.4-0.049,0.59c0,0.099-0.005,0.162-0.026,0.248C2.138-1.228,2.094-1.121,2.064-1.001    C2.039-0.904,2.012-0.783,2.015-0.704c-0.038,0.085-0.109,0.172-0.1,0.275C1.887-0.412,1.878-0.38,1.865-0.355    C1.753-0.128,1.566,0.013,1.328,0.102c-0.002,0.1,0.104,0.283,0.063,0.389C1.38,0.527,1.312,0.582,1.269,0.575    c-0.115-0.02-0.082-0.334-0.15-0.399C1.07,0.25,1.001,0.3,0.953,0.375C0.922,0.39,0.884,0.4,0.87,0.433    C0.845,0.444,0.796,0.431,0.787,0.458C0.766,0.52,0.814,0.579,0.819,0.64c0.082,0.029,0.145,0.024,0.233,0.043    C1.06,0.724,1.084,0.75,1.078,0.807c0.006,0.01,0.057,0.045,0.017,0.049c0.003-0.018-0.032-0.018-0.01-0.008    C1.07,0.893,1.121,0.931,1.135,0.989C1.159,1.09,1.129,1.204,1.126,1.287c-0.128,0.116-0.132,0.34-0.239,0.481    c-0.024,0.031-0.062,0.04-0.076,0.084c-0.149,0.11-0.313,0.235-0.58,0.224C0.011,2.065-0.137,1.95-0.248,1.852    C-0.389,1.7-0.422,1.444-0.457,1.187C-0.54,1.2-0.506,1.307-0.499,1.362c0.031,0.201,0.083,0.426,0.117,0.604    c-0.011,0.035-0.022,0.063-0.009,0.101C-0.448,2.07-0.45,2.128-0.506,2.124C-0.593,1.958-0.595,1.74-0.631,1.535    c-0.023-0.133-0.02-0.254-0.107-0.29C-0.755,1.089-0.793,0.923-0.82,0.756C-0.851,0.588-0.883,0.42-0.914,0.258    c-0.032-0.021-0.052-0.059-0.075-0.09C-1.035,0.15-1.075,0.129-1.13,0.117c-0.037-0.06-0.105-0.076-0.157-0.115    C-1.32-0.025-1.358-0.07-1.395-0.105c-0.036-0.037-0.082-0.078-0.107-0.116c-0.024-0.034-0.027-0.08-0.05-0.116    c-0.017-0.028-0.05-0.061-0.075-0.092C-1.68-0.497-1.731-0.55-1.783-0.612c-0.027-0.031-0.049-0.069-0.076-0.1    c-0.046-0.054-0.108-0.087-0.148-0.141c-0.022-0.027-0.03-0.062-0.051-0.091c-0.098-0.15-0.169-0.311-0.198-0.531    c0.091-0.094,0.178-0.251,0.281-0.323c0.057-0.039,0.196-0.1,0.266-0.107c0.134-0.019,0.229,0.046,0.35,0.082    c0.019,0.007,0.037,0.054,0.057,0.034c-0.017-0.16-0.048-0.307-0.065-0.465c-0.024-0.025-0.06-0.041-0.059-0.092    c0.015-0.031,0.026-0.015,0.032-0.05c-0.04-0.372-0.086-0.728-0.149-1.075c-0.062-0.351-0.139-0.692-0.166-1.046    c0.092-0.047,0.24-0.072,0.357-0.065c0.034,0.128,0.048,0.277,0.065,0.422C-1.29-4.127-1.252-4.136-1.253-4.102    c0,0.108,0.042,0.242,0.064,0.34c0.008,0.026-0.004,0.078,0.035,0.084c-0.012-0.06,0.044-0.12,0.05-0.168    c0.008-0.062-0.009-0.16-0.009-0.239c0-0.407-0.056-0.828-0.024-1.211c0.02-0.224,0.145-0.421,0.158-0.639    C-0.997-5.964-1.02-5.989-1.038-6.018c-0.094-0.017-0.172-0.069-0.183-0.15c-0.013-0.101,0.086-0.183,0.108-0.264    c-0.04-0.055-0.097-0.109-0.09-0.183c0-0.03,0.028-0.056,0.041-0.083c0.02-0.051,0.022-0.108,0.058-0.134    C-1.113-7.145-1.116-7.525-1.088-7.81c0.003-0.029,0.018-0.061,0.017-0.091c0-0.021-0.019-0.042-0.024-0.066    c-0.003-0.026,0.003-0.067,0-0.099C-1.1-8.14-1.113-8.204-1.121-8.232C-1.142-8.309-1.147-8.359-1.203-8.39    c0.017-0.042-0.031-0.08-0.032-0.125C-1.238-8.55-1.221-8.573-1.211-8.597c-0.037-0.069-0.164-0.194-0.175-0.29    c-0.001-0.025,0.019-0.062,0.018-0.101c-0.004-0.044-0.041-0.075-0.034-0.107c0.008-0.033,0.035-0.034,0.075-0.058    C-1.3-9.17-1.262-9.198-1.234-9.203c0.045-0.009,0.093,0.015,0.131-0.007c0.021,0.032,0.105,0.039,0.142,0.032    C-0.88-9.122-0.743-9.12-0.704-9.022c-0.004,0.047,0.004,0.093,0,0.143c0.031,0,0.021,0.032,0.033,0.05    c0.01,0.011,0.051,0.009,0.032,0.04c0.078,0.002,0.096,0.066,0.133,0.109c-0.056,0.146,0.004,0.249,0,0.365    c-0.006,0.101-0.051,0.202-0.042,0.298c0.005,0.054,0.044,0.102,0.025,0.158c0.044,0.054,0.037,0.162,0.109,0.191    c-0.043,0.006-0.019,0.024-0.019,0.049c0.01,0.128,0.067,0.259,0.109,0.391c0.04,0.128,0.089,0.255,0.098,0.396    c0.072,0.036,0.154,0.091,0.185,0.176c0.018,0.051,0.012,0.12,0.024,0.183c0.035,0.174,0.106,0.35,0.132,0.504    c-0.01,0.017-0.014,0.032-0.018,0.052C0.086-5.834,0.082-5.697,0.09-5.613c0.007,0.071,0.042,0.145,0.05,0.217    C0.16-5.22,0.111-5.051,0.149-4.882c0.013-0.103,0.024-0.192,0.049-0.29C0.22-5.258,0.27-5.338,0.281-5.438    c0.01-0.072-0.011-0.154-0.01-0.241c0.008-0.139,0.041-0.285,0.036-0.413c-0.009-0.188-0.006-0.345,0.18-0.34    c-0.024-0.045-0.046-0.061-0.041-0.11c0.013-0.083,0.146-0.075,0.175-0.141c-0.03-0.15,0.016-0.271,0.05-0.405    C0.694-7.184,0.714-7.281,0.738-7.37c0.046-0.186,0.125-0.353,0.174-0.515C0.857-7.942,0.931-7.988,0.936-8.059    C0.939-8.084,0.922-8.113,0.92-8.14C0.914-8.202,0.905-8.278,0.902-8.341C0.9-8.471,0.928-8.574,0.945-8.671    c0.002-0.017-0.01-0.027-0.009-0.041c0-0.011,0.015-0.024,0.017-0.034C0.956-8.766,0.949-8.8,0.969-8.814    c0.005-0.035,0.028-0.004,0.05-0.024c-0.012-0.095,0.049-0.194-0.008-0.24c0.028-0.024,0.034-0.071,0.051-0.107    c0.033-0.01,0.039-0.049,0.073-0.059c0.108-0.054,0.269-0.06,0.381-0.041c0.051,0.008,0.155,0.06,0.175,0.09    c0.041,0.06-0.003,0.149-0.008,0.19c-0.006,0.038,0.005,0.079,0,0.107C1.667-8.8,1.601-8.726,1.566-8.629    C1.57-8.591,1.595-8.55,1.591-8.515c-0.01,0.08-0.09,0.139-0.115,0.217C1.467-8.271,1.473-8.247,1.467-8.224    C1.46-8.198,1.44-8.176,1.432-8.149C1.421-8.1,1.431-8.045,1.409-7.983c0.044,0.041,0.022,0.096,0.023,0.15    C1.435-7.824,1.449-7.809,1.45-7.794c0.015,0.089,0.038,0.13,0.05,0.2c0.015,0.083,0.013,0.187,0.016,0.282    c0.007,0.189-0.008,0.359-0.024,0.514C1.496-6.777,1.536-6.79,1.525-6.756C1.53-6.717,1.478-6.735,1.492-6.69    C1.533-6.6,1.629-6.491,1.557-6.367c0.078,0.06,0.073,0.139,0.017,0.208C1.522-6.094,1.315-6.001,1.293-5.927    C1.284-5.896,1.298-5.844,1.301-5.803c0.004,0.107-0.017,0.265,0,0.365C1.312-5.366,1.347-5.304,1.35-5.24    c0.004,0.089-0.021,0.174-0.017,0.266c0.004,0.068,0.041,0.133,0.041,0.201c0.109-0.047,0.202,0.015,0.324-0.01    c0.044,0.039,0.093,0.08,0.133,0.132C1.863-4.61,1.93-4.534,1.939-4.493C1.944-4.476,1.93-4.447,1.93-4.427    c-0.003,0.172,0.011,0.344,0.051,0.49C2.078-3.944,2.162-3.891,2.23-3.846C2.187-3.662,2.247-3.502,2.254-3.331z M-1.211-2.029    c-0.008,0.082,0.027,0.17,0.033,0.248C-1.145-1.873-1.172-1.957-1.211-2.029z M-0.258,0.451c-0.016-0.002-0.018,0.008-0.031,0.007    C-0.391,0.401-0.517,0.37-0.598,0.291C-0.595,0.454-0.54,0.64-0.523,0.813c0.002-0.01,0.037-0.024,0.017-0.007    c0.049-0.004,0.061-0.115,0.141-0.117C-0.371,0.661-0.248,0.63-0.199,0.598c0.003-0.002,0.005-0.022,0.007-0.023    c0.003-0.002,0.041,0.002,0.034-0.033C-0.226,0.544-0.241,0.497-0.258,0.451z" fill="#FFFFFF"/>
    </g>
  </g></svg>