<?xml version="1.0" standalone="no"?>
<svg xmlns="http://www.w3.org/2000/svg" viewBox="-6.37 -6.37 12.74 12.74" color="#212121" width="75" height="75"><g transform="matrix(1 0 0 -1 0 0)">
    <g xmlns="http://www.w3.org/2000/svg">
      <circle class="primary" fill="currentColor" cx="0" cy="0" r="6.245"/>
      <path class="secondary" d="M0,6.12c3.38,0,6.12-2.74,6.12-6.12S3.38-6.12,0-6.12S-6.12-3.38-6.12,0S-3.38,6.12,0,6.12 M0,6.37    c-3.513,0-6.37-2.857-6.37-6.37S-3.513-6.37,0-6.37S6.37-3.513,6.37,0S3.513,6.37,0,6.37L0,6.37z" fill="#FFFFFF"/>
    </g>
    <polygon xmlns="http://www.w3.org/2000/svg" id="Mountain_Atyillery_1_" class="secondary" points="1.429,1.851 1.875,1.816 1.89,1.812 1.929,1.541 1.944,1.543 1.948,1.526    1.949,1.508 1.944,1.507 1.944,1.507 1.94,1.504 1.94,1.504 1.938,1.502 1.935,1.5 1.947,1.405 1.96,1.406 1.975,1.39 1.965,1.371    1.964,1.371 1.958,1.367 1.956,1.351 1.96,1.34 1.958,1.334 1.97,1.252 1.97,1.252 1.975,1.249 1.98,1.233 1.999,1.236    2.004,1.219 2.006,1.201 1.996,1.198 1.997,1.196 1.987,1.195 1.987,1.193 2.179,1.198 2.185,0.971 2.312,0.975 2.317,0.969    2.325,0.934 2.435,0.938 2.491,1.61 2.526,1.627 2.617,1.63 2.621,1.612 2.623,1.587 2.625,1.482 2.634,1.482 2.644,1.441    2.67,1.438 2.678,1.435 2.681,1.43 2.669,0.943 5.698,1.022 5.706,1.02 5.714,1.01 5.727,0.975 5.735,0.934 5.739,0.878    5.739,0.811 5.733,0.765 5.723,0.721 5.714,0.711 5.706,0.704 3.374,0.644 3.374,0.633 3.39,0.633 3.39,0.594 3.502,0.598    3.503,0.602 3.513,0.616 3.546,0.617 3.552,0.627 3.59,0.629 3.601,0.621 3.698,0.625 3.7,0.619 3.703,0.6 3.718,0.6 3.72,0.585    3.73,0.583 3.746,0.57 3.772,0.542 3.789,0.514 3.798,0.483 3.86,0.485 3.864,0.464 3.88,0.464 3.884,0.438 3.883,0.401    3.878,0.393 3.866,0.393 3.866,0.386 3.858,0.369 3.804,0.368 3.795,0.342 3.78,0.312 3.757,0.283 3.749,0.276 3.749,0.254    3.724,0.254 3.712,0.245 3.698,0.238 3.698,0.231 3.714,0.231 3.716,0.217 3.715,0.197 3.712,0.192 3.698,0.192 3.698,0.175    3.693,0.166 3.573,0.162 3.569,0.173 3.567,0.209 3.563,0.213 3.556,0.217 3.525,0.22 3.519,0.225 3.515,0.236 3.512,0.239    2.651,0.217 2.649,0.079 2.689,0.06 2.687,0.055 2.72,0.039 2.731,0.03 2.753,0.024 2.822,-0.024 2.819,-0.032 2.859,-0.066    2.881,-0.071 2.942,-0.131 2.935,-0.14 2.966,-0.176 2.972,-0.18 2.99,-0.186 3.044,-0.25 3.033,-0.263 3.06,-0.305 3.064,-0.31    3.083,-0.316 3.083,-0.316 3.086,-0.319 3.12,-0.321 3.15,-0.327 3.167,-0.342 3.171,-0.354 3.174,-0.367 3.169,-0.387 3.155,-0.4    3.133,-0.407 3.112,-0.409 3.12,-0.429 3.132,-0.449 3.152,-0.457 3.183,-0.535 3.163,-0.544 3.167,-0.566 3.178,-0.598    3.18,-0.601 3.2,-0.61 3.214,-0.664 3.218,-0.693 3.193,-0.696 3.196,-0.732 3.203,-0.757 3.225,-0.768 3.229,-0.803 3.228,-0.852    3.2,-0.851 3.198,-0.877 3.198,-0.911 3.203,-0.916 3.224,-0.926 3.222,-0.953 3.211,-1.01 3.182,-1.008 3.178,-1.033    3.175,-1.068 3.196,-1.082 3.194,-1.1 3.173,-1.161 3.146,-1.155 3.142,-1.158 3.138,-1.169 3.126,-1.207 3.124,-1.219    3.146,-1.233 3.107,-1.309 3.083,-1.297 3.064,-1.328 3.052,-1.357 3.054,-1.361 3.071,-1.373 3.064,-1.385 3.061,-1.391    3.024,-1.443 3.012,-1.435 3.009,-1.434 3.001,-1.43 2.993,-1.435 2.984,-1.445 2.96,-1.475 2.957,-1.484 2.976,-1.502    2.918,-1.563 2.914,-1.559 2.896,-1.548 2.878,-1.559 2.845,-1.592 2.86,-1.613 2.801,-1.662 2.793,-1.662 2.774,-1.648    2.742,-1.664 2.72,-1.681 2.731,-1.705 2.661,-1.745 2.655,-1.743 2.636,-1.729 2.604,-1.738 2.58,-1.751 2.59,-1.774    2.522,-1.802 2.508,-1.803 2.491,-1.786 2.472,-1.787 2.433,-1.798 2.436,-1.823 2.384,-1.835 2.354,-1.836 2.34,-1.82    2.333,-1.818 2.28,-1.822 2.279,-1.846 2.236,-1.85 2.192,-1.847 2.175,-1.828 2.121,-1.823 2.12,-1.844 2.094,-1.843    2.033,-1.832 2.021,-1.813 2.017,-1.812 1.968,-1.801 1.962,-1.818 1.956,-1.816 1.88,-1.793 1.866,-1.772 1.829,-1.757    1.817,-1.755 1.81,-1.769 1.733,-1.729 1.724,-1.711 1.72,-1.708 1.677,-1.686 1.669,-1.694 1.6,-1.644 1.586,-1.623 1.549,-1.596    1.548,-1.595 1.542,-1.598 1.48,-1.539 1.472,-1.522 1.449,-1.502 1.435,-1.482 1.431,-1.484 1.379,-1.417 1.341,-1.355    1.298,-1.281 1.284,-1.257 1.284,-1.255 1.282,-1.252 1.282,-1.25 1.28,-1.247 1.279,-1.246 1.278,-1.244 1.265,-1.205    1.263,-1.201 1.262,-1.2 1.248,-1.173 1.226,-1.116 1.191,-1.074 1.187,-1.064 1.176,-1.053 1.159,-1.022 1.124,-0.962    1.113,-0.941 1.112,-0.94 1.111,-0.938 1.11,-0.937 1.11,-0.937 1.1,-0.905 1.099,-0.903 1.098,-0.901 1.097,-0.898 1.096,-0.897    1.085,-0.878 1.064,-0.82 1.063,-0.819 1.062,-0.816 1.065,-0.815 1.063,-0.803 -0.534,-1.111 -0.534,-1.135 -1.3,-1.205    -1.664,-1.219 -1.664,-1.239 -1.826,-1.246 -1.833,-1.244 -1.873,-1.205 -4.501,-1.309 -4.526,-1.327 -4.526,-1.356 -4.63,-1.441    -4.808,-1.484 -4.85,-1.452 -4.812,-1.393 -4.823,-1.367 -4.823,-1.366 -5.459,-1.761 -5.479,-1.785 -5.479,-1.787 -5.483,-1.79    -5.487,-1.796 -5.49,-1.8 -5.545,-1.765 -5.509,-1.711 -5.518,-1.443 -5.558,-1.433 -5.671,-1.437 -5.676,-1.303 -5.608,-1.243    -5.729,-1.246 -5.735,-1.221 -5.738,-1.159 -5.737,-1.102 -5.733,-1.08 -5.435,-1.067 -5.448,-1.058 -5.459,-1.038 -5.466,-1.008    -5.462,-0.983 -5.452,-0.96 -5.437,-0.943 -5.428,-0.935 -5.427,-0.935 -5.421,-0.933 -5.42,-0.932 -5.419,-0.931 -5.417,-0.928    -5.415,-0.928 -5.414,-0.927 -5.409,-0.926 -5.404,-0.922 -5.375,-0.918 -5.348,-0.922 -5.325,-0.933 -5.308,-0.949 -5.295,-0.97    -5.29,-0.994 -5.292,-1 -5.292,-1 -5.295,-1.022 -5.289,-1.019 -5.276,-1.012 -5.204,-1.007 -5.204,-0.969 -5.199,-0.938    -5.185,-0.908 -5.157,-0.882 -5.13,-0.866 -5.116,-0.86 -5.087,-0.855 -5.054,-0.861 -5.026,-0.874 -5.005,-0.894 -4.961,-0.894    -4.952,-0.885 -4.991,-0.885 -4.999,-0.871 -5.003,-0.851 -5.003,-0.839 -5.003,-0.839 -5.06,-0.845 -5.153,-0.85 -5.289,-0.849    -5.31,-0.844 -5.318,-0.838 -5.329,-0.824 -5.332,-0.811 -5.332,-0.803 -5.321,-0.781 -5.306,-0.772 -5.289,-0.768 -5.196,-0.76    -5.126,-0.757 -4.999,-0.757 -4.978,-0.759 -4.965,-0.766 -4.937,-0.766 -4.936,-0.754 -4.934,-0.751 -4.931,-0.734 -4.919,-0.709    -4.909,-0.693 -4.896,-0.687 -4.683,-0.683 -4.673,-0.685 -4.659,-0.691 -4.65,-0.709 -4.64,-0.738 -4.609,-0.738 -4.601,-0.74    -4.596,-0.746 -4.595,-0.751 -4.592,-0.757 -4.585,-0.789 -4.589,-0.819 -4.56,-0.816 -4.56,-0.78 -4.557,-0.755 -4.546,-0.729    -4.527,-0.709 -4.505,-0.695 -4.474,-0.689 -4.448,-0.685 -4.417,-0.688 -4.392,-0.701 -4.372,-0.721 -4.36,-0.746 -4.354,-0.721    -4.331,-0.693 -4.294,-0.677 -3.82,-0.644 -3.784,-0.65 -3.751,-0.677 -3.741,-0.715 -3.731,-0.82 -1.752,-0.683 -1.739,-0.682    -1.738,-0.667 -1.677,-0.653 -1.091,-0.629 -0.493,-0.596 -0.489,-0.614 -0.487,-0.614 -0.143,-0.556 -0.146,-0.523 -0.143,-0.522    -0.14,-0.521 -0.138,-0.521 -0.129,-0.517 -0.095,-0.512 -0.103,-0.472 -0.105,-0.448 -0.103,-0.43 -0.092,-0.412 -0.088,-0.396    -0.081,-0.382 -0.071,-0.375 -0.069,-0.373 -0.06,-0.362 -0.043,-0.351 -0.022,-0.345 -0.005,-0.339 0.016,-0.338 0.031,-0.342    0.048,-0.349 0.067,-0.366 0.078,-0.382 0.081,-0.395 0.099,-0.479 0.166,-0.468 0.169,-0.468 0.174,-0.468 0.179,-0.504    0.453,-0.454 1.058,-0.348 1.072,-0.307 1.077,-0.309 1.085,-0.291 1.085,-0.29 1.087,-0.288 1.087,-0.285 1.088,-0.282    1.089,-0.28 1.089,-0.277 1.091,-0.275 1.099,-0.252 1.093,-0.246 1.125,-0.187 1.128,-0.188 1.129,-0.188 1.133,-0.187    1.145,-0.163 1.145,-0.162 1.146,-0.16 1.146,-0.159 1.147,-0.158 1.152,-0.146 1.158,-0.14 1.154,-0.131 1.182,-0.093    1.179,0.061 0.956,0.096 0.889,0.121 0.924,0.172 0.863,0.172 0.862,0.15 0.757,0.147 0.75,0.144 0.726,0.141 0.662,0.142    0.627,0.145 0.616,0.145 0.646,-0.045 0.641,-0.072 0.622,-0.1 0.601,-0.116 0.593,-0.118 0.567,-0.123 0.541,-0.117 0.518,-0.1    0.501,-0.071 0.417,0.094 0.149,-0.169 0.14,-0.184 0.131,-0.188 0.11,-0.193 0.091,-0.188 0.076,-0.172 0.072,-0.154    0.075,-0.134 0.076,-0.13 0.095,-0.067 0.072,-0.083 0.057,-0.088 0.036,-0.087 0.016,-0.073 0.009,-0.056 0.012,-0.034    0.024,-0.017 0.026,-0.015 0.029,-0.012 0.032,-0.012 0.036,-0.008 0.038,-0.005 0.042,-0.003 0.045,-0.001 0.048,0.001    0.052,0.003 0.054,0.005 0.058,0.008 0.061,0.011 0.063,0.013 0.067,0.016 0.07,0.017 0.072,0.019 0.075,0.021 0.078,0.024    0.081,0.026 0.086,0.028 0.089,0.03 0.091,0.032 0.095,0.035 0.097,0.037 0.101,0.041 0.104,0.043 0.106,0.045 0.11,0.047    0.113,0.049 0.116,0.051 0.119,0.054 0.122,0.056 0.126,0.058 0.128,0.06 0.13,0.062 0.146,0.119 0.143,0.179 -0.036,0.175    -0.043,0.173 -0.068,0.173 -0.074,0.173 -0.098,0.173 -0.104,0.172 -0.128,0.172 -0.135,0.172 -0.16,0.172 -0.167,0.17    -0.189,0.17 -0.198,0.17 -0.22,0.17 -0.228,0.168 -0.251,0.168 -0.259,0.167 -0.281,0.167 -0.289,0.166 -0.313,0.166 -0.321,0.166    -0.345,0.166 -0.352,0.165 -0.375,0.165 -0.382,0.164 -0.454,0.105 -0.905,-0.123 -0.935,-0.133 -0.968,-0.129 -0.994,-0.114    -1.014,-0.089 -1.022,-0.057 -1.019,-0.027 -1.003,-0.001 -0.976,0.021 -0.733,0.156 -0.841,0.154 -0.849,0.156 -0.862,0.162    -0.872,0.177 -0.878,0.204 -0.891,0.698 -0.889,0.713 -0.882,0.724 -0.878,0.729 -0.865,0.732 -0.865,0.765 -0.78,0.766    -0.784,0.799 -0.931,0.973 -0.935,0.979 -0.938,0.984 -0.941,0.987 -0.953,1.023 -0.949,1.053 -0.934,1.082 -0.906,1.104    -0.872,1.112 -0.841,1.108 -0.812,1.092 -0.805,1.085 -0.775,1.052 -0.774,1.052 -0.751,1.061 -0.707,1.045 -0.698,1.026    -0.698,1.026 -0.697,1.024 -0.694,1.02 -0.694,1.017 -0.694,1.016 -0.691,1.012 -0.69,1.01 -0.689,1.01 -0.689,1.004 -0.688,1.004    -0.702,0.965 -0.644,0.896 -0.646,1.015 -0.255,1.024 -0.255,1.067 -0.263,1.309 -0.257,1.312 -0.234,1.313 -0.214,1.313    -0.183,1.313 -0.179,1.069 -0.175,1.068 -0.174,1.029 -0.175,1.028 -0.173,1.026 -0.079,1.029 -0.085,1.263 0.036,1.266    0.038,1.261 0.036,1.238 0.038,1.23 0.038,1.214 0.038,1.203 0.038,1.184 0.04,1.14 0.063,1.14 0.106,1.14 0.107,1.079    0.119,1.079 0.12,1.056 0.12,1.033 0.124,1.023 0.126,0.936 0.21,0.938 0.223,0.975 0.384,0.979 0.38,0.943 0.411,0.945    0.419,0.99 0.426,1.006 0.439,1.016 0.466,1.015 0.631,0.98 0.675,1.026 0.707,1.053 0.757,1.083 0.789,1.099 0.827,1.112    0.863,1.123 0.926,1.131 0.968,1.132 1.038,1.124 1.006,0.965 1.027,0.959 1.069,0.961 1.097,1.212 1.146,1.622 1.154,1.625    1.314,1.64 1.339,1.849  " fill="#FFFFFF"/>
  </g></svg>