<?xml version="1.0" standalone="no"?>
<svg xmlns="http://www.w3.org/2000/svg" viewBox="-6.37 -6.37 12.74 12.74" color="#212121" width="75" height="75"><g transform="matrix(1 0 0 -1 0 0)">
    <g xmlns="http://www.w3.org/2000/svg">
      <circle class="primary" fill="currentColor" cx="0" cy="0" r="6.245"/>
      <path class="secondary" d="M0,6.12c3.38,0,6.12-2.74,6.12-6.12S3.38-6.12,0-6.12S-6.12-3.38-6.12,0S-3.38,6.12,0,6.12 M0,6.37    c-3.513,0-6.37-2.857-6.37-6.37S-3.513-6.37,0-6.37S6.37-3.513,6.37,0S3.513,6.37,0,6.37L0,6.37z" fill="#FFFFFF"/>
    </g>
    <path xmlns="http://www.w3.org/2000/svg" id="Multiple_Rocket_Launcher_1_" class="secondary" d="M5.203-0.755C5.147-0.872,5.096-1,5.046-1.138   c0.005-0.05,0.016-0.108,0.032-0.175C5.096-1.378,5.109-1.437,5.12-1.486C5.097-1.559,5.066-1.6,5.027-1.611   C4.996-1.594,4.942-1.572,4.871-1.545l-0.707-1.32C3.777-2.66,3.199-2.359,2.43-1.96C2.185-2.336,2.063-2.577,2.063-2.683   c0.018-0.1,0.042-0.19,0.075-0.274C2.144-3.018,2.175-3.078,2.229-3.14l0.648-0.024l-4.602,0.041   c-0.026,0.007-0.061,0.02-0.099,0.042l0.779-0.008c0.106,0,0.375,0.451,0.807,1.356c-0.078,0.045-0.488,0.265-1.229,0.658   c0.089,0.261,0.276,0.541,0.564,0.841c-0.06,0.045-0.347,0.2-0.858,0.466C-2.508,0.618-3.265,1.007-4.03,1.398   C-4.047,1.386-4.068,1.377-4.096,1.37c-0.084,0-0.158,0.059-0.225,0.176c-0.011,0.016-0.16,0.096-0.449,0.243   s-0.434,0.232-0.434,0.254c0.028,0.065,0.086,0.18,0.175,0.341c0.15,0.265,0.257,0.464,0.323,0.594s0.111,0.192,0.134,0.187   l0.881-0.439c0.016,0.005,0.04,0.01,0.074,0.016c0.11-0.055,0.174-0.104,0.19-0.148c0.189-0.105,0.516-0.28,0.98-0.523   C-1.721,1.686-1.305,1.476-1.2,1.437c0.017,0.012,0.042,0.02,0.074,0.024c0.046,0,0.079-0.008,0.101-0.024l0.084,0.083l0.646-0.308   c0.1,0.205,0.238,0.427,0.415,0.665l0.591-0.275c-0.039,0,0.047,0,0.256,0c0.018,0,0.035,0.02,0.051,0.056   c0.017,0.036,0.033,0.054,0.05,0.054c0.083,0,0.419-0.186,1.005-0.557C2.066,1.138,2.06,1.12,2.051,1.101   C2.043,1.08,2.036,1.062,2.031,1.046c0-0.104,0.203-0.268,0.614-0.489c0.276-0.148,0.556-0.3,0.839-0.449L3.052-0.747   c0.062-0.072,0.259-0.178,0.59-0.316c0.051,0.033,0.083,0.072,0.1,0.116c-0.028,0.022-0.09,0.058-0.183,0.108   C3.57-0.812,3.694-0.717,3.933-0.557c0.01,0.006,0.046,0.07,0.107,0.192c0.062,0.122,0.105,0.183,0.133,0.183   C4.627-0.409,4.971-0.602,5.203-0.755z" fill="#FFFFFF"/>
  </g></svg>