<?xml version="1.0" standalone="no"?>
<svg xmlns="http://www.w3.org/2000/svg" viewBox="-6.42 -1.687 12.841 3.373" color="#212121" width="75" height="75"><g transform="matrix(1 0 0 -1 0 0)">
    <path xmlns="http://www.w3.org/2000/svg" class="primary" fill="currentColor" d="M-4.732,1.687c-0.93,0-1.688-0.759-1.688-1.686c0-0.929,0.758-1.687,1.688-1.687   c0.927,0,1.685,0.759,1.685,1.687C-3.048,0.928-3.806,1.687-4.732,1.687z"/>
    <path xmlns="http://www.w3.org/2000/svg" class="primary" fill="currentColor" d="M0.001,1.687c-0.93,0-1.687-0.759-1.687-1.686c0-0.929,0.757-1.687,1.687-1.687   c0.928,0,1.686,0.759,1.686,1.687C1.687,0.928,0.929,1.687,0.001,1.687z"/>
    <path xmlns="http://www.w3.org/2000/svg" class="primary" fill="currentColor" d="M4.734,1.687c-0.928,0-1.687-0.759-1.687-1.686c0-0.929,0.759-1.687,1.687-1.687   c0.928,0,1.687,0.759,1.687,1.687C6.421,0.928,5.662,1.687,4.734,1.687z"/>
  </g></svg>