<?xml version="1.0" standalone="no"?>
<svg xmlns="http://www.w3.org/2000/svg" viewBox="-6.37 -9.968 12.74 19.337" color="#212121" width="75" height="75"><g transform="matrix(1 0 0 -1 0 0)">
    <g xmlns="http://www.w3.org/2000/svg">
      <path class="primary" fill="currentColor" d="M-1.531,9.368H0.02c0.448,0.006,0.901,0.006,1.227-0.274c0.252-0.219,0.353-0.516,0.353-0.778    c0-0.756-0.649-0.936-0.846-0.991c0.61-0.056,0.655-0.403,0.728-0.93C1.543,5.919,1.577,5.722,1.605,5.61    c0.044-0.179,0.078-0.224,0.123-0.291H0.771C0.731,5.543,0.608,6.568,0.552,6.724C0.474,6.954,0.261,6.954,0.115,6.954h-0.762    V5.319h-0.885V9.368z M-0.674,7.598h0.7c0.101,0,0.303,0,0.442,0.112C0.53,7.755,0.692,7.895,0.692,8.18    c0,0.274-0.134,0.403-0.213,0.454C0.345,8.729,0.183,8.729-0.092,8.729h-0.583V7.598z"/>
    </g>
    <g xmlns="http://www.w3.org/2000/svg">
      <circle class="primary" fill="currentColor" cx="0" cy="-3.598" r="6.245"/>
      <path class="secondary" d="M0,2.522c3.38,0,6.12-2.74,6.12-6.12S3.38-9.718,0-9.718s-6.12,2.74-6.12,6.12S-3.38,2.522,0,2.522 M0,2.772    c-3.513,0-6.37-2.858-6.37-6.37s2.858-6.37,6.37-6.37s6.37,2.858,6.37,6.37S3.513,2.772,0,2.772L0,2.772z" fill="#FFFFFF"/>
    </g>
    <g xmlns="http://www.w3.org/2000/svg">
      <path class="secondary" d="M3.007,0.815C3.004,0.857,3.095,0.873,3.073,0.924c-0.042-0.015-0.058,0.002-0.02,0.022    c-0.033,0.048-0.069-0.024-0.1-0.044C2.904,0.909,2.881,0.893,2.865,0.869c-0.044,0.006-0.06,0.043-0.1,0.056    c-0.03-0.017-0.068-0.026-0.077-0.067C2.649,0.888,2.593,0.856,2.58,0.825C2.573,0.751,2.636,0.748,2.645,0.693    C2.52,0.567,2.393,0.439,2.25,0.331C2.227,0.314,2.207,0.289,2.183,0.276c-0.021-0.013-0.05-0.007-0.075-0.022    C2.013,0.199,1.934,0.095,1.844,0.013C1.585-0.223,1.306-0.451,1.055-0.701C0.99-0.681,0.952-0.678,0.911-0.723    C0.608-0.265,0.586,0.472-0.044,0.606C-0.052,0.651-0.01,0.718,0.022,0.759c0.033,0.018,0.086,0.017,0.1,0.056    C0.1,0.941,0.036,1.023-0.011,1.122c0.086,0.081,0.35,0.15,0.308,0.297C0.275,1.491,0.2,1.498,0.11,1.528    c-0.162,0.208-0.255,0.461-0.539,0.55c-0.617,0.188-1.32-0.315-1.098-0.999c-0.019-0.034-0.085-0.02-0.109-0.045    c-0.068,0.158-0.194,0.18-0.362,0.088C-2.065,1.085-2.125,1.018-2.163,0.99c-0.074,0.048-0.155-0.037-0.275-0.011    C-2.494,1.006-2.501,1.084-2.57,1.1c-0.042-0.012-0.065-0.043-0.075-0.088C-2.68,1.043-2.704,0.996-2.734,0.99    c-0.045-0.035,0-0.154-0.011-0.219c-0.014-0.09-0.131-0.185-0.196-0.308c-0.055-0.101-0.105-0.25-0.121-0.374    c-0.007-0.05-0.017-0.099-0.012-0.143c0.004-0.035,0.03-0.057,0.044-0.1c0.014-0.044,0.007-0.102,0.022-0.13    c0.058-0.115,0.187-0.07,0.34-0.122C-2.695-0.599-2.75-0.791-2.701-1.008c0.006-0.022,0.029-0.05,0.033-0.077    c0.018-0.159-0.063-0.324,0.012-0.472C-2.69-1.644-2.69-1.747-2.712-1.843C-2.727-1.9-2.752-1.94-2.745-1.995    c0.017-0.123,0.143-0.174,0.188-0.274c-0.018-0.105-0.018-0.228-0.021-0.34c-0.029-0.02-0.098,0-0.144-0.023    c-0.023-0.033-0.021-0.105,0.011-0.143c0.155-0.025,0.386-0.02,0.516-0.032c0.015-0.072,0.021-0.22,0.088-0.297    c0.05,0.005,0.176-0.052,0.199-0.109c0.01-0.03,0.001-0.054,0.043-0.033C-1.881-3.338-1.822-3.384-1.8-3.467    c0.037-0.134,0.043-0.29,0.056-0.427C-1.75-3.93-1.715-3.924-1.712-3.949c-0.013-0.04-0.03-0.036-0.032-0.066    c0.023-0.186,0.051-0.367,0.119-0.505c-0.012-0.077,0.018-0.162-0.032-0.23c0.006-0.151,0.023-0.343,0.032-0.495    c0.008-0.092,0.003-0.164-0.065-0.197c-0.033-0.012-0.02,0.025-0.021,0.046c-0.081-0.171-0.144-0.355-0.196-0.55    c0.001-0.024-0.039-0.006-0.057-0.012c-0.025-0.092-0.08-0.163-0.089-0.276C-2.068-6.401-1.99-6.627-2.097-6.729    c0.053-0.291,0.008-0.549,0.021-0.802c0.001-0.021,0.019-0.053,0.022-0.075c0.016-0.133-0.021-0.258,0.032-0.384    C-2.079-8.127-2.05-8.327-2.131-8.42c0.064-0.148,0.023-0.326,0.033-0.526c0.115-0.082,0.258-0.037,0.372-0.043    c0.023,0.026,0.113,0.061,0.153,0.108C-1.558-8.863-1.556-8.83-1.54-8.803c0.008,0.008,0.027,0.013,0.033,0.021    c0.008,0.013,0.002,0.036,0.012,0.045c0.123,0.124,0.45,0.095,0.461,0.34c0.006,0.139-0.158,0.335-0.352,0.241    C-1.403-8.095-1.424-8.04-1.463-8.002C-1.466-7.834-1.366-7.67-1.319-7.508c0.064,0.219,0.121,0.479,0.199,0.704    c-0.021,0.039,0.006,0.058,0,0.108c0.128-0.012,0.224-0.019,0.274,0.078c-0.017-0.091,0.031-0.116,0.077-0.143    C-0.782-6.895-0.755-6.99-0.693-7.046c0.037-0.236,0.094-0.436,0.176-0.637c0.035-0.084,0.106-0.192,0.144-0.296    c0.01-0.024,0.002-0.06,0.011-0.09c0.007-0.023,0.027-0.043,0.033-0.063C-0.307-8.227-0.304-8.33-0.296-8.43    c0.002-0.044,0.022-0.096,0.022-0.143c-0.003-0.092-0.052-0.181-0.045-0.274c0.002-0.03,0.025-0.047,0.032-0.076    c0.021-0.1-0.032-0.211-0.01-0.33c0.212-0.132,0.448-0.01,0.668,0.012C0.39-9.229,0.404-9.214,0.417-9.198    C0.495-9.201,0.566-9.121,0.67-9.154c0.009,0.041,0.067,0.023,0.097,0.033c0.025,0.008,0.048,0.034,0.077,0.043    c0.061,0.02,0.129,0.017,0.176,0.044c0.018,0.009,0.031,0.037,0.055,0.056c0.086,0.062,0.177,0.133,0.133,0.296    C1.128-8.609,1.116-8.52,0.999-8.506C0.901-8.495,0.805-8.572,0.714-8.562C0.69-8.559,0.616-8.521,0.593-8.506    C0.566-8.49,0.533-8.463,0.505-8.441c-0.09,0.07-0.127,0.147-0.175,0.264c-0.017,0.266,0.015,0.555,0,0.868    C0.323-7.191,0.279-7.056,0.297-6.97c0.019,0.095,0.201,0.202,0.075,0.374c0.045-0.001,0.092-0.003,0.121,0.011    c0.073,0.139-0.01,0.301-0.021,0.472c-0.018,0.262,0.022,0.548,0,0.813c-0.01,0.123-0.004,0.305,0,0.461    C0.477-4.65,0.459-4.463,0.45-4.279C0.436-3.964,0.379-3.618,0.56-3.445c0.008,0.12,0.062,0.193,0.154,0.231    c0.008,0.068,0.08,0.105,0.108,0.164c0.045,0.087,0.062,0.206,0.111,0.308c0.048,0.1,0.084,0.155,0.108,0.296    c0.081,0.444,0.322,0.859,0.417,1.283C1.461-1.118,1.51-1.125,1.524-1.097c0.021,0.124-0.026,0.2,0.022,0.297    C1.53-0.772,1.524-0.733,1.513-0.7C1.53-0.681,1.564-0.685,1.581-0.669C1.805-0.433,2.06-0.232,2.283,0.002    C2.303-0.009,2.311-0.03,2.349-0.02c0.006,0.067,0.003,0.095,0.054,0.133c0.025-0.01-0.031-0.097,0.033-0.09    C2.487,0.062,2.468,0.14,2.47,0.188c0.039,0.064,0.115,0.09,0.154,0.154c0.057-0.023,0.077,0.006,0.109,0.032    c0.022,0.023,0.003,0.031-0.011,0.045c0.111,0.112,0.236,0.209,0.352,0.318C3.076,0.795,3.011,0.777,3.007,0.815z M-2.238-2.623    c0.008,0.034-0.025,0.112,0.021,0.109c0.021-0.043,0.096-0.035,0.121-0.075C-2.146-2.61-2.167-2.595-2.238-2.623z M0.602-3.084    c0.007,0.002,0.014,0.005,0.019,0.008C0.616-3.079,0.609-3.082,0.602-3.084z M0.614-2.765C0.599-2.789,0.588-2.752,0.581-2.776    c0-0.009,0.006-0.062-0.043-0.087c-0.022,0.03,0.042,0.056,0.021,0.12C0.528-2.711,0.472-2.706,0.405-2.71    C0.39-2.711,0.363-2.761,0.351-2.732C0.378-2.71,0.331-2.729,0.33-2.743C0.318-2.704,0.292-2.669,0.285-2.655    c0-0.012-0.015-0.009-0.012,0.012c0.009,0.025,0.053-0.029,0.067,0C0.32-2.61,0.33-2.601,0.318-2.578    C0.306-2.589,0.314-2.618,0.285-2.61C0.306-2.558,0.36-2.54,0.384-2.49C0.378-2.519,0.365-2.533,0.405-2.534    c0.117,0.069,0.113,0.327,0.121,0.438C0.525-2.12,0.566-2.1,0.581-2.108c0.07,0.023,0.156,0.062,0.232,0.077    c0.015,0.004,0.04-0.005,0.054,0c0.026,0.01,0.051,0.046,0.075,0.055C0.933-1.982,1.02-1.998,0.999-1.996    C0.882-2.263,0.727-2.493,0.614-2.765z M2.92,0.825c0.009,0.01,0.035,0.059,0.056,0.023C2.953,0.849,2.927,0.8,2.92,0.825z     M2.975,0.738C2.994,0.737,3.013,0.793,3.03,0.759C3.01,0.76,2.993,0.704,2.975,0.738z" fill="#FFFFFF"/>
    </g>
  </g></svg>