<?xml version="1.0" standalone="no"?>
<svg xmlns="http://www.w3.org/2000/svg" viewBox="-4.053 -1.687 8.106 3.373" color="#212121" width="75" height="75"><g transform="matrix(1 0 0 -1 0 0)">
    <path xmlns="http://www.w3.org/2000/svg" class="primary" fill="currentColor" d="M-2.365,1.687c-0.93,0-1.688-0.759-1.688-1.686c0-0.929,0.758-1.687,1.688-1.687   c0.927,0,1.685,0.759,1.685,1.687C-0.681,0.928-1.438,1.687-2.365,1.687z"/>
    <path xmlns="http://www.w3.org/2000/svg" class="primary" fill="currentColor" d="M2.368,1.687c-0.93,0-1.687-0.759-1.687-1.686c0-0.929,0.757-1.687,1.687-1.687   c0.928,0,1.686,0.759,1.686,1.687C4.054,0.928,3.296,1.687,2.368,1.687z"/>
  </g></svg>