<?xml version="1.0" standalone="no"?>
<svg xmlns="http://www.w3.org/2000/svg" viewBox="-6.37 -6.37 12.74 12.74" color="#212121" width="75" height="75"><g transform="matrix(1 0 0 -1 0 0)">
    <g xmlns="http://www.w3.org/2000/svg">
      <circle class="primary" fill="currentColor" cx="0" cy="0" r="6.245"/>
      <path class="secondary" d="M0,6.12c3.38,0,6.12-2.74,6.12-6.12S3.38-6.12,0-6.12S-6.12-3.38-6.12,0S-3.38,6.12,0,6.12 M0,6.37    c-3.513,0-6.37-2.857-6.37-6.37S-3.513-6.37,0-6.37S6.37-3.513,6.37,0S3.513,6.37,0,6.37L0,6.37z" fill="#FFFFFF"/>
    </g>
    <path xmlns="http://www.w3.org/2000/svg" id="Signals_1_" class="secondary" d="M1.616,1.561l1.727-1.728L5.26,1.749L3.536,3.475L3.57,3.508L3.364,3.714l-3.387-3.376   l-3.281,3.283l-0.207-0.206l0.006-0.006l-1.754-1.755l1.914-1.914l1.754,1.755l1.362-1.362l-3.583-3.571l0.206-0.206l3.583,3.571   l3.641-3.641l0.205,0.206l-3.64,3.641L1.616,1.561z M-3.345,0.152l-1.502,1.502l1.503,1.504l1.502-1.502L-3.345,0.152z" fill="#FFFFFF"/>
  </g></svg>