<?xml version="1.0" standalone="no"?>
<svg xmlns="http://www.w3.org/2000/svg" viewBox="-6.37 -6.37 12.74 12.74" color="#212121" width="75" height="75"><g transform="matrix(1 0 0 -1 0 0)">
    <g xmlns="http://www.w3.org/2000/svg">
      <circle class="primary" fill="currentColor" cx="0" cy="0" r="6.245"/>
      <path class="secondary" d="M0,6.12c3.38,0,6.12-2.74,6.12-6.12S3.38-6.12,0-6.12S-6.12-3.38-6.12,0S-3.38,6.12,0,6.12 M0,6.37    c-3.513,0-6.37-2.857-6.37-6.37S-3.513-6.37,0-6.37S6.37-3.513,6.37,0S3.513,6.37,0,6.37L0,6.37z" fill="#FFFFFF"/>
    </g>
    <path xmlns="http://www.w3.org/2000/svg" id="Sniper_1_" class="secondary" d="M2.284,0.826L2.433,0.93l0.023,0.016L2.445,0.992l0.086,0.121L2.496,1.172   c0,0,0.117,0.098,0.117,0.167c0,0.069-0.26,0.248-0.278,0.248c-0.018,0-0.097-0.069-0.097-0.069S1.993,1.691,1.865,1.691   C1.74,1.691,1.4,1.72,1.244,1.597C1.09,1.475,1.009,0.992,1.069,0.883c0,0-0.389-0.065-0.486-0.119   C0.485,0.711,0.109,0.466,0.09,0.454C0.069,0.441-0.066,0.271-0.083,0.217c-0.016-0.054-0.149-0.372-0.383-0.285   c0,0-0.277-0.021-0.29-0.021c-0.012,0-0.245-0.028-0.294-0.035c-0.05-0.01-0.412-0.188-0.421-0.201   C-1.479-0.338-1.548-0.37-1.548-0.383c0-0.012-0.045-0.058-0.045-0.058s-0.139-0.098-0.417-0.04s-0.613,0.086-0.674,0.077   c-0.062-0.007-0.389-0.049-0.408-0.049c-0.02,0-0.176-0.049-0.221-0.049s-0.139,0-0.167,0c-0.03,0-0.114,0-0.114,0l-0.05,0.033   l-0.089,0.037l-0.05,0.021c0,0-0.135,0.007-0.172-0.046c0,0-0.081,0.004-0.102,0.004c-0.021,0-0.069,0-0.069,0L-4.17-0.51   l-0.062,0.017L-4.51-0.571l-0.023-0.086l-0.09-0.008c0,0-0.041-0.041-0.095-0.045c-0.053-0.004-0.4,0.004-0.411,0.004   c-0.014,0-0.119,0.049-0.119,0.049l-0.069-0.017l-0.151-0.007L-5.616-0.66c0,0-0.159,0.027-0.175-0.205c0,0-0.018-0.274,0-0.311   c0.016-0.036,0.053-0.105,0.188-0.082c0.135,0.025,0.298,0.046,0.311,0.046c0.012,0,0.098,0.04,0.098,0.04s0.348,0.045,0.4,0.049   c0.053,0.005,0.164,0.029,0.175,0.029c0.013,0,0.177-0.013,0.177-0.013s0.053-0.089,0.089-0.105   c0.037-0.017,0.139-0.037,0.139-0.037h0.104l0.077-0.012l0.784-0.046l0.546-0.012l0.458-0.037c0,0,0.197-0.004,0.299-0.004   s0.756,0.008,0.821-0.008c0.064-0.017,0.289-0.017,0.31-0.017s0.081-0.004,0.081-0.004l0.405-0.05l0.184,0.013h0.123   c0,0,0.587-0.045,0.628-0.045s0.131,0.09,0.131,0.09l0.021,0.036c0,0,0.245-0.191,0.372-0.199c0.126-0.009,0.326,0.073,0.4,0.105   C1.602-1.406,1.8-1.207,1.8-1.207s0.109-0.22,0.22-0.256C2.13-1.5,2.225-1.492,2.314-1.436c0.086,0.061,0.173,0.35,0.173,0.35   S2.519-0.857,2.494-0.82C2.471-0.784,2.498-0.755,2.498-0.739c0,0.017,0.086,0.074,0.086,0.074l0.115-0.012l0.008,0.044L2.74-0.641   c0,0,0.077,0.064,0.064,0.09c0,0,0.066,0.037,0.045,0.098c0,0,0.106,0.078,0.049,0.151L3.104-0.29l0.061,0.069l0.004-0.326   c0,0,0.14-0.102,0.249-0.077C3.527-0.6,3.573-0.588,3.573-0.588L3.56-0.068L3.508-0.036v0.041l0.126,0.017v-0.045l0.062-0.005   l0.008-0.036l0.098-0.017l0.16-0.009c0,0,0.086,0.037,0.094-0.065c0.008-0.103,0.032-0.473,0.032-0.473h0.128   c0,0,0.023,0.412,0.023,0.428c0,0.018,0.041,0.094,0.065,0.103C4.328-0.09,4.336-0.053,4.455-0.053s0.077,0,0.077,0l0.005,0.045   c0,0,0.012,0.049,0.208,0.049s0.196,0,0.196,0S4.957-0.26,4.945-0.334C4.932-0.408,4.81-1.404,4.81-1.404L4.803-1.449l0.081-0.008   l0.004,0.04l0.095,0.764l0.069-0.984L5.056-1.69L5.15-1.694L5.133-1.625L5.047-0.167l0.016,0.021l0.009,0.171L5.423,0.07   L5.419,0.18L5.297,0.188v0.028c0,0,0.199,0.021,0.22,0.021s0.267-0.024,0.278-0.009C5.807,0.245,5.79,0.344,5.79,0.344L5.374,0.34   L5.3,0.331L5.264,0.359l0.008,0.237c0,0-0.072,0.024-0.072-0.008S5.212,0.482,5.203,0.47C5.194,0.458,5.149,0.413,5.149,0.38   c0-0.032,0-0.032,0-0.032L5.019,0.34c0,0-0.167,0.032-0.225,0.037v0.052H4.23l0.028,0.14L4.234,0.56l-0.02-0.073   c0,0-0.02-0.032-0.104-0.036C4.029,0.445,3.956,0.445,3.956,0.445s-0.097-0.06-0.139-0.056l-0.01-0.041c0,0-0.07,0.041-0.082,0.069   C3.711,0.445,3.711,0.454,3.711,0.454s-0.077,0.061-0.22,0.061s-0.216,0-0.216,0l0.028,0.11l0.004,0.029L3.21,0.691L3.205,0.915   L3.066,0.928l-0.04-0.021L2.519,0.892L2.491,0.919c0,0-0.086,0.066-0.091-0.073C2.396,0.707,2.405,0.634,2.405,0.634l0.163-0.005   l0.004-0.02L2.479,0.568c0,0-0.105,0.037-0.144,0.023C2.299,0.58,2.377,0.605,2.326,0.662C2.279,0.72,2.242,0.784,2.242,0.784   L2.284,0.826z" fill="#FFFFFF"/>
  </g></svg>