<?xml version="1.0" standalone="no"?>
<svg xmlns="http://www.w3.org/2000/svg" viewBox="-8.64 -8.64 17.28 17.28" color="#212121" width="75" height="75"><g transform="matrix(1 0 0 -1 0 0)">
			<g xmlns="http://www.w3.org/2000/svg">
				<path fill="currentColor" d="M8.64,0c0-4.77-3.87-8.64-8.64-8.64c-0.28,0-0.55,0.01-0.82,0.04c-0.59,0.05-1.16,0.17-1.71,0.33    C-6.06-7.18-8.64-3.89-8.64,0c0,4.77,3.87,8.64,8.64,8.64C4.77,8.64,8.64,4.77,8.64,0z"/>
				<g>
					<path fill="#FFFFFF" d="M-2.43,4.84"/>
					<path fill="#FFFFFF" d="M-1.14,4.88C-1.19,4.86-1.24,4.85-1.27,4.8C-1.21,4.81-1.17,4.83-1.14,4.88z"/>
					<path fill="#FFFFFF" d="M-2.43,4.84"/>
					<path fill="#FFFFFF" d="M4.33-4.11c0.04-0.01,0.06,0,0.06,0.04C4.36-4.05,4.32-4.05,4.33-4.11z"/>
					<path fill="#FFFFFF" d="M-0.29-1.24"/>
					<path fill="#FFFFFF" d="M4.11-4.08h0.04c0,0.02,0.03,0.02,0.02,0.05H4.11L4.11-4.08z"/>
					<path fill="#FFFFFF" d="M4.22-4.1C4.21-4.05,4.31-4.11,4.3-4.06C4.24-4.04,4.18-4.05,4.22-4.1z"/>
					<path fill="#FFFFFF" d="M2.18-2.03c0-0.02-0.03-0.04,0-0.06C2.18-2.06,2.21-2.05,2.18-2.03z"/>
					<path fill="#FFFFFF" d="M5.07-4.24C5.1-4.19,5.13-4.13,5.13-4.05c-0.1,0.07-0.24,0.09-0.31-0.02c-0.1,0.14-0.24,0.23-0.35,0.35     C4.41-3.56,4.28-3.49,4.15-3.36C3.99-3.2,3.84-3.04,3.65-2.88C3.56-2.77,3.44-2.67,3.32-2.6C3.15-2.34,2.86-2.2,2.69-1.94     c0.03,0.05,0.1,0.05,0.07,0.16c-0.1,0.1-0.26,0.15-0.41,0.1C2.25-1.47,1.98-1.41,1.92-1.13c-0.04,0.04-0.08,0-0.14,0.04     C1.74-1.04,1.77-0.97,1.61-1c0.02,0.02,0.02,0.06,0,0.09c-0.1,0-0.12-0.03-0.21,0C1.31-0.77,1.14-0.7,1.06-0.56     C1.19-0.42,0.89-0.33,0.95-0.1C0.87-0.07,0.8-0.03,0.74,0.01c-0.09,0.2-0.06,0.42-0.15,0.62C0.52,0.82,0.41,0.98,0.35,1.15     C0.33,1.23,0.34,1.32,0.32,1.39C0.26,1.58,0.1,1.71,0.09,1.97C0.1,2.03,0.11,2.09,0.11,2.15c-0.03,0.2-0.29,0.29-0.29,0.56     C-0.1,2.9,0.05,3,0.09,3.21C0,3.23-0.05,3.18-0.03,3.31C-0.2,3.32-0.35,3.36-0.49,3.44c0.07,0.07,0.25,0.06,0.32,0.15     c-0.05,0.2,0.12,0.26,0.04,0.38C-0.04,4.02-0.06,4.19,0,4.26c0.07-0.01,0.15-0.02,0.17,0.06c0.05,0.22-0.24,0.34-0.18,0.58     c0.14,0.11,0.4,0.1,0.46,0.28C0.42,5.26,0.29,5.25,0.28,5.35c-0.05,0.01-0.1,0.03-0.15,0.05C0.16,5.47,0.07,5.47,0.04,5.5     c-0.12,0.15-0.18,0.34-0.31,0.48c-0.1,0.08-0.21,0.17-0.31,0.24c-0.31,0.21-0.69,0.3-1.05,0.24c-0.64-0.07-1.1-0.66-1.03-1.3     c0.01-0.03,0.01-0.05,0.01-0.08c0.07-0.24,0.11-0.49,0.11-0.74c0.08-0.06,0.22-0.08,0.29-0.17C-2.27,4.16-2.28,4.13-2.28,4.1     c-0.31,0.09-0.37-0.12-0.41-0.41c-0.08,0-0.11-0.04-0.17-0.07c-0.11,0.1-0.27,0.17-0.38,0.26C-3.24,3.95-3.26,4.01-3.3,4.09     c-0.16,0.04-0.25,0.16-0.42,0.12c-0.16-0.03-0.18-0.23-0.31-0.27c-0.05,0.09-0.11,0.2-0.17,0.29c-0.16,0.01-0.16,0.12-0.28,0.1     c-0.15-0.02-0.28-0.43-0.24-0.62c-0.3-0.3-0.47-0.72-0.46-1.14c0.09-0.06,0.05-0.27,0.1-0.38C-4.9,2.12-4.74,2.03-4.6,1.92     c-0.09-0.31-0.08-0.64,0.01-0.96c0.07-0.42,0.05-0.85-0.05-1.27c0.02-0.04,0.05-0.04,0.07-0.05c-0.02-0.16-0.04-0.32-0.05-0.5     c0-0.16-0.02-0.31-0.07-0.46c-0.1-0.01-0.18,0.04-0.26,0C-4.99-1.37-5-1.45-4.97-1.52c0.32-0.1,0.66-0.14,0.98-0.09     c0.03,0.03,0.02,0.11,0.02,0.17c-0.08,0.03-0.17,0.07-0.24,0.11c-0.01,0.29,0.02,0.58,0.09,0.86c0.28,0.05,0.44-0.09,0.6-0.1     c0.02-0.17-0.02-0.41,0.11-0.5c0.04-0.03,0.04,0.08,0.07,0.01c0.03-0.09,0.03-0.2,0-0.29c0-0.07,0.07,0,0.07-0.03     C-3.29-1.4-3.29-1.46-3.31-1.48c-0.12,0.05-0.25,0.09-0.37,0.12C-3.77-1.52-3.83-1.71-3.81-1.9c0.03-0.14,0.21-0.23,0.22-0.35     c0.11-0.01,0.22-0.04,0.31-0.09c0.01-0.14,0.11-0.19,0.14-0.36c0.01-0.27-0.03-0.54,0-0.81c0.07-0.57,0.19-1.13,0.33-1.69     c0.11-0.56,0.26-1.1,0.36-1.65C-2.68-7-2.82-7.49-2.42-7.52C-2.46-7.6-2.67-7.63-2.68-7.76c-0.01-0.11,0.19-0.2,0.2-0.3     c0.01-0.06-0.02-0.14-0.04-0.21c0.54-0.17,1.11-0.28,1.71-0.33c0.02,0.06,0.05,0.12,0.09,0.18c0.03,0.03,0.05,0.07,0.07,0.11     c0.01,0.03-0.01,0.08,0,0.15c0.02,0.18,0.14,0.33,0.01,0.49c0.11,0.35,0.19,0.71,0.21,1.07c0.29,0.59,0.43,1.25,0.41,1.9     c0.01,0.32,0.04,0.64,0.09,0.98C0.39-3.84,0.74-3.9,1.09-3.93C1.68-3.89,2.27-3.7,2.77-3.38c0.04-0.01,0.08,0,0.11,0.02     c0.09,0.03,0.08,0.16,0.2,0.17c0.01,0.05,0.01,0.11,0.06,0.12c0.25-0.2,0.48-0.43,0.73-0.64c0.08-0.06,0.2-0.11,0.24-0.22     C4.17-3.99,4.03-3.99,4.08-4.1c0.04-0.05,0.19-0.04,0.26-0.02C4.31-4.05,4.36-4.05,4.39-4.08c0-0.03-0.02-0.04-0.05-0.04     C4.33-4.16,4.36-4.15,4.39-4.15C4.42-4.22,4.5-4.24,4.6-4.26c0.12-0.09,0.19-0.25,0.38-0.29c0.08-0.02,0.05,0.06,0.1,0.07     c0.03,0,0.1-0.06,0.09,0.02C5.21-4.4,5.08-4.33,5.07-4.24z M-2.42,4.83C-2.48,4.86-2.4,4.94-2.42,4.83L-2.42,4.83z M2.17-2.03     c0.04-0.02,0.01-0.04,0-0.06C2.14-2.08,2.17-2.05,2.17-2.03z M2.71-3.03C2.64-3.12,2.54-3.17,2.51-3.31     C1.95-3.67,1.29-3.84,0.63-3.78c-0.21,0.03-0.58,0.31-0.61,0.5C0.01-3.2,0.02-3.12,0-3.03c-0.05,0.28-0.09,0.56-0.1,0.84     c0.07-0.01,0.16,0,0.22,0.04C0.12-2,0.08-1.89,0.09-1.74c-0.01,0.09-0.12,0.07-0.1,0.2C0.3-1.75,0.57-2.01,0.8-2.31     c0.06,0.04,0.08-0.01,0.12-0.04c0.16,0.03,0.31,0.09,0.44,0.19C1.4-2.33,1.59-2.35,1.64-2.5c0.07,0.02,0.12-0.06,0.19-0.07     c0.02,0,0.07,0.02,0.11,0.02c0.03,0,0.06-0.03,0.08-0.03c0.11,0.01,0.23,0.02,0.33,0.01c0.1-0.02,0.18-0.12,0.26-0.19     c0.09-0.06,0.2-0.09,0.24-0.18C2.86-3.02,2.74-2.98,2.71-3.03z M4.15-4.08H4.11v0.05h0.06C4.17-4.05,4.15-4.05,4.15-4.08z      M4.22-4.09C4.19-4.04,4.24-4.04,4.29-4.05C4.3-4.11,4.22-4.05,4.22-4.09z"/>
				</g>
			</g>
			<g xmlns="http://www.w3.org/2000/svg" id="Circle-12_29_">
				<g>
					<path fill="currentColor" d="M-0.01,8.39c4.63,0,8.4-3.76,8.4-8.39c0-1.51-0.41-3-1.19-4.3c-1.5-2.53-4.26-4.1-7.2-4.1     c-2.35,0-4.53,0.95-6.13,2.67C-7.59-4.16-8.39-2.13-8.39,0C-8.39,4.63-4.63,8.39-0.01,8.39 M-0.01,8.64     c-4.77,0-8.64-3.87-8.64-8.64c0-2.27,0.88-4.35,2.32-5.89c1.58-1.7,3.82-2.75,6.31-2.75c3.15,0,5.91,1.69,7.42,4.22     C8.19-3.13,8.64-1.61,8.64,0C8.64,4.77,4.77,8.64-0.01,8.64L-0.01,8.64z"/>
				</g>
			</g>
		</g></svg>