<?xml version="1.0" standalone="no"?>
<svg xmlns="http://www.w3.org/2000/svg" viewBox="-6.37 -9.808 12.74 19.099" color="#212121" width="75" height="75"><g transform="matrix(1 0 0 -1 0 0)">
    <g xmlns="http://www.w3.org/2000/svg">
      <path class="primary" fill="currentColor" d="M-4.523,6.453c0-0.19-0.011-0.768,0.734-0.768c0.47,0,0.767,0.224,0.767,0.565    c0,0.358-0.252,0.42-0.767,0.543c-0.963,0.241-1.49,0.526-1.49,1.227c0,0.667,0.476,1.255,1.602,1.255    c0.42,0,0.918-0.096,1.221-0.477c0.23-0.291,0.23-0.615,0.23-0.75h-0.834c-0.011,0.14-0.056,0.616-0.655,0.616    c-0.403,0-0.667-0.219-0.667-0.549c0-0.375,0.297-0.442,0.879-0.588c0.7-0.168,1.389-0.358,1.389-1.148    c0-0.728-0.605-1.315-1.725-1.315c-1.551,0-1.562,0.996-1.568,1.389H-4.523z"/>
      <path class="primary" fill="currentColor" d="M0.31,9.292c0.431,0,1.025-0.101,1.422-0.549C2.164,8.25,2.248,7.617,2.248,7.219    c0-0.588-0.179-1.215-0.51-1.585C1.29,5.131,0.635,5.058,0.299,5.058c-0.532,0-1.064,0.168-1.434,0.554    c-0.442,0.471-0.498,1.143-0.498,1.513C-1.633,8.2-1.146,9.292,0.31,9.292z M-0.423,6.021C-0.3,5.853-0.093,5.696,0.31,5.696    c0.353,0,0.594,0.124,0.756,0.376c0.134,0.201,0.274,0.515,0.274,1.159c0,0.195-0.017,0.476-0.101,0.722    C1.072,8.452,0.73,8.67,0.316,8.67c-0.325,0-0.583-0.134-0.745-0.341c-0.229-0.28-0.296-0.717-0.296-1.177    C-0.726,6.766-0.664,6.335-0.423,6.021z"/>
      <path class="primary" fill="currentColor" d="M2.875,9.202h2.61V8.552H3.743V7.555h1.624V6.883H3.743V5.159H2.875V9.202z"/>
    </g>
    <g xmlns="http://www.w3.org/2000/svg">
      <circle class="primary" fill="currentColor" cx="0" cy="-3.438" r="6.245"/>
      <path class="secondary" d="M0,2.682c3.38,0,6.12-2.74,6.12-6.12S3.38-9.558,0-9.558s-6.12,2.74-6.12,6.12S-3.38,2.682,0,2.682 M0,2.932    c-3.513,0-6.37-2.858-6.37-6.37s2.858-6.37,6.37-6.37s6.37,2.858,6.37,6.37S3.512,2.932,0,2.932L0,2.932z" fill="#FFFFFF"/>
    </g>
    <g xmlns="http://www.w3.org/2000/svg" id="XMLID_3_">
      <g>
        <path class="secondary" d="M-1.594-5.403c0,0,0-0.001,0.001-0.001C-1.589-5.407-1.593-5.403-1.594-5.403z M-1.479-5.293     c0,0-0.001,0.001-0.001,0.002C-1.482-5.29-1.48-5.293-1.479-5.293z M1.162-2.284c0,0,0.004-0.004,0.001-0.001     C1.163-2.284,1.162-2.284,1.162-2.284z M1.533-2.781c0-0.001,0.004-0.005,0.001-0.001C1.534-2.781,1.533-2.781,1.533-2.781z      M1.949-0.049c0.029-0.082,0-0.086,0-0.171C1.926-0.229,1.918-0.252,1.891-0.273c-0.024-0.008-0.006,0.024-0.03,0.016     C1.822-0.279,1.872-0.331,1.905-0.301c0.015-0.053-0.04-0.086-0.03-0.142C1.842-0.442,1.836-0.467,1.815-0.48     C1.828-0.572,1.836-0.634,1.86-0.702c0-0.014,0.001-0.027,0.002-0.042c0.003-0.048,0.011-0.095,0.014-0.141     c0-0.002,0-0.002-0.001-0.004c-0.011-0.1-0.096-0.232-0.178-0.251C1.66-1.151,1.607-1.144,1.565-1.133     c0.014-0.033-0.016-0.058-0.016-0.096C1.523-1.258,1.502-1.225,1.476-1.225c0.001,0.003,0.001,0.007,0.001,0.011     C1.474-1.197,1.468-1.185,1.452-1.173c0,0-0.159-0.035-0.163-0.093c0.008-0.018,0.025-0.007,0.037,0.001     C1.328-1.266,1.33-1.268,1.332-1.269s0.006-0.004,0.006-0.004c0-0.011-0.006-0.015-0.006-0.038     c0.02-0.022,0.122-0.008,0.104-0.03c0.025,0.013,0.104-0.098,0.098-0.17C1.518-1.524,1.493-1.509,1.489-1.519     c-0.005-0.029,0.04-0.009,0.06-0.015c0.002-0.003,0.005-0.005,0.006-0.007c0.004-0.026,0.009-0.05,0.013-0.075     c-0.005-0.031-0.019-0.062-0.026-0.09C1.546-1.729,1.526-1.717,1.52-1.712c0.005-0.025,0.016-0.045,0.045-0.045     C1.556-1.789,1.531-1.831,1.557-1.854C1.523-1.871,1.527-1.897,1.511-1.92C1.502-1.931,1.48-1.928,1.46-1.928     c-0.006-0.026-0.008-0.06-0.008-0.095C1.429-2.085,1.439-2.166,1.46-2.226C1.462-2.255,1.468-2.28,1.489-2.292     c0.002,0.006,0.002,0.011,0.003,0.019c0.005-0.002,0.007-0.003,0.012-0.004c0-0.005,0-0.009,0-0.015     c0.023-0.024,0.09-0.049,0.143-0.077c0-0.022-0.002-0.046-0.002-0.07c-0.022-0.03,0.013-0.088-0.044-0.105     c0.044-0.05,0.085-0.098,0.104-0.171C1.711-2.72,1.717-2.726,1.723-2.731c0.009-0.053,0.01-0.11,0.022-0.162     c-0.02-0.183-0.126-0.346-0.204-0.475c-0.029-0.05-0.048-0.106-0.073-0.143C1.396-3.606,1.197-3.653,1.088-3.6     c0-0.006-0.002-0.01-0.003-0.014C1.078-3.605,1.069-3.601,1.059-3.599c-0.01,0.008-0.02,0.01-0.039,0.008     c-0.002,0.012-0.008,0,0,0C1.016-3.599,1.009-3.603,0.999-3.605c0.007-0.019,0.006-0.032,0.002-0.044c0-0.001,0-0.002,0-0.003     c-0.008-0.02-0.02-0.034-0.019-0.052C0.947-3.806,0.9-3.904,0.897-4.012c-0.003-0.025,0-0.053,0.007-0.081     c0.007-0.044,0.019-0.086,0.029-0.129c0.001-0.054,0.001-0.108-0.01-0.16C0.922-4.386,0.92-4.39,0.918-4.392     c-0.025-0.047-0.05-0.098-0.064-0.15c-0.003,0.003-0.006,0.006-0.01,0.007c-0.025-0.058-0.062-0.14-0.053-0.23     C0.8-4.853,0.896-4.977,0.933-5.121c0.01-0.039,0.018-0.085,0.021-0.127C0.98-5.508,1.02-5.75,0.902-5.937     C0.905-5.968,0.946-5.975,0.97-5.998c0.095-0.089,0.142-0.246,0.008-0.297C0.998-6.404,0.934-6.501,0.933-6.6     c0-0.018,0.014-0.033,0.016-0.052c0-0.018-0.003-0.057-0.008-0.081C0.928-6.79,0.902-6.904,0.888-6.955     c-0.036-0.122-0.08-0.246-0.11-0.372C0.768-7.36,0.757-7.39,0.747-7.423C0.731-7.477,0.738-7.541,0.695-7.579     c-0.001-0.07-0.033-0.119-0.044-0.179c-0.009-0.051,0.001-0.101,0-0.147c-0.003-0.096-0.014-0.18,0.007-0.266     c0.013-0.052,0.055-0.09,0.059-0.143C0.719-8.338,0.705-8.358,0.702-8.38c-0.01-0.084-0.017-0.193-0.014-0.268     c0-0.013-0.002-0.026,0.015-0.023C0.669-8.718,0.608-8.74,0.568-8.781c-0.056-0.01-0.091-0.017-0.14-0.045     C0.39-8.815,0.378-8.819,0.354-8.84C0.33-8.849,0.333-8.844,0.316-8.834C0.129-8.925-0.037-9.075-0.308-9.055     c-0.018-0.004-0.034-0.011-0.044-0.022c-0.037,0.016-0.093,0-0.142,0.006c-0.05,0.006-0.026,0.009-0.059,0     c-0.006-0.002-0.029,0-0.029,0c-0.079-0.001-0.145,0.036-0.231,0.044C-0.838-9.003-0.868-8.984-0.91-8.974     c0.01,0.029-0.025,0.037-0.028,0.066c-0.006,0.045,0.02,0.089,0.052,0.111C-0.881-8.664-0.68-8.64-0.544-8.582     C-0.516-8.569-0.502-8.54-0.47-8.544C-0.46-8.526-0.46-8.5-0.449-8.485c0.022,0.005,0.038,0.012,0.06,0.016     c0.047,0.073,0.187,0.086,0.192,0.178c0.043,0.012,0.043,0.065,0.09,0.075c0.012,0.057,0.036,0.102,0.06,0.147     c-0.017,0.033-0.045-0.024-0.047-0.008c-0.02-0.002-0.025,0.015-0.035,0.023C-0.176-8.059-0.221-8.06-0.24-8.091     c-0.031-0.012-0.002,0.038-0.024,0.037c-0.044,0.012-0.041-0.034-0.044-0.045C-0.319-8.1-0.334-8.098-0.33-8.113     c-0.035-0.002-0.047,0.018-0.067,0.028c-0.025-0.034-0.101,0.007-0.097-0.044c-0.039,0.014-0.107,0.035-0.155,0.008     c-0.097,0.034-0.217-0.01-0.297,0.052c-0.037-0.02-0.068,0.025-0.097,0.008c-0.061,0.029-0.113,0.157-0.016,0.186     c0.02,0.167,0.26,0.11,0.409,0.148c0.03,0.053,0.089,0.076,0.12,0.126c0.025,0.002,0.042,0.013,0.075,0.008     c0.033,0.09,0.105,0.146,0.185,0.192c0.02,0.063,0.01,0.154,0.052,0.194c0,0.042-0.036,0.064-0.045,0.104     c-0.006,0.036,0.005,0.073,0,0.111C-0.283-6.8-0.374-6.599-0.412-6.405c-0.014,0.073-0.017,0.141-0.029,0.194     C-0.5-6.148-0.625-6.149-0.664-6.064c0.015,0.078,0.037,0.151,0.082,0.2c-0.082,0.08-0.121,0.196-0.164,0.319     c-0.041,0.119-0.095,0.24-0.11,0.372C-0.895-4.874-0.857-4.58-0.871-4.267c-0.011,0.23,0.014,0.474,0.008,0.714     c0,0.002,0,0.003,0,0.005c0.033,0.145,0.074,0.289,0.074,0.437C-0.787-3.11-0.785-3.11-0.785-3.109     c0,0.003-0.002,0.006-0.004,0.009c0,0.005,0,0.009,0,0.013c0,0.005,0,0.01-0.002,0.014c0.006,0.022,0.022,0.045,0.023,0.069     c0,0.025-0.025,0.045-0.008,0.072c-0.058-0.014-0.11-0.097-0.142-0.162c0.015-0.065-0.023-0.105-0.029-0.171     c0.007-0.007,0.011-0.016,0.014-0.026c-0.004-0.023-0.007-0.045-0.009-0.07c0-0.001-0.002-0.005-0.004-0.007     c-0.005-0.069-0.01-0.143-0.02-0.216c0-0.002-0.001-0.004-0.001-0.006c-0.009-0.042-0.015-0.085-0.02-0.128     C-1-3.784-1.015-3.847-1.036-3.903c-0.002-0.004-0.037-0.032-0.023-0.053c-0.023,0.008-0.029-0.033-0.045-0.052     c-0.018-0.024-0.045-0.04-0.058-0.067c-0.041-0.004-0.04-0.004-0.075-0.008c0.004,0.009,0.008,0.018,0.015,0.022     c0.006-0.011,0.009,0.001,0,0c0,0.008-0.005,0.01-0.007,0.015c-0.023,0.005-0.035-0.007-0.022-0.02     c-0.007-0.017-0.027-0.018-0.052-0.016c-0.003-0.119-0.041-0.217-0.023-0.319C-1.334-4.4-1.332-4.389-1.332-4.378     c-0.029-0.178-0.031-0.317-0.061-0.476c0.002-0.019-0.017-0.019-0.022-0.029c0.015-0.048,0.007-0.052,0.009-0.09     c0.08-0.02,0.063-0.15-0.016-0.133c-0.005-0.072-0.003-0.197-0.029-0.262c0-0.023-0.017-0.009-0.029-0.007     c0-0.012,0-0.024,0.001-0.036c-0.004-0.002-0.006-0.006-0.009-0.008c-0.04-0.01-0.02-0.061-0.022-0.089     c-0.008-0.071-0.02-0.155-0.022-0.224c-0.026-0.023-0.05-0.049-0.09-0.06c-0.002,0.039-0.03,0-0.052,0.011     C-1.701-5.689-1.68-5.579-1.681-5.484c-0.002,0.061-0.031,0.11-0.016,0.154c0.018,0.018,0.029-0.002,0.053,0     c0,0.103,0.04,0.209,0.008,0.298c0.02,0.039,0.038,0.086,0.036,0.149c-0.006,0.022-0.022,0.037-0.036,0.051     c-0.004,0.039-0.01,0.06-0.008,0.096c0.017,0.252,0.053,0.523,0.082,0.789c0.01,0.097,0.029,0.196,0.022,0.274     c-0.016,0.146,0.043,0.302,0.029,0.431c-0.002,0.028-0.026,0.06-0.029,0.09c-0.01,0.066,0.007,0.119-0.022,0.155     c0.019,0.063,0.038,0.125,0.044,0.201c0.011,0.01,0.035,0.005,0.046,0.015c-0.005,0.093,0.032,0.17,0.029,0.252     c-0.002,0.067-0.044,0.13-0.015,0.2c-0.02,0.02-0.066,0.002-0.09,0c-0.01,0.017-0.02,0.031-0.015,0.061     c0.048,0.024,0.128,0.015,0.178,0.037c0,0.067,0.008,0.131,0.023,0.186c-0.027,0.085-0.057,0.166-0.075,0.26     c-0.011,0.023-0.035,0.032-0.074,0.029C-1.605-1.7-1.633-1.58-1.718-1.518c0.005,0.045-0.026,0.091-0.045,0.133     c-0.064,0.135-0.138,0.293-0.2,0.416c0,0.15,0.049,0.253,0.133,0.319c0.004,0.114,0.05,0.148,0.112,0.208     c0.042,0.04,0.088,0.071,0.125,0.105c0.041,0.033,0.088,0.085,0.127,0.11c0.065,0.043,0.142,0.061,0.2,0.097     c0.084,0.052,0.144,0.152,0.223,0.207c0.025,0.018,0.049,0.045,0.075,0.059c0.03,0.021,0.067,0.027,0.097,0.046     c0.028,0.02,0.046,0.054,0.072,0.074c0.049,0.036,0.113,0.058,0.164,0.089c0.055,0.034,0.099,0.074,0.148,0.111     c-0.039,0.054-0.098,0.087-0.155,0.12c-0.021,0.06-0.066,0.107-0.089,0.177c-0.025,0.076-0.022,0.17-0.074,0.2     C-0.823,0.956-0.823,0.94-0.842,0.946C-0.885,0.98-0.904,1.039-0.946,1.072c-0.007,0.023,0.012,0.023,0.015,0.037     C-1.043,1.212-1.09,1.475-0.999,1.636c0.038,0.002,0.038,0.058,0.075,0.037c0.068,0.106,0.106,0.232,0.194,0.326     c0.232,0.254,0.747,0.28,0.979,0.016c-0.009-0.001-0.005-0.008,0-0.008c0.014-0.014,0.014-0.041,0.022-0.06     c0.005-0.016,0.013,0.006,0.022,0.008c0.005-0.01,0.01-0.02,0.015-0.029c0.005-0.021,0.008-0.035,0.016-0.045     c0-0.001,0.003-0.001,0.007-0.001c0.055-0.114,0.1-0.233,0.117-0.358c-0.002-0.002-0.006,0-0.014,0.004     c0-0.014,0.006-0.021,0.016-0.022c0.002-0.014,0.002-0.026,0.004-0.04c-0.007-0.102,0.003-0.185,0.011-0.31     c0-0.029-0.006-0.002-0.023-0.008C0.457,1.114,0.497,1.109,0.526,1.09C0.528,1.085,0.53,1.079,0.532,1.075v-0.02     c-0.012-0.004,0.001-0.008,0,0c0.003-0.001,0.005-0.003,0.007-0.006C0.54,1.045,0.541,1.04,0.542,1.037     c0-0.002-0.001-0.005-0.002-0.008C0.527,1.011,0.514,0.993,0.499,0.974c-0.05-0.046-0.143-0.063-0.206-0.109     c0.04-0.025,0.104,0.017,0.141,0.03c0.006-0.004,0.01-0.007,0.014-0.011c0-0.014,0.008-0.026,0.02-0.033     C0.47,0.842,0.472,0.835,0.474,0.827c0.086-0.002,0.187,0.012,0.2-0.066c0.025,0.003,0.042-0.003,0.06-0.008     c0.035-0.048,0.02-0.145,0.045-0.207c0.041-0.003,0.064,0.013,0.11,0.007c0.047,0.04,0.04,0.112,0.066,0.163     C0.976,0.754,1.02,0.774,1.02,0.82c0.05,0.032,0.147,0.1,0.216,0.045C1.254,0.928,1.245,1.018,1.26,1.086     c0.035,0,0.053,0.028,0.088,0.03C1.41,1.119,1.466,1.079,1.497,1.043c-0.008-0.004-0.011-0.012-0.015-0.02     C1.454,1.003,1.425,1.002,1.415,0.96c-0.02-0.073,0.054-0.273,0-0.335c0.021-0.012,0.042-0.02,0.061-0.036     C1.478,0.592,1.48,0.595,1.482,0.6c0.02-0.008,0.044-0.004,0.055,0.018c0.01,0.004,0.02,0.006,0.035-0.006     c0.067,0.07,0.205,0.068,0.26-0.016c-0.014-0.02,0.009-0.03,0.007-0.051c0-0.022-0.022-0.043-0.022-0.067     c0.002-0.037,0.046-0.074,0.022-0.105c-0.035-0.026,0.038-0.069,0.037-0.11c-0.008-0.001-0.003-0.008,0-0.008     c0.031-0.04,0.09-0.111,0.051-0.171c0.02-0.012,0.022-0.04,0.031-0.059C1.955,0,1.918-0.037,1.949-0.049z M1.289-2.336     c-0.006,0.024,0.01,0.069-0.008,0.081c0.004-0.022-0.02-0.019-0.021-0.037C1.252-2.295,1.246-2.298,1.244-2.307     C1.22-2.308,1.209-2.289,1.207-2.322C1.241-2.319,1.256-2.336,1.289-2.336z M1.154-2.3C1.166-2.294,1.153-2.29,1.154-2.3     c-0.015,0.004-0.022,0-0.022-0.014C1.146-2.314,1.153-2.309,1.154-2.3z M0.954-2.425C0.96-2.43,0.952-2.422,0.954-2.425     L0.954-2.425z M0.933-2.485C0.939-2.489,0.93-2.482,0.933-2.485L0.933-2.485z M0.404-2.886C0.388-2.911,0.43-2.869,0.404-2.886     L0.404-2.886z M0.361-2.744C0.358-2.742,0.365-2.749,0.361-2.744L0.361-2.744z M0.354-2.722C0.359-2.727,0.351-2.718,0.354-2.722     L0.354-2.722z M-0.345,1.696C-0.348,1.699-0.341,1.691-0.345,1.696L-0.345,1.696z M-1.466-5.113     C-1.47-5.111-1.461-5.119-1.466-5.113L-1.466-5.113z M-1.472-5.21C-1.476-5.207-1.47-5.214-1.472-5.21L-1.472-5.21z M-1.48-5.233     C-1.471-5.262-1.471-5.203-1.48-5.233L-1.48-5.233z M-1.533-4.705c0.007,0.001,0.015,0,0.015,0.008     C-1.524-4.7-1.533-4.698-1.533-4.705z M-1.623-5.604C-1.617-5.608-1.626-5.6-1.623-5.604L-1.623-5.604z" fill="#FFFFFF"/>
        <path class="secondary" d="M1.905-0.301C1.899-0.271,1.926-0.299,1.905-0.301L1.905-0.301z" fill="#FFFFFF"/>
        <path class="secondary" d="M1.875,0.263c0.005,0,0.008-0.006,0-0.008C1.875,0.258,1.875,0.26,1.875,0.263z" fill="#FFFFFF"/>
        <path class="secondary" d="M1.838,0.373C1.847,0.374,1.843,0.363,1.838,0.373L1.838,0.373z" fill="#FFFFFF"/>
        <path class="secondary" d="M1.534-2.782c0.003-0.004-0.001,0-0.001,0.001C1.533-2.781,1.534-2.781,1.534-2.782z" fill="#FFFFFF"/>
        <path class="secondary" d="M1.281-2.255c0.018-0.012,0.002-0.057,0.008-0.081c-0.033,0-0.048,0.018-0.082,0.015     C1.209-2.289,1.22-2.308,1.244-2.307c0-0.007,0.009-0.006,0.016-0.007c0-0.008,0.008-0.006,0.015-0.008     c0,0.02-0.006,0.009-0.015,0.008C1.259-2.307,1.25-2.308,1.244-2.307C1.246-2.298,1.252-2.295,1.26-2.293     c0-0.002,0-0.004,0-0.008c0.008,0.002,0.004,0.008,0,0.008C1.262-2.274,1.285-2.278,1.281-2.255z" fill="#FFFFFF"/>
        <path class="secondary" d="M1.26-2.314c0.009,0.001,0.015,0.012,0.015-0.008C1.268-2.32,1.26-2.322,1.26-2.314z" fill="#FFFFFF"/>
        <path class="secondary" d="M1.26-2.293c0.004,0,0.008-0.006,0-0.008C1.26-2.296,1.26-2.294,1.26-2.293z" fill="#FFFFFF"/>
        <path class="secondary" d="M1.244-2.307c0.006-0.001,0.015,0,0.016-0.007C1.253-2.313,1.244-2.314,1.244-2.307z" fill="#FFFFFF"/>
        <path class="secondary" d="M1.163-2.285c0.003-0.003-0.001,0-0.001,0.001C1.162-2.284,1.163-2.284,1.163-2.285z" fill="#FFFFFF"/>
        <path class="secondary" d="M1.154-2.3C1.153-2.29,1.166-2.294,1.154-2.3L1.154-2.3z" fill="#FFFFFF"/>
        <path class="secondary" d="M1.154-2.3C1.153-2.309,1.146-2.314,1.132-2.314C1.132-2.3,1.14-2.296,1.154-2.3z" fill="#FFFFFF"/>
        <path class="secondary" d="M0.954-2.425C0.952-2.422,0.96-2.43,0.954-2.425L0.954-2.425z" fill="#FFFFFF"/>
        <path class="secondary" d="M0.933-2.485C0.93-2.482,0.939-2.489,0.933-2.485L0.933-2.485z" fill="#FFFFFF"/>
        <path class="secondary" d="M0.404-2.886C0.43-2.869,0.388-2.911,0.404-2.886L0.404-2.886z" fill="#FFFFFF"/>
        <path class="secondary" d="M0.361-2.744C0.365-2.749,0.358-2.742,0.361-2.744L0.361-2.744z" fill="#FFFFFF"/>
        <path class="secondary" d="M0.354-2.722C0.351-2.718,0.359-2.727,0.354-2.722L0.354-2.722z" fill="#FFFFFF"/>
        <path class="secondary" d="M0.261,2.015c0.004-0.007,0.007-0.014,0.011-0.02C0.266,2,0.266,2.012,0.249,2.007l0.004,0.008     C0.253,2.015,0.257,2.015,0.261,2.015z" fill="#FFFFFF"/>
        <path class="secondary" d="M-0.345,1.696C-0.341,1.691-0.348,1.699-0.345,1.696L-0.345,1.696z" fill="#FFFFFF"/>
        <path class="secondary" d="M-1.251-4.066C-1.242-4.066-1.246-4.078-1.251-4.066L-1.251-4.066z" fill="#FFFFFF"/>
        <path class="secondary" d="M-1.466-5.113C-1.461-5.119-1.47-5.111-1.466-5.113L-1.466-5.113z" fill="#FFFFFF"/>
        <path class="secondary" d="M-1.472-5.21C-1.47-5.214-1.476-5.207-1.472-5.21L-1.472-5.21z" fill="#FFFFFF"/>
        <path class="secondary" d="M-1.48-5.233C-1.471-5.203-1.471-5.262-1.48-5.233L-1.48-5.233z" fill="#FFFFFF"/>
        <path class="secondary" d="M-1.48-5.292c0.001-0.001,0.001-0.001,0.001-0.002C-1.48-5.293-1.482-5.29-1.48-5.292z" fill="#FFFFFF"/>
        <path class="secondary" d="M-1.594-5.403c0.001,0,0.005-0.004,0.001-0.001C-1.593-5.403-1.593-5.403-1.594-5.403z" fill="#FFFFFF"/>
        <path class="secondary" d="M-1.623-5.604C-1.626-5.6-1.617-5.608-1.623-5.604L-1.623-5.604z" fill="#FFFFFF"/>
        <path class="secondary" d="M-1.623-5.79C-1.622-5.797-1.633-5.793-1.623-5.79L-1.623-5.79z" fill="#FFFFFF"/>
      </g>
      <g>
      </g>
    </g>
  </g></svg>