<?xml version="1.0" standalone="no"?>
<svg xmlns="http://www.w3.org/2000/svg" viewBox="-6.37 -9.808 12.74 19.083" color="#212121" width="75" height="75"><g transform="matrix(1 0 0 -1 0 0)">
    <g xmlns="http://www.w3.org/2000/svg">
      <path class="primary" fill="currentColor" d="M-2.345,6.453c0-0.19-0.011-0.768,0.734-0.768c0.47,0,0.767,0.224,0.767,0.565    c0,0.358-0.252,0.42-0.767,0.543c-0.963,0.241-1.49,0.526-1.49,1.227c0,0.667,0.476,1.255,1.602,1.255    c0.42,0,0.918-0.096,1.221-0.477c0.23-0.291,0.23-0.615,0.23-0.75h-0.834c-0.011,0.14-0.056,0.616-0.655,0.616    c-0.403,0-0.667-0.219-0.667-0.549c0-0.375,0.297-0.442,0.879-0.588c0.7-0.168,1.389-0.358,1.389-1.148    c0-0.728-0.605-1.315-1.725-1.315c-1.551,0-1.563,0.996-1.568,1.389H-2.345z"/>
      <path class="primary" fill="currentColor" d="M0.696,9.202h2.61V8.552H1.564V7.555h1.624V6.883H1.564V5.159H0.696V9.202z"/>
    </g>
    <g xmlns="http://www.w3.org/2000/svg">
      <circle class="primary" fill="currentColor" cx="0" cy="-3.438" r="6.245"/>
      <path class="secondary" d="M0,2.682c3.38,0,6.12-2.74,6.12-6.12S3.38-9.558,0-9.558s-6.12,2.74-6.12,6.12S-3.38,2.682,0,2.682 M0,2.932    c-3.512,0-6.37-2.858-6.37-6.37s2.858-6.37,6.37-6.37c3.513,0,6.37,2.858,6.37,6.37S3.512,2.932,0,2.932L0,2.932z" fill="#FFFFFF"/>
    </g>
    <g xmlns="http://www.w3.org/2000/svg" id="XMLID_2_">
      <g>
        <path class="secondary" d="M-0.355,1.757c0,0,0-0.001,0.001-0.001C-0.35,1.753-0.354,1.757-0.355,1.757z M-1.507-5.241     c0.001,0,0.001-0.001,0.002-0.002c0.001,0,0.001-0.001,0,0C-1.505-5.243-1.505-5.242-1.507-5.241     C-1.506-5.242-1.506-5.242-1.507-5.241z M2.005-0.037c0.029-0.084-0.001-0.088,0-0.176C1.982-0.221,1.972-0.246,1.943-0.266     c-0.024-0.01-0.006,0.025-0.029,0.015c-0.039-0.02,0.011-0.076,0.045-0.045C1.975-0.35,1.917-0.384,1.928-0.441     c-0.034,0-0.041-0.025-0.061-0.039C1.88-0.573,1.888-0.638,1.913-0.708c0-0.015,0.001-0.028,0.001-0.043     C1.918-0.8,1.926-0.848,1.929-0.897c0,0,0-0.002-0.001-0.003C1.916-1.004,1.83-1.138,1.745-1.16     C1.707-1.169,1.651-1.162,1.607-1.151c0.016-0.034-0.014-0.059-0.014-0.1C1.566-1.28,1.545-1.246,1.517-1.247     c0.001,0.005,0.001,0.008,0.001,0.012c-0.003,0.019-0.009,0.03-0.024,0.042c0,0-0.165-0.035-0.169-0.096     c0.009-0.018,0.027-0.006,0.039,0.002C1.366-1.289,1.368-1.29,1.37-1.292c0.002-0.001,0.005-0.003,0.005-0.004     C1.376-1.307,1.37-1.311,1.371-1.335c0.02-0.022,0.125-0.008,0.107-0.03c0.024,0.014,0.105-0.1,0.1-0.176     C1.56-1.553,1.536-1.539,1.532-1.548C1.527-1.579,1.573-1.557,1.593-1.563c0.001-0.003,0.003-0.005,0.005-0.008     c0.004-0.026,0.009-0.051,0.013-0.077C1.607-1.679,1.593-1.711,1.585-1.739C1.59-1.764,1.569-1.752,1.563-1.747     c0.005-0.024,0.015-0.045,0.044-0.046C1.6-1.825,1.574-1.869,1.6-1.893C1.566-1.911,1.57-1.938,1.554-1.961     c-0.009-0.01-0.033-0.007-0.052-0.007C1.496-1.995,1.494-2.029,1.494-2.065C1.47-2.13,1.479-2.212,1.502-2.275     c0.001-0.029,0.007-0.055,0.03-0.067c0.001,0.005,0.002,0.011,0.003,0.018c0.004-0.002,0.007-0.003,0.012-0.004     c0-0.005,0-0.01,0-0.015C1.57-2.368,1.638-2.392,1.693-2.421c0-0.024-0.002-0.048-0.003-0.072C1.669-2.523,1.707-2.583,1.646-2.6     C1.69-2.651,1.734-2.7,1.752-2.776c0.007-0.006,0.013-0.012,0.019-0.018C1.78-2.847,1.782-2.906,1.794-2.96     c-0.021-0.188-0.13-0.355-0.209-0.489c-0.03-0.05-0.05-0.107-0.076-0.145C1.436-3.694,1.233-3.74,1.12-3.686     c-0.001-0.005-0.003-0.01-0.004-0.015C1.109-3.692,1.099-3.687,1.089-3.685C1.08-3.678,1.069-3.674,1.051-3.677     c-0.005,0.011-0.01-0.001,0,0C1.046-3.685,1.037-3.689,1.027-3.693C1.035-3.71,1.033-3.725,1.029-3.738V-3.74     c-0.007-0.021-0.02-0.035-0.018-0.053C0.974-3.897,0.926-4,0.924-4.11C0.919-4.136,0.923-4.165,0.929-4.194     c0.008-0.044,0.02-0.088,0.031-0.133c0.001-0.055,0-0.11-0.011-0.164c0-0.004-0.002-0.007-0.004-0.01     C0.92-4.549,0.894-4.601,0.88-4.656C0.876-4.652,0.872-4.649,0.868-4.647c-0.026-0.06-0.064-0.144-0.054-0.236     s0.107-0.22,0.145-0.366c0.01-0.041,0.02-0.088,0.023-0.13c0.025-0.269,0.065-0.518-0.054-0.71     c0.003-0.032,0.044-0.038,0.07-0.061c0.096-0.093,0.145-0.254,0.007-0.306c0.021-0.112-0.044-0.212-0.046-0.313     c0-0.019,0.014-0.035,0.016-0.054S0.973-6.882,0.967-6.907C0.955-6.964,0.928-7.082,0.914-7.134     C0.877-7.259,0.832-7.387,0.799-7.516c-0.009-0.035-0.021-0.065-0.03-0.1c-0.017-0.055-0.008-0.121-0.054-0.16     C0.714-7.848,0.679-7.898,0.669-7.959c-0.009-0.053,0.002-0.104,0-0.152C0.666-8.21,0.654-8.296,0.677-8.386     C0.69-8.439,0.735-8.478,0.739-8.531c0.002-0.024-0.014-0.045-0.016-0.068C0.711-8.687,0.705-8.797,0.707-8.875     c0-0.013-0.001-0.026,0.016-0.023C0.69-8.948,0.626-8.969,0.586-9.012C0.527-9.022,0.491-9.03,0.44-9.058     C0.401-9.046,0.388-9.051,0.363-9.073C0.34-9.082,0.343-9.077,0.325-9.066C0.134-9.16-0.037-9.314-0.316-9.294     c-0.019-0.004-0.035-0.011-0.046-0.023C-0.4-9.3-0.457-9.316-0.506-9.31c-0.053,0.006-0.028,0.01-0.062,0     c-0.006-0.002-0.03,0-0.03,0c-0.08,0-0.147,0.039-0.236,0.046C-0.86-9.239-0.892-9.22-0.934-9.21     c0.009,0.031-0.026,0.039-0.03,0.068c-0.007,0.046,0.02,0.091,0.054,0.114c0.004,0.137,0.213,0.162,0.35,0.222     c0.029,0.013,0.044,0.042,0.076,0.038c0.011,0.019,0.011,0.046,0.022,0.061C-0.44-8.702-0.421-8.695-0.4-8.691     c0.049,0.076,0.191,0.09,0.198,0.184c0.045,0.01,0.045,0.066,0.092,0.075c0.014,0.058,0.037,0.105,0.062,0.152     c-0.018,0.034-0.045-0.024-0.046-0.007C-0.116-8.29-0.121-8.273-0.132-8.264c-0.047-0.004-0.095-0.007-0.115-0.039     c-0.032-0.011-0.001,0.04-0.022,0.039C-0.317-8.252-0.313-8.298-0.316-8.31c-0.011-0.001-0.026,0.001-0.023-0.016     c-0.035-0.002-0.048,0.019-0.067,0.03c-0.026-0.036-0.104,0.007-0.1-0.046c-0.041,0.014-0.112,0.036-0.16,0.008     c-0.1,0.036-0.224-0.01-0.306,0.054C-1.01-8.301-1.041-8.253-1.071-8.272c-0.062,0.031-0.117,0.161-0.015,0.19     c0.019,0.173,0.268,0.115,0.42,0.153c0.029,0.054,0.09,0.078,0.122,0.13C-0.519-7.797-0.5-7.787-0.469-7.792     c0.037,0.094,0.109,0.151,0.191,0.199c0.019,0.063,0.01,0.157,0.054,0.198c0,0.044-0.038,0.066-0.046,0.106     c-0.008,0.037,0.004,0.075,0,0.115c-0.022,0.197-0.115,0.403-0.153,0.603c-0.014,0.076-0.018,0.147-0.03,0.2     c-0.06,0.066-0.189,0.064-0.229,0.151c0.016,0.081,0.037,0.156,0.084,0.206c-0.083,0.083-0.123,0.203-0.168,0.329     C-0.809-5.564-0.864-5.437-0.88-5.303c-0.039,0.308-0.001,0.609-0.016,0.932c-0.011,0.235,0.015,0.487,0.009,0.734     c0,0.002,0,0.003,0,0.005c0.034,0.148,0.076,0.297,0.079,0.45c0,0,0.002,0.001,0.003,0.001c-0.002,0.003-0.004,0.007-0.005,0.01     c0,0.005,0,0.009,0,0.013c0,0.006-0.001,0.01-0.002,0.015c0.005,0.022,0.023,0.045,0.023,0.07     c0.002,0.027-0.025,0.047-0.007,0.075c-0.06-0.015-0.114-0.1-0.145-0.167c0.014-0.069-0.024-0.109-0.031-0.176     c0.007-0.008,0.011-0.018,0.013-0.027C-0.962-3.392-0.965-3.417-0.967-3.44C-0.969-3.443-0.97-3.446-0.972-3.449     c-0.005-0.07-0.011-0.145-0.02-0.221c0-0.002-0.001-0.003-0.001-0.005c-0.009-0.045-0.015-0.089-0.02-0.134     c-0.014-0.066-0.029-0.132-0.052-0.189c0-0.003-0.037-0.033-0.021-0.053c-0.025,0.008-0.031-0.035-0.047-0.054     C-1.151-4.128-1.18-4.146-1.194-4.173c-0.041-0.003-0.04-0.004-0.076-0.008c0.004,0.009,0.008,0.018,0.016,0.023     c0.005-0.012,0.009,0,0,0c0,0.007-0.006,0.009-0.008,0.015c-0.023,0.004-0.036-0.01-0.023-0.022     c-0.006-0.017-0.028-0.018-0.053-0.016C-1.341-4.304-1.38-4.406-1.361-4.509c-0.008,0.001-0.008,0.012-0.008,0.023     C-1.399-4.669-1.4-4.812-1.43-4.974c0.001-0.02-0.018-0.02-0.023-0.031c0.016-0.049,0.007-0.053,0.008-0.092     c0.084-0.02,0.065-0.154-0.015-0.137c-0.005-0.073-0.003-0.202-0.03-0.268c-0.001-0.023-0.018-0.01-0.031-0.008     c0-0.012,0.001-0.024,0.002-0.038C-1.524-5.549-1.527-5.552-1.53-5.555c-0.041-0.01-0.02-0.063-0.022-0.091     C-1.56-5.718-1.573-5.804-1.575-5.875c-0.027-0.024-0.051-0.052-0.092-0.062C-1.669-5.9-1.697-5.939-1.72-5.929     c-0.027,0.095-0.006,0.208-0.008,0.305c-0.001,0.063-0.032,0.115-0.015,0.16c0.017,0.018,0.029-0.003,0.053,0     c0,0.104,0.041,0.216,0.008,0.306C-1.66-5.117-1.643-5.07-1.644-5.006c-0.006,0.025-0.022,0.04-0.038,0.054     C-1.685-4.911-1.692-4.89-1.69-4.853c0.018,0.259,0.055,0.537,0.084,0.809c0.012,0.102,0.031,0.202,0.023,0.283     c-0.015,0.149,0.045,0.31,0.03,0.442c-0.003,0.029-0.026,0.061-0.03,0.092c-0.01,0.067,0.007,0.122-0.023,0.16     c0.02,0.063,0.04,0.128,0.046,0.206c0.011,0.011,0.036,0.005,0.046,0.016C-1.518-2.75-1.481-2.669-1.483-2.586     C-1.485-2.517-1.528-2.452-1.499-2.38c-0.02,0.021-0.067,0.002-0.092,0C-1.6-2.362-1.611-2.348-1.607-2.318     c0.05,0.025,0.134,0.015,0.185,0.037c0.001,0.07,0.008,0.135,0.023,0.191c-0.028,0.088-0.058,0.171-0.077,0.267     c-0.011,0.024-0.036,0.034-0.076,0.03c-0.097,0.057-0.126,0.181-0.214,0.244c0.006,0.047-0.025,0.095-0.046,0.138     c-0.065,0.138-0.14,0.302-0.206,0.427c0.001,0.155,0.051,0.26,0.138,0.329c0.005,0.118,0.052,0.152,0.114,0.213     c0.043,0.042,0.091,0.073,0.13,0.107c0.042,0.036,0.09,0.089,0.13,0.114C-1.44-0.176-1.36-0.159-1.3-0.121     c0.087,0.055,0.147,0.157,0.229,0.214c0.026,0.018,0.05,0.045,0.076,0.061C-0.963,0.175-0.926,0.18-0.896,0.2     c0.029,0.02,0.048,0.055,0.077,0.076c0.049,0.037,0.114,0.059,0.167,0.092c0.057,0.036,0.101,0.076,0.153,0.114     c-0.041,0.055-0.1,0.089-0.161,0.123c-0.02,0.061-0.066,0.111-0.091,0.183c-0.027,0.078-0.021,0.173-0.076,0.206     c-0.018,0.003-0.017-0.015-0.038-0.008c-0.044,0.035-0.063,0.095-0.106,0.13c-0.008,0.023,0.012,0.023,0.015,0.038     C-1.073,1.259-1.12,1.53-1.026,1.696c0.039,0.002,0.039,0.058,0.078,0.038C-0.88,1.841-0.84,1.972-0.75,2.069     c0.238,0.261,0.768,0.288,1.007,0.016c-0.009-0.001-0.005-0.008,0-0.008C0.271,2.063,0.271,2.035,0.28,2.016     C0.285,2,0.293,2.023,0.302,2.023c0.004-0.009,0.01-0.02,0.014-0.029c0.006-0.022,0.008-0.036,0.018-0.046     c0-0.001,0.002-0.001,0.006-0.002c0.056-0.117,0.103-0.239,0.121-0.368c-0.002-0.001-0.007,0-0.014,0.004     c0-0.015,0.005-0.022,0.016-0.022c0.002-0.014,0.004-0.027,0.004-0.041c-0.006-0.104,0.004-0.19,0.012-0.318     C0.48,1.172,0.473,1.198,0.456,1.193c0.014-0.034,0.056-0.04,0.085-0.059c0.002-0.005,0.004-0.01,0.006-0.014V1.1     c-0.011-0.005,0.001-0.009,0,0c0.004-0.003,0.007-0.005,0.008-0.008c0.002-0.004,0.003-0.008,0.004-0.013     c0-0.002-0.001-0.005-0.002-0.008C0.543,1.053,0.529,1.034,0.514,1.015C0.464,0.968,0.367,0.95,0.302,0.902     c0.041-0.025,0.106,0.017,0.145,0.03c0.006-0.003,0.01-0.006,0.014-0.01c0.001-0.014,0.009-0.026,0.02-0.035     c0.002-0.008,0.003-0.015,0.005-0.023c0.089-0.003,0.193,0.011,0.206-0.068c0.027,0.002,0.042-0.005,0.061-0.008     c0.036-0.05,0.022-0.151,0.046-0.214c0.043-0.003,0.068,0.013,0.115,0.008c0.048,0.04,0.041,0.116,0.068,0.167     c0.021,0.041,0.067,0.06,0.069,0.107c0.051,0.034,0.15,0.103,0.221,0.046c0.019,0.065,0.01,0.159,0.023,0.229     c0.037,0,0.056,0.029,0.092,0.031C1.45,1.165,1.508,1.124,1.539,1.087C1.532,1.081,1.527,1.074,1.524,1.066     C1.495,1.045,1.467,1.043,1.455,1c-0.021-0.075,0.055-0.28,0-0.344c0.021-0.011,0.043-0.022,0.062-0.037     c0.002,0.004,0.004,0.006,0.006,0.01c0.02-0.007,0.045-0.003,0.057,0.019C1.59,0.654,1.6,0.655,1.615,0.643     c0.071,0.072,0.211,0.07,0.268-0.016C1.869,0.605,1.891,0.596,1.89,0.574C1.888,0.551,1.867,0.53,1.867,0.504     C1.869,0.467,1.914,0.429,1.89,0.398C1.853,0.371,1.928,0.327,1.928,0.284c-0.008-0.002-0.003-0.008,0-0.008     C1.959,0.235,2.02,0.162,1.983,0.1c0.018-0.012,0.02-0.04,0.03-0.061C2.011,0.013,1.972-0.025,2.005-0.037z M1.578-2.845     C1.574-2.842,1.582-2.851,1.578-2.845L1.578-2.845z M1.325-2.387C1.32-2.362,1.336-2.317,1.318-2.304     c0.003-0.023-0.02-0.02-0.023-0.038C1.289-2.345,1.281-2.348,1.279-2.357C1.255-2.358,1.243-2.339,1.241-2.373     C1.277-2.37,1.292-2.387,1.325-2.387z M1.195-2.335C1.201-2.339,1.192-2.331,1.195-2.335L1.195-2.335z M1.187-2.349     C1.199-2.344,1.187-2.339,1.187-2.349C1.173-2.346,1.164-2.351,1.165-2.365C1.178-2.365,1.185-2.359,1.187-2.349z M0.982-2.479     C0.979-2.476,0.987-2.485,0.982-2.479L0.982-2.479z M0.959-2.541C0.965-2.545,0.956-2.537,0.959-2.541L0.959-2.541z M0.417-2.953     C0.398-2.978,0.443-2.934,0.417-2.953L0.417-2.953z M0.372-2.807C0.368-2.804,0.377-2.812,0.372-2.807L0.372-2.807z M0.363-2.785     C0.369-2.79,0.361-2.781,0.363-2.785L0.363-2.785z M0.348-2.677C0.345-2.674,0.353-2.683,0.348-2.677L0.348-2.677z M-1.522-5.365     C-1.512-5.394-1.512-5.334-1.522-5.365L-1.522-5.365z M-1.522-5.424C-1.525-5.422-1.516-5.43-1.522-5.424L-1.522-5.424z      M-1.574-4.822c0.006,0.002,0.015,0,0.015,0.008C-1.566-4.816-1.574-4.815-1.574-4.822z M-1.636-5.54     C-1.631-5.544-1.639-5.536-1.636-5.54L-1.636-5.54z M-1.666-5.746C-1.67-5.743-1.662-5.751-1.666-5.746L-1.666-5.746z" fill="#FFFFFF"/>
        <path class="secondary" d="M1.959-0.296C1.951-0.265,1.982-0.294,1.959-0.296L1.959-0.296z" fill="#FFFFFF"/>
        <path class="secondary" d="M1.928,0.284c0.005,0,0.01-0.006,0-0.008C1.928,0.279,1.928,0.282,1.928,0.284z" fill="#FFFFFF"/>
        <path class="secondary" d="M1.89,0.398C1.899,0.399,1.895,0.387,1.89,0.398L1.89,0.398z" fill="#FFFFFF"/>
        <path class="secondary" d="M1.578-2.845C1.582-2.851,1.574-2.842,1.578-2.845L1.578-2.845z" fill="#FFFFFF"/>
        <path class="secondary" d="M1.318-2.304C1.336-2.317,1.32-2.362,1.325-2.387c-0.033,0-0.048,0.018-0.084,0.015     c0.002,0.033,0.014,0.014,0.038,0.015c0-0.008,0.01-0.006,0.016-0.008c0-0.008,0.01-0.006,0.016-0.008     c0,0.02-0.006,0.01-0.016,0.008c0,0.008-0.01,0.006-0.016,0.008c0.002,0.009,0.01,0.012,0.016,0.015c0-0.002,0-0.004,0-0.007     c0.009,0.001,0.004,0.007,0,0.007C1.298-2.324,1.321-2.328,1.318-2.304z" fill="#FFFFFF"/>
        <path class="secondary" d="M1.295-2.365c0.01,0.002,0.016,0.012,0.016-0.008C1.304-2.371,1.295-2.373,1.295-2.365z" fill="#FFFFFF"/>
        <path class="secondary" d="M1.295-2.342c0.004,0,0.009-0.006,0-0.007C1.295-2.346,1.295-2.344,1.295-2.342z" fill="#FFFFFF"/>
        <path class="secondary" d="M1.279-2.357c0.006-0.002,0.016,0,0.016-0.008C1.289-2.363,1.279-2.365,1.279-2.357z" fill="#FFFFFF"/>
        <path class="secondary" d="M1.195-2.335C1.192-2.331,1.201-2.339,1.195-2.335L1.195-2.335z" fill="#FFFFFF"/>
        <path class="secondary" d="M1.187-2.349C1.187-2.339,1.199-2.344,1.187-2.349L1.187-2.349z" fill="#FFFFFF"/>
        <path class="secondary" d="M1.165-2.365C1.164-2.351,1.173-2.346,1.187-2.349C1.185-2.359,1.178-2.365,1.165-2.365z" fill="#FFFFFF"/>
        <path class="secondary" d="M0.982-2.479C0.987-2.485,0.979-2.476,0.982-2.479L0.982-2.479z" fill="#FFFFFF"/>
        <path class="secondary" d="M0.959-2.541C0.956-2.537,0.965-2.545,0.959-2.541L0.959-2.541z" fill="#FFFFFF"/>
        <path class="secondary" d="M0.417-2.953C0.443-2.934,0.398-2.978,0.417-2.953L0.417-2.953z" fill="#FFFFFF"/>
        <path class="secondary" d="M0.372-2.807C0.377-2.812,0.368-2.804,0.372-2.807L0.372-2.807z" fill="#FFFFFF"/>
        <path class="secondary" d="M0.363-2.785C0.361-2.781,0.369-2.79,0.363-2.785L0.363-2.785z" fill="#FFFFFF"/>
        <path class="secondary" d="M0.348-2.677C0.353-2.683,0.345-2.674,0.348-2.677L0.348-2.677z" fill="#FFFFFF"/>
        <path class="secondary" d="M0.269,2.084C0.273,2.078,0.276,2.071,0.28,2.065C0.273,2.07,0.273,2.081,0.257,2.077l0.005,0.008     C0.261,2.084,0.265,2.084,0.269,2.084z" fill="#FFFFFF"/>
        <path class="secondary" d="M-0.355,1.757c0.001,0,0.005-0.004,0.001-0.001C-0.354,1.757-0.355,1.757-0.355,1.757z" fill="#FFFFFF"/>
        <path class="secondary" d="M-1.285-4.166C-1.276-4.166-1.28-4.176-1.285-4.166L-1.285-4.166z" fill="#FFFFFF"/>
        <path class="secondary" d="M-1.505-5.243C-1.504-5.244-1.504-5.243-1.505-5.243L-1.505-5.243z" fill="#FFFFFF"/>
        <polygon class="secondary" points="-1.506,-5.242 -1.505,-5.243 -1.507,-5.241    " fill="#FFFFFF"/>
        <path class="secondary" d="M-1.522-5.365C-1.512-5.334-1.512-5.394-1.522-5.365L-1.522-5.365z" fill="#FFFFFF"/>
        <path class="secondary" d="M-1.522-5.424C-1.516-5.43-1.525-5.422-1.522-5.424L-1.522-5.424z" fill="#FFFFFF"/>
        <path class="secondary" d="M-1.636-5.54C-1.639-5.536-1.631-5.544-1.636-5.54L-1.636-5.54z" fill="#FFFFFF"/>
        <path class="secondary" d="M-1.666-5.746C-1.662-5.751-1.67-5.743-1.666-5.746L-1.666-5.746z" fill="#FFFFFF"/>
        <path class="secondary" d="M-1.666-5.937C-1.666-5.946-1.678-5.941-1.666-5.937L-1.666-5.937z" fill="#FFFFFF"/>
      </g>
      <g>
      </g>
    </g>
  </g></svg>