<?xml version="1.0" standalone="no"?>
<svg xmlns="http://www.w3.org/2000/svg" viewBox="-6.37 -6.37 12.74 12.74" color="#212121" width="75" height="75"><g transform="matrix(1 0 0 -1 0 0)">
    <g xmlns="http://www.w3.org/2000/svg">
      <circle class="primary" fill="currentColor" cx="0" cy="0" r="6.245"/>
      <path class="secondary" d="M0,6.12c3.38,0,6.12-2.74,6.12-6.12S3.38-6.12,0-6.12S-6.12-3.38-6.12,0S-3.38,6.12,0,6.12 M0,6.37    c-3.513,0-6.37-2.857-6.37-6.37S-3.513-6.37,0-6.37S6.37-3.513,6.37,0S3.513,6.37,0,6.37L0,6.37z" fill="#FFFFFF"/>
    </g>
    <g xmlns="http://www.w3.org/2000/svg" id="Towed_AA_Gun_1_">
      <path class="secondary" d="M4.392-1.966L4.44-0.895l0.135,0.223l0.049,0.338L4.507,0.033L4.131,0.478H3.852L3.454,0.796l-0.676-0.01    L2.401,0.312L2.104,0.709L1.447,0.68L1.292,1.114L0.288,1.086l-0.27-0.145l-0.105,0.058l-0.529-0.271l-1.558,1.246l-0.238,0.104    l-1.336,1.188l-0.074,0.162l-0.281,0.237l-0.074-0.044l-0.061-0.09l1.87-1.602l0.03-0.148l1.544-1.188l-0.154-0.155L-0.996,0.38    l-1.462,1.118L-2.68,1.632l-1.855,1.721l-0.089-0.118l0.223-0.193l0.104-0.073l1.721-1.544l0.09-0.194l0.549-0.459L-2.06,0.525    l-0.309,0.048l-0.173-0.154l0.019-0.202l0.521-0.551l0.019-0.435l-0.163-0.203l-0.213-0.396L-2.676-1.84L-3.052-2.4l1.195-0.009    l0.203-0.425l0.038-0.074C-1.617-2.899-1.62-2.89-1.62-2.881l0.054-0.126l-0.05,0.099c0.041-0.425,0.47-0.757,0.995-0.757    c0.561,0,1.121,0.536,1.121,1c0-0.462,0.576-0.836,1.288-0.836S3.08-3.127,3.08-2.665c0,0,0.52-0.154,0.73-0.4l0.04-0.271    l0.251-0.185l0.404,0.407l-0.335,0.3l0.009,0.771L4.392-1.966z" fill="#FFFFFF"/>
    </g>
  </g></svg>