<?xml version="1.0" standalone="no"?>
<svg xmlns="http://www.w3.org/2000/svg" viewBox="-6.37 -6.37 12.74 12.74" color="#212121" width="75" height="75"><g transform="matrix(1 0 0 -1 0 0)">
    <g xmlns="http://www.w3.org/2000/svg">
      <circle class="primary" fill="currentColor" cx="0" cy="0" r="6.245"/>
      <path class="secondary" d="M0,6.12c3.38,0,6.12-2.74,6.12-6.12S3.38-6.12,0-6.12S-6.12-3.38-6.12,0S-3.38,6.12,0,6.12 M0,6.37    c-3.513,0-6.37-2.857-6.37-6.37S-3.513-6.37,0-6.37S6.37-3.513,6.37,0S3.513,6.37,0,6.37L0,6.37z" fill="#FFFFFF"/>
    </g>
    <path xmlns="http://www.w3.org/2000/svg" id="Wheeled_MRL_1_" class="secondary" d="M5.709-0.536H4.767l-0.28,0.209v0.144l0.2,0.154L4.99-0.122l0.006,0.019   c0.027-0.054,0.082-0.09,0.147-0.09c0.091,0,0.166,0.074,0.166,0.167c0,0.092-0.075,0.166-0.166,0.166   c-0.031,0-0.061-0.009-0.085-0.022l0.105,0.366l0.195,0.894l-0.439,0.08l-0.016-0.04L1.11,2.048L0.946,1.194l1.121-0.213V0.812   L2.84,0.566V0.411l0.066-0.08L2.591,0.225v-0.347L2.45-0.234H2.017v-0.088H1.724l-0.04,0.08l-0.19-0.19h-2.198v0.533h-0.058h-0.014   v0.171c0,0.159-0.129,0.29-0.29,0.29s-0.29-0.131-0.29-0.29V0.101h-0.051v0.511l-0.027,0.003c0.007,0.031,0.012,0.064,0.012,0.097   v0.21c0,0.195-0.13,0.354-0.289,0.354c-0.16,0-0.291-0.159-0.291-0.354v-0.21c0-0.008,0-0.016,0.001-0.022h-0.073l-0.013,0.719   c0,0,0.071,0.271-0.294,0.352c0,0-1.264,0.085-1.467-0.119c0,0-0.014-0.058,0.049-0.08l-0.213-0.721c0,0-1.353-0.076-1.535-0.299   c0,0-0.045-0.222-0.045-0.365h-0.045v-0.08h0.09v-0.596h-0.09v-0.098c0,0-0.071-0.08-0.071-0.4h1.05h0.143l0.068-0.012   C-4.48-1.096-4.499-1.188-4.499-1.284c0-0.422,0.343-0.764,0.766-0.764S-2.97-1.706-2.97-1.284c0,0.004,0,0.006,0,0.01l0.047-0.01   h0.381v-0.062h0.312v-0.039h0.071v0.049h0.36v-0.049h0.074v0.059h0.2v0.103h0.688c0,0-0.013-0.103,0.229-0.103   c0.24,0,0.244,0.088,0.244,0.088H1.16c0-0.014-0.001-0.029-0.001-0.045c0-0.422,0.342-0.764,0.766-0.764   c0.375,0,0.687,0.271,0.752,0.628c0.01-0.007,0.02-0.016,0.029-0.021C2.7-1.454,2.696-1.469,2.696-1.484c0-0.055,0.043-0.1,0.1-0.1   c0.047,0,0.089,0.036,0.097,0.084c0.003,0,0.005-0.001,0.008-0.001c0.013,0,0.024,0.001,0.038,0.003   c0.006-0.049,0.047-0.086,0.097-0.086c0.055,0,0.1,0.045,0.1,0.1c0,0.022-0.009,0.041-0.021,0.058   C3.127-1.417,3.136-1.41,3.144-1.402C3.2-1.767,3.517-2.048,3.9-2.048c0.422,0,0.765,0.342,0.765,0.764   c0,0.168-0.054,0.321-0.144,0.447L4.583-0.83l0.379-0.009v-0.084h0.045v0.084h0.169h0.359v0.044   c0.018-0.012,0.039-0.019,0.062-0.019c0.058,0,0.107,0.047,0.107,0.107c0,0.046-0.031,0.085-0.074,0.1l0.079,0.025   C5.709-0.582,5.709-0.536,5.709-0.536z" fill="#FFFFFF"/>
  </g></svg>