<?xml version="1.0" standalone="no"?>
<svg xmlns="http://www.w3.org/2000/svg" viewBox="-6.37 -6.37 12.74 12.74" color="#212121" width="75" height="75"><g transform="matrix(1 0 0 -1 0 0)">
	<g xmlns="http://www.w3.org/2000/svg">
		<circle class="primary" fill="currentColor" cx="0" cy="0" r="6.245"/>
		<path class="secondary" d="M0,6.12c3.38,0,6.12-2.74,6.12-6.12S3.38-6.12,0-6.12S-6.12-3.38-6.12,0S-3.38,6.12,0,6.12 M0,6.37    c-3.513,0-6.37-2.857-6.37-6.37S-3.513-6.37,0-6.37S6.37-3.513,6.37,0S3.513,6.37,0,6.37L0,6.37z" fill="#FFFFFF"/>
	</g>
	<path xmlns="http://www.w3.org/2000/svg" id="AH-IZ_Viper_2_" class="secondary" d="M-5.094,0.275l-0.504-0.966l0.133-0.07l0.326,0.626v-0.002l0.567-0.821v-0.247   l-0.499-0.26l-0.3-0.025l0.323-0.02l1.132,0.384l2.574-0.445v-0.167h0.179v0.167l1.041-0.104c0,0,0.054-0.125,0.214-0.125   c0.161,0,0.187,0.106,0.187,0.106h0.407v-0.389H0.494c-0.148,0-0.172,0.033-0.172,0.033s0.003-0.002,0-0.009L0.236-2.053   c0-0.006,0-0.031,0.024-0.055c0.036-0.041,0.114-0.06,0.233-0.06h2.869l0.005,0.001C3.372-2.165,3.471-2.143,3.532-2.08L3.471-2.02   C3.438-2.054,3.378-2.075,3.352-2.082H2.599v0.389h0.188l0.206-0.128h1.452L4.633-1.7l1.115,0.121v0.068l-1.11-0.05v0.042   L5.145-1.29l0.019,0.008C5.196-1.36,5.275-1.415,5.365-1.415c0.122,0,0.221,0.099,0.221,0.221c0,0.027-0.004,0.053-0.014,0.077   l0.011,0.005v0.183h0.096c0,0,0.062,0.071-0.096,0.104L5.438-0.74H5.094l-0.05,0.071v0.577h0.228v0.026H4.848v0.053H4.799v-0.121   h0.049v0.042h0.083v-0.566l-0.064,0.01c0,0-0.652,0.621-1.485,0.653L2.523,0.069v0.097L2.458,0.198L2.599,0.38L2.564,0.401   L2.326,0.215c0,0-0.432,0.682-0.432,0.672c0-0.011-0.081,0-0.081,0v-0.1H1.631v0.367l4.402,0.292L1.624,1.375L1.539,1.332H1.335   L1.24,1.357l-4.446,0.096l4.357-0.296l0.016-0.342H1.063l-0.02-0.021l-0.15-0.033L0.85,0.883H0.657L0.653,0.7l-0.05-0.056   L0.607,0.58h-0.853c0,0-0.35,0.042-0.435-0.314h-0.216V0.144h0.128V0.091l-0.424-0.157H-1.52c0,0-0.202-0.158-0.018-0.411h0.133   l-0.129-0.129L-3.8-0.619l-0.53,0.445l-0.049,0.039l0.361-0.205l0.074,0.13l-0.948,0.539l0.506,0.972L-4.518,1.37L-5.02,0.406   l-0.945,0.537l-0.073-0.131L-5.094,0.275z M0.773-1.693h1.739v-0.389H0.773V-1.693z" fill="#FFFFFF"/>
</g></svg>