<?xml version="1.0" standalone="no"?>
<svg xmlns="http://www.w3.org/2000/svg" viewBox="-6.37 -6.37 12.74 12.74" color="#212121" width="75" height="75"><g transform="matrix(1 0 0 -1 0 0)">
	<g xmlns="http://www.w3.org/2000/svg">
		<circle class="primary" fill="currentColor" cx="0" cy="0" r="6.245"/>
		<path class="secondary" d="M0,6.12c3.38,0,6.12-2.74,6.12-6.12S3.38-6.12,0-6.12S-6.12-3.38-6.12,0S-3.38,6.12,0,6.12 M0,6.37    c-3.513,0-6.37-2.857-6.37-6.37S-3.513-6.37,0-6.37S6.37-3.513,6.37,0S3.513,6.37,0,6.37L0,6.37z" fill="#FFFFFF"/>
	</g>
	<path xmlns="http://www.w3.org/2000/svg" id="AH-I_Supercobra_2_" class="secondary" d="M-5.818-0.032h0.622l0.76-1.216l0.079-0.099l-0.445-0.254h-0.109l0.109-0.022   L-4.3-1.382l4.122-0.503c0,0,0.289-0.108,0.759-0.108h0.562l0.134-0.313L1.196-2.292C1.07-2.289,0.97-2.192,0.971-2.086   c0,0.016-0.016,0.032-0.032,0.032C0.921-2.053,0.907-2.063,0.907-2.079C0.903-2.217,1.034-2.331,1.195-2.334l0.103-0.002v-0.001   l0.004,0.002L2.92-2.377v-0.001l0.002,0.001L3.438-2.39c0.161-0.004,0.298,0.104,0.3,0.242c0,0.015-0.017,0.028-0.035,0.028   C3.685-2.119,3.669-2.131,3.669-2.147c-0.002-0.105-0.105-0.19-0.231-0.187L2.975-2.35l-0.15,0.356H3.13h0.068H3.97   c0.031,0,0.076,0,0.125,0h0.314c0.049,0,0.096,0,0.125,0h0.03l1.097,0.323L5.653-1.64L4.556-1.97L4.554-1.971   C4.562-1.958,4.567-1.944,4.57-1.929l1.08,0.323L5.637-1.55L4.576-1.867C4.574-1.82,4.558-1.778,4.532-1.745l0.072,0.04   c0,0,0.2,0.001,0.396,0.086C5.031-1.66,5.079-1.686,5.129-1.686c0.099,0,0.182,0.099,0.182,0.219c0,0.035-0.007,0.068-0.02,0.097   c0.008,0.012,0.014,0.025,0.02,0.039c0,0,0.062,0.354-0.628,0.474c0,0-0.523,0.634-1.056,0.678   C3.093-0.134,2.618-0.148,2.618-0.148S2.61-0.125,2.597-0.09c0.026,0.014,0.044,0.044,0.044,0.079c0,0.047-0.032,0.084-0.071,0.086   C2.597,0.1,2.614,0.161,2.614,0.203c0,0.073-0.052,0.157-0.116,0.157H2.35c-0.015,0-0.03-0.013-0.044-0.02   c-0.038,0.02-0.078,0.02-0.12,0.02H1.959L1.885,0.412L1.872,0.538L2.01,0.767l4.189,0.197L1.872,0.943L1.841,0.949h-0.02   c0,0-0.036,0.093-0.079,0.093c-0.046,0-0.083-0.093-0.083-0.093H1.63L1.6,0.938l-5.327,0.233l5.242-0.43L1.56,0.529V0.413   c0,0.028-0.044,0.044-0.082,0.044c-0.07,0-0.12-0.039-0.12-0.105c0-0.002,0.007,0.007,0.007,0.007H0.991L0.385-0.229H0.344   c0,0,0.017-0.046,0.017-0.04v0.072c0,0.102-0.082,0.184-0.173,0.184c-0.09,0-0.169-0.083-0.169-0.184v-0.072   c0-0.007,0.006,0.04,0.006,0.04h-0.28l-0.243-0.08v-0.419l0.218-0.089h0.155h-0.017h-3.502l-0.943,0.86l0.081-0.076h0.664   c0,0,0.121,0.196-0.01,0.392h-0.662l-0.209-0.164l-0.288,0.222c0,0-0.148,0.092-0.438-0.037l0.071-0.216h-0.44   C-5.818,0.164-5.989-0.032-5.818-0.032z M1.217-1.994h1.53l0.149-0.353L1.353-2.324L1.217-1.994z" fill="#FFFFFF"/>
</g></svg>