<?xml version="1.0" standalone="no"?>
<svg xmlns="http://www.w3.org/2000/svg" viewBox="-6.37 -6.37 12.74 12.74" color="#212121" width="75" height="75"><g transform="matrix(1 0 0 -1 0 0)">
	<g xmlns="http://www.w3.org/2000/svg">
		<circle class="primary" fill="currentColor" cx="0" cy="0" r="6.245"/>
		<path class="secondary" d="M0,6.12c3.38,0,6.12-2.74,6.12-6.12S3.38-6.12,0-6.12S-6.12-3.38-6.12,0S-3.38,6.12,0,6.12 M0,6.37    c-3.513,0-6.37-2.857-6.37-6.37S-3.513-6.37,0-6.37S6.37-3.513,6.37,0S3.513,6.37,0,6.37L0,6.37z" fill="#FFFFFF"/>
	</g>
	<path xmlns="http://www.w3.org/2000/svg" id="AH-64_Apache_1_" class="secondary" d="M3.611-3.034c-0.442-0.19-0.523,0.71-0.049,0.605c0.004,0.131,0.035,0.166,0.075,0.303   c-0.161-0.005-0.333,0.008-0.51,0.024C2.969-2.274,2.841-2.492,2.662-2.63c0.011-0.08,0.081-0.121,0.107-0.194   C2.69-2.782,2.604-2.656,2.501-2.703C2.463-2.788,2.51-2.849,2.479-2.95C2.428-3.104,2.28-3.157,2.187-3.142   c-0.304,0.05-0.301,0.64,0.026,0.644C2.277-2.497,2.316-2.55,2.347-2.552c0.01,0,0.041,0.041,0.048,0.043   c0.044,0.013,0.104-0.016,0.188,0.002C2.58-2.342,2.694-2.23,2.735-2.075C2.402-2.054,2.049-2.003,1.73-2.003   C1.699-2.016,1.674-2.04,1.651-2.066C1.604-2.062,1.589-2,1.555-2.02c-0.4-0.006-0.788-0.029-1.186-0.037   c0.005-0.034,0.003-0.071-0.011-0.117c-0.111,0.009-0.234,0.032-0.359,0.06c0.043,0.058,0.187-0.038,0.23,0.02   c-0.193,0.087-0.471-0.043-0.704,0.05C-0.502-1.962-0.324-1.965-0.32-1.93c-0.022-0.005-0.008,0.064,0.01,0.051   C-0.623-1.84-0.946-1.765-1.194-1.606c-0.067-0.021-0.145-0.025-0.229-0.02C-1.44-1.656-1.422-1.741-1.47-1.723   C-1.574-1.71-1.475-1.564-1.534-1.524c-0.337,0.048-0.742,0.2-0.945,0.046C-2.523-1.456-2.5-1.389-2.549-1.371   C-2.658-1.358-2.76-1.337-2.848-1.336c-0.101,0-0.089,0.002-0.192,0.026c-0.113,0.026-0.221,0.038-0.318-0.001   C-3.372-1.374-3.354-1.503-3.4-1.516c-0.061,0.044,0.003,0.17-0.047,0.221c-0.073,0.032-0.066-0.056-0.128-0.04   c-0.177,0.176-0.664,0.104-0.818,0.14c-0.089-0.2-0.197-0.368-0.297-0.548C-4.844-1.76-4.911-1.672-4.893-1.569   c0.016,0.095,0.137,0.119,0.12,0.2c-0.028,0.059-0.077,0.01-0.12-0.002c0.073,0.049,0.055,0.134,0.098,0.219   c0.044,0.031,0.062-0.053,0.114-0.023C-4.605-1.02-4.47-0.978-4.442-0.787C-4.486-0.712-4.561-0.66-4.601-0.583   c-0.438,0.049-0.796-0.104-1.242,0.014c0.281,0.104,0.581,0.092,0.92,0.091C-4.9-0.47-4.888-0.444-4.872-0.422   c0.165-0.005,0.317,0.009,0.468,0.024C-4.37-0.331-4.459-0.347-4.48-0.316C-4.5-0.245-4.534-0.183-4.559-0.115   C-4.598-0.11-4.621-0.131-4.654-0.134C-4.723,0.191-4.8,0.51-4.914,0.805c-0.094-0.262-0.156-0.573-0.23-0.867   c-0.151,0.028-0.21,0.117-0.307,0.182c0.164,0.275,0.328,0.547,0.497,0.812c-0.029,0.08,0.001,0.199-0.114,0.222   c-0.03,0.044,0.033,0.035,0.03,0.086c-0.178,0.326-0.367,0.644-0.574,0.951c0,0.004,0.002,0.009,0.004,0.013   c0.045,0.041,0.235,0.247,0.299,0.23c0.049-0.013,0.098-0.2,0.138-0.293c0.034-0.078,0.088-0.266,0.152-0.295   C-4.917,1.799-4.873,1.9-4.733,1.827c0.046,0.185,0.05,0.436,0.094,0.656c0.178-0.06,0.269-0.174,0.366-0.286   C-4.34,2.073-4.425,1.973-4.491,1.844c0.033-0.034,0.039-0.085,0.055-0.13C-2.514,1.458-0.357,1.21,1.47,0.949   c0.106-0.015,0.241-0.03,0.312,0.042C1.47,1.073,1.28,1.222,1.08,1.373C0.721,1.643,0.392,1.916,0.023,2.17   c0.23,0.036,0.518-0.017,0.757,0.005C1.203,1.81,1.569,1.407,2.008,1.052c0.048,0.045,0.021,0.12,0.005,0.158   c0.002,0.045,0.086,0.003,0.051,0.056C2.073,1.328,2.002,1.275,1.965,1.3C1.94,1.338,1.962,1.407,1.958,1.46   C1.76,1.464,1.524,1.581,1.608,1.821c0.07,0.206,0.435,0.183,0.743,0.14C2.69,1.915,2.965,1.865,2.869,1.579   C2.817,1.424,2.654,1.405,2.48,1.419C2.41,1.416,2.528,1.37,2.53,1.343C2.519,1.273,2.423,1.29,2.509,1.241   C2.487,1.186,2.407,1.217,2.377,1.175c0.025-0.084-0.102-0.237-0.009-0.303c0.091-0.064,0.083,0.046,0.173,0.071   C2.708,0.792,2.924,0.897,3.064,0.85C3.331,0.761,3.665,0.781,3.99,0.781c1.611-0.003,0.401-0.008,1.973-0.023   C5.964,0.762,5.966,0.766,5.966,0.77c0.018-0.003,0.035-0.006,0.051-0.01c0.007-0.021,0.038-0.027,0.059-0.039   C4.165,0.705,5.119,0.733,3.2,0.73C3.128,0.699,3.05,0.68,2.973,0.657C2.896,0.678,2.785,0.682,2.698,0.673   C3.249,0.487,3.871,0.35,4.469,0.194C3.851,0.236,3.214,0.503,2.556,0.623C2.501,0.58,2.489,0.462,2.491,0.371   C2.448,0.347,2.353,0.403,2.309,0.382C2.3,0.295,2.331,0.236,2.374,0.183c0.073-0.006,0.155-0.025,0.221-0.019   C2.63,0.201,2.628,0.292,2.646,0.353c0.009-0.065,0.007-0.135,0.027-0.191c0.05,0.025,0.123,0.014,0.188,0.015   c0.038,0.061-0.078,0.053-0.02,0.096c0.1,0.001,0.051-0.054,0.062-0.092c0.142-0.038,0.23-0.112,0.243-0.234   c0.297-0.012,0.628-0.082,0.847-0.199c0.13-0.069,0.271-0.18,0.409-0.269c0.158-0.1,0.33-0.178,0.424-0.258   c0.152-0.132,0.2-0.345,0.346-0.454c0.147-0.023,0.24-0.157,0.437-0.183c0.062-0.076-0.008-0.202,0.152-0.229   C5.8-1.793,5.78-1.955,5.681-2.039c-0.068-0.058-0.15-0.028-0.247-0.043c-0.1-0.014-0.179-0.045-0.288-0.047   c-0.315-0.005-0.693-0.04-0.949-0.045c0.005-0.082,0.086-0.112,0.109-0.181C4.25-2.385,4.212-2.211,4.164-2.272   c0.016-0.033,0-0.088,0.075-0.082C4.144-2.544,4.101-2.693,4.008-2.85 M-0.936-0.534c0.005,0.06-0.04,0.131,0.011,0.184   c0.118,0.015,0.182-0.155,0.286-0.151c0.019,0.14-0.007,0.251,0.03,0.404c0.096,0.044,0.238,0.067,0.36,0.02   c0.142,0.028,0.286,0.069,0.437,0.057c0.037-0.003,0.073-0.026,0.113-0.023C0.363-0.04,0.446,0.019,0.53,0.042   c0.15,0.04,0.292,0.032,0.418,0.1c0.017-0.015,0.01-0.044,0.013-0.068c0.168,0.044,0.351,0.067,0.503,0.135   C1.498,0.23,1.466,0.247,1.48,0.285c0.149-0.026,0.23-0.037,0.359-0.059C1.878,0.339,1.792,0.371,1.84,0.49   c-0.029,0.011-0.032-0.018-0.065,0c0.058,0.104-0.047,0.119-0.036,0.22C1.515,0.785,1.263,0.743,1.172,0.851   C-0.544,0.885-2.58,1.4-4.378,1.556c-0.001-0.053,0.106-0.06,0.141-0.094c0.1-0.098,0.04-0.275,0.059-0.422   c0.014-0.104,0.091-0.235,0.138-0.36c0.126-0.334,0.272-0.763,0.406-1.062c0.175-0.041,0.287,0.011,0.448-0.012   c0.017-0.028-0.002-0.095-0.032-0.099C-2.503-0.505-1.698-0.507-0.936-0.534z M2.046,0.329C1.995,0.339,1.944,0.35,1.894,0.36   C1.872,0.295,1.889,0.255,1.887,0.203c0.054-0.014,0.093-0.007,0.134,0C2.028,0.245,2.037,0.287,2.046,0.329z M3.984-2.832   C3.94-2.849,3.902-2.874,3.895-2.946C3.93-2.917,3.969-2.892,3.984-2.832z" fill="#FFFFFF"/>
</g></svg>