<?xml version="1.0" standalone="no"?>
<svg xmlns="http://www.w3.org/2000/svg" viewBox="-6.37 -6.37 12.74 12.74" color="#212121" width="75" height="75"><g transform="matrix(1 0 0 -1 0 0)">
	<g xmlns="http://www.w3.org/2000/svg">
		<circle class="primary" fill="currentColor" cx="0" cy="0" r="6.245"/>
		<path class="secondary" d="M0,6.12c3.38,0,6.12-2.74,6.12-6.12S3.38-6.12,0-6.12S-6.12-3.38-6.12,0S-3.38,6.12,0,6.12 M0,6.37    c-3.513,0-6.37-2.857-6.37-6.37S-3.513-6.37,0-6.37S6.37-3.513,6.37,0S3.513,6.37,0,6.37L0,6.37z" fill="#FFFFFF"/>
	</g>
	<path xmlns="http://www.w3.org/2000/svg" id="AH-6_Little_Bird_2_" class="secondary" d="M-5.927-0.816l0.086-0.146l0.645,0.412l0.006,0.104l0.186,0.129h0.136l0.038-0.021   l0.036,0.027H-4.7v-0.976h0.081c0,0,0.027-0.13-0.109-0.163c0,0,0.125-0.032,0.142,0.168h0.109L-4.16-0.41v0.087l2.765,0.092   c0,0,0.509-0.119,0.933-0.509l0.037-0.022v-0.444h0.141v-0.076l0.185-0.092l-0.037-0.13c0,0,0.282-0.173,1.04-0.292l0.152-0.043   v-0.082H1.24l0.244-0.606h-0.06v-0.13h3.263c0,0,0.272,0,0.45,0.178c0,0,0.162-0.043,0.081,0.119c0,0-0.021,0.082-0.075,0.012   c0,0-0.136-0.201-0.347-0.201H3.857l-0.098,0.22h0.147v0.086H3.715L3.597-1.878c0,0,0.292,0.043,0.46,0.086   c0,0,0.114-0.043,0.099-0.163l-0.314-0.12c0,0-0.022-0.043-0.017-0.07l0.38,0.125c0,0,0.14,0.092,0.156,0.325   c0,0,0.303,0.098,0.489,0.238c0,0,0.28-0.114,0.406-0.135c0,0,0.048,0.033,0.016,0.048c-0.034,0.018-0.19,0.055-0.19,0.055   l0.141,0.158v0.075L5.174-1.25v0.152L5.146-1.082c0,0,0.358,0.97-0.91,1.544c0,0-0.694,0.309-1.577,0.174L2.545,0.913   c0,0-0.037,0.092-0.125,0.097l0.223,0.012v0.184l3.336,0.109L2.463,1.368v0.065h0.224c0,0-0.147,0.152-0.375,0.152   c-0.227,0-0.396-0.157-0.396-0.157h0.229V1.384l-5.941-0.119l5.768-0.06l0.011-0.168c0,0-1.426-0.097-1.768-0.173   c0,0-0.069-0.016-0.017-0.141l0.109-0.299L-0.09,0.36c0,0-0.112,0.054-0.053,0.146l0.097,0.184l0.06,0.011v0.022l-0.558-0.06   l0.006-0.027h0.042l-0.107-0.293l-0.174-0.027l-0.162,0.125c0,0-0.044-0.005-0.034-0.038l0.022-0.087l-3.203-0.364l-0.109,0.19   l0.268,0.169l-0.088,0.14l-0.255-0.14L-4.88,1.362l0.06,0.027v0.033l-0.282-0.011l-0.135,0.163h-0.207L-5.38,1.4l-0.103-0.027   l0.114-0.022l0.097-0.249l0.055-0.006L-4.8,0.04c0,0-0.086-0.011-0.054-0.087c0,0,0.032-0.021,0.059-0.021l0.019-0.027   l-0.137-0.086l-0.081,0.005l-0.027-0.07l-0.2-0.125l-0.061-0.005L-5.927-0.816z M4.643-0.323h0.369   c0.205-0.429,0.026-0.759,0.026-0.759S4.994-1.077,4.936-1.104c-0.06-0.027-0.043-0.103-0.043-0.103L4.659-1.224   C4.93-0.805,4.643-0.323,4.643-0.323z M4.593-0.236c0,0-0.303,0.482-0.888,0.661v0.114c0,0,0.765-0.054,1.253-0.774H4.593V-0.236z    M3.331-0.859L2.979-0.167c-0.065,0.174-0.043,0.613,0.45,0.586s0.986-0.655,0.986-0.655v-0.656   C4.29-0.952,3.818-1.033,3.818-1.033H3.666l0.013,0.038C3.737-0.919,3.684-0.8,3.645-0.822C3.607-0.844,3.331-0.859,3.331-0.859z    M1.536-1.928c0.987-0.146,1.8-0.005,1.8-0.005L3.44-2.166L3.099-2.334v-0.043l0.384,0.119l0.082-0.238L3.554-2.551L1.743-2.534   L1.536-1.928z" fill="#FFFFFF"/>
</g></svg>