<?xml version="1.0" standalone="no"?>
<svg xmlns="http://www.w3.org/2000/svg" viewBox="-6.37 -6.37 12.74 12.74" color="#212121" width="75" height="75"><g transform="matrix(1 0 0 -1 0 0)">
	<g xmlns="http://www.w3.org/2000/svg">
		<circle class="primary" fill="currentColor" cx="0" cy="0" r="6.245"/>
		<path class="secondary" d="M0,6.12c3.38,0,6.12-2.74,6.12-6.12S3.38-6.12,0-6.12S-6.12-3.38-6.12,0S-3.38,6.12,0,6.12 M0,6.37    c-3.513,0-6.37-2.857-6.37-6.37S-3.513-6.37,0-6.37S6.37-3.513,6.37,0S3.513,6.37,0,6.37L0,6.37z" fill="#FFFFFF"/>
	</g>
	<path xmlns="http://www.w3.org/2000/svg" id="CH-46_Sea_Knight_1_" class="secondary" d="M4.191,0.76c0,0,0.191,0.045,0.193-0.03c0.021-0.671,0.937-1.693,0.937-1.693   S5.728-1.067,5.75-1.389c0.034-0.608-0.778-0.506-0.778-0.506L4.197-1.906L4.14-2.584c0,0,0.079-0.057,0.067-0.167   C4.197-2.86,4.168-2.866,4.056-2.86C3.941-2.854,3.919-2.768,3.931-2.676c0.011,0.091,0.125,0.103,0.125,0.103l0.057,0.655   L2.676-1.906c0,0-0.017-0.23-0.058-0.23c-0.039,0-0.088,0.264-0.088,0.264L1.637-1.837c0,0-0.08-0.15-0.216-0.15   S1.14-1.826,1.14-1.826l-3.538,0.023v-0.23c0,0,0.147-0.046,0.147-0.207s-0.092-0.253-0.238-0.23S-2.693-2.4-2.693-2.239   s0.204,0.207,0.204,0.207l0.012,0.219c0,0,0.214,0-0.87,0.022c-1.085,0.023-2.786,1.793-2.566,2.138   c0.125,0.08,0.238,0.126,0.238,0.126s0.339,1.402,0.45,1.459c0.113,0.058,0.68,0,0.68,0l0.157,0.138l-0.374,0.043l-0.654-0.101   v0.104l0.497,0.101L-5.529,2.3v0.092l1.211-0.172l6.125-1.046l0.34-0.103L2.134,0.99l-6.263,1.068l0.013-0.149   c0,0,0.751-0.092,0.96-0.206c0.209-0.115,0.836-1.38,0.836-1.38l0.093-0.195L1.976,0.07l0.759,0.311L2.664,0.53L2.54,0.542   c0,0-0.022,0.062,0.024,0.104c0.045,0.04,1.469,0.229,1.469,0.229L2.076,0.783v0.092l0.995,0.139l0.012,0.08l-3.537-0.092   l0.022,0.081l4.034,0.022L6.059,0.71L6.015,0.596L4.146,0.921L4.191,0.76z" fill="#FFFFFF"/>
</g></svg>