<?xml version="1.0" standalone="no"?>
<svg xmlns="http://www.w3.org/2000/svg" viewBox="-6.37 -6.37 12.74 12.74" color="#212121" width="75" height="75"><g transform="matrix(1 0 0 -1 0 0)">
	<g xmlns="http://www.w3.org/2000/svg">
		<circle class="primary" fill="currentColor" cx="0" cy="0" r="6.245"/>
		<path class="secondary" d="M0,6.12c3.38,0,6.12-2.74,6.12-6.12S3.38-6.12,0-6.12S-6.12-3.38-6.12,0S-3.38,6.12,0,6.12 M0,6.37    c-3.513,0-6.37-2.857-6.37-6.37S-3.513-6.37,0-6.37S6.37-3.513,6.37,0S3.513,6.37,0,6.37L0,6.37z" fill="#FFFFFF"/>
	</g>
	<path xmlns="http://www.w3.org/2000/svg" id="CH-47_Chinook_1_" class="secondary" d="M5.977-0.146C5.83-0.088,5.683-0.032,5.531,0.026C5.436,0.045,5.338,0.065,5.239,0.084   c-0.06,0.015-0.123,0.028-0.187,0.041C4.944,0.102,4.835,0.078,4.728,0.053c-0.029,0.03-0.061,0.06-0.088,0.09   C4.562,0.137,4.483,0.131,4.407,0.125C4.46,0.045,4.528-0.046,4.6-0.104C4.604-0.34,4.607-0.575,4.609-0.81   c0.039-0.058,0.078-0.115,0.118-0.172c0.024-0.136,0.051-0.272,0.074-0.41c0.111-0.072,0.22-0.144,0.328-0.217   c0.054-0.092,0.107-0.184,0.159-0.275c-0.023-0.08-0.044-0.16-0.065-0.24C5.194-2.169,4.966-2.232,4.902-2.259   C4.758-2.32,4.604-2.319,4.419-2.354C4.037-2.426,3.556-2.417,3.112-2.413c-0.02-0.096-0.04-0.192-0.059-0.288   c-0.026-0.025-0.134-0.002-0.178,0c-0.01,0.096-0.021,0.192-0.033,0.288C2.408-2.392,1.972-2.37,1.536-2.349   c-0.035-0.037-0.07-0.072-0.105-0.108c0.021-0.1,0.043-0.199,0.069-0.298C1.471-2.792,1.448-2.828,1.423-2.864   c-0.077-0.015-0.154-0.03-0.23-0.045c-0.068,0.048-0.133,0.096-0.2,0.144c-0.008,0.024,0,0.052,0.009,0.081   C1.041-2.51,1.062-2.556,1.14-2.449C0.005-2.398-1.13-2.346-2.265-2.295c-0.257,0.007-0.513,0.015-0.77,0.022   C-3.14-2.269-3.22-2.239-3.258-2.323c-0.013-0.028-0.019-0.033-0.008-0.058c-0.085-0.013-0.212-0.129-0.31-0.104   C-3.6-2.467-3.625-2.449-3.648-2.431C-3.825-2.312-3.713-2.168-3.64-2.024c-0.283,0.137-0.563,0.273-0.846,0.411   c-0.04,0.045-0.082,0.09-0.122,0.135c0.005,0.05,0.012,0.099,0.017,0.149C-4.817-1.175-4.953-0.922-5.166-0.75   c-0.083,0.06-0.166,0.12-0.249,0.18C-5.478-0.458-5.4-0.158-5.376-0.038c0.07,0.439,0.153,0.879,0.224,1.319   c0.295,0.078,0.504,0.167,0.937,0.162c0,0.023,0,0.048,0,0.072c0,0.015-0.145,0.03-0.208,0.045   c-0.095-0.013-0.209-0.07-0.314-0.053c-0.684,0.04-0.386,0.002-1.07,0.041c-0.139,0.074-0.006,0.177-0.006,0.177   c0.979,0,0.559-0.053,1.539-0.118C-4.337,1.67-4.399,1.755-4.46,1.818C-4.685,1.864-4.909,1.92-5.131,1.965   C-5.894,2.353-4.858,1.864-5.62,2.251c-0.004,0.001-0.039,0.157,0.068,0.168C-5.23,2.268-5.531,2.432-5.21,2.281   c0.591-0.276,0.252-0.111,0.842-0.386C-4.25,1.871-4.13,1.847-4.015,1.823c0.09-0.036,0.179-0.073,0.271-0.108   c0.383-0.017,0.767-0.033,1.151-0.049c0.268-0.012,0.536-0.024,0.805-0.036c0.232-0.012,0.464-0.021,0.695-0.033   C-0.924,1.59-0.76,1.582-0.592,1.575c0.133-0.007,0.267-0.012,0.4-0.019c0.303-0.027,0.604-0.053,0.903-0.081   c0.437-0.037,0.881-0.05,1.32-0.086c0.066-0.041,0.137-0.096,0.201-0.096c0,0,0.007,0,0.009,0c-0.607,0-1.217,0.092-1.824,0.15   C-0.974,1.49-2.367,1.525-3.76,1.574c0.002-0.036,0.021-0.079,0.022-0.115C-3.685,1.45-3.57,1.435-3.57,1.425   c0-0.039,0-0.078,0-0.117c0.216-0.056,0.376-0.111,0.571-0.167c0.195-0.062,0.395-0.089,0.539-0.208   c0.054-0.109,0.106-0.22,0.162-0.328c-0.03-0.021-0.059-0.04-0.088-0.06c0.032-0.152,0.061-0.305,0.093-0.456   c0.05-0.011,0.101-0.024,0.15-0.036c0.019-0.091,0.04-0.181,0.059-0.271c0.033-0.034,0.135-0.008,0.188-0.018   c0.149-0.009,0.3-0.018,0.45-0.027c0.59-0.035,1.179-0.057,1.77-0.092c0.039,0.08,0.077,0.258,0.114,0.258c0.045,0,0.09,0,0.135,0   c0.002,0,0.006-0.201,0.008-0.276c0.77-0.045,1.542,0.046,2.312-0.186c0.012,0,0.022,0,0.035,0c0.01,0.232,0.021,0.24,0.033,0.342   C3.037-0.05,3.649,0.08,3.868,0.126C3.873,0.144,3.875,0.17,3.877,0.188C3.209,0.122,2.538,0.06,1.868-0.005   C1.745,0.035,1.622,0.078,1.5,0.119c0.763,0.049,1.53,0.1,2.299,0.15c0.018,0.036,0.036,0.115,0.054,0.15   C2.728,1.082,1.602,1.757,0.478,2.452c-0.004,0-0.008,0-0.01,0c0.136,0,0.287-0.075,0.354-0.114   c0.263-0.153,0.532-0.312,0.789-0.473C2.13,1.561,2.648,1.244,3.168,0.939c0.229-0.144,0.472-0.274,0.706-0.42   c0.09-0.051,0.179-0.105,0.268-0.156c0.175-0.043,0.35-0.086,0.521-0.128c0.01,0.019,0.018,0.038,0.024,0.058   c0.054,0.001,0.106,0.002,0.157,0.003c0.005-0.02,0.011-0.042,0.017-0.062C4.902,0.192,5.2,0.194,5.282,0.18   c0.388-0.043,0.34-0.022,0.727-0.066L5.977-0.146z" fill="#FFFFFF"/>
</g></svg>