<?xml version="1.0" standalone="no"?>
<svg xmlns="http://www.w3.org/2000/svg" viewBox="-6.37 -6.37 12.74 12.74" color="#212121" width="75" height="75"><g transform="matrix(1 0 0 -1 0 0)">
	<g xmlns="http://www.w3.org/2000/svg">
		<circle class="primary" fill="currentColor" cx="0" cy="0" r="6.245"/>
		<path class="secondary" d="M0,6.12c3.38,0,6.12-2.74,6.12-6.12S3.38-6.12,0-6.12S-6.12-3.38-6.12,0S-3.38,6.12,0,6.12 M0,6.37    c-3.513,0-6.37-2.857-6.37-6.37S-3.513-6.37,0-6.37S6.37-3.513,6.37,0S3.513,6.37,0,6.37L0,6.37z" fill="#FFFFFF"/>
	</g>
	<path xmlns="http://www.w3.org/2000/svg" id="CH-53_Sea_Stallion_1_" class="secondary" d="M-2.464-1.159h-0.757c0,0-0.635-0.55-0.695-0.528   c-0.061,0.021,0.059,0.434,0,0.528c-0.056,0.095-0.633,1.036-0.633,1.036h-0.075v-0.93l-0.217,0.015v0.916l0.081,0.226   l-0.177,0.084h-1.05v0.226h0.994h0.205l0.015,1.085H-4.5l-0.041-1.015l0.054-0.141l0.995-0.014l0.014-0.269h-0.627l0.627-0.788   h1.65v0.083h0.122v-0.083l1.893-0.058c0,0,0.301,0.366,0.613,0.494c0.314,0.126,1.118,0.028,1.118,0.028v0.088l-4.709,0.602   L-2.77,0.51l4.64-0.549c0,0-0.007,0.094,0.048,0.138c0.055,0.042,0.653,0.029,0.667-0.021c0.017-0.05,0.052-0.173,0.052-0.173   L5.922-0.47v-0.107L2.566-0.218L2.554-0.313c0,0,0.45-0.07,1.146-0.209c0.694-0.139,0.745-0.404,0.745-0.404l0.307-0.042   c0,0,0.235-0.116,0.48-0.391C5.478-1.635,5.51-1.931,5.51-1.931h0.1c0,0,0.011-0.126-0.01-0.211C5.58-2.227,5.12-2.449,5.12-2.449   H4.108v-0.095H3.944v0.105H3.639L3.587-2.543H3.26v0.127L3.106-2.428L3.025-2.543h-0.43L2.636-2.49h0.297l0.01,0.074l-3.137,0.011   c0,0-0.457,0.029-0.809,0.158c-0.287,0.104-0.486,0.306-0.49,0.349c-0.011,0.095-0.104,0.01-0.266,0.01   c-0.163,0-0.695,0.508-0.695,0.508L-2.464-1.159z" fill="#FFFFFF"/>
</g></svg>