<?xml version="1.0" standalone="no"?>
<svg xmlns="http://www.w3.org/2000/svg" viewBox="-6.37 -6.37 12.74 12.74" color="#212121" width="75" height="75"><g transform="matrix(1 0 0 -1 0 0)">
	<g xmlns="http://www.w3.org/2000/svg">
		<circle class="primary" fill="currentColor" cx="0" cy="0" r="6.245"/>
		<path class="secondary" d="M0,6.12c3.38,0,6.12-2.74,6.12-6.12S3.38-6.12,0-6.12S-6.12-3.38-6.12,0S-3.38,6.12,0,6.12 M0,6.37    c-3.513,0-6.37-2.857-6.37-6.37S-3.513-6.37,0-6.37S6.37-3.513,6.37,0S3.513,6.37,0,6.37L0,6.37z" fill="#FFFFFF"/>
	</g>
	<path xmlns="http://www.w3.org/2000/svg" id="CH-53E_Super_Stallion_1_" class="secondary" d="M5.727-1.699c0,0.007-0.005,0.013-0.012,0.013S5.701-1.692,5.701-1.699v-0.005   L5.685-1.703V-1.7c0,0.007-0.005,0.013-0.012,0.013S5.66-1.693,5.66-1.7v-0.002L5.516-1.694v0.021c0,0.017-0.016,0.032-0.037,0.032   c-0.018,0-0.034-0.014-0.037-0.029L5.216-1.684v0.029c0,0.021-0.016,0.038-0.032,0.038c-0.02,0-0.035-0.017-0.035-0.038v-0.03   L4.912-1.702l-0.061,0.07c0,0.003,0,0.005,0,0.008C4.818-1.219,4.45-1.029,4.45-1.029C4.263-0.64,4.044-0.556,4.044-0.556H3.806   c0,0.168-0.118,0.229-0.118,0.229S2.57,0.04,1.955,0.108C1.936,0.11,1.916,0.112,1.897,0.114v0.028l0.13,0.008L2.03,0.325   l0.119-0.03l0.029-0.023l0.067-0.003l0.016,0.015L5.95-0.315L2.266,0.352v0.035L2.163,0.391l-0.03-0.012l-0.1,0.038v0.045   l0.03-0.004L2.07,0.497C1.753,0.642,1.44,0.581,1.44,0.581V0.528L1.457,0.52V0.462L1.368,0.47L1.362,0.501L1.291,0.52L1.279,0.505   l-4.41,0.297l4.387-0.385V0.394l0.082-0.023v0.023l0.11-0.012V0.317h0.02V0.253H1.444V0.192h0.101V0.137   C0.986,0.159,0.381,0.13,0.381,0.13c-0.464,0-0.518-0.152-0.518-0.152c-0.722-0.153-2.725-0.351-2.725-0.351h-0.529l-0.425,0.58   l0.094-0.054l0.047,0.145l-0.331,0.191c-0.1,0.145-0.324,0.42-0.324,0.42l-0.185,0.114l0.355,0.924l-0.118,0.061l-0.377-0.931   h-0.338L-5.78,1.504l-0.047-0.115l0.682-0.358c-0.072-0.007-0.139-0.099-0.139-0.099C-5.07,0.71-4.9,0.68-4.9,0.68l-0.408-0.969   l0.111-0.054L-4.8,0.543l0.72-1.091l-0.025-0.045c0,0-0.232-0.054,0.173-0.13C-3.53-0.8-2.585-0.839-2.585-0.839v-0.152   c0.046-0.114,0.622-0.488,0.622-0.488l0.153,0.06l0.132-0.06L-1.69-1.525l0.084-0.076l0.055,0.039l0.244-0.153   c0.449-0.329,1.124-0.344,1.124-0.344L0.31-2.064C0.291-2.1,0.28-2.143,0.28-2.189c0-0.135,0.095-0.244,0.212-0.244   s0.211,0.109,0.211,0.244c0,0.045-0.01,0.086-0.028,0.122h0.017L2.78-2.113l1.626,0.015C4.371-2.13,4.349-2.18,4.349-2.235   c0-0.097,0.067-0.176,0.153-0.176c0.084,0,0.15,0.079,0.15,0.176c0,0.078-0.043,0.142-0.102,0.166   C4.65-2.03,4.799-1.945,4.842-1.77h0.307c0-0.021,0.015-0.038,0.035-0.038c0.017,0,0.032,0.017,0.032,0.038h0.226   c0-0.017,0.019-0.03,0.037-0.03c0.021,0,0.037,0.014,0.037,0.031v0.037H5.66v-0.011c0-0.008,0.006-0.013,0.013-0.013   s0.012,0.005,0.012,0.013v0.011h0.017v-0.011c0-0.008,0.007-0.013,0.014-0.013s0.012,0.005,0.012,0.013v0.011h0.053v0.023   L5.727-1.705V-1.699z" fill="#FFFFFF"/>
</g></svg>