<?xml version="1.0" standalone="no"?>
<svg xmlns="http://www.w3.org/2000/svg" viewBox="-6.37 -6.37 12.74 12.74" color="#212121" width="75" height="75"><g transform="matrix(1 0 0 -1 0 0)">
	<g xmlns="http://www.w3.org/2000/svg">
		<circle class="primary" fill="currentColor" cx="0" cy="0" r="6.245"/>
		<path class="secondary" d="M0,6.12c3.38,0,6.12-2.74,6.12-6.12S3.38-6.12,0-6.12S-6.12-3.38-6.12,0S-3.38,6.12,0,6.12 M0,6.37    c-3.513,0-6.37-2.857-6.37-6.37S-3.513-6.37,0-6.37S6.37-3.513,6.37,0S3.513,6.37,0,6.37L0,6.37z" fill="#FFFFFF"/>
	</g>
	<path xmlns="http://www.w3.org/2000/svg" class="secondary" d="M-5.947,0.479h0.812c0,0,0.155,0.056,0.221,0.006v0.11l-0.021,0.068v1.038c0,0,0.117,0.123,0.186-0.012V0.67   l-0.04-0.044V0.479c0,0,0.104,0.066,0.147-0.04h0.096v0.033l0.869-0.019c0,0,0.108-0.115-0.004-0.226H-4.52h-0.042l-0.025-0.11   l1.226-1.494l2.739,0.401L0.603-0.45c0,0,0.173,0.04,0.483,0.076c0.005,0.081,0.046,0.147,0.106,0.173v0.029   c0,0.055,0.035,0.098,0.079,0.098c0.043,0,0.079-0.043,0.079-0.098v-0.027C1.403-0.22,1.444-0.274,1.456-0.341   C1.521-0.338,1.589-0.333,1.659-0.33l0.32,0.032v0.304h-0.05L1.847,0.172l-5.376,0.386L1.66,0.344c0,0,0.119,0.007,0.182-0.024   c0,0,0.072,0.111,0.479,0.111c0.405,0,0.555-0.136,0.555-0.136h0.23l0.04-0.058l2.742-0.215l-2.744,0.1L3.105,0.085L2.881,0.144   L2.7,0.016v-0.319c0,0,1.177-0.138,1.649-0.465L4.5-0.806c0,0,0.093,0.019,0.569-0.608L5.528-1.66c0,0,0.46-0.147,0.03-0.578   c0,0-0.679-0.233-1.839-0.172L3.566-2.488L3.531-2.455L3.453-2.482c0.004-0.022,0.008-0.045,0.008-0.069   c0-0.17-0.112-0.307-0.252-0.307c-0.137,0-0.248,0.137-0.248,0.307c0,0.047,0.008,0.092,0.024,0.132   c-0.434-0.003-3.237-0.013-4.46,0.148h-0.021c0-0.002,0-0.004,0-0.006c0-0.066-0.021-0.12-0.041-0.12   c-0.021,0-0.041,0.053-0.041,0.12c0,0.003,0,0.006,0,0.011l-0.887,0.035L-3.003-2.52c0.002-0.014,0.002-0.028,0.002-0.043   c0-0.132-0.087-0.239-0.194-0.239S-3.39-2.695-3.39-2.563s0.088,0.24,0.195,0.24c0.051,0,0.098-0.024,0.132-0.064l0.019,0.101   h0.159l-0.095,0.16c0,0-0.875,0.042-1.465,0.228c0,0-0.094,0.049,0,0.141l0.2,0.19c0,0-0.294-0.049-0.683,0.098   c0,0,0.018,0.062,0.329,0.099l-0.075,0.037L-4.953-0.91l0.015,0.399L-5.43,0.227l-0.523,0.006   C-5.953,0.233-6.072,0.369-5.947,0.479z" fill="#FFFFFF"/>
</g></svg>