<?xml version="1.0" standalone="no"?>
<svg xmlns="http://www.w3.org/2000/svg" viewBox="-6.37 -6.37 12.74 12.74" color="#212121" width="75" height="75"><g transform="matrix(1 0 0 -1 0 0)">
	<g xmlns="http://www.w3.org/2000/svg">
		<path class="primary" fill="currentColor" d="M0-6.245c-3.444,0-6.245,2.802-6.245,6.246c0,3.443,2.802,6.244,6.245,6.244s6.245-2.801,6.245-6.244    C6.245-3.443,3.444-6.245,0-6.245z"/>
		<path class="secondary" d="M0,6.12c3.38,0,6.12-2.74,6.12-6.119C6.12-3.38,3.38-6.12,0-6.12s-6.12,2.74-6.12,6.121    C-6.12,3.38-3.38,6.12,0,6.12 M0,6.37c-3.513,0-6.37-2.857-6.37-6.369C-6.37-3.512-3.513-6.37,0-6.37s6.37,2.858,6.37,6.371    C6.37,3.513,3.513,6.37,0,6.37L0,6.37z" fill="#FFFFFF"/>
	</g>
	<path xmlns="http://www.w3.org/2000/svg" id="HH-IN_Twin_Huey_1_" class="secondary" d="M0.104-0.213c-0.058-0.043-4.08,0.321-4.08,0.321l-0.99,1.02l0.772,0.86L-4.31,2.119   c0,0-0.637-0.541-0.656-0.642C-4.986,1.378-5.01,1.259-5.01,1.259S-5.126,1.273-5.193,1.23C-5.257,1.186-5.25,1.018-5.25,1.018   l-0.707-0.67l0.139-0.132l0.48,0.496l0.816-1.006l-0.94-0.146l0.008-0.058l1.006,0.211l4.451-0.838l1.494-0.313V-1.81   c0,0-0.37,0.109-0.406,0.059C1.052-1.801,1.46-1.947,1.46-1.947h2.66c0,0,0.518,0.175,0.466,0.226   C4.535-1.67,4.12-1.838,4.12-1.838L3.864-1.831c0,0,0.009,0.298,0.022,0.357C3.9-1.416,5.14-1.437,5.14-1.437S5.891-1.321,5.897-1   c0.008,0.321-0.714,0.46-0.81,0.503C4.994-0.454,4.651,0.056,4.543,0.129C4.434,0.202,4.316,0.18,4.316,0.18   s0.029,0.197-0.015,0.226c-0.043,0.029-0.13,0.043-0.182,0C4.069,0.363,4.083,0.18,4.083,0.18s-0.801-0.062-0.86-0.015   c-0.057,0.048-0.34,0.338-0.414,0.343C2.733,0.512,2.547,0.523,2.547,0.523s0.036,0.211,0,0.211c-0.037,0-0.103,0-0.103,0   L2.407,1.31l0.365,0.029v0.058l3.055,0.13v0.074L2.795,1.492v0.065L2.407,1.536v0.16H2.298V1.55h-0.35L1.926,1.514L-3.69,1.725   l0.014-0.088L1.92,1.411V1.324l0.343-0.008L2.24,0.734c0,0-0.08,0-0.131-0.021C2.058,0.69,2.102,0.566,2.102,0.566L0.834,0.573   L0.819,0.734H0.746L0.731,0.603L0.259,0.61c0,0-0.219-0.044-0.219-0.292c0-0.125,0.103-0.103,0.103-0.103S0.163-0.169,0.104-0.213z   " fill="#FFFFFF"/>
</g></svg>