<?xml version="1.0" standalone="no"?>
<svg xmlns="http://www.w3.org/2000/svg" viewBox="-6.37 -6.37 12.74 12.74" color="#212121" width="75" height="75"><g transform="matrix(1 0 0 -1 0 0)">
	<g xmlns="http://www.w3.org/2000/svg">
		<path class="primary" fill="currentColor" d="M0-6.245c-3.444,0-6.245,2.802-6.245,6.246c0,3.443,2.802,6.244,6.245,6.244s6.245-2.801,6.245-6.244    C6.245-3.443,3.444-6.245,0-6.245z"/>
		<path class="secondary" d="M0,6.12c3.38,0,6.12-2.74,6.12-6.119C6.12-3.38,3.38-6.12,0-6.12s-6.12,2.74-6.12,6.121    C-6.12,3.38-3.38,6.12,0,6.12 M0,6.37c-3.513,0-6.37-2.857-6.37-6.369C-6.37-3.512-3.513-6.37,0-6.37s6.37,2.858,6.37,6.371    C6.37,3.513,3.513,6.37,0,6.37L0,6.37z" fill="#FFFFFF"/>
	</g>
	<path xmlns="http://www.w3.org/2000/svg" id="HH-60_Rescue_Hawk_1_" class="secondary" d="M-4.898,0.941v0.865h0.199V0.941l0.134-0.173h0.984V0.595H-4.54   c0,0,0.886-1.151,1.146-1.225c0.259-0.073,2.092,0.213,2.435,0.32c0.345,0.106,0.946,0.293,0.946,0.293s-0.037,0.193,0,0.24   c0.036,0.046,0.149,0.037,0.166,0C0.17,0.186,0.167,0.112,0.167,0.112l0.192,0.03c0,0-0.029,0.157,0,0.186   c0.03,0.03,0.146,0,0.146,0l0.053-0.105c0,0,0.234-0.06,0.307,0c0.074,0.059,0.076,0.156,0.076,0.156l0.018,0.15h0.133v-0.24   l0.133-0.065c0,0,0.779-0.026,0.813,0C2.07,0.249,1.983,0.369,1.983,0.369L1.891,0.382L1.852,0.588H-3.42v0.073l5.458,0.014   c0,0,0.021,0.08,0.066,0.086C2.149,0.767,2.29,0.787,2.357,0.767C2.424,0.747,2.45,0.674,2.45,0.674l3.523-0.292V0.303l-3.39,0.186   c0,0,0.007-0.116-0.026-0.133C2.523,0.339,2.449,0.369,2.449,0.369l0.015-0.146H2.69l0.266,0.172c0,0,0.08,0.04,0.08-0.027   c0-0.066-0.133-0.2-0.133-0.2s0.825-0.173,1.052-0.253s1.471-0.812,1.478-0.892c0.007-0.081,0.014-0.16,0.014-0.16h0.146   L5.564-0.883c0,0,0.004,0.176,0.177,0.176S5.884-0.95,5.884-0.95s0.021-0.213-0.026-0.292c-0.047-0.08-0.705-0.067-0.705-0.067   S5.117-1.396,5.059-1.402c-0.058-0.005-1.811-0.16-1.811-0.16s-0.014-0.253-0.213-0.28C2.836-1.868,2.782-1.694,2.782-1.694   l-0.039,0.2L0.826-1.535l-0.094,0.04H0.227l0.16-0.187c0,0,0.02-0.087-0.027-0.093C0.313-1.781,0.12-1.508,0.12-1.508h-0.36   c0,0,0.094-0.16,0.081-0.253c-0.014-0.093-0.067-0.13-0.22-0.113c-0.243,0.027-0.068,0.377-0.068,0.377l-0.684,0.095v-0.146h-0.094   l-0.013,0.146h-0.174l-0.013-0.173l-0.174-0.014v0.2l-2.156,0.213c0,0-0.52-0.027-0.586-0.013   c-0.065,0.013-0.094,0.091-0.026,0.093C-4.3-1.094-3.984-1.083-3.984-1.083s-0.315-0.013-0.35,0.07   c-0.033,0.083,0.17,0.189,0.17,0.189s-0.463-0.007-0.499,0.07c-0.037,0.077,0.31,0.11,0.31,0.11l-0.329,0.069l-0.041,0.15   c0,0-0.179-0.06-0.176,0s0.021,0.373,0,0.499c-0.02,0.127-0.354,0.53-0.354,0.53L-5.99,0.585v0.2l1.019,0.021L-4.898,0.941z" fill="#FFFFFF"/>
</g></svg>