<?xml version="1.0" standalone="no"?>
<svg xmlns="http://www.w3.org/2000/svg" viewBox="-6.37 -6.37 12.74 12.74" color="#212121" width="75" height="75"><g transform="matrix(1 0 0 -1 0 0)">
	<g xmlns="http://www.w3.org/2000/svg">
		<path class="primary" fill="currentColor" d="M0-6.245c-3.444,0-6.245,2.802-6.245,6.246c0,3.443,2.802,6.244,6.245,6.244s6.245-2.801,6.245-6.244    C6.245-3.443,3.444-6.245,0-6.245z"/>
		<path class="secondary" d="M0,6.12c3.38,0,6.12-2.74,6.12-6.119C6.12-3.38,3.38-6.12,0-6.12s-6.12,2.74-6.12,6.121    C-6.12,3.38-3.38,6.12,0,6.12 M0,6.37c-3.513,0-6.37-2.857-6.37-6.369C-6.37-3.512-3.513-6.37,0-6.37s6.37,2.858,6.37,6.371    C6.37,3.513,3.513,6.37,0,6.37L0,6.37z" fill="#FFFFFF"/>
	</g>
	<path xmlns="http://www.w3.org/2000/svg" id="HH-60_Pave_Hawk_1_" class="secondary" d="M2.44-0.186l0.573-0.062c0,0,0.243,0.137,0.257,0.106   c0.013-0.031-0.107-0.159-0.107-0.159s0.804-0.123,1.028-0.278c0.167-0.113,0.693-0.534,0.693-0.534l0.272-0.053v-0.052   c0,0,0.203-0.177,0.221-0.265c0.019-0.087,0.326-0.01,0.326-0.01h0.114v-0.08H5.722L5.704-1.635L5.502-1.624   c0,0,0.086-0.052,0.018-0.167c-0.102-0.173-0.273,0-0.273,0S5.249-1.85,5.192-1.854C5.082-1.863,5.06-1.713,5.06-1.713L4.945-1.757   L4.938-1.81h-0.23v-0.044H4.461H3.799l-0.008-0.15H3.675v0.159H3.508l0.273-0.221c0,0,0.247,0.022,0.257,0   c0.008-0.022-0.286-0.145-0.363-0.15C3.6-2.221,3.189-2.251,3.189-2.251s-0.15-0.075-0.22-0.07c-0.07,0.004-0.15,0.079-0.15,0.079   L2.07-2.251c0,0-0.071-0.124-0.125-0.07C1.893-2.269,2.017-2.198,2.017-2.198s0.702,0.088,0.715,0.15   C2.76-1.917,2.899-1.836,2.899-1.836l-4.473,0.052v-0.158h-0.107v0.185c0,0-0.789,0.018-0.864,0.018   c-0.074,0-0.304-0.132-0.317-0.167s0.238-0.062,0.238-0.062l0.098-0.035c0,0-0.172-0.104-0.239-0.106   C-2.831-2.111-3.1-2.119-3.1-2.119s-0.046-0.11-0.15-0.097c-0.106,0.014-0.142,0.115-0.142,0.115s-0.467,0.035-0.459,0.07   c0.009,0.036,0.433,0.018,0.433,0.018s0.072,0.148,0.124,0.142C-3.243-1.878-3.1-1.898-3.1-1.898v0.097h0.14   c0,0-0.014,0.097-0.062,0.141C-3.07-1.616-4.288-1.51-4.335-1.457c-0.05,0.052,0.149,0.264,0.149,0.264S-4.79-1.209-4.795-1.166   c-0.004,0.044,0.31,0.133,0.31,0.133s-0.138,0-0.204,0.018c-0.065,0.018-0.105,0.221-0.105,0.221s-0.057-0.005-0.114,0   C-4.965-0.79-4.903-0.446-4.957-0.3C-5.01-0.155-5.35,0.255-5.35,0.255h-0.627v0.168l0.591,0.043l0.105,0.097v0.062h0.105   l0.019-0.089l0.08-0.097l0.193,0.062l0.018,0.927h0.186L-4.69,0.81l-0.026-0.106V0.476l0.106-0.088h1.006V0.202h-0.617   l-0.237,0.062L-4.503,0.14L-4.6,0.105l1.174-1.165l2.654,0.344l0.238,0.141l0.018,0.168l0.141,0.009l0.018-0.049h0.168l0.035-0.054   l0.09,0.054l0.018,0.11l0.378,0.035v0.089L0.287-0.204v0.062H0.56l0.01-0.07H0.526v-0.08l0.521,0.035c0,0,0.003,0.105,0.026,0.106   C1.095-0.15,1.302-0.142,1.302-0.142l0.018-0.07l0.504,0.035l0.018,0.282l-0.08,0.009l0.01,0.062H1.566V0.079L1.461,0.087   L1.373,0.193L-3.03,0.414v0.052l4.525-0.185l0.054,0.071h1.174l0.079-0.036l0.079-0.018L2.9,0.263l3.11-0.098V0.068l-3.164,0.09   L2.838,0.07H2.723L2.696,0.176L2.448,0.149L2.44-0.186z" fill="#FFFFFF"/>
</g></svg>