<?xml version="1.0" standalone="no"?>
<svg xmlns="http://www.w3.org/2000/svg" viewBox="-6.37 -6.37 12.74 12.74" color="#212121" width="75" height="75"><g transform="matrix(1 0 0 -1 0 0)">
	<g xmlns="http://www.w3.org/2000/svg">
		<path class="primary" fill="currentColor" d="M0-6.245c-3.444,0-6.245,2.802-6.245,6.246c0,3.443,2.802,6.244,6.245,6.244s6.245-2.801,6.245-6.244    C6.245-3.443,3.444-6.245,0-6.245z"/>
		<path class="secondary" d="M0,6.12c3.38,0,6.12-2.74,6.12-6.119C6.12-3.38,3.38-6.12,0-6.12s-6.12,2.74-6.12,6.121    C-6.12,3.38-3.38,6.12,0,6.12 M0,6.37c-3.513,0-6.37-2.857-6.37-6.369C-6.37-3.512-3.513-6.37,0-6.37s6.37,2.858,6.37,6.371    C6.37,3.513,3.513,6.37,0,6.37L0,6.37z" fill="#FFFFFF"/>
	</g>
	<g xmlns="http://www.w3.org/2000/svg">
		<path class="secondary" d="M-5.942-0.525l0.094-0.067c0,0,0.307-0.421,0.929-0.665c0,0,0.743-0.01,1.367,0.244l0.212-0.41l0.463-0.078    l0.166,0.358l-0.021,0.057c0,0,1.605-0.442,3.346-0.686L0.596-1.834H0.441l0.093-0.062l-0.172-0.12l0.292,0.031l0.119,0.188    c0,0,1.771-0.328,4.555-0.006l0.02-0.125h0.09L5.55-1.875H5.434L5.371-1.886L5.364-1.793c0,0,0.268,0.043,0.427,0.3    c0,0,0.103,0.14-0.4,0.347l-0.334,0.16L5.039-0.908c0,0-0.217,0.378-0.704,0.596H4.284c0,0-0.162,0.242-0.563,0.242H3.486    L3.394,0.021L3.116,0.296c0,0-0.062,0.038-0.055-0.024l0.155-0.28H3.147C2.952,0.397,2.633,0.404,2.633,0.404    c0.016,0.125-0.048,0.171-0.048,0.171C2.259,0.778,1.947,0.872,1.947,0.872S1.921,0.879,1.875,0.89    c0.147,0.005,0.259,0.045,0.261,0.097l0.406-0.015c0.019,0,0.033,0.01,0.044,0.029l3.347-0.107L2.594,1.149    c-0.011,0.02-0.026,0.033-0.043,0.034L2.123,1.199c-0.032,0.04-0.126,0.072-0.244,0.083l0.012,0.267l0.046-0.003L1.94,1.608    L1.791,1.615L1.789,1.569l0.03-0.015L1.806,1.287l0.026-0.002c-0.004,0-0.007,0-0.01,0C1.684,1.289,1.564,1.262,1.521,1.221    L1.156,1.234C1.138,1.235,1.122,1.222,1.109,1.202l-5.343,0.103l5.34-0.251C1.117,1.035,1.13,1.023,1.149,1.022L1.506,1.01    C1.505,1.008,1.505,1.007,1.505,1.005c-0.001-0.022,0.02-0.044,0.056-0.062C1.193,0.983,0.643,0.97,0.26,0.627V0.476l-1.787-0.679    c0,0-1.568-0.12-1.734-0.125L-3.48,0l-0.405-0.016l-0.238,0.4H-4.16l-0.716,1.34c0,0-0.1,0.192-0.261,0.192v0.13h-0.057V1.911    h-0.493l0.39-1.527l-0.551-0.867L-5.942-0.525z M-5.364-0.445c0,0.341,0.277,0.618,0.618,0.618s0.618-0.277,0.618-0.618    s-0.277-0.618-0.618-0.618S-5.364-0.786-5.364-0.445z" fill="#FFFFFF"/>
		<path class="secondary" d="M-4.984-0.465c0,0.125,0.103,0.227,0.227,0.227c0.125,0,0.228-0.102,0.228-0.227s-0.103-0.227-0.228-0.227    C-4.882-0.691-4.984-0.59-4.984-0.465z" fill="#FFFFFF"/>
	</g>
</g></svg>