<?xml version="1.0" standalone="no"?>
<svg xmlns="http://www.w3.org/2000/svg" viewBox="-6.37 -6.37 12.74 12.74" color="#212121" width="75" height="75"><g transform="matrix(1 0 0 -1 0 0)">
	<g xmlns="http://www.w3.org/2000/svg">
		<path class="primary" fill="currentColor" d="M0-6.245c-3.444,0-6.245,2.802-6.245,6.246c0,3.443,2.802,6.244,6.245,6.244s6.245-2.801,6.245-6.244    C6.245-3.443,3.444-6.245,0-6.245z"/>
		<path class="secondary" d="M0,6.12c3.38,0,6.12-2.74,6.12-6.119C6.12-3.38,3.38-6.12,0-6.12s-6.12,2.74-6.12,6.121    C-6.12,3.38-3.38,6.12,0,6.12 M0,6.37c-3.513,0-6.37-2.857-6.37-6.369C-6.37-3.512-3.513-6.37,0-6.37s6.37,2.858,6.37,6.371    C6.37,3.513,3.513,6.37,0,6.37L0,6.37z" fill="#FFFFFF"/>
	</g>
	<path xmlns="http://www.w3.org/2000/svg" class="secondary" d="M-5.509,0.921c0,0,0.295,0.197,0.745,0.386l-1.171-0.086l1.152,0.166c0,0,0.341,0.099,0.808,0l4.809-0.413   L-3.85,1.226l-0.009-0.09l0.834-0.17c0,0,0.09-0.108,0.224-0.278l0.602-0.816v-0.18h0.351c0,0,0.341,0.045,0.341-0.225l3.346,0.125   l0.799,0.314v0.108L2.466,0.023l0.87,0.243c0,0-3.482-0.189-4.383-0.245c0.906,0.074,4.428,0.388,4.428,0.388l0.296,0.063   l0.565-0.009l1.779-0.207L4.296,0.374l0.798-0.35H4.646L4.152,0.212c0,0,0.215-0.61,0.269-0.718l0.772-0.7   c0,0,0.727-0.493-0.045-0.834c0,0-0.311-0.071-1.083-0.133V-2.7c0.053-0.029,0.087-0.084,0.087-0.147c0-0.094-0.075-0.17-0.17-0.17   c-0.094,0-0.171,0.076-0.171,0.17c0,0.091,0.072,0.165,0.162,0.169v0.128C3.963-2.553,3.952-2.555,3.94-2.555   c-0.057,0-0.103,0.046-0.103,0.104c0,0.057,0.046,0.104,0.103,0.104c0.012,0,0.022-0.002,0.033-0.006v0.174   C3.629-2.206,3.2-2.23,2.671-2.246l-3.488-0.161c0,0-0.215-0.063-0.87-0.045C-1.82-2.448-1.949-2.443-2.07-2.437v-0.196   c0.067-0.024,0.114-0.086,0.114-0.16c0-0.094-0.076-0.17-0.171-0.17c-0.096,0-0.171,0.076-0.171,0.17   c0,0.093,0.074,0.167,0.167,0.17v0.188c-0.438,0.023-0.75,0.054-0.75,0.054l0.072,0.09l-0.04,0.044c0,0-1.548,0.39-2.354,1.158   c0,0-0.045,0.027,0,0.062l-0.352,0.233v0.287l0.307,1.426h-0.261C-5.509,0.919-5.509,0.921-5.509,0.921z" fill="#FFFFFF"/>
</g></svg>