<?xml version="1.0" standalone="no"?>
<svg xmlns="http://www.w3.org/2000/svg" viewBox="-6.37 -6.37 12.74 12.74" color="#212121" width="75" height="75"><g transform="matrix(1 0 0 -1 0 0)">
	<g xmlns="http://www.w3.org/2000/svg">
		<path class="primary" fill="currentColor" d="M0-6.245c-3.444,0-6.245,2.802-6.245,6.246c0,3.443,2.802,6.244,6.245,6.244s6.245-2.801,6.245-6.244    C6.245-3.443,3.444-6.245,0-6.245z"/>
		<path class="secondary" d="M0,6.12c3.38,0,6.12-2.74,6.12-6.119C6.12-3.38,3.38-6.12,0-6.12s-6.12,2.74-6.12,6.121    C-6.12,3.38-3.38,6.12,0,6.12 M0,6.37c-3.513,0-6.37-2.857-6.37-6.369C-6.37-3.512-3.513-6.37,0-6.37s6.37,2.858,6.37,6.371    C6.37,3.513,3.513,6.37,0,6.37L0,6.37z" fill="#FFFFFF"/>
	</g>
	<g xmlns="http://www.w3.org/2000/svg">
		<path id="HH-60_Jayhawk_1_" class="secondary" d="M5.248-1.654c0.089-0.003,0.404,0.01,0.409-0.182c0.011-0.376-2.152-0.406-2.232-0.415    c-0.078-0.01-0.058-0.12-0.092-0.124C3.3-2.378,3.009-2.418,2.934-2.42C2.86-2.422,0.344-2.569,0.288-2.498    c-0.057,0.071,0,0.259,0,0.259l-0.799,0.045l-0.062-0.168c0,0,0.093-0.198,0.021-0.266s-0.159-0.078-0.225,0.003    c-0.067,0.081-0.034,0.162-0.006,0.227C-0.754-2.333-0.711-2.31-0.711-2.31L-0.7-2.141l-3.404,0.396c0,0-0.525,0.143-0.522,0.195    c0.003,0.052,0.18,0.228,0.18,0.228S-5.24-1.448-5.234-1.355c0.004,0.094,0.527,0.227,0.527,0.227s-0.1,0.033-0.183,0.076    c-0.058,0.031-0.117,0.137-0.168,0.25c-0.024,0.056-0.063,0.135-0.045,0.148c0.07,0.047,0.243,0.042,0.243,0.042l-0.304,0.497    l-0.23-0.474L-5.548-0.46l0.281,0.507c0,0-0.151,0.279-0.146,0.422C-5.408,0.612-5.205,0.65-5.205,0.65l-0.691,0.637l0.072,0.136    l0.762-0.701l0.19,0.006l0.439,0.948l0.16-0.117l-0.514-0.896l0.078-0.247l0.741-0.623l-0.103-0.188L-4.71,0.209    c0,0,0.92-1.325,1.019-1.376C-3.594-1.219-1.48-0.82-1.316-0.771C-1.153-0.722-0.569-0.502-0.4-0.368    c0.346,0.275,2.207,0.312,2.207,0.312v0.39L1.065,0.371v0.078c0,0-2.061-0.052-2.301-0.065s-2.623-0.331-2.623-0.331l-0.079,0.085    c0,0,2.39,0.376,2.712,0.369C-0.903,0.501,1.473,0.6,1.473,0.6s0.343,0.161,0.499,0.161S2.345,0.56,2.345,0.56    s1.417-0.228,1.711-0.312c0.293-0.085,1.946-0.579,1.946-0.579l-0.03-0.117c0,0-1.778,0.517-2.088,0.579    C3.573,0.193,2.243,0.339,2.243,0.339L1.998,0.345v-0.389c0,0,1.818-0.315,1.842-0.396c0.023-0.081-0.002-0.14,0-0.162    c0.003-0.023,0.262,0.024,0.317-0.052C4.299-0.845,5.159-1.651,5.248-1.654z" fill="#FFFFFF"/>
	</g>
</g></svg>