<?xml version="1.0" standalone="no"?>
<svg xmlns="http://www.w3.org/2000/svg" viewBox="-6.37 -6.37 12.74 12.74" color="#212121" width="75" height="75"><g transform="matrix(1 0 0 -1 0 0)">
	<g xmlns="http://www.w3.org/2000/svg">
		<path class="primary" fill="currentColor" d="M-0.001-6.245c-3.443,0-6.244,2.802-6.244,6.245s2.801,6.245,6.244,6.245c3.444,0,6.246-2.802,6.246-6.245    S3.443-6.245-0.001-6.245z"/>
		<path class="secondary" d="M-0.001,6.12C3.38,6.12,6.12,3.38,6.12,0S3.38-6.12-0.001-6.12C-3.38-6.12-6.12-3.38-6.12,0    S-3.38,6.12-0.001,6.12 M-0.001,6.37C-3.513,6.37-6.37,3.513-6.37,0s2.857-6.37,6.369-6.37C3.512-6.37,6.37-3.513,6.37,0    S3.512,6.37-0.001,6.37L-0.001,6.37z" fill="#FFFFFF"/>
	</g>
	<path xmlns="http://www.w3.org/2000/svg" id="Kamov_KA-50_3_" class="secondary" d="M-5.865-0.294l0.104,1.607h0.438l0.396-1.141l0.762-0.315l0.458,0.037l-0.177,0.257h0.218   l0.149-0.216l0.07,0.049h0.364l0.023-0.048c0.431,0.045,0.875,0.082,1.298,0.111c0.06,0.03,0.122,0.059,0.122,0.059l0.027-0.049   l0,0c0.236,0.015,0.463,0.029,0.677,0.04v0.064c0,0.019,0.015,0.032,0.031,0.032c0.018,0,0.032-0.014,0.032-0.032v-0.06   c0.785,0.04,1.35,0.051,1.35,0.051v0.03H0.415c0,0,0.008,0.032,0.013,0.053l0,0v0.07c0,0-0.052-0.022-0.067,0.014   C0.348,0.356,0.397,0.366,0.397,0.366l-0.031,0.11l-0.388,0.029l-0.036,0.033l-4.645,0.264l4.645-0.141l0.046,0.03l0.456-0.004   l0.045,0.338L0.493,1.17l0.009,0.023L0.499,1.548l-0.388,0.05L0.074,1.63l-3.446,0.215l3.441-0.124l0.033,0.023l0.277-0.01   l0.032,0.023h0.036L0.435,1.903c0,0-0.022,0.055,0.072,0.022l0.142-0.026L0.73,1.936l0.055-0.032l0.21-0.022   c0,0,0.036-0.046-0.019-0.055L0.968,1.708l0.4-0.047L1.414,1.62l4.493-0.427L1.386,1.521L1.331,1.493l-0.478,0.06L0.771,1.472   L0.767,1.197l0.068-0.102c0,0,0.082,0.056,0.1,0.052c0.019-0.004,0.019-0.109,0.019-0.109L0.944,0.95c0,0,0.055-0.026,0.055-0.043   c0-0.019-0.031-0.033-0.046-0.033c-0.014,0-0.041-0.265-0.041-0.265l3.492-0.354l-3.492,0.2L0.876,0.456V0.255l-0.117,0.05   L0.71,0.255V0.2l0.233-0.076c0.831,0.013,1.784-0.229,1.784-0.229s-0.002,0.09,0.039,0.069C2.81-0.058,2.855-0.148,2.855-0.148   H2.88l0.16-0.165l0.066,0.037l0.17-0.173L3.237-0.495l0.082-0.097C3.38-0.6,3.439-0.608,3.498-0.618v0.006   c0,0.025,0.021,0.049,0.05,0.049c0.025,0,0.048-0.023,0.048-0.049v-0.025C3.94-0.705,4.224-0.812,4.224-0.812   c0.283-0.008,0.48-0.053,0.48-0.053L5.35-0.871v0.039c0,0,0.039,0,0.061,0c0.021,0,0.012-0.042,0.012-0.042h0.076   c0.049-0.021,0-0.061,0-0.061H5.436L5.413-0.959H5.342v0.015H4.895L4.853-0.969v-0.127H4.791v-0.019   C4.808-1.133,4.819-1.16,4.819-1.187c0-0.061-0.049-0.109-0.11-0.109c-0.049,0-0.09,0.032-0.104,0.076l-0.02-0.006   c-0.182-0.34-0.238-0.322-0.238-0.322L3.614-1.542c-0.088,0-0.113,0.097-0.113,0.097L3.453-1.438v-0.169   c0.042-0.034,0.069-0.085,0.069-0.144c0-0.103-0.083-0.186-0.185-0.186c-0.104,0-0.185,0.083-0.185,0.186s0.081,0.186,0.185,0.186   c0.011,0,0.023-0.002,0.034-0.004L3.358-1.563v0.055l-0.06,0.052L2.634-1.46l0.131-0.186L2.579-1.679L2.415-1.45L1.066-1.472   L1.021-1.533H0.654L0.616-1.478H-0.07l-0.071-0.02c0.013-0.031,0.019-0.064,0.019-0.1c0-0.155-0.126-0.282-0.281-0.282   c-0.156,0-0.283,0.127-0.283,0.282c0,0.091,0.044,0.172,0.11,0.224l-2.667,0.477C-3.26-0.923-3.289-0.942-3.322-0.942   c-0.044,0-0.08,0.033-0.09,0.075l-0.048,0.01c-0.014-0.04-0.057-0.114-0.227-0.085c0,0-0.086,0.004-0.09,0.141l-0.988,0.177   C-4.792-0.65-4.836-0.691-4.836-0.691h-0.031l-0.01,0.087l-0.5,0.089C-5.486-0.467-5.379-0.4-5.379-0.4l-0.317,0.069   C-5.706-0.35-5.75-0.362-5.8-0.362c-0.06,0-0.108,0.018-0.108,0.039C-5.908-0.311-5.892-0.3-5.865-0.294z" fill="#FFFFFF"/>
</g></svg>