<?xml version="1.0" standalone="no"?>
<svg xmlns="http://www.w3.org/2000/svg" viewBox="-6.37 -6.37 12.74 12.74" color="#212121" width="75" height="75"><g transform="matrix(1 0 0 -1 0 0)">
	<g xmlns="http://www.w3.org/2000/svg">
		<path class="primary" fill="currentColor" d="M-0.001-6.245c-3.443,0-6.244,2.802-6.244,6.245s2.801,6.245,6.244,6.245c3.444,0,6.246-2.802,6.246-6.245    S3.443-6.245-0.001-6.245z"/>
		<path class="secondary" d="M-0.001,6.12C3.38,6.12,6.12,3.38,6.12,0S3.38-6.12-0.001-6.12C-3.38-6.12-6.12-3.38-6.12,0    S-3.38,6.12-0.001,6.12 M-0.001,6.37C-3.513,6.37-6.37,3.513-6.37,0s2.857-6.37,6.369-6.37C3.512-6.37,6.37-3.513,6.37,0    S3.512,6.37-0.001,6.37L-0.001,6.37z" fill="#FFFFFF"/>
	</g>
	<path xmlns="http://www.w3.org/2000/svg" id="Kamov_KA-226_3_" class="secondary" d="M-2.598,0.133l0.012-0.027l-0.106-0.048l0.041-0.087h1.569   C-0.953,0.093-0.884,0.14-0.884,0.14v0.157h-0.198v0.034c0.32,0.099,0.784,0.122,0.784,0.122c0,0.075,0.076,0.128,0.076,0.128   v0.063L1.44,0.579v0.118l-7.163,0.924l7.163-0.77v0.166l0.059,0.017l0.034,0.302l0.069,0.012L1.62,1.685L1.533,1.707l0.033,0.285   l-7.207,0.797l7.413-0.645l0.11,0.046L1.94,2.312l0.09-0.19l3.692-0.501l-3.615,0.32V1.656H2.003V1.278l0.104-0.042V0.999h-0.05   L2.018,0.783l3.514-0.425L2.003,0.64V0.555c0.318-0.033,0.343-0.138,0.335-0.189c1.287-0.174,1.206-0.412,1.206-0.412   c0.453,0,0.528-0.139,0.528-0.139c0.546-0.209,0.941-1.232,0.941-1.232C5.427-1.61,5.397-1.825,5.397-1.825   C4.909-2.133,4.485-2.127,4.485-2.127v-0.15h0.046v-0.036l-0.057-0.04V-2.44H4.461c0.044-0.036,0.07-0.091,0.07-0.152   c0-0.108-0.088-0.196-0.197-0.196S4.136-2.7,4.136-2.592c0,0.11,0.089,0.198,0.198,0.198c0.027,0,0.052-0.006,0.076-0.016v0.027   L4.291-2.277C3.562-2.383,2.875-2.336,2.875-2.336L2.83-2.226c-0.443-0.011-1.84-0.001-2.012,0c0.018-0.042,0.029-0.09,0.029-0.14   c0-0.193-0.156-0.349-0.349-0.349c-0.192,0-0.349,0.155-0.349,0.349c0,0.119,0.059,0.225,0.151,0.287L0.29-2.074v0.057L0.15-1.94   l-0.244,0.146c-0.262,0.151-0.349,0.336-0.349,0.336l-0.604,0.971H-2.68v-0.104L-3.244-1.47l0.14-0.048h-0.511l-0.441,0.182v0.859   l0.39,0.494L-2.598,0.133z" fill="#FFFFFF"/>
</g></svg>