<?xml version="1.0" standalone="no"?>
<svg xmlns="http://www.w3.org/2000/svg" viewBox="-6.517 -6.37 13.034 12.74" color="#212121" width="75" height="75"><g transform="matrix(1 0 0 -1 0 0)">
	<g xmlns="http://www.w3.org/2000/svg">
		<path class="primary" fill="currentColor" d="M0.147-6.245c-3.444,0-6.245,2.802-6.245,6.246c0,3.443,2.802,6.244,6.245,6.244s6.245-2.801,6.245-6.244    C6.393-3.443,3.591-6.245,0.147-6.245z"/>
		<path class="secondary" d="M0.147,6.12c3.38,0,6.12-2.74,6.12-6.119c0-3.381-2.74-6.121-6.12-6.121s-6.12,2.74-6.12,6.121    C-5.973,3.38-3.232,6.12,0.147,6.12 M0.147,6.37c-3.513,0-6.37-2.857-6.37-6.369c0-3.513,2.857-6.371,6.37-6.371    s6.37,2.858,6.37,6.371C6.518,3.513,3.66,6.37,0.147,6.37L0.147,6.37z" fill="#FFFFFF"/>
	</g>
	<g xmlns="http://www.w3.org/2000/svg">
		<path class="secondary" d="M2.145,1.327c-0.005,0-0.007,0-0.011,0c0,0,0,0,0.002,0C2.139,1.327,2.142,1.327,2.145,1.327z" fill="#FFFFFF"/>
		<path class="secondary" d="M-6.517,1.731c0.004,0,0.007,0,0.01,0h-0.001C-6.511,1.731-6.514,1.731-6.517,1.731z" fill="#FFFFFF"/>
		<path class="secondary" d="M0.335,2.427c0.004,0,0.008-0.001,0.01-0.001c0,0,0,0-0.001,0.001C0.341,2.427,0.338,2.427,0.335,2.427z" fill="#FFFFFF"/>
		<path class="secondary" d="M6.203-0.095C6.09-0.083,6.069-0.051,5.955-0.039C5.803,0.015,5.65,0.07,5.498,0.124    C5.399,0.142,5.3,0.161,5.201,0.18C5.138,0.193,5.073,0.205,5.008,0.218c-0.109-0.023-0.22-0.045-0.329-0.069    c-0.03,0.029-0.061,0.057-0.091,0.086C4.51,0.229,4.431,0.224,4.352,0.218C4.405,0.142,4.475,0.055,4.55,0    c0.003-0.223,0.006-0.446,0.009-0.669c0.04-0.054,0.08-0.108,0.12-0.163c0.025-0.129,0.05-0.26,0.076-0.39    C4.866-1.29,4.978-1.359,5.09-1.427c0.054-0.087,0.108-0.175,0.163-0.262C5.24-1.732,5.227-1.775,5.213-1.818l0.714,0.007    C5.952-1.813,5.972-1.834,5.969-1.86C5.968-1.886,5.946-1.905,5.92-1.904L5.186-1.909c0-0.002-0.002-0.005-0.002-0.008    C5.154-1.96,4.922-2.02,4.857-2.045C4.71-2.104,4.552-2.102,4.364-2.135c-0.39-0.069-0.882-0.059-1.333-0.056    C3.011-2.283,2.99-2.374,2.972-2.466c-0.027-0.023-0.137-0.001-0.18,0C2.78-2.374,2.769-2.283,2.758-2.191    C2.312-2.17,1.868-2.15,1.424-2.131C1.388-2.166,1.352-2.2,1.316-2.234c0.022-0.094,0.046-0.189,0.068-0.282    C1.359-2.551,1.333-2.585,1.308-2.62C1.23-2.634,1.151-2.648,1.073-2.663C1.006-2.617,0.939-2.572,0.871-2.525    C0.862-2.502,0.872-2.477,0.879-2.448c0.041,0.165,0.062,0.12,0.142,0.222C-0.137-2.177-1.294-2.128-2.451-2.08    c-0.263,0.007-0.524,0.015-0.785,0.021c-0.11,0.004-0.189,0.033-0.229-0.047c-0.013-0.027-0.02-0.032-0.008-0.056    C-3.56-2.172-3.689-2.284-3.789-2.26c-0.024,0.017-0.049,0.034-0.073,0.051c-0.181,0.113-0.067,0.25,0.009,0.386    c-0.288,0.13-0.575,0.26-0.861,0.391C-4.757-1.39-4.798-1.347-4.84-1.304c0.006,0.048,0.012,0.095,0.018,0.143    c-0.234,0.144-0.371,0.385-0.587,0.548C-5.494-0.556-5.578-0.5-5.663-0.442C-5.728-0.335-5.648-0.05-5.624,0.064    c0.072,0.417,0.156,0.834,0.229,1.252c0.3,0.074,0.513,0.158,0.952,0.154c0,0.023,0,0.046,0,0.069c0,0.015-0.144,0.029-0.21,0.042    c-0.095-0.013-0.212-0.067-0.32-0.051C-5.67,1.567-5.017,1.507-5.715,1.544C-5.855,1.613-5.67,1.721-5.67,1.721    s0.171-0.034,1.169-0.096c-0.063,0.06-0.125,0.141-0.189,0.201c-0.228,0.043-0.457,0.096-0.686,0.139    C-5.516,2.031-5.537,2.298-5.52,2.29c0.608-0.252,0.321-0.13,0.923-0.392c0.121-0.023,0.241-0.045,0.36-0.068    c0.093-0.035,0.184-0.069,0.275-0.103c0.391-0.016,0.783-0.031,1.175-0.047c0.272-0.012,0.545-0.023,0.819-0.035    c0.235-0.01,0.474-0.02,0.71-0.029c0.171-0.008,0.341-0.015,0.512-0.021c0.135-0.006,0.271-0.012,0.406-0.017    C-0.03,1.552,0.276,1.526,0.584,1.5c0.449-0.036,0.067-0.001,0.517-0.037c0.067-0.038,0.136-0.09,0.205-0.09    c-0.617,0-0.404,0.041-1.022,0.096c-1.42,0.046-2.838,0.079-4.258,0.125c0.002-0.034,0.02-0.074,0.023-0.109    c0.052-0.008,0.169-0.024,0.169-0.032c0-0.037,0-0.074,0-0.111C-3.561,1.289-3.4,1.236-3.201,1.183    c0.199-0.059,0.404-0.084,0.551-0.197c0.056-0.104,0.107-0.208,0.163-0.312c-0.028-0.019-0.059-0.037-0.088-0.056    c0.032-0.144,0.062-0.289,0.094-0.433c0.052-0.011,0.103-0.023,0.154-0.034c0.021-0.085,0.04-0.171,0.061-0.257    c0.034-0.032,0.136-0.009,0.192-0.018c0.153-0.008,0.307-0.017,0.458-0.025c0.602-0.035,1.203-0.054,1.806-0.088    C0.228-0.16,0.266,0.008,0.305,0.008c0.046,0,0.092,0,0.138,0c0.003,0,0.006-0.191,0.009-0.263    C1.236-0.297,2.023-0.212,2.81-0.432c0.011,0,0.021,0,0.034,0c0.011,0.22,0.022,0.229,0.034,0.326    c0.08,0.158,0.7,0.282,0.926,0.326c0.002,0.018,0.005,0.043,0.008,0.061C3.128,0.215,2.445,0.157,1.764,0.094    C1.637,0.132,1.511,0.173,1.385,0.212c0.782,0.047,1.564,0.095,2.346,0.143C3.75,0.389,3.767,0.463,3.787,0.498    c-1.146,0.629-2.294,1.27-3.441,1.929c0.136-0.004,0.284-0.071,0.35-0.106c0.268-0.147,0.544-0.298,0.805-0.45    c0.529-0.29,1.058-0.59,1.586-0.88c0.234-0.138,0.481-0.26,0.721-0.399c0.091-0.048,0.183-0.1,0.274-0.148    c0.177-0.041,0.355-0.082,0.53-0.121C4.623,0.341,4.631,0.359,4.64,0.378C4.693,0.379,4.745,0.38,4.799,0.381    c0.005-0.02,0.01-0.04,0.016-0.06c0.042-0.04,0.346-0.037,0.43-0.052C5.641,0.228,5.72,0.212,6.115,0.17L6.203-0.095z" fill="#FFFFFF"/>
	</g>
</g></svg>