<?xml version="1.0" standalone="no"?>
<svg xmlns="http://www.w3.org/2000/svg" viewBox="-6.37 -6.37 12.74 12.74" color="#212121" width="75" height="75"><g transform="matrix(1 0 0 -1 0 0)">
	<g xmlns="http://www.w3.org/2000/svg">
		<path class="primary" fill="currentColor" d="M0-6.245c-3.444,0-6.245,2.802-6.245,6.246c0,3.443,2.802,6.244,6.245,6.244s6.245-2.801,6.245-6.244    C6.245-3.443,3.444-6.245,0-6.245z"/>
		<path class="secondary" d="M0,6.12c3.38,0,6.12-2.74,6.12-6.119C6.12-3.38,3.38-6.12,0-6.12s-6.12,2.74-6.12,6.121    C-6.12,3.38-3.38,6.12,0,6.12 M0,6.37c-3.513,0-6.37-2.857-6.37-6.369C-6.37-3.512-3.513-6.37,0-6.37s6.37,2.858,6.37,6.371    C6.37,3.513,3.513,6.37,0,6.37L0,6.37z" fill="#FFFFFF"/>
	</g>
	<g xmlns="http://www.w3.org/2000/svg">
		<path id="MH-53_Sea_Dragon_1_" class="secondary" d="M5.731-1.754L5.665-1.688c0,0.002,0,0.005,0,0.008C5.629-1.3,5.227-1.12,5.227-1.12    C5.025-0.755,4.788-0.676,4.788-0.676H4.53c0,0.158-0.13,0.215-0.13,0.215s-1.212,0.345-1.88,0.41    C2.499-0.049,2.48-0.048,2.458-0.046v0.027l0.141,0.007l0.004,0.165l0.129-0.028l0.033-0.022L2.836,0.1l0.017,0.014L6.012-0.33    L2.857,0.179v0.032L2.746,0.214l-0.033-0.01L2.605,0.239v0.043l0.033-0.003l0.007,0.036C2.302,0.451,1.963,0.394,1.963,0.394    v-0.05l0.019-0.007V0.283L1.884,0.29L1.877,0.319L1.802,0.336L1.787,0.322l-4.784,0.28l4.76-0.363V0.218l0.089-0.022v0.022    l0.119-0.011V0.146h0.021V0.085H1.967V0.027h0.107v-0.051C1.469-0.002,0.812-0.03,0.812-0.03c-0.503,0-0.562-0.144-0.562-0.144    c-0.781-0.144-2.957-0.33-2.957-0.33h-0.574l-0.46,0.545l0.102-0.051l0.05,0.137l-0.358,0.18C-4.055,0.444-4.3,0.702-4.3,0.702    L-4.501,0.81l0.387,0.869l-0.129,0.057L-4.652,0.86h-0.366l-0.855,0.402l-0.051-0.107l0.74-0.337    c-0.08-0.007-0.151-0.094-0.151-0.094c0.23-0.208,0.416-0.236,0.416-0.236l-0.445-0.912l0.123-0.05l0.431,0.833l0.782-1.027    l-0.028-0.043c0,0-0.252-0.05,0.187-0.122C-3.431-0.905-2.404-0.94-2.404-0.94v-0.144c0.05-0.109,0.674-0.46,0.674-0.46    l0.165,0.057l0.145-0.057l-0.017-0.043l0.095-0.072l0.058,0.036l0.266-0.144C-0.531-2.076,0.2-2.091,0.2-2.091l0.535-0.003    C0.717-2.129,0.703-2.169,0.703-2.212c0-0.127,0.104-0.23,0.23-0.23c0.127,0,0.229,0.103,0.229,0.23    c0,0.042-0.012,0.082-0.031,0.115h0.018L3.417-2.14l1.764,0.014C5.143-2.157,5.119-2.203,5.119-2.255    c0-0.091,0.073-0.165,0.165-0.165c0.091,0,0.165,0.074,0.165,0.165c0,0.073-0.047,0.134-0.111,0.157    c0.11,0.036,0.27,0.116,0.314,0.281" fill="#FFFFFF"/>
	</g>
</g></svg>