<?xml version="1.0" standalone="no"?>
<svg xmlns="http://www.w3.org/2000/svg" viewBox="-6.37 -6.37 12.74 12.74" color="#212121" width="75" height="75"><g transform="matrix(1 0 0 -1 0 0)">
	<g xmlns="http://www.w3.org/2000/svg">
		<path class="primary" fill="currentColor" d="M0-6.245c-3.444,0-6.245,2.802-6.245,6.246c0,3.443,2.802,6.244,6.245,6.244s6.245-2.801,6.245-6.244    C6.245-3.443,3.444-6.245,0-6.245z"/>
		<path class="secondary" d="M0,6.12c3.38,0,6.12-2.74,6.12-6.119C6.12-3.38,3.38-6.12,0-6.12s-6.12,2.74-6.12,6.121    C-6.12,3.38-3.38,6.12,0,6.12 M0,6.37c-3.513,0-6.37-2.857-6.37-6.369C-6.37-3.512-3.513-6.37,0-6.37s6.37,2.858,6.37,6.371    C6.37,3.513,3.513,6.37,0,6.37L0,6.37z" fill="#FFFFFF"/>
	</g>
	<g xmlns="http://www.w3.org/2000/svg">
		<path id="MH-60_Black_Hawk_1_" class="secondary" d="M-4.023-1.203C-3.899-1.254-1.27-0.821-1.27-0.821l0.307,0.138v0.239h-0.079    L-0.808-0.3l-0.035-0.105l0.035-0.201c0,0,0.496,0.36,0.61,0.399c0.113,0.039,0.204,0,0.204,0v0.179h0.108v-0.147l0.1,0.039    l0.067,0.108c0,0-0.076,0.153-0.048,0.21c0.028,0.058,1.399,0,1.399,0v0.166L1.463,0.373l0.019-0.045l-4.471,0.708L-3.393,0.94    L-3.53,0.953l0.498,0.179l4.398-0.555c0,0,0.31,0.284,0.552,0.268C2.16,0.876,2.482,0.577,2.482,0.577l2.722,0.25L2.9,0.468    L5.645,0.5l0.398-0.109L5.63,0.43L2.223,0.334l0.009-0.141c0,0,0.157,0.032,0.22,0C2.512,0.162,2.54,0.021,2.54,0.021    s1.771-0.714,1.97-0.854c0.2-0.14,0.453-0.473,0.565-0.523c0.11-0.05,0.563-0.229,0.654-0.498C5.82-2.122,5.182-2.297,4.745-2.367    c-0.437-0.07-5.281-0.098-5.607-0.067c-0.326,0.031-3.132,0.255-3.465,0.332c-0.332,0.076-0.735,0.325-0.735,0.325    s-0.531-0.357-0.561-0.312c-0.028,0.044,0.157,0.312,0.157,0.312l0.143,0.108c0,0-0.479,0.236-0.493,0.287    c-0.016,0.051,0.91,0.344,0.91,0.344l-0.508,0.893c0,0-0.037-0.332-0.095-0.364c-0.056-0.031-0.327,0.237-0.354,0.34    c-0.029,0.102,0.288,0.306,0.288,0.306l-0.161,0.338c0,0-0.256-0.077-0.29,0c-0.032,0.077,0.048,0.517,0.11,0.574    c0.062,0.058,0.289-0.16,0.289-0.16l0.27,0.064c0,0-0.17,0.485-0.137,0.548c0.034,0.064,0.571,0.125,0.55,0    s-0.089-0.529-0.089-0.529l0.142-0.179c0,0,0.294,0.3,0.355,0.287c0.062-0.012,0.134-0.484,0.119-0.555    c-0.014-0.07-0.289,0.02-0.289,0.02l0.033-0.103L-4.782,0.43l-0.053-0.275C-4.835,0.155-4.146-1.152-4.023-1.203z" fill="#FFFFFF"/>
	</g>
</g></svg>