<?xml version="1.0" standalone="no"?>
<svg xmlns="http://www.w3.org/2000/svg" viewBox="-6.37 -6.37 12.74 12.74" color="#212121" width="75" height="75"><g transform="matrix(1 0 0 -1 0 0)">
	<g xmlns="http://www.w3.org/2000/svg">
		<path class="primary" fill="currentColor" d="M0-6.245c-3.444,0-6.245,2.802-6.245,6.246c0,3.443,2.802,6.244,6.245,6.244s6.245-2.801,6.245-6.244    C6.245-3.443,3.444-6.245,0-6.245z"/>
		<path class="secondary" d="M0,6.12c3.38,0,6.12-2.74,6.12-6.119C6.12-3.38,3.38-6.12,0-6.12s-6.12,2.74-6.12,6.121    C-6.12,3.38-3.38,6.12,0,6.12 M0,6.37c-3.513,0-6.37-2.857-6.37-6.369C-6.37-3.512-3.513-6.37,0-6.37s6.37,2.858,6.37,6.371    C6.37,3.513,3.513,6.37,0,6.37L0,6.37z" fill="#FFFFFF"/>
	</g>
	<g xmlns="http://www.w3.org/2000/svg">
		<path id="MH-Seahawk_1_" class="secondary" d="M-5.402,0.139L-5.402,0.139l-0.021-0.062l0.725-0.895L-5.01-0.873l0.062-0.062l0.07-0.071    l0.251-0.403h-0.081h0.021h0.322l0.08-0.051l-0.183-0.17l0.383-0.086l-0.362-0.036h0.434l0.774-0.135l0.312-0.073l0.241-0.127    l0.08,0.068l0.523-0.065c0-0.003-0.002-0.008-0.002-0.011c0-0.075,0.062-0.137,0.138-0.137c0.072,0,0.139,0.058,0.143,0.131    c0.083-0.004,0.142-0.008,0.313-0.013v-0.162c0-0.021,0-0.038,0-0.038s0,0.017,0,0.038v0.158c0.173-0.001,0.173-0.004,0.173-0.005    v-0.025c0-0.022,0.063-0.042,0.085-0.042c0.024,0,0.087,0.02,0.087,0.042v0.021c0.173-0.011,0.55-0.024,0.846-0.035l-0.031-0.116    c-0.074-0.009-0.14-0.069-0.14-0.142c0-0.079,0.062-0.144,0.141-0.144c0.078,0,0.141,0.065,0.141,0.144    c0,0.058-0.035,0.107-0.085,0.13l0.016,0.088c0.44-0.016,0.832-0.066,0.992-0.066h0.263h0.06h0.376v-0.056    c0-0.023,0-0.042,0-0.042s0,0.019,0,0.042v0.056h1.203v0.074l0.307-0.033C2.881-2.27,2.855-2.34,2.855-2.42    c0-0.129,0.112-0.234,0.242-0.234c0.129,0,0.237,0.067,0.237,0.197c0,0.018,0.002,0.017-0.003,0.017h1.274    c0,0,0.038,0.048,0.019,0.148c0,0,0.246,0.007,0.588,0.125v-0.101h0.172v0.151c0,0.007,0,0.015,0,0.021v-0.062    c0-0.042,0.045-0.075,0.087-0.075c0.041,0,0.085,0.033,0.085,0.075v0.123c0,0.01,0.018,0.02,0.014,0.029    C5.6-1.985,5.639-1.962,5.668-1.937c0,0-0.047,0.31-0.666,0.438c0,0-0.363,0.611-1.027,0.747c0,0-0.652,0.163-1.169,0.218v0.352    l0.24-0.014C3.065-0.228,3.083-0.25,3.122-0.25c0.038,0,0.061,0.018,0.079,0.045l2.488-0.099L3.205-0.096    C3.188-0.059,3.151-0.033,3.106-0.033c-0.038,0-0.072-0.004-0.092-0.035L2.737-0.034H2.729c-0.013,0-0.085,0.101-0.174,0.101    c-0.047,0-0.089,0.072-0.121-0.101h-0.2C2.204,0.139,2.16,0.052,2.113,0.052c-0.072,0-0.135-0.026-0.162-0.088l-0.245,0.02    c-0.02,0.029-0.051,0.052-0.087,0.052C1.587,0.037,1.558,0.023,1.538,0l-4.606,0.223l4.593-0.331    C1.543-0.143,1.578-0.167,1.62-0.167c0.036,0,0.067,0.019,0.086,0.046l0.207-0.017c0.012-0.038,0.036-0.07,0.036-0.093V-0.52    C1.604-0.53,1.024-0.564,1.024-0.564S0.83-0.504,0.428-0.655L-0.36-0.947l-0.128,0.151l0.083-0.151l-2.94-0.402l-1.262,1.248    l-0.01,0.007c0.016,0.032,0.024,0.069,0.024,0.108c0,0.008,0,0.01-0.001,0.02l0.35-0.067h0.52V0.14h-0.52H-4.64    c-0.021,0-0.017,0.066-0.051,0.084l0.106,0.416v0.53h-0.172V0.639V0.261c-0.173,0-0.146-0.004-0.187-0.034l-0.459,0.084h-0.559    V0.139H-5.402z M2.534-0.263v-0.256c-0.03,0.001-0.062,0.002-0.096,0.003v0.252h0.096V-0.263z M2.216-0.515v0.251H2.29v-0.251    C2.266-0.515,2.239-0.515,2.216-0.515z" fill="#FFFFFF"/>
	</g>
</g></svg>