<?xml version="1.0" standalone="no"?>
<svg xmlns="http://www.w3.org/2000/svg" viewBox="-6.37 -6.37 12.74 12.74" color="#212121" width="75" height="75"><g transform="matrix(1 0 0 -1 0 0)">
	<g xmlns="http://www.w3.org/2000/svg" id="Circle_2_">
		<path class="primary" fill="currentColor" d="M-0.001-6.245c-3.443,0-6.244,2.802-6.244,6.246c0,3.443,2.801,6.244,6.244,6.244    c3.444,0,6.246-2.801,6.246-6.244C6.245-3.443,3.443-6.245-0.001-6.245z"/>
		<path class="secondary" d="M-0.001,6.12c3.381,0,6.121-2.74,6.121-6.119c0-3.381-2.74-6.121-6.121-6.121    c-3.379,0-6.119,2.74-6.119,6.121C-6.12,3.38-3.38,6.12-0.001,6.12 M-0.001,6.37c-3.512,0-6.369-2.857-6.369-6.369    c0-3.513,2.857-6.371,6.369-6.371c3.513,0,6.371,2.858,6.371,6.371C6.37,3.513,3.512,6.37-0.001,6.37L-0.001,6.37z" fill="#FFFFFF"/>
	</g>
	<path xmlns="http://www.w3.org/2000/svg" class="secondary" d="M5.041,0.729l0.088,0.118H5.077L5.692,1.04l0.016,0.232L4.529,0.916L3.8,1.183l-0.269-0.16l0.624-0.22   L3.65,0.648l-0.119-0.29L4.24,0.583L3.884,0.11L2.161,0.309v0.108H1.976V0.316H1.479v0.253H1.252V0.4H0.336   c0,0-0.236,0.211-0.497,0.337s-0.995,0.176-0.995,0.176v0.135h4.561V1.15h0.008v0.042H3.405v0.092L0.271,1.191h-1.433h-0.159   c0,0,0,0-0.034,0.059c0,0-0.033,0.067-0.185,0.075C-1.691,1.334-1.7,1.191-1.7,1.191h-4.12V0.955h3.902c0,0,0.009,0,0-0.066   c-0.588,0-0.588-0.244-0.588-0.244h-0.799L-3.464,0.57V0.309c0,0-0.084,0-0.312,0c-0.227,0-0.244-0.287-0.353-0.304   s-0.639-0.066-0.639-0.066h-0.656v-0.211h0.605c0,0,0,0,0.008-0.083C-4.946-0.44-4.997-0.658-4.997-0.658h-0.521v-0.289   c0,0,0.539,0.002,0.909,0c0.135-0.239,0.336-0.149,0.446-0.1C-4.054-0.995-4.021-0.85-4.021-0.85l0.416-0.105   c-0.025-0.039-0.04-0.084-0.04-0.133c0-0.131,0.107-0.238,0.238-0.238c0.131,0,0.237,0.107,0.237,0.238   c0,0.032-0.006,0.064-0.019,0.093h2.052c-0.012-0.028-0.019-0.061-0.019-0.093c0-0.131,0.106-0.238,0.238-0.238   S-0.68-1.219-0.68-1.088c0,0.052-0.018,0.101-0.046,0.139l1.422,0.341l2.936,0.287l0.024,0.003l0.388-0.433l0.168,0.05l-0.277,0.41   l0.37,0.035l0.594,0.794l0.769-0.272L5.82,0.443L5.041,0.729z" fill="#FFFFFF"/>
</g></svg>