<?xml version="1.0" standalone="no"?>
<svg xmlns="http://www.w3.org/2000/svg" viewBox="-6.37 -6.37 12.74 12.74" color="#212121" width="75" height="75"><g transform="matrix(1 0 0 -1 0 0)">
	<g xmlns="http://www.w3.org/2000/svg">
		<path class="primary" fill="currentColor" d="M0-6.245c-3.444,0-6.245,2.802-6.245,6.246c0,3.443,2.802,6.244,6.245,6.244s6.245-2.801,6.245-6.244    C6.245-3.443,3.444-6.245,0-6.245z"/>
		<path class="secondary" d="M0,6.12c3.38,0,6.12-2.74,6.12-6.119C6.12-3.38,3.38-6.12,0-6.12s-6.12,2.74-6.12,6.121    C-6.12,3.38-3.38,6.12,0,6.12 M0,6.37c-3.513,0-6.37-2.857-6.37-6.369C-6.37-3.512-3.513-6.37,0-6.37s6.37,2.858,6.37,6.371    C6.37,3.513,3.513,6.37,0,6.37L0,6.37z" fill="#FFFFFF"/>
	</g>
	<g xmlns="http://www.w3.org/2000/svg">
		<path id="MIL_MI-8_2_" class="secondary" d="M4.365,0.15c0.051-0.093,0-0.35,0-0.35s0.856-0.042,1.062-0.14    C5.632-0.437,6.01-0.787,5.93-1.094C5.851-1.401,5.67-1.616,5.539-1.653c-0.131-0.038-1.174,0-1.174,0s0.018-0.387,0-0.489    c-0.02-0.103-0.121-0.13-0.21-0.112C4.066-2.235,4.041-2.179,4.043-2.04c0.006,0.214,0.196,0.177,0.196,0.177l-0.028,0.14    L1.543-1.709c0,0,0.13-0.237,0.069-0.377c-0.06-0.14-0.163-0.217-0.408-0.151C1.002-2.184,0.969-2.062,0.969-1.932    s0.112,0.251,0.112,0.251s-0.602-0.07-1.146,0.042C-0.61-1.527-0.959-0.745-1.127-0.675c-0.254,0.106-2.476,0.084-2.476,0.084    S-3.84-0.968-3.924-0.94c-0.084,0.028,0,0.475,0,0.475s-0.466-0.06-0.602-0.014C-4.66-0.433-5.154,0.359-5.154,0.359l-0.11-0.699    l-0.238,0.014l0.21,0.964l-0.639,0.656l0.154,0.154l0.596-0.573l0.168-0.056l0.81,0.335l0.057-0.167l-0.755-0.266    c0,0,0.652-0.727,0.698-0.754c0.048-0.028,4.722,0.125,4.894,0.167c0.173,0.042,0.496,0.292,0.713,0.322    C1.619,0.486,1.92,0.527,1.92,0.527L1.905,0.723L-3.379,0.64l0.028,0.125l5.634,0.126V0.807l3.627-0.07v-0.21l-3.6,0.196    l0.014-0.224c0,0,0.723,0.052,0.783,0.014c0.061-0.038,0.07-0.308,0.07-0.308S4.314,0.243,4.365,0.15z" fill="#FFFFFF"/>
	</g>
</g></svg>