<?xml version="1.0" standalone="no"?>
<svg xmlns="http://www.w3.org/2000/svg" viewBox="-6.37 -6.37 12.74 12.74" color="#212121" width="75" height="75"><g transform="matrix(1 0 0 -1 0 0)">
	<g xmlns="http://www.w3.org/2000/svg">
		<path class="primary" fill="currentColor" d="M-0.001-6.245c-3.443,0-6.244,2.802-6.244,6.245s2.801,6.245,6.244,6.245c3.444,0,6.246-2.802,6.246-6.245    S3.443-6.245-0.001-6.245z"/>
		<path class="secondary" d="M-0.001,6.12C3.38,6.12,6.12,3.38,6.12,0S3.38-6.12-0.001-6.12C-3.38-6.12-6.12-3.38-6.12,0    S-3.38,6.12-0.001,6.12 M-0.001,6.37C-3.513,6.37-6.37,3.513-6.37,0s2.857-6.37,6.369-6.37C3.512-6.37,6.37-3.513,6.37,0    S3.512,6.37-0.001,6.37L-0.001,6.37z" fill="#FFFFFF"/>
	</g>
	<path xmlns="http://www.w3.org/2000/svg" id="MIL_MI-26_3_" class="secondary" d="M-5.585,0.362l-0.059,0.117l0.68,0.322l-0.077,0.102h0.386   C-4.646,0.917-4.638,0.93-4.628,0.94l-0.028,0.042h-0.048l-0.663,0.764l0.1,0.104l0.646-0.738l-0.011-0.091l0.043-0.048   c0.033,0.021,0.068,0.025,0.097,0.024l0.013,0.067v0.044l0.513,0.821l0.1-0.065L-4.36,1.053l-0.07-0.021l-0.019-0.04   c0.017-0.004,0.026-0.009,0.026-0.009l0.211-0.185l0.817-0.193l-0.021-0.124l-0.594,0.14l0.754-0.654c0.005,0,0.011,0,0.017,0   c0.097,0,0.176-0.009,0.176-0.019s-0.065-0.017-0.15-0.019l0.014-0.012l0.071-0.079l3.521,0.085l0.343,0.171   c0.056,0.124-0.048,0.179-0.048,0.179H0.646c0,0-0.016,0.168,0.154,0.181c0.17,0.012,0.278-0.037,0.278-0.037l0.258,0.039   l0.017,0.035l0.201-0.002V0.52h0.039L-3.35,0.93l4.638-0.304c0.01,0.021,0.031,0.033,0.055,0.032l0.212-0.009   c0.027,0,0.049-0.02,0.054-0.044L1.74,0.596l0,0l0.006,0.093C1.737,0.693,1.731,0.701,1.732,0.712   c0.001,0.013,0.012,0.023,0.025,0.023l0.09-0.004C1.862,0.73,1.872,0.72,1.872,0.706C1.871,0.693,1.86,0.683,1.848,0.683   L1.843,0.606L1.98,0.598c0.01,0.02,0.03,0.033,0.054,0.031l0.212-0.008c0.026-0.001,0.047-0.02,0.053-0.042l2.303-0.137   L2.256,0.508c-0.005-0.001-0.01-0.002-0.015-0.002L2.074,0.513L1.942,0.517V0.481c0.045,0,0.045-0.036,0.045-0.036   c0.338,0,0.672-0.131,0.672-0.131l0.062-0.301c0.482,0,0.818-0.079,0.818-0.079v-0.053h0.05c0,0.007,0.025,0.026,0.025,0.026   c0.116,0,0.147-0.136,0.147-0.136c0-0.149-0.144-0.185-0.144-0.185L3.595-0.373L3.54-0.404V-0.45   c0.853-0.012,1.514-0.245,1.514-0.245l0.17-0.27l0.292-0.132c0.265-0.115,0.04-0.261,0.04-0.261c-0.1-0.054-0.247-0.099-0.41-0.136   l-0.014-0.07H4.768c-0.038-0.005-0.075-0.01-0.11-0.015v-0.047H4.543v0.031c-0.162-0.021-0.296-0.034-0.362-0.04L4.272-1.76   L4.237-1.788H4.231c0-0.065-0.053-0.118-0.118-0.118S3.995-1.853,3.995-1.788S4.048-1.67,4.113-1.67   c0.019,0,0.037-0.005,0.054-0.013L4.159-1.636C4.144-1.638,4.136-1.639,4.136-1.639C3.995-1.651,3.853-1.662,3.712-1.673v-0.043   H3.527l-0.034,0.03c-0.1-0.006-0.198-0.011-0.297-0.016L3.178-1.757H3.131L3.14-1.704C2.616-1.725,2.122-1.729,1.757-1.728l0,0   v-0.029H1.679v0.03c-0.07,0.001-0.133,0.001-0.19,0.003C1.49-1.735,1.492-1.746,1.492-1.757c0-0.097-0.078-0.174-0.175-0.174   c-0.096,0-0.175,0.077-0.175,0.174c0,0.014,0.002,0.026,0.005,0.039c-0.006,0.001-0.01,0.001-0.01,0.001   c-0.602,0-1.098,0.133-1.491,0.309C-0.38-1.432-0.419-1.467-0.419-1.467L-0.6-1.393v0.106c-0.605,0.332-0.9,0.734-0.9,0.734   l-1.999,0.004l-0.314-0.253h-0.098l0.084,0.058l0.066,0.197c-0.202,0-0.298,0.169-0.298,0.169l-0.37,0.482l0.016-0.435H-4.53   L-4.578,0.3l-0.3,0.391L-5.585,0.362z" fill="#FFFFFF"/>
</g></svg>