<?xml version="1.0" standalone="no"?>
<svg xmlns="http://www.w3.org/2000/svg" viewBox="-6.37 -6.37 12.74 12.74" color="#212121" width="75" height="75"><g transform="matrix(1 0 0 -1 0 0)">
	<g xmlns="http://www.w3.org/2000/svg">
		<circle class="primary" fill="currentColor" cx="0" cy="0" r="6.245"/>
		<path class="secondary" d="M0,6.12c3.38,0,6.12-2.74,6.12-6.12S3.38-6.12,0-6.12S-6.12-3.38-6.12,0S-3.38,6.12,0,6.12 M0,6.37    c-3.513,0-6.37-2.857-6.37-6.37S-3.513-6.37,0-6.37S6.37-3.513,6.37,0S3.513,6.37,0,6.37L0,6.37z" fill="#FFFFFF"/>
	</g>
	<path xmlns="http://www.w3.org/2000/svg" class="secondary" d="M1.026,0.445c0,0,0.167,0.124,0.302-0.079h0.146v0.161H1.34c0,0-0.09,0.075-0.034,0.131l-4.558,0.079v0.089   L1.406,0.77l0.012,0.056h0.225V0.749L5.774,0.67V0.597L1.717,0.67c0,0,0.083-0.099-0.031-0.137c-0.056-0.005-0.098,0-0.098,0V0.367   h0.725V0.228h0.712V0.186h0.207V0.118h0.08v-0.314h0.59l0.216-0.262V-0.56H4.68c0,0,0.319-0.06,0.472-0.403   c0.006-0.213,0-0.326,0-0.326h0.069V-1.38h0.448v-0.09H5.266c0,0-0.09-0.149-0.404-0.104c-0.016-0.09-0.188-0.127-0.188-0.127   v-0.18H4.188v0.112c0,0-0.127,0.083-0.218,0.21c-0.2-0.008-0.845,0-0.845,0v-0.06H2.894v0.067H2.361L2.145-1.676L2.121-1.645   l0.09,0.092H0.969v0.036H0.666L0.701-1.48h-0.14c0,0-0.2-0.193-0.35,0.051c-0.007,0.057,0,0.096,0,0.096H0.049v0.056l-1.13,0.436   h-0.628v0.113h-0.144l-0.053-0.09h-0.276l-0.053,0.09v0.075l-1.616,0.21L-4.225-0.87h-0.12v0.075l0.083,0.007l0.112,0.39h-0.322   v0.06h-0.202c0,0-0.142,0.143,0.037,0.15l-0.479,0.696l-0.583-0.419l-0.076,0.112l0.554,0.434l-0.237,0.363l0.44,0.094L-5.1,1.882   h0.156l0.121-0.846l0.238-0.247l0.733-0.337l-0.074-0.149l-0.353,0.172l0.494-0.554L-2.105,0l-0.158,0.236l0.053,0.015L-2.039,0   h0.66l-0.122,0.198h0.062L-1.313,0l0.988,0.049c0,0,0.7,0.475,1.352,0.34C1.026,0.445,1.026,0.445,1.026,0.445" fill="#FFFFFF"/>
</g></svg>