<?xml version="1.0" standalone="no"?>
<svg xmlns="http://www.w3.org/2000/svg" viewBox="-6.37 -6.37 12.74 12.74" color="#212121" width="75" height="75"><g transform="matrix(1 0 0 -1 0 0)">
	<g xmlns="http://www.w3.org/2000/svg">
		<circle class="primary" fill="currentColor" cx="0" cy="0" r="6.245"/>
		<path class="secondary" d="M0,6.12c3.38,0,6.12-2.74,6.12-6.12S3.38-6.12,0-6.12S-6.12-3.38-6.12,0S-3.38,6.12,0,6.12 M0,6.37    c-3.513,0-6.37-2.857-6.37-6.37S-3.513-6.37,0-6.37S6.37-3.513,6.37,0S3.513,6.37,0,6.37L0,6.37z" fill="#FFFFFF"/>
	</g>
	<path xmlns="http://www.w3.org/2000/svg" id="OH-58_Kiowa_1_" class="secondary" d="M-5.96-1.068l0.041-0.092l0.848,0.092l0.555,1l3.215-0.48l0.628-0.767   c0,0,0.498-0.269,1.836-0.465c0,0-0.032-0.04,0.123-0.081l0.072-0.278L1.219-2.245v-0.082L4-2.424l0.229,0.122L4.099-2.22   L3.943-2.31H3.471L3.43-2.204L3.357-1.927L3.38-1.845c0,0,0.996,0.016,1.338,0.057C5.05-1.749,5.723-1.435,5.769-1.414L5.8-1.386   c0.038,0.045,0.073,0.141-0.144,0.258l-0.57,0.229c0,0-0.572,0.726-1.24,0.93H3.642L3.323,0.33c0,0,0.024,0.076-0.358,0.076H2.572   c0,0-0.015,0.098-0.072,0.131C2.443,0.569,2.451,0.634,2.523,0.683c0,0,0.018,0.081-0.342,0.081   C2.174,0.821,2.136,0.869,2.086,0.89v0.579l0.546,0.008l0.064,0.075l2.908,0.19L2.678,1.689L2.61,1.749L2.158,1.738L2.121,2.172   c0.115,0.03,0.21,0.111,0.262,0.217C2.461,2.408,2.521,2.48,2.521,2.564c0,0.084-0.06,0.156-0.138,0.175   C2.317,2.875,2.178,2.97,2.016,2.97c-0.161,0-0.299-0.094-0.364-0.23c-0.08-0.02-0.137-0.092-0.137-0.176s0.058-0.156,0.137-0.175   C1.703,2.281,1.803,2.2,1.92,2.17L1.883,1.747h-0.5l-0.066-0.06h-5.084l5.068-0.139l0.064-0.073L1.959,1.48V0.89   c-0.057-0.023-0.096-0.079-0.1-0.144L0.975,0.692L0.923,0.69c0.004,0.022,0.005,0.047,0,0.073C0.907,0.852,0.839,0.913,0.77,0.901   C0.7,0.888,0.658,0.806,0.674,0.718c0.004-0.013,0.007-0.025,0.012-0.037l-0.85-0.031l-1.11-0.479L-4.42,0.303l0.546,0.347   l-0.122,0.229l-0.629-0.413l-0.643,1.261H-5.67l0.425-1.371l-0.337-0.185V0.107l0.173-0.054L-5.81-0.218l0.118-0.196l0.425,0.304   l-0.281-0.816l0.117-0.065l-0.444-0.076v-0.035L-5.96-1.068z M1.537-1.845c0,0,0.876-0.087,1.535,0l0.06-0.082l0.054-0.266   L3.127-2.286l-1.508,0.06L1.57-2.123L1.537-1.845z" fill="#FFFFFF"/>
</g></svg>