<?xml version="1.0" standalone="no"?>
<svg xmlns="http://www.w3.org/2000/svg" viewBox="-6.37 -6.37 12.74 12.74" color="#212121" width="75" height="75"><g transform="matrix(1 0 0 -1 0 0)">
	<g xmlns="http://www.w3.org/2000/svg">
		<circle class="primary" fill="currentColor" cx="0" cy="0" r="6.245"/>
		<path class="secondary" d="M0,6.12c3.38,0,6.12-2.74,6.12-6.12S3.38-6.12,0-6.12S-6.12-3.38-6.12,0S-3.38,6.12,0,6.12 M0,6.37    c-3.513,0-6.37-2.857-6.37-6.37S-3.513-6.37,0-6.37S6.37-3.513,6.37,0S3.513,6.37,0,6.37L0,6.37z" fill="#FFFFFF"/>
	</g>
	<path xmlns="http://www.w3.org/2000/svg" id="SH-60_Seahawk_1_" class="secondary" d="M-5.354,0.436L-5.354,0.436l-0.021-0.065l0.724-0.958l-0.312-0.059l0.061-0.066   l0.069-0.076L-4.58-1.22h-0.08h0.021h0.322l0.081-0.054l-0.181-0.184l0.382-0.091l-0.363-0.039h0.433l0.773-0.144l0.313-0.079   l0.24-0.135l0.08,0.072l0.523-0.069c0-0.004-0.001-0.008-0.001-0.013c0-0.08,0.061-0.146,0.137-0.146   c0.073,0,0.141,0.062,0.144,0.14c0.084-0.004,0.141-0.009,0.313-0.014V-2.15c0-0.022,0-0.041,0-0.041s0,0.019,0,0.041v0.17   C-1.27-1.982-1.27-1.984-1.27-1.986v-0.026c0-0.025,0.062-0.044,0.087-0.044c0.021,0,0.084,0.02,0.084,0.044v0.022   c0.172-0.011,0.552-0.025,0.848-0.037l-0.032-0.124C-0.355-2.16-0.42-2.224-0.42-2.304c0-0.084,0.059-0.153,0.138-0.153   c0.078,0,0.141,0.069,0.141,0.153c0,0.062-0.034,0.116-0.085,0.14l0.017,0.095C0.229-2.087,0.621-2.14,0.782-2.14h0.263h0.061H1.48   v-0.059c0-0.024,0-0.045,0-0.045s0,0.021,0,0.045v0.059h1.205v0.079l0.308-0.036C2.93-2.142,2.905-2.217,2.905-2.304   c0-0.138,0.111-0.25,0.241-0.25c0.129,0,0.237,0.072,0.237,0.21c0,0.021,0.002,0.02-0.004,0.02h1.275c0,0,0.038,0.051,0.019,0.159   c0,0,0.244,0.007,0.588,0.133V-2.14h0.172v0.161c0,0.008,0,0.016,0,0.024v-0.068c0-0.044,0.043-0.08,0.086-0.08   c0.043,0,0.086,0.036,0.086,0.08v0.131c0,0.012,0.018,0.022,0.014,0.032c0.029,0.023,0.069,0.047,0.098,0.074   c0,0-0.048,0.332-0.667,0.469c0,0-0.362,0.654-1.026,0.8c0,0-0.651,0.174-1.17,0.233V0.09l0.24-0.014   c0.021-0.034,0.037-0.058,0.078-0.058c0.035,0,0.059,0.02,0.078,0.049l2.812-0.122l-2.808,0.24   c-0.018,0.04-0.055,0.067-0.099,0.067c-0.039,0-0.072-0.005-0.092-0.037L2.786,0.251h-0.01c-0.012,0-0.084,0.107-0.174,0.107   c-0.047,0-0.089,0.077-0.121-0.107H2.283C2.251,0.436,2.208,0.343,2.162,0.343c-0.074,0-0.137-0.027-0.163-0.095L1.755,0.271   c-0.019,0.03-0.051,0.056-0.087,0.056c-0.032,0-0.062-0.014-0.081-0.039l-4.608,0.238l4.596-0.354   c0.017-0.038,0.052-0.063,0.094-0.063c0.035,0,0.067,0.02,0.085,0.049L1.963,0.14c0.01-0.041,0.034-0.076,0.034-0.1v-0.309   c-0.344-0.012-0.924-0.05-0.924-0.05S0.881-0.252,0.476-0.414L-0.31-0.726l-0.129,0.162l0.084-0.162L-3.3-1.156l-1.261,1.334   L-4.57,0.185C-4.554,0.22-4.544,0.26-4.544,0.302c0,0.009,0,0.012-0.001,0.021l0.351-0.072h0.519v0.185h-0.519h-0.397   c-0.022,0-0.016,0.071-0.05,0.091l0.104,0.445V1.54h-0.171V0.972V0.566c-0.173,0-0.146-0.004-0.187-0.036l-0.459,0.09h-0.559V0.436   H-5.354z M2.583,0.006v-0.274c-0.03,0.001-0.062,0.002-0.096,0.003v0.271C2.487,0.006,2.583,0.006,2.583,0.006z M2.263-0.263v0.27   h0.075v-0.27C2.315-0.263,2.288-0.263,2.263-0.263z" fill="#FFFFFF"/>
</g></svg>