<?xml version="1.0" standalone="no"?>
<svg xmlns="http://www.w3.org/2000/svg" viewBox="-6.37 -6.37 12.74 12.74" color="#212121" width="75" height="75"><g transform="matrix(1 0 0 -1 0 0)">
	<g xmlns="http://www.w3.org/2000/svg">
		<path class="primary" fill="currentColor" d="M0-6.245c-3.444,0-6.245,2.802-6.245,6.246c0,3.443,2.802,6.244,6.245,6.244s6.245-2.801,6.245-6.244    C6.245-3.443,3.444-6.245,0-6.245z"/>
		<path class="secondary" d="M0,6.12c3.38,0,6.12-2.74,6.12-6.119C6.12-3.38,3.38-6.12,0-6.12s-6.12,2.74-6.12,6.121    C-6.12,3.38-3.38,6.12,0,6.12 M0,6.37c-3.513,0-6.37-2.857-6.37-6.369C-6.37-3.512-3.513-6.37,0-6.37s6.37,2.858,6.37,6.371    C6.37,3.513,3.513,6.37,0,6.37L0,6.37z" fill="#FFFFFF"/>
	</g>
	<path xmlns="http://www.w3.org/2000/svg" class="secondary" d="M4.686-0.698L4.555-0.597L4.44-0.551L4.177-0.234l-0.61,0.092L2.866,0.244H2.765L3.02,0.56H2.958L2.58,0.305   L2.117,0.668H2.016v0.101l3.918,0.159L5.711,1.013L2.069,0.892c0,0-0.078,0.1-0.115,0.108C1.916,1.008,1.738,1.031,1.738,1.031   v0.186l0.045,0.061L1.776,1.502h0.209l0.039,0.154L1.986,1.695L1.97,1.818c0,0-0.078,0.24-0.231,0.24   c-0.155,0-0.395-0.131-0.395-0.131V1.68c0,0,0.008-0.047,0.047-0.069c0.038-0.023,0.108-0.039,0.108-0.039V1.479L1.422,1.472   l0.046-0.078l0.014-0.108l0.093-0.069l0.008-0.179c0,0-0.193-0.023-0.24-0.054C1.297,0.953,1.204,0.876,1.204,0.876L-3.573,1.1   L-3.681,1l4.949-0.208V0.708c0,0-0.746-0.039-0.956-0.162S-0.2,0.152-0.2,0.152V0.09c0,0-0.942-0.163-1.049-0.234   c-0.108-0.07-0.44-0.417-0.44-0.417s-1.351-0.2-1.551-0.193C-3.339-0.75-3.636-0.523-3.911-0.295   c0.097,0.163,0.169,0.343,0.169,0.546c0,0.602-0.486,1.089-1.088,1.089c-0.601,0-1.088-0.487-1.088-1.089   c0-0.58,0.457-1.044,1.03-1.076c0.206-0.247,0.455-0.526,0.559-0.56c0.193-0.061,0.401-0.092,0.401-0.092l0.193-0.316l0.331-0.042   v-0.074c-0.097,0-0.177-0.08-0.177-0.178s0.08-0.178,0.177-0.178c0.1,0,0.179,0.08,0.179,0.178c0,0.033-0.01,0.064-0.026,0.09   l0.088,0.131l0.339-0.043l0.379,0.355c0,0,2.863-0.147,3.08-0.17c0.118-0.013,1.161,0.016,2.13,0.057V-1.7   c-0.12-0.028-0.209-0.135-0.209-0.263c0-0.149,0.122-0.27,0.271-0.27c0.114,0,0.211,0.071,0.251,0.17l0.165,0.154l-0.03,0.054   l0.231,0.219C3.947-1.61,4.346-1.583,4.447-1.562c0.316,0.069,1.119,0.293,1.119,0.293h0.255c0,0,0.077,0.193,0,0.239   C5.744-0.983,4.686-0.698,4.686-0.698z" fill="#FFFFFF"/>
</g></svg>