<?xml version="1.0" standalone="no"?>
<svg xmlns="http://www.w3.org/2000/svg" viewBox="-6.37 -6.37 12.74 12.74" color="#212121" width="75" height="75"><g transform="matrix(1 0 0 -1 0 0)">
	<g xmlns="http://www.w3.org/2000/svg">
		<path class="primary" fill="currentColor" d="M-0.001-6.245c-3.443,0-6.244,2.802-6.244,6.245s2.801,6.245,6.244,6.245c3.444,0,6.246-2.802,6.246-6.245    S3.443-6.245-0.001-6.245z"/>
		<path class="secondary" d="M-0.001,6.12C3.38,6.12,6.12,3.38,6.12,0S3.38-6.12-0.001-6.12C-3.38-6.12-6.12-3.38-6.12,0    S-3.38,6.12-0.001,6.12 M-0.001,6.37C-3.513,6.37-6.37,3.513-6.37,0s2.857-6.37,6.369-6.37C3.512-6.37,6.37-3.513,6.37,0    S3.512,6.37-0.001,6.37L-0.001,6.37z" fill="#FFFFFF"/>
	</g>
	<path xmlns="http://www.w3.org/2000/svg" id="TV_Helicoter_3_" class="secondary" d="M5.642,1.878c0,0-3.154-0.091-3.243-0.091c-0.091,0-0.678,0-0.678,0L1.694,1.891H1.512   L1.474,1.812L1.12,1.761C-3.971,1.513-3.788,1.37-3.788,1.37c4.036,0.404,5.17,0.196,5.17,0.196l-0.04-0.704   c0,0,0.366-0.078-0.546-0.065S-0.545,0.471-0.599,0.38C-0.65,0.289-4.336,0.536-4.336,0.536s-0.651,1.602-0.753,1.719   c-0.106,0.118-0.458,0.013-0.458,0.013c-0.022-0.169,0.179-0.716,0.299-0.985c0.123-0.27,0.105-0.556,0.053-0.634   c-0.053-0.078-0.443-0.208-0.468-0.26c-0.026-0.052,0.285-0.104,0.32-0.139c0.034-0.034-0.174-0.911-0.131-1.059   c0.045-0.147,0.504-0.243,0.531-0.2c0.023,0.043,0.582,1.06,0.606,1.103C-4.31,0.136-0.802-0.35-0.731-0.393   c0.068-0.043,0.38-0.772,0.563-0.902s0.843-0.33,0.843-0.33C0.592-1.673,0.531-1.803,0.488-1.944l-0.44-0.012   c0,0-0.037,0.005-0.037-0.039s0.042-0.057,0.042-0.057L0.461-2.04C0.42-2.186,0.401-2.328,0.392-2.387l-0.431-0.02   c0,0-0.06,0.004-0.06-0.043c0-0.048,0.059-0.048,0.059-0.048s1.835,0.096,2.008,0.096c0.05,0,0.088,0.003,0.113,0.01   C2.093-2.39,2.104-2.388,2.115-2.384c0.077,0.026,0.118,0.121,0.118,0.178c0,0.056-0.035,0.025-0.07-0.026   C2.136-2.272,2.038-2.3,1.995-2.31L1.708-2.325c-0.005,0.13,0.015,0.237,0.049,0.321h0.016l0.013-0.021   c0-0.065,0.061-0.065,0.061-0.065l1.491,0.047c0.133-0.15,0.188-0.303,0.206-0.355C3.077-2.436,2.43-2.486,2.312-2.49   c-0.187-0.004-0.48,0.018-0.393-0.074l2.03,0.104c0,0,0.147,0.013,0.221,0.134c0.073,0.122-0.07-0.022-0.136-0.03   C4.013-2.359,3.854-2.373,3.641-2.39C3.583-2.25,3.505-2.135,3.42-2.041L3.762-2.03c0,0,0.046,0,0.046,0.035   c0,0.034-0.042,0.039-0.042,0.039L3.349-1.964c-0.16,0.155-0.323,0.239-0.382,0.269C2.863-1.643,2.94-1.617,2.94-1.617   s0.601-0.078,1.009,0.095c0.407,0.174,0.303,0.469,0.225,0.547C4.097-0.896,3.592-0.219,3.399,0.007   C3.211,0.233,2.845,0.136,2.845,0.136C2.706,0.415,2.532,0.476,2.28,0.493S2.064,0.545,2.056,0.702   c-0.01,0.156-0.244,0.16-0.244,0.16l0.052,0.717c0.705,0.234,2.802,0.195,3.374,0.209C5.811,1.8,5.642,1.878,5.642,1.878z    M1.621-2.329L0.51-2.381c-0.009,0.137,0.003,0.25,0.02,0.344l1.132,0.031C1.625-2.132,1.621-2.263,1.621-2.329z M1.959-1.773   c0.087,0.009,0.955,0.017,0.955,0.017c0.147-0.05,0.261-0.126,0.35-0.209L2.098-1.99L2.002-1.904L1.803-1.909   C1.854-1.823,1.917-1.777,1.959-1.773z M1.831-1.738C1.769-1.779,1.725-1.841,1.694-1.912l-1.14-0.03   c0.074,0.235,0.208,0.308,0.208,0.308l0.987-0.017L1.831-1.738z" fill="#FFFFFF"/>
</g></svg>