<?xml version="1.0" standalone="no"?>
<svg xmlns="http://www.w3.org/2000/svg" viewBox="-6.37 -6.37 12.74 12.74" color="#212121" width="75" height="75"><g transform="matrix(1 0 0 -1 0 0)">
	<g xmlns="http://www.w3.org/2000/svg">
		<path class="primary" fill="currentColor" d="M0-6.245c-3.444,0-6.245,2.802-6.245,6.246c0,3.443,2.802,6.244,6.245,6.244s6.245-2.801,6.245-6.244    C6.245-3.443,3.444-6.245,0-6.245z"/>
		<path class="secondary" d="M0,6.12c3.38,0,6.12-2.74,6.12-6.119C6.12-3.38,3.38-6.12,0-6.12s-6.12,2.74-6.12,6.121    C-6.12,3.38-3.38,6.12,0,6.12 M0,6.37c-3.513,0-6.37-2.857-6.37-6.369C-6.37-3.512-3.513-6.37,0-6.37s6.37,2.858,6.37,6.371    C6.37,3.513,3.513,6.37,0,6.37L0,6.37z" fill="#FFFFFF"/>
	</g>
	<g xmlns="http://www.w3.org/2000/svg">
		<g>
			<path class="secondary" d="M4.922-0.999L4.392-0.25c0,0-0.049,0.112-0.445,0.112H3.758v0.075h0.116V0.02h0.048v0.534H2.765V0.208     L2.131,0.302v0.149H1.997v0.861h0.231L5.84,1.551L2.236,1.509H1.997H1.659l-5.214,0.276l5.33-0.454l0.072-0.86H1.7V0.339     c0,0-0.884,0-1.421,0L0.171,0.48L0.122,0.489V0.405c0,0-0.349-0.057-0.637-0.113V0.021l-0.04-0.046v-0.552l-3.189,0.304     l-1.271,1.338l0.072,0.131h0.207l0.619,0.702l-0.147,0.15L-5.09,1.149h-0.1V1.036l-0.092-0.112l-0.181,0.028l-0.62-0.673     l0.133-0.197l0.603,0.627V0.512l0.546-0.852l-0.101-0.065l0.207-0.084l0.066-0.131l-0.628-0.112l0.719,0.056l3.146-0.866v-0.131     l0.124-0.046l0.059,0.149l0.414-0.075l0.008-0.141h0.33c0,0,1.099-0.336,1.61-0.336c0,0,1.164-0.057,2.297-0.057     c0,0,1.85-0.046,2.355,0.525C5.807-1.654,5.748-0.999,4.922-0.999z" fill="#FFFFFF"/>
		</g>
		<g>
			<g>
				<g>
					<rect x="3.427" y="-2.601" class="secondary" width="0.132" height="0.515" fill="#FFFFFF"/>
				</g>
			</g>
			<g>
				<g>
					<rect x="1.146" y="-2.545" class="secondary" width="0.132" height="0.515" fill="#FFFFFF"/>
				</g>
			</g>
			<g>
				<g>
					<path class="secondary" d="M4.271-2.366c-0.016-0.017-0.203-0.16-1.885-0.16v-0.15c1.871,0,1.963,0.17,1.992,0.226       c0.017,0.028,0.018,0.061,0.007,0.088" fill="#FFFFFF"/>
				</g>
			</g>
			<g>
				<g>
					<path class="secondary" d="M0.431-2.362c-0.013-0.027-0.01-0.06,0.005-0.088c0.031-0.056,0.125-0.226,1.996-0.226v0.15       c-1.685,0-1.871,0.144-1.887,0.16" fill="#FFFFFF"/>
				</g>
			</g>
		</g>
		<g>
			<path class="secondary" d="M1.775,1.579c0-0.065,0.045-0.117,0.103-0.117h0.066c0.056,0,0.103,0.052,0.103,0.117l0,0     c0,0.064-0.047,0.117-0.103,0.117H1.878C1.82,1.696,1.775,1.644,1.775,1.579L1.775,1.579z" fill="#FFFFFF"/>
		</g>
		<g>
			<path class="secondary" d="M1.868,1.728c0-0.026,0.021-0.048,0.044-0.048l0,0c0.021,0,0.041,0.021,0.041,0.048v0.033     c0,0.026-0.02,0.048-0.041,0.048l0,0c-0.023,0-0.044-0.021-0.044-0.048V1.728z" fill="#FFFFFF"/>
		</g>
		<g>
			<path class="secondary" d="M2.315,1.631c0,0.036,0.027,0.065,0.059,0.065s0.058-0.03,0.058-0.065c0-0.036-0.026-0.065-0.058-0.065     S2.315,1.595,2.315,1.631z" fill="#FFFFFF"/>
		</g>
		<g>
			<path class="secondary" d="M1.391,1.631c0,0.036,0.025,0.065,0.058,0.065s0.058-0.03,0.058-0.065c0-0.036-0.024-0.065-0.058-0.065     C1.416,1.565,1.391,1.595,1.391,1.631z" fill="#FFFFFF"/>
		</g>
		<g>
			<g>
				<rect x="1.457" y="1.593" class="secondary" width="0.908" height="0.076" fill="#FFFFFF"/>
			</g>
		</g>
	</g>
</g></svg>