<?xml version="1.0" standalone="no"?>
<svg xmlns="http://www.w3.org/2000/svg" viewBox="-6.37 -6.37 12.74 12.74" color="#212121" width="75" height="75"><g transform="matrix(1 0 0 -1 0 0)">
	<g xmlns="http://www.w3.org/2000/svg">
		<path class="primary" fill="currentColor" d="M0-6.245c-3.444,0-6.245,2.802-6.245,6.246c0,3.443,2.802,6.244,6.245,6.244s6.245-2.801,6.245-6.244    C6.245-3.443,3.444-6.245,0-6.245z"/>
		<path class="secondary" d="M0,6.12c3.38,0,6.12-2.74,6.12-6.119C6.12-3.38,3.38-6.12,0-6.12s-6.12,2.74-6.12,6.121    C-6.12,3.38-3.38,6.12,0,6.12 M0,6.37c-3.513,0-6.37-2.857-6.37-6.369C-6.37-3.512-3.513-6.37,0-6.37s6.37,2.858,6.37,6.371    C6.37,3.513,3.513,6.37,0,6.37L0,6.37z" fill="#FFFFFF"/>
	</g>
	<g xmlns="http://www.w3.org/2000/svg">
		<path id="UH-IY_Venom_1_" class="secondary" d="M-6.068,0.496v-0.16h0.107l0.051,0.072h0.167l0.065-0.088V0.168h0.033v-0.963h0.198    v0.533l0.435-0.666v-0.16l-0.477-0.171l-0.117-0.008c0,0-0.184,0.087-0.184,0.064s0.176-0.145,0.176-0.145L-5.5-1.351l0.497,0.19    c0,0,0.207-0.034,0.287-0.019c0.08,0.016,0.18,0.103,0.251,0.11c0.071,0.008,1.196-0.467,1.196-0.467V-1.64h0.078v0.099    l1.84-0.191v-0.144h-0.043v-0.05h0.248v0.05h-0.045v0.125c0,0,0.166,0.019,0.244,0s0.832-0.38,1.479-0.452    C0.592-2.209,0.656-2.216,0.72-2.22v-0.321C0.671-2.54,0.637-2.537,0.62-2.536C0.422-2.516,0.232-2.418,0.171-2.41    c-0.06,0.01-0.101-0.087-0.07-0.1c0.031-0.014,0.38-0.175,0.536-0.179s2.719-0.076,2.916-0.05C3.751-2.712,4.139-2.514,4.155-2.48    C4.17-2.446,4.013-2.389,3.966-2.389c-0.051,0-0.363-0.231-0.473-0.229c-0.016,0-0.084,0.002-0.191,0.004v0.41l1.236,0.027v-0.04    h0.436v0.096H5.03l0.005-0.183c0,0,0.038-0.135,0.157-0.137c0.12-0.001,0.153,0.102,0.153,0.102l0.02,0.324    c0,0,0.298,0.169,0.312,0.252C5.69-1.676,5.629-1.609,5.629-1.609h0.192v0.051H5.566c0,0-0.502,0.275-0.63,0.386    c-0.125,0.112-0.618,0.59-0.618,0.59L4.254-0.561l0.105,0.099l0.209-0.003l0.005,0.042L4.387-0.428l0.189,0.209L4.527-0.173    L4.242-0.436H4.087v-0.137H3.949v0.149h0.096v0.03H3.693v-0.034h0.051v-0.149H3.675l-0.48,0.256L2.562-0.223L1.977,0.523    L1.901,0.531v0.351H1.98l0.005-0.031L3.637,0.82l0.057,0.068l2.16-0.031l0.121,0.122L3.693,0.984v0.05H2.188    c0,0-0.047,0.049-0.085,0.049S1.988,1.03,1.988,1.03s-0.235,0.084-0.43,0.084S1.306,1.015,1.306,1.015S-0.068,1.018-0.19,1.019    c-0.121,0-0.171,0.049-0.276,0.049c-0.107,0-0.168-0.038-0.168-0.038l-0.031-0.053l-3.148,0.006L-3.728,0.9l3.063-0.011    c0,0-0.014-0.049,0.012-0.053c0.026-0.004,1.721-0.023,1.721-0.023v0.054h0.091V0.592c0,0-0.121,0.027-0.121,0s0-0.064,0-0.064    L0.916,0.429l-0.062,0.03L0.85,0.626h0.059v0.049H0.652V0.63h0.037V0.436H0.633V0.307c0,0-0.757,0.012-0.806-0.026    s-0.085-0.129-0.085-0.129h-0.178V0.044l0.092-0.004l-0.085-0.148c0,0-0.505-0.025-0.617-0.03    c-0.11-0.006-0.315-0.149-0.315-0.149h-0.213c0,0-0.172-0.011-0.198-0.061c-0.026-0.049-0.034-0.209,0-0.247    C-1.738-0.633-1.338-0.79-1.338-0.79l-0.005-0.042c0,0-2.473,0.094-2.618,0.098C-4.107-0.73-5.104,0.338-5.122,0.355    c-0.019,0.017-0.084-0.039-0.084-0.039l-0.095,0.031v0.054h0.981v0.206c0,0-0.842,0.022-0.879,0    c-0.039-0.023-0.069-0.069-0.069-0.069h-0.088l-0.164,0.19V1.71h-0.209c0,0-0.029-0.819,0-0.868C-5.697,0.792-5.65,0.64-5.65,0.64    l-0.082-0.114c0,0-0.058,0.014-0.082,0.019C-5.841,0.551-5.91,0.496-5.91,0.496H-6.068z M0.869-2.228    c0.562-0.031,1.135-0.003,1.135-0.003l1.073,0.024v-0.399C2.473-2.591,1.369-2.563,0.869-2.544V-2.228z" fill="#FFFFFF"/>
	</g>
</g></svg>