<?xml version="1.0" standalone="no"?>
<svg xmlns="http://www.w3.org/2000/svg" viewBox="-6.37 -6.37 12.74 12.74" color="#212121" width="75" height="75"><g transform="matrix(1 0 0 -1 0 0)">
	<g xmlns="http://www.w3.org/2000/svg">
		<path class="primary" fill="currentColor" d="M0-6.245c-3.444,0-6.245,2.802-6.245,6.246c0,3.443,2.802,6.244,6.245,6.244s6.245-2.801,6.245-6.244    C6.245-3.443,3.444-6.245,0-6.245z"/>
		<path class="secondary" d="M0,6.12c3.38,0,6.12-2.74,6.12-6.119C6.12-3.38,3.38-6.12,0-6.12s-6.12,2.74-6.12,6.121    C-6.12,3.38-3.38,6.12,0,6.12 M0,6.37c-3.513,0-6.37-2.857-6.37-6.369C-6.37-3.512-3.513-6.37,0-6.37s6.37,2.858,6.37,6.371    C6.37,3.513,3.513,6.37,0,6.37L0,6.37z" fill="#FFFFFF"/>
	</g>
	<g xmlns="http://www.w3.org/2000/svg">
		<path id="UH-I_Iroquois_2_" class="secondary" d="M-0.46-1.382c0.064-0.016,0.439-0.2,0.838-0.29c0.447-0.1,0.919-0.106,0.937-0.154    c0.031-0.09-0.046-0.362-0.046-0.362S0.856-2.056,0.784-2.074s-0.136-0.104-0.058-0.15c0.077-0.045,0.436-0.113,0.589-0.145    s2.397-0.004,2.533,0c0.135,0.004,0.679,0.263,0.679,0.263l-0.064,0.1c0,0-0.706-0.227-0.778-0.208    C3.612-2.196,3.612-1.875,3.612-1.875s0.873,0.077,1.362,0.091C5.463-1.771,5.53-1.237,5.53-1.237h0.146v-0.598L5.73-1.803v1.258    H5.672v-0.562h-0.19c0,0-0.132,0.179-0.416,0.294C4.922-0.754,4.657-0.224,4.436-0.16C4.215-0.097,3.499-0.07,3.499-0.07v0.045    H3.224L3.187-0.083L3.029-0.079c0,0-0.15,0.158-0.317,0.222C2.545,0.207,2.178,0.175,2.178,0.175v0.059l0.073,0.032V0.37H2.12    v0.764h0.284l0.041,0.059l3.294,0.238v0.09L2.382,1.315L2.137,1.319V1.41l0.128,0.009v0.095L1.726,1.505l-0.009-0.09l0.19-0.013    L1.897,1.31l-5.868,0.266v-0.1l5.579-0.311l0.004-0.054l0.305,0.004L1.911,0.378H1.775v-0.19H0.368v0.14L0.242,0.324l-0.046-0.14    L0.02,0.057c0,0-0.072,0.009-0.136-0.009c-0.062-0.018-0.127-0.312-0.09-0.344c0.035-0.032,0.117-0.022,0.117-0.022    s-0.141-0.19-0.254-0.204c-0.112-0.014-3.325,0.211-3.489,0.211c-0.161,0-1.234,1.095-1.234,1.095l0.742,0.837l-0.073,0.177    l-0.69-0.701l-0.027-0.163c0,0-0.078,0.022-0.132,0.004C-5.302,0.92-5.302,0.861-5.302,0.861V0.766l-0.76-0.747l0.123-0.154    l0.546,0.521L-4.749-0.6l-0.814-0.145c0,0-0.041-0.109,0.036-0.122c0.077-0.014,0.851,0.156,0.958,0.171    c0.109,0.015,3.463-0.681,3.544-0.703C-0.944-1.422-0.595-1.348-0.46-1.382z" fill="#FFFFFF"/>
	</g>
</g></svg>