<?xml version="1.0" standalone="no"?>
<svg xmlns="http://www.w3.org/2000/svg" viewBox="-6.37 -6.37 12.74 12.74" color="#212121" width="75" height="75"><g transform="matrix(1 0 0 -1 0 0)">
	<g xmlns="http://www.w3.org/2000/svg">
		<path class="primary" fill="currentColor" d="M0-6.245c-3.444,0-6.245,2.802-6.245,6.246c0,3.443,2.802,6.244,6.245,6.244s6.245-2.801,6.245-6.244    C6.245-3.443,3.444-6.245,0-6.245z"/>
		<path class="secondary" d="M0,6.12c3.38,0,6.12-2.74,6.12-6.119C6.12-3.38,3.38-6.12,0-6.12s-6.12,2.74-6.12,6.121    C-6.12,3.38-3.38,6.12,0,6.12 M0,6.37c-3.513,0-6.37-2.857-6.37-6.369C-6.37-3.512-3.513-6.37,0-6.37s6.37,2.858,6.37,6.371    C6.37,3.513,3.513,6.37,0,6.37L0,6.37z" fill="#FFFFFF"/>
	</g>
	<g xmlns="http://www.w3.org/2000/svg">
		<path id="UH-60_Black_Hawk_1_" class="secondary" d="M-5.344,0.587h0.082l0.037,0.038l-0.034,0.064l-0.085,0.115l-0.119,0.077    c0.092,0.052,0.255,0.024,0.324,0.009c0.028,0.037,0.07,0.067,0.12,0.083c0.003,0.009,0.004,0.014,0.004,0.014l-0.405,1.08    l0.111,0.077l0.35-0.924V1.108l0.062-0.12c0.047-0.005,0.09-0.019,0.127-0.041c0.074,0.088,0.141,0.042,0.141,0.042l0.787,0.558    l0.057-0.154l-0.675-0.48h-0.079l-0.132-0.126c0-0.022-0.003-0.043-0.012-0.063l0.012-0.005l1.356-1.811l3.169,0.583    c0,0.343,1.022,0.622,2.28,0.622c0.093,0,0.182-0.002,0.271-0.005v0.458C2.272,0.571,2.16,0.604,2.093,0.65l0,0l-4.685,0.453    l4.633-0.305h0.002C2.062,0.83,2.099,0.857,2.149,0.879v0.118h0.605V0.879c0.074-0.034,0.121-0.08,0.121-0.13    c0-0.001,0-0.002,0-0.003l3.03-0.183L2.811,0.65l0,0C2.743,0.603,2.629,0.57,2.497,0.565V0.104    c0.662-0.029,1.228-0.135,1.569-0.283l0,0c0.282-0.041,0.47-0.229,0.47-0.229l0.532-0.684l0.288-0.244    c0.273-0.098,0.436-0.218,0.436-0.348S5.63-1.934,5.359-2.031c0-0.006,0.001-0.012,0.001-0.018C5.36-2.077,5.348-2.1,5.334-2.1    S5.309-2.077,5.309-2.049l0,0C4.891-2.188,4.241-2.277,3.511-2.277c-0.013,0-0.024,0-0.036,0C3.484-2.313,3.49-2.353,3.49-2.393    c0-0.182-0.107-0.328-0.237-0.328c-0.133,0-0.239,0.146-0.239,0.328c0,0.045,0.007,0.089,0.019,0.129    c-0.132,0.006-0.26,0.018-0.383,0.03l0,0l-5.114,0.216v0.051l-0.563-0.421c0-0.126-0.075-0.227-0.167-0.227    c-0.093,0-0.168,0.104-0.168,0.231s0.075,0.231,0.168,0.231c0.056,0,0.105-0.038,0.138-0.097l0.031,0.016l0.048,0.081h0.092    l0.292,0.228L-4-1.748C-4.47-1.68-4.576-1.517-4.576-1.517l-0.47,1.006h0.441l-0.551,1.013C-5.169,0.506-5.175,0.51-5.175,0.51    L-5.96-0.047l-0.057,0.154L-5.344,0.587z" fill="#FFFFFF"/>
	</g>
</g></svg>