<?xml version="1.0" standalone="no"?>
<svg xmlns="http://www.w3.org/2000/svg" viewBox="-6.37 -6.37 12.74 12.74" color="#212121" width="75" height="75"><g transform="matrix(1 0 0 -1 0 0)">
	<g xmlns="http://www.w3.org/2000/svg">
		<path class="primary" fill="currentColor" d="M0-6.245c-3.444,0-6.245,2.802-6.245,6.246c0,3.443,2.802,6.244,6.245,6.244s6.245-2.801,6.245-6.244    C6.245-3.443,3.444-6.245,0-6.245z"/>
		<path class="secondary" d="M0,6.12c3.38,0,6.12-2.74,6.12-6.119C6.12-3.38,3.38-6.12,0-6.12s-6.12,2.74-6.12,6.121    C-6.12,3.38-3.38,6.12,0,6.12 M0,6.37c-3.513,0-6.37-2.857-6.37-6.369C-6.37-3.512-3.513-6.37,0-6.37s6.37,2.858,6.37,6.371    C6.37,3.513,3.513,6.37,0,6.37L0,6.37z" fill="#FFFFFF"/>
	</g>
	<g xmlns="http://www.w3.org/2000/svg">
		<path id="UH-72_Lakota_2_" class="secondary" d="M-4.933-0.049L-5.01-0.565l0.614-0.046l0.358,0.464l1.298,0.012v-0.111h0.922v0.085    c0,0,0.474,0.012,0.504-0.052c0.031-0.064,0.155-0.373,0.704-1.09c0.551-0.719,1.704-0.739,1.704-0.739v-0.433L0.74-2.46v-0.098    c0,0,2.897-0.203,3.103-0.137C4.048-2.63,4.617-1.976,4.617-1.976s1.167,0.359,1.22,0.731c0.056,0.373-0.695,0.728-1.411,1.117    C3.708,0.261,2.218,0.774,2.218,0.774l-0.19,0.059L2.04,1.036l3.935-0.128v0.079L2.108,1.218c0,0-0.105,0.146-0.278,0.155    C1.656,1.383,1.527,1.25,1.527,1.25l-5.949,0.738V1.924l6.013-0.85l-0.007-0.28c0,0-0.862,0.049-1.213,0.006    C0.018,0.757-1.214,0.373-1.324,0.343c-0.113-0.029-2.773,0.023-2.854,0.04c-0.08,0.016-0.797,0.78-0.902,0.81    c-0.105,0.029-0.191,0.02-0.191,0.02S-5.48,1.417-5.533,1.421c-0.055,0.003-0.4-0.203-0.403-0.248    C-5.939,1.127-4.933-0.049-4.933-0.049z M3.418-2.135l0.271-0.011l0.774,0.13c0,0-0.602-0.563-0.665-0.575    c-0.064-0.012-0.38,0.016-0.38,0.016L3.418-2.135z M1.214-2.046L3.283-2.13v-0.438L1.214-2.48V-2.046z" fill="#FFFFFF"/>
	</g>
</g></svg>