<?xml version="1.0" standalone="no"?>
<svg xmlns="http://www.w3.org/2000/svg" viewBox="-6.37 -6.37 12.74 12.74" color="#212121" width="75" height="75"><g transform="matrix(1 0 0 -1 0 0)">
	<g xmlns="http://www.w3.org/2000/svg">
		<path class="primary" fill="currentColor" d="M0-6.245c-3.444,0-6.245,2.802-6.245,6.246c0,3.443,2.802,6.244,6.245,6.244s6.245-2.801,6.245-6.244    C6.245-3.443,3.444-6.245,0-6.245z"/>
		<path class="secondary" d="M0,6.12c3.38,0,6.12-2.74,6.12-6.119C6.12-3.38,3.38-6.12,0-6.12s-6.12,2.74-6.12,6.121    C-6.12,3.38-3.38,6.12,0,6.12 M0,6.37c-3.513,0-6.37-2.857-6.37-6.369C-6.37-3.512-3.513-6.37,0-6.37s6.37,2.858,6.37,6.371    C6.37,3.513,3.513,6.37,0,6.37L0,6.37z" fill="#FFFFFF"/>
	</g>
	<path xmlns="http://www.w3.org/2000/svg" id="VH-Sea_Stallion_2_" class="secondary" d="M2.468,1.209c0,0-0.62,0.037-0.827,0C1.434,1.172,1.079,0.546,1.02,0.543   C0.959,0.541-3.86,0.306-3.86,0.306s0.163,1.39-0.991,1.494c-0.173-0.021-1.271-0.029-1.094-1.405   c0.103-0.354,0.432-0.77,0.872-0.784c0.441-0.013,0.695,0.163,0.695,0.163l0.222-0.163l-1.713-0.063l1.86-0.011   c0,0,2.479-0.284,2.603-0.458s0.295-0.414,0.295-0.414l-0.044-0.133c0,0-0.242,0.089-0.265-0.133   C-1.443-1.823-1.132-1.69-1.132-1.69l0.184,0.178l4.229,0.073L3.267-1.631c0,0,0.052-0.074,0.208-0.044   c0.155,0.03,0.206,0.237,0.206,0.237S5.239-1.466,5.455-1.32s0.548,0.266,0.531,0.776c0,0.214-0.398,0.437-0.398,0.437   S5.277,0.38,5.159,0.454c-0.118,0.075-0.458,0.03-0.458,0.03v0.148L4.582,0.646V0.543l-0.221,0.03c0,0,0.008,0.38-0.074,0.384   C4.204,0.961,3.075,1.016,3.075,1.016v0.178h-0.09l2.882-0.138V1.13L3.223,1.431c0,0-0.244,0.163-0.415,0.177   C2.638,1.622,2.38,1.49,2.38,1.49l-6.004,0.399l-0.015-0.074l6.077-0.473L2.468,1.209z" fill="#FFFFFF"/>
</g></svg>