<?xml version="1.0" standalone="no"?>
<svg xmlns="http://www.w3.org/2000/svg" viewBox="-6.37 -6.37 12.74 12.74" color="#212121" width="75" height="75"><g transform="matrix(1 0 0 -1 0 0)">
	<g xmlns="http://www.w3.org/2000/svg">
		<path class="primary" fill="currentColor" d="M0-6.245c-3.444,0-6.245,2.802-6.245,6.246c0,3.443,2.802,6.244,6.245,6.244s6.245-2.801,6.245-6.244    C6.245-3.443,3.444-6.245,0-6.245z"/>
		<path class="secondary" d="M0,6.12c3.38,0,6.12-2.74,6.12-6.119C6.12-3.38,3.38-6.12,0-6.12s-6.12,2.74-6.12,6.121    C-6.12,3.38-3.38,6.12,0,6.12 M0,6.37c-3.513,0-6.37-2.857-6.37-6.369C-6.37-3.512-3.513-6.37,0-6.37s6.37,2.858,6.37,6.371    C6.37,3.513,3.513,6.37,0,6.37L0,6.37z" fill="#FFFFFF"/>
	</g>
	<path xmlns="http://www.w3.org/2000/svg" id="VH-60_Whitehawk_1_" class="secondary" d="M5.158-1.53c0,0,0.569-0.005,0.562-0.483C5.711-2.571,4.472-2.502,4.472-2.502   S4.048-2.551,3.953-2.575C3.858-2.6,3.675-2.682,3.659-2.737s-0.102-0.449-0.333-0.41c-0.232,0.039-0.247,0.45-0.247,0.45v0.215   c0,0-5.294,0.42-5.412,0.332c-0.119-0.088-0.291-0.215-0.291-0.215l-0.218-0.157c0,0,0.044-0.142-0.029-0.23   C-2.942-2.839-3.09-2.879-3.117-2.717c-0.055,0.322,0.225,0.244,0.225,0.244S-2.555-2.19-2.588-2.15   c-0.032,0.039-1.518,0.334-1.56,0.44C-4.19-1.605-4.017-1.485-4.017-1.485s-0.552-0.537-0.624-0.43   C-4.714-1.808-4.047-1.27-4.047-1.27l-0.086,0.176c0,0-0.42,0.216-0.586,0.433C-4.789-0.57-4.678-0.39-4.678-0.39l-0.181,0.343   c0,0-0.196-0.606-0.232-0.694s-0.141,0.02-0.146,0.098C-5.24-0.565-4.982,0.169-4.982,0.169s-0.319,0.547-0.327,0.636   C-5.315,0.89-5.265,0.929-5.265,0.929l-0.603,0.45l0.095,0.176l0.899-0.694h0.139l0.145,0.401L-4.662,1.35l0.333,0.988l0.13-0.078   l-0.456-1.438l0.167-0.107l0.842-0.41l-0.059-0.177c0,0-0.779,0.503-0.783,0.43C-4.492,0.484-3.51-1.046-3.291-1.251   c0.218-0.205,3.686,0.845,3.686,0.845s0.188,0.22,0.406,0.279C1.018-0.068,1.25-0.234,1.25-0.234l0.886,0.009L2.15,0.45   l-5.239,0.43v0.108L2.15,0.606c0,0,0.08,0.098,0.254,0.098S2.77,0.532,2.77,0.532l3.197-0.276V0.149L2.745,0.382   c0,0-0.022-0.523-0.008-0.606c0.016-0.084,0.939-0.18,1.713-0.548C5.066-1.065,5.158-1.53,5.158-1.53z" fill="#FFFFFF"/>
</g></svg>