<?xml version="1.0" standalone="no"?>
<svg xmlns="http://www.w3.org/2000/svg" viewBox="-6.37 -6.37 12.74 12.74" color="#212121" width="75" height="75"><g transform="matrix(1 0 0 -1 0 0)">
	<g xmlns="http://www.w3.org/2000/svg">
		<path class="primary" fill="currentColor" d="M0-6.245c-3.444,0-6.245,2.802-6.245,6.246c0,3.443,2.802,6.244,6.245,6.244s6.245-2.801,6.245-6.244    C6.245-3.443,3.444-6.245,0-6.245z"/>
		<path class="secondary" d="M0,6.12c3.38,0,6.12-2.74,6.12-6.119C6.12-3.38,3.38-6.12,0-6.12s-6.12,2.74-6.12,6.121    C-6.12,3.38-3.38,6.12,0,6.12 M0,6.37c-3.513,0-6.37-2.857-6.37-6.369C-6.37-3.512-3.513-6.37,0-6.37s6.37,2.858,6.37,6.371    C6.37,3.513,3.513,6.37,0,6.37L0,6.37z" fill="#FFFFFF"/>
	</g>
	<path xmlns="http://www.w3.org/2000/svg" id="VH-Sea_Stallion_1_" class="secondary" d="M5.251-1.757L4.873-1.339L4.575-1.301c0,0-0.293,0.437-1.705,0.567v0.145l3.104-0.19   L2.87-0.417c0,0-0.087,0.259-0.549,0.259c-0.461,0-0.388-0.144-0.388-0.144l-4.831,0.389l4.902-0.576L1.991-0.606H1.039   c0,0-0.476-0.07-0.476-0.488h-1.977c0,0-0.07,0.116-0.114-0.014l-1.773-0.087l-0.671,1.009h0.914v0.274h-1.065   c0,0-0.114,0.245-0.302,0.245v1.125h-0.198V0.376c0,0-0.22-0.058-0.235-0.115h-1.124V0.016h1.006l0.234-0.202v-1.167h0.244v1.023   l0.526-0.865c0,0-0.05-0.172,0.167-0.389l-0.332-0.317l0.433,0.231l1.571-0.015l0.98-0.562l1.099-0.317v-0.087h1.316   C1.26-2.666,1.254-2.68,1.254-2.696c0-0.105,0.084-0.189,0.188-0.189c0.105,0,0.189,0.084,0.189,0.189   c0,0.016-0.005,0.03-0.01,0.044H3.33c0,0,0.072-0.101,0.115,0h1.521C4.965-2.666,4.96-2.68,4.96-2.696   c0-0.105,0.083-0.189,0.188-0.189c0.104,0,0.188,0.084,0.188,0.189c0,0.056-0.024,0.105-0.063,0.14   C5.4-2.494,5.522-2.4,5.522-2.262C5.522-1.974,5.251-1.757,5.251-1.757z" fill="#FFFFFF"/>
</g></svg>